<?xml version="1.0" encoding="utf-8"?>
<!-- Generator: Adobe Illustrator 25.3.1, SVG Export Plug-In . SVG Version: 6.00 Build 0)  -->
<svg version="1.1" id="Layer_1" xmlns="http://www.w3.org/2000/svg" xmlns:xlink="http://www.w3.org/1999/xlink" x="0px" y="0px"
	 viewBox="0 0 512 512" style="enable-background:new 0 0 512 512;" xml:space="preserve">
<style type="text/css">
	.st0{fill:#0CA2BF;}
</style>
<path class="st0" d="M408.5,188.7c-4.9-14-15.7-27.7-29.5-33.6c-13-5.6-28.9-6.8-42.4-2.2c-7.5,2.5-14.2,7.1-18.4,13.9
	c-4.7,7.5-5.2,18.2-3.5,26.7c1.9,9.6,6.9,16.6,16,20.3c2.8,1.1,9.3,3.5,11.9,0.7c1.1-1.2-1.2-6.2-1.4-7.6
	c-1.3-14.7,15.6-18.8,26-11.6c7.4,5.1,8.4,13.8,5.3,21.8c-2,5.2-5.5,9.6-7.7,14.7c-0.2,0.4-0.3,0.9-0.5,1.3
	c-9.9-7.1-22.5-10-33.6-11c-0.3,0-0.6-0.1-1-0.1c-1.8-0.1-3.6-0.2-5.3-0.3l0,0c0,0-0.1,0-0.1,0c-3.3-0.1-6.5-0.1-9.2,0.1
	c-12,0-26.2,0.2-26.4,0.2c-13.2-1.2-26.3-3.5-37.8-10.2c-10.3-6-18.8-16.9-24-27.6c-5-10.2-10.9-20-18.1-28.9
	c-2.7-3.3-5.5-6.6-8.8-9.4c-3.6-3.1-6.2-8.5-8.3-12.7c-2.6-5.3-4.9-10.9-7.6-16.2c-0.4,4.5-2.7,8.6-4.5,12.6c-0.9,2-1.8,4.1-2.4,6.3
	c-0.2,0.9-0.5,6.5-0.7,6.6c-7.5,0.7-18,1.6-23.6,7.1c-5.4,5.2-7,12.8-14.6,15.6c-6.3,2.3-13.2,2.6-19.7,4.7
	c-15.9,5.2-2.7,24.2,4.6,31.4c4.2,4.2,8.2,6,13.9,6.8c9.9,1.4,19.8,1.1,29.5-0.8c9.1-1.8,19.3-4.8,26.6-10.9
	c-6,7.5-15.1,11.9-24.2,14.5c-1.9,0.5-1.6,4.9-1.9,6.9c-0.4,2.1-0.9,4.1-1.4,6.2c-0.9,4.2-1.7,8.5-2.3,12.8
	c-2.2,17.1-1.9,36.3,6.7,51.8c6.6,11.9,18.1,19.3,30.8,22.8c3.5,10.1,5.6,20.2,7.6,31.5c2.7,13.5,5.4,30.4-7.4,39.1
	c-18.9,12.1,13.5,17.5,22.3,10.8c9.4-6.8,9.4-19.6,10.1-29.7c0.7-14.8,1.4-29.7,2.7-44.5c0.1-2.1,0.4-4.4,0.6-6.9c0,0,0.1,0,0.1,0
	c0.1-0.9,0.1-1.7,0.2-2.6c0.7-6.2,1.4-13,0.8-19.1c0.2-6.9,0.2-11.6,0.2-11.6c2.7,11.5,3.6,23.2,3.7,32.1c8-2.5,15.5-6.3,23.2-9.6
	c10.6-4.5,21.4-8.7,32.5-11.8c4-1.1,8.7-3,12.8-1.6c4.5,1.5,7.1,5.6,9,9.7c4,8.3,8.9,15.6,15.5,22c6.4,6.2,13.6,11.5,20.6,17
	c6.8,5.3,13.4,11.3,18.1,18.6c3.3,5.1,8.4,15.8,3,21.2c-3.7,3.7-11.3,3.1-13,8.9c-2.5,8.4,5,10.6,11.6,10.2
	c7.6-0.5,16.7-1.1,22.7-6.4c6.6-5.9,6.2-18.2,4.5-26.5c0.2,0.9,0.2,1-0.2-1c-1.2-5.1-0.6-2.5-0.1-0.4c-2.4-9.8-9.2-17.7-13-26.9
	c-2.1-5.2-3.5-10.7-5.5-15.9c-2.1-5.7-3.4-11.5-3.4-17.6c-0.1-11,3.6-22.3,1.8-33.2c-0.7-10.9-4.1-19.2-9-25.6
	c5.5-6.6,13.8-11.5,20.7-16.1c5.6-3.8,11.8-7.9,14.8-14.3C411.9,204.1,411,195.9,408.5,188.7z M155,165.8l10.7,4.3
	C165.7,170.1,153.4,178.6,155,165.8z"/>
</svg>
