<?xml version="1.0" encoding="utf-8"?>
<!-- Generator: Adobe Illustrator 25.3.1, SVG Export Plug-In . SVG Version: 6.00 Build 0)  -->
<svg version="1.1" id="Layer_1" xmlns="http://www.w3.org/2000/svg" xmlns:xlink="http://www.w3.org/1999/xlink" x="0px" y="0px"
	 viewBox="0 0 512 512" style="enable-background:new 0 0 512 512;" xml:space="preserve">
<style type="text/css">
	.st0{fill:#0CA2BF;}
</style>
<g>
	<path class="st0" d="M232,142c-3.8-11.7-13.1-21.9-25.2-25.2c-12.4-3.4-29.2-1.5-37.8,9.2c-1,1.2-5,6.6-4.2,8
		c1.5,2.7,2.9,5.4,4.4,8c3.3,6.1,6.7,12.3,10,18.4c0-3.3,3.3-6.8,5.1-9.4c2.4-3.4,5.8-6.5,9.6-8.3c5.5-2.6,14.6-2.4,19,2.3h0
		c0,0,3.9,3.5,3.8,9.9l0,0c0,0,0.5,25-29.5,24.1c0,0,0,0.1-0.1,0.1c9.9,3.2,21.9,6,31.8,0.9c9.6-5,14.3-16.5,14.5-27.3
		C233.4,148.2,232.8,144.6,232,142z"/>
	<path class="st0" d="M224.4,287.8c0,9.7,3,20,3.7,29.7c1.5,16.3,5.2,32.7,5.2,48.3c0,3,0.7,7.4,0,9.6c-1.5,4.5-5.2,7.4-7.4,11.9
		c-2.2,5.2-2.2,4.5,3.7,5.2c3.7,0.7,7.4,0,11.1-0.7c8.9-2.2,5.9-11.9,6.7-20c0.7-8.2,2.2-17.1,3-25.2c2.2-19.3,3.7-38.6,3.7-57.9
		c-9.6-0.7-20.1,2.2-30.4,3l0,0c0.7,0,1.5,0,2.2,0L224.4,287.8z"/>
	<path class="st0" d="M410.8,213.7c-7.6-15.8-24.8-25-41.7-26.9c-39.2,0.9-76,3.6-114.9-4.3c-8.6-1.8-15.4-4.9-21.5-9
		c-10.8,11.8-29.8,9.4-29.8,9.4c18.3,1.6,25.8-12.3,25.8-12.3v0c-0.3-0.2-0.5-0.4-0.8-0.6c-0.8-0.6-2.3-2.1-4.2-4.1l-0.7,5.8
		l-17.6,4.2c8.3-8.8,8.9-16.5,7.9-21.5c-2.9-3.3-5.9-6.7-8.6-9.9c-8.1-1.8-19.2,3.6-19.2,3.6l0.6-20.1c-3.6-1.2-6.9-1.6-8.9-1.7
		c-0.7,0-1.4,0-2.1,0c-8.4-0.1-16.8,1-25,3.1c-13.4,3.4-28.3,8.1-39.4,16.7c-5.2,4-10.2,9.7-11.7,16.3c-1,4.3-0.9,11.8,2.5,15.2
		c4.9,4.9,12.8-0.8,17.5-3.2c-2.1,2.1-4.7,3.8-6.8,6c-1.1,1.1-2,2.3-2.7,3.6c-0.9,1.8,2.5,2.2,4,2.6c0,0,24.3,7.2,51.6,2.7l0.2,16.5
		c-0.8,27.2-2.1,60.2,19.7,79.5c27.8,24.6,68,25.6,102.9,22.3c17.2-1.7,34.3-4.3,51.5-5.7c5-0.4,10.2-0.4,15.4-0.4
		c-8.8-22.9-2.6-42.1-2.6-42.1c-1.3,17.7,4,32.1,9.5,42c0.1,0,0.3,0,0.4,0c2.3,2.7,4.6,5.1,6.5,7c6.7,6.7,15.6,11.9,19.3,21.5
		c3,6.7,3.7,14.9,3,22.3c-0.7,6.7-3,14.9-5.9,20.8c-1.5,5.2-12.6,17.8-8.9,22.3c6.7,6.7,17.1-4.5,19.3-9.6c3-6.7,4.5-14.9,6.7-22.3
		c4.5-14.1,7.4-29,5.2-43.8c-3-16.3,2.5-35.1,5.5-51.5c0,0,0,0,0,0C418.2,249.6,417.3,227.2,410.8,213.7z M151.4,148.4
		c0,0,4.2-4.4,13.4-1.6C164.8,146.7,159.4,158.2,151.4,148.4z"/>
</g>
</svg>
