<?xml version="1.0" encoding="utf-8"?>
<!-- Generator: Adobe Illustrator 25.3.1, SVG Export Plug-In . SVG Version: 6.00 Build 0)  -->
<svg version="1.1" id="Layer_1" xmlns="http://www.w3.org/2000/svg" xmlns:xlink="http://www.w3.org/1999/xlink" x="0px" y="0px"
	 viewBox="0 0 512 512" style="enable-background:new 0 0 512 512;" xml:space="preserve">
<style type="text/css">
	.st0{fill:#0CA2BF;}
</style>
<path class="st0" d="M398.6,343.9c1.1-3.2,6.4-9.6,6.4-11.8c0-13.8-26.4-9.7-35.1-9.6c5-3.8,20.2-18,13-45c-0.2-0.9-0.5-1.8-0.8-2.7
	c0-0.1,0-0.1-0.1-0.2h0c-1.7-4.7-4.5-8.8-8.1-12.5c4.4-1.9,8.7-5.8,11.3-9.6c5.4-8.6,2.7-25.7-1.1-34.8
	c-2.7,9.1-16.6,13.9-21.9,21.9c-2.7,4-3.9,7.2-3.9,10.6c-1.5-0.9-3.1-1.8-4.7-2.6c-2.9-1.6-5.6-2.5-8.3-2.8
	c-12.1-2.8-24.7-0.6-27.5-0.1c-4.7,1.1-9.2,2.5-13.4,4.2c-23.3,7.2-47.3,21.7-72.2,12c-2-0.8-4-2-5.9-3.8c-0.7-0.6-1.3-1.3-1.8-1.9
	c-0.2-0.2-0.4-0.5-0.6-0.8c-4.3-5.6-3.9-12.3-3-16.7c0.6-1.6,1.1-3.2,1.5-4.8l0,0c2.2-9.6-0.1-17.8-3.2-23.8
	c10.1-2.9,21.1-3.8,31.1-6.4c18.6-4.5,37.1-9.6,54.5-18.1c10.3-5.1,26.9-15.1,19.7-28.6c-10.2-17.2-36.4-5.1-47.3,4.1
	c-13.5,11.4-25.3,22.5-41.7,29.6c-6.5,3-18.6,8-27.1,7c-1.1-0.7-2.2-1.3-3.5-1.8c12.5-6.9,26.9-11.4,39.2-16
	c14.1-5.3,28.1-15,37-28.1c3.5-5.3,11.4-15,9.7-22c-6.1-17.6-27.3-4.4-35.2,1.8c-13.2,11.4-22,24.6-33.4,37.8
	c-6.7,7.5-21.3,20.8-34.4,23.1c-19.4-1.5-32.4,11.2-32.4,11.2c-8.8,7.9-7.9,18.5-13.2,27.3c-6.2,9.7-15.8,11.4-8.8,23.8
	c4.4,9.7,16.7,15.8,25.5,19.3c5.8,2.3,11.8,3.2,17.7,2.9c-7.4,13.4-8.2,23-8.3,24.8c-0.6,3.2-0.9,6.5-0.7,9.8
	c0.4,5.6,2.1,10.9,3.7,16.2c0.2,0.6,3.8,13.9,3.5,21.2c-0.2,5.7-2,13.1-8.8,18.7c0,0-12,9.5-39.9,16.3c0,0-9.7,1.5-15.1,7.6
	c0,0-0.1,0.1-0.1,0.1c-0.3,0.4-0.6,0.7-0.8,1.1c-1.6,2.8-1,6.5-1,6.8c0.4,1.3,1.3,2.5,3,3.3c1.7,0.7,3.6,1,5.4,0.7
	c5.2-0.9,9.9-3.1,14.8-4.8c7-2.3,14.2-3.5,21.3-4.9c11.9-2.3,24.5-4.5,34.2-12.4c4.5-3.6,8.5-8.4,11.2-13.8l12-17.2
	c3.1-0.5,6.1-1.5,8.6-2.2c12.8-4,27.3-8,40.9-10.4c17.5-3.1,35.9,0.5,54.2-0.3c-13.1-21-1.5-39.9-1.5-39.9
	c-5,20.9,3.9,33.6,9.3,39.2c0.1,0,0.2,0,0.3,0c8,8.5,18.2,12.9,29.9,12c10.4-1,20.7-8.5,31.1-8.9c0,0-11.3,18.4-12.2,29l0,0
	c-1,4.1-1.3,8.5-0.7,12c1.1,7.5,9.6,15,17.1,13.9c9.6-1.1,9.6-8.6,9.6-16s-3.2-13.9-2.1-22.5C395.4,352.5,396.5,347.1,398.6,343.9z
	 M158.4,232.2c0,0,0-10.1,12.8-3.2C171.2,229,167.5,239.6,158.4,232.2z"/>
</svg>
