<?xml version="1.0" encoding="utf-8"?>
<!-- Generator: Adobe Illustrator 25.3.1, SVG Export Plug-In . SVG Version: 6.00 Build 0)  -->
<svg version="1.1" id="Layer_1" xmlns="http://www.w3.org/2000/svg" xmlns:xlink="http://www.w3.org/1999/xlink" x="0px" y="0px"
	 viewBox="0 0 512 512" style="enable-background:new 0 0 512 512;" xml:space="preserve">
<style type="text/css">
	.st0{fill:#0CA2BF;}
</style>
<path class="st0" d="M390.4,153.6c-6.8-28.5-27.4-52.3-58.1-51.8c-55,0.9-46.4,71.1-14.9,96.3c9.6,7.7,23.3-5.9,13.6-13.6
	c-12.3-9.8-20-23.5-20.5-39.4c-0.7-20.2,18-27.3,35.4-22.5c11.5,3.2,19.2,17.2,23.4,27.3c5.5,13.4,2.2,27.3-2.1,40.4
	c-5.2,15.6-15.5,27.8-20.3,42.2c-8.6-2.4-18.3-2.6-27.1-1.3c-15.2,2.2-29.6,7.8-44.1,12.8c-40.9,11.9-55.5-5.4-57.3-7.9
	c-0.2,0.3-0.4,0.6-0.7,0.8c1.9-3.1,3.5-6.3,4.5-9.7c5.1-0.1,10.3-1.5,14.5-3.7c11.4-6.6,11.6-22.5,5.7-33
	c-4.4-8.3-12.6-13.2-21.2-7.8c-1.6,0.9-3.5,2.5-5.1,4.5c-1.2,1.5-4.1,5.9-4.1,13.7c0,0-3-6.3,0.8-16.9c-0.2-0.2-0.3-0.4-0.5-0.6
	c-13-13.2-31.3-16.1-48.8-11c-7.6,2.3-15.9,5.6-22,10.9c-6,5.2-12.5,11.5-14.7,19.4c5.1,0.3,10.3,5.8,9.8,10.9
	c-0.5,4.4-4,7.7-7.8,9.6c-3.5,1.8-7.7,2.7-8.8,7c-2.2,8.3,2.9,18.9,8.9,24.6c4.4,4.2,9.9,6.8,15.7,8.4v0c0,0,1.3,0.4,3.6,0.9
	c0,0,15.5,3.6,25.6,1.3c0,0,0,0,0,0l0,0c6.4-0.9,14.5-3,22.6-8.1c0.4-0.2,0.8-0.5,1.1-0.7c0.1,0,0.1-0.1,0.2-0.1
	c0,0-0.1,0.1-0.4,0.4c5.6-3.4,10.9-7.6,15.2-12.7c-13.9,19.2-33.8,25.2-47.1,27c-0.8,12.8,7.4,48.4,9.1,55.2c0,0.2,0.1,0.3,0.1,0.5
	c0.1,0.4,0.1,0.6,0.1,0.6h0c4.2,17.9,5.7,36.9-5.9,51c-3.7,4.6-8.7,7.9-12.5,12.4c-4,4.6-0.3,9.8,4.8,11.5
	c12,4.1,23.3-7.2,29.2-16.4c13-20,13.7-44.6,20.2-66.9c5.6,1.8,9.4,7,11.7,12.3c2.7,6.3,3.7,13.3,3.8,20.2c0.1,4.9-0.3,9.8-0.9,14.6
	c-0.8,6.3-1.4,13.7-3.9,19.6c-2,5-6.9,18.7,0.2,22c9.1,4.2,17.4-7.5,21.6-13.9c3.8-5.9,5.9-13.4,7.8-20.1
	c3.1-11.6,3.7-25.2,2.9-37.4c-0.2-2.6-2-18.2-9.3-32.5c0,0,9.9,11.7,13.8,30.8c9.2,1.9,18.7,2.7,28.1,2c10.6-0.8,21.6-3.6,29.7-8.2
	c2,20.4,15.8,36.9,21.6,56.1c-6.7,0.6-13.7-0.4-20.3,1.5c-6,1.7-9.6,9.3-2.8,12.9c8.4,4.3,21.3,3.8,29.9,0.8
	c12.5-4.4,15.4-16.2,14.2-28.4c-1.5-15.4-7.1-30.2-6-45.8c1.6-23.3,23.4-41.9,19.9-65.9c-1.1-7.4-4.1-13.1-8.3-17.5
	c2.7-13.9,12.9-26,18.6-39.5C389.1,188.1,394.2,169.8,390.4,153.6z M156,219.6c0,0,0.8-9.6,12-3.6C168,216,164,227.2,156,219.6z
	 M213.9,242.3C213.9,242.3,213.8,242.2,213.9,242.3c0.2-0.4,0.4-0.8,0.7-1.1C214.3,241.6,214.1,242,213.9,242.3z"/>
</svg>
