<?xml version="1.0" encoding="utf-8"?>
<!-- Generator: Adobe Illustrator 25.3.1, SVG Export Plug-In . SVG Version: 6.00 Build 0)  -->
<svg version="1.1" id="Layer_1" xmlns="http://www.w3.org/2000/svg" xmlns:xlink="http://www.w3.org/1999/xlink" x="0px" y="0px"
	 viewBox="0 0 512 512" style="enable-background:new 0 0 512 512;" xml:space="preserve">
<style type="text/css">
	.st0{fill:#0CA2BF;}
</style>
<path class="st0" d="M431.9,310.7c-0.7-6.8-2.8-13.1-5.4-18.9c-5.2-11.7-12-22-18.6-32c-4.5-7-9.2-13.9-12.6-20.7
	c0-0.6,0-1.1-0.1-1.7c-0.6-7.5-2.6-15-5.4-22c-13.6-34.7-50.6-56.5-86.9-59c-22.8-1.5-45.6,4.8-65.9,14.9c-4.9,2.5-9.7,5.2-14.4,8.1
	c-2.4,1.4-4.7,2.9-7.1,4.4c-1.8,1.2-4.7,2-4.5,4.3c0.4,4.1-0.9,8-3.5,11.1c-4.2,5.1-10.7,8.1-16.8,10.3c-3.8,1.3-7.7,2.3-11.6,3.2
	c7.7-4,16.7-6.4,22.4-13c6.9-7.9,5.8-22.5-0.5-30.6c-6.7-8.6-17.4-2.2-22.3,4.9c-5.5,7.9-10.4,16.2-15.6,24.3
	c-4.5-2-9.1-2.2-12.8-1.8c0,0,0,0-0.1,0.1c-1,0.2-2,0.4-3,0.7c1.2-5.1,1.9-10,1.9-11.6c0-6.9-6.9-24.3-15.6-12.1
	c-3.8,5.1,1.1,18.8,0.8,27.3c-40,13.3-49.7,41.7-49.7,41.7c-2.5,3.2-2.4,4,3.4,9.8c5.2,5.2,11.8,9.2,18.3,10.5
	c15.2,5.1,55.1-0.9,67-15.6c7.4,1.6,14.7,3.6,21.3,7.5c7.2,4.3,13.5,10.3,21.3,13.6c0.3,0.1,0.7,0.2,1,0.4
	c-1.6,6.1-4.3,12.4-7.6,17.7c-6.1,9.6-13.1,7-21.8,12.2c-11.3,7.9,4.4,14.8,12.2,13.1c11.3-1.8,14.8-11.4,20.9-20.9
	c2.8-4.7,16.8-15.5,24.3-25.3c1.9-0.8,3.7-1.6,5.5-2.4c5.9-2.5,12.1-4.8,18.6-5.2c7.4-0.5,14.9,2.4,21.9,4.4
	c-2.1-17.9,3.2-39.9,17.8-51.8c-9.5,10.9-14.7,26.4-14.5,40.7c0.2,9.9,2.4,19.5,9.2,27.1c6.8,7.6,16.1,13,25.4,16.9
	c-11,0-21.6-3.8-32.7-3.2c-4.2,0.2-9.9,1-12,5.2c-1.8,3.6-0.5,8.2,2.9,10.4c4,2.6,9.5,2.7,14.1,2.5c6.3-0.2,12.6-1.1,18.8-2.3
	c5.7-1,11.4-2.3,17.1-3.5c1.9-0.4,3.8-0.8,5.8-1.1c3.5-0.5,7.1,0.3,10.7,0.2c4.1-0.1,8.6-2.4,7.1-7c-0.9-3-2.8-7.9,0.5-10.2
	c1.4-1,3.2-1.3,4.9-1.8c3-0.8,6-1.8,8.8-3.1c5.6-2.6,10.5-6.5,13.9-11.7c1.5-2.2,2.6-4.6,3.5-7.1c1.3,1.8,2.6,3.6,4,5.4
	c7.1,9.6,14.1,19.1,19.2,29.1c5.1,9.9,7.8,20.8,3.9,30.1c-0.9,2.4-2.2,4.5-3.8,6.8c-1.5,2-3.4,4-5.4,5.7c-4,3.4-9,5.6-14.3,6.9
	c-10.8,2.5-22.7,1.2-34.3-0.7c-11.7-2-23.5-4.5-35.2-6.8c-23.5-4.7-47.3-9.2-71.3-9.7c24,1.9,47.3,7.6,70.4,13.6
	c11.6,3,23.2,6.1,35,8.8c11.8,2.6,24.2,4.8,37.1,2.6c6.4-1.1,12.8-3.6,18.2-7.6c2.7-2,5.1-4.3,7.4-7c2.1-2.5,4.1-5.4,5.5-8.6
	C431.7,324.8,432.6,317.4,431.9,310.7z M131.6,221c0,0,4.7-10.4,15.2-2.9C146.9,218.2,142.2,230.7,131.6,221z"/>
</svg>
