<?xml version="1.0" encoding="utf-8"?>
<!-- Generator: Adobe Illustrator 25.3.1, SVG Export Plug-In . SVG Version: 6.00 Build 0)  -->
<svg version="1.1" id="Layer_1" xmlns="http://www.w3.org/2000/svg" xmlns:xlink="http://www.w3.org/1999/xlink" x="0px" y="0px"
	 viewBox="0 0 512 512" style="enable-background:new 0 0 512 512;" xml:space="preserve">
<style type="text/css">
	.st0{fill:#0CA2BF;}
</style>
<path class="st0" d="M376.9,160.5c-22.5-6.8-40.2,8.5-45.5,29.5c-5.3,20.7-1.5,42.8,2.2,63.4c3.9,21.4,9.4,43,3.4,64.7
	c-4,14.6-14,33-30.7,36.2c-21.9,4.2-24.1-17.5-21.7-33.8c6-40.6,26.1-78.7,20.8-120.8c-2.3-18.5-10.4-36.7-27.1-46.2
	c-14.9-8.5-34.5-9.5-49.8-1.5c-31,16.2-30.4,60.6-23.5,89.8c5,21.3,13.5,42,15.2,64c1.2,14.6-1.6,36.1-17.8,41.9
	c-17.9,6.4-34.4-16.2-39.1-30.5c-6.1-18.6-2.9-38.8,1-57.5c2-9.4,4.4-18.8,6-28.3c0.5-2.8,0.9-5.6,1.2-8.3c0.4-3.4,1.6-4.2,3.4-6.9
	c3.4-5,6.1-10.7,6.9-16.7c2.2-16.9-9.3-33.5-20.6-45c-7.8-7.9-22.7-20.4-33.6-10.5c-12.5,11.3-11.5,34.2-8.2,49.1
	c1.8,7.9,4.5,16.1,10.1,22.3c2.8,3.1,6.1,5.6,9.8,7.5c3.9,2,9.3,2.4,11.5,6.5c4.3,8,1.3,19.7-1.1,27.8c-3.2,10.8-6.8,21.4-8.4,32.6
	c-4.8,34.2,10.4,77,47.8,85.4c17.4,3.9,34.7-3.5,46.3-16.6c14-15.8,18.4-37,16.8-57.5c-2.5-31.5-17.6-61-17.2-92.8
	c0.1-9.5,1.8-22.7,12.1-26.5c11.3-4.1,21,3.4,24.6,13.8c8.2,23.5,0.9,52.4-4.5,75.7c-6.6,28.3-19.6,75.5,9.8,96
	c16.8,11.7,40,5.2,53.8-7.9c10.7-10.1,16.8-23.9,19.8-38.1c1.9-9.4,2.8-19.1,1.6-28.9c-1.4-11.2-5.5-21.8-8-32.8
	c-5-21.9-11.4-45.6-6.8-68.2c4-19.1,20.2-33.9,40.7-26.8c13.5,4.7,20.1,19.3,23.3,34.8c0,0-0.6-7.8-3-15.6
	C394.7,173.1,388.2,163.9,376.9,160.5z M169.4,185.9c0,0-7.2,0.2-8.4-9.3C161,176.6,171.7,173.4,169.4,185.9z M132.9,199
	c-10-7.8,0.1-12.5,0.1-12.5C138.5,194.3,132.9,199,132.9,199z"/>
</svg>
