<?xml version="1.0" standalone="no"?>
<!DOCTYPE svg PUBLIC "-//W3C//DTD SVG 1.1//EN" "http://www.w3.org/Graphics/SVG/1.1/DTD/svg11.dtd" >
<svg xmlns="http://www.w3.org/2000/svg" xmlns:xlink="http://www.w3.org/1999/xlink" version="1.1">
<metadata>
Created by FontForge 20191125 at Mon Feb  1 10:02:22 2021
 By convertio
Copyright (c) 2020 by Telkomsel . All rights reserved.
</metadata>
<defs>
<font id="TelkomselBatikSans-Bold" horiz-adv-x="600" >
  <font-face 
    font-family="Telkomsel Batik Sans Bold"
    font-weight="700"
    font-stretch="normal"
    units-per-em="1000"
    panose-1="0 0 8 0 0 0 0 0 0 0"
    ascent="800"
    descent="-200"
    x-height="525"
    cap-height="726"
    bbox="-482 -311 1264 999"
    underline-thickness="50"
    underline-position="-100"
    unicode-range="U+0020-FB01"
  />
<missing-glyph horiz-adv-x="606" 
d="M62 0v720h482v-720h-482z" />
    <glyph glyph-name="fi" unicode="fi" horiz-adv-x="688" 
d="M147 0.5q-18 3.5 -30 9.5v402q-59 2 -80.5 28.5t-21.5 84.5h117q-21 13 -33 35t-12 50q0 46 34.5 82t99 55.5t151.5 19.5q94 0 146.5 -23t52.5 -65q0 -14 -5 -30.5t-17 -30.5q-26 16 -72.5 25.5t-98.5 9.5q-75 0 -110.5 -20t-35.5 -56q0 -18 9.5 -32t25.5 -20h135v-113
h-129v-324q0 -41 -25 -66t-66 -25q-17 0 -35 3.5zM499.5 20.5q-23.5 23.5 -23.5 67.5v437h157v-515q-12 -6 -30 -9.5t-35 -3.5q-45 0 -68.5 23.5z" />
    <glyph glyph-name="f_f.liga" unicode="ff" horiz-adv-x="788" 
d="M612.5 546.5q9.5 -15.5 25.5 -21.5h125v-113h-130v-324q0 -44 -23.5 -67.5t-67.5 -23.5q-17 0 -35 3.5t-30 9.5v402h-204v-324q0 -44 -23.5 -67.5t-67.5 -23.5q-17 0 -35 3.5t-30 9.5v402q-58 1 -80 26.5t-22 86.5h119q-18 12 -29.5 36.5t-11.5 51.5q0 67 53 104.5
t132 37.5q131 0 131 -78q0 -33 -23 -60q-27 22 -71 22q-34 0 -53 -15.5t-19 -42.5q0 -19 9.5 -34.5t25.5 -21.5h216q-18 12 -29.5 36.5t-11.5 51.5q0 67 53 104.5t132 37.5q131 0 131 -78q0 -33 -23 -60q-27 22 -71 22q-34 0 -53 -15.5t-19 -42.5q0 -19 9.5 -34.5z" />
    <glyph glyph-name="f_t.liga" unicode="ft" horiz-adv-x="794" 
d="M763 113q8 -18 8 -39q0 -39 -37.5 -61.5t-95.5 -22.5q-166 0 -166 167v255h-199v-324q0 -44 -23.5 -67.5t-67.5 -23.5q-17 0 -35 3.5t-30 9.5v402q-58 1 -80 26.5t-22 86.5h119q-18 12 -29.5 36.5t-11.5 51.5q0 67 53 104.5t132 37.5q131 0 131 -78q0 -33 -23 -60
q-27 22 -71 22q-34 0 -53 -15.5t-19 -42.5q0 -19 9.5 -34.5t25.5 -21.5h193v134q12 6 30 9.5t35 3.5q44 0 67.5 -23.5t23.5 -67.5v-56h133v-113h-132v-241q0 -58 54 -58q19 0 35 7t25 19q13 -8 21 -26z" />
    <glyph glyph-name="s_p.liga" unicode="sp" horiz-adv-x="1114" 
d="M590 -186.5q-18 3.5 -30 9.5v765q-27 -2 -57 -21t-46 -45q-37 3 -37 45q0 34 34.5 71.5t91.5 63t123 25.5q27 0 48 -4v-290q20 50 58.5 76t93.5 26q64 0 111.5 -33.5t73 -95.5t25.5 -145q0 -125 -56.5 -198t-153.5 -73q-108 0 -152 81v-170q0 -44 -23.5 -67.5
t-68.5 -23.5q-17 0 -35 3.5zM90.5 21.5q-50.5 31.5 -50.5 81.5q0 28 16.5 49t43.5 30q9 -38 46 -59.5t86 -21.5q78 0 78 54q0 27 -18.5 36.5t-43.5 13t-34 5.5q-71 11 -121.5 42.5t-50.5 106.5q0 82 60.5 129t165.5 47q80 0 128.5 -27.5t48.5 -72.5q0 -46 -55 -69
q-19 31 -53 46.5t-78 15.5q-31 0 -48 -12t-17 -36q0 -23 22 -33t70 -18q55 -10 91 -22.5t62 -45.5t26 -93q0 -84 -63.5 -131t-168.5 -47q-92 0 -142.5 31.5zM891.5 149.5q28.5 40.5 28.5 112.5q0 71 -28 112t-77 41q-42 0 -70 -28.5t-28 -70.5v-118q0 -36 28.5 -62.5
t67.5 -26.5q50 0 78.5 40.5z" />
    <glyph glyph-name="t_t.liga" unicode="tt" horiz-adv-x="784" 
d="M753 113q8 -18 8 -39q0 -39 -37.5 -61.5t-95.5 -22.5q-166 0 -166 167v255h-206v-241q0 -58 54 -58q19 0 35 7t25 19q13 -8 21 -26t8 -39q0 -39 -37.5 -61.5t-95.5 -22.5q-166 0 -166 167v255q-36 1 -55.5 11t-27.5 34t-8 68h90v134q12 6 30 9.5t35 3.5q44 0 67.5 -23.5
t23.5 -67.5v-56h206v134q12 6 30 9.5t35 3.5q44 0 67.5 -23.5t23.5 -67.5v-56h133v-113h-132v-241q0 -58 54 -58q19 0 35 7t25 19q13 -8 21 -26z" />
    <glyph glyph-name=".notdef" horiz-adv-x="606" 
d="M62 0v720h482v-720h-482z" />
    <glyph glyph-name="space" unicode=" " horiz-adv-x="180" 
 />
    <glyph glyph-name="A" unicode="A" horiz-adv-x="718" 
d="M5 22l265 698h91q48 0 74.5 -21.5t46.5 -73.5l231 -598q-18 -18 -39 -25.5t-46 -7.5q-36 0 -59.5 15.5t-35.5 49.5l-35 96h-275l-34 -95q-24 -66 -105 -66q-48 0 -79 28zM360 535l-89 -248h179z" />
    <glyph glyph-name="Aacute" unicode="&#xc1;" horiz-adv-x="718" 
d="M5 22l265 698h91q48 0 74.5 -21.5t46.5 -73.5l231 -598q-18 -18 -39 -25.5t-46 -7.5q-36 0 -59.5 15.5t-35.5 49.5l-35 96h-275l-34 -95q-24 -66 -105 -66q-48 0 -79 28zM360 535l-89 -248h179zM361 769l-63 19l118 173l150 -29z" />
    <glyph glyph-name="Abreve" unicode="&#x102;" horiz-adv-x="718" 
d="M5 22l265 698h91q48 0 74.5 -21.5t46.5 -73.5l231 -598q-18 -18 -39 -25.5t-46 -7.5q-36 0 -59.5 15.5t-35.5 49.5l-35 96h-275l-34 -95q-24 -66 -105 -66q-48 0 -79 28zM360 535l-89 -248h179zM281 940q18 -76 81 -76t78 76l68 -1q-2 -77 -39.5 -120.5t-109.5 -43.5
t-108 43t-38 121z" />
    <glyph glyph-name="Acircumflex" unicode="&#xc2;" horiz-adv-x="718" 
d="M5 22l265 698h91q48 0 74.5 -21.5t46.5 -73.5l231 -598q-18 -18 -39 -25.5t-46 -7.5q-36 0 -59.5 15.5t-35.5 49.5l-35 96h-275l-34 -95q-24 -66 -105 -66q-48 0 -79 28zM360 535l-89 -248h179zM420 949l120 -168l-59 -20l-119 87l-120 -87l-60 20l120 168h118z" />
    <glyph glyph-name="Adieresis" unicode="&#xc4;" horiz-adv-x="718" 
d="M5 22l265 698h91q48 0 74.5 -21.5t46.5 -73.5l231 -598q-18 -18 -39 -25.5t-46 -7.5q-36 0 -59.5 15.5t-35.5 49.5l-35 96h-275l-34 -95q-24 -66 -105 -66q-48 0 -79 28zM360 535l-89 -248h179zM197 873l65 72l69 -60q11 -9 11 -24q0 -14 -11 -25l-65 -72l-69 60
q-11 10 -11 24t11 25zM387 873l65 72l69 -60q11 -11 11 -24q0 -10 -11 -25l-65 -72l-69 60q-11 10 -11 24q0 10 11 25z" />
    <glyph glyph-name="Agrave" unicode="&#xc0;" horiz-adv-x="718" 
d="M5 22l265 698h91q48 0 74.5 -21.5t46.5 -73.5l231 -598q-18 -18 -39 -25.5t-46 -7.5q-36 0 -59.5 15.5t-35.5 49.5l-35 96h-275l-34 -95q-24 -66 -105 -66q-48 0 -79 28zM360 535l-89 -248h179zM423 788l-62 -19l-206 163l150 29z" />
    <glyph glyph-name="Amacron" unicode="&#x100;" horiz-adv-x="718" 
d="M5 22l265 698h91q48 0 74.5 -21.5t46.5 -73.5l231 -598q-18 -18 -39 -25.5t-46 -7.5q-36 0 -59.5 15.5t-35.5 49.5l-35 96h-275l-34 -95q-24 -66 -105 -66q-48 0 -79 28zM360 535l-89 -248h179zM495 797h-268v87h268v-87z" />
    <glyph glyph-name="Aogonek" unicode="&#x104;" horiz-adv-x="718" 
d="M777 -135q-52 -40 -122 -40q-55 0 -89 23.5t-34 65.5q0 25 14 47.5t40 39.5q-37 14 -53 58l-35 96h-275l-34 -95q-24 -66 -105 -66q-48 0 -79 28l265 698h91q48 0 74.5 -21.5t46.5 -73.5l231 -598q-14 -15 -31 -22q-29 -27 -29 -60q0 -24 14.5 -37t39.5 -13q24 0 51 11z
M360 535l-89 -248h179z" />
    <glyph glyph-name="Aring" unicode="&#xc5;" horiz-adv-x="718" 
d="M5 22l265 698h91q48 0 74.5 -21.5t46.5 -73.5l231 -598q-18 -18 -39 -25.5t-46 -7.5q-36 0 -59.5 15.5t-35.5 49.5l-35 96h-275l-34 -95q-24 -66 -105 -66q-48 0 -79 28zM360 535l-89 -248h179zM264.5 796q-34.5 32 -34.5 86q0 53 35.5 85t96.5 32q60 0 95 -31.5
t35 -84.5q0 -54 -36 -86.5t-98 -32.5q-59 0 -93.5 32zM397.5 842.5q12.5 14.5 12.5 34.5t-12.5 35t-34.5 15q-24 0 -37 -14.5t-13 -34.5t13.5 -35t36.5 -15q22 0 34.5 14.5z" />
    <glyph glyph-name="Atilde" unicode="&#xc3;" horiz-adv-x="718" 
d="M5 22l265 698h91q48 0 74.5 -21.5t46.5 -73.5l231 -598q-18 -18 -39 -25.5t-46 -7.5q-36 0 -59.5 15.5t-35.5 49.5l-35 96h-275l-34 -95q-24 -66 -105 -66q-48 0 -79 28zM360 535l-89 -248h179zM337.5 926.5q15.5 -7.5 39.5 -22.5q17 -12 29.5 -18.5t25.5 -6.5
q21 0 32 10.5t20 36.5l51 -16q-6 -55 -38 -88t-80 -33q-19 0 -36 8t-38 23q-19 13 -30.5 19t-24.5 6q-21 0 -31.5 -10.5t-19.5 -36.5l-51 15q5 54 37 87.5t80 33.5q19 0 34.5 -7.5z" />
    <glyph glyph-name="AE" unicode="&#xc6;" horiz-adv-x="956" 
d="M808 128q54 0 82.5 -22t28.5 -64q0 -25 -3 -42h-278q-44 0 -70.5 19t-38.5 60l-28 76h-281l-28 -76q-15 -42 -42 -62t-71 -20t-74 18l267 705h656q3 -16 3 -42q0 -42 -28.5 -64t-82.5 -22h-329l64 -167h291q3 -16 3 -41q0 -41 -28 -63t-81 -22h-136l66 -171h138zM359 537
l-91 -250h184z" />
    <glyph glyph-name="B" unicode="B" horiz-adv-x="666" 
d="M75 0v720h295q115 0 177.5 -48t62.5 -136q0 -59 -28 -102t-76 -61q58 -8 91.5 -55.5t33.5 -115.5q0 -94 -66.5 -148t-188.5 -54h-301zM355 428q46 0 71 21.5t25 61.5q0 39 -25 60.5t-71 21.5h-122v-165h122zM376 128q46 0 71 23.5t25 66.5q0 41 -23 63t-66 22h-150v-175
h143z" />
    <glyph glyph-name="C" unicode="C" horiz-adv-x="629" 
d="M195.5 34.5q-76.5 45.5 -118 129t-41.5 195.5t41.5 196t118 129.5t179.5 45.5q63 0 114 -19t80 -52.5t29 -73.5q0 -29 -20.5 -49t-59.5 -28q-23 43 -59 63.5t-88 20.5q-88 0 -130.5 -57t-42.5 -175t42.5 -175.5t130.5 -57.5q52 0 88 20.5t59 63.5q39 -8 59.5 -28
t20.5 -49q0 -40 -29 -73.5t-80 -52.5t-114 -19q-103 0 -179.5 45.5z" />
    <glyph glyph-name="Cacute" unicode="&#x106;" horiz-adv-x="629" 
d="M195.5 34.5q-76.5 45.5 -118 129t-41.5 195.5t41.5 196t118 129.5t179.5 45.5q63 0 114 -19t80 -52.5t29 -73.5q0 -29 -20.5 -49t-59.5 -28q-23 43 -59 63.5t-88 20.5q-88 0 -130.5 -57t-42.5 -175t42.5 -175.5t130.5 -57.5q52 0 88 20.5t59 63.5q39 -8 59.5 -28
t20.5 -49q0 -40 -29 -73.5t-80 -52.5t-114 -19q-103 0 -179.5 45.5zM375 769l-63 19l118 173l150 -29z" />
    <glyph glyph-name="Ccaron" unicode="&#x10c;" horiz-adv-x="629" 
d="M195.5 34.5q-76.5 45.5 -118 129t-41.5 195.5t41.5 196t118 129.5t179.5 45.5q63 0 114 -19t80 -52.5t29 -73.5q0 -29 -20.5 -49t-59.5 -28q-23 43 -59 63.5t-88 20.5q-88 0 -130.5 -57t-42.5 -175t42.5 -175.5t130.5 -57.5q52 0 88 20.5t59 63.5q39 -8 59.5 -28
t20.5 -49q0 -40 -29 -73.5t-80 -52.5t-114 -19q-103 0 -179.5 45.5zM316 779l-120 168l59 20l119 -87l120 87l60 -20l-120 -168h-118z" />
    <glyph glyph-name="Ccedilla" unicode="&#xc7;" horiz-adv-x="629" 
d="M577.5 183q20.5 -20 20.5 -49q0 -55 -53 -95t-135 -48q41 -15 64.5 -42.5t23.5 -59.5q0 -43 -34 -67t-89 -24q-70 0 -122 40l20 41q25 -11 50 -11t39.5 13t14.5 36q0 40 -46 74q-90 9 -156.5 57t-102.5 127.5t-36 183.5q0 112 41.5 196t118 129.5t179.5 45.5
q63 0 114 -19t80 -52.5t29 -73.5q0 -29 -20.5 -49t-59.5 -28q-23 43 -59 63.5t-88 20.5q-88 0 -130.5 -57t-42.5 -175t42.5 -175.5t130.5 -57.5q52 0 88 20.5t59 63.5q39 -8 59.5 -28z" />
    <glyph glyph-name="Cdotaccent" unicode="&#x10a;" horiz-adv-x="629" 
d="M195.5 34.5q-76.5 45.5 -118 129t-41.5 195.5t41.5 196t118 129.5t179.5 45.5q63 0 114 -19t80 -52.5t29 -73.5q0 -29 -20.5 -49t-59.5 -28q-23 43 -59 63.5t-88 20.5q-88 0 -130.5 -57t-42.5 -175t42.5 -175.5t130.5 -57.5q52 0 88 20.5t59 63.5q39 -8 59.5 -28
t20.5 -49q0 -40 -29 -73.5t-80 -52.5t-114 -19q-103 0 -179.5 45.5zM301 874l70 78l74 -65q12 -11 12 -25q0 -13 -12 -27l-70 -78l-74 65q-12 10 -12 25q0 13 12 27z" />
    <glyph glyph-name="D" unicode="D" horiz-adv-x="711" 
d="M194 0q-56 0 -87.5 24t-31.5 67v629h268q102 0 177 -43.5t115 -124.5t40 -192t-39.5 -192t-114 -124.5t-175.5 -43.5h-152zM343 128q81 0 125 60.5t44 171.5t-45 171.5t-127 60.5h-105v-464h108z" />
    <glyph glyph-name="Eth" unicode="&#xd0;" horiz-adv-x="702" 
d="M333 720q102 0 177 -43.5t115 -124.5t40 -192t-39.5 -192t-114 -124.5t-175.5 -43.5h-142q-56 0 -87.5 24t-31.5 67v223h-51v93h51v313h258zM333 128q81 0 125 60.5t44 171.5t-45 171.5t-127 60.5h-95v-185h109v-93h-109v-186h98z" />
    <glyph glyph-name="Dcaron" unicode="&#x10e;" horiz-adv-x="711" 
d="M194 0q-56 0 -87.5 24t-31.5 67v629h268q102 0 177 -43.5t115 -124.5t40 -192t-39.5 -192t-114 -124.5t-175.5 -43.5h-152zM343 128q81 0 125 60.5t44 171.5t-45 171.5t-127 60.5h-105v-464h108zM292 779l-120 168l59 20l119 -87l120 87l60 -20l-120 -168h-118z" />
    <glyph glyph-name="Dcroat" unicode="&#x110;" horiz-adv-x="702" 
d="M333 720q102 0 177 -43.5t115 -124.5t40 -192t-39.5 -192t-114 -124.5t-175.5 -43.5h-142q-56 0 -87.5 24t-31.5 67v223h-51v93h51v313h258zM333 128q81 0 125 60.5t44 171.5t-45 171.5t-127 60.5h-95v-185h109v-93h-109v-186h98z" />
    <glyph glyph-name="E" unicode="E" horiz-adv-x="615" 
d="M190 0q-55 0 -85 23.5t-30 67.5v629h510v-42q0 -44 -23 -65t-71 -21h-256v-167h265v-41q0 -85 -92 -85h-173v-171h273q39 0 60.5 -19t21.5 -53v-56h-400z" />
    <glyph glyph-name="Eacute" unicode="&#xc9;" horiz-adv-x="615" 
d="M190 0q-55 0 -85 23.5t-30 67.5v629h510v-42q0 -44 -23 -65t-71 -21h-256v-167h265v-41q0 -85 -92 -85h-173v-171h273q39 0 60.5 -19t21.5 -53v-56h-400zM329 769l-63 19l118 173l150 -29z" />
    <glyph glyph-name="Ecaron" unicode="&#x11a;" horiz-adv-x="615" 
d="M190 0q-55 0 -85 23.5t-30 67.5v629h510v-42q0 -44 -23 -65t-71 -21h-256v-167h265v-41q0 -85 -92 -85h-173v-171h273q39 0 60.5 -19t21.5 -53v-56h-400zM270 779l-120 168l59 20l119 -87l120 87l60 -20l-120 -168h-118z" />
    <glyph glyph-name="Ecircumflex" unicode="&#xca;" horiz-adv-x="615" 
d="M190 0q-55 0 -85 23.5t-30 67.5v629h510v-42q0 -44 -23 -65t-71 -21h-256v-167h265v-41q0 -85 -92 -85h-173v-171h273q39 0 60.5 -19t21.5 -53v-56h-400zM388 949l120 -168l-59 -20l-119 87l-120 -87l-60 20l120 168h118z" />
    <glyph glyph-name="Edieresis" unicode="&#xcb;" horiz-adv-x="615" 
d="M190 0q-55 0 -85 23.5t-30 67.5v629h510v-42q0 -44 -23 -65t-71 -21h-256v-167h265v-41q0 -85 -92 -85h-173v-171h273q39 0 60.5 -19t21.5 -53v-56h-400zM165 873l65 72l69 -60q11 -9 11 -24q0 -14 -11 -25l-65 -72l-69 60q-11 10 -11 24t11 25zM355 873l65 72l69 -60
q11 -11 11 -24q0 -10 -11 -25l-65 -72l-69 60q-11 10 -11 24q0 10 11 25z" />
    <glyph glyph-name="Edotaccent" unicode="&#x116;" horiz-adv-x="615" 
d="M190 0q-55 0 -85 23.5t-30 67.5v629h510v-42q0 -44 -23 -65t-71 -21h-256v-167h265v-41q0 -85 -92 -85h-173v-171h273q39 0 60.5 -19t21.5 -53v-56h-400zM255 874l70 78l74 -65q12 -11 12 -25q0 -13 -12 -27l-70 -78l-74 65q-12 10 -12 25q0 13 12 27z" />
    <glyph glyph-name="Egrave" unicode="&#xc8;" horiz-adv-x="615" 
d="M190 0q-55 0 -85 23.5t-30 67.5v629h510v-42q0 -44 -23 -65t-71 -21h-256v-167h265v-41q0 -85 -92 -85h-173v-171h273q39 0 60.5 -19t21.5 -53v-56h-400zM391 788l-62 -19l-206 163l150 29z" />
    <glyph glyph-name="Emacron" unicode="&#x112;" horiz-adv-x="615" 
d="M190 0q-55 0 -85 23.5t-30 67.5v629h510v-42q0 -44 -23 -65t-71 -21h-256v-167h265v-41q0 -85 -92 -85h-173v-171h273q39 0 60.5 -19t21.5 -53v-56h-400zM463 797h-268v87h268v-87z" />
    <glyph glyph-name="Eogonek" unicode="&#x118;" horiz-adv-x="615" 
d="M593 -152q-52 -40 -122 -40q-55 0 -89 23.5t-34 65.5q0 32 23 60t63 43h-244q-55 0 -85 23.5t-30 67.5v629h510v-42q0 -44 -23 -65t-71 -21h-256v-167h265v-41q0 -85 -92 -85h-173v-171h273q39 0 60.5 -19t21.5 -53v-56h-77q-44 -32 -44 -72q0 -24 14.5 -37t39.5 -13
q24 0 51 11z" />
    <glyph glyph-name="F" unicode="F" horiz-adv-x="585" 
d="M99.5 16.5q-24.5 23.5 -24.5 67.5v636h495v-42q0 -43 -21.5 -64.5t-69.5 -21.5h-244v-175h294v-41q0 -43 -21.5 -64t-69.5 -21h-203v-285q-12 -6 -30 -9.5t-35 -3.5q-46 0 -70.5 23.5z" />
    <glyph glyph-name="G" unicode="G" horiz-adv-x="671" 
d="M171 30.5q-63 40.5 -99 123.5t-36 205t41.5 205t116.5 124.5t175 41.5q67 0 123 -21t88 -56t32 -75q0 -31 -19.5 -51t-57.5 -28q-24 53 -63.5 78t-98.5 25q-97 0 -135.5 -65t-38.5 -190q0 -116 38 -172.5t110 -56.5q61 0 95.5 42.5t34.5 112.5h-41q-56 0 -84.5 26
t-28.5 78q0 20 3 24h305v-395q-23 -13 -60 -13q-39 0 -58.5 18.5t-19.5 63.5v33q-16 -53 -64 -85.5t-112 -32.5q-83 0 -146 40.5z" />
    <glyph glyph-name="Gbreve" unicode="&#x11e;" horiz-adv-x="671" 
d="M171 30.5q-63 40.5 -99 123.5t-36 205t41.5 205t116.5 124.5t175 41.5q67 0 123 -21t88 -56t32 -75q0 -31 -19.5 -51t-57.5 -28q-24 53 -63.5 78t-98.5 25q-97 0 -135.5 -65t-38.5 -190q0 -116 38 -172.5t110 -56.5q61 0 95.5 42.5t34.5 112.5h-41q-56 0 -84.5 26
t-28.5 78q0 20 3 24h305v-395q-23 -13 -60 -13q-39 0 -58.5 18.5t-19.5 63.5v33q-16 -53 -64 -85.5t-112 -32.5q-83 0 -146 40.5zM280 940q18 -76 81 -76t78 76l68 -1q-2 -77 -39.5 -120.5t-109.5 -43.5t-108 43t-38 121z" />
    <glyph glyph-name="uni0122" unicode="&#x122;" horiz-adv-x="671" 
d="M171 30.5q-63 40.5 -99 123.5t-36 205t41.5 205t116.5 124.5t175 41.5q67 0 123 -21t88 -56t32 -75q0 -31 -19.5 -51t-57.5 -28q-24 53 -63.5 78t-98.5 25q-97 0 -135.5 -65t-38.5 -190q0 -116 38 -172.5t110 -56.5q61 0 95.5 42.5t34.5 112.5h-41q-56 0 -84.5 26
t-28.5 78q0 20 3 24h305v-395q-23 -13 -60 -13q-39 0 -58.5 18.5t-19.5 63.5v33q-16 -53 -64 -85.5t-112 -32.5q-83 0 -146 40.5zM395 -84q26 -33 26 -86q0 -66 -33 -103.5t-89 -37.5q-25 0 -40.5 10t-15.5 28q0 20 13 33q9 -11 33 -11q29 0 45 14t18 45q-12 -12 -42 -12
t-48.5 21t-18.5 50q0 38 23 60t60 22q43 0 69 -33z" />
    <glyph glyph-name="Gdotaccent" unicode="&#x120;" horiz-adv-x="671" 
d="M171 30.5q-63 40.5 -99 123.5t-36 205t41.5 205t116.5 124.5t175 41.5q67 0 123 -21t88 -56t32 -75q0 -31 -19.5 -51t-57.5 -28q-24 53 -63.5 78t-98.5 25q-97 0 -135.5 -65t-38.5 -190q0 -116 38 -172.5t110 -56.5q61 0 95.5 42.5t34.5 112.5h-41q-56 0 -84.5 26
t-28.5 78q0 20 3 24h305v-395q-23 -13 -60 -13q-39 0 -58.5 18.5t-19.5 63.5v33q-16 -53 -64 -85.5t-112 -32.5q-83 0 -146 40.5zM286 874l70 78l74 -65q12 -11 12 -25q0 -13 -12 -27l-70 -78l-74 65q-12 10 -12 25q0 13 12 27z" />
    <glyph glyph-name="H" unicode="H" horiz-adv-x="724" 
d="M99.5 16.5q-24.5 23.5 -24.5 67.5v629q12 6 30 9.5t35 3.5q46 0 70.5 -23.5t24.5 -67.5v-205h254v283q12 6 30 9.5t35 3.5q46 0 70.5 -23.5t24.5 -67.5v-629q-26 -13 -65 -13q-46 0 -70.5 23.5t-24.5 67.5v206h-254v-284q-26 -13 -65 -13q-46 0 -70.5 23.5z" />
    <glyph glyph-name="Hbar" unicode="&#x126;" horiz-adv-x="724" 
d="M715 618v-93h-66v-519q-26 -13 -65 -13q-46 0 -70.5 23.5t-24.5 67.5v206h-254v-284q-26 -13 -65 -13q-46 0 -70.5 23.5t-24.5 67.5v441h-66v93h66v95q12 6 30 9.5t35 3.5q46 0 70.5 -23.5t24.5 -67.5v-17h254v95q12 6 30 9.5t35 3.5q46 0 70.5 -23.5t24.5 -67.5v-17h66z
M235 430h254v95h-254v-95z" />
    <glyph glyph-name="I" unicode="I" horiz-adv-x="310" 
d="M75 713q12 6 30 9.5t35 3.5q46 0 70.5 -23.5t24.5 -67.5v-629q-12 -6 -30 -9.5t-35 -3.5q-46 0 -70.5 23.5t-24.5 67.5v629z" />
    <glyph glyph-name="Iacute" unicode="&#xcd;" horiz-adv-x="310" 
d="M75 713q12 6 30 9.5t35 3.5q46 0 70.5 -23.5t24.5 -67.5v-629q-12 -6 -30 -9.5t-35 -3.5q-46 0 -70.5 23.5t-24.5 67.5v629zM155 769l-63 19l118 173l150 -29z" />
    <glyph glyph-name="Icircumflex" unicode="&#xce;" horiz-adv-x="310" 
d="M75 713q12 6 30 9.5t35 3.5q46 0 70.5 -23.5t24.5 -67.5v-629q-12 -6 -30 -9.5t-35 -3.5q-46 0 -70.5 23.5t-24.5 67.5v629zM214 949l120 -168l-59 -20l-119 87l-120 -87l-60 20l120 168h118z" />
    <glyph glyph-name="Idieresis" unicode="&#xcf;" horiz-adv-x="310" 
d="M75 713q12 6 30 9.5t35 3.5q46 0 70.5 -23.5t24.5 -67.5v-629q-12 -6 -30 -9.5t-35 -3.5q-46 0 -70.5 23.5t-24.5 67.5v629zM-9 873l65 72l69 -60q11 -9 11 -24q0 -14 -11 -25l-65 -72l-69 60q-11 10 -11 24t11 25zM181 873l65 72l69 -60q11 -11 11 -24q0 -10 -11 -25
l-65 -72l-69 60q-11 10 -11 24q0 10 11 25z" />
    <glyph glyph-name="Idotaccent" unicode="&#x130;" horiz-adv-x="310" 
d="M75 713q12 6 30 9.5t35 3.5q46 0 70.5 -23.5t24.5 -67.5v-629q-12 -6 -30 -9.5t-35 -3.5q-46 0 -70.5 23.5t-24.5 67.5v629zM81 874l70 78l74 -65q12 -11 12 -25q0 -13 -12 -27l-70 -78l-74 65q-12 10 -12 25q0 13 12 27z" />
    <glyph glyph-name="Igrave" unicode="&#xcc;" horiz-adv-x="310" 
d="M75 713q12 6 30 9.5t35 3.5q46 0 70.5 -23.5t24.5 -67.5v-629q-12 -6 -30 -9.5t-35 -3.5q-46 0 -70.5 23.5t-24.5 67.5v629zM217 788l-62 -19l-206 163l150 29z" />
    <glyph glyph-name="Imacron" unicode="&#x12a;" horiz-adv-x="310" 
d="M75 713q12 6 30 9.5t35 3.5q46 0 70.5 -23.5t24.5 -67.5v-629q-12 -6 -30 -9.5t-35 -3.5q-46 0 -70.5 23.5t-24.5 67.5v629zM289 797h-268v87h268v-87z" />
    <glyph glyph-name="Iogonek" unicode="&#x12e;" horiz-adv-x="310" 
d="M299 -156q-52 -40 -122 -40q-55 0 -89 23.5t-34 65.5q0 32 23 60t63 43q-65 14 -65 88v629q12 6 30 9.5t35 3.5q46 0 70.5 -23.5t24.5 -67.5v-629q-60 -35 -60 -82q0 -24 14.5 -37t39.5 -13q24 0 51 11z" />
    <glyph glyph-name="J" unicode="J" horiz-adv-x="422" 
d="M34 158q10 -14 32.5 -23t49.5 -9q40 0 60.5 24t20.5 70v493q12 6 30 9.5t35 3.5q46 0 70.5 -23.5t24.5 -67.5v-440q0 -91 -58 -144.5t-157 -53.5q-66 0 -101.5 25t-35.5 71q0 42 29 65z" />
    <glyph glyph-name="K" unicode="K" horiz-adv-x="666" 
d="M99.5 16.5q-24.5 23.5 -24.5 67.5v629q12 6 30 9.5t35 3.5q46 0 69.5 -23.5t23.5 -67.5v-242l214 279q21 28 44.5 42.5t53.5 14.5q63 0 98 -52l-222 -269l224 -360q-17 -26 -44.5 -40t-55.5 -14q-38 0 -60.5 15t-38.5 45l-129 241l-84 -99v-190q-26 -13 -63 -13
q-46 0 -70.5 23.5z" />
    <glyph glyph-name="uni0136" unicode="&#x136;" horiz-adv-x="666" 
d="M99.5 16.5q-24.5 23.5 -24.5 67.5v629q12 6 30 9.5t35 3.5q46 0 69.5 -23.5t23.5 -67.5v-242l214 279q21 28 44.5 42.5t53.5 14.5q63 0 98 -52l-222 -269l224 -360q-17 -26 -44.5 -40t-55.5 -14q-38 0 -60.5 15t-38.5 45l-129 241l-84 -99v-190q-26 -13 -63 -13
q-46 0 -70.5 23.5zM407 -84q26 -33 26 -86q0 -66 -33 -103.5t-89 -37.5q-25 0 -40.5 10t-15.5 28q0 20 13 33q9 -11 33 -11q29 0 45 14t18 45q-12 -12 -42 -12t-48.5 21t-18.5 50q0 38 23 60t60 22q43 0 69 -33z" />
    <glyph glyph-name="L" unicode="L" horiz-adv-x="550" 
d="M75 713q12 6 30 9.5t35 3.5q46 0 70.5 -23.5t24.5 -67.5v-504h216q84 0 84 -80v-51h-356q-50 0 -77 26t-27 70v617z" />
    <glyph glyph-name="Lacute" unicode="&#x139;" horiz-adv-x="550" 
d="M75 713q12 6 30 9.5t35 3.5q46 0 70.5 -23.5t24.5 -67.5v-504h216q84 0 84 -80v-51h-356q-50 0 -77 26t-27 70v617zM155 769l-63 19l118 173l150 -29z" />
    <glyph glyph-name="Lcaron" unicode="&#x13d;" horiz-adv-x="550" 
d="M414 600q-10 -10 -38 -10t-45 19t-17 46q0 35 21.5 55t55.5 20q39 0 63 -30t24 -79q0 -60 -30.5 -94.5t-81.5 -34.5q-23 0 -37.5 9.5t-14.5 25.5q0 18 12 30q9 -10 31 -10q54 0 57 53zM451 131q84 0 84 -80v-51h-356q-50 0 -77 26t-27 70v617q12 6 30 9.5t35 3.5
q46 0 70.5 -23.5t24.5 -67.5v-504h216z" />
    <glyph glyph-name="uni013B" unicode="&#x13b;" horiz-adv-x="550" 
d="M75 713q12 6 30 9.5t35 3.5q46 0 70.5 -23.5t24.5 -67.5v-504h216q84 0 84 -80v-51h-356q-50 0 -77 26t-27 70v617zM374 -84q26 -33 26 -86q0 -66 -33 -103.5t-89 -37.5q-25 0 -40.5 10t-15.5 28q0 20 13 33q9 -11 33 -11q29 0 45 14t18 45q-12 -12 -42 -12t-48.5 21
t-18.5 50q0 38 23 60t60 22q43 0 69 -33z" />
    <glyph glyph-name="Lslash" unicode="&#x141;" horiz-adv-x="550" 
d="M424 131q54 0 82.5 -22t28.5 -64q0 -27 -3 -45h-342q-55 0 -85 23.5t-30 67.5v165l-49 -35l-51 81l100 72v346h65q95 0 95 -85v-147l92 66l51 -82l-143 -102v-239h189z" />
    <glyph glyph-name="M" unicode="M" horiz-adv-x="795" 
d="M75 720h113q45 0 74.5 -20t49.5 -70l86 -210l124 300h89q60 0 84.5 -30t24.5 -105v-579q-26 -13 -65 -13q-46 0 -69.5 23.5t-23.5 67.5v284q6 133 11 170q-29 -85 -67 -171l-67 -155q-16 -8 -40 -8q-20 0 -34 10.5t-24 33.5l-52 120q-54 126 -66 170q6 -40 10 -170v-362
q-24 -13 -62 -13q-47 0 -71.5 23.5t-24.5 67.5v636z" />
    <glyph glyph-name="N" unicode="N" horiz-adv-x="744" 
d="M75 720h109q44 0 73 -16t48 -53l139 -266q56 -108 80 -172q-11 88 -11 159v341q24 13 56 13q49 0 74.5 -23.5t25.5 -67.5v-636l-183 1l-191 360q-46 87 -77 170q13 -75 13 -169v-355q-21 -13 -56 -13q-49 0 -74.5 23.5t-25.5 67.5v636z" />
    <glyph glyph-name="Nacute" unicode="&#x143;" horiz-adv-x="744" 
d="M75 720h109q44 0 73 -16t48 -53l139 -266q56 -108 80 -172q-11 88 -11 159v341q24 13 56 13q49 0 74.5 -23.5t25.5 -67.5v-636l-183 1l-191 360q-46 87 -77 170q13 -75 13 -169v-355q-21 -13 -56 -13q-49 0 -74.5 23.5t-25.5 67.5v636zM357 769l-63 19l118 173l150 -29z
" />
    <glyph glyph-name="Ncaron" unicode="&#x147;" horiz-adv-x="744" 
d="M75 720h109q44 0 73 -16t48 -53l139 -266q56 -108 80 -172q-11 88 -11 159v341q24 13 56 13q49 0 74.5 -23.5t25.5 -67.5v-636l-183 1l-191 360q-46 87 -77 170q13 -75 13 -169v-355q-21 -13 -56 -13q-49 0 -74.5 23.5t-25.5 67.5v636zM298 779l-120 168l59 20l119 -87
l120 87l60 -20l-120 -168h-118z" />
    <glyph glyph-name="uni0145" unicode="&#x145;" horiz-adv-x="744" 
d="M75 720h109q44 0 73 -16t48 -53l139 -266q56 -108 80 -172q-11 88 -11 159v341q24 13 56 13q49 0 74.5 -23.5t25.5 -67.5v-636l-183 1l-191 360q-46 87 -77 170q13 -75 13 -169v-355q-21 -13 -56 -13q-49 0 -74.5 23.5t-25.5 67.5v636zM426 -84q26 -33 26 -86
q0 -66 -33 -103.5t-89 -37.5q-25 0 -40.5 10t-15.5 28q0 20 13 33q9 -11 33 -11q29 0 45 14t18 45q-12 -12 -42 -12t-48.5 21t-18.5 50q0 38 23 60t60 22q43 0 69 -33z" />
    <glyph glyph-name="Eng" unicode="&#x14a;" horiz-adv-x="744" 
d="M413.5 -174.5q-30.5 21.5 -30.5 57.5t23 59q17 -12 43 -12q30 0 47 15.5t17 45.5v9h-27l-191 360q-46 87 -77 170q13 -75 13 -169v-355q-21 -13 -56 -13q-49 0 -74.5 23.5t-25.5 67.5v636h109q44 0 73 -16t48 -53l139 -266q56 -108 80 -172q-11 88 -11 159v341
q24 13 56 13q49 0 74.5 -23.5t25.5 -67.5v-636q0 -93 -47 -144t-128 -51q-50 0 -80.5 21.5z" />
    <glyph glyph-name="Ntilde" unicode="&#xd1;" horiz-adv-x="744" 
d="M75 720h109q44 0 73 -16t48 -53l139 -266q56 -108 80 -172q-11 88 -11 159v341q24 13 56 13q49 0 74.5 -23.5t25.5 -67.5v-636l-183 1l-191 360q-46 87 -77 170q13 -75 13 -169v-355q-21 -13 -56 -13q-49 0 -74.5 23.5t-25.5 67.5v636zM333.5 926.5q15.5 -7.5 39.5 -22.5
q17 -12 29.5 -18.5t25.5 -6.5q21 0 32 10.5t20 36.5l51 -16q-6 -55 -38 -88t-80 -33q-19 0 -36 8t-38 23q-19 13 -30.5 19t-24.5 6q-21 0 -31.5 -10.5t-19.5 -36.5l-51 15q5 54 37 87.5t80 33.5q19 0 34.5 -7.5z" />
    <glyph glyph-name="O" unicode="O" horiz-adv-x="728" 
d="M75.5 557.5q39.5 83.5 113 128t175.5 44.5q101 0 175 -44.5t113.5 -128t39.5 -197.5t-39.5 -197.5t-113 -128t-174.5 -44.5t-175.5 44.5t-114 128t-39.5 197.5t39.5 197.5zM241 188q42 -60 121 -60q80 0 123.5 60.5t43.5 171.5t-43.5 171.5t-123.5 60.5q-79 0 -121 -59.5
t-42 -172.5q0 -112 42 -172z" />
    <glyph glyph-name="Oacute" unicode="&#xd3;" horiz-adv-x="728" 
d="M75.5 557.5q39.5 83.5 113 128t175.5 44.5q101 0 175 -44.5t113.5 -128t39.5 -197.5t-39.5 -197.5t-113 -128t-174.5 -44.5t-175.5 44.5t-114 128t-39.5 197.5t39.5 197.5zM241 188q42 -60 121 -60q80 0 123.5 60.5t43.5 171.5t-43.5 171.5t-123.5 60.5q-79 0 -121 -59.5
t-42 -172.5q0 -112 42 -172zM364 769l-63 19l118 173l150 -29z" />
    <glyph glyph-name="Ocircumflex" unicode="&#xd4;" horiz-adv-x="728" 
d="M75.5 557.5q39.5 83.5 113 128t175.5 44.5q101 0 175 -44.5t113.5 -128t39.5 -197.5t-39.5 -197.5t-113 -128t-174.5 -44.5t-175.5 44.5t-114 128t-39.5 197.5t39.5 197.5zM241 188q42 -60 121 -60q80 0 123.5 60.5t43.5 171.5t-43.5 171.5t-123.5 60.5q-79 0 -121 -59.5
t-42 -172.5q0 -112 42 -172zM423 949l120 -168l-59 -20l-119 87l-120 -87l-60 20l120 168h118z" />
    <glyph glyph-name="Odieresis" unicode="&#xd6;" horiz-adv-x="728" 
d="M75.5 557.5q39.5 83.5 113 128t175.5 44.5q101 0 175 -44.5t113.5 -128t39.5 -197.5t-39.5 -197.5t-113 -128t-174.5 -44.5t-175.5 44.5t-114 128t-39.5 197.5t39.5 197.5zM241 188q42 -60 121 -60q80 0 123.5 60.5t43.5 171.5t-43.5 171.5t-123.5 60.5q-79 0 -121 -59.5
t-42 -172.5q0 -112 42 -172zM200 873l65 72l69 -60q11 -9 11 -24q0 -14 -11 -25l-65 -72l-69 60q-11 10 -11 24t11 25zM390 873l65 72l69 -60q11 -11 11 -24q0 -10 -11 -25l-65 -72l-69 60q-11 10 -11 24q0 10 11 25z" />
    <glyph glyph-name="Ograve" unicode="&#xd2;" horiz-adv-x="728" 
d="M75.5 557.5q39.5 83.5 113 128t175.5 44.5q101 0 175 -44.5t113.5 -128t39.5 -197.5t-39.5 -197.5t-113 -128t-174.5 -44.5t-175.5 44.5t-114 128t-39.5 197.5t39.5 197.5zM241 188q42 -60 121 -60q80 0 123.5 60.5t43.5 171.5t-43.5 171.5t-123.5 60.5q-79 0 -121 -59.5
t-42 -172.5q0 -112 42 -172zM426 788l-62 -19l-206 163l150 29z" />
    <glyph glyph-name="Ohungarumlaut" unicode="&#x150;" horiz-adv-x="728" 
d="M75.5 557.5q39.5 83.5 113 128t175.5 44.5q101 0 175 -44.5t113.5 -128t39.5 -197.5t-39.5 -197.5t-113 -128t-174.5 -44.5t-175.5 44.5t-114 128t-39.5 197.5t39.5 197.5zM241 188q42 -60 121 -60q80 0 123.5 60.5t43.5 171.5t-43.5 171.5t-123.5 60.5q-79 0 -121 -59.5
t-42 -172.5q0 -112 42 -172zM236 788l106 165l129 -29l-176 -155zM431 788l106 165l129 -29l-175 -155z" />
    <glyph glyph-name="Omacron" unicode="&#x14c;" horiz-adv-x="728" 
d="M75.5 557.5q39.5 83.5 113 128t175.5 44.5q101 0 175 -44.5t113.5 -128t39.5 -197.5t-39.5 -197.5t-113 -128t-174.5 -44.5t-175.5 44.5t-114 128t-39.5 197.5t39.5 197.5zM241 188q42 -60 121 -60q80 0 123.5 60.5t43.5 171.5t-43.5 171.5t-123.5 60.5q-79 0 -121 -59.5
t-42 -172.5q0 -112 42 -172zM498 797h-268v87h268v-87z" />
    <glyph glyph-name="Oslash" unicode="&#xd8;" horiz-adv-x="728" 
d="M612 622q80 -98 80 -262q0 -114 -39.5 -197.5t-113 -128t-174.5 -44.5q-93 0 -166 39l-61 -87l-88 62l66 94q-80 98 -80 262q0 114 39.5 197.5t113 128t175.5 44.5q93 0 165 -39l62 88l88 -62zM214 239l235 337q-37 26 -87 26q-79 0 -121 -62t-42 -180q0 -70 15 -121z
M485.5 181q43.5 63 43.5 179q0 71 -16 120l-235 -337q34 -25 84 -25q80 0 123.5 63z" />
    <glyph glyph-name="Otilde" unicode="&#xd5;" horiz-adv-x="728" 
d="M75.5 557.5q39.5 83.5 113 128t175.5 44.5q101 0 175 -44.5t113.5 -128t39.5 -197.5t-39.5 -197.5t-113 -128t-174.5 -44.5t-175.5 44.5t-114 128t-39.5 197.5t39.5 197.5zM241 188q42 -60 121 -60q80 0 123.5 60.5t43.5 171.5t-43.5 171.5t-123.5 60.5q-79 0 -121 -59.5
t-42 -172.5q0 -112 42 -172zM340.5 926.5q15.5 -7.5 39.5 -22.5q17 -12 29.5 -18.5t25.5 -6.5q21 0 32 10.5t20 36.5l51 -16q-6 -55 -38 -88t-80 -33q-19 0 -36 8t-38 23q-19 13 -30.5 19t-24.5 6q-21 0 -31.5 -10.5t-19.5 -36.5l-51 15q5 54 37 87.5t80 33.5
q19 0 34.5 -7.5z" />
    <glyph glyph-name="OE" unicode="&#x152;" horiz-adv-x="987" 
d="M839 128q54 0 82.5 -22t28.5 -64q0 -25 -3 -42h-493q-40 -10 -89 -10q-101 0 -175.5 44.5t-114 128t-39.5 197.5t39.5 197.5t113 128t175.5 44.5q49 0 89 -10h506q3 -16 3 -42q0 -42 -28.5 -64t-82.5 -22h-217q44 -72 54 -167h189q3 -16 3 -41q0 -41 -28 -63t-81 -22h-82
q-10 -99 -55 -171h205zM485.5 181q43.5 63 43.5 179t-43.5 179t-123.5 63q-79 0 -121 -62t-42 -180q0 -117 42 -179.5t121 -62.5q80 0 123.5 63z" />
    <glyph glyph-name="P" unicode="P" horiz-adv-x="632" 
d="M99.5 16.5q-24.5 23.5 -24.5 67.5v636h291q112 0 176.5 -61.5t64.5 -168.5t-64 -168t-177 -61h-131v-255q-26 -13 -65 -13q-46 0 -70.5 23.5zM351 388q44 0 70 27t26 76t-28 75.5t-78 26.5h-106v-205h116z" />
    <glyph glyph-name="Thorn" unicode="&#xde;" horiz-adv-x="632" 
d="M366 589q112 0 176.5 -61.5t64.5 -168.5t-64 -168t-177 -61h-131v-124q-12 -6 -30 -9.5t-35 -3.5q-46 0 -70.5 23.5t-24.5 67.5v629q12 6 30 9.5t35 3.5q46 0 70.5 -23.5t24.5 -67.5v-46h131zM341 257q51 0 78.5 26.5t27.5 76.5q0 49 -28 75.5t-78 26.5h-106v-205h106z
" />
    <glyph glyph-name="Q" unicode="Q" horiz-adv-x="728" 
d="M638.5 136q-53.5 -91 -150.5 -126q115 -39 184 -52q-2 -42 -26 -76t-86 -34q-44 0 -89.5 33.5t-95.5 108.5h-10q-101 0 -175.5 44.5t-114 128t-39.5 197.5t39.5 197.5t113 128t175.5 44.5q101 0 175 -44.5t113.5 -128t39.5 -197.5q0 -133 -53.5 -224zM241 188
q42 -60 121 -60q80 0 123.5 60.5t43.5 171.5t-43.5 171.5t-123.5 60.5q-79 0 -121 -59.5t-42 -172.5q0 -112 42 -172z" />
    <glyph glyph-name="R" unicode="R" horiz-adv-x="650" 
d="M99.5 17q-24.5 23 -24.5 67v636h303q116 0 178.5 -57t62.5 -163q0 -71 -39 -124t-105 -76l133 -269q-17 -17 -42 -27t-53 -10q-40 0 -63 16.5t-37 54.5l-80 210h-98v-269q-27 -12 -65 -12q-46 0 -70.5 23zM353 400q51 0 78.5 25t27.5 71q0 47 -27.5 72t-78.5 25h-118
v-193h118z" />
    <glyph glyph-name="Racute" unicode="&#x154;" horiz-adv-x="650" 
d="M99.5 17q-24.5 23 -24.5 67v636h303q116 0 178.5 -57t62.5 -163q0 -71 -39 -124t-105 -76l133 -269q-17 -17 -42 -27t-53 -10q-40 0 -63 16.5t-37 54.5l-80 210h-98v-269q-27 -12 -65 -12q-46 0 -70.5 23zM353 400q51 0 78.5 25t27.5 71q0 47 -27.5 72t-78.5 25h-118
v-193h118zM332 769l-63 19l118 173l150 -29z" />
    <glyph glyph-name="Rcaron" unicode="&#x158;" horiz-adv-x="650" 
d="M99.5 17q-24.5 23 -24.5 67v636h303q116 0 178.5 -57t62.5 -163q0 -71 -39 -124t-105 -76l133 -269q-17 -17 -42 -27t-53 -10q-40 0 -63 16.5t-37 54.5l-80 210h-98v-269q-27 -12 -65 -12q-46 0 -70.5 23zM353 400q51 0 78.5 25t27.5 71q0 47 -27.5 72t-78.5 25h-118
v-193h118zM273 779l-120 168l59 20l119 -87l120 87l60 -20l-120 -168h-118z" />
    <glyph glyph-name="uni0156" unicode="&#x156;" horiz-adv-x="650" 
d="M99.5 17q-24.5 23 -24.5 67v636h303q116 0 178.5 -57t62.5 -163q0 -71 -39 -124t-105 -76l133 -269q-17 -17 -42 -27t-53 -10q-40 0 -63 16.5t-37 54.5l-80 210h-98v-269q-27 -12 -65 -12q-46 0 -70.5 23zM353 400q51 0 78.5 25t27.5 71q0 47 -27.5 72t-78.5 25h-118
v-193h118zM401 -84q26 -33 26 -86q0 -66 -33 -103.5t-89 -37.5q-25 0 -40.5 10t-15.5 28q0 20 13 33q9 -11 33 -11q29 0 45 14t18 45q-12 -12 -42 -12t-48.5 21t-18.5 50q0 38 23 60t60 22q43 0 69 -33z" />
    <glyph glyph-name="S" unicode="S" horiz-adv-x="622" 
d="M63 183.5q21 19.5 61 27.5q19 -47 66 -73.5t105 -26.5q61 0 92 23t31 65q0 34 -17.5 52.5t-43.5 27.5t-80 21q-117 27 -168 82t-51 139q0 64 33 111t93 72.5t140 25.5q71 0 125.5 -19t84.5 -52.5t30 -74.5q0 -27 -21 -47t-60 -28q-14 48 -59.5 74.5t-99.5 26.5
q-50 0 -77 -21.5t-27 -54.5q0 -28 13 -45t44.5 -29.5t94.5 -26.5q84 -19 130.5 -51t63 -73.5t16.5 -95.5q0 -66 -36 -116.5t-101.5 -78.5t-149.5 -28q-76 0 -133.5 19t-88.5 52.5t-31 75.5q0 27 21 46.5z" />
    <glyph glyph-name="Sacute" unicode="&#x15a;" horiz-adv-x="622" 
d="M63 183.5q21 19.5 61 27.5q19 -47 66 -73.5t105 -26.5q61 0 92 23t31 65q0 34 -17.5 52.5t-43.5 27.5t-80 21q-117 27 -168 82t-51 139q0 64 33 111t93 72.5t140 25.5q71 0 125.5 -19t84.5 -52.5t30 -74.5q0 -27 -21 -47t-60 -28q-14 48 -59.5 74.5t-99.5 26.5
q-50 0 -77 -21.5t-27 -54.5q0 -28 13 -45t44.5 -29.5t94.5 -26.5q84 -19 130.5 -51t63 -73.5t16.5 -95.5q0 -66 -36 -116.5t-101.5 -78.5t-149.5 -28q-76 0 -133.5 19t-88.5 52.5t-31 75.5q0 27 21 46.5zM311 769l-63 19l118 173l150 -29z" />
    <glyph glyph-name="Scaron" unicode="&#x160;" horiz-adv-x="622" 
d="M63 183.5q21 19.5 61 27.5q19 -47 66 -73.5t105 -26.5q61 0 92 23t31 65q0 34 -17.5 52.5t-43.5 27.5t-80 21q-117 27 -168 82t-51 139q0 64 33 111t93 72.5t140 25.5q71 0 125.5 -19t84.5 -52.5t30 -74.5q0 -27 -21 -47t-60 -28q-14 48 -59.5 74.5t-99.5 26.5
q-50 0 -77 -21.5t-27 -54.5q0 -28 13 -45t44.5 -29.5t94.5 -26.5q84 -19 130.5 -51t63 -73.5t16.5 -95.5q0 -66 -36 -116.5t-101.5 -78.5t-149.5 -28q-76 0 -133.5 19t-88.5 52.5t-31 75.5q0 27 21 46.5zM252 779l-120 168l59 20l119 -87l120 87l60 -20l-120 -168h-118z" />
    <glyph glyph-name="Scedilla" unicode="&#x15e;" horiz-adv-x="622" 
d="M516.5 63q-65.5 -60 -174.5 -71q43 -14 67.5 -42t24.5 -61q0 -43 -34 -67t-89 -24q-70 0 -122 40l20 41q25 -11 50 -11t39.5 13t14.5 36q0 41 -45 74q-69 3 -120 23t-78.5 52t-27.5 71q0 27 21 46.5t61 27.5q19 -47 66 -73.5t105 -26.5q61 0 92 23t31 65q0 34 -17.5 52.5
t-43.5 27.5t-80 21q-117 27 -168 82t-51 139q0 64 33 111t93 72.5t140 25.5q71 0 125.5 -19t84.5 -52.5t30 -74.5q0 -27 -21 -47t-60 -28q-14 48 -59.5 74.5t-99.5 26.5q-50 0 -77 -21.5t-27 -54.5q0 -28 13 -45t44.5 -29.5t94.5 -26.5q84 -19 130.5 -51t63 -73.5
t16.5 -95.5q0 -90 -65.5 -150z" />
    <glyph glyph-name="uni0218" unicode="&#x218;" horiz-adv-x="622" 
d="M63 183.5q21 19.5 61 27.5q19 -47 66 -73.5t105 -26.5q61 0 92 23t31 65q0 34 -17.5 52.5t-43.5 27.5t-80 21q-117 27 -168 82t-51 139q0 64 33 111t93 72.5t140 25.5q71 0 125.5 -19t84.5 -52.5t30 -74.5q0 -27 -21 -47t-60 -28q-14 48 -59.5 74.5t-99.5 26.5
q-50 0 -77 -21.5t-27 -54.5q0 -28 13 -45t44.5 -29.5t94.5 -26.5q84 -19 130.5 -51t63 -73.5t16.5 -95.5q0 -66 -36 -116.5t-101.5 -78.5t-149.5 -28q-76 0 -133.5 19t-88.5 52.5t-31 75.5q0 27 21 46.5zM380 -84q26 -33 26 -86q0 -66 -33 -103.5t-89 -37.5q-25 0 -40.5 10
t-15.5 28q0 20 13 33q9 -11 33 -11q29 0 45 14t18 45q-12 -12 -42 -12t-48.5 21t-18.5 50q0 38 23 60t60 22q43 0 69 -33z" />
    <glyph glyph-name="uni1E9E" unicode="&#x1e9e;" horiz-adv-x="729" 
d="M335 17q-40 27 -40 70q0 49 59 76q16 -26 42.5 -38.5t56.5 -12.5q38 0 58.5 20t20.5 54q0 24 -14 39.5t-51 44.5l-39 30q-39 30 -59.5 60t-20.5 73q0 58 41.5 100.5t103.5 50.5q-53 14 -98 14q-162 0 -162 -169v-429h-158v443q0 143 82.5 215t227.5 72q68 0 136 -13.5
t117 -35.5v-141q-11 1 -32 1q-52 0 -79.5 -16.5t-27.5 -53.5q0 -23 15.5 -40t49.5 -42l31 -23q41 -31 67.5 -70.5t26.5 -104.5q0 -60 -29.5 -105.5t-83.5 -70.5t-124 -25q-77 0 -117 27z" />
    <glyph glyph-name="T" unicode="T" horiz-adv-x="594" 
d="M7 720h489q44 0 67.5 -22.5t23.5 -63.5v-43h-210v-585q-12 -6 -30 -9.5t-35 -3.5q-46 0 -70.5 23.5t-24.5 67.5v507h-119q-44 0 -67.5 22.5t-23.5 63.5v43z" />
    <glyph glyph-name="Tbar" unicode="&#x166;" horiz-adv-x="594" 
d="M377 591v-164h117v-115h-117v-306q-12 -6 -30 -9.5t-35 -3.5q-46 0 -70.5 23.5t-24.5 67.5v228h-117v115h117v164h-99q-54 0 -82.5 22t-28.5 64q0 27 3 43h466q54 0 82.5 -22t28.5 -64q0 -26 -3 -43h-207z" />
    <glyph glyph-name="Tcaron" unicode="&#x164;" horiz-adv-x="594" 
d="M7 720h489q44 0 67.5 -22.5t23.5 -63.5v-43h-210v-585q-12 -6 -30 -9.5t-35 -3.5q-46 0 -70.5 23.5t-24.5 67.5v507h-119q-44 0 -67.5 22.5t-23.5 63.5v43zM238 779l-120 168l59 20l119 -87l120 87l60 -20l-120 -168h-118z" />
    <glyph glyph-name="uni0162" unicode="&#x162;" horiz-adv-x="594" 
d="M377 591v-585q-9 -4 -31 -10q44 -13 69.5 -42t25.5 -62q0 -43 -34 -67t-89 -24q-70 0 -122 40l20 41q25 -11 50 -11t39.5 13t14.5 36q0 46 -58 83q-45 20 -45 81v507h-119q-44 0 -67.5 22.5t-23.5 63.5v43h489q44 0 67.5 -22.5t23.5 -63.5v-43h-210z" />
    <glyph glyph-name="uni021A" unicode="&#x21a;" horiz-adv-x="594" 
d="M7 720h489q44 0 67.5 -22.5t23.5 -63.5v-43h-210v-585q-12 -6 -30 -9.5t-35 -3.5q-46 0 -70.5 23.5t-24.5 67.5v507h-119q-44 0 -67.5 22.5t-23.5 63.5v43zM387 -81q26 -33 26 -86q0 -66 -33 -103.5t-89 -37.5q-25 0 -40.5 10t-15.5 28q0 20 13 33q9 -11 33 -11
q29 0 45 14t18 45q-12 -12 -42 -12t-48.5 21t-18.5 50q0 38 23 60t60 22q43 0 69 -33z" />
    <glyph glyph-name="U" unicode="U" horiz-adv-x="704" 
d="M479 720h160v-464q0 -132 -76.5 -199t-209.5 -67q-143 0 -215.5 71t-72.5 195v457q12 6 30 9.5t35 3.5q46 0 70.5 -23.5t24.5 -67.5v-377q0 -66 33 -98t92 -32q65 0 97 33.5t32 96.5v462z" />
    <glyph glyph-name="Uacute" unicode="&#xda;" horiz-adv-x="704" 
d="M479 720h160v-464q0 -132 -76.5 -199t-209.5 -67q-143 0 -215.5 71t-72.5 195v457q12 6 30 9.5t35 3.5q46 0 70.5 -23.5t24.5 -67.5v-377q0 -66 33 -98t92 -32q65 0 97 33.5t32 96.5v462zM352 769l-63 19l118 173l150 -29z" />
    <glyph glyph-name="Ucircumflex" unicode="&#xdb;" horiz-adv-x="704" 
d="M479 720h160v-464q0 -132 -76.5 -199t-209.5 -67q-143 0 -215.5 71t-72.5 195v457q12 6 30 9.5t35 3.5q46 0 70.5 -23.5t24.5 -67.5v-377q0 -66 33 -98t92 -32q65 0 97 33.5t32 96.5v462zM411 949l120 -168l-59 -20l-119 87l-120 -87l-60 20l120 168h118z" />
    <glyph glyph-name="Udieresis" unicode="&#xdc;" horiz-adv-x="704" 
d="M479 720h160v-464q0 -132 -76.5 -199t-209.5 -67q-143 0 -215.5 71t-72.5 195v457q12 6 30 9.5t35 3.5q46 0 70.5 -23.5t24.5 -67.5v-377q0 -66 33 -98t92 -32q65 0 97 33.5t32 96.5v462zM188 873l65 72l69 -60q11 -9 11 -24q0 -14 -11 -25l-65 -72l-69 60q-11 10 -11 24
t11 25zM378 873l65 72l69 -60q11 -11 11 -24q0 -10 -11 -25l-65 -72l-69 60q-11 10 -11 24q0 10 11 25z" />
    <glyph glyph-name="Ugrave" unicode="&#xd9;" horiz-adv-x="704" 
d="M479 720h160v-464q0 -132 -76.5 -199t-209.5 -67q-143 0 -215.5 71t-72.5 195v457q12 6 30 9.5t35 3.5q46 0 70.5 -23.5t24.5 -67.5v-377q0 -66 33 -98t92 -32q65 0 97 33.5t32 96.5v462zM414 788l-62 -19l-206 163l150 29z" />
    <glyph glyph-name="Uhungarumlaut" unicode="&#x170;" horiz-adv-x="704" 
d="M479 720h160v-464q0 -132 -76.5 -199t-209.5 -67q-143 0 -215.5 71t-72.5 195v457q12 6 30 9.5t35 3.5q46 0 70.5 -23.5t24.5 -67.5v-377q0 -66 33 -98t92 -32q65 0 97 33.5t32 96.5v462zM224 788l106 165l129 -29l-176 -155zM419 788l106 165l129 -29l-175 -155z" />
    <glyph glyph-name="Umacron" unicode="&#x16a;" horiz-adv-x="704" 
d="M479 720h160v-464q0 -132 -76.5 -199t-209.5 -67q-143 0 -215.5 71t-72.5 195v457q12 6 30 9.5t35 3.5q46 0 70.5 -23.5t24.5 -67.5v-377q0 -66 33 -98t92 -32q65 0 97 33.5t32 96.5v462zM486 797h-268v87h268v-87z" />
    <glyph glyph-name="Uogonek" unicode="&#x172;" horiz-adv-x="704" 
d="M479 720h160v-464q0 -117 -60.5 -183t-168.5 -80q-36 -29 -36 -65q0 -24 14.5 -37t39.5 -13q24 0 51 11l19 -41q-52 -40 -122 -40q-55 0 -89 23.5t-34 65.5q0 28 17.5 52.5t48.5 41.5q-126 9 -190 79t-64 186v457q12 6 30 9.5t35 3.5q46 0 70.5 -23.5t24.5 -67.5v-377
q0 -66 33 -98t92 -32q65 0 97 33.5t32 96.5v462z" />
    <glyph glyph-name="Uring" unicode="&#x16e;" horiz-adv-x="704" 
d="M479 720h160v-464q0 -132 -76.5 -199t-209.5 -67q-143 0 -215.5 71t-72.5 195v457q12 6 30 9.5t35 3.5q46 0 70.5 -23.5t24.5 -67.5v-377q0 -66 33 -98t92 -32q65 0 97 33.5t32 96.5v462zM255.5 796q-34.5 32 -34.5 86q0 53 35.5 85t96.5 32q60 0 95 -31.5t35 -84.5
q0 -54 -36 -86.5t-98 -32.5q-59 0 -93.5 32zM388.5 842.5q12.5 14.5 12.5 34.5t-12.5 35t-34.5 15q-24 0 -37 -14.5t-13 -34.5t13.5 -35t36.5 -15q22 0 34.5 14.5z" />
    <glyph glyph-name="V" unicode="V" horiz-adv-x="696" 
d="M639.5 719.5q22.5 -7.5 39.5 -23.5l-220 -696h-136q-45 0 -73.5 21t-43.5 68l-188 606q33 32 87 32q38 0 62.5 -16t35.5 -55l146 -520l140 507q12 44 38.5 64t67.5 20q22 0 44.5 -7.5z" />
    <glyph glyph-name="W" unicode="W" horiz-adv-x="978" 
d="M959 698q-61 -268 -98 -419t-71 -279h-127q-46 0 -72 21.5t-34 66.5l-68 377l-90 -465h-118q-50 0 -77.5 21t-38.5 67q-75 292 -146 610q30 25 77 25q42 0 70.5 -27.5t38.5 -77.5l92 -469l118 547q42 19 79 19q72 0 87 -74l100 -492l94 469q10 50 39 77.5t74 27.5
q46 0 71 -25z" />
    <glyph glyph-name="Wacute" unicode="&#x1e82;" horiz-adv-x="978" 
d="M959 698q-61 -268 -98 -419t-71 -279h-127q-46 0 -72 21.5t-34 66.5l-68 377l-90 -465h-118q-50 0 -77.5 21t-38.5 67q-75 292 -146 610q30 25 77 25q42 0 70.5 -27.5t38.5 -77.5l92 -469l118 547q42 19 79 19q72 0 87 -74l100 -492l94 469q10 50 39 77.5t74 27.5
q46 0 71 -25zM489 769l-63 19l118 173l150 -29z" />
    <glyph glyph-name="Wcircumflex" unicode="&#x174;" horiz-adv-x="978" 
d="M959 698q-61 -268 -98 -419t-71 -279h-127q-46 0 -72 21.5t-34 66.5l-68 377l-90 -465h-118q-50 0 -77.5 21t-38.5 67q-75 292 -146 610q30 25 77 25q42 0 70.5 -27.5t38.5 -77.5l92 -469l118 547q42 19 79 19q72 0 87 -74l100 -492l94 469q10 50 39 77.5t74 27.5
q46 0 71 -25zM548 949l120 -168l-59 -20l-119 87l-120 -87l-60 20l120 168h118z" />
    <glyph glyph-name="Wdieresis" unicode="&#x1e84;" horiz-adv-x="978" 
d="M959 698q-61 -268 -98 -419t-71 -279h-127q-46 0 -72 21.5t-34 66.5l-68 377l-90 -465h-118q-50 0 -77.5 21t-38.5 67q-75 292 -146 610q30 25 77 25q42 0 70.5 -27.5t38.5 -77.5l92 -469l118 547q42 19 79 19q72 0 87 -74l100 -492l94 469q10 50 39 77.5t74 27.5
q46 0 71 -25zM325 873l65 72l69 -60q11 -9 11 -24q0 -14 -11 -25l-65 -72l-69 60q-11 10 -11 24t11 25zM515 873l65 72l69 -60q11 -11 11 -24q0 -10 -11 -25l-65 -72l-69 60q-11 10 -11 24q0 10 11 25z" />
    <glyph glyph-name="Wgrave" unicode="&#x1e80;" horiz-adv-x="978" 
d="M959 698q-61 -268 -98 -419t-71 -279h-127q-46 0 -72 21.5t-34 66.5l-68 377l-90 -465h-118q-50 0 -77.5 21t-38.5 67q-75 292 -146 610q30 25 77 25q42 0 70.5 -27.5t38.5 -77.5l92 -469l118 547q42 19 79 19q72 0 87 -74l100 -492l94 469q10 50 39 77.5t74 27.5
q46 0 71 -25zM551 788l-62 -19l-206 163l150 29z" />
    <glyph glyph-name="X" unicode="X" horiz-adv-x="664" 
d="M651 720l-232 -350l238 -328q-13 -23 -37 -35.5t-54 -12.5q-35 0 -57.5 10.5t-35 25t-29.5 41.5l-115 177l-154 -247h-168l238 355l-232 323q14 23 38.5 35.5t54.5 12.5q33 0 55 -10.5t36.5 -27t33.5 -47.5l103 -164l148 242h169z" />
    <glyph glyph-name="Y" unicode="Y" horiz-adv-x="685" 
d="M287.5 16.5q-24.5 23.5 -24.5 67.5v201l-249 394q19 24 43.5 36.5t49.5 12.5q27 0 47.5 -10.5t38.5 -41.5l148 -251l169 295h168l-255 -420v-294q-26 -13 -65 -13q-46 0 -70.5 23.5z" />
    <glyph glyph-name="Yacute" unicode="&#xdd;" horiz-adv-x="685" 
d="M287.5 16.5q-24.5 23.5 -24.5 67.5v201l-249 394q19 24 43.5 36.5t49.5 12.5q27 0 47.5 -10.5t38.5 -41.5l148 -251l169 295h168l-255 -420v-294q-26 -13 -65 -13q-46 0 -70.5 23.5zM343 769l-63 19l118 173l150 -29z" />
    <glyph glyph-name="Ycircumflex" unicode="&#x176;" horiz-adv-x="685" 
d="M287.5 16.5q-24.5 23.5 -24.5 67.5v201l-249 394q19 24 43.5 36.5t49.5 12.5q27 0 47.5 -10.5t38.5 -41.5l148 -251l169 295h168l-255 -420v-294q-26 -13 -65 -13q-46 0 -70.5 23.5zM402 949l120 -168l-59 -20l-119 87l-120 -87l-60 20l120 168h118z" />
    <glyph glyph-name="Ydieresis" unicode="&#x178;" horiz-adv-x="685" 
d="M287.5 16.5q-24.5 23.5 -24.5 67.5v201l-249 394q19 24 43.5 36.5t49.5 12.5q27 0 47.5 -10.5t38.5 -41.5l148 -251l169 295h168l-255 -420v-294q-26 -13 -65 -13q-46 0 -70.5 23.5zM179 873l65 72l69 -60q11 -9 11 -24q0 -14 -11 -25l-65 -72l-69 60q-11 10 -11 24
t11 25zM369 873l65 72l69 -60q11 -11 11 -24q0 -10 -11 -25l-65 -72l-69 60q-11 10 -11 24q0 10 11 25z" />
    <glyph glyph-name="Ygrave" unicode="&#x1ef2;" horiz-adv-x="685" 
d="M287.5 16.5q-24.5 23.5 -24.5 67.5v201l-249 394q19 24 43.5 36.5t49.5 12.5q27 0 47.5 -10.5t38.5 -41.5l148 -251l169 295h168l-255 -420v-294q-26 -13 -65 -13q-46 0 -70.5 23.5zM405 788l-62 -19l-206 163l150 29z" />
    <glyph glyph-name="Z" unicode="Z" horiz-adv-x="629" 
d="M25 58q0 90 65 172l287 361h-230q-95 0 -95 92v37h444q41 0 62 -20.5t24 -61.5l3 -38l-372 -461h291q100 0 100 -98v-41h-579v58z" />
    <glyph glyph-name="Zacute" unicode="&#x179;" horiz-adv-x="629" 
d="M25 58q0 90 65 172l287 361h-230q-95 0 -95 92v37h444q41 0 62 -20.5t24 -61.5l3 -38l-372 -461h291q100 0 100 -98v-41h-579v58zM315 769l-63 19l118 173l150 -29z" />
    <glyph glyph-name="Zcaron" unicode="&#x17d;" horiz-adv-x="629" 
d="M25 58q0 90 65 172l287 361h-230q-95 0 -95 92v37h444q41 0 62 -20.5t24 -61.5l3 -38l-372 -461h291q100 0 100 -98v-41h-579v58zM256 779l-120 168l59 20l119 -87l120 87l60 -20l-120 -168h-118z" />
    <glyph glyph-name="Zdotaccent" unicode="&#x17b;" horiz-adv-x="629" 
d="M25 58q0 90 65 172l287 361h-230q-95 0 -95 92v37h444q41 0 62 -20.5t24 -61.5l3 -38l-372 -461h291q100 0 100 -98v-41h-579v58zM241 874l70 78l74 -65q12 -11 12 -25q0 -13 -12 -27l-70 -78l-74 65q-12 10 -12 25q0 13 12 27z" />
    <glyph glyph-name="A.ss01" horiz-adv-x="718" 
d="M5 22l244 640q37 -30 55 -83q16 -44 16 -94q0 -60 -25 -131l-24 -67h179l-95 264q-20 54 -42.5 89t-51.5 55l9 25h91q47 0 74 -21t47 -74l231 -598q-33 -33 -83 -33q-48 0 -68 20t-29 45l-35 96h-275l-34 -95q-24 -66 -102 -66q-51 0 -82 28z" />
    <glyph glyph-name="B.ss01" horiz-adv-x="666" 
d="M75 44q38 43 84.5 63.5t105.5 20.5h111q46 0 71 23.5t25 66.5q0 41 -23 63t-66 22h-148v-141q-48 -4 -91 -22.5t-69 -47.5v628h295q115 0 177.5 -48t62.5 -136q0 -59 -28 -102t-76 -61q58 -8 91.5 -55.5t33.5 -115.5q0 -94 -66.5 -148t-188.5 -54h-301v44zM355 428
q46 0 71 21.5t25 61.5q0 39 -25 60.5t-71 21.5h-44v-1h-76v-164h120z" />
    <glyph glyph-name="D.ss01" horiz-adv-x="711" 
d="M75 44q38 43 84.5 63.5t105.5 20.5h78q81 0 125 60.5t44 171.5t-45 171.5t-127 60.5h-105v-430q-48 -4 -91 -22.5t-69 -47.5v628h268q102 0 177 -43.5t115 -124.5t40 -192t-39.5 -192t-114 -124.5t-175.5 -43.5h-271v44z" />
    <glyph glyph-name="E.ss01" horiz-adv-x="615" 
d="M235 299v-137q-49 -4 -91.5 -23t-68.5 -47v628h510v-42q0 -44 -23 -65t-71 -21h-256v-167h265v-41q0 -85 -92 -85h-173zM75 44q38 43 84.5 63.5t105.5 20.5h243q39 0 60.5 -19t21.5 -53v-56h-515v44z" />
    <glyph glyph-name="F.ss01" horiz-adv-x="585" 
d="M75 720h495v-42q0 -43 -21.5 -64t-69.5 -21h-214q-60 0 -106.5 20t-83.5 63v44zM75 628q26 -29 69 -47.5t91 -22.5v-141h294v-41q0 -43 -21.5 -64t-69.5 -21h-203v-285q-12 -6 -30 -9.5t-35 -3.5q-46 0 -70.5 23.5t-24.5 67.5v544z" />
    <glyph glyph-name="G.ss01" horiz-adv-x="671" 
d="M442 158v-46q0 -45 9 -68q-24 -26 -58.5 -40t-75.5 -14q-83 0 -146 40.5t-99 123.5t-36 205t41.5 205t116.5 124.5t175 41.5q67 0 123 -21t88 -56t32 -75q0 -31 -19.5 -51t-57.5 -28q-24 53 -63.5 78t-98.5 25q-97 0 -135.5 -65t-38.5 -190q0 -116 38 -172.5t110 -56.5
q58 0 95 40zM477 273h-41q-56 0 -84.5 26t-28.5 78q0 20 3 24h305v-395q-23 -13 -60 -13q-47 0 -70.5 29t-23.5 83v168z" />
    <glyph glyph-name="H.ss01" horiz-adv-x="724" 
d="M210.5 702.5q24.5 -23.5 24.5 -67.5v-629q-26 -13 -65 -13q-46 0 -70.5 23.5t-24.5 67.5v629q12 6 30 9.5t35 3.5q46 0 70.5 -23.5zM624.5 702.5q24.5 -23.5 24.5 -67.5v-629q-26 -13 -65 -13q-46 0 -70.5 23.5t-24.5 67.5v206h-219v46q0 94 102 94h117v283q12 6 30 9.5
t35 3.5q46 0 70.5 -23.5z" />
    <glyph glyph-name="K.ss01" horiz-adv-x="666" 
d="M233 176v-170q-26 -13 -63 -13q-46 0 -70.5 23.5t-24.5 67.5v629q12 6 30 9.5t35 3.5q46 0 69.5 -23.5t23.5 -67.5v-251l214 288q44 57 98 57q63 0 98 -52zM401 134q-32 56 -32 105q0 64 55 120l16 17l205 -328q-16 -25 -43 -39.5t-57 -14.5q-35 0 -58 14t-41 46z" />
    <glyph glyph-name="L.ss01" horiz-adv-x="550" 
d="M75 713q12 6 30 9.5t35 3.5q46 0 70.5 -23.5t24.5 -67.5v-473q-49 -4 -91.5 -23t-68.5 -47v621zM75 44q38 43 84.5 63.5t105.5 20.5h186q84 0 84 -77v-51h-460v44z" />
    <glyph glyph-name="M.ss01" horiz-adv-x="795" 
d="M75 570v150h36q63 0 105.5 -15t75 -53.5t59.5 -108.5l47 -123l124 300h89q60 0 84.5 -30t24.5 -105v-579q-26 -13 -65 -13q-46 0 -69.5 23.5t-23.5 67.5v284q6 133 11 170q-29 -85 -67 -171l-67 -155q-16 -8 -40 -8q-20 0 -34 10.5t-24 33.5l-73 174q-24 59 -46 90
t-52 44.5t-79 13.5h-16zM75 527h21q51 0 86.5 -35t48.5 -95v-390q-21 -13 -58 -13q-47 0 -72.5 23.5t-25.5 67.5v442z" />
    <glyph glyph-name="N.ss01" horiz-adv-x="744" 
d="M75 570l5 150h19q62 0 109.5 -13.5t91.5 -53.5t84 -117l69 -135q50 -97 67 -153q-5 45 -6 74.5t-1 61.5v329q21 13 58 13q47 0 72.5 -23.5t25.5 -67.5v-635h-183l-189 380q-38 77 -69 117.5t-65 56.5t-85 16h-3zM75 529h11q55 0 94 -40t51 -88v-394q-21 -13 -58 -13
q-47 0 -72.5 23.5t-25.5 67.5v444z" />
    <glyph glyph-name="P.ss01" horiz-adv-x="632" 
d="M75 628q26 -29 69 -47.5t91 -22.5v-170h116q44 0 70 27t26 76t-28 75.5t-78 26.5h-76q-60 0 -106.5 20t-83.5 63v44h291q112 0 176.5 -61.5t64.5 -168.5t-64 -168t-177 -61h-131v-255q-26 -13 -65 -13q-46 0 -70.5 23.5t-24.5 67.5v544z" />
    <glyph glyph-name="R.ss01" horiz-adv-x="650" 
d="M75 628q26 -29 69 -47.5t91 -22.5v-158h118q51 0 78.5 25t27.5 71q0 47 -27.5 72t-78.5 25h-88q-60 0 -106.5 20t-83.5 63v44h303q116 0 178.5 -57t62.5 -163q0 -71 -39 -124t-105 -76l133 -269q-17 -17 -42 -27t-53 -10q-40 0 -63 16.5t-37 54.5l-80 210h-98v-269
q-27 -12 -65 -12q-46 0 -70.5 23t-24.5 67v544z" />
    <glyph glyph-name="T.ss01" horiz-adv-x="594" 
d="M7 720h252q67 0 92.5 -43t25.5 -113v-558q-12 -6 -30 -9.5t-35 -3.5q-46 0 -70.5 23.5t-24.5 67.5v507h-119q-44 0 -67.5 22.5t-23.5 63.5v43zM496 720q44 0 67.5 -22.5t23.5 -63.5v-43h-175q-2 43 -11.5 74.5t-36.5 54.5h132z" />
    <glyph glyph-name="V.ss01" horiz-adv-x="696" 
d="M18 695q33 32 87 32q38 0 62.5 -16t35.5 -55l149 -487q19 -56 45 -90t69 -54l-8 -25h-132q-48 0 -76 21t-45 74zM489 643q12 44 38.5 64t67.5 20q22 0 44.5 -7.5t39.5 -23.5l-201 -638q-87 58 -87 175q0 60 21 133z" />
    <glyph glyph-name="W.ss01" horiz-adv-x="978" 
d="M96 723q42 0 70.5 -27.5t38.5 -77.5l92 -469l96 444q19 -2 35 -50t25 -110.5t9 -101.5q0 -16 -1 -20l-62 -311h-118q-50 0 -77.5 21t-38.5 67q-75 292 -146 610q30 25 77 25zM415 696q48 4 65 4q49 0 77 -26t42 -101l82 -424l94 469q10 50 39 77.5t74 27.5q46 0 71 -25
q-61 -268 -98 -419t-71 -279h-127q-46 0 -72 21.5t-34 66.5l-72 403q-13 70 -32.5 103t-50.5 41z" />
    <glyph glyph-name="X.ss01" horiz-adv-x="664" 
d="M7 1l238 355l-232 323q14 23 38.5 35.5t54.5 12.5q33 0 54.5 -10.5t34.5 -26t36 -48.5l188 -272l238 -328q-13 -23 -37 -35.5t-54 -12.5q-47 0 -72.5 20t-49.5 57l-115 177l-154 -247h-168zM482 720h169l-213 -321q-47 54 -47 120q0 50 29 99z" />
    <glyph glyph-name="Y.ss01" horiz-adv-x="685" 
d="M14 679q19 24 43.5 36.5t49.5 12.5q27 0 47.5 -10.5t38.5 -41.5l230 -388v-282q-26 -13 -65 -13q-46 0 -70.5 23.5t-24.5 67.5v201zM510 720h168l-235 -387q-43 59 -43 130q0 67 38 133z" />
    <glyph glyph-name="Z.ss01" horiz-adv-x="629" 
d="M43 134l342 457h-238q-95 0 -95 92v37h444q41 0 62 -20.5t24 -61.5l3 -38l-318 -424h-24q-67 0 -112 -12t-83 -37zM25 56q41 45 91.5 64t141.5 19h246q100 0 100 -98v-41h-577z" />
    <glyph glyph-name="B.ss02" horiz-adv-x="666" 
d="M75 588q24 -31 92 -31h68v-129h120q46 0 71 21.5t25 61.5q0 39 -25 60.5t-71 21.5h-198q-39 0 -60.5 18.5t-21.5 52.5v56h295q115 0 177.5 -48t62.5 -136q0 -59 -28 -102t-76 -61q58 -8 91.5 -55.5t33.5 -115.5q0 -94 -66.5 -148t-188.5 -54h-301v588zM376 128
q46 0 71 23.5t25 66.5q0 41 -23 63t-66 22h-148v-175h141z" />
    <glyph glyph-name="D.ss02" horiz-adv-x="711" 
d="M194 0q-56 0 -87.5 24t-31.5 67v497q24 -31 92 -31h68v-429h108q81 0 125 60.5t44 171.5t-45 171.5t-127 60.5h-183q-39 0 -60.5 19t-21.5 53v56h268q102 0 177 -43.5t115 -124.5t40 -192t-39.5 -192t-114 -124.5t-175.5 -43.5h-152z" />
    <glyph glyph-name="E.ss02" horiz-adv-x="615" 
d="M96.5 611q-21.5 19 -21.5 53v56h510v-42q0 -44 -23 -65t-71 -21h-334q-39 0 -60.5 19zM190 0q-55 0 -85 23.5t-30 67.5v497q24 -31 92 -31h68v-132h265v-41q0 -85 -92 -85h-173v-171h273q39 0 60.5 -19t21.5 -53v-56h-400z" />
    <glyph glyph-name="H.ss02" horiz-adv-x="724" 
d="M75 270q0 74 40.5 116.5t119.5 42.5h254v284q12 6 30 9.5t35 3.5q46 0 70.5 -23.5t24.5 -67.5v-186q0 -74 -40.5 -116.5t-119.5 -42.5h-254v-284q-12 -6 -30 -9.5t-35 -3.5q-46 0 -70.5 23.5t-24.5 67.5v186zM75 713q26 13 65 13q46 0 70.5 -23.5t24.5 -67.5v-171
q-55 0 -99 -16.5t-61 -48.5v314zM489 255q55 0 99 16.5t61 48.5v-314q-26 -13 -65 -13q-46 0 -70.5 23.5t-24.5 67.5v171z" />
    <glyph glyph-name="K.ss02" horiz-adv-x="666" 
d="M264 373l193 299q20 29 42 43t56 14q26 0 49.5 -13t38.5 -39l-130 -192q-33 -45 -58.5 -72t-55.5 -43q52 -24 100 -98l146 -224q-22 -27 -41.5 -40.5t-48.5 -13.5q-43 0 -66.5 16.5t-52.5 63.5zM233 6q-26 -13 -63 -13q-46 0 -70.5 23.5t-24.5 67.5v629q12 6 30 9.5
t35 3.5q46 0 69.5 -23.5t23.5 -67.5v-629z" />
    <glyph glyph-name="M.ss02" horiz-adv-x="795" 
d="M378 469l-19 -51q-14 -37 -22.5 -68t-10.5 -66l-37 84q-54 126 -66 170q6 -40 10 -170v-362q-24 -13 -62 -13q-47 0 -71.5 23.5t-24.5 67.5v636h113q45 0 74.5 -20t49.5 -70zM522 720h89q60 0 84.5 -30t24.5 -105v-579q-26 -13 -65 -13q-46 0 -69.5 23.5t-23.5 67.5v284
q6 133 11 170q-29 -85 -67 -171l-67 -155q-7 -4 -17 -6t-18 -2q-45 0 -45 63q0 61 44 166z" />
    <glyph glyph-name="P.ss02" horiz-adv-x="632" 
d="M170 -7q-46 0 -70.5 23.5t-24.5 67.5v636h291q112 0 176.5 -61.5t64.5 -168.5t-64 -168t-177 -61h-96v55q0 34 21 53t58 19h2q44 0 70 27t26 76t-28 75.5t-78 26.5h-106v-587q-26 -13 -65 -13z" />
    <glyph glyph-name="R.ss02" horiz-adv-x="664" 
d="M576.5 370.5q-42.5 -54.5 -114.5 -74.5l146 -265q-17 -17 -42 -27t-53 -10q-41 0 -64.5 16.5t-41.5 54.5l-125 270v65h71q51 0 78.5 25.5t27.5 70.5q0 47 -27.5 72t-78.5 25h-118v-587q-27 -12 -65 -12q-46 0 -70.5 23t-24.5 67v636h303q116 0 178.5 -57t62.5 -163
q0 -75 -42.5 -129.5z" />
    <glyph glyph-name="W.ss02" horiz-adv-x="978" 
d="M96 723q42 0 70.5 -27.5t38.5 -77.5l82 -410q16 -80 43.5 -120t72.5 -65l-4 -23h-118q-50 0 -77.5 21t-38.5 67q-75 292 -146 610q30 25 77 25zM415 696q42 19 79 19q72 0 87 -74l100 -492l94 469q10 50 39 77.5t74 27.5q46 0 71 -25q-61 -268 -98 -419t-71 -279h-127
q-46 0 -72 21.5t-34 66.5l-68 377l-78 -405q-35 24 -59 71t-24 117q0 46 11 94z" />
    <glyph glyph-name="a" unicode="a" horiz-adv-x="551" 
d="M94.5 268.5q64.5 44.5 180.5 44.5q44 0 67 -6v25q0 46 -24 66t-69 20t-82 -18t-54 -48q-23 11 -39 28.5t-16 39.5q0 31 24.5 57.5t72.5 42t115 15.5q115 0 172 -49t57 -141v-222q0 -71 12 -98q-23 -28 -81 -28q-79 0 -79 88v16q-16 -55 -60.5 -83t-100.5 -28
q-70 0 -115 41.5t-45 107.5q0 85 64.5 129.5zM204 118.5q17 -14.5 46 -14.5q39 0 65.5 23.5t26.5 57.5v35q-25 6 -53 6q-50 0 -76 -17.5t-26 -49.5q0 -26 17 -40.5z" />
    <glyph glyph-name="aacute" unicode="&#xe1;" horiz-adv-x="551" 
d="M94.5 268.5q64.5 44.5 180.5 44.5q44 0 67 -6v25q0 46 -24 66t-69 20t-82 -18t-54 -48q-23 11 -39 28.5t-16 39.5q0 31 24.5 57.5t72.5 42t115 15.5q115 0 172 -49t57 -141v-222q0 -71 12 -98q-23 -28 -81 -28q-79 0 -79 88v16q-16 -55 -60.5 -83t-100.5 -28
q-70 0 -115 41.5t-45 107.5q0 85 64.5 129.5zM204 118.5q17 -14.5 46 -14.5q39 0 65.5 23.5t26.5 57.5v35q-25 6 -53 6q-50 0 -76 -17.5t-26 -49.5q0 -26 17 -40.5zM277 574l-63 19l118 173l150 -29z" />
    <glyph glyph-name="abreve" unicode="&#x103;" horiz-adv-x="551" 
d="M94.5 268.5q64.5 44.5 180.5 44.5q44 0 67 -6v25q0 46 -24 66t-69 20t-82 -18t-54 -48q-23 11 -39 28.5t-16 39.5q0 31 24.5 57.5t72.5 42t115 15.5q115 0 172 -49t57 -141v-222q0 -71 12 -98q-23 -28 -81 -28q-79 0 -79 88v16q-16 -55 -60.5 -83t-100.5 -28
q-70 0 -115 41.5t-45 107.5q0 85 64.5 129.5zM204 118.5q17 -14.5 46 -14.5q39 0 65.5 23.5t26.5 57.5v35q-25 6 -53 6q-50 0 -76 -17.5t-26 -49.5q0 -26 17 -40.5zM197 745q18 -76 81 -76t78 76l68 -1q-2 -77 -39.5 -120.5t-109.5 -43.5t-108 43t-38 121z" />
    <glyph glyph-name="acircumflex" unicode="&#xe2;" horiz-adv-x="551" 
d="M94.5 268.5q64.5 44.5 180.5 44.5q44 0 67 -6v25q0 46 -24 66t-69 20t-82 -18t-54 -48q-23 11 -39 28.5t-16 39.5q0 31 24.5 57.5t72.5 42t115 15.5q115 0 172 -49t57 -141v-222q0 -71 12 -98q-23 -28 -81 -28q-79 0 -79 88v16q-16 -55 -60.5 -83t-100.5 -28
q-70 0 -115 41.5t-45 107.5q0 85 64.5 129.5zM204 118.5q17 -14.5 46 -14.5q39 0 65.5 23.5t26.5 57.5v35q-25 6 -53 6q-50 0 -76 -17.5t-26 -49.5q0 -26 17 -40.5zM336 754l120 -168l-59 -20l-119 87l-120 -87l-60 20l120 168h118z" />
    <glyph glyph-name="adieresis" unicode="&#xe4;" horiz-adv-x="551" 
d="M94.5 268.5q64.5 44.5 180.5 44.5q44 0 67 -6v25q0 46 -24 66t-69 20t-82 -18t-54 -48q-23 11 -39 28.5t-16 39.5q0 31 24.5 57.5t72.5 42t115 15.5q115 0 172 -49t57 -141v-222q0 -71 12 -98q-23 -28 -81 -28q-79 0 -79 88v16q-16 -55 -60.5 -83t-100.5 -28
q-70 0 -115 41.5t-45 107.5q0 85 64.5 129.5zM204 118.5q17 -14.5 46 -14.5q39 0 65.5 23.5t26.5 57.5v35q-25 6 -53 6q-50 0 -76 -17.5t-26 -49.5q0 -26 17 -40.5zM113 678l65 72l69 -60q11 -9 11 -24q0 -14 -11 -25l-65 -72l-69 60q-11 10 -11 24t11 25zM303 678l65 72
l69 -60q11 -11 11 -24q0 -10 -11 -25l-65 -72l-69 60q-11 10 -11 24q0 10 11 25z" />
    <glyph glyph-name="agrave" unicode="&#xe0;" horiz-adv-x="551" 
d="M94.5 268.5q64.5 44.5 180.5 44.5q44 0 67 -6v25q0 46 -24 66t-69 20t-82 -18t-54 -48q-23 11 -39 28.5t-16 39.5q0 31 24.5 57.5t72.5 42t115 15.5q115 0 172 -49t57 -141v-222q0 -71 12 -98q-23 -28 -81 -28q-79 0 -79 88v16q-16 -55 -60.5 -83t-100.5 -28
q-70 0 -115 41.5t-45 107.5q0 85 64.5 129.5zM204 118.5q17 -14.5 46 -14.5q39 0 65.5 23.5t26.5 57.5v35q-25 6 -53 6q-50 0 -76 -17.5t-26 -49.5q0 -26 17 -40.5zM339 593l-62 -19l-206 163l150 29z" />
    <glyph glyph-name="amacron" unicode="&#x101;" horiz-adv-x="551" 
d="M94.5 268.5q64.5 44.5 180.5 44.5q44 0 67 -6v25q0 46 -24 66t-69 20t-82 -18t-54 -48q-23 11 -39 28.5t-16 39.5q0 31 24.5 57.5t72.5 42t115 15.5q115 0 172 -49t57 -141v-222q0 -71 12 -98q-23 -28 -81 -28q-79 0 -79 88v16q-16 -55 -60.5 -83t-100.5 -28
q-70 0 -115 41.5t-45 107.5q0 85 64.5 129.5zM204 118.5q17 -14.5 46 -14.5q39 0 65.5 23.5t26.5 57.5v35q-25 6 -53 6q-50 0 -76 -17.5t-26 -49.5q0 -26 17 -40.5zM411 602h-268v87h268v-87z" />
    <glyph glyph-name="aogonek" unicode="&#x105;" horiz-adv-x="551" 
d="M558 -148q-52 -40 -122 -40q-55 0 -89 23.5t-34 65.5q0 32 22 59t60 43q-44 16 -44 82v16q-16 -55 -60.5 -83t-100.5 -28q-70 0 -115 41.5t-45 107.5q0 85 64.5 129.5t180.5 44.5q44 0 67 -6v25q0 46 -24 66t-69 20t-82 -18t-54 -48q-23 11 -39 28.5t-16 39.5
q0 31 24.5 57.5t72.5 42t115 15.5q115 0 172 -49t57 -141v-222q0 -71 12 -98q-12 -13 -32 -21q-45 -32 -45 -72q0 -24 14.5 -37t39.5 -13q24 0 51 11zM342 220q-25 6 -53 6q-50 0 -76 -17.5t-26 -49.5q0 -26 17 -40.5t46 -14.5q39 0 65.5 23.5t26.5 57.5v35z" />
    <glyph glyph-name="aring" unicode="&#xe5;" horiz-adv-x="551" 
d="M94.5 268.5q64.5 44.5 180.5 44.5q44 0 67 -6v25q0 46 -24 66t-69 20t-82 -18t-54 -48q-23 11 -39 28.5t-16 39.5q0 31 24.5 57.5t72.5 42t115 15.5q115 0 172 -49t57 -141v-222q0 -71 12 -98q-23 -28 -81 -28q-79 0 -79 88v16q-16 -55 -60.5 -83t-100.5 -28
q-70 0 -115 41.5t-45 107.5q0 85 64.5 129.5zM204 118.5q17 -14.5 46 -14.5q39 0 65.5 23.5t26.5 57.5v35q-25 6 -53 6q-50 0 -76 -17.5t-26 -49.5q0 -26 17 -40.5zM180.5 601q-34.5 32 -34.5 86q0 53 35.5 85t96.5 32q60 0 95 -31.5t35 -84.5q0 -54 -36 -86.5t-98 -32.5
q-59 0 -93.5 32zM313.5 647.5q12.5 14.5 12.5 34.5t-12.5 35t-34.5 15q-24 0 -37 -14.5t-13 -34.5t13.5 -35t36.5 -15q22 0 34.5 14.5z" />
    <glyph glyph-name="atilde" unicode="&#xe3;" horiz-adv-x="551" 
d="M94.5 268.5q64.5 44.5 180.5 44.5q44 0 67 -6v25q0 46 -24 66t-69 20t-82 -18t-54 -48q-23 11 -39 28.5t-16 39.5q0 31 24.5 57.5t72.5 42t115 15.5q115 0 172 -49t57 -141v-222q0 -71 12 -98q-23 -28 -81 -28q-79 0 -79 88v16q-16 -55 -60.5 -83t-100.5 -28
q-70 0 -115 41.5t-45 107.5q0 85 64.5 129.5zM204 118.5q17 -14.5 46 -14.5q39 0 65.5 23.5t26.5 57.5v35q-25 6 -53 6q-50 0 -76 -17.5t-26 -49.5q0 -26 17 -40.5zM253.5 731.5q15.5 -7.5 39.5 -22.5q17 -12 29.5 -18.5t25.5 -6.5q21 0 32 10.5t20 36.5l51 -16
q-6 -55 -38 -88t-80 -33q-19 0 -36 8t-38 23q-19 13 -30.5 19t-24.5 6q-21 0 -31.5 -10.5t-19.5 -36.5l-51 15q5 54 37 87.5t80 33.5q19 0 34.5 -7.5z" />
    <glyph glyph-name="ae" unicode="&#xe6;" horiz-adv-x="857" 
d="M818 231h-322q0 -57 35.5 -89t99.5 -32q42 0 75 15.5t53 45.5q24 -7 37.5 -24t13.5 -42q0 -52 -58.5 -83.5t-143.5 -31.5q-75 0 -132.5 25t-87.5 74q-21 -45 -71 -72t-114 -27q-79 0 -126 41t-47 110q0 83 66.5 127.5t178.5 44.5q44 0 67 -6v24q0 44 -22 65.5t-71 21.5
q-45 0 -82 -18t-54 -48q-26 10 -40.5 27.5t-14.5 40.5q0 31 25.5 57.5t73.5 42t113 15.5q105 0 157 -55q66 55 164 55q71 0 124 -28.5t82 -80.5t29 -120q0 -40 -8 -75zM690 323q-2 45 -26.5 71t-65.5 26q-42 0 -70 -26.5t-30 -70.5h192zM342 220q-25 6 -53 6
q-50 0 -76 -17.5t-26 -49.5q0 -26 17 -40.5t46 -14.5q39 0 65.5 23.5t26.5 57.5v35z" />
    <glyph glyph-name="b" unicode="b" horiz-adv-x="609" 
d="M476.5 501q47.5 -34 72.5 -96t25 -144q0 -124 -55.5 -197.5t-154.5 -73.5q-111 0 -154 85q-4 -41 -26 -59.5t-64 -18.5q-39 0 -65 13v727q12 6 30 9.5t35 3.5q45 0 68.5 -23.5t23.5 -67.5v-227q40 103 152 103q65 0 112.5 -34zM386.5 149.5q28.5 40.5 28.5 112.5
t-28.5 112.5t-76.5 40.5q-42 0 -70 -28.5t-28 -70.5v-118q0 -36 28.5 -62.5t67.5 -26.5q50 0 78.5 40.5z" />
    <glyph glyph-name="c" unicode="c" horiz-adv-x="504" 
d="M477 103q0 -50 -52 -81.5t-130 -31.5q-79 0 -138 34t-90.5 96t-31.5 144q0 81 31.5 142.5t90.5 95t139 33.5q79 0 130 -31.5t51 -81.5q0 -56 -66 -68q-17 31 -42.5 46t-61.5 15q-58 0 -85.5 -36.5t-27.5 -112.5q0 -156 113 -156q36 0 61.5 15t42.5 46q66 -12 66 -68z" />
    <glyph glyph-name="cacute" unicode="&#x107;" horiz-adv-x="504" 
d="M477 103q0 -50 -52 -81.5t-130 -31.5q-79 0 -138 34t-90.5 96t-31.5 144q0 81 31.5 142.5t90.5 95t139 33.5q79 0 130 -31.5t51 -81.5q0 -56 -66 -68q-17 31 -42.5 46t-61.5 15q-58 0 -85.5 -36.5t-27.5 -112.5q0 -156 113 -156q36 0 61.5 15t42.5 46q66 -12 66 -68z
M296 574l-63 19l118 173l150 -29z" />
    <glyph glyph-name="ccaron" unicode="&#x10d;" horiz-adv-x="504" 
d="M477 103q0 -50 -52 -81.5t-130 -31.5q-79 0 -138 34t-90.5 96t-31.5 144q0 81 31.5 142.5t90.5 95t139 33.5q79 0 130 -31.5t51 -81.5q0 -56 -66 -68q-17 31 -42.5 46t-61.5 15q-58 0 -85.5 -36.5t-27.5 -112.5q0 -156 113 -156q36 0 61.5 15t42.5 46q66 -12 66 -68z
M237 584l-120 168l59 20l119 -87l120 87l60 -20l-120 -168h-118z" />
    <glyph glyph-name="ccedilla" unicode="&#xe7;" horiz-adv-x="504" 
d="M477 103q0 -44 -41.5 -74.5t-107.5 -36.5q42 -15 66 -43t24 -60q0 -43 -34 -67t-89 -24q-70 0 -122 40l20 41q25 -11 50 -11t39.5 13t14.5 36q0 42 -49 76q-99 15 -156 88t-57 183q0 81 31.5 142.5t90.5 95t139 33.5q79 0 130 -31.5t51 -81.5q0 -56 -66 -68
q-17 31 -42.5 46t-61.5 15q-58 0 -85.5 -36.5t-27.5 -112.5q0 -156 113 -156q36 0 61.5 15t42.5 46q66 -12 66 -68z" />
    <glyph glyph-name="cdotaccent" unicode="&#x10b;" horiz-adv-x="504" 
d="M477 103q0 -50 -52 -81.5t-130 -31.5q-79 0 -138 34t-90.5 96t-31.5 144q0 81 31.5 142.5t90.5 95t139 33.5q79 0 130 -31.5t51 -81.5q0 -56 -66 -68q-17 31 -42.5 46t-61.5 15q-58 0 -85.5 -36.5t-27.5 -112.5q0 -156 113 -156q36 0 61.5 15t42.5 46q66 -12 66 -68z
M222 679l70 78l74 -65q12 -11 12 -25q0 -13 -12 -27l-70 -78l-74 65q-12 10 -12 25q0 13 12 27z" />
    <glyph glyph-name="d" unicode="d" horiz-adv-x="609" 
d="M524 746.5q18 -3.5 30 -9.5v-727q-26 -13 -65 -13q-42 0 -64.5 18t-26.5 58q-44 -83 -153 -83q-99 0 -154.5 73.5t-55.5 197.5q0 82 25 144t72.5 96t112.5 34q112 0 152 -103v227q0 44 23.5 67.5t68.5 23.5q17 0 35 -3.5zM368.5 135.5q28.5 26.5 28.5 62.5v118
q0 42 -28 70.5t-70 28.5q-48 0 -76.5 -40.5t-28.5 -112.5t28.5 -112.5t78.5 -40.5q39 0 67.5 26.5z" />
    <glyph glyph-name="eth" unicode="&#xf0;" horiz-adv-x="605" 
d="M158 22q-58 32 -90.5 93.5t-32.5 148.5q0 76 31 137t85.5 95.5t122.5 34.5q26 0 52.5 -8.5t45.5 -23.5q-39 76 -68 109l-66 -41l-51 63l64 42q-38 36 -66 52l51 62q64 -30 103 -58l67 42l50 -62l-49 -33q74 -78 118.5 -180t44.5 -207q0 -138 -73.5 -218t-203.5 -80
q-77 0 -135 32zM380 152.5q28 39.5 28 111.5q0 71 -27.5 108.5t-78.5 37.5t-79.5 -37t-28.5 -109t29 -111.5t79 -39.5t78 39.5z" />
    <glyph glyph-name="dcaron" unicode="&#x10f;" horiz-adv-x="609" 
d="M397 659q0 44 23.5 67.5t68.5 23.5q17 0 35 -3.5t30 -9.5v-727q-26 -13 -65 -13q-42 0 -64.5 18t-26.5 58q-44 -83 -153 -83q-99 0 -154.5 73.5t-55.5 197.5q0 82 25 144t72.5 96t112.5 34q112 0 152 -103v227zM734.5 720.5q23.5 -29.5 23.5 -78.5q0 -59 -29.5 -93
t-80.5 -34q-22 0 -36.5 9t-14.5 25q0 18 12 30q7 -10 30 -10q53 0 57 53q-11 -11 -38 -11t-44 19t-17 46q0 34 21 54t54 20q39 0 62.5 -29.5zM397 316q0 42 -28 70.5t-70 28.5q-48 0 -76.5 -40.5t-28.5 -112.5t28.5 -112.5t78.5 -40.5q39 0 67.5 26.5t28.5 62.5v118z" />
    <glyph glyph-name="dcroat" unicode="&#x111;" horiz-adv-x="609" 
d="M609 654v-93h-55v-551q-26 -13 -65 -13q-42 0 -64.5 18t-26.5 58q-44 -83 -153 -83q-99 0 -154.5 73.5t-55.5 197.5q0 82 25 144t72.5 96t112.5 34q112 0 152 -103v129h-108v93h108v5q0 44 23.5 67.5t68.5 23.5q17 0 35 -3.5t30 -9.5v-83h55zM397 316q0 42 -28 70.5
t-70 28.5q-48 0 -76.5 -40.5t-28.5 -112.5t28.5 -112.5t78.5 -40.5q39 0 67.5 26.5t28.5 62.5v118z" />
    <glyph glyph-name="e" unicode="e" horiz-adv-x="555" 
d="M163.5 24.5q-61.5 34.5 -95 97t-33.5 146.5q0 80 31.5 140.5t89 93.5t132.5 33q112 0 174 -65t62 -174v-24t-3 -41h-328q0 -57 35.5 -89t99.5 -32q42 0 75 15.5t53 45.5q24 -7 37.5 -24t13.5 -42q0 -54 -54.5 -84.5t-147.5 -30.5q-80 0 -141.5 34.5zM387 323
q-2 46 -26 72.5t-69 26.5t-71.5 -26t-27.5 -73h194z" />
    <glyph glyph-name="eacute" unicode="&#xe9;" horiz-adv-x="555" 
d="M163.5 24.5q-61.5 34.5 -95 97t-33.5 146.5q0 80 31.5 140.5t89 93.5t132.5 33q112 0 174 -65t62 -174v-24t-3 -41h-328q0 -57 35.5 -89t99.5 -32q42 0 75 15.5t53 45.5q24 -7 37.5 -24t13.5 -42q0 -54 -54.5 -84.5t-147.5 -30.5q-80 0 -141.5 34.5zM387 323
q-2 46 -26 72.5t-69 26.5t-71.5 -26t-27.5 -73h194zM278 574l-63 19l118 173l150 -29z" />
    <glyph glyph-name="ecaron" unicode="&#x11b;" horiz-adv-x="555" 
d="M163.5 24.5q-61.5 34.5 -95 97t-33.5 146.5q0 80 31.5 140.5t89 93.5t132.5 33q112 0 174 -65t62 -174v-24t-3 -41h-328q0 -57 35.5 -89t99.5 -32q42 0 75 15.5t53 45.5q24 -7 37.5 -24t13.5 -42q0 -54 -54.5 -84.5t-147.5 -30.5q-80 0 -141.5 34.5zM387 323
q-2 46 -26 72.5t-69 26.5t-71.5 -26t-27.5 -73h194zM219 584l-120 168l59 20l119 -87l120 87l60 -20l-120 -168h-118z" />
    <glyph glyph-name="ecircumflex" unicode="&#xea;" horiz-adv-x="555" 
d="M163.5 24.5q-61.5 34.5 -95 97t-33.5 146.5q0 80 31.5 140.5t89 93.5t132.5 33q112 0 174 -65t62 -174v-24t-3 -41h-328q0 -57 35.5 -89t99.5 -32q42 0 75 15.5t53 45.5q24 -7 37.5 -24t13.5 -42q0 -54 -54.5 -84.5t-147.5 -30.5q-80 0 -141.5 34.5zM387 323
q-2 46 -26 72.5t-69 26.5t-71.5 -26t-27.5 -73h194zM337 754l120 -168l-59 -20l-119 87l-120 -87l-60 20l120 168h118z" />
    <glyph glyph-name="edieresis" unicode="&#xeb;" horiz-adv-x="555" 
d="M163.5 24.5q-61.5 34.5 -95 97t-33.5 146.5q0 80 31.5 140.5t89 93.5t132.5 33q112 0 174 -65t62 -174v-24t-3 -41h-328q0 -57 35.5 -89t99.5 -32q42 0 75 15.5t53 45.5q24 -7 37.5 -24t13.5 -42q0 -54 -54.5 -84.5t-147.5 -30.5q-80 0 -141.5 34.5zM387 323
q-2 46 -26 72.5t-69 26.5t-71.5 -26t-27.5 -73h194zM114 678l65 72l69 -60q11 -9 11 -24q0 -14 -11 -25l-65 -72l-69 60q-11 10 -11 24t11 25zM304 678l65 72l69 -60q11 -11 11 -24q0 -10 -11 -25l-65 -72l-69 60q-11 10 -11 24q0 10 11 25z" />
    <glyph glyph-name="edotaccent" unicode="&#x117;" horiz-adv-x="555" 
d="M163.5 24.5q-61.5 34.5 -95 97t-33.5 146.5q0 80 31.5 140.5t89 93.5t132.5 33q112 0 174 -65t62 -174v-24t-3 -41h-328q0 -57 35.5 -89t99.5 -32q42 0 75 15.5t53 45.5q24 -7 37.5 -24t13.5 -42q0 -54 -54.5 -84.5t-147.5 -30.5q-80 0 -141.5 34.5zM387 323
q-2 46 -26 72.5t-69 26.5t-71.5 -26t-27.5 -73h194zM204 679l70 78l74 -65q12 -11 12 -25q0 -13 -12 -27l-70 -78l-74 65q-12 10 -12 25q0 13 12 27z" />
    <glyph glyph-name="egrave" unicode="&#xe8;" horiz-adv-x="555" 
d="M163.5 24.5q-61.5 34.5 -95 97t-33.5 146.5q0 80 31.5 140.5t89 93.5t132.5 33q112 0 174 -65t62 -174v-24t-3 -41h-328q0 -57 35.5 -89t99.5 -32q42 0 75 15.5t53 45.5q24 -7 37.5 -24t13.5 -42q0 -54 -54.5 -84.5t-147.5 -30.5q-80 0 -141.5 34.5zM387 323
q-2 46 -26 72.5t-69 26.5t-71.5 -26t-27.5 -73h194zM340 593l-62 -19l-206 163l150 29z" />
    <glyph glyph-name="emacron" unicode="&#x113;" horiz-adv-x="555" 
d="M163.5 24.5q-61.5 34.5 -95 97t-33.5 146.5q0 80 31.5 140.5t89 93.5t132.5 33q112 0 174 -65t62 -174v-24t-3 -41h-328q0 -57 35.5 -89t99.5 -32q42 0 75 15.5t53 45.5q24 -7 37.5 -24t13.5 -42q0 -54 -54.5 -84.5t-147.5 -30.5q-80 0 -141.5 34.5zM387 323
q-2 46 -26 72.5t-69 26.5t-71.5 -26t-27.5 -73h194zM412 602h-268v87h268v-87z" />
    <glyph glyph-name="eogonek" unicode="&#x119;" horiz-adv-x="555" 
d="M524 272q0 -20 -3 -41h-328q0 -57 35.5 -89t99.5 -32q42 0 75 15.5t53 45.5q24 -7 37.5 -24t13.5 -42q0 -38 -27.5 -64.5t-77.5 -39.5q-52 -33 -52 -77q0 -24 14.5 -37t39.5 -13q24 0 51 11l19 -41q-52 -40 -122 -40q-55 0 -89 23.5t-34 65.5q0 29 19 55t53 42
q-79 1 -139.5 35.5t-93.5 97t-33 145.5q0 80 31.5 140.5t89 93.5t132.5 33q112 0 174 -65t62 -174v-24zM387 323q-2 46 -26 72.5t-69 26.5t-71.5 -26t-27.5 -73h194z" />
    <glyph glyph-name="f" unicode="f" horiz-adv-x="428" 
d="M134 525q-18 12 -29.5 36.5t-11.5 51.5q0 67 53 104.5t132 37.5q131 0 131 -78q0 -33 -23 -60q-27 22 -71 22q-34 0 -53 -15.5t-19 -42.5q0 -19 9.5 -34.5t25.5 -21.5h125v-113h-130v-324q0 -44 -23.5 -67.5t-67.5 -23.5q-17 0 -35 3.5t-30 9.5v402q-58 1 -80 26.5
t-22 86.5h119z" />
    <glyph glyph-name="g" unicode="g" horiz-adv-x="574" 
d="M545.5 460q-17.5 -18 -48.5 -18q-17 0 -43 8q18 -15 28 -41t10 -60q0 -82 -60 -126.5t-175 -51.5q-16 -1 -30.5 -8t-14.5 -21q0 -23 40 -23h121q77 0 116 -34.5t39 -100.5q0 -53 -35 -93.5t-99.5 -62.5t-150.5 -22q-94 0 -144 25.5t-50 69.5q0 38 26.5 54t76.5 21
q-2 -10 -2 -18q0 -32 24.5 -47t77.5 -15q63 0 91 16t28 42t-15.5 33t-44.5 7h-115q-54 0 -85.5 19t-31.5 60q0 73 109 107q-73 17 -112.5 60.5t-39.5 108.5q0 55 29 97.5t82 65.5t123 23q39 0 74 -7q30 -4 44 -4q44 0 81.5 17t51.5 45q19 -10 30.5 -30.5t11.5 -45.5
q0 -32 -17.5 -50zM337 350q0 42 -19 63.5t-54 21.5q-36 0 -54.5 -21t-18.5 -62t18.5 -62.5t54.5 -21.5q73 0 73 82z" />
    <glyph glyph-name="gbreve" unicode="&#x11f;" horiz-adv-x="574" 
d="M545.5 460q-17.5 -18 -48.5 -18q-17 0 -43 8q18 -15 28 -41t10 -60q0 -82 -60 -126.5t-175 -51.5q-16 -1 -30.5 -8t-14.5 -21q0 -23 40 -23h121q77 0 116 -34.5t39 -100.5q0 -53 -35 -93.5t-99.5 -62.5t-150.5 -22q-94 0 -144 25.5t-50 69.5q0 38 26.5 54t76.5 21
q-2 -10 -2 -18q0 -32 24.5 -47t77.5 -15q63 0 91 16t28 42t-15.5 33t-44.5 7h-115q-54 0 -85.5 19t-31.5 60q0 73 109 107q-73 17 -112.5 60.5t-39.5 108.5q0 55 29 97.5t82 65.5t123 23q39 0 74 -7q30 -4 44 -4q44 0 81.5 17t51.5 45q19 -10 30.5 -30.5t11.5 -45.5
q0 -32 -17.5 -50zM337 350q0 42 -19 63.5t-54 21.5q-36 0 -54.5 -21t-18.5 -62t18.5 -62.5t54.5 -21.5q73 0 73 82zM207 745q18 -76 81 -76t78 76l68 -1q-2 -77 -39.5 -120.5t-109.5 -43.5t-108 43t-38 121z" />
    <glyph glyph-name="uni0123" unicode="&#x123;" horiz-adv-x="574" 
d="M545.5 460q-17.5 -18 -48.5 -18q-17 0 -43 8q18 -15 28 -41t10 -60q0 -82 -60 -126.5t-175 -51.5q-16 -1 -30.5 -8t-14.5 -21q0 -23 40 -23h121q77 0 116 -34.5t39 -100.5q0 -53 -35 -93.5t-99.5 -62.5t-150.5 -22q-94 0 -144 25.5t-50 69.5q0 38 26.5 54t76.5 21
q-2 -10 -2 -18q0 -32 24.5 -47t77.5 -15q63 0 91 16t28 42t-15.5 33t-44.5 7h-115q-54 0 -85.5 19t-31.5 60q0 73 109 107q-73 17 -112.5 60.5t-39.5 108.5q0 55 29 97.5t82 65.5t123 23q39 0 74 -7q30 -4 44 -4q44 0 81.5 17t51.5 45q19 -10 30.5 -30.5t11.5 -45.5
q0 -32 -17.5 -50zM337 350q0 42 -19 63.5t-54 21.5q-36 0 -54.5 -21t-18.5 -62t18.5 -62.5t54.5 -21.5q73 0 73 82zM351.5 701q18.5 -21 18.5 -50q0 -38 -23 -60t-60 -22q-43 0 -69 33t-26 86q0 63 33.5 102t88.5 39q25 0 40.5 -10t15.5 -28q0 -20 -13 -33q-9 11 -33 11
q-27 0 -42.5 -13.5t-19.5 -44.5q13 11 41 11q30 0 48.5 -21z" />
    <glyph glyph-name="gdotaccent" unicode="&#x121;" horiz-adv-x="574" 
d="M545.5 460q-17.5 -18 -48.5 -18q-17 0 -43 8q18 -15 28 -41t10 -60q0 -82 -60 -126.5t-175 -51.5q-16 -1 -30.5 -8t-14.5 -21q0 -23 40 -23h121q77 0 116 -34.5t39 -100.5q0 -53 -35 -93.5t-99.5 -62.5t-150.5 -22q-94 0 -144 25.5t-50 69.5q0 38 26.5 54t76.5 21
q-2 -10 -2 -18q0 -32 24.5 -47t77.5 -15q63 0 91 16t28 42t-15.5 33t-44.5 7h-115q-54 0 -85.5 19t-31.5 60q0 73 109 107q-73 17 -112.5 60.5t-39.5 108.5q0 55 29 97.5t82 65.5t123 23q39 0 74 -7q30 -4 44 -4q44 0 81.5 17t51.5 45q19 -10 30.5 -30.5t11.5 -45.5
q0 -32 -17.5 -50zM337 350q0 42 -19 63.5t-54 21.5q-36 0 -54.5 -21t-18.5 -62t18.5 -62.5t54.5 -21.5q73 0 73 82zM213 679l70 78l74 -65q12 -11 12 -25q0 -13 -12 -27l-70 -78l-74 65q-12 10 -12 25q0 13 12 27z" />
    <glyph glyph-name="h" unicode="h" horiz-adv-x="593" 
d="M55 737q12 6 30 9.5t35 3.5q45 0 68.5 -23.5t23.5 -67.5v-205q21 39 61 60t92 21q81 0 128 -50.5t47 -138.5v-346h-156v310q0 53 -20 79t-61 26q-40 0 -65.5 -25t-25.5 -65v-325h-157v737z" />
    <glyph glyph-name="hbar" unicode="&#x127;" horiz-adv-x="593" 
d="M493 484.5q47 -50.5 47 -138.5v-346h-156v310q0 53 -20 79t-61 26q-40 0 -65.5 -25t-25.5 -65v-325h-157v561h-55v93h55v83q12 6 30 9.5t35 3.5q45 0 68.5 -23.5t23.5 -67.5v-5h108v-93h-108v-107q21 39 61 60t92 21q81 0 128 -50.5z" />
    <glyph glyph-name="i" unicode="i" horiz-adv-x="264" 
d="M60 679l70 74l74 -61q12 -11 12 -25q0 -13 -12 -27l-70 -74l-74 61q-12 10 -12 25q0 13 12 27zM54 525h157v-515q-12 -6 -30 -9.5t-35 -3.5q-45 0 -68.5 23.5t-23.5 67.5v437z" />
    <glyph glyph-name="dotlessi" unicode="&#x131;" horiz-adv-x="267" 
d="M55 525h157v-515q-12 -6 -30 -9.5t-35 -3.5q-45 0 -68.5 23.5t-23.5 67.5v437z" />
    <glyph glyph-name="iacute" unicode="&#xed;" horiz-adv-x="267" 
d="M55 525h157v-515q-12 -6 -30 -9.5t-35 -3.5q-45 0 -68.5 23.5t-23.5 67.5v437zM127 574l-63 19l118 173l150 -29z" />
    <glyph glyph-name="icircumflex" unicode="&#xee;" horiz-adv-x="267" 
d="M55 525h157v-515q-12 -6 -30 -9.5t-35 -3.5q-45 0 -68.5 23.5t-23.5 67.5v437zM186 754l120 -168l-59 -20l-119 87l-120 -87l-60 20l120 168h118z" />
    <glyph glyph-name="idieresis" unicode="&#xef;" horiz-adv-x="267" 
d="M55 525h157v-515q-12 -6 -30 -9.5t-35 -3.5q-45 0 -68.5 23.5t-23.5 67.5v437zM-37 678l65 72l69 -60q11 -9 11 -24q0 -14 -11 -25l-65 -72l-69 60q-11 10 -11 24t11 25zM153 678l65 72l69 -60q11 -11 11 -24q0 -10 -11 -25l-65 -72l-69 60q-11 10 -11 24q0 10 11 25z
" />
    <glyph glyph-name="i.loclTRK" horiz-adv-x="267" 
d="M55 525h157v-515q-12 -6 -30 -9.5t-35 -3.5q-45 0 -68.5 23.5t-23.5 67.5v437zM53 679l70 78l74 -65q12 -11 12 -25q0 -13 -12 -27l-70 -78l-74 65q-12 10 -12 25q0 13 12 27z" />
    <glyph glyph-name="igrave" unicode="&#xec;" horiz-adv-x="267" 
d="M55 525h157v-515q-12 -6 -30 -9.5t-35 -3.5q-45 0 -68.5 23.5t-23.5 67.5v437zM189 593l-62 -19l-206 163l150 29z" />
    <glyph glyph-name="imacron" unicode="&#x12b;" horiz-adv-x="267" 
d="M55 525h157v-515q-12 -6 -30 -9.5t-35 -3.5q-45 0 -68.5 23.5t-23.5 67.5v437zM261 602h-268v87h268v-87z" />
    <glyph glyph-name="iogonek" unicode="&#x12f;" horiz-adv-x="267" 
d="M53 627q-12 10 -12 25q0 13 12 27l70 78l74 -65q12 -11 12 -25q0 -13 -12 -27l-70 -78zM276 -152q-52 -40 -122 -40q-55 0 -89 23.5t-34 65.5q0 32 23 60t63 43q-31 7 -46.5 29.5t-15.5 58.5v437h157v-515q-60 -35 -60 -82q0 -24 14.5 -37t39.5 -13q24 0 51 11z" />
    <glyph glyph-name="j" unicode="j" horiz-adv-x="264" 
d="M60 627q-12 10 -12 25q0 13 12 27l70 74l74 -61q12 -11 12 -25q0 -13 -12 -27l-70 -74zM-44.5 -174.5q-30.5 21.5 -30.5 57.5t23 59q17 -12 43 -12q33 0 48.5 20t15.5 61v514h156v-509q0 -102 -45.5 -157t-129.5 -55q-50 0 -80.5 21.5z" />
    <glyph glyph-name="k" unicode="k" horiz-adv-x="559" 
d="M56 737q12 6 30 9.5t35 3.5q45 0 68.5 -23.5t23.5 -67.5l-1 -387l133 188q27 38 51.5 55t55.5 17q61 0 87 -47l-76 -102q-39 -53 -72.5 -81.5t-58.5 -33.5q56 -15 123 -99l90 -114q-9 -29 -35 -46.5t-61 -17.5q-29 0 -49.5 10.5t-39.5 38.5l-148 221v-261h-157z" />
    <glyph glyph-name="uni0137" unicode="&#x137;" horiz-adv-x="559" 
d="M56 737q12 6 30 9.5t35 3.5q45 0 68.5 -23.5t23.5 -67.5l-1 -387l133 188q27 38 51.5 55t55.5 17q61 0 87 -47l-76 -102q-39 -53 -72.5 -81.5t-58.5 -33.5q56 -15 123 -99l90 -114q-9 -29 -35 -46.5t-61 -17.5q-29 0 -49.5 10.5t-39.5 38.5l-148 221v-261h-157zM351 -84
q26 -33 26 -86q0 -66 -33 -103.5t-89 -37.5q-25 0 -40.5 10t-15.5 28q0 20 13 33q9 -11 33 -11q29 0 45 14t18 45q-12 -12 -42 -12t-48.5 21t-18.5 50q0 38 23 60t60 22q43 0 69 -33z" />
    <glyph glyph-name="l" unicode="l" horiz-adv-x="267" 
d="M55 735q12 6 30 9.5t35 3.5q45 0 68.5 -23.5t23.5 -67.5v-647q-12 -6 -30 -9.5t-35 -3.5q-45 0 -68.5 23.5t-23.5 67.5v647z" />
    <glyph glyph-name="lacute" unicode="&#x13a;" horiz-adv-x="267" 
d="M55 735q12 6 30 9.5t35 3.5q45 0 68.5 -23.5t23.5 -67.5v-647q-12 -6 -30 -9.5t-35 -3.5q-45 0 -68.5 23.5t-23.5 67.5v647zM133 794l-63 19l118 173l150 -29z" />
    <glyph glyph-name="lcaron" unicode="&#x13e;" horiz-adv-x="267" 
d="M392.5 720.5q23.5 -29.5 23.5 -78.5q0 -59 -29.5 -93t-80.5 -34q-22 0 -36.5 9t-14.5 25q0 18 12 30q7 -10 30 -10q53 0 57 53q-11 -11 -38 -11t-44 19t-17 46q0 34 21 54t54 20q39 0 62.5 -29.5zM212 113q0 -61 12 -88q-11 -13 -31 -20.5t-46 -7.5q-92 0 -92 101v637
q12 6 30 9.5t35 3.5q45 0 68.5 -23.5t23.5 -67.5v-544z" />
    <glyph glyph-name="uni013C" unicode="&#x13c;" horiz-adv-x="267" 
d="M55 735q12 6 30 9.5t35 3.5q45 0 68.5 -23.5t23.5 -67.5v-647q-12 -6 -30 -9.5t-35 -3.5q-45 0 -68.5 23.5t-23.5 67.5v647zM202 -84q26 -33 26 -86q0 -66 -33 -103.5t-89 -37.5q-25 0 -40.5 10t-15.5 28q0 20 13 33q9 -11 33 -11q29 0 45 14t18 45q-12 -12 -42 -12
t-48.5 21t-18.5 50q0 38 23 60t60 22q43 0 69 -33z" />
    <glyph glyph-name="lslash" unicode="&#x142;" horiz-adv-x="265" 
d="M212 351v-238q0 -61 12 -88q-11 -13 -31 -20.5t-46 -7.5q-92 0 -92 101v178l-47 -22l-36 89l83 40v352q12 6 30 9.5t35 3.5q45 0 68.5 -23.5t23.5 -67.5v-199l52 25l36 -90z" />
    <glyph glyph-name="m" unicode="m" horiz-adv-x="901" 
d="M800.5 485q47.5 -50 47.5 -133v-352h-156v306q0 56 -18.5 82.5t-57.5 26.5t-63 -24.5t-24 -64.5v-326h-155v306q0 53 -20.5 81t-59.5 28q-37 0 -59.5 -24.5t-22.5 -64.5v-326h-157v515q26 13 65 13q43 0 67 -23t24 -62v-7q18 48 58.5 73.5t94.5 25.5q52 0 91 -27.5
t59 -83.5q21 56 62.5 83.5t97.5 27.5q79 0 126.5 -50z" />
    <glyph glyph-name="n" unicode="n" horiz-adv-x="593" 
d="M493 484.5q47 -50.5 47 -138.5v-346h-156v310q0 53 -20 79t-61 26q-40 0 -65.5 -25t-25.5 -65v-325h-157v515q26 13 65 13q43 0 67 -24.5t24 -65.5v-1q19 47 59.5 72.5t94.5 25.5q81 0 128 -50.5z" />
    <glyph glyph-name="nacute" unicode="&#x144;" horiz-adv-x="593" 
d="M493 484.5q47 -50.5 47 -138.5v-346h-156v310q0 53 -20 79t-61 26q-40 0 -65.5 -25t-25.5 -65v-325h-157v515q26 13 65 13q43 0 67 -24.5t24 -65.5v-1q19 47 59.5 72.5t94.5 25.5q81 0 128 -50.5zM297 574l-63 19l118 173l150 -29z" />
    <glyph glyph-name="ncaron" unicode="&#x148;" horiz-adv-x="593" 
d="M493 484.5q47 -50.5 47 -138.5v-346h-156v310q0 53 -20 79t-61 26q-40 0 -65.5 -25t-25.5 -65v-325h-157v515q26 13 65 13q43 0 67 -24.5t24 -65.5v-1q19 47 59.5 72.5t94.5 25.5q81 0 128 -50.5zM238 584l-120 168l59 20l119 -87l120 87l60 -20l-120 -168h-118z" />
    <glyph glyph-name="uni0146" unicode="&#x146;" horiz-adv-x="593" 
d="M493 484.5q47 -50.5 47 -138.5v-346h-156v310q0 53 -20 79t-61 26q-40 0 -65.5 -25t-25.5 -65v-325h-157v515q26 13 65 13q43 0 67 -24.5t24 -65.5v-1q19 47 59.5 72.5t94.5 25.5q81 0 128 -50.5zM366 -84q26 -33 26 -86q0 -66 -33 -103.5t-89 -37.5q-25 0 -40.5 10
t-15.5 28q0 20 13 33q9 -11 33 -11q29 0 45 14t18 45q-12 -12 -42 -12t-48.5 21t-18.5 50q0 38 23 60t60 22q43 0 69 -33z" />
    <glyph glyph-name="eng" unicode="&#x14b;" horiz-adv-x="593" 
d="M55 515q26 13 65 13q43 0 65.5 -23t25.5 -73q40 103 154 103q81 0 128 -50.5t47 -138.5v-330q0 -102 -45.5 -157t-129.5 -55q-50 0 -80.5 21.5t-30.5 57.5t23 59q17 -12 43 -12q33 0 48.5 20t15.5 61v299q0 53 -20 79t-61 26q-40 0 -65.5 -25t-25.5 -65v-325h-157v515z
" />
    <glyph glyph-name="ntilde" unicode="&#xf1;" horiz-adv-x="593" 
d="M493 484.5q47 -50.5 47 -138.5v-346h-156v310q0 53 -20 79t-61 26q-40 0 -65.5 -25t-25.5 -65v-325h-157v515q26 13 65 13q43 0 67 -24.5t24 -65.5v-1q19 47 59.5 72.5t94.5 25.5q81 0 128 -50.5zM273.5 731.5q15.5 -7.5 39.5 -22.5q17 -12 29.5 -18.5t25.5 -6.5
q21 0 32 10.5t20 36.5l51 -16q-6 -55 -38 -88t-80 -33q-19 0 -36 8t-38 23q-19 13 -30.5 19t-24.5 6q-21 0 -31.5 -10.5t-19.5 -36.5l-51 15q5 54 37 87.5t80 33.5q19 0 34.5 -7.5z" />
    <glyph glyph-name="o" unicode="o" horiz-adv-x="612" 
d="M163.5 24q-61.5 34 -95 96t-33.5 143t33.5 142.5t95 95.5t142.5 34t142.5 -34t95 -95.5t33.5 -142.5t-33.5 -143t-95 -96t-142.5 -34t-142.5 34zM389 149.5q29 39.5 29 113.5q0 73 -29 112.5t-83 39.5t-83 -39.5t-29 -112.5q0 -74 29 -113.5t83 -39.5t83 39.5z" />
    <glyph glyph-name="oacute" unicode="&#xf3;" horiz-adv-x="612" 
d="M163.5 24q-61.5 34 -95 96t-33.5 143t33.5 142.5t95 95.5t142.5 34t142.5 -34t95 -95.5t33.5 -142.5t-33.5 -143t-95 -96t-142.5 -34t-142.5 34zM389 149.5q29 39.5 29 113.5q0 73 -29 112.5t-83 39.5t-83 -39.5t-29 -112.5q0 -74 29 -113.5t83 -39.5t83 39.5zM306 574
l-63 19l118 173l150 -29z" />
    <glyph glyph-name="ocircumflex" unicode="&#xf4;" horiz-adv-x="612" 
d="M163.5 24q-61.5 34 -95 96t-33.5 143t33.5 142.5t95 95.5t142.5 34t142.5 -34t95 -95.5t33.5 -142.5t-33.5 -143t-95 -96t-142.5 -34t-142.5 34zM389 149.5q29 39.5 29 113.5q0 73 -29 112.5t-83 39.5t-83 -39.5t-29 -112.5q0 -74 29 -113.5t83 -39.5t83 39.5zM365 754
l120 -168l-59 -20l-119 87l-120 -87l-60 20l120 168h118z" />
    <glyph glyph-name="odieresis" unicode="&#xf6;" horiz-adv-x="612" 
d="M163.5 24q-61.5 34 -95 96t-33.5 143t33.5 142.5t95 95.5t142.5 34t142.5 -34t95 -95.5t33.5 -142.5t-33.5 -143t-95 -96t-142.5 -34t-142.5 34zM389 149.5q29 39.5 29 113.5q0 73 -29 112.5t-83 39.5t-83 -39.5t-29 -112.5q0 -74 29 -113.5t83 -39.5t83 39.5zM142 678
l65 72l69 -60q11 -9 11 -24q0 -14 -11 -25l-65 -72l-69 60q-11 10 -11 24t11 25zM332 678l65 72l69 -60q11 -11 11 -24q0 -10 -11 -25l-65 -72l-69 60q-11 10 -11 24q0 10 11 25z" />
    <glyph glyph-name="ograve" unicode="&#xf2;" horiz-adv-x="612" 
d="M163.5 24q-61.5 34 -95 96t-33.5 143t33.5 142.5t95 95.5t142.5 34t142.5 -34t95 -95.5t33.5 -142.5t-33.5 -143t-95 -96t-142.5 -34t-142.5 34zM389 149.5q29 39.5 29 113.5q0 73 -29 112.5t-83 39.5t-83 -39.5t-29 -112.5q0 -74 29 -113.5t83 -39.5t83 39.5zM368 593
l-62 -19l-206 163l150 29z" />
    <glyph glyph-name="ohungarumlaut" unicode="&#x151;" horiz-adv-x="612" 
d="M163.5 24q-61.5 34 -95 96t-33.5 143t33.5 142.5t95 95.5t142.5 34t142.5 -34t95 -95.5t33.5 -142.5t-33.5 -143t-95 -96t-142.5 -34t-142.5 34zM389 149.5q29 39.5 29 113.5q0 73 -29 112.5t-83 39.5t-83 -39.5t-29 -112.5q0 -74 29 -113.5t83 -39.5t83 39.5zM178 593
l106 165l129 -29l-176 -155zM373 593l106 165l129 -29l-175 -155z" />
    <glyph glyph-name="omacron" unicode="&#x14d;" horiz-adv-x="612" 
d="M163.5 24q-61.5 34 -95 96t-33.5 143t33.5 142.5t95 95.5t142.5 34t142.5 -34t95 -95.5t33.5 -142.5t-33.5 -143t-95 -96t-142.5 -34t-142.5 34zM389 149.5q29 39.5 29 113.5q0 73 -29 112.5t-83 39.5t-83 -39.5t-29 -112.5q0 -74 29 -113.5t83 -39.5t83 39.5zM440 602
h-268v87h268v-87z" />
    <glyph glyph-name="oslash" unicode="&#xf8;" horiz-adv-x="612" 
d="M502 461q36 -36 55.5 -86.5t19.5 -111.5q0 -81 -33.5 -143t-95 -96t-142.5 -34q-63 0 -118 22l-42 -60l-76 53l41 58q-37 37 -56.5 88t-19.5 112q0 81 33.5 142.5t95 95.5t142.5 34q65 0 119 -23l42 61l76 -53zM202 194l149 212q-21 9 -45 9q-54 0 -83 -39.5t-29 -112.5
q0 -37 8 -69zM389 149.5q29 39.5 29 113.5q0 37 -8 67l-148 -212q21 -8 44 -8q54 0 83 39.5z" />
    <glyph glyph-name="otilde" unicode="&#xf5;" horiz-adv-x="612" 
d="M163.5 24q-61.5 34 -95 96t-33.5 143t33.5 142.5t95 95.5t142.5 34t142.5 -34t95 -95.5t33.5 -142.5t-33.5 -143t-95 -96t-142.5 -34t-142.5 34zM389 149.5q29 39.5 29 113.5q0 73 -29 112.5t-83 39.5t-83 -39.5t-29 -112.5q0 -74 29 -113.5t83 -39.5t83 39.5z
M282.5 731.5q15.5 -7.5 39.5 -22.5q17 -12 29.5 -18.5t25.5 -6.5q21 0 32 10.5t20 36.5l51 -16q-6 -55 -38 -88t-80 -33q-19 0 -36 8t-38 23q-19 13 -30.5 19t-24.5 6q-21 0 -31.5 -10.5t-19.5 -36.5l-51 15q5 54 37 87.5t80 33.5q19 0 34.5 -7.5z" />
    <glyph glyph-name="oe" unicode="&#x153;" horiz-adv-x="938" 
d="M899 231h-322q0 -57 35.5 -89t99.5 -32q42 0 75 15.5t53 45.5q24 -7 37.5 -24t13.5 -42q0 -52 -58.5 -83.5t-143.5 -31.5q-61 0 -110 17.5t-83 50.5q-36 -33 -84 -50.5t-106 -17.5q-81 0 -142.5 34t-95 96t-33.5 143t33.5 142.5t95 95.5t142.5 34q57 0 105 -17t84 -50
q67 67 177 67q71 0 124 -28.5t82 -80.5t29 -120q0 -40 -8 -75zM771 323q-2 45 -26.5 71t-65.5 26q-42 0 -70 -26.5t-30 -70.5h192zM389 149.5q29 39.5 29 113.5q0 73 -29 112.5t-83 39.5t-83 -39.5t-29 -112.5q0 -74 29 -113.5t83 -39.5t83 39.5z" />
    <glyph glyph-name="p" unicode="p" horiz-adv-x="609" 
d="M475.5 501.5q47.5 -33.5 73 -95.5t25.5 -145q0 -125 -56.5 -198t-153.5 -73q-54 0 -92.5 20.5t-59.5 60.5v-170q0 -44 -23.5 -67.5t-68.5 -23.5q-17 0 -35 3.5t-30 9.5v692q26 13 65 13q44 0 68 -24t24 -69v-2q20 50 58.5 76t93.5 26q64 0 111.5 -33.5zM386.5 149.5
q28.5 40.5 28.5 112.5q0 71 -28 112t-77 41q-42 0 -70 -28.5t-28 -70.5v-118q0 -36 28.5 -62.5t67.5 -26.5q50 0 78.5 40.5z" />
    <glyph glyph-name="thorn" unicode="&#xfe;" horiz-adv-x="609" 
d="M85 -186.5q-18 3.5 -30 9.5v912q12 6 30 9.5t35 3.5q45 0 68.5 -23.5t23.5 -67.5v-224q20 50 58.5 76t93.5 26q64 0 111.5 -33.5t73 -95.5t25.5 -145q0 -125 -56.5 -198t-153.5 -73q-108 0 -152 81v-170q0 -44 -23.5 -67.5t-68.5 -23.5q-17 0 -35 3.5zM386.5 149.5
q28.5 40.5 28.5 112.5q0 71 -28 112t-77 41q-42 0 -70 -28.5t-28 -70.5v-118q0 -36 28.5 -62.5t67.5 -26.5q50 0 78.5 40.5z" />
    <glyph glyph-name="q" unicode="q" horiz-adv-x="607" 
d="M554 515v-692q-26 -13 -65 -13q-45 0 -68.5 23.5t-23.5 67.5v170q-21 -40 -59.5 -60.5t-92.5 -20.5q-97 0 -153.5 73t-56.5 198q0 83 25.5 145t73 95.5t111.5 33.5q113 0 152 -103v5q0 43 25 67t67 24q39 0 65 -13zM368.5 135.5q28.5 26.5 28.5 62.5v118q0 42 -28 70.5
t-70 28.5q-49 0 -77 -41t-28 -112q0 -72 28.5 -112.5t78.5 -40.5q39 0 67.5 26.5z" />
    <glyph glyph-name="r" unicode="r" horiz-adv-x="450" 
d="M55 516q26 13 65 13q42 0 66.5 -23.5t24.5 -63.5v-13q19 44 57.5 71t82.5 27q39 0 61.5 -20t22.5 -55q0 -42 -32 -79q-28 24 -76 24q-55 0 -85 -31.5t-30 -87.5v-278h-157v516z" />
    <glyph glyph-name="racute" unicode="&#x155;" horiz-adv-x="450" 
d="M55 516q26 13 65 13q42 0 66.5 -23.5t24.5 -63.5v-13q19 44 57.5 71t82.5 27q39 0 61.5 -20t22.5 -55q0 -42 -32 -79q-28 24 -76 24q-55 0 -85 -31.5t-30 -87.5v-278h-157v516zM225 574l-63 19l118 173l150 -29z" />
    <glyph glyph-name="rcaron" unicode="&#x159;" horiz-adv-x="450" 
d="M55 516q26 13 65 13q42 0 66.5 -23.5t24.5 -63.5v-13q19 44 57.5 71t82.5 27q39 0 61.5 -20t22.5 -55q0 -42 -32 -79q-28 24 -76 24q-55 0 -85 -31.5t-30 -87.5v-278h-157v516zM166 584l-120 168l59 20l119 -87l120 87l60 -20l-120 -168h-118z" />
    <glyph glyph-name="uni0157" unicode="&#x157;" horiz-adv-x="450" 
d="M55 516q26 13 65 13q42 0 66.5 -23.5t24.5 -63.5v-13q19 44 57.5 71t82.5 27q39 0 61.5 -20t22.5 -55q0 -42 -32 -79q-28 24 -76 24q-55 0 -85 -31.5t-30 -87.5v-278h-157v516zM203 -84q26 -33 26 -86q0 -66 -33 -103.5t-89 -37.5q-25 0 -40.5 10t-15.5 28q0 20 13 33
q9 -11 33 -11q29 0 45 14t18 45q-12 -12 -42 -12t-48.5 21t-18.5 50q0 38 23 60t60 22q43 0 69 -33z" />
    <glyph glyph-name="s" unicode="s" horiz-adv-x="505" 
d="M100 182q9 -38 46 -59.5t86 -21.5q78 0 78 54q0 27 -18.5 36.5t-43.5 13t-34 5.5q-71 11 -121.5 43.5t-50.5 111.5q0 78 60.5 124t165.5 46q80 0 128.5 -27.5t48.5 -72.5q0 -21 -14.5 -39t-40.5 -30q-19 31 -53 46.5t-78 15.5q-31 0 -48 -12t-17 -36q0 -23 22 -33t70 -18
q55 -10 91 -22.5t62 -45.5t26 -93q0 -84 -63.5 -131t-168.5 -47q-92 0 -142.5 31.5t-50.5 81.5q0 51 60 79z" />
    <glyph glyph-name="sacute" unicode="&#x15b;" horiz-adv-x="505" 
d="M100 182q9 -38 46 -59.5t86 -21.5q78 0 78 54q0 27 -18.5 36.5t-43.5 13t-34 5.5q-71 11 -121.5 43.5t-50.5 111.5q0 78 60.5 124t165.5 46q80 0 128.5 -27.5t48.5 -72.5q0 -21 -14.5 -39t-40.5 -30q-19 31 -53 46.5t-78 15.5q-31 0 -48 -12t-17 -36q0 -23 22 -33t70 -18
q55 -10 91 -22.5t62 -45.5t26 -93q0 -84 -63.5 -131t-168.5 -47q-92 0 -142.5 31.5t-50.5 81.5q0 51 60 79zM253 574l-63 19l118 173l150 -29z" />
    <glyph glyph-name="scaron" unicode="&#x161;" horiz-adv-x="505" 
d="M100 182q9 -38 46 -59.5t86 -21.5q78 0 78 54q0 27 -18.5 36.5t-43.5 13t-34 5.5q-71 11 -121.5 43.5t-50.5 111.5q0 78 60.5 124t165.5 46q80 0 128.5 -27.5t48.5 -72.5q0 -21 -14.5 -39t-40.5 -30q-19 31 -53 46.5t-78 15.5q-31 0 -48 -12t-17 -36q0 -23 22 -33t70 -18
q55 -10 91 -22.5t62 -45.5t26 -93q0 -84 -63.5 -131t-168.5 -47q-92 0 -142.5 31.5t-50.5 81.5q0 51 60 79zM194 584l-120 168l59 20l119 -87l120 87l60 -20l-120 -168h-118z" />
    <glyph glyph-name="scedilla" unicode="&#x15f;" horiz-adv-x="505" 
d="M415.5 48.5q-49.5 -45.5 -133.5 -55.5q43 -14 68.5 -42.5t25.5 -61.5q0 -43 -34 -67t-89 -24q-70 0 -122 40l20 41q25 -11 50 -11t39.5 13t14.5 36q0 41 -45 74q-81 4 -125.5 34.5t-44.5 77.5q0 51 60 79q9 -38 46 -59.5t86 -21.5q78 0 78 54q0 27 -18.5 36.5t-43.5 13
t-34 5.5q-71 11 -121.5 43.5t-50.5 111.5q0 78 60.5 124t165.5 46q80 0 128.5 -27.5t48.5 -72.5q0 -21 -14.5 -39t-40.5 -30q-19 31 -53 46.5t-78 15.5q-31 0 -48 -12t-17 -36q0 -23 22 -33t70 -18q55 -10 91 -22.5t62 -45.5t26 -93q0 -74 -49.5 -119.5z" />
    <glyph glyph-name="uni0219" unicode="&#x219;" horiz-adv-x="505" 
d="M100 182q9 -38 46 -59.5t86 -21.5q78 0 78 54q0 27 -18.5 36.5t-43.5 13t-34 5.5q-71 11 -121.5 43.5t-50.5 111.5q0 78 60.5 124t165.5 46q80 0 128.5 -27.5t48.5 -72.5q0 -21 -14.5 -39t-40.5 -30q-19 31 -53 46.5t-78 15.5q-31 0 -48 -12t-17 -36q0 -23 22 -33t70 -18
q55 -10 91 -22.5t62 -45.5t26 -93q0 -84 -63.5 -131t-168.5 -47q-92 0 -142.5 31.5t-50.5 81.5q0 51 60 79zM322 -84q26 -33 26 -86q0 -66 -33 -103.5t-89 -37.5q-25 0 -40.5 10t-15.5 28q0 20 13 33q9 -11 33 -11q29 0 45 14t18 45q-12 -12 -42 -12t-48.5 21t-18.5 50
q0 38 23 60t60 22q43 0 69 -33z" />
    <glyph glyph-name="germandbls" unicode="&#xdf;" horiz-adv-x="627" 
d="M242 67q0 26 25 57q26 -23 79 -23q45 0 68 16t23 43q0 28 -18 47.5t-58 47.5q-46 32 -69.5 58.5t-23.5 67.5q0 34 18.5 61t52.5 60q25 25 37 41t12 33q0 62 -73 62q-50 0 -79.5 -29.5t-29.5 -83.5v-525h-151v510q0 78 34.5 133t95 83.5t137.5 28.5q103 0 161.5 -42.5
t58.5 -113.5q0 -39 -20.5 -68t-56.5 -63q-23 -22 -32.5 -33.5t-9.5 -23.5q0 -15 13.5 -27t44.5 -34q37 -25 61.5 -46.5t42.5 -54.5t18 -76q0 -84 -63 -133.5t-173 -49.5q-125 0 -125 77z" />
    <glyph glyph-name="t" unicode="t" horiz-adv-x="422" 
d="M99 525v134q12 6 30 9.5t35 3.5q44 0 67.5 -23.5t23.5 -67.5v-56h133v-113h-132v-249q0 -47 49 -47q18 0 36 7.5t29 18.5q4 -6 11.5 -17.5t12.5 -23t5 -24.5q0 -41 -36 -62.5t-107 -21.5q-75 0 -115.5 41.5t-40.5 119.5v258q-36 1 -55.5 11t-27.5 34t-8 68h90z" />
    <glyph glyph-name="tbar" unicode="&#x167;" horiz-adv-x="422" 
d="M140.5 34.5q-40.5 41.5 -40.5 119.5v69h-91v103h91v86q-36 1 -55.5 11t-27.5 34t-8 68h90v134q12 6 30 9.5t35 3.5q44 0 67.5 -23.5t23.5 -67.5v-56h133v-113h-132v-86h135v-103h-135v-60q0 -47 49 -47q18 0 36 7.5t29 18.5q4 -6 11.5 -17.5t12.5 -23t5 -24.5
q0 -41 -36 -62.5t-107 -21.5q-75 0 -115.5 41.5z" />
    <glyph glyph-name="tcaron" unicode="&#x165;" horiz-adv-x="422" 
d="M419 733q20 -23 20 -65q0 -48 -26.5 -76t-70.5 -28q-20 0 -32.5 7.5t-12.5 21.5q0 8 3 15t7 11q8 -8 26 -8q35 0 41 35q-10 -3 -24 -3q-24 0 -38.5 15t-14.5 37q0 28 19 44.5t48 16.5q35 0 55 -23zM391 113q8 -18 8 -39q0 -39 -37.5 -61.5t-95.5 -22.5q-166 0 -166 167
v255q-36 1 -55.5 11t-27.5 34t-8 68h90v134q12 6 30 9.5t35 3.5q44 0 67.5 -23.5t23.5 -67.5v-56h133v-113h-132v-241q0 -58 54 -58q19 0 35 7t25 19q13 -8 21 -26z" />
    <glyph glyph-name="uni0163" unicode="&#x163;" horiz-adv-x="422" 
d="M362 -48q27 -29 27 -63q0 -43 -34 -67t-89 -24q-70 0 -122 40l20 41q25 -11 50 -11t39.5 13t14.5 36q0 44 -54 80q-55 11 -84.5 51t-29.5 106v258q-36 1 -55.5 11t-27.5 34t-8 68h90v134q12 6 30 9.5t35 3.5q44 0 67.5 -23.5t23.5 -67.5v-56h133v-113h-132v-249
q0 -47 49 -47q18 0 36 7.5t29 18.5q4 -6 11.5 -17.5t12.5 -23t5 -24.5q0 -73 -109 -83q45 -13 72 -42z" />
    <glyph glyph-name="uni021B" unicode="&#x21b;" horiz-adv-x="422" 
d="M99 525v134q12 6 30 9.5t35 3.5q44 0 67.5 -23.5t23.5 -67.5v-56h133v-113h-132v-249q0 -47 49 -47q18 0 36 7.5t29 18.5q4 -6 11.5 -17.5t12.5 -23t5 -24.5q0 -41 -36 -62.5t-107 -21.5q-75 0 -115.5 41.5t-40.5 119.5v258q-36 1 -55.5 11t-27.5 34t-8 68h90zM335 -84
q26 -33 26 -86q0 -66 -33 -103.5t-89 -37.5q-25 0 -40.5 10t-15.5 28q0 20 13 33q9 -11 33 -11q29 0 45 14t18 45q-12 -12 -42 -12t-48.5 21t-18.5 50q0 38 23 60t60 22q43 0 69 -33z" />
    <glyph glyph-name="u" unicode="u" horiz-adv-x="595" 
d="M383 525h157v-515q-26 -13 -65 -13q-42 0 -67 21.5t-25 65.5v6q-41 -100 -156 -100q-80 0 -126 51.5t-46 152.5v321q12 6 30 9.5t35 3.5q44 0 67.5 -23.5t23.5 -67.5v-221q0 -55 21 -80.5t65 -25.5q39 0 62.5 27t23.5 73v315z" />
    <glyph glyph-name="uacute" unicode="&#xfa;" horiz-adv-x="595" 
d="M383 525h157v-515q-26 -13 -65 -13q-42 0 -67 21.5t-25 65.5v6q-41 -100 -156 -100q-80 0 -126 51.5t-46 152.5v321q12 6 30 9.5t35 3.5q44 0 67.5 -23.5t23.5 -67.5v-221q0 -55 21 -80.5t65 -25.5q39 0 62.5 27t23.5 73v315zM298 574l-63 19l118 173l150 -29z" />
    <glyph glyph-name="ucircumflex" unicode="&#xfb;" horiz-adv-x="595" 
d="M383 525h157v-515q-26 -13 -65 -13q-42 0 -67 21.5t-25 65.5v6q-41 -100 -156 -100q-80 0 -126 51.5t-46 152.5v321q12 6 30 9.5t35 3.5q44 0 67.5 -23.5t23.5 -67.5v-221q0 -55 21 -80.5t65 -25.5q39 0 62.5 27t23.5 73v315zM357 754l120 -168l-59 -20l-119 87l-120 -87
l-60 20l120 168h118z" />
    <glyph glyph-name="udieresis" unicode="&#xfc;" horiz-adv-x="595" 
d="M383 525h157v-515q-26 -13 -65 -13q-42 0 -67 21.5t-25 65.5v6q-41 -100 -156 -100q-80 0 -126 51.5t-46 152.5v321q12 6 30 9.5t35 3.5q44 0 67.5 -23.5t23.5 -67.5v-221q0 -55 21 -80.5t65 -25.5q39 0 62.5 27t23.5 73v315zM134 678l65 72l69 -60q11 -9 11 -24
q0 -14 -11 -25l-65 -72l-69 60q-11 10 -11 24t11 25zM324 678l65 72l69 -60q11 -11 11 -24q0 -10 -11 -25l-65 -72l-69 60q-11 10 -11 24q0 10 11 25z" />
    <glyph glyph-name="ugrave" unicode="&#xf9;" horiz-adv-x="595" 
d="M383 525h157v-515q-26 -13 -65 -13q-42 0 -67 21.5t-25 65.5v6q-41 -100 -156 -100q-80 0 -126 51.5t-46 152.5v321q12 6 30 9.5t35 3.5q44 0 67.5 -23.5t23.5 -67.5v-221q0 -55 21 -80.5t65 -25.5q39 0 62.5 27t23.5 73v315zM360 593l-62 -19l-206 163l150 29z" />
    <glyph glyph-name="uhungarumlaut" unicode="&#x171;" horiz-adv-x="595" 
d="M383 525h157v-515q-26 -13 -65 -13q-42 0 -67 21.5t-25 65.5v6q-41 -100 -156 -100q-80 0 -126 51.5t-46 152.5v321q12 6 30 9.5t35 3.5q44 0 67.5 -23.5t23.5 -67.5v-221q0 -55 21 -80.5t65 -25.5q39 0 62.5 27t23.5 73v315zM170 593l106 165l129 -29l-176 -155z
M365 593l106 165l129 -29l-175 -155z" />
    <glyph glyph-name="umacron" unicode="&#x16b;" horiz-adv-x="595" 
d="M383 525h157v-515q-26 -13 -65 -13q-42 0 -67 21.5t-25 65.5v6q-41 -100 -156 -100q-80 0 -126 51.5t-46 152.5v321q12 6 30 9.5t35 3.5q44 0 67.5 -23.5t23.5 -67.5v-221q0 -55 21 -80.5t65 -25.5q39 0 62.5 27t23.5 73v315zM432 602h-268v87h268v-87z" />
    <glyph glyph-name="uogonek" unicode="&#x173;" horiz-adv-x="595" 
d="M600 -152q-52 -40 -122 -40q-55 0 -89 23.5t-34 65.5q0 33 23.5 61t64.5 43q-60 15 -60 83v6q-41 -100 -156 -100q-80 0 -126 51.5t-46 152.5v321q12 6 30 9.5t35 3.5q44 0 67.5 -23.5t23.5 -67.5v-221q0 -55 21 -80.5t65 -25.5q39 0 62.5 27t23.5 73v315h157v-515
l-12 -5q-52 -33 -52 -77q0 -24 14.5 -37t39.5 -13q24 0 51 11z" />
    <glyph glyph-name="uring" unicode="&#x16f;" horiz-adv-x="595" 
d="M383 525h157v-515q-26 -13 -65 -13q-42 0 -67 21.5t-25 65.5v6q-41 -100 -156 -100q-80 0 -126 51.5t-46 152.5v321q12 6 30 9.5t35 3.5q44 0 67.5 -23.5t23.5 -67.5v-221q0 -55 21 -80.5t65 -25.5q39 0 62.5 27t23.5 73v315zM201.5 601q-34.5 32 -34.5 86q0 53 35.5 85
t96.5 32q60 0 95 -31.5t35 -84.5q0 -54 -36 -86.5t-98 -32.5q-59 0 -93.5 32zM334.5 647.5q12.5 14.5 12.5 34.5t-12.5 35t-34.5 15q-24 0 -37 -14.5t-13 -34.5t13.5 -35t36.5 -15q22 0 34.5 14.5z" />
    <glyph glyph-name="v" unicode="v" horiz-adv-x="554" 
d="M539 510l-171 -510h-103q-79 0 -106 79l-144 431q45 18 74 18q45 0 70.5 -21.5t38.5 -69.5l35 -134q36 -135 45 -197q13 75 44 197l35 134q24 91 106 91q37 0 76 -18z" />
    <glyph glyph-name="w" unicode="w" horiz-adv-x="794" 
d="M777 510l-135 -510h-100q-50 0 -73.5 18t-30.5 61l-13 76q-25 154 -31 200q-9 -92 -29 -202l-28 -153h-104q-44 0 -68 18t-36 61l-112 431q45 18 79 18q39 0 64.5 -24t33.5 -67l23 -131l12 -69q15 -81 20 -123q4 36 29 154l54 242q29 18 64 18q47 0 64 -25t24 -64
l34 -173q23 -118 26 -158q15 90 33 194l24 135q8 44 34.5 67.5t69.5 23.5q49 0 72 -18z" />
    <glyph glyph-name="wacute" unicode="&#x1e83;" horiz-adv-x="794" 
d="M777 510l-135 -510h-100q-50 0 -73.5 18t-30.5 61l-13 76q-25 154 -31 200q-9 -92 -29 -202l-28 -153h-104q-44 0 -68 18t-36 61l-112 431q45 18 79 18q39 0 64.5 -24t33.5 -67l23 -131l12 -69q15 -81 20 -123q4 36 29 154l54 242q29 18 64 18q47 0 64 -25t24 -64
l34 -173q23 -118 26 -158q15 90 33 194l24 135q8 44 34.5 67.5t69.5 23.5q49 0 72 -18zM397 574l-63 19l118 173l150 -29z" />
    <glyph glyph-name="wcircumflex" unicode="&#x175;" horiz-adv-x="794" 
d="M777 510l-135 -510h-100q-50 0 -73.5 18t-30.5 61l-13 76q-25 154 -31 200q-9 -92 -29 -202l-28 -153h-104q-44 0 -68 18t-36 61l-112 431q45 18 79 18q39 0 64.5 -24t33.5 -67l23 -131l12 -69q15 -81 20 -123q4 36 29 154l54 242q29 18 64 18q47 0 64 -25t24 -64
l34 -173q23 -118 26 -158q15 90 33 194l24 135q8 44 34.5 67.5t69.5 23.5q49 0 72 -18zM456 754l120 -168l-59 -20l-119 87l-120 -87l-60 20l120 168h118z" />
    <glyph glyph-name="wdieresis" unicode="&#x1e85;" horiz-adv-x="794" 
d="M777 510l-135 -510h-100q-50 0 -73.5 18t-30.5 61l-13 76q-25 154 -31 200q-9 -92 -29 -202l-28 -153h-104q-44 0 -68 18t-36 61l-112 431q45 18 79 18q39 0 64.5 -24t33.5 -67l23 -131l12 -69q15 -81 20 -123q4 36 29 154l54 242q29 18 64 18q47 0 64 -25t24 -64
l34 -173q23 -118 26 -158q15 90 33 194l24 135q8 44 34.5 67.5t69.5 23.5q49 0 72 -18zM233 678l65 72l69 -60q11 -9 11 -24q0 -14 -11 -25l-65 -72l-69 60q-11 10 -11 24t11 25zM423 678l65 72l69 -60q11 -11 11 -24q0 -10 -11 -25l-65 -72l-69 60q-11 10 -11 24
q0 10 11 25z" />
    <glyph glyph-name="wgrave" unicode="&#x1e81;" horiz-adv-x="794" 
d="M777 510l-135 -510h-100q-50 0 -73.5 18t-30.5 61l-13 76q-25 154 -31 200q-9 -92 -29 -202l-28 -153h-104q-44 0 -68 18t-36 61l-112 431q45 18 79 18q39 0 64.5 -24t33.5 -67l23 -131l12 -69q15 -81 20 -123q4 36 29 154l54 242q29 18 64 18q47 0 64 -25t24 -64
l34 -173q23 -118 26 -158q15 90 33 194l24 135q8 44 34.5 67.5t69.5 23.5q49 0 72 -18zM459 593l-62 -19l-206 163l150 29z" />
    <glyph glyph-name="x" unicode="x" horiz-adv-x="551" 
d="M536 525l-175 -249l184 -227q-9 -24 -33.5 -39t-54.5 -15q-32 0 -52.5 12t-41.5 40l-88 120l-107 -167h-162l187 264l-177 217q15 24 37 37t55 13q24 0 46 -11t38 -33l86 -115l96 153h162z" />
    <glyph glyph-name="y" unicode="y" horiz-adv-x="566" 
d="M550 508l-168 -550q-25 -80 -71 -114t-117 -34q-52 0 -77.5 18.5t-25.5 51.5q0 35 25 62q9 -8 24 -13t32 -5q79 0 79 58q0 29 -18.5 36.5t-52.5 7.5l-161 478q41 24 83 24q36 0 59 -17t35 -57l54 -190q27 -97 41 -158q19 97 35 158l42 172q12 48 38.5 70t71.5 22
q38 0 72 -20z" />
    <glyph glyph-name="yacute" unicode="&#xfd;" horiz-adv-x="566" 
d="M550 508l-168 -550q-25 -80 -71 -114t-117 -34q-52 0 -77.5 18.5t-25.5 51.5q0 35 25 62q9 -8 24 -13t32 -5q79 0 79 58q0 29 -18.5 36.5t-52.5 7.5l-161 478q41 24 83 24q36 0 59 -17t35 -57l54 -190q27 -97 41 -158q19 97 35 158l42 172q12 48 38.5 70t71.5 22
q38 0 72 -20zM283 574l-63 19l118 173l150 -29z" />
    <glyph glyph-name="ycircumflex" unicode="&#x177;" horiz-adv-x="566" 
d="M550 508l-168 -550q-25 -80 -71 -114t-117 -34q-52 0 -77.5 18.5t-25.5 51.5q0 35 25 62q9 -8 24 -13t32 -5q79 0 79 58q0 29 -18.5 36.5t-52.5 7.5l-161 478q41 24 83 24q36 0 59 -17t35 -57l54 -190q27 -97 41 -158q19 97 35 158l42 172q12 48 38.5 70t71.5 22
q38 0 72 -20zM342 754l120 -168l-59 -20l-119 87l-120 -87l-60 20l120 168h118z" />
    <glyph glyph-name="ydieresis" unicode="&#xff;" horiz-adv-x="566" 
d="M550 508l-168 -550q-25 -80 -71 -114t-117 -34q-52 0 -77.5 18.5t-25.5 51.5q0 35 25 62q9 -8 24 -13t32 -5q79 0 79 58q0 29 -18.5 36.5t-52.5 7.5l-161 478q41 24 83 24q36 0 59 -17t35 -57l54 -190q27 -97 41 -158q19 97 35 158l42 172q12 48 38.5 70t71.5 22
q38 0 72 -20zM119 678l65 72l69 -60q11 -9 11 -24q0 -14 -11 -25l-65 -72l-69 60q-11 10 -11 24t11 25zM309 678l65 72l69 -60q11 -11 11 -24q0 -10 -11 -25l-65 -72l-69 60q-11 10 -11 24q0 10 11 25z" />
    <glyph glyph-name="ygrave" unicode="&#x1ef3;" horiz-adv-x="566" 
d="M550 508l-168 -550q-25 -80 -71 -114t-117 -34q-52 0 -77.5 18.5t-25.5 51.5q0 35 25 62q9 -8 24 -13t32 -5q79 0 79 58q0 29 -18.5 36.5t-52.5 7.5l-161 478q41 24 83 24q36 0 59 -17t35 -57l54 -190q27 -97 41 -158q19 97 35 158l42 172q12 48 38.5 70t71.5 22
q38 0 72 -20zM345 593l-62 -19l-206 163l150 29z" />
    <glyph glyph-name="z" unicode="z" horiz-adv-x="502" 
d="M397 115q44 0 62 -21t18 -64v-30h-447l-4 42l-1 15q0 29 14 56.5t49 67.5l201 229h-159q-44 0 -64 21.5t-20 63.5v30h353q38 0 56 -20t20 -55l2 -30l-269 -305h189z" />
    <glyph glyph-name="zacute" unicode="&#x17a;" horiz-adv-x="502" 
d="M397 115q44 0 62 -21t18 -64v-30h-447l-4 42l-1 15q0 29 14 56.5t49 67.5l201 229h-159q-44 0 -64 21.5t-20 63.5v30h353q38 0 56 -20t20 -55l2 -30l-269 -305h189zM251 574l-63 19l118 173l150 -29z" />
    <glyph glyph-name="zcaron" unicode="&#x17e;" horiz-adv-x="502" 
d="M397 115q44 0 62 -21t18 -64v-30h-447l-4 42l-1 15q0 29 14 56.5t49 67.5l201 229h-159q-44 0 -64 21.5t-20 63.5v30h353q38 0 56 -20t20 -55l2 -30l-269 -305h189zM192 584l-120 168l59 20l119 -87l120 87l60 -20l-120 -168h-118z" />
    <glyph glyph-name="zdotaccent" unicode="&#x17c;" horiz-adv-x="502" 
d="M397 115q44 0 62 -21t18 -64v-30h-447l-4 42l-1 15q0 29 14 56.5t49 67.5l201 229h-159q-44 0 -64 21.5t-20 63.5v30h353q38 0 56 -20t20 -55l2 -30l-269 -305h189zM177 679l70 78l74 -65q12 -11 12 -25q0 -13 -12 -27l-70 -78l-74 65q-12 10 -12 25q0 13 12 27z" />
    <glyph glyph-name="f.ss01" horiz-adv-x="428" 
d="M134 525q-18 12 -29.5 36.5t-11.5 51.5q0 67 53 104.5t132 37.5q131 0 131 -78q0 -33 -23 -60q-27 22 -71 22q-34 0 -53 -15.5t-19 -42.5q0 -19 9.5 -34.5t25.5 -21.5h125v-113h-130v-511q0 -44 -23.5 -67.5t-67.5 -23.5q-17 0 -35 3.5t-30 9.5v589q-58 1 -80 26.5
t-22 86.5h119z" />
    <glyph glyph-name="f.ss02" horiz-adv-x="442" 
d="M147 0.5q-18 3.5 -30 9.5v402q-58 1 -80 26.5t-22 86.5h102v51q0 80 53 129.5t145 49.5q60 0 92 -20t32 -60q0 -31 -23 -58q-33 22 -67 22q-36 0 -56 -19t-20 -52v-43h130v-113h-130v-324q0 -44 -23.5 -67.5t-67.5 -23.5q-17 0 -35 3.5z" />
    <glyph glyph-name="i.ss02" horiz-adv-x="264" 
d="M67 610q-27 27 -27 65t27 64.5t65 26.5t64.5 -26.5t26.5 -64.5t-26.5 -65t-64.5 -27t-65 27zM54 525h157v-515q-12 -6 -30 -9.5t-35 -3.5q-45 0 -68.5 23.5t-23.5 67.5v437z" />
    <glyph glyph-name="j.ss02" horiz-adv-x="266" 
d="M67 610q-27 27 -27 65t27 64.5t65 26.5t64.5 -26.5t26.5 -64.5t-26.5 -65t-64.5 -27t-65 27zM-46 -171q-27 21 -27 57q0 33 21 56q17 -12 43 -12q34 0 49 19t15 61v515h156v-516q0 -97 -47 -149t-135 -52q-48 0 -75 21z" />
    <glyph glyph-name="k.ss04" horiz-adv-x="556" 
d="M56 737q12 6 30 9.5t35 3.5q45 0 68.5 -23.5t23.5 -67.5l-1 -387l135 190q26 36 50 53t55 17q61 0 86 -46l-79 -106q-71 -93 -137 -112q24 -6 43 -23t48 -54q68 -86 109 -133t71 -64q-16 -38 -42.5 -58t-70.5 -20q-30 0 -54.5 16.5t-48.5 52.5q-54 78 -165 276v-261h-157
z" />
    <glyph glyph-name="fi.001" horiz-adv-x="688" 
d="M147 -186.5q-18 3.5 -30 9.5v589q-59 2 -80.5 28.5t-21.5 84.5h117q-21 13 -33 35t-12 50q0 46 34.5 82t99 55.5t151.5 19.5q94 0 146.5 -23t52.5 -65q0 -14 -5 -30.5t-17 -30.5q-26 16 -72.5 25.5t-98.5 9.5q-75 0 -110.5 -20t-35.5 -56q0 -18 9.5 -32t25.5 -20h135
v-113h-129v-511q0 -41 -25 -66t-66 -25q-17 0 -35 3.5zM499.5 20.5q-23.5 23.5 -23.5 67.5v437h157v-515q-12 -6 -30 -9.5t-35 -3.5q-45 0 -68.5 23.5z" />
    <glyph glyph-name="c_t.dlig" horiz-adv-x="920" 
d="M879 124.5q8 -11.5 13 -23.5t5 -26q0 -39 -36 -60.5t-98 -21.5q-165 0 -165 161v258q-36 1 -55.5 11t-27.5 34t-8 68h90v87q0 74 -32 114t-99 40q-50 0 -87 -29.5t-37 -93.5q0 -53 23 -84t55 -52q27 -15 42 -37t15 -48q0 -56 -66 -68q-17 31 -42.5 46t-61.5 15
q-58 0 -85.5 -36.5t-27.5 -112.5q0 -156 113 -156q36 0 61.5 15t42.5 46q66 -12 66 -68q0 -50 -52 -81.5t-130 -31.5q-79 0 -138 34t-90.5 96t-31.5 144q0 81 31.5 142.5t90.5 95t139 33.5q11 0 33 -2q-26 49 -26 110q0 86 58 137.5t155 51.5q111 0 174 -61.5t63 -165.5v-80
h133v-113h-132v-249q0 -47 48 -47q19 0 37 7.5t29 18.5q3 -6 11 -17.5z" />
    <glyph glyph-name="c_t_t.dlig" horiz-adv-x="1282" 
d="M1241.5 124.5q7.5 -11.5 12.5 -23t5 -24.5q0 -41 -36 -62.5t-107 -21.5q-75 0 -115.5 41.5t-40.5 119.5v258h-206v-249q0 -47 48 -47q19 0 37 7.5t29 18.5q3 -6 11 -17.5t13 -23.5t5 -26q0 -39 -36 -60.5t-98 -21.5q-165 0 -165 161v258q-36 1 -55.5 11t-27.5 34t-8 68
h90v87q0 74 -32 114t-99 40q-50 0 -87 -29.5t-37 -93.5q0 -53 24 -85t57 -53q26 -14 40 -35.5t14 -47.5q0 -56 -66 -68q-17 31 -42.5 46t-61.5 15q-58 0 -85.5 -36.5t-27.5 -112.5q0 -156 113 -156q36 0 61.5 15t42.5 46q66 -12 66 -68q0 -50 -52 -81.5t-130 -31.5
q-79 0 -138 34t-90.5 96t-31.5 144q0 81 31.5 142.5t90.5 95t139 33.5q11 0 33 -2q-26 49 -26 110q0 56 27 99t76.5 66.5t114.5 23.5q108 0 170 -62t62 -165v-80h206v134q12 6 30 9.5t35 3.5q44 0 67.5 -23.5t23.5 -67.5v-56h133v-113h-132v-249q0 -47 49 -47q18 0 36 7.5
t29 18.5q4 -6 11.5 -17.5z" />
    <glyph glyph-name="e_t.dlig" horiz-adv-x="920" 
d="M879.5 124.5q7.5 -11.5 12.5 -23t5 -24.5q0 -41 -36 -62.5t-107 -21.5q-75 0 -115.5 41.5t-40.5 119.5v258q-47 1 -64 25t-17 88h80v95q0 68 -35 103t-91 35q-55 0 -92 -34t-37 -88q0 -40 21 -74.5t57 -59.5q49 -29 76 -80t27 -119q0 -37 -8 -72h-322q0 -57 35.5 -89
t99.5 -32q42 0 75 15.5t53 45.5q24 -7 37.5 -24t13.5 -42q0 -52 -58.5 -83.5t-143.5 -31.5q-128 0 -199 74t-71 199q0 81 31 142.5t88.5 95.5t134.5 34q14 0 38 -2q-24 43 -24 103q0 90 59 142.5t159 53.5q69 0 121.5 -28.5t81.5 -80t29 -118.5v-80h133v-113h-132v-249
q0 -47 49 -47q18 0 36 7.5t29 18.5q4 -6 11.5 -17.5zM387 323q-2 45 -26.5 71t-65.5 26q-42 0 -70 -26.5t-30 -70.5h192z" />
    <glyph glyph-name="e_t_t.dlig" horiz-adv-x="1275" 
d="M1234.5 124.5q7.5 -11.5 12.5 -23t5 -24.5q0 -41 -36 -62.5t-107 -21.5q-75 0 -115.5 41.5t-40.5 119.5v258h-199v-249q0 -47 49 -47q18 0 36 7.5t29 18.5q4 -6 11.5 -17.5t12.5 -23t5 -24.5q0 -41 -36 -62.5t-107 -21.5q-75 0 -115.5 41.5t-40.5 119.5v258q-47 1 -64 25
t-17 88h80v85q0 74 -35 111t-91 37q-55 0 -92 -34t-37 -88q0 -40 22 -75t60 -61q47 -30 73 -80.5t26 -116.5q0 -37 -8 -72h-322q0 -57 35.5 -89t99.5 -32q42 0 75 15.5t53 45.5q24 -7 37.5 -24t13.5 -42q0 -52 -58.5 -83.5t-143.5 -31.5q-128 0 -199 74t-71 199
q0 81 31 142.5t88.5 95.5t134.5 34q21 0 41 -3q-27 48 -27 107q0 57 28 101t78 68t114 24q68 0 120.5 -28.5t81 -80t28.5 -118.5v-80h199v134q12 6 30 9.5t35 3.5q44 0 67.5 -23.5t23.5 -67.5v-56h133v-113h-132v-249q0 -47 49 -47q18 0 36 7.5t29 18.5q4 -6 11.5 -17.5z
M387 323q-2 45 -26.5 71t-65.5 26q-42 0 -70 -26.5t-30 -70.5h192z" />
    <glyph glyph-name="f_b.dlig" horiz-adv-x="1021" 
d="M886.5 500.5q46.5 -34.5 73 -96.5t26.5 -143t-26.5 -142.5t-73.5 -95t-108 -33.5q-51 0 -93 22.5t-62 60.5q-4 -34 -28.5 -55t-62.5 -21q-17 0 -35 3.5t-30 9.5v630q-14 4 -41.5 6.5t-53.5 2.5q-62 0 -97 -17t-35 -53q0 -21 12 -35.5t33 -18.5h117v-113h-129v-324
q0 -41 -25 -66t-66 -25q-17 0 -35 3.5t-30 9.5v402q-59 2 -80.5 28t-21.5 85h113q-17 13 -29 36t-12 51q0 77 73.5 116t201.5 39q71 0 142 -9.5t120 -26.5v-299q19 49 60.5 76t95.5 27q60 0 106.5 -34.5zM798 150.5q29 41.5 29 111.5t-29 111.5t-79 41.5q-42 0 -68.5 -27.5
t-26.5 -71.5v-118q0 -39 27 -64t67 -25q51 0 80 41.5z" />
    <glyph glyph-name="f_h.dlig" horiz-adv-x="1005" 
d="M147 0.5q-18 3.5 -30 9.5v402q-59 2 -80.5 28t-21.5 85h113q-17 13 -29 36t-12 51q0 77 73.5 116t201.5 39q71 0 142 -9.5t120 -26.5v-277q21 39 61 60t92 21q81 0 128 -50.5t47 -138.5v-346h-156v310q0 53 -20 79t-61 26q-40 0 -65.5 -25t-25.5 -65v-325h-157v640
q-14 4 -41.5 6.5t-53.5 2.5q-62 0 -97 -17t-35 -53q0 -21 12 -35.5t33 -18.5h117v-113h-129v-324q0 -41 -25 -66t-66 -25q-17 0 -35 3.5z" />
    <glyph glyph-name="f_k.dlig" horiz-adv-x="967" 
d="M811.5 5q-20.5 11 -40.5 38l-148 203v-246h-157l1 640q-14 4 -41.5 6.5t-53.5 2.5q-62 0 -97 -17t-35 -53q0 -21 12 -35.5t33 -18.5h117v-113h-129v-324q0 -41 -25 -66t-66 -25q-17 0 -35 3.5t-30 9.5v402q-59 2 -80.5 28t-21.5 85h113q-17 13 -29 36t-12 51
q0 77 73.5 116t201.5 39q71 0 142 -9.5t120 -26.5l-1 -474l145 219q36 56 95 56q55 0 82 -39l-98 -133q-31 -42 -54.5 -63.5t-59.5 -28.5q29 -8 51 -23t53 -53l116 -143q-11 -25 -36 -40t-57 -15q-28 0 -48.5 11z" />
    <glyph glyph-name="s_t.dlig" horiz-adv-x="896" 
d="M855 124.5q8 -11.5 13 -23.5t5 -26q0 -39 -36 -60.5t-98 -21.5q-165 0 -165 161v258q-36 1 -55.5 11t-27.5 34t-8 68h90v87q0 74 -32 114t-99 40q-50 0 -87 -29.5t-37 -93.5q0 -55 24 -85t59 -53q44 -27 44 -70q0 -21 -14.5 -39t-40.5 -30q-19 31 -53 46.5t-78 15.5
q-31 0 -48 -12t-17 -36q0 -23 22 -33t70 -18q55 -10 91 -22.5t62 -45.5t26 -93q0 -84 -63.5 -131t-168.5 -47q-92 0 -142.5 31.5t-50.5 81.5q0 51 60 79q9 -38 46 -59.5t86 -21.5q78 0 78 54q0 27 -18.5 36.5t-43.5 13t-34 5.5q-71 11 -121.5 43.5t-50.5 111.5
q0 78 60.5 124t165.5 46q13 0 37 -2q-26 49 -26 110q0 86 58 137.5t155 51.5q111 0 174 -61.5t63 -165.5v-80h133v-113h-132v-249q0 -47 48 -47q19 0 37 7.5t29 18.5q3 -6 11 -17.5z" />
    <glyph glyph-name="zero" unicode="0" horiz-adv-x="658" 
d="M74.5 558q34.5 83 99.5 127.5t155 44.5q89 0 154.5 -44.5t100 -128t34.5 -197.5q0 -115 -34.5 -198t-99.5 -127.5t-155 -44.5q-89 0 -154.5 44.5t-100 128t-34.5 197.5q0 115 34.5 198zM233 180q33 -62 95 -62q66 0 98 65.5t32 176.5q0 116 -33.5 179t-95.5 63
q-63 0 -96 -62t-33 -180t33 -180z" />
    <glyph glyph-name="one" unicode="1" horiz-adv-x="419" 
d="M244 720q50 0 72.5 -25.5t22.5 -81.5v-607q-26 -13 -63 -13q-46 0 -70.5 23.5t-24.5 67.5v267q0 118 10 184q-17 -17 -43.5 -26.5t-56.5 -9.5q-37 0 -59 19t-22 50q0 24 10 44q134 -3 189 108h35z" />
    <glyph glyph-name="two" unicode="2" horiz-adv-x="533" 
d="M350 126h42q53 0 80.5 -25t27.5 -74q0 -16 -3 -27h-466l-4 44q-1 6 -1 17q0 22 10 45.5t37 56.5q21 25 74 76q43 41 72 71q62 65 90.5 113t28.5 88q0 41 -26 65.5t-70 24.5q-45 0 -81 -24.5t-51 -65.5q-33 3 -52.5 23.5t-19.5 52.5q0 38 30.5 71t82 52.5t111.5 19.5
q69 0 122.5 -26.5t83 -75t29.5 -111.5q0 -68 -39.5 -136.5t-132.5 -159.5q-47 -46 -113 -102q36 7 138 7z" />
    <glyph glyph-name="three" unicode="3" horiz-adv-x="549" 
d="M146 7.5q-47 17.5 -74 49t-27 70.5q0 33 19 54.5t51 24.5q28 -87 118 -87q52 0 81.5 29.5t29.5 79.5q0 53 -27.5 84t-76.5 31q-24 0 -45 -7t-31 -19l-32 85l69 76q70 78 120 122q-55 -7 -160 -7h-39h-72q-3 5 -5.5 18.5t-2.5 23.5q0 85 113 85h325l9 -35q3 -13 3 -28
q0 -67 -69 -134l-91 -90q78 -7 125 -63t47 -145q0 -70 -32 -123.5t-89.5 -82.5t-131.5 -29q-58 0 -105 17.5z" />
    <glyph glyph-name="four" unicode="4" horiz-adv-x="612" 
d="M366 16.5q-24 23.5 -24 67.5v100h-192q-59 0 -87 23t-28 71v32q71 113 138 208.5t150 201.5h81q50 0 72.5 -25.5t22.5 -81.5v-305q50 -3 74 -27.5t24 -71.5q0 -14 -3 -25h-95v-178q-26 -13 -63 -13q-46 0 -70 23.5zM342 309q1 141 11 273q-39 -73 -79.5 -132.5
t-105.5 -140.5h174z" />
    <glyph glyph-name="five" unicode="5" horiz-adv-x="533" 
d="M140.5 9q-48.5 19 -77 51.5t-28.5 71.5q0 32 19 53t51 24q14 -41 45.5 -65.5t71.5 -24.5q52 0 82.5 34.5t30.5 96.5q0 56 -24 87.5t-68 31.5q-28 0 -49.5 -12.5t-32.5 -35.5h-35q-40 0 -62 20t-22 56v323h425q4 -5 4 -24q0 -51 -25.5 -78t-74.5 -27h-179v-135
q15 16 40 25.5t54 9.5q61 0 108.5 -31t74 -86.5t26.5 -127.5q0 -77 -30.5 -135t-87 -89.5t-130.5 -31.5q-58 0 -106.5 19z" />
    <glyph glyph-name="six" unicode="6" horiz-adv-x="584" 
d="M447.5 454.5q46.5 -29.5 73 -84t26.5 -124.5q0 -76 -30.5 -134t-86 -90t-127.5 -32q-126 0 -192 86.5t-66 247.5q0 211 80 308.5t217 97.5q53 0 98 -15t71.5 -43t26.5 -64q0 -29 -18 -47.5t-53 -25.5q-19 34 -47 50t-68 16q-77 0 -114.5 -52t-37.5 -147q19 40 55.5 61
t85.5 21q60 0 106.5 -29.5zM366.5 149.5q24.5 30.5 24.5 86.5q0 57 -24.5 88.5t-69.5 31.5q-44 0 -68 -30.5t-24 -87.5t24 -88t69 -31q44 0 68.5 30.5z" />
    <glyph glyph-name="seven" unicode="7" horiz-adv-x="530" 
d="M82 0l257 591h-222q-43 0 -67.5 26t-24.5 71q0 20 4 32h382q43 0 66 -25.5t23 -71.5v-23l-257 -600h-161z" />
    <glyph glyph-name="eight" unicode="8" horiz-adv-x="585" 
d="M156.5 17q-59.5 27 -93 76.5t-33.5 114.5q0 67 35 115.5t98 64.5q-51 22 -77.5 61.5t-26.5 90.5q0 55 29.5 98t82.5 67.5t122 24.5t122.5 -24t82.5 -67t29 -98q0 -53 -27 -92.5t-77 -60.5q63 -16 98 -64.5t35 -115.5q0 -65 -33.5 -114.5t-93 -76.5t-136.5 -27t-136.5 27z
M352 465q22 21 22 56t-22 56t-59 21t-59 -21t-22 -56t22 -56t59 -21t59 21zM369 148.5q28 26.5 28 70.5q0 43 -28.5 70t-75.5 27t-75.5 -27t-28.5 -70q0 -44 28 -70.5t76 -26.5t76 26.5z" />
    <glyph glyph-name="nine" unicode="9" horiz-adv-x="579" 
d="M539 357q0 -367 -291 -367q-46 0 -88 15.5t-68 43t-26 63.5q0 29 18 47.5t53 25.5q19 -34 47 -50t68 -16q75 0 106 54.5t27 147.5q-19 -41 -55.5 -63t-86.5 -22q-60 0 -106.5 29.5t-73 84t-26.5 124.5q0 76 30.5 134t86 90t127.5 32q258 0 258 -373zM355 394.5
q24 30.5 24 87.5q0 56 -25 87.5t-68 31.5q-44 0 -68.5 -30.5t-24.5 -86.5q0 -57 24.5 -88.5t69.5 -31.5q44 0 68 30.5z" />
    <glyph glyph-name="zero.osf" horiz-adv-x="618" 
d="M163.5 25.5q-60.5 35.5 -92 99.5t-31.5 149q0 88 33.5 155t94.5 104t141 37q85 0 145.5 -35.5t92 -99.5t31.5 -149q0 -88 -33.5 -155t-94.5 -104t-141 -37q-85 0 -145.5 35.5zM394.5 160.5q27.5 42.5 27.5 119.5q0 162 -113 162q-58 0 -85.5 -43t-27.5 -119
q0 -162 112 -162q59 0 86.5 42.5z" />
    <glyph glyph-name="one.osf" horiz-adv-x="419" 
d="M244 570q50 0 72.5 -25.5t22.5 -81.5v-457q-26 -13 -63 -13q-46 0 -70.5 23.5t-24.5 67.5v117q0 118 10 184q-17 -17 -43.5 -26.5t-56.5 -9.5q-37 0 -59 19t-22 50q0 24 10 44q134 -3 189 108h35z" />
    <glyph glyph-name="two.osf" horiz-adv-x="535" 
d="M27 32l-1 16q0 35 19 60.5t65 54.5l30 19q71 44 106 68.5t56 52.5t21 61q0 38 -22 60.5t-65 22.5q-46 0 -82.5 -24t-51.5 -64q-22 7 -39 28t-17 46q0 38 26.5 69.5t73 49.5t103.5 18q66 0 116 -23.5t78 -66t28 -99.5q0 -84 -59.5 -144t-176.5 -122q68 9 149 9h13
q105 0 105 -88q0 -20 -4 -36h-468z" />
    <glyph glyph-name="three.osf" horiz-adv-x="549" 
d="M156 -152.5q-47 17.5 -74 49t-27 70.5q0 33 19 54.5t51 24.5q28 -87 118 -87q52 0 81.5 29.5t29.5 79.5q0 53 -27.5 84t-76.5 31q-24 0 -45 -7t-31 -19l-32 85l69 76q72 80 120 122q-55 -7 -160 -7h-39h-72q-3 5 -5.5 18.5t-2.5 23.5q0 85 113 85h325l9 -35q3 -13 3 -28
q0 -32 -17.5 -66.5t-51.5 -67.5l-91 -90q78 -7 125 -63t47 -145q0 -70 -32 -123.5t-89.5 -82.5t-131.5 -29q-58 0 -105 17.5z" />
    <glyph glyph-name="four.osf" horiz-adv-x="632" 
d="M356 -143.5q-24 23.5 -24 67.5v100h-192q-59 0 -87 23t-28 71v32q71 113 138 208.5t150 201.5h81q50 0 72.5 -25.5t22.5 -81.5v-305q50 -3 74 -27.5t24 -71.5q0 -14 -3 -25h-95v-178q-26 -13 -63 -13q-46 0 -70 23.5zM332 149q1 141 11 273q-39 -73 -79.5 -132.5
t-105.5 -140.5h174z" />
    <glyph glyph-name="five.osf" horiz-adv-x="533" 
d="M140.5 -151q-48.5 19 -77 51.5t-28.5 71.5q0 32 19 53t51 24q14 -41 45.5 -65.5t71.5 -24.5q52 0 82.5 34.5t30.5 96.5q0 56 -24 87.5t-68 31.5q-28 0 -49.5 -12.5t-32.5 -35.5h-35q-40 0 -62 20t-22 56v323h425q4 -5 4 -24q0 -51 -25.5 -78t-74.5 -27h-179v-135
q15 16 40 25.5t54 9.5q61 0 108.5 -31t74 -86.5t26.5 -127.5q0 -77 -30.5 -135t-87 -89.5t-130.5 -31.5q-58 0 -106.5 19z" />
    <glyph glyph-name="six.osf" horiz-adv-x="584" 
d="M447.5 454.5q46.5 -29.5 73 -84t26.5 -124.5q0 -76 -30.5 -134t-86 -90t-127.5 -32q-126 0 -192 86.5t-66 247.5q0 211 80 308.5t217 97.5q53 0 98 -15t71.5 -43t26.5 -64q0 -29 -18 -47.5t-53 -25.5q-19 34 -47 50t-68 16q-77 0 -114.5 -52t-37.5 -147q19 40 55.5 61
t85.5 21q60 0 106.5 -29.5zM366.5 149.5q24.5 30.5 24.5 86.5q0 57 -24.5 88.5t-69.5 31.5q-44 0 -68 -30.5t-24 -87.5t24 -88t69 -31q44 0 68.5 30.5z" />
    <glyph glyph-name="seven.osf" horiz-adv-x="530" 
d="M82 -160l257 591h-222q-43 0 -67.5 26t-24.5 71q0 20 4 32h382q43 0 66 -25.5t23 -71.5v-23l-257 -600h-161z" />
    <glyph glyph-name="eight.osf" horiz-adv-x="585" 
d="M156.5 17q-59.5 27 -93 76.5t-33.5 114.5q0 67 35 115.5t98 64.5q-51 22 -77.5 61.5t-26.5 90.5q0 55 29.5 98t82.5 67.5t122 24.5t122.5 -24t82.5 -67t29 -98q0 -53 -27 -92.5t-77 -60.5q63 -16 98 -64.5t35 -115.5q0 -65 -33.5 -114.5t-93 -76.5t-136.5 -27t-136.5 27z
M352 465q22 21 22 56t-22 56t-59 21t-59 -21t-22 -56t22 -56t59 -21t59 21zM369 148.5q28 26.5 28 70.5q0 43 -28.5 70t-75.5 27t-75.5 -27t-28.5 -70q0 -44 28 -70.5t76 -26.5t76 26.5z" />
    <glyph glyph-name="nine.osf" horiz-adv-x="579" 
d="M539 197q0 -367 -291 -367q-46 0 -88 15.5t-68 43t-26 63.5q0 29 18 47.5t53 25.5q19 -34 47 -50t68 -16q75 0 106 54.5t27 147.5q-19 -41 -55.5 -63t-86.5 -22q-60 0 -106.5 29.5t-73 84t-26.5 124.5q0 76 30.5 134t86 90t127.5 32q258 0 258 -373zM355 234.5
q24 30.5 24 87.5q0 56 -25 87.5t-68 31.5q-44 0 -68.5 -30.5t-24.5 -86.5q0 -57 24.5 -88.5t69.5 -31.5q44 0 68 30.5z" />
    <glyph glyph-name="one.ss01" horiz-adv-x="419" 
d="M244 720q50 0 72.5 -25.5t22.5 -81.5v-607q-26 -13 -63 -13q-46 0 -70.5 23.5t-24.5 67.5v267q0 118 10 184q-17 -17 -43.5 -26.5t-56.5 -9.5q-37 0 -59 19t-22 50q0 24 10 44q134 -3 189 108h35z" />
    <glyph glyph-name="two.ss01" horiz-adv-x="532" 
d="M49 124q20 33 45 60t63 64l61 62q62 65 90.5 113t28.5 88q0 42 -25 66t-71 24q-50 0 -83 -24t-49 -66q-33 3 -52.5 23.5t-19.5 52.5q0 39 28.5 71.5t80 52t115.5 19.5q71 0 124 -26.5t82 -74.5t29 -112q0 -68 -39.5 -136.5t-132.5 -159.5q-29 -29 -65 -61h-27
q-42 0 -91.5 -8.5t-87.5 -34.5zM26 44q35 45 91 63.5t144 18.5h130q53 0 80.5 -25t27.5 -74q0 -16 -3 -27h-466z" />
    <glyph glyph-name="three.ss01" horiz-adv-x="549" 
d="M155 720h325l11 -45q-12 -36 -56.5 -57.5t-113.5 -24.5h-271q-3 5 -5.5 18.5t-2.5 23.5q0 85 113 85zM478 597q-14 -36 -67 -87l-79 -77q78 -7 125 -63t47 -145q0 -70 -32 -123.5t-89.5 -82.5t-131.5 -29q-58 0 -105 17.5t-74 49t-27 70.5q0 33 19 54.5t51 24.5
q28 -87 118 -87q52 0 81.5 29.5t29.5 79.5q0 53 -27.5 84t-76.5 31q-24 0 -45 -7t-31 -19l-32 85l69 76q48 54 77 80h30q123 0 166 44z" />
    <glyph glyph-name="four.ss01" horiz-adv-x="612" 
d="M499 308q50 -3 74 -27.5t24 -71.5q0 -14 -3 -25h-95v-178q-26 -13 -63 -13q-46 0 -70 23.5t-24 67.5v100h-307v41q38 43 84.5 63.5t105.5 20.5h117q1 141 11 273q-35 -65 -70.5 -119t-87.5 -120q-48 -4 -91 -22.5t-69 -47.5v37q71 113 138 208.5t150 201.5h81
q50 0 72.5 -25.5t22.5 -81.5v-305z" />
    <glyph glyph-name="five.ss01" horiz-adv-x="533" 
d="M192 591v-90q-78 -57 -99 -176q-25 8 -38 26t-13 46v323h425q4 -5 4 -24q0 -51 -25.5 -78t-74.5 -27h-179zM395 460q47 -31 73.5 -87t26.5 -127q0 -77 -30.5 -135t-87 -89.5t-130.5 -31.5q-58 0 -106.5 19t-77 51.5t-28.5 71.5q0 32 19 53t51 24q14 -41 45.5 -65.5
t71.5 -24.5q52 0 82.5 35t30.5 96q0 56 -24.5 87.5t-67.5 31.5q-28 0 -49.5 -12.5t-32.5 -35.5h-35q22 93 66 135q37 35 97 35q59 0 106 -31z" />
    <glyph glyph-name="six.ss01" horiz-adv-x="593" 
d="M333 730q87 0 141 -33.5t54 -87.5q0 -60 -71 -74q-31 67 -117 67q-81 0 -112 -52.5t-29 -160.5l1 -78q1 -116 31 -154t76 -38q44 0 69 30.5t25 85.5q0 58 -24.5 89.5t-69.5 31.5q-21 0 -41 -6.5t-31 -17.5q-5 15 -5 40q0 45 32.5 71.5t92.5 26.5q92 0 146.5 -62.5
t54.5 -165.5q0 -76 -30.5 -133t-87.5 -88t-134 -31q-136 0 -197.5 92.5t-61.5 275.5q0 372 288 372z" />
    <glyph glyph-name="seven.ss01" horiz-adv-x="541" 
d="M29 720h470l8 -47q-64 -82 -206 -82h-184q-43 0 -67.5 26t-24.5 71q0 20 4 32zM82 0l242 559h4q57 0 104.5 18t70.5 53l8 -5l-268 -625h-161z" />
    <glyph glyph-name="eight.ss01" horiz-adv-x="585" 
d="M88.5 638q29.5 43 82.5 67.5t122 24.5t122.5 -24t82.5 -67t29 -98q0 -53 -27 -90t-77 -59q63 -18 98 -67.5t35 -116.5q0 -65 -33.5 -114.5t-93 -76.5t-136.5 -27q-76 0 -136 26.5t-93.5 73t-33.5 104.5q0 65 32 102.5t90 37.5q21 0 47 -7.5t50 -21.5q-30 -17 -45 -40.5
t-15 -45.5q0 -44 28 -70.5t76 -26.5t76 26.5t28 70.5q0 34 -15.5 54.5t-41.5 33.5t-84 36q-61 23 -101 45t-68 59t-28 93q0 55 29.5 98zM352 465q22 21 22 56t-22 56t-59 21t-59 -21t-22 -56t22 -56t59 -21t59 21z" />
    <glyph glyph-name="nine.ss01" horiz-adv-x="588" 
d="M260 -10q-87 0 -141 33.5t-54 87.5q0 60 71 74q31 -67 117 -67q55 0 85.5 24.5t42.5 72.5t12 126v68q0 81 -15.5 123.5t-38.5 55.5t-53 13q-44 0 -69 -30.5t-25 -85.5q0 -58 24.5 -89.5t69.5 -31.5q21 0 41 6.5t31 17.5q5 -15 5 -40q0 -45 -32.5 -71.5t-92.5 -26.5
q-92 0 -146.5 62.5t-54.5 165.5q0 76 30.5 133t87.5 88t134 31q136 0 197.5 -92.5t61.5 -275.5q0 -372 -288 -372z" />
    <glyph glyph-name="four.ss02" horiz-adv-x="632" 
d="M301 664q5 -13 8 -38q3 -18 3 -35q0 -63 -38 -128q-17 -29 -31 -47.5t-45 -56.5l-40 -50h174q0 36 4 77t5 52q8 90 8 129q0 96 -35 153h80q50 0 72.5 -25.5t22.5 -81.5v-305q50 -3 74 -27.5t24 -71.5q0 -14 -3 -25h-95v-178q-26 -13 -63 -13q-46 0 -70 23.5t-24 67.5v100
h-192q-59 0 -87 23t-28 71v32q123 193 264 379q7 -12 12 -25z" />
    <glyph glyph-name="five.ss02" horiz-adv-x="533" 
d="M124 591q-39 0 -60.5 19t-21.5 53v57h425q4 -5 4 -24q0 -51 -25.5 -78t-74.5 -27h-247zM394.5 460q47.5 -31 74 -86.5t26.5 -127.5q0 -77 -30.5 -135t-87 -89.5t-130.5 -31.5q-58 0 -106.5 19t-77 51.5t-28.5 71.5q0 32 19 53t51 24q14 -41 45.5 -65.5t71.5 -24.5
q52 0 82.5 35t30.5 96q0 56 -24.5 87.5t-67.5 31.5q-28 0 -49.5 -12.5t-32.5 -35.5h-35q-40 0 -62 20t-22 56v188q26 -29 84 -29h66v-100q15 16 40 25.5t54 9.5q61 0 108.5 -31z" />
    <glyph glyph-name="zero.tf" 
d="M557 475q9 -52 9 -115q0 -184 -71 -277t-195 -93q-106 0 -170 64.5t-86 181.5l-3 5l2 2q-9 54 -9 117q0 184 71 277t195 93q106 0 170 -65t86 -182l4 -6zM189 346l211 149q-12 59 -36.5 83t-63.5 24q-63 0 -87 -61.5t-24 -180.5v-14zM386.5 179.5q24.5 61.5 24.5 180.5
v13l-211 -147q11 -60 36 -84t63 -24q63 0 87.5 61.5z" />
    <glyph glyph-name="one.tf" 
d="M558 129q4 -5 4 -24q0 -54 -22.5 -79.5t-77.5 -25.5h-420q-4 5 -4 24q0 51 25.5 78t74.5 27h93v222q0 118 10 184q-17 -17 -43.5 -26.5t-56.5 -9.5q-37 0 -59 19t-22 50q0 24 10 44q134 -3 189 108h35q50 0 72.5 -25.5t22.5 -81.5v-484h169z" />
    <glyph glyph-name="two.tf" 
d="M377 126h62q53 0 80.5 -25t27.5 -74q0 -16 -3 -27h-486l-4 44l-1 16q0 22 10 46.5t37 56.5q21 25 74 76q43 41 72 71q62 65 90.5 113t28.5 88q0 41 -26 65.5t-70 24.5q-45 0 -81 -24.5t-51 -65.5q-33 3 -52.5 23.5t-19.5 52.5q0 38 30.5 71t82 52.5t111.5 19.5
q69 0 122.5 -26.5t83 -75t29.5 -111.5q0 -68 -39.5 -136.5t-132.5 -159.5q-47 -46 -113 -102q36 7 138 7z" />
    <glyph glyph-name="three.tf" 
d="M173 7.5q-47 17.5 -74 49t-27 70.5q0 33 19 54.5t51 24.5q28 -87 118 -87q52 0 81.5 29.5t29.5 79.5q0 53 -27.5 84t-76.5 31q-24 0 -45 -7t-31 -19l-32 85l69 76q72 80 120 122q-55 -7 -160 -7h-39h-72q-3 5 -5.5 18.5t-2.5 23.5q0 85 113 85h325l9 -35q3 -13 3 -28
q0 -32 -17.5 -66.5t-51.5 -67.5l-91 -90q78 -7 125 -63t47 -145q0 -70 -32 -123.5t-89.5 -82.5t-131.5 -29q-58 0 -105 17.5z" />
    <glyph glyph-name="four.tf" 
d="M350 16.5q-24 23.5 -24 67.5v100h-192q-59 0 -87 23t-28 71v32q71 113 138 208.5t150 201.5h81q50 0 72.5 -25.5t22.5 -81.5v-305q50 -3 74 -27.5t24 -71.5q0 -14 -3 -25h-95v-178q-26 -13 -63 -13q-46 0 -70 23.5zM326 309q1 141 11 273q-39 -73 -79.5 -132.5
t-105.5 -140.5h174z" />
    <glyph glyph-name="five.tf" 
d="M175.5 9q-48.5 19 -77 51.5t-28.5 71.5q0 32 19 53t51 24q14 -41 45.5 -65.5t71.5 -24.5q52 0 82.5 34.5t30.5 96.5q0 56 -24 87.5t-68 31.5q-28 0 -49.5 -12.5t-32.5 -35.5h-35q-40 0 -62 20t-22 56v323h435q4 -5 4 -24q0 -51 -25.5 -78t-74.5 -27h-189v-135
q15 16 40 25.5t54 9.5q61 0 108.5 -31t74 -86.5t26.5 -127.5q0 -77 -30.5 -135t-87 -89.5t-130.5 -31.5q-58 0 -106.5 19z" />
    <glyph glyph-name="six.tf" 
d="M451.5 454.5q46.5 -29.5 73 -84t26.5 -124.5q0 -76 -30.5 -134t-86 -90t-127.5 -32q-126 0 -192 86.5t-66 247.5q0 211 80 308.5t217 97.5q53 0 98 -15t71.5 -43t26.5 -64q0 -29 -18 -47.5t-53 -25.5q-19 34 -47 50t-68 16q-77 0 -114.5 -52t-37.5 -147q19 40 55.5 61
t85.5 21q60 0 106.5 -29.5zM370.5 149.5q24.5 30.5 24.5 86.5q0 57 -24.5 88.5t-69.5 31.5q-44 0 -68 -30.5t-24 -87.5t24 -88t69 -31q44 0 68.5 30.5z" />
    <glyph glyph-name="seven.tf" 
d="M130 0l257 591h-252q-43 0 -67.5 26t-24.5 71q0 20 4 32h412q43 0 66 -25.5t23 -71.5v-23l-257 -600h-161z" />
    <glyph glyph-name="eight.tf" 
d="M163.5 17q-59.5 27 -93 76.5t-33.5 114.5q0 67 35 115.5t98 64.5q-51 22 -77.5 61.5t-26.5 90.5q0 55 29.5 98t82.5 67.5t122 24.5t122.5 -24t82.5 -67t29 -98q0 -53 -27 -92.5t-77 -60.5q63 -16 98 -64.5t35 -115.5q0 -65 -33.5 -114.5t-93 -76.5t-136.5 -27t-136.5 27z
M359 465q22 21 22 56t-22 56t-59 21t-59 -21t-22 -56t22 -56t59 -21t59 21zM376 148.5q28 26.5 28 70.5q0 43 -28.5 70t-75.5 27t-75.5 -27t-28.5 -70q0 -44 28 -70.5t76 -26.5t76 26.5z" />
    <glyph glyph-name="nine.tf" 
d="M551 357q0 -367 -291 -367q-46 0 -88 15.5t-68 43t-26 63.5q0 29 18 47.5t53 25.5q19 -34 47 -50t68 -16q75 0 106 54.5t27 147.5q-19 -41 -55.5 -63t-86.5 -22q-60 0 -106.5 29.5t-73 84t-26.5 124.5q0 76 30.5 134t86 90t127.5 32q258 0 258 -373zM367 394.5
q24 30.5 24 87.5q0 56 -25 87.5t-68 31.5q-44 0 -68.5 -30.5t-24.5 -86.5q0 -57 24.5 -88.5t69.5 -31.5q44 0 68 30.5z" />
    <glyph glyph-name="uni2080" unicode="&#x2080;" horiz-adv-x="496" 
d="M95 402q55 69 153 69q97 0 152.5 -69t55.5 -190t-55.5 -190t-152.5 -69t-152.5 69t-55.5 190t55 190zM184.5 93q21.5 -41 61.5 -41q45 0 66 44t21 116q0 77 -22 118.5t-64 41.5q-41 0 -62.5 -41t-21.5 -119t21.5 -119z" />
    <glyph glyph-name="uni2081" unicode="&#x2081;" horiz-adv-x="331" 
d="M181 464q37 0 53.5 -18t16.5 -57v-423q-20 -11 -48 -11q-35 0 -54 16.5t-19 47.5v187q0 75 7 121q-11 -12 -28.5 -18.5t-35.5 -6.5q-29 0 -46 14.5t-17 39.5q0 18 7 32q99 -1 139 76h25z" />
    <glyph glyph-name="uni2082" unicode="&#x2082;" horiz-adv-x="402" 
d="M205 56q19 1 54 1h30q80 0 80 -77q0 -12 -2 -20h-337l-3 33q-2 21 4 39.5t28 45.5q15 18 52 53q30 28 51 49q43 45 63 77.5t20 57.5q0 26 -17 41t-47 15t-55.5 -16t-35.5 -45q-25 1 -40 16.5t-15 39.5q0 28 22 52t60 38.5t82 14.5q75 0 121.5 -41t46.5 -109
q0 -47 -28 -94.5t-94 -111.5q-47 -46 -58.5 -52.5t-15.5 -10.5q15 3 34 4z" />
    <glyph glyph-name="uni2083" unicode="&#x2083;" horiz-adv-x="417" 
d="M86 -19q-43 28 -43 72q0 24 13 39.5t35 17.5q19 -57 83 -57q36 0 55.5 19.5t19.5 49.5q0 34 -17.5 54.5t-50.5 20.5q-17 0 -32.5 -5.5t-20.5 -14.5l-26 61l44 49q46 51 84 85q-36 -5 -92 -5h-40h-49q-3 4 -5 15.5t-2 17.5q0 40 26 52t64 12h222l8 -27q3 -9 3 -20
q0 -51 -60 -108l-47 -43q53 -7 83.5 -45.5t30.5 -99.5q0 -75 -50 -121.5t-131 -46.5q-62 0 -105 28z" />
    <glyph glyph-name="uni2084" unicode="&#x2084;" horiz-adv-x="462" 
d="M445 84h-70v-118q-9 -5 -22.5 -8t-26.5 -3q-35 0 -53.5 16.5t-18.5 47.5v65h-131q-45 0 -66.5 18t-21.5 56v23q55 84 102 147.5t105 135.5h62q37 0 54 -18t17 -57v-210q36 -2 54 -21t18 -57q0 -12 -2 -17zM211.5 273.5q-23.5 -32.5 -73.5 -93.5h116q0 78 7 172
q-26 -46 -49.5 -78.5z" />
    <glyph glyph-name="uni2085" unicode="&#x2085;" horiz-adv-x="405" 
d="M113 -33q-36 14 -57 38t-21 53q0 23 14 38t38 17q9 -28 30.5 -44t48.5 -16q36 0 57 21t21 61q0 35 -16 55.5t-46 20.5q-36 0 -54 -26h-25q-31 0 -47 13.5t-16 39.5v226h307q3 -3 3 -18q0 -39 -19 -60.5t-55 -21.5h-120v-79q10 9 26.5 14t33.5 5q67 0 109 -48t42 -124
q0 -82 -48 -130.5t-128 -48.5q-42 0 -78 14z" />
    <glyph glyph-name="uni2086" unicode="&#x2086;" horiz-adv-x="444" 
d="M335.5 277.5q33.5 -21.5 52.5 -59.5t19 -85q0 -51 -22 -92t-62 -64.5t-91 -23.5q-92 0 -139.5 60t-47.5 173q0 149 58 217t159 68q56 0 97 -22t41 -59q0 -22 -14.5 -35.5t-40.5 -18.5q-15 18 -31 26.5t-43 8.5q-105 0 -105 -124q13 25 37.5 38.5t57.5 13.5
q41 0 74.5 -21.5zM272 72q16 19 16 53q0 36 -16 55.5t-45 19.5q-28 0 -43.5 -19t-15.5 -54t15.5 -54.5t43.5 -19.5q29 0 45 19z" />
    <glyph glyph-name="uni2087" unicode="&#x2087;" horiz-adv-x="400" 
d="M307 464q30 0 46.5 -18t16.5 -50v-16l-182 -420h-124l178 404h-145q-34 0 -53 21t-19 57q0 16 3 22h279z" />
    <glyph glyph-name="uni2088" unicode="&#x2088;" horiz-adv-x="434" 
d="M82 -4.5q-52 42.5 -52 111.5q0 49 25 82.5t68 42.5q-37 15 -55 42.5t-18 63.5q0 59 46 96.5t121 37.5q76 0 122 -37.5t46 -95.5q0 -38 -19 -65t-54 -42q43 -9 68 -43t25 -82q0 -69 -52.5 -111.5t-134.5 -42.5q-84 0 -136 42.5zM253.5 288q13.5 13 13.5 34t-13.5 34.5
t-35.5 13.5t-36 -13.5t-14 -34.5t14 -34t36 -13t35.5 13zM265.5 71q17.5 17 17.5 45q0 27 -17.5 44t-47.5 17t-48 -17t-18 -44q0 -28 18 -45t48 -17t47.5 17z" />
    <glyph glyph-name="uni2089" unicode="&#x2089;" horiz-adv-x="439" 
d="M352 405.5q47 -65.5 47 -200.5q0 -252 -212 -252q-47 0 -86.5 22.5t-39.5 58.5q0 22 15 35.5t40 18.5q16 -19 32 -27t42 -8q93 0 89 125q-14 -26 -38.5 -39.5t-57.5 -13.5q-42 0 -75 21.5t-52 59.5t-19 85q0 51 22 92t61.5 64.5t91.5 23.5q93 0 140 -65.5zM260 243
q15 19 15 54t-16.5 54.5t-42.5 19.5q-28 0 -44 -19t-16 -53q0 -35 16 -55t45 -20q28 0 43 19z" />
    <glyph glyph-name="zero.dnom" horiz-adv-x="399" 
d="M68.5 379q47.5 59 131.5 59q83 0 130.5 -59t47.5 -163t-47.5 -163t-130.5 -59t-131 59.5t-48 162.5q0 104 47.5 163zM145.5 114.5q18.5 -35.5 52.5 -35.5q39 0 56.5 38t17.5 99q0 66 -18.5 101.5t-54.5 35.5q-35 0 -53.5 -35.5t-18.5 -101.5t18.5 -101.5z" />
    <glyph glyph-name="one.dnom" horiz-adv-x="256" 
d="M150 432q32 0 46.5 -15t14.5 -49v-363q-18 -9 -41 -9q-31 0 -47.5 14t-16.5 40v161q0 62 6 102q-9 -9 -24 -14.5t-31 -5.5q-25 0 -39.5 12t-14.5 34q0 15 6 28q85 -1 120 65h21z" />
    <glyph glyph-name="two.dnom" horiz-adv-x="324" 
d="M213 84h25q69 0 69 -67q0 -11 -2 -17h-289l-3 28q-2 19 4.5 36.5t24.5 39.5q9 11 36 36q25 22 51 49q71 74 71 115q0 22 -14.5 35t-39.5 13q-28 0 -49.5 -14.5t-29.5 -38.5q-22 1 -34.5 14.5t-12.5 34.5q0 24 19 45t51.5 33t70.5 12q64 0 104 -35t40 -93q0 -40 -23 -80.5
t-81 -96.5q-43 -42 -51.5 -46t-11.5 -7q18 4 75 4z" />
    <glyph glyph-name="three.dnom" horiz-adv-x="340" 
d="M75.5 18q-37.5 24 -37.5 62q0 20 11.5 34t30.5 15q16 -49 71 -49q30 0 47 16.5t17 42.5q0 28 -14.5 46t-43.5 18q-15 0 -28 -5t-17 -13l-23 53l38 42q55 58 71 72q-26 -4 -76 -4h-36h-42q-3 3 -4.5 13t-1.5 16q0 36 23 45.5t55 9.5h190l7 -24q2 -5 2 -17q0 -44 -52 -93
l-39 -35q46 -7 72 -40.5t26 -84.5q0 -64 -43 -104t-113 -40q-53 0 -90.5 24z" />
    <glyph glyph-name="four.dnom" horiz-adv-x="391" 
d="M365 105h-60v-100q-16 -9 -42 -9q-30 0 -46.5 14t-16.5 40v55h-112q-39 0 -57.5 16t-18.5 49v20q47 71 87 125t91 117h54q32 0 46.5 -15t14.5 -49v-180q32 -2 47 -18.5t15 -49.5q0 -10 -2 -15zM164.5 268.5q-21.5 -29.5 -63.5 -79.5h99q0 68 6 146q-20 -37 -41.5 -66.5z
" />
    <glyph glyph-name="five.dnom" horiz-adv-x="325" 
d="M57 20.5q-39 26.5 -39 63.5q0 19 11.5 32.5t33.5 15.5q7 -23 25 -37.5t43 -14.5q30 0 48 18t18 52q0 30 -14 47t-39 17q-31 0 -46 -21h-21q-27 0 -41 11.5t-14 33.5v194h265q2 -2 2 -15q0 -34 -16.5 -52.5t-47.5 -18.5h-102v-67q19 16 50 16q58 0 94.5 -41.5t36.5 -106.5
q0 -70 -41.5 -111.5t-110.5 -41.5q-56 0 -95 26.5z" />
    <glyph glyph-name="six.dnom" horiz-adv-x="354" 
d="M300 250q35 -40 35 -102q0 -66 -41.5 -110t-108.5 -44q-79 0 -120 51.5t-41 148.5q0 128 50 186t137 58q47 0 82.5 -19t35.5 -50q0 -18 -12.5 -30t-34.5 -16q-15 15 -28.5 22t-34.5 7q-90 0 -90 -105q11 20 32 31.5t49 11.5q55 0 90 -40zM218.5 96.5q13.5 16.5 13.5 45.5
q0 30 -13.5 46.5t-38.5 16.5q-23 0 -36 -16t-13 -46t13 -46.5t37 -16.5t37.5 16.5z" />
    <glyph glyph-name="seven.dnom" horiz-adv-x="323" 
d="M255 432q25 0 39 -15.5t14 -42.5v-14l-155 -360h-108l152 346h-123q-29 0 -45.5 18t-16.5 49q0 11 2 19h241z" />
    <glyph glyph-name="eight.dnom" horiz-adv-x="353" 
d="M61 30.5q-45 36.5 -45 95.5q0 40 20.5 69.5t59.5 37.5q-31 13 -47 37t-16 54q0 51 40 83t104 32q65 0 104.5 -32t39.5 -82q0 -64 -63 -92q38 -7 59 -36.5t21 -70.5q0 -59 -45 -95.5t-116 -36.5t-116 36.5zM207.5 281.5q11.5 11.5 11.5 28.5q0 18 -12 29.5t-30 11.5
t-29.5 -11.5t-11.5 -29.5t11.5 -29t29.5 -11q19 0 30.5 11.5zM217.5 96.5q15.5 14.5 15.5 37.5t-15.5 37.5t-40.5 14.5t-40.5 -14.5t-15.5 -37.5t15.5 -37.5t40.5 -14.5t40.5 14.5z" />
    <glyph glyph-name="nine.dnom" horiz-adv-x="349" 
d="M289.5 382q40.5 -56 40.5 -172q0 -216 -182 -216q-40 0 -74 19t-34 50q0 18 12.5 30t35.5 16q14 -15 27 -22t35 -7q44 0 61 29.5t14 76.5q-11 -21 -32 -32.5t-49 -11.5q-54 0 -89.5 40.5t-35.5 101.5q0 66 41.5 110t108.5 44q80 0 120.5 -56zM210 243q13 16 13 46
q0 29 -14 46t-36 17q-24 0 -37.5 -16.5t-13.5 -45.5t13.5 -46t38.5 -17q23 0 36 16z" />
    <glyph glyph-name="zero.numr" horiz-adv-x="399" 
d="M68.5 667q47.5 59 131.5 59q83 0 130.5 -59t47.5 -163t-47.5 -163t-130.5 -59t-131 59.5t-48 162.5q0 104 47.5 163zM145.5 402.5q18.5 -35.5 52.5 -35.5q39 0 56.5 38t17.5 99q0 66 -18.5 101.5t-54.5 35.5q-35 0 -53.5 -35.5t-18.5 -101.5t18.5 -101.5z" />
    <glyph glyph-name="one.numr" horiz-adv-x="256" 
d="M150 720q32 0 46.5 -15t14.5 -49v-363q-18 -9 -41 -9q-31 0 -47.5 14t-16.5 40v161q0 62 6 102q-9 -9 -24 -14.5t-31 -5.5q-25 0 -39.5 12t-14.5 34q0 15 6 28q85 -1 120 65h21z" />
    <glyph glyph-name="two.numr" horiz-adv-x="324" 
d="M213 372h25q69 0 69 -67q0 -11 -2 -17h-289l-3 28q-2 19 4.5 36.5t24.5 39.5q9 11 36 36q25 22 51 49q71 74 71 115q0 22 -14.5 35t-39.5 13q-28 0 -49.5 -14.5t-29.5 -38.5q-22 1 -34.5 14.5t-12.5 34.5q0 24 19 45t51.5 33t70.5 12q64 0 104 -35t40 -93
q0 -40 -23 -80.5t-81 -96.5q-43 -42 -51.5 -46t-11.5 -7q18 4 75 4z" />
    <glyph glyph-name="three.numr" horiz-adv-x="340" 
d="M75.5 306q-37.5 24 -37.5 62q0 20 11.5 34t30.5 15q16 -49 71 -49q30 0 47 16.5t17 42.5q0 28 -14.5 46t-43.5 18q-15 0 -28 -5t-17 -13l-23 53l38 42q55 58 71 72q-26 -4 -76 -4h-36h-42q-3 3 -4.5 13t-1.5 16q0 36 23.5 45.5t54.5 9.5h190l7 -24q2 -5 2 -17
q0 -44 -52 -93l-39 -35q46 -7 72 -40.5t26 -84.5q0 -64 -43 -104t-113 -40q-53 0 -90.5 24z" />
    <glyph glyph-name="four.numr" horiz-adv-x="391" 
d="M365 393h-60v-100q-16 -9 -42 -9q-30 0 -46.5 14t-16.5 40v55h-112q-39 0 -57.5 16t-18.5 49v20q47 71 87 125t91 117h54q32 0 46.5 -15t14.5 -49v-180q32 -2 47 -18.5t15 -49.5q0 -10 -2 -15zM164.5 556.5q-21.5 -29.5 -63.5 -79.5h99q0 68 6 146q-20 -37 -41.5 -66.5z
" />
    <glyph glyph-name="five.numr" horiz-adv-x="325" 
d="M57 308.5q-39 26.5 -39 63.5q0 19 11.5 32.5t33.5 15.5q7 -23 25 -37.5t43 -14.5q30 0 48 18t18 52q0 30 -14 47t-39 17q-31 0 -46 -21h-21q-27 0 -41 11.5t-14 33.5v194h265q2 -2 2 -15q0 -34 -16.5 -52.5t-47.5 -18.5h-102v-67q19 16 50 16q58 0 94.5 -41.5
t36.5 -106.5q0 -70 -41.5 -111.5t-110.5 -41.5q-56 0 -95 26.5z" />
    <glyph glyph-name="six.numr" horiz-adv-x="354" 
d="M300 538q35 -40 35 -102q0 -66 -41.5 -110t-108.5 -44q-79 0 -120 51.5t-41 148.5q0 128 50 186t137 58q47 0 82.5 -19t35.5 -50q0 -18 -12.5 -30t-34.5 -16q-15 15 -28.5 22t-34.5 7q-90 0 -90 -105q11 20 32 31.5t49 11.5q55 0 90 -40zM218.5 384.5
q13.5 16.5 13.5 45.5q0 30 -13.5 46.5t-38.5 16.5q-23 0 -36 -16t-13 -46t13 -46.5t37 -16.5t37.5 16.5z" />
    <glyph glyph-name="seven.numr" horiz-adv-x="323" 
d="M255 720q25 0 39 -15.5t14 -42.5v-14l-155 -360h-108l152 346h-123q-29 0 -45.5 18t-16.5 49q0 11 2 19h241z" />
    <glyph glyph-name="eight.numr" horiz-adv-x="353" 
d="M61 318.5q-45 36.5 -45 95.5q0 40 20.5 69.5t59.5 37.5q-31 13 -47 37t-16 54q0 51 40 83t104 32q65 0 104.5 -32t39.5 -82q0 -64 -63 -92q38 -7 59 -36.5t21 -70.5q0 -59 -45 -95.5t-116 -36.5t-116 36.5zM207.5 569.5q11.5 11.5 11.5 28.5q0 18 -12 29.5t-30 11.5
t-29.5 -11.5t-11.5 -29.5t11.5 -29t29.5 -11q19 0 30.5 11.5zM217.5 384.5q15.5 14.5 15.5 37.5t-15.5 37.5t-40.5 14.5t-40.5 -14.5t-15.5 -37.5t15.5 -37.5t40.5 -14.5t40.5 14.5z" />
    <glyph glyph-name="nine.numr" horiz-adv-x="349" 
d="M289.5 670q40.5 -56 40.5 -172q0 -216 -182 -216q-40 0 -74 19t-34 50q0 18 12.5 30t35.5 16q14 -15 27 -22t35 -7q44 0 61 29.5t14 76.5q-11 -21 -32 -32.5t-49 -11.5q-54 0 -89.5 40.5t-35.5 101.5q0 66 41.5 110t108.5 44q80 0 120.5 -56zM210 531q13 16 13 46
q0 29 -14 46t-36 17q-24 0 -37.5 -16.5t-13.5 -45.5t13.5 -46t38.5 -17q23 0 36 16z" />
    <glyph glyph-name="uni2070" unicode="&#x2070;" horiz-adv-x="496" 
d="M95 730q55 69 153 69q97 0 152.5 -69t55.5 -190t-55.5 -190t-152.5 -69t-152.5 69t-55.5 190t55 190zM184.5 421q21.5 -41 61.5 -41q45 0 66 44t21 116q0 77 -22 118.5t-64 41.5q-41 0 -62.5 -41t-21.5 -119t21.5 -119z" />
    <glyph glyph-name="uni00B9" unicode="&#xb9;" horiz-adv-x="331" 
d="M181 792q37 0 53.5 -18t16.5 -57v-423q-20 -11 -48 -11q-35 0 -54 16.5t-19 47.5v187q0 75 7 121q-11 -12 -28.5 -18.5t-35.5 -6.5q-29 0 -46 14.5t-17 39.5q0 18 7 32q99 -1 139 76h25z" />
    <glyph glyph-name="uni00B2" unicode="&#xb2;" horiz-adv-x="402" 
d="M205.5 384q18.5 1 53.5 1h30q80 0 80 -77q0 -12 -2 -20h-337l-3 33q-2 21 4 39.5t28 45.5q15 18 52 53q30 28 51 49q43 45 63 77.5t20 57.5q0 26 -17 41t-47 15t-55.5 -16t-35.5 -45q-25 1 -40 16.5t-15 39.5q0 28 22 52t60 38.5t82 14.5q75 0 121.5 -41t46.5 -109
q0 -47 -28 -94.5t-94 -111.5q-47 -46 -58.5 -52.5t-15.5 -10.5q16 3 34.5 4z" />
    <glyph glyph-name="uni00B3" unicode="&#xb3;" horiz-adv-x="417" 
d="M86 309q-43 28 -43 72q0 24 13 39.5t35 17.5q19 -57 83 -57q36 0 55.5 19.5t19.5 49.5q0 34 -17.5 54.5t-50.5 20.5q-17 0 -32.5 -5.5t-20.5 -14.5l-26 61l44 49q46 51 84 85q-36 -5 -92 -5h-40h-49q-3 4 -5 15.5t-2 17.5q0 40 26 52t64 12h222l8 -27q3 -9 3 -20
q0 -51 -60 -108l-47 -43q53 -7 83.5 -45.5t30.5 -99.5q0 -75 -50 -121.5t-131 -46.5q-62 0 -105 28z" />
    <glyph glyph-name="uni2074" unicode="&#x2074;" horiz-adv-x="462" 
d="M445 412h-70v-118q-9 -5 -22.5 -8t-26.5 -3q-35 0 -53.5 16.5t-18.5 47.5v65h-131q-45 0 -66.5 18t-21.5 56v23q55 84 102 147.5t105 135.5h62q37 0 54 -18t17 -57v-210q36 -2 54 -21t18 -57q0 -12 -2 -17zM211.5 601.5q-23.5 -32.5 -73.5 -93.5h116q0 78 7 172
q-26 -46 -49.5 -78.5z" />
    <glyph glyph-name="uni2075" unicode="&#x2075;" horiz-adv-x="405" 
d="M113 295q-36 14 -57 38t-21 53q0 23 14 38t38 17q9 -28 30.5 -44t48.5 -16q36 0 57 21t21 61q0 35 -16 55.5t-46 20.5q-36 0 -54 -26h-25q-31 0 -47 13.5t-16 39.5v226h307q3 -3 3 -18q0 -39 -19 -60.5t-55 -21.5h-120v-79q10 9 26.5 14t33.5 5q67 0 109 -48t42 -124
q0 -82 -48 -130.5t-128 -48.5q-42 0 -78 14z" />
    <glyph glyph-name="uni2076" unicode="&#x2076;" horiz-adv-x="444" 
d="M335.5 605.5q33.5 -21.5 52.5 -59.5t19 -85q0 -51 -22 -92t-62 -64.5t-91 -23.5q-92 0 -139.5 60t-47.5 173q0 149 58 217t159 68q56 0 97 -22t41 -59q0 -22 -14.5 -35.5t-40.5 -18.5q-15 18 -31 26.5t-43 8.5q-105 0 -105 -124q13 25 37.5 38.5t57.5 13.5
q41 0 74.5 -21.5zM272 400q16 19 16 53q0 36 -16 55.5t-45 19.5q-28 0 -43.5 -19t-15.5 -54t15.5 -54.5t43.5 -19.5q29 0 45 19z" />
    <glyph glyph-name="uni2077" unicode="&#x2077;" horiz-adv-x="400" 
d="M307 792q30 0 46.5 -18t16.5 -50v-16l-182 -420h-124l178 404h-145q-34 0 -53 21t-19 57q0 16 3 22h279z" />
    <glyph glyph-name="uni2078" unicode="&#x2078;" horiz-adv-x="434" 
d="M82 323.5q-52 42.5 -52 111.5q0 49 25 82.5t68 42.5q-37 15 -55 42.5t-18 63.5q0 59 46 96.5t121 37.5q76 0 122 -37.5t46 -95.5q0 -38 -19 -65t-54 -42q43 -9 68 -43t25 -82q0 -69 -52.5 -111.5t-134.5 -42.5q-84 0 -136 42.5zM253.5 616q13.5 13 13.5 34t-13.5 34.5
t-35.5 13.5t-36 -13.5t-14 -34.5t14 -34t36 -13t35.5 13zM265.5 399q17.5 17 17.5 45q0 27 -17.5 44t-47.5 17t-48 -17t-18 -44q0 -28 18 -45t48 -17t47.5 17z" />
    <glyph glyph-name="uni2079" unicode="&#x2079;" horiz-adv-x="439" 
d="M352 733.5q47 -65.5 47 -200.5q0 -252 -212 -252q-47 0 -86.5 22.5t-39.5 58.5q0 22 15 35.5t40 18.5q16 -19 32 -27t42 -8q93 0 89 125q-14 -26 -38.5 -39.5t-57.5 -13.5q-42 0 -75 21.5t-52 59.5t-19 85q0 51 22 92t61.5 64.5t91.5 23.5q93 0 140 -65.5zM260 571
q15 19 15 54t-16.5 54.5t-42.5 19.5q-28 0 -44 -19t-16 -53q0 -35 16 -55t45 -20q28 0 43 19z" />
    <glyph glyph-name="fraction" unicode="&#x2044;" horiz-adv-x="290" 
d="M277 664q23 36 45 51t59 15q36 0 57 -14l-425 -656q-23 -36 -45 -51t-59 -15q-36 0 -57 14z" />
    <glyph glyph-name="onehalf" unicode="&#xbd;" horiz-adv-x="870" 
d="M150 720q32 0 46.5 -15t14.5 -49v-363q-18 -9 -41 -9q-31 0 -47.5 14t-16.5 40v161q0 62 6 102q-9 -9 -24 -14.5t-31 -5.5q-25 0 -39.5 12t-14.5 34q0 15 6 28q85 -1 120 65h21zM533 664q23 36 45 51t59 15q36 0 57 -14l-425 -656q-23 -36 -45 -51t-59 -15q-36 0 -57 14z
M759 84h25q69 0 69 -67q0 -11 -2 -17h-289l-3 28q-2 19 4.5 36.5t24.5 39.5q9 11 36 36q25 22 51 49q71 74 71 115q0 22 -14.5 35t-39.5 13q-28 0 -49.5 -14.5t-29.5 -38.5q-22 1 -34.5 14.5t-12.5 34.5q0 24 19 45t51.5 33t70.5 12q64 0 104 -35t40 -93q0 -40 -23 -80.5
t-81 -96.5q-43 -42 -51.5 -46t-11.5 -7q18 4 75 4z" />
    <glyph glyph-name="onequarter" unicode="&#xbc;" horiz-adv-x="847" 
d="M150 720q32 0 46.5 -15t14.5 -49v-363q-18 -9 -41 -9q-31 0 -47.5 14t-16.5 40v161q0 62 6 102q-9 -9 -24 -14.5t-31 -5.5q-25 0 -39.5 12t-14.5 34q0 15 6 28q85 -1 120 65h21zM533 664q23 36 45 51t59 15q36 0 57 -14l-425 -656q-23 -36 -45 -51t-59 -15q-36 0 -57 14z
M821 105h-60v-100q-16 -9 -42 -9q-30 0 -46.5 14t-16.5 40v55h-112q-39 0 -57.5 16t-18.5 49v20q47 71 87 125t91 117h54q32 0 46.5 -15t14.5 -49v-180q32 -2 47 -18.5t15 -49.5q0 -10 -2 -15zM620.5 268.5q-21.5 -29.5 -63.5 -79.5h99q0 68 6 146q-20 -37 -41.5 -66.5z" />
    <glyph glyph-name="threequarters" unicode="&#xbe;" horiz-adv-x="931" 
d="M75.5 306q-37.5 24 -37.5 62q0 20 11.5 34t30.5 15q16 -49 71 -49q30 0 47 16.5t17 42.5q0 28 -14.5 46t-43.5 18q-15 0 -28 -5t-17 -13l-23 53l38 42q55 58 71 72q-26 -4 -76 -4h-36h-42q-3 3 -4.5 13t-1.5 16q0 36 23.5 45.5t54.5 9.5h190l7 -24q2 -5 2 -17
q0 -44 -52 -93l-39 -35q46 -7 72 -40.5t26 -84.5q0 -64 -43 -104t-113 -40q-53 0 -90.5 24zM617 664q23 36 45 51t59 15q36 0 57 -14l-425 -656q-23 -36 -45 -51t-59 -15q-36 0 -57 14zM905 105h-60v-100q-16 -9 -42 -9q-30 0 -46.5 14t-16.5 40v55h-112q-39 0 -57.5 16
t-18.5 49v20q47 71 87 125t91 117h54q32 0 46.5 -15t14.5 -49v-180q32 -2 47 -18.5t15 -49.5q0 -10 -2 -15zM704.5 268.5q-21.5 -29.5 -63.5 -79.5h99q0 68 6 146q-20 -37 -41.5 -66.5z" />
    <glyph glyph-name="oneeighth" unicode="&#x215b;" horiz-adv-x="879" 
d="M150 720q32 0 46.5 -15t14.5 -49v-363q-18 -9 -41 -9q-31 0 -47.5 14t-16.5 40v161q0 62 6 102q-9 -9 -24 -14.5t-31 -5.5q-25 0 -39.5 12t-14.5 34q0 15 6 28q85 -1 120 65h21zM533 664q23 36 45 51t59 15q36 0 57 -14l-425 -656q-23 -36 -45 -51t-59 -15q-36 0 -57 14z
M587 30.5q-45 36.5 -45 95.5q0 40 20.5 69.5t59.5 37.5q-31 13 -47 37t-16 54q0 51 40 83t104 32q65 0 104.5 -32t39.5 -82q0 -64 -63 -92q38 -7 59 -36.5t21 -70.5q0 -59 -45 -95.5t-116 -36.5t-116 36.5zM733.5 281.5q11.5 11.5 11.5 28.5q0 18 -12 29.5t-30 11.5
t-29.5 -11.5t-11.5 -29.5t11.5 -29t29.5 -11q19 0 30.5 11.5zM743.5 96.5q15.5 14.5 15.5 37.5t-15.5 37.5t-40.5 14.5t-40.5 -14.5t-15.5 -37.5t15.5 -37.5t40.5 -14.5t40.5 14.5z" />
    <glyph glyph-name="threeeighths" unicode="&#x215c;" horiz-adv-x="963" 
d="M75.5 306q-37.5 24 -37.5 62q0 20 11.5 34t30.5 15q16 -49 71 -49q30 0 47 16.5t17 42.5q0 28 -14.5 46t-43.5 18q-15 0 -28 -5t-17 -13l-23 53l38 42q55 58 71 72q-26 -4 -76 -4h-36h-42q-3 3 -4.5 13t-1.5 16q0 36 23.5 45.5t54.5 9.5h190l7 -24q2 -5 2 -17
q0 -44 -52 -93l-39 -35q46 -7 72 -40.5t26 -84.5q0 -64 -43 -104t-113 -40q-53 0 -90.5 24zM617 664q23 36 45 51t59 15q36 0 57 -14l-425 -656q-23 -36 -45 -51t-59 -15q-36 0 -57 14zM671 30.5q-45 36.5 -45 95.5q0 40 20.5 69.5t59.5 37.5q-31 13 -47 37t-16 54
q0 51 40 83t104 32q65 0 104.5 -32t39.5 -82q0 -64 -63 -92q38 -7 59 -36.5t21 -70.5q0 -59 -45 -95.5t-116 -36.5t-116 36.5zM817.5 281.5q11.5 11.5 11.5 28.5q0 18 -12 29.5t-30 11.5t-29.5 -11.5t-11.5 -29.5t11.5 -29t29.5 -11q19 0 30.5 11.5zM827.5 96.5
q15.5 14.5 15.5 37.5t-15.5 37.5t-40.5 14.5t-40.5 -14.5t-15.5 -37.5t15.5 -37.5t40.5 -14.5t40.5 14.5z" />
    <glyph glyph-name="fiveeighths" unicode="&#x215d;" horiz-adv-x="948" 
d="M57 308.5q-39 26.5 -39 63.5q0 19 11.5 32.5t33.5 15.5q7 -23 25 -37.5t43 -14.5q30 0 48 18t18 52q0 30 -14 47t-39 17q-31 0 -46 -21h-21q-27 0 -41 11.5t-14 33.5v194h265q2 -2 2 -15q0 -34 -16.5 -52.5t-47.5 -18.5h-102v-67q19 16 50 16q58 0 94.5 -41.5
t36.5 -106.5q0 -70 -41.5 -111.5t-110.5 -41.5q-56 0 -95 26.5zM602 664q23 36 45 51t59 15q36 0 57 -14l-425 -656q-23 -36 -45 -51t-59 -15q-36 0 -57 14zM656 30.5q-45 36.5 -45 95.5q0 40 20.5 69.5t59.5 37.5q-31 13 -47 37t-16 54q0 51 40 83t104 32q65 0 104.5 -32
t39.5 -82q0 -64 -63 -92q38 -7 59 -36.5t21 -70.5q0 -59 -45 -95.5t-116 -36.5t-116 36.5zM802.5 281.5q11.5 11.5 11.5 28.5q0 18 -12 29.5t-30 11.5t-29.5 -11.5t-11.5 -29.5t11.5 -29t29.5 -11q19 0 30.5 11.5zM812.5 96.5q15.5 14.5 15.5 37.5t-15.5 37.5t-40.5 14.5
t-40.5 -14.5t-15.5 -37.5t15.5 -37.5t40.5 -14.5t40.5 14.5z" />
    <glyph glyph-name="seveneighths" unicode="&#x215e;" horiz-adv-x="876" 
d="M255 720q25 0 39 -15.5t14 -42.5v-14l-155 -360h-108l152 346h-123q-29 0 -45.5 18t-16.5 49q0 11 2 19h241zM530 664q23 36 45 51t59 15q36 0 57 -14l-425 -656q-23 -36 -45 -51t-59 -15q-36 0 -57 14zM584 30.5q-45 36.5 -45 95.5q0 40 20.5 69.5t59.5 37.5
q-31 13 -47 37t-16 54q0 51 40 83t104 32q65 0 104.5 -32t39.5 -82q0 -64 -63 -92q38 -7 59 -36.5t21 -70.5q0 -59 -45 -95.5t-116 -36.5t-116 36.5zM730.5 281.5q11.5 11.5 11.5 28.5q0 18 -12 29.5t-30 11.5t-29.5 -11.5t-11.5 -29.5t11.5 -29t29.5 -11q19 0 30.5 11.5z
M740.5 96.5q15.5 14.5 15.5 37.5t-15.5 37.5t-40.5 14.5t-40.5 -14.5t-15.5 -37.5t15.5 -37.5t40.5 -14.5t40.5 14.5z" />
    <glyph glyph-name="period" unicode="." horiz-adv-x="271" 
d="M62.5 24.5q-27.5 27.5 -27.5 73.5q0 45 27.5 72.5t73.5 27.5q45 0 72.5 -27.5t27.5 -72.5q0 -46 -27.5 -73.5t-72.5 -27.5q-46 0 -73.5 27.5z" />
    <glyph glyph-name="comma" unicode="," horiz-adv-x="275" 
d="M218.5 158.5q31.5 -39.5 31.5 -104.5q0 -84 -40 -133t-108 -49q-29 0 -48.5 12.5t-19.5 33.5q0 24 16 40q12 -14 40 -14q36 0 55.5 20t21.5 64q-17 -15 -52 -15q-36 0 -58 25t-22 61q0 46 27.5 72.5t72.5 26.5q52 0 83.5 -39.5z" />
    <glyph glyph-name="colon" unicode=":" horiz-adv-x="271" 
d="M62.5 24.5q-27.5 27.5 -27.5 73.5q0 45 27.5 72.5t73.5 27.5q45 0 72.5 -27.5t27.5 -72.5q0 -46 -27.5 -73.5t-72.5 -27.5q-46 0 -73.5 27.5zM62.5 354.5q-27.5 27.5 -27.5 73.5q0 45 27.5 72.5t73.5 27.5q45 0 72.5 -27.5t27.5 -72.5q0 -46 -27.5 -73.5t-72.5 -27.5
q-46 0 -73.5 27.5z" />
    <glyph glyph-name="semicolon" unicode=";" horiz-adv-x="286" 
d="M219.5 158.5q31.5 -39.5 31.5 -104.5q0 -84 -40 -133t-108 -49q-29 0 -48.5 12.5t-19.5 33.5q0 24 16 40q12 -14 40 -14q36 0 55.5 20t21.5 64q-17 -15 -52 -15q-36 0 -58 25t-22 61q0 46 27.5 72.5t72.5 26.5q52 0 83.5 -39.5zM63.5 354.5q-27.5 27.5 -27.5 73.5
q0 45 27.5 72.5t73.5 27.5q45 0 72.5 -27.5t27.5 -72.5q0 -46 -27.5 -73.5t-72.5 -27.5q-46 0 -73.5 27.5z" />
    <glyph glyph-name="ellipsis" unicode="&#x2026;" horiz-adv-x="813" 
d="M62.5 24.5q-27.5 27.5 -27.5 73.5q0 45 27.5 72.5t73.5 27.5q45 0 72.5 -27.5t27.5 -72.5q0 -46 -27.5 -73.5t-72.5 -27.5q-46 0 -73.5 27.5zM333.5 24.5q-27.5 27.5 -27.5 73.5q0 45 27.5 72.5t73.5 27.5q45 0 72.5 -27.5t27.5 -72.5q0 -46 -27.5 -73.5t-72.5 -27.5
q-46 0 -73.5 27.5zM604.5 24.5q-27.5 27.5 -27.5 73.5q0 45 27.5 72.5t73.5 27.5q45 0 72.5 -27.5t27.5 -72.5q0 -46 -27.5 -73.5t-72.5 -27.5q-46 0 -73.5 27.5z" />
    <glyph glyph-name="exclam" unicode="!" horiz-adv-x="284" 
d="M100 277q-19 23 -22 68l-23 368q29 13 73 13q50 0 77 -23.5t24 -67.5l-23 -368q-9 -6 -23 -9.5t-27 -3.5q-37 0 -56 23zM80 21q-24 24 -24 63t24 62.5t63 23.5t62.5 -23.5t23.5 -62.5t-23.5 -63t-62.5 -24t-63 24z" />
    <glyph glyph-name="exclamdown" unicode="&#xa1;" horiz-adv-x="344" 
d="M175.5 504q23.5 -24 23.5 -63t-23.5 -62.5t-62.5 -23.5t-63 23.5t-24 62.5t24 63t63 24t62.5 -24zM153 267.5q14 -3.5 23 -9.5l23 -368q3 -44 -24 -67.5t-77 -23.5q-44 0 -73 13l23 368q3 45 22 68t56 23q13 0 27 -3.5z" />
    <glyph glyph-name="question" unicode="?" horiz-adv-x="509" 
d="M197 241q-17 17 -17 49q0 28 13.5 51t50.5 65q6 7 32 36.5t36 51t10 43.5q0 35 -22 54.5t-60 19.5q-58 0 -93 -29t-42 -88q-37 3 -58.5 24.5t-21.5 57.5q0 42 28.5 77.5t80.5 56t121 20.5q104 0 161.5 -48t57.5 -129q0 -48 -25 -87t-68 -80l-83 -78q0 -11 2 -32.5
t5 -26.5q-17 -25 -59 -25q-32 0 -49 17zM187 22q-25 25 -25 62q0 36 25 61t62 25q36 0 61 -25t25 -61q0 -37 -25 -62t-61 -25q-37 0 -62 25z" />
    <glyph glyph-name="questiondown" unicode="&#xbf;" horiz-adv-x="509" 
d="M322 503q25 -25 25 -62q0 -36 -25 -61t-62 -25q-36 0 -61 25t-25 61q0 37 25 62t61 25q37 0 62 -25zM312 284q17 -17 17 -49q0 -28 -13.5 -51t-50.5 -65q-6 -7 -32 -36.5t-36 -51t-10 -43.5q0 -35 22 -54.5t60 -19.5q58 0 93 29t42 88q37 -3 58.5 -24.5t21.5 -57.5
q0 -42 -28.5 -77.5t-80.5 -56t-121 -20.5q-104 0 -161.5 48t-57.5 129q0 48 25 87t68 80l83 78q0 11 -2 32.5t-5 26.5q17 25 59 25q32 0 49 -17z" />
    <glyph glyph-name="periodcentered" unicode="&#xb7;" horiz-adv-x="291" 
d="M74 191q-29 29 -29 72q0 42 29 71t72 29q42 0 71 -29t29 -71q0 -43 -29 -72t-71 -29q-43 0 -72 29z" />
    <glyph glyph-name="bullet" unicode="&#x2022;" horiz-adv-x="337" 
d="M77 171q-37 37 -37 92q0 54 37 91t92 37q54 0 91 -37t37 -91q0 -55 -37 -92t-91 -37q-55 0 -92 37z" />
    <glyph glyph-name="asterisk" unicode="*" horiz-adv-x="350" 
d="M320 519q0 -15 -8 -29q-12 -22 -34 -22q-12 0 -25 7q-11 6 -20 15.5t-22 26.5l-21 25q13 -33 17 -46t4 -23l-1 -26q0 -13 5 -21q-14 -17 -39 -17q-19 0 -30 12t-11 34q0 24 13 58l11 27q-19 -26 -28.5 -36t-19.5 -15q-5 -2 -14.5 -6.5t-15.5 -9t-9 -11.5q-9 2 -19 9
t-14 16q-7 11 -7 23q0 23 24 36q16 9 56 17l32 4q-35 5 -48 8.5t-21 9.5q-6 3 -14 8.5t-15 8t-14 1.5q-2 8 -2 14q0 17 7 28q13 22 36 22q12 0 24 -6q11 -7 24 -21.5t18 -20.5l21 -26q-13 31 -17 45t-4 24l1 27q0 13 -5 22q6 7 16.5 11t20.5 4q43 0 43 -44q0 -22 -13 -58
q-11 -27 -11 -28q19 25 28.5 35t18.5 15q6 3 15.5 7.5t15.5 9t9 10.5q9 -1 18 -8t14 -16q8 -13 8 -24q0 -22 -25 -36q-17 -9 -56 -16l-30 -5q31 -4 45 -7.5t22 -8.5q4 -3 13 -9.5t16 -9t15 -1.5q2 -8 2 -13z" />
    <glyph glyph-name="numbersign" unicode="#" horiz-adv-x="798" 
d="M606 410l-29 -150h42q39 0 60 -17t21 -48q0 -22 -9 -40h-134l-12 -64q-17 -91 -89 -91q-25 0 -41 13l27 142h-145l-12 -64q-17 -91 -89 -91q-25 0 -41 13l27 142h-37q-38 0 -59 17t-21 49q0 23 8 39h129l29 150h-42q-39 0 -60 17t-21 48q0 22 9 40h134l12 64q17 91 89 91
q26 0 41 -13l-27 -142h145l12 64q17 91 89 91q26 0 41 -13l-27 -142h37q38 0 59 -17t21 -49q0 -23 -8 -39h-129zM491 410h-145l-29 -150h145z" />
    <glyph glyph-name="slash" unicode="/" horiz-adv-x="388" 
d="M236 650q29 80 99 80q16 0 30.5 -3.5t22.5 -10.5l-235 -642q-29 -80 -99 -80q-16 0 -30.5 3.5t-22.5 10.5z" />
    <glyph glyph-name="backslash" unicode="\" horiz-adv-x="387" 
d="M235 74l-235 642q8 7 22.5 10.5t30.5 3.5q70 0 99 -80l235 -642q-8 -7 -22.5 -10.5t-30.5 -3.5q-70 0 -99 80z" />
    <glyph glyph-name="period.tf" horiz-adv-x="300" 
d="M77.5 24.5q-27.5 27.5 -27.5 73.5q0 45 27.5 72.5t73.5 27.5q45 0 72.5 -27.5t27.5 -72.5q0 -46 -27.5 -73.5t-72.5 -27.5q-46 0 -73.5 27.5z" />
    <glyph glyph-name="comma.tf" horiz-adv-x="300" 
d="M226.5 158.5q31.5 -39.5 31.5 -104.5q0 -84 -40 -133t-108 -49q-29 0 -48.5 12.5t-19.5 33.5q0 24 16 40q12 -14 40 -14q36 0 55.5 20t21.5 64q-17 -15 -52 -15q-36 0 -58 25t-22 61q0 46 27.5 72.5t72.5 26.5q52 0 83.5 -39.5z" />
    <glyph glyph-name="parenleft" unicode="(" horiz-adv-x="358" 
d="M59 564.5q23 104.5 67 162t107 57.5q31 0 56 -14.5t38 -42.5q-43 -21 -71.5 -64.5t-44.5 -126.5t-16 -216q0 -132 16 -214.5t44.5 -126t71.5 -64.5q-13 -29 -38 -43t-56 -14q-63 0 -107 57t-67 161.5t-23 243.5q0 140 23 244.5z" />
    <glyph glyph-name="parenright" unicode=")" horiz-adv-x="358" 
d="M299 76.5q-23 -104.5 -67 -161.5t-107 -57q-31 0 -56 14t-38 43q43 21 71.5 64.5t44.5 126t16 214.5q0 133 -16 216t-44.5 126.5t-71.5 64.5q13 28 38 42.5t56 14.5q63 0 107 -57.5t67 -162t23 -244.5q0 -139 -23 -243.5z" />
    <glyph glyph-name="braceleft" unicode="{" horiz-adv-x="459" 
d="M45 255v132h11q39 0 61.5 23t22.5 61q0 6 -2 22l-13 82q-3 23 -3 42q0 80 50.5 123.5t139.5 43.5q52 0 87 -19t35 -61q0 -33 -18 -57q-18 15 -59 15q-82 0 -74 -87l8 -85q1 -10 1 -29q0 -110 -78 -140q78 -30 78 -140q0 -19 -1 -29l-8 -85q-1 -5 -1 -16q0 -71 75 -71
q41 0 59 15q18 -24 18 -57q0 -42 -35 -61t-87 -19q-87 0 -138.5 46t-51.5 124q0 20 3 39l13 82q2 16 2 22q0 38 -22.5 61t-61.5 23h-11z" />
    <glyph glyph-name="braceright" unicode="}" horiz-adv-x="459" 
d="M60 -123q-35 19 -35 61q0 33 18 57q18 -15 59 -15q82 0 74 87l-8 85q-1 10 -1 29q0 110 78 140q-78 30 -78 140q0 19 1 29l8 85q1 5 1 16q0 71 -75 71q-41 0 -59 -15q-18 24 -18 57q0 42 35 61t87 19q87 0 138.5 -46t51.5 -124q0 -19 -3 -39l-13 -82q-2 -16 -2 -22
q0 -38 22.5 -61t61.5 -23h11v-132h-11q-39 0 -61.5 -23t-22.5 -61q0 -6 2 -22l13 -82q3 -21 3 -39q0 -80 -52.5 -125t-137.5 -45q-52 0 -87 19z" />
    <glyph glyph-name="bracketleft" unicode="[" horiz-adv-x="430" 
d="M75 683q0 44 30 67.5t85 23.5h212q3 -18 3 -45q0 -42 -28.5 -64t-82.5 -22h-59v-644h167q3 -18 3 -45q0 -42 -28.5 -64t-82.5 -22h-104q-55 0 -85 23.5t-30 67.5v724z" />
    <glyph glyph-name="bracketright" unicode="]" horiz-adv-x="430" 
d="M28 -132q-3 18 -3 45q0 42 28.5 64t82.5 22h59v644h-167q-3 18 -3 45q0 42 28.5 64t82.5 22h104q55 0 85 -23.5t30 -67.5v-724q0 -44 -30 -67.5t-85 -23.5h-212z" />
    <glyph glyph-name="parenleft.case" horiz-adv-x="358" 
d="M59 603.5q23 104.5 67 162t107 57.5q31 0 56 -14.5t38 -42.5q-43 -21 -71.5 -64.5t-44.5 -126.5t-16 -216q0 -132 16 -214.5t44.5 -126t71.5 -64.5q-13 -29 -38 -43t-56 -14q-63 0 -107 57t-67 161.5t-23 243.5q0 140 23 244.5z" />
    <glyph glyph-name="parenright.case" horiz-adv-x="358" 
d="M299 115.5q-23 -104.5 -67 -161.5t-107 -57q-31 0 -56 14t-38 43q43 21 71.5 64.5t44.5 126t16 214.5q0 133 -16 216t-44.5 126.5t-71.5 64.5q13 28 38 42.5t56 14.5q63 0 107 -57.5t67 -162t23 -244.5q0 -139 -23 -243.5z" />
    <glyph glyph-name="braceleft.case" horiz-adv-x="459" 
d="M45 294v132h11q39 0 61.5 23t22.5 61q0 6 -2 22l-13 82q-3 23 -3 42q0 80 50.5 123.5t139.5 43.5q52 0 87 -19t35 -61q0 -33 -18 -57q-18 15 -59 15q-82 0 -74 -87l8 -85q1 -10 1 -29q0 -110 -78 -140q78 -30 78 -140q0 -19 -1 -29l-8 -85q-1 -5 -1 -16q0 -71 75 -71
q41 0 59 15q18 -24 18 -57q0 -42 -35 -61t-87 -19q-87 0 -138.5 46t-51.5 124q0 20 3 39l13 82q2 16 2 22q0 38 -22.5 61t-61.5 23h-11z" />
    <glyph glyph-name="braceright.case" horiz-adv-x="459" 
d="M60 -84q-35 19 -35 61q0 33 18 57q18 -15 59 -15q82 0 74 87l-8 85q-1 10 -1 29q0 110 78 140q-78 30 -78 140q0 19 1 29l8 85q1 5 1 16q0 71 -75 71q-41 0 -59 -15q-18 24 -18 57q0 42 35 61t87 19q87 0 138.5 -46t51.5 -124q0 -19 -3 -39l-13 -82q-2 -16 -2 -22
q0 -38 22.5 -61t61.5 -23h11v-132h-11q-39 0 -61.5 -23t-22.5 -61q0 -6 2 -22l13 -82q3 -21 3 -39q0 -80 -52.5 -125t-137.5 -45q-52 0 -87 19z" />
    <glyph glyph-name="bracketleft.case" horiz-adv-x="430" 
d="M75 722q0 44 30 67.5t85 23.5h212q3 -18 3 -45q0 -42 -28.5 -64t-82.5 -22h-59v-644h167q3 -18 3 -45q0 -42 -28.5 -64t-82.5 -22h-104q-55 0 -85 23.5t-30 67.5v724z" />
    <glyph glyph-name="bracketright.case" horiz-adv-x="430" 
d="M28 -93q-3 18 -3 45q0 42 28.5 64t82.5 22h59v644h-167q-3 18 -3 45q0 42 28.5 64t82.5 22h104q55 0 85 -23.5t30 -67.5v-724q0 -44 -30 -67.5t-85 -23.5h-212z" />
    <glyph glyph-name="hyphen" unicode="-" horiz-adv-x="479" 
d="M146 195q-49 0 -75 20.5t-26 60.5q0 25 11 49h278q48 0 74 -21t26 -61q0 -28 -10 -48h-278z" />
    <glyph glyph-name="endash" unicode="&#x2013;" horiz-adv-x="629" 
d="M146 195q-49 0 -75 20.5t-26 60.5q0 25 11 49h428q48 0 74 -21t26 -61q0 -28 -10 -48h-428z" />
    <glyph glyph-name="emdash" unicode="&#x2014;" horiz-adv-x="779" 
d="M146 195q-49 0 -75 20.5t-26 60.5q0 25 11 49h578q48 0 74 -21t26 -61q0 -28 -10 -48h-578z" />
    <glyph glyph-name="underscore" unicode="_" horiz-adv-x="533" 
d="M97 -95q-35 0 -54.5 15.5t-19.5 43.5q0 18 8 36h405q35 0 54.5 -15.5t19.5 -43.5q0 -22 -8 -36h-405z" />
    <glyph glyph-name="hyphen.case" horiz-adv-x="479" 
d="M146 245q-49 0 -75 20.5t-26 60.5q0 25 11 49h278q48 0 74 -21t26 -61q0 -28 -10 -48h-278z" />
    <glyph glyph-name="endash.case" horiz-adv-x="629" 
d="M146 245q-49 0 -75 20.5t-26 60.5q0 25 11 49h428q48 0 74 -21t26 -61q0 -28 -10 -48h-428z" />
    <glyph glyph-name="emdash.case" horiz-adv-x="779" 
d="M146 245q-49 0 -75 20.5t-26 60.5q0 25 11 49h578q48 0 74 -21t26 -61q0 -28 -10 -48h-578z" />
    <glyph glyph-name="quotesinglbase" unicode="&#x201a;" horiz-adv-x="275" 
d="M218.5 158.5q31.5 -39.5 31.5 -104.5q0 -84 -40 -133t-108 -49q-29 0 -48.5 12.5t-19.5 33.5q0 24 16 40q12 -14 40 -14q36 0 55.5 20t21.5 64q-17 -15 -52 -15q-36 0 -58 25t-22 61q0 46 27.5 72.5t72.5 26.5q52 0 83.5 -39.5z" />
    <glyph glyph-name="quotedblbase" unicode="&#x201e;" horiz-adv-x="525" 
d="M218.5 158.5q31.5 -39.5 31.5 -104.5q0 -84 -40 -133t-108 -49q-29 0 -48.5 12.5t-19.5 33.5q0 24 16 40q12 -14 40 -14q36 0 55.5 20t21.5 64q-17 -15 -52 -15q-36 0 -58 25t-22 61q0 46 27.5 72.5t72.5 26.5q52 0 83.5 -39.5zM473.5 158.5q31.5 -39.5 31.5 -104.5
q0 -84 -40 -133t-108 -49q-29 0 -48.5 12.5t-19.5 33.5q0 24 16 40q12 -14 40 -14q36 0 55.5 20t21.5 64q-17 -15 -52 -15q-36 0 -58 25t-22 61q0 46 27.5 72.5t72.5 26.5q52 0 83.5 -39.5z" />
    <glyph glyph-name="quotedblleft" unicode="&#x201c;" horiz-adv-x="521" 
d="M129.5 638q-19.5 -20 -21.5 -64q17 15 52 15q36 0 58 -25t22 -61q0 -46 -27.5 -72.5t-72.5 -26.5q-52 0 -83.5 39.5t-31.5 104.5q0 84 40 133t108 49q29 0 48.5 -12.5t19.5 -33.5q0 -24 -16 -40q-12 14 -40 14q-36 0 -55.5 -20zM473 564q22 -25 22 -61q0 -46 -27.5 -72.5
t-72.5 -26.5q-52 0 -83.5 39.5t-31.5 104.5q0 84 40 133t108 49q29 0 48.5 -12.5t19.5 -33.5q0 -24 -16 -40q-12 14 -40 14q-36 0 -55.5 -20t-21.5 -64q17 15 52 15q36 0 58 -25z" />
    <glyph glyph-name="quotedblright" unicode="&#x201d;" horiz-adv-x="521" 
d="M464.5 690.5q31.5 -39.5 31.5 -104.5q0 -84 -40 -133t-108 -49q-29 0 -48.5 12.5t-19.5 33.5q0 24 16 40q12 -14 40 -14q36 0 55.5 20t21.5 64q-17 -15 -52 -15q-36 0 -58 25t-22 61q0 46 27.5 72.5t72.5 26.5q52 0 83.5 -39.5zM209.5 690.5q31.5 -39.5 31.5 -104.5
q0 -84 -40 -133t-108 -49q-29 0 -48.5 12.5t-19.5 33.5q0 24 16 40q12 -14 40 -14q36 0 55.5 20t21.5 64q-17 -15 -52 -15q-36 0 -58 25t-22 61q0 46 27.5 72.5t72.5 26.5q52 0 83.5 -39.5z" />
    <glyph glyph-name="quoteleft" unicode="&#x2018;" horiz-adv-x="266" 
d="M218 564q22 -25 22 -61q0 -46 -27.5 -72.5t-72.5 -26.5q-52 0 -83.5 39.5t-31.5 104.5q0 84 40 133t108 49q29 0 48.5 -12.5t19.5 -33.5q0 -24 -16 -40q-12 14 -40 14q-36 0 -55.5 -20t-21.5 -64q17 15 52 15q36 0 58 -25z" />
    <glyph glyph-name="quoteright" unicode="&#x2019;" horiz-adv-x="266" 
d="M209.5 690.5q31.5 -39.5 31.5 -104.5q0 -84 -40 -133t-108 -49q-29 0 -48.5 12.5t-19.5 33.5q0 24 16 40q12 -14 40 -14q36 0 55.5 20t21.5 64q-17 -15 -52 -15q-36 0 -58 25t-22 61q0 46 27.5 72.5t72.5 26.5q52 0 83.5 -39.5z" />
    <glyph glyph-name="guillemotleft" unicode="&#xab;" horiz-adv-x="658" 
d="M206.5 252q32.5 -20 70.5 -68l91 -116q-19 -16 -70 -16q-48 0 -84 16.5t-64 54.5l-115 156l115 155q28 38 64 54.5t84 16.5q52 0 70 -15l-91 -117q-38 -48 -70.5 -68t-88.5 -26q56 -7 88.5 -27zM446.5 252q32.5 -20 70.5 -68l91 -116q-19 -16 -70 -16q-48 0 -84 16.5
t-64 54.5l-115 156l115 155q28 38 64 54.5t84 16.5q52 0 70 -15l-91 -117q-38 -48 -70.5 -68t-88.5 -26q56 -7 88.5 -27z" />
    <glyph glyph-name="guillemotright" unicode="&#xbb;" horiz-adv-x="658" 
d="M211.5 305q-32.5 20 -70.5 68l-91 117q18 15 70 15q48 0 84 -16.5t64 -54.5l115 -155l-115 -156q-28 -38 -64 -54.5t-84 -16.5q-51 0 -70 16l91 116q38 48 70.5 68t88.5 27q-56 6 -88.5 26zM451.5 305q-32.5 20 -70.5 68l-91 117q18 15 70 15q48 0 84 -16.5t64 -54.5
l115 -155l-115 -156q-28 -38 -64 -54.5t-84 -16.5q-51 0 -70 16l91 116q38 48 70.5 68t88.5 27q-56 6 -88.5 26z" />
    <glyph glyph-name="guilsinglleft" unicode="&#x2039;" horiz-adv-x="418" 
d="M206.5 252q32.5 -20 70.5 -68l91 -116q-19 -16 -70 -16q-48 0 -84 16.5t-64 54.5l-115 156l115 155q28 38 64 54.5t84 16.5q52 0 70 -15l-91 -117q-38 -48 -70.5 -68t-88.5 -26q56 -7 88.5 -27z" />
    <glyph glyph-name="guilsinglright" unicode="&#x203a;" horiz-adv-x="418" 
d="M211.5 305q-32.5 20 -70.5 68l-91 117q18 15 70 15q48 0 84 -16.5t64 -54.5l115 -155l-115 -156q-28 -38 -64 -54.5t-84 -16.5q-51 0 -70 16l91 116q38 48 70.5 68t88.5 27q-56 6 -88.5 26z" />
    <glyph glyph-name="quotedbl" unicode="&#x22;" horiz-adv-x="438" 
d="M164 420q-8 -13 -32 -13q-29 0 -48 23.5t-24 67.5l-25 218q31 13 77 13q37 0 57 -22t20 -61q0 -12 -1 -18zM378 420q-8 -13 -32 -13q-29 0 -48 23.5t-24 67.5l-25 218q31 13 77 13q37 0 57 -22t20 -61q0 -12 -1 -18z" />
    <glyph glyph-name="quotesingle" unicode="'" horiz-adv-x="224" 
d="M164 417q-8 -13 -32 -13q-29 0 -48 23.5t-24 67.5l-25 218q31 13 77 13q37 0 57 -22t20 -61q0 -12 -1 -18z" />
    <glyph glyph-name="uni205F" unicode="&#x205f;" horiz-adv-x="300" 
 />
    <glyph glyph-name="uni2000" unicode="&#x2000;" horiz-adv-x="500" 
 />
    <glyph glyph-name="uni2007" unicode="&#x2007;" 
 />
    <glyph glyph-name="cent" unicode="&#xa2;" horiz-adv-x="509" 
d="M478 199q0 -41 -36.5 -70.5t-95.5 -38.5v-85q-16 -14 -34 -14q-25 0 -38 16t-13 46v35q-104 11 -164.5 84.5t-60.5 187.5t60 186t165 83v83q7 6 16.5 9.5t17.5 3.5q25 0 38 -15.5t13 -45.5v-37q59 -8 95.5 -37.5t36.5 -71.5q0 -56 -66 -68q-23 44 -66 56v-295
q43 12 66 56q66 -12 66 -68zM261 215v288q-34 -13 -50 -47.5t-16 -93.5q0 -118 66 -147z" />
    <glyph glyph-name="currency" unicode="&#xa4;" 
d="M50 144q0 28 34 56l23 19q-32 53 -32 115q0 67 36 122l-75 60q10 25 34 49q19 19 40 19q28 0 56 -34l19 -23q53 32 115 32q67 0 122 -36l60 75q25 -10 49 -34q19 -19 19 -40q0 -28 -34 -56l-23 -19q32 -53 32 -115q0 -66 -36 -122l75 -60q-10 -25 -34 -49
q-19 -19 -40 -19q-28 0 -56 34l-19 23q-53 -32 -115 -32q-66 0 -122 36l-60 -75q-25 10 -49 34q-19 19 -19 40zM229.5 263.5q29.5 -29.5 70.5 -29.5t70.5 29.5t29.5 70.5t-29.5 70.5t-70.5 29.5t-70.5 -29.5t-29.5 -70.5t29.5 -70.5z" />
    <glyph glyph-name="dollar" unicode="$" horiz-adv-x="607" 
d="M508 74q-57 -57 -157 -70v-74q-6 -7 -15.5 -11t-18.5 -4q-25 0 -38 16.5t-13 47.5v22q-61 3 -107 22.5t-70.5 50.5t-24.5 69q0 27 19 46t54 26q15 -40 50 -65t79 -31v183h-2q-105 26 -150 79.5t-45 135.5q0 81 53.5 134.5t143.5 65.5v71q6 6 15.5 9.5t18.5 3.5
q25 0 38 -16t13 -46v-21q81 -7 129.5 -46t48.5 -94q0 -27 -18.5 -46t-53.5 -27q-10 37 -39 61.5t-67 33.5v-163q4 0 10 -2q116 -28 160 -83t44 -135q0 -86 -57 -143zM225 489q12 -16 41 -27v136q-53 -14 -53 -68q0 -25 12 -41zM351 124q68 17 68 80q0 33 -16.5 51t-51.5 28
v-159z" />
    <glyph glyph-name="Euro" unicode="&#x20ac;" horiz-adv-x="671" 
d="M640.5 148.5q15.5 -16.5 15.5 -40.5q0 -30 -22.5 -55t-62 -39t-88.5 -14q-127 0 -213 66.5t-114 184.5h-114q-7 13 -7 33q0 25 17 38.5t49 13.5h43v23v22h-102q-7 13 -7 33q0 25 17 38.5t49 13.5h55q27 119 113 186.5t214 67.5q49 0 88.5 -14t62 -39t22.5 -55
q0 -24 -15.5 -40.5t-44.5 -23.5q-17 21 -47.5 32.5t-69.5 11.5q-65 0 -105.5 -31t-56.5 -95h236q7 -14 7 -32q0 -25 -17 -39t-49 -14h-188v-21v-24h177q7 -14 7 -32q0 -25 -17 -39t-49 -14h-106q33 -123 161 -123q39 0 69.5 11.5t47.5 32.5q29 -7 44.5 -23.5z" />
    <glyph glyph-name="sterling" unicode="&#xa3;" horiz-adv-x="535" 
d="M409 115q51 0 76 -20.5t25 -67.5q0 -16 -3 -27h-456q-5 8 -5 92q43 26 68 65t25 82q0 27 -8 48h-89q-7 12 -7 34q0 61 73 61h7q-15 44 -21 68.5t-6 56.5q0 59 27 107.5t80.5 77t127.5 28.5q75 0 122.5 -27.5t47.5 -71.5q0 -25 -16.5 -43.5t-42.5 -21.5q-10 16 -36 25.5
t-58 9.5q-49 0 -76.5 -25t-27.5 -69q0 -19 4.5 -41.5t5.5 -26.5l9 -47h152q7 -22 7 -37q0 -28 -19 -43t-54 -15h-78q2 -22 2 -34q0 -45 -20 -81.5t-73 -62.5q114 6 197 6h40z" />
    <glyph glyph-name="yen" unicode="&#xa5;" horiz-adv-x="685" 
d="M420 285v-45h143q7 -14 7 -32q0 -25 -17 -39t-49 -14h-84v-149q-24 -13 -63 -13q-44 0 -67.5 23.5t-23.5 67.5v71h-144q-7 13 -7 33q0 25 17 38.5t49 13.5h85v43l-1 2h-143q-7 13 -7 33q0 25 17 38.5t49 13.5h32l-187 305q18 25 41.5 37t47.5 12q26 0 46 -10.5t37 -41.5
l143 -249l163 293h162l-204 -346h101q7 -14 7 -32q0 -25 -17 -39t-49 -14h-84z" />
    <glyph glyph-name="plus" unicode="+" horiz-adv-x="599" 
d="M554 258h-189v-103q0 -48 -21 -74t-61 -26q-28 0 -48 10v193h-99q-49 0 -75 20t-26 58q0 24 11 46h189v101q0 49 20.5 75t60.5 26q25 0 49 -11v-191h99q48 0 74 -20.5t26 -58.5q0 -27 -10 -45z" />
    <glyph glyph-name="minus" unicode="&#x2212;" horiz-adv-x="559" 
d="M136 258q-49 0 -75 20t-26 58q0 24 11 46h378q48 0 74 -20.5t26 -58.5q0 -27 -10 -45h-378z" />
    <glyph glyph-name="multiply" unicode="&#xd7;" horiz-adv-x="558" 
d="M368 320l134 -135q-9 -27 -24 -41q-23 -23 -51 -23q-36 0 -75 39l-72 72l-135 -136q-28 10 -41 25q-23 23 -23 50q0 37 40 77l72 72l-137 137q5 19 24 38q23 23 53 23q37 0 74 -37l73 -73l135 136q25 -8 39 -25q24 -24 24 -53q0 -36 -38 -74z" />
    <glyph glyph-name="divide" unicode="&#xf7;" 
d="M213 442q-25 24 -25 64q0 38 25 62t67 24q41 0 66 -24t25 -62q0 -40 -25 -64t-66 -24q-42 0 -67 24zM136 258q-49 0 -75 20t-26 58q0 24 11 46h378q48 0 74 -20.5t26 -58.5q0 -27 -10 -45h-378zM213 72q-25 24 -25 63t25 63t67 24q41 0 66 -24t25 -63t-25 -63t-66 -24
q-42 0 -67 24z" />
    <glyph glyph-name="equal" unicode="=" horiz-adv-x="559" 
d="M136 368q-49 0 -75 20t-26 58q0 24 11 46h378q48 0 74 -20.5t26 -58.5q0 -27 -10 -45h-378zM136 148q-49 0 -75 20t-26 58q0 24 11 46h378q48 0 74 -20.5t26 -58.5q0 -27 -10 -45h-378z" />
    <glyph glyph-name="notequal" unicode="&#x2260;" horiz-adv-x="579" 
d="M434 272q48 0 74 -20.5t26 -58.5q0 -27 -10 -45h-231l-10 -27q-12 -35 -37.5 -55t-69.5 -20q-12 0 -23.5 3.5t-18.5 10.5l32 88h-6q-115 0 -115 78q0 24 11 46h155l34 96h-99q-49 0 -75 20t-26 58q0 24 11 46h234l6 16q12 34 35.5 53t70.5 19q12 0 24 -3.5t19 -10.5
l-27 -74h16q48 0 74 -20.5t26 -58.5q0 -27 -10 -45h-151l-35 -96h96z" />
    <glyph glyph-name="greater" unicode="&#x3e;" horiz-adv-x="447" 
d="M50 91q0 71 63 97q129 52 208 71q-72 14 -208 71q-34 14 -48.5 37t-14.5 63q0 28 13 68l140 -67q22 -11 70.5 -34.5t84.5 -39.5q29 -14 41.5 -35.5t12.5 -59.5v-74q-174 -87 -349 -166q-13 33 -13 69z" />
    <glyph glyph-name="less" unicode="&#x3c;" horiz-adv-x="447" 
d="M244 89q-22 11 -70.5 34.5t-84.5 39.5q-29 14 -41.5 35.5t-12.5 59.5v74q174 87 349 166q13 -32 13 -69q0 -71 -63 -97q-129 -52 -208 -71q72 -14 208 -71q34 -14 48.5 -37t14.5 -63q0 -28 -13 -68z" />
    <glyph glyph-name="greaterequal" unicode="&#x2265;" horiz-adv-x="614" 
d="M563 303l-499 -121q-13 27 -13 59q0 36 23 59.5t61 30.5l297 51l-298 45q-45 7 -64 31t-19 62q0 23 13 58l418 -89q48 -10 64.5 -34.5t16.5 -67.5v-84zM552 124q10 -18 10 -45q0 -38 -26 -58.5t-74 -20.5h-398q-11 22 -11 46q0 38 26 58t75 20h398z" />
    <glyph glyph-name="lessequal" unicode="&#x2264;" 
d="M51 303v84q0 43 16.5 67.5t64.5 34.5l418 89q13 -35 13 -58q0 -38 -19 -62t-64 -31l-298 -45l297 -51q38 -7 61 -30.5t23 -59.5q0 -32 -13 -59zM152 0q-48 0 -74 20.5t-26 58.5q0 27 10 45h398q49 0 75 -20t26 -58q0 -24 -11 -46h-398z" />
    <glyph glyph-name="plusminus" unicode="&#xb1;" horiz-adv-x="619" 
d="M528 347.5q-26 -20.5 -74 -20.5h-79v-131q-24 -11 -49 -11q-40 0 -60.5 26t-20.5 75v41h-169q-11 22 -11 46q0 38 26 58t75 20h79v133q20 10 48 10q40 0 61 -26t21 -74v-43h169q10 -18 10 -45q0 -38 -26 -58.5zM554 124q10 -18 10 -45q0 -38 -26 -58.5t-74 -20.5h-398
q-11 22 -11 46q0 38 26 58t75 20h398z" />
    <glyph glyph-name="approxequal" unicode="&#x2248;" 
d="M149 477q14 22 37 22q14 0 25.5 -8t14.5 -20q-6 -3 -9.5 -13.5t-3.5 -24.5q0 -37 24 -37q9 0 15.5 7.5t18.5 24.5q22 33 45.5 52t65.5 19q47 0 75 -27.5t28 -77.5q0 -36 -14.5 -57.5t-36.5 -21.5q-14 0 -25.5 8t-14.5 19q6 4 9.5 14.5t3.5 24.5q0 36 -25 36q-9 0 -17 -8
t-18 -25q-20 -32 -43 -50.5t-65 -18.5q-47 0 -75.5 27.5t-28.5 76.5q0 36 14 58zM149 262q14 22 37 22q14 0 25.5 -8t14.5 -20q-6 -3 -9.5 -13.5t-3.5 -24.5q0 -37 24 -37q9 0 15.5 7.5t18.5 24.5q22 33 45.5 52t65.5 19q47 0 75 -27.5t28 -77.5q0 -37 -14.5 -58t-36.5 -21
q-14 0 -25.5 8t-14.5 19q6 4 9.5 14.5t3.5 24.5q0 36 -25 36q-9 0 -17 -8t-18 -25q-20 -32 -43 -50.5t-65 -18.5q-47 0 -75.5 27.5t-28.5 76.5q0 36 14 58z" />
    <glyph glyph-name="asciitilde" unicode="~" horiz-adv-x="470" 
d="M74 384q14 27 37 27q14 0 25.5 -9.5t14.5 -24.5q-6 -4 -9.5 -16.5t-3.5 -29.5q0 -45 24 -45q9 0 16 9t18 30q22 40 45.5 63t65.5 23q47 0 75 -33.5t28 -93.5q0 -44 -14.5 -70t-36.5 -26q-14 0 -25.5 9.5t-14.5 23.5q6 4 9.5 17t3.5 30q0 44 -25 44q-10 0 -17.5 -10
t-17.5 -30q-20 -39 -43 -61.5t-65 -22.5q-47 0 -75.5 33t-28.5 93q0 43 14 70z" />
    <glyph glyph-name="logicalnot" unicode="&#xac;" horiz-adv-x="503" 
d="M46 382h412v-174q0 -48 -20.5 -74t-58.5 -26q-27 0 -45 10v140h-198q-49 0 -75 20t-26 58q0 24 11 46z" />
    <glyph glyph-name="asciicircum" unicode="^" horiz-adv-x="372" 
d="M187 720q25 0 39 -7.5t23 -26.5l88 -183q-20 -8 -45 -8q-29 0 -45 8.5t-26 30.5q-10 20 -22 58t-14 52q-1 -12 -13.5 -49.5t-22.5 -60.5q-10 -21 -25 -30.5t-40 -9.5q-11 0 -27.5 3t-21.5 6q49 110 103 217h49z" />
    <glyph glyph-name="emptyset" unicode="&#x2205;" horiz-adv-x="790" 
d="M674 594q39 -47 60 -107t21 -127q0 -102 -47 -184t-129 -129t-184 -47q-67 0 -127 21t-107 60l-53 -53l-44 45l52 52q-39 47 -60 107t-21 128q0 102 46.5 184.5t129 129t184.5 46.5q68 0 128 -21t107 -60l53 53l44 -45zM174 183l399 399q-36 28 -81.5 43t-96.5 15
q-80 0 -144 -36t-100 -100t-36 -144q0 -104 59 -177zM539 116q64 36 100 100t36 144q0 103 -58 177l-399 -399q74 -58 177 -58q80 0 144 36z" />
    <glyph glyph-name="infinity" unicode="&#x221e;" horiz-adv-x="905" 
d="M156 145q-49 28 -77.5 78t-28.5 115q0 64 28 115.5t77.5 81t109.5 29.5q58 0 107 -31.5t79 -80.5q33 50 81 81t107 31q60 0 109.5 -29.5t78 -81t28.5 -115.5t-28.5 -114.5t-78 -78.5t-108.5 -28q-62 0 -109.5 28.5t-79.5 79.5q-29 -50 -78 -79t-109 -29q-59 0 -108 28z
M376 339q-47 67 -101 67q-30 0 -48 -19t-18 -48t18 -49t48 -20q52 0 101 69zM676 290q18 20 18 49t-18 48t-48 19q-29 0 -54.5 -19t-44.5 -48q47 -69 99 -69q30 0 48 20z" />
    <glyph glyph-name="integral" unicode="&#x222b;" horiz-adv-x="658" 
d="M58 -9q28 -22 59 -22q38 0 58.5 21.5t29.5 69.5l96 491q17 89 70 134t130 45q58 0 90 -20t32 -58q0 -33 -23 -60q-28 22 -59 22q-38 0 -58.5 -21.5t-29.5 -69.5l-96 -491q-17 -89 -70 -134t-130 -45q-58 0 -90 20t-32 58q0 33 23 60z" />
    <glyph glyph-name="product" unicode="&#x220f;" horiz-adv-x="752" 
d="M714 720q13 -18 13 -48q0 -38 -23.5 -58t-67.5 -20h-37v-720q-10 -7 -27 -11.5t-35 -4.5q-43 0 -65.5 29.5t-22.5 84.5v622h-160v-720q-10 -7 -27 -11.5t-35 -4.5q-43 0 -65.5 29.5t-22.5 84.5v622h-101q-6 10 -9.5 25.5t-3.5 32.5q0 33 23.5 50.5t67.5 17.5h598z" />
    <glyph glyph-name="summation" unicode="&#x2211;" horiz-adv-x="646" 
d="M236 382l-188 251v87h558l-8 -152h-303l145 -186l-154 -228h328l-16 -154h-566v89z" />
    <glyph glyph-name="radical" unicode="&#x221a;" horiz-adv-x="708" 
d="M89 412h-83v117h226l118 -405l179 596h169l-244 -720h-232z" />
    <glyph glyph-name="partialdiff" unicode="&#x2202;" 
d="M66 401q31 61 85.5 95.5t122.5 34.5q42 0 73 -22q-22 36 -55.5 74.5t-68.5 68.5l66 80q84 -47 147.5 -118.5t98.5 -156t35 -169.5q0 -138 -73.5 -218t-203.5 -80q-77 0 -135 32t-90.5 93.5t-32.5 148.5q0 76 31 137zM223 152.5q29 -39.5 79 -39.5t78 39.5t28 111.5
q0 71 -27.5 108.5t-78.5 37.5t-79.5 -37t-28.5 -109t29 -111.5z" />
    <glyph glyph-name="percent" unicode="%" horiz-adv-x="899" 
d="M80 388.5q-50 54.5 -50 143.5t50 143.5t132 54.5t132 -54.5t50 -143.5t-50 -143.5t-132 -54.5t-132 54.5zM561 670q17 30 31 40t45 10h73l-372 -670q-17 -30 -31.5 -40t-45.5 -10h-73zM257.5 458q16.5 25 16.5 74t-16.5 74t-45.5 25t-45.5 -25t-16.5 -74t16.5 -74
t45.5 -25t45.5 25zM555 44.5q-50 54.5 -50 143.5t50 143.5t132 54.5t132 -54.5t50 -143.5t-50 -143.5t-132 -54.5t-132 54.5zM732.5 114q16.5 25 16.5 74t-16.5 74t-45.5 25t-45.5 -25t-16.5 -74t16.5 -74t45.5 -25t45.5 25z" />
    <glyph glyph-name="perthousand" unicode="&#x2030;" horiz-adv-x="1294" 
d="M80 388.5q-50 54.5 -50 143.5t50 143.5t132 54.5t132 -54.5t50 -143.5t-50 -143.5t-132 -54.5t-132 54.5zM561 670q17 30 31 40t45 10h73l-372 -670q-17 -30 -31.5 -40t-45.5 -10h-73zM257.5 458q16.5 25 16.5 74t-16.5 74t-45.5 25t-45.5 -25t-16.5 -74t16.5 -74
t45.5 -25t45.5 25zM555 44.5q-50 54.5 -50 143.5t50 143.5t132 54.5t132 -54.5t50 -143.5t-50 -143.5t-132 -54.5t-132 54.5zM950 44.5q-50 54.5 -50 143.5t50 143.5t132 54.5t132 -54.5t50 -143.5t-50 -143.5t-132 -54.5t-132 54.5zM732.5 114q16.5 25 16.5 74t-16.5 74
t-45.5 25t-45.5 -25t-16.5 -74t16.5 -74t45.5 -25t45.5 25zM1127.5 114q16.5 25 16.5 74t-16.5 74t-45.5 25t-45.5 -25t-16.5 -74t16.5 -74t45.5 -25t45.5 25z" />
    <glyph glyph-name="arrowup" unicode="&#x2191;" horiz-adv-x="615" 
d="M320 616q76 -57 146.5 -108.5t78.5 -52.5q0 -40 -17 -64t-44 -24q-23 0 -51 21.5t-66 63.5l8 -391h-136l8 390q-76 -84 -116 -84q-27 0 -44 24t-17 64q8 1 78.5 52.5t146.5 108.5h25z" />
    <glyph glyph-name="arrowright" unicode="&#x2192;" horiz-adv-x="683" 
d="M510.5 498.5q51.5 -70.5 108.5 -146.5v-25q-57 -76 -108.5 -146.5t-52.5 -78.5q-40 0 -64 17t-24 44q0 23 21.5 51t63.5 66l-391 -8v136l390 -8q-84 76 -84 116q0 27 24 44t64 17q1 -8 52.5 -78.5z" />
    <glyph glyph-name="arrowdown" unicode="&#x2193;" horiz-adv-x="615" 
d="M528 289q17 -24 17 -64q-8 -1 -78.5 -52.5t-146.5 -108.5h-25q-76 57 -146.5 108.5t-78.5 52.5q0 40 17 64t44 24q23 0 51 -21.5t66 -63.5l-8 391h136l-8 -390q76 84 116 84q27 0 44 -24z" />
    <glyph glyph-name="arrowleft" unicode="&#x2190;" horiz-adv-x="683" 
d="M619 408v-136l-391 8q42 -38 63.5 -66t21.5 -51q0 -27 -24 -44t-64 -17q-1 8 -52.5 78.5t-108.5 146.5v25q57 76 108.5 146.5t52.5 78.5q40 0 64 -17t24 -44q0 -40 -84 -116z" />
    <glyph glyph-name="lozenge" unicode="&#x25ca;" horiz-adv-x="558" 
d="M182 479q16 25 34 35.5t51 10.5h87l159 -262l-159 -263h-87q-33 0 -51 10.5t-34 35.5l-137 217zM280 406l-81 -143l81 -144l84 144z" />
    <glyph glyph-name="at" unicode="@" horiz-adv-x="874" 
d="M656 656.5q87 -43.5 135 -123.5t48 -184q0 -79 -26.5 -138t-72.5 -90.5t-104 -31.5q-51 0 -88 24t-45 62q-30 -73 -109 -73q-69 0 -109 51.5t-40 140.5q0 90 40.5 142.5t108.5 52.5q38 0 66 -16.5t42 -48.5q0 31 17.5 48t49.5 17q27 0 49 -11v-253q0 -19 9 -29.5
t25 -10.5q34 0 55.5 44.5t21.5 111.5q0 78 -34.5 138t-96.5 93t-144 33q-92 0 -162 -38t-108.5 -108.5t-38.5 -164.5q0 -91 35.5 -158t101.5 -103.5t153 -36.5q88 0 131 35q30 -15 30 -47q0 -39 -42 -61t-121 -22q-119 0 -209 49.5t-139.5 139t-49.5 206.5q0 121 53 212.5
t148.5 141.5t218.5 50q114 0 201 -43.5zM502 334q0 30 -20 50t-49 20q-35 0 -55 -29t-20 -79q0 -51 20.5 -80t55.5 -29q28 0 48 18.5t20 44.5v84z" />
    <glyph glyph-name="ampersand" unicode="&#x26;" horiz-adv-x="827" 
d="M807 0h-213l-80 78q-41 -42 -98 -65t-121 -23q-77 0 -136 28t-91 79.5t-32 120.5q0 83 44 148t122 96q-4 16 -4 38q0 67 34 119.5t94 81t136 28.5q91 0 143 -34t52 -87q0 -33 -20 -53t-63 -32q-26 76 -111 76q-50 0 -81 -28.5t-31 -73.5q0 -32 20 -65t69 -81l75 -72
l14 22q29 49 50.5 77.5t49.5 48t63 19.5q37 0 62 -23t25 -63q0 -28 -7 -55q-12 3 -22 3q-26 0 -48 -15.5t-37.5 -35.5t-52.5 -71zM420 166l-73 73q-63 63 -100 117q-31 -15 -47.5 -46t-16.5 -71q0 -52 33 -84t93 -32q68 0 111 43z" />
    <glyph glyph-name="paragraph" unicode="&#xb6;" horiz-adv-x="782" 
d="M744 720q13 -18 13 -48q0 -38 -23.5 -58t-67.5 -20h-37v-720q-10 -7 -27 -11.5t-35 -4.5q-43 0 -65.5 29.5t-22.5 84.5v622h-110v-720q-10 -7 -27 -11.5t-35 -4.5q-43 0 -65.5 29.5t-22.5 84.5v417h-10q-87 0 -135.5 45t-48.5 121q0 78 50 121.5t134 43.5h535z" />
    <glyph glyph-name="section" unicode="&#xa7;" horiz-adv-x="513" 
d="M57.5 146.5q15.5 20.5 42.5 29.5q9 -37 44.5 -58t83.5 -21q76 0 76 53q0 27 -20 37t-72 20l-21 4q-73 15 -110 44t-37 80q0 42 22 74t59 46q-62 31 -62 106q0 78 58.5 123.5t159.5 45.5q78 0 125.5 -26.5t47.5 -70.5t-54 -67q-16 28 -48.5 44t-73.5 16q-32 0 -49.5 -11
t-17.5 -33q0 -17 10.5 -26t25 -13t53.5 -13q8 -2 59 -13t82.5 -44t31.5 -84q0 -81 -73 -118q26 -17 40 -46.5t14 -66.5q0 -78 -62.5 -123t-165.5 -45q-86 0 -135 30.5t-49 78.5q0 27 15.5 47.5zM201.5 346.5q10.5 -8.5 35 -16t55.5 -14.5q14 5 22.5 18t8.5 28q0 19 -11.5 29
t-25 14t-55.5 14q-18 -5 -29 -18t-11 -31q0 -15 10.5 -23.5z" />
    <glyph glyph-name="copyright" unicode="&#xa9;" horiz-adv-x="790" 
d="M210.5 43.5q-82.5 46.5 -129 129t-46.5 184.5t46.5 184.5t129 129t184.5 46.5t184.5 -46.5t129 -129t46.5 -184.5t-47 -184t-129 -129t-184 -47t-184.5 46.5zM539 113q64 36 100 100t36 144t-36 144t-100 100t-144 36t-144 -36t-100 -100t-36 -144t36 -144t100 -100
t144 -36t144 36zM312 186q-43 25 -67.5 70t-24.5 104t24.5 104t68 70t99.5 25q58 0 95.5 -23.5t37.5 -60.5q0 -39 -56 -51q-20 50 -77 50q-87 0 -87 -114q0 -55 21.5 -84.5t64.5 -29.5q57 0 78 50q26 -5 41 -17.5t15 -30.5q0 -37 -37 -62t-97 -25q-56 0 -99 25z" />
    <glyph glyph-name="registered" unicode="&#xae;" horiz-adv-x="790" 
d="M579.5 670.5q82.5 -46.5 129 -129t46.5 -184.5t-47 -184t-129 -129t-184 -47t-184.5 46.5t-129 129t-46.5 184.5t46.5 184.5t129 129t184.5 46.5t184.5 -46.5zM539 113q64 36 100 100t36 144t-36 144t-100 100t-144 36t-144 -36t-100 -100t-36 -144t36 -144t100 -100
t144 -36t144 36zM529 364q-21 -28 -54 -38l15 -24l59 -103q-7 -7 -23 -12.5t-32 -5.5q-29 0 -43.5 13t-25.5 46l-25 76h-42v-129q-7 -4 -18.5 -6.5t-21.5 -2.5q-51 0 -51 45v313h171q52 0 82 -29t30 -80q0 -35 -21 -63zM421 386q18 0 28.5 10.5t10.5 27.5q0 39 -39 39h-63
v-77h63z" />
    <glyph glyph-name="trademark" unicode="&#x2122;" horiz-adv-x="618" 
d="M265 658h-82v-204q-9 -6 -20 -6q-29 0 -42.5 12.5t-13.5 45.5v152h-46q-22 0 -34 6.5t-12 19.5q0 26 1 36h204q46 0 46 -44q0 -14 -1 -18zM442 580l56 140h51q25 0 34.5 -12t9.5 -43v-211q-16 -6 -35 -6t-29 11.5t-10 36.5v52q0 72 4 98q-15 -43 -29 -75q-2 -7 -8 -21
l-27 -64q-8 -4 -17 -4q-8 0 -13 4t-10 14l-21 50q-34 81 -38 97q1 -9 2.5 -44.5t1.5 -54.5v-94q-12 -6 -26 -6q-48 0 -48 48v224h61q19 0 31 -8.5t21 -29.5z" />
    <glyph glyph-name="degree" unicode="&#xb0;" horiz-adv-x="390" 
d="M113.5 417.5q-36.5 20.5 -57.5 57t-21 81.5q0 46 21 82.5t57.5 57.5t82.5 21q45 0 81.5 -21t57 -57.5t20.5 -82.5q0 -45 -20.5 -81.5t-57 -57t-81.5 -20.5q-46 0 -82.5 20.5zM252.5 499.5q22.5 22.5 22.5 56.5q0 36 -22 58.5t-57 22.5t-58 -22.5t-23 -58.5
q0 -34 23 -56.5t58 -22.5q34 0 56.5 22.5z" />
    <glyph glyph-name="bar" unicode="|" horiz-adv-x="328" 
d="M233 -126q-10 -7 -25 -11.5t-31 -4.5q-40 0 -61 29.5t-21 84.5v741q10 8 25.5 12.5t31.5 4.5q39 0 60 -29.5t21 -84.5v-742z" />
    <glyph glyph-name="brokenbar" unicode="&#xa6;" horiz-adv-x="328" 
d="M233 374q-9 -7 -24.5 -11.5t-30.5 -4.5q-40 0 -61.5 29t-21.5 85v241q10 8 26 12.5t32 4.5q38 0 59 -29.5t21 -84.5v-242zM233 -126q-9 -7 -24.5 -11.5t-30.5 -4.5q-40 0 -61.5 29t-21.5 85v241q11 8 28 12.5t35 4.5q36 0 55.5 -29.5t19.5 -84.5v-242z" />
    <glyph glyph-name="dagger" unicode="&#x2020;" horiz-adv-x="479" 
d="M430 578q14 -17 14 -48q0 -32 -24 -49.5t-70 -17.5h-49v-377q-19 -14 -50 -14q-35 0 -54 26.5t-19 75.5v289h-130q-13 16 -13 47q0 33 24 50.5t70 17.5h49v137q20 15 51 15q35 0 53.5 -26.5t18.5 -75.5v-50h129z" />
    <glyph glyph-name="daggerdbl" unicode="&#x2021;" 
d="M59 320.5q24 17.5 70 17.5h49v125h-130q-13 17 -13 47q0 33 24 50.5t70 17.5h49v137q20 15 51 15q35 0 53.5 -26.5t18.5 -75.5v-50h129q14 -17 14 -48q0 -32 -24 -49.5t-70 -17.5h-49v-125h129q14 -17 14 -47q0 -32 -24.5 -50t-69.5 -18h-49v-49q0 -49 -18.5 -75.5
t-53.5 -26.5q-31 0 -51 15v136h-130q-13 16 -13 48t24 49.5z" />
    <glyph glyph-name="registered.small" horiz-adv-x="361" 
d="M52 654.5q21 34.5 56.5 53.5t77.5 19q41 0 76.5 -19t56.5 -53.5t21 -78.5t-21 -78t-56.5 -53t-76.5 -19q-42 0 -77.5 19t-56.5 53t-21 78t21 78.5zM100.5 491q32.5 -32 85.5 -32t85 32.5t32 84.5q0 53 -32 85.5t-85 32.5t-85.5 -32.5t-32.5 -85.5t32.5 -85zM125 661h86
q24 0 38 -13.5t14 -38.5q0 -15 -8.5 -28t-23.5 -19l29 -57q-4 -5 -12.5 -8.5t-16.5 -3.5q-21 0 -30 24l-14 39h-16v-60q-8 -5 -21 -5q-25 0 -25 22v148zM200 591q17 0 17 17q0 16 -17 16h-29v-33h29z" />
    <glyph glyph-name="ampersand.ss03" horiz-adv-x="670" 
d="M82.5 320.5q31.5 50.5 86.5 74.5q-42 11 -70 49.5t-28 92.5q0 56 32.5 100t91.5 68.5t137 24.5q90 0 143.5 -30t53.5 -83q0 -26 -15 -43t-46 -29q-42 76 -136 76q-52 0 -83.5 -24.5t-31.5 -64.5q0 -42 31 -63.5t84 -21.5h320q5 -15 5 -27q0 -39 -21 -60.5t-64 -22.5v-331
q-9 -6 -22.5 -9.5t-27.5 -3.5q-43 0 -58.5 24t-13.5 76q-17 -50 -63 -76.5t-115 -26.5q-67 0 -117 27t-77 75.5t-27 110.5q0 67 31.5 117.5zM221 140q32 -31 91 -31q61 0 99 34.5t38 94.5v99h-132q-61 0 -94.5 -30t-33.5 -82q0 -54 32 -85z" />
    <glyph glyph-name="uni0308" unicode="&#x308;" horiz-adv-x="0" 
d="M-389 678l65 72l69 -60q11 -9 11 -24q0 -14 -11 -25l-65 -72l-69 60q-11 10 -11 24t11 25zM-199 678l65 72l69 -60q11 -11 11 -24q0 -10 -11 -25l-65 -72l-69 60q-11 10 -11 24q0 10 11 25z" />
    <glyph glyph-name="uni0307" unicode="&#x307;" horiz-adv-x="0" 
d="M-210 679l70 78l74 -65q12 -11 12 -25q0 -13 -12 -27l-70 -78l-74 65q-12 10 -12 25q0 13 12 27z" />
    <glyph glyph-name="gravecomb" unicode="&#x300;" horiz-adv-x="0" 
d="M-52 593l-62 -19l-206 163l150 29z" />
    <glyph glyph-name="acutecomb" unicode="&#x301;" horiz-adv-x="0" 
d="M-257 574l-63 19l118 173l150 -29z" />
    <glyph glyph-name="uni030B" unicode="&#x30b;" horiz-adv-x="0" 
d="M-482 593l106 165l129 -29l-176 -155zM-287 593l106 165l129 -29l-175 -155z" />
    <glyph glyph-name="uni0302" unicode="&#x302;" horiz-adv-x="0" 
d="M-176 754l120 -168l-59 -20l-119 87l-120 -87l-60 20l120 168h118z" />
    <glyph glyph-name="uni030C" unicode="&#x30c;" horiz-adv-x="0" 
d="M-294 584l-120 168l59 20l119 -87l120 87l60 -20l-120 -168h-118z" />
    <glyph glyph-name="uni0306" unicode="&#x306;" horiz-adv-x="0" 
d="M-281 745q18 -76 81 -76t78 76l68 -1q-2 -77 -39.5 -120.5t-109.5 -43.5t-108 43t-38 121z" />
    <glyph glyph-name="uni030A" unicode="&#x30a;" horiz-adv-x="0" 
d="M-279.5 601q-34.5 32 -34.5 86q0 53 35.5 85t96.5 32q60 0 95 -31.5t35 -84.5q0 -54 -36 -86.5t-98 -32.5q-59 0 -93.5 32zM-146.5 647.5q12.5 14.5 12.5 34.5t-12.5 35t-34.5 15q-24 0 -37 -14.5t-13 -34.5t13.5 -35t36.5 -15q22 0 34.5 14.5z" />
    <glyph glyph-name="tildecomb" unicode="&#x303;" horiz-adv-x="0" 
d="M-249.5 731.5q15.5 -7.5 39.5 -22.5q17 -12 29.5 -18.5t25.5 -6.5q21 0 32 10.5t20 36.5l51 -16q-6 -55 -38 -88t-80 -33q-19 0 -36 8t-38 23q-19 13 -30.5 19t-24.5 6q-21 0 -31.5 -10.5t-19.5 -36.5l-51 15q5 54 37 87.5t80 33.5q19 0 34.5 -7.5z" />
    <glyph glyph-name="uni0304" unicode="&#x304;" horiz-adv-x="0" 
d="M-52 602h-268v87h268v-87z" />
    <glyph glyph-name="uni0312" unicode="&#x312;" horiz-adv-x="0" 
d="M-63.5 701q18.5 -21 18.5 -50q0 -38 -23 -60t-60 -22q-43 0 -69 33t-26 86q0 63 33.5 102t88.5 39q25 0 40.5 -10t15.5 -28q0 -20 -13 -33q-9 11 -33 11q-27 0 -42.5 -13.5t-19.5 -44.5q13 11 41 11q30 0 48.5 -21z" />
    <glyph glyph-name="uni0326" unicode="&#x326;" horiz-adv-x="0" 
d="M-71 -82q26 -33 26 -86q0 -66 -33 -103.5t-89 -37.5q-25 0 -40.5 10t-15.5 28q0 20 13 33q9 -11 33 -11q29 0 45 14t18 45q-12 -12 -42 -12t-48.5 21t-18.5 50q0 38 23 60t60 22q43 0 69 -33z" />
    <glyph glyph-name="uni0327" unicode="&#x327;" horiz-adv-x="0" 
d="M-175 2q55 -10 89 -41t34 -70q0 -43 -34 -67t-89 -24q-70 0 -122 40l20 41q25 -11 50 -11t39.5 13t14.5 36q0 47 -59 83h57z" />
    <glyph glyph-name="uni0328" unicode="&#x328;" horiz-adv-x="0" 
d="M-116 2q-60 -35 -60 -82q0 -24 14.5 -37t39.5 -13q24 0 51 11l19 -41q-52 -40 -122 -40q-55 0 -89 23.5t-34 65.5q0 40 34 71.5t89 41.5h58z" />
    <glyph glyph-name="dieresis" unicode="&#xa8;" horiz-adv-x="454" 
d="M65 678l65 72l69 -60q11 -9 11 -24q0 -14 -11 -25l-65 -72l-69 60q-11 10 -11 24t11 25zM255 678l65 72l69 -60q11 -11 11 -24q0 -10 -11 -25l-65 -72l-69 60q-11 10 -11 24q0 10 11 25z" />
    <glyph glyph-name="dotaccent" unicode="&#x2d9;" horiz-adv-x="276" 
d="M66 679l70 78l74 -65q12 -11 12 -25q0 -13 -12 -27l-70 -78l-74 65q-12 10 -12 25q0 13 12 27z" />
    <glyph glyph-name="grave" unicode="`" horiz-adv-x="372" 
d="M320 593l-62 -19l-206 163l150 29z" />
    <glyph glyph-name="acute" unicode="&#xb4;" horiz-adv-x="372" 
d="M115 574l-63 19l118 173l150 -29z" />
    <glyph glyph-name="hungarumlaut" unicode="&#x2dd;" horiz-adv-x="534" 
d="M52 593l106 165l129 -29l-176 -155zM247 593l106 165l129 -29l-175 -155z" />
    <glyph glyph-name="circumflex" unicode="&#x2c6;" horiz-adv-x="470" 
d="M294 754l120 -168l-59 -20l-119 87l-120 -87l-60 20l120 168h118z" />
    <glyph glyph-name="caron" unicode="&#x2c7;" horiz-adv-x="470" 
d="M176 584l-120 168l59 20l119 -87l120 87l60 -20l-120 -168h-118z" />
    <glyph glyph-name="breve" unicode="&#x2d8;" horiz-adv-x="403" 
d="M122 745q18 -76 81 -76t78 76l68 -1q-2 -77 -39.5 -120.5t-109.5 -43.5t-108 43t-38 121z" />
    <glyph glyph-name="ring" unicode="&#x2da;" horiz-adv-x="366" 
d="M86.5 601q-34.5 32 -34.5 86q0 53 35.5 85t96.5 32q60 0 95 -31.5t35 -84.5q0 -54 -36 -86.5t-98 -32.5q-59 0 -93.5 32zM219.5 647.5q12.5 14.5 12.5 34.5t-12.5 35t-34.5 15q-24 0 -37 -14.5t-13 -34.5t13.5 -35t36.5 -15q22 0 34.5 14.5z" />
    <glyph glyph-name="tilde" unicode="&#x2dc;" horiz-adv-x="453" 
d="M203.5 731.5q15.5 -7.5 39.5 -22.5q17 -12 29.5 -18.5t25.5 -6.5q21 0 32 10.5t20 36.5l51 -16q-6 -55 -38 -88t-80 -33q-19 0 -36 8t-38 23q-19 13 -30.5 19t-24.5 6q-21 0 -31.5 -10.5t-19.5 -36.5l-51 15q5 54 37 87.5t80 33.5q19 0 34.5 -7.5z" />
    <glyph glyph-name="macron" unicode="&#xaf;" horiz-adv-x="372" 
d="M320 602h-268v87h268v-87z" />
    <glyph glyph-name="cedilla" unicode="&#xb8;" horiz-adv-x="349" 
d="M174 2q55 -10 89 -41t34 -70q0 -43 -34 -67t-89 -24q-70 0 -122 40l20 41q25 -11 50 -11t39.5 13t14.5 36q0 47 -59 83h57z" />
    <glyph glyph-name="ogonek" unicode="&#x2db;" horiz-adv-x="349" 
d="M233 2q-60 -35 -60 -82q0 -24 14.5 -37t39.5 -13q24 0 51 11l19 -41q-52 -40 -122 -40q-55 0 -89 23.5t-34 65.5q0 40 34 71.5t89 41.5h58z" />
    </font>
</defs>
</svg>
