<?xml version="1.0" standalone="no"?>
<!DOCTYPE svg PUBLIC "-//W3C//DTD SVG 1.1//EN" "http://www.w3.org/Graphics/SVG/1.1/DTD/svg11.dtd" >
<svg xmlns="http://www.w3.org/2000/svg" xmlns:xlink="http://www.w3.org/1999/xlink" version="1.1">
<metadata>
Created by FontForge 20200511 at Mon Feb  1 10:02:22 2021
 By convertio
Copyright (c) 2020 by Telkomsel . All rights reserved.
</metadata>
<defs>
<font id="TelkomselBatikSans-Regular" horiz-adv-x="0" >
  <font-face 
    font-family="Telkomsel Batik Sans"
    font-weight="400"
    font-stretch="normal"
    units-per-em="1000"
    panose-1="0 0 5 0 0 0 0 0 0 0"
    ascent="800"
    descent="-200"
    x-height="508"
    cap-height="727"
    bbox="-461 -280 1203 1006"
    underline-thickness="50"
    underline-position="-100"
    unicode-range="U+0020-FB01"
  />
<missing-glyph horiz-adv-x="606" 
d="M62 0v720h482v-720h-482z" />
    <glyph glyph-name="fi" unicode="fi" horiz-adv-x="651" 
d="M133 4v427q-55 1 -77.5 18t-22.5 59h112q-21 13 -34 38t-13 53q0 43 31.5 77t87.5 53t128 19q91 0 140 -21t49 -59q0 -24 -29 -48q-47 47 -141 47q-76 0 -120.5 -23.5t-44.5 -63.5q0 -24 11 -43t31 -29h142v-77h-147v-368q0 -67 -55 -67q-20 0 -48 8zM495 13.5
q-15 17.5 -15 49.5v445h103v-504q-21 -8 -42 -8q-31 0 -46 17.5z" />
    <glyph glyph-name="f_f.liga" unicode="ff" horiz-adv-x="756" 
d="M557 537q11 -19 31 -29h142v-77h-147v-368q0 -67 -55 -67q-20 0 -48 8v427h-244v-368q0 -67 -55 -67q-20 0 -48 8v427q-55 1 -77.5 18t-22.5 59h112q-21 14 -34 40.5t-13 56.5q0 61 48.5 99.5t125.5 38.5q53 0 82 -17t29 -48q0 -13 -3.5 -21t-13.5 -17q-28 22 -73 22
q-43 0 -68.5 -22t-25.5 -60q0 -24 11 -43t31 -29h251q-21 14 -34 40.5t-13 56.5q0 61 48.5 99.5t125.5 38.5q53 0 82 -17t29 -48q0 -13 -3.5 -21t-13.5 -17q-28 22 -73 22q-43 0 -68.5 -22t-25.5 -60q0 -24 11 -43z" />
    <glyph glyph-name="f_t.liga" unicode="ft" horiz-adv-x="714" 
d="M690 90q4 -11 4 -26q0 -36 -34 -54.5t-87 -18.5q-71 0 -108.5 35t-37.5 114v291h-191v-368q0 -67 -55 -67q-20 0 -48 8v427q-55 1 -77.5 18t-22.5 59h112q-21 14 -34 40.5t-13 56.5q0 61 48.5 99.5t125.5 38.5q53 0 82 -17t29 -48q0 -13 -3.5 -21t-13.5 -17
q-28 22 -73 22q-43 0 -68.5 -22t-25.5 -60q0 -24 11 -43t31 -29h185v135q24 8 42 8q61 0 61 -67v-76h140v-77h-139v-271q0 -45 16 -64t58 -19q16 0 41 9t33 26q8 -11 12 -22z" />
    <glyph glyph-name="s_p.liga" unicode="sp" horiz-adv-x="1052" 
d="M524 -176v746q-19 -2 -41.5 -19.5t-34.5 -40.5q-27 2 -27 34q0 27 23.5 56t63.5 48.5t86 19.5q17 0 33 -3v-235q20 41 62 64.5t100 23.5q102 0 159 -70.5t57 -192.5t-56.5 -193.5t-155.5 -71.5q-60 0 -103 27t-63 78v-212q0 -67 -61 -67q-18 0 -42 8zM84.5 14.5
q-46.5 24.5 -46.5 62.5q0 19 9 32.5t27 25.5q31 -65 127 -65q60 0 86 18t26 57q0 32 -28 46.5t-85 24.5q-67 12 -113 42.5t-46 103.5q0 74 56 114.5t148 40.5q66 0 109.5 -25t43.5 -67q0 -27 -38 -49q-10 28 -42 47t-79 19q-41 0 -69 -16t-28 -50q0 -26 15.5 -40t37.5 -20.5
t66 -14.5q45 -9 77 -21t56.5 -43t24.5 -85q0 -77 -57.5 -119.5t-164.5 -42.5q-66 0 -112.5 24.5zM864 120q38 48 38 133q0 84 -37.5 133.5t-101.5 49.5q-37 0 -68 -16.5t-49.5 -45t-18.5 -61.5v-110q0 -35 17.5 -65t48 -48t69.5 -18q64 0 102 48z" />
    <glyph glyph-name="t_t.liga" unicode="tt" horiz-adv-x="731" 
d="M707 90q4 -11 4 -26q0 -36 -34 -54.5t-87 -18.5q-71 0 -108.5 35t-37.5 114v291h-232v-271q0 -45 16 -64t58 -19q16 0 41 9t33 26q8 -11 12 -22t4 -26q0 -36 -34 -54.5t-87 -18.5q-71 0 -108.5 35t-37.5 114v292q-51 -1 -69 15t-18 61h86v135q24 8 42 8q61 0 61 -67v-76
h232v135q24 8 42 8q61 0 61 -67v-76h140v-77h-139v-271q0 -45 16 -64t58 -19q16 0 41 9t33 26q8 -11 12 -22z" />
    <glyph glyph-name=".notdef" horiz-adv-x="606" 
d="M62 0v720h482v-720h-482z" />
    <glyph glyph-name="space" unicode=" " horiz-adv-x="180" 
 />
    <glyph glyph-name="A" unicode="A" horiz-adv-x="705" 
d="M41 -1q-16 6 -24 16l265 705h70q30 0 50.5 -12.5t35.5 -51.5l250 -640q-18 -23 -58 -23q-32 0 -46 14.5t-24 40.5l-49 130h-318l-47 -131q-8 -22 -23.5 -38t-47.5 -16q-18 0 -34 6zM348 626l-124 -357h254z" />
    <glyph glyph-name="Aacute" unicode="&#xc1;" horiz-adv-x="705" 
d="M41 -1q-16 6 -24 16l265 705h70q30 0 50.5 -12.5t35.5 -51.5l250 -640q-18 -23 -58 -23q-32 0 -46 14.5t-24 40.5l-49 130h-318l-47 -131q-8 -22 -23.5 -38t-47.5 -16q-18 0 -34 6zM348 626l-124 -357h254zM352 786l-46 16l134 178l113 -23z" />
    <glyph glyph-name="Abreve" unicode="&#x102;" horiz-adv-x="705" 
d="M41 -1q-16 6 -24 16l265 705h70q30 0 50.5 -12.5t35.5 -51.5l250 -640q-18 -23 -58 -23q-32 0 -46 14.5t-24 40.5l-49 130h-318l-47 -131q-8 -22 -23.5 -38t-47.5 -16q-18 0 -34 6zM348 626l-124 -357h254zM245 947q9 -40 40 -61.5t68 -21.5t67.5 21.5t38.5 61.5h53
q-3 -49 -27.5 -83.5t-60 -52t-71.5 -17.5q-37 0 -72.5 17.5t-60 52t-28.5 83.5h53z" />
    <glyph glyph-name="Acircumflex" unicode="&#xc2;" horiz-adv-x="705" 
d="M41 -1q-16 6 -24 16l265 705h70q30 0 50.5 -12.5t35.5 -51.5l250 -640q-18 -23 -58 -23q-32 0 -46 14.5t-24 40.5l-49 130h-318l-47 -131q-8 -22 -23.5 -38t-47.5 -16q-18 0 -34 6zM348 626l-124 -357h254zM388 977l147 -182l-49 -17l-134 118l-135 -118l-51 17l149 182
h73z" />
    <glyph glyph-name="Adieresis" unicode="&#xc4;" horiz-adv-x="705" 
d="M41 -1q-16 6 -24 16l265 705h70q30 0 50.5 -12.5t35.5 -51.5l250 -640q-18 -23 -58 -23q-32 0 -46 14.5t-24 40.5l-49 130h-318l-47 -131q-8 -22 -23.5 -38t-47.5 -16q-18 0 -34 6zM348 626l-124 -357h254zM184 877l55 63l59 -52q8 -8 8 -21q0 -12 -8 -22l-55 -63l-59 53
q-8 9 -8 19q0 11 8 23zM402 877l53 63l60 -52q8 -6 8 -21q0 -12 -8 -22l-56 -63l-57 53q-10 9 -10 19q0 13 10 23z" />
    <glyph glyph-name="Agrave" unicode="&#xc0;" horiz-adv-x="705" 
d="M41 -1q-16 6 -24 16l265 705h70q30 0 50.5 -12.5t35.5 -51.5l250 -640q-18 -23 -58 -23q-32 0 -46 14.5t-24 40.5l-49 130h-318l-47 -131q-8 -22 -23.5 -38t-47.5 -16q-18 0 -34 6zM348 626l-124 -357h254zM399 802l-47 -16l-200 171l113 23z" />
    <glyph glyph-name="Amacron" unicode="&#x100;" horiz-adv-x="705" 
d="M41 -1q-16 6 -24 16l265 705h70q30 0 50.5 -12.5t35.5 -51.5l250 -640q-18 -23 -58 -23q-32 0 -46 14.5t-24 40.5l-49 130h-318l-47 -131q-8 -22 -23.5 -38t-47.5 -16q-18 0 -34 6zM348 626l-124 -357h254zM500 820h-297v67h297v-67z" />
    <glyph glyph-name="Aogonek" unicode="&#x104;" horiz-adv-x="705" 
d="M756 -154q-46 -39 -118 -39q-54 0 -89.5 23t-35.5 64q0 33 24 60t67 43q-19 6 -28 18.5t-16 32.5l-49 130h-318l-47 -131q-8 -22 -23.5 -38t-47.5 -16q-18 0 -34 6t-24 16l265 705h70q30 0 50.5 -12.5t35.5 -51.5l250 -640q-3 -5 -8 -8h10q-76 -35 -76 -89q0 -26 19 -40
t51 -14t57 14zM348 626l-124 -357h254z" />
    <glyph glyph-name="Aring" unicode="&#xc5;" horiz-adv-x="705" 
d="M41 -1q-16 6 -24 16l265 705h70q30 0 50.5 -12.5t35.5 -51.5l250 -640q-18 -23 -58 -23q-32 0 -46 14.5t-24 40.5l-49 130h-318l-47 -131q-8 -22 -23.5 -38t-47.5 -16q-18 0 -34 6zM348 626l-124 -357h254zM278.5 797q-30.5 16 -46 41.5t-15.5 53.5q0 46 36.5 80
t102.5 34q64 0 100 -30t36 -82t-38.5 -82.5t-101.5 -30.5q-43 0 -73.5 16zM403.5 847.5q17.5 17.5 17.5 43.5q0 24 -17.5 41.5t-48.5 17.5q-29 0 -48.5 -17t-19.5 -42q0 -28 18.5 -44.5t49.5 -16.5t48.5 17.5z" />
    <glyph glyph-name="Atilde" unicode="&#xc3;" horiz-adv-x="705" 
d="M41 -1q-16 6 -24 16l265 705h70q30 0 50.5 -12.5t35.5 -51.5l250 -640q-18 -23 -58 -23q-32 0 -46 14.5t-24 40.5l-49 130h-318l-47 -131q-8 -22 -23.5 -38t-47.5 -16q-18 0 -34 6zM348 626l-124 -357h254zM324 926.5q21 -10.5 49 -29.5q23 -15 36.5 -22t24.5 -7
q40 0 60 55l39 -13q-6 -48 -36.5 -79t-74.5 -31q-19 0 -39 10t-46 28q-24 16 -38.5 23.5t-27.5 7.5q-44 0 -59 -54l-39 13q4 48 34.5 78.5t75.5 30.5q20 0 41 -10.5z" />
    <glyph glyph-name="AE" unicode="&#xc6;" horiz-adv-x="957" 
d="M862 89q28 0 42.5 -13t14.5 -38v-38h-292q-32 0 -46 14.5t-24 40.5l-46 123h-318l-47 -131q-8 -22 -23.5 -38t-47.5 -16q-18 0 -34 6t-24 16l265 705h629v-38q0 -51 -66 -51h-397l85 -218h303v-31q0 -26 -16 -41t-45 -15h-208l92 -237h203zM348 626l-124 -357h254z" />
    <glyph glyph-name="B" unicode="B" horiz-adv-x="633" 
d="M88 0v720h260q106 0 165 -47.5t59 -133.5q0 -60 -33 -104t-81 -62q57 -8 96 -55t39 -118q0 -97 -71 -148.5t-190 -51.5h-244zM324 410q144 0 144 108q0 113 -144 113h-128v-221h128zM345 89q53 0 98.5 21t45.5 100q0 116 -138 116h-155v-237h149z" />
    <glyph glyph-name="C" unicode="C" horiz-adv-x="619" 
d="M191.5 35q-68.5 45 -105.5 128t-37 195q0 115 37.5 198.5t108 128.5t166.5 45q58 0 107 -18t78 -49t29 -68q0 -19 -12 -33t-39 -25q-26 51 -66 75t-97 24q-104 0 -153.5 -67.5t-49.5 -208.5q0 -140 50 -208t153 -68q58 0 100 26t62 75q52 -18 52 -58q0 -38 -29 -69.5
t-80 -49.5t-114 -18q-92 0 -160.5 45z" />
    <glyph glyph-name="Cacute" unicode="&#x106;" horiz-adv-x="619" 
d="M191.5 35q-68.5 45 -105.5 128t-37 195q0 115 37.5 198.5t108 128.5t166.5 45q58 0 107 -18t78 -49t29 -68q0 -19 -12 -33t-39 -25q-26 51 -66 75t-97 24q-104 0 -153.5 -67.5t-49.5 -208.5q0 -140 50 -208t153 -68q58 0 100 26t62 75q52 -18 52 -58q0 -38 -29 -69.5
t-80 -49.5t-114 -18q-92 0 -160.5 45zM361 786l-46 16l134 178l113 -23z" />
    <glyph glyph-name="Ccaron" unicode="&#x10c;" horiz-adv-x="619" 
d="M191.5 35q-68.5 45 -105.5 128t-37 195q0 115 37.5 198.5t108 128.5t166.5 45q58 0 107 -18t78 -49t29 -68q0 -19 -12 -33t-39 -25q-26 51 -66 75t-97 24q-104 0 -153.5 -67.5t-49.5 -208.5q0 -140 50 -208t153 -68q58 0 100 26t62 75q52 -18 52 -58q0 -38 -29 -69.5
t-80 -49.5t-114 -18q-92 0 -160.5 45zM324 788l-149 182l50 16l135 -115l134 115l50 -16l-147 -182h-73z" />
    <glyph glyph-name="Ccedilla" unicode="&#xc7;" horiz-adv-x="619" 
d="M575 127q0 -53 -53 -90.5t-136 -45.5q47 -14 73.5 -41t26.5 -62q0 -43 -36 -66t-92 -23q-72 0 -117 39l15 32q24 -14 57 -14q30 0 50 14.5t20 39.5q0 47 -61 81q-83 7 -144.5 54t-95 127.5t-33.5 185.5q0 115 37.5 198.5t108 128.5t166.5 45q58 0 107 -18t78 -49t29 -68
q0 -19 -12 -33t-39 -25q-26 51 -66 75t-97 24q-104 0 -153.5 -67.5t-49.5 -208.5q0 -140 50 -208t153 -68q58 0 100 26t62 75q52 -18 52 -58z" />
    <glyph glyph-name="Cdotaccent" unicode="&#x10a;" horiz-adv-x="619" 
d="M191.5 35q-68.5 45 -105.5 128t-37 195q0 115 37.5 198.5t108 128.5t166.5 45q58 0 107 -18t78 -49t29 -68q0 -19 -12 -33t-39 -25q-26 51 -66 75t-97 24q-104 0 -153.5 -67.5t-49.5 -208.5q0 -140 50 -208t153 -68q58 0 100 26t62 75q52 -18 52 -58q0 -38 -29 -69.5
t-80 -49.5t-114 -18q-92 0 -160.5 45zM300 873l57 66l62 -55q8 -9 8 -22q0 -8 -8 -22l-58 -66l-61 55q-10 8 -10 21q0 11 10 23z" />
    <glyph glyph-name="D" unicode="D" horiz-adv-x="685" 
d="M198 0q-53 0 -81.5 26t-28.5 73v621h225q153 0 238.5 -94.5t85.5 -264.5q0 -171 -84.5 -266t-236.5 -95h-118zM316 89q105 0 158 68.5t53 203.5q0 270 -214 270h-116v-542h119z" />
    <glyph glyph-name="Eth" unicode="&#xd0;" horiz-adv-x="685" 
d="M313 720q153 0 238.5 -94.5t85.5 -264.5q0 -171 -84.5 -266t-236.5 -95h-118q-53 0 -81.5 26t-28.5 73v221h-67v81h67v319h225zM316 89q105 0 158 68.5t53 203.5q0 270 -214 270h-116v-230h100v-81h-100v-231h119z" />
    <glyph glyph-name="Dcaron" unicode="&#x10e;" horiz-adv-x="685" 
d="M198 0q-53 0 -81.5 26t-28.5 73v621h225q153 0 238.5 -94.5t85.5 -264.5q0 -171 -84.5 -266t-236.5 -95h-118zM316 89q105 0 158 68.5t53 203.5q0 270 -214 270h-116v-542h119zM301 788l-149 182l50 16l135 -115l134 115l50 -16l-147 -182h-73z" />
    <glyph glyph-name="Dcroat" unicode="&#x110;" horiz-adv-x="685" 
d="M313 720q153 0 238.5 -94.5t85.5 -264.5q0 -171 -84.5 -266t-236.5 -95h-118q-53 0 -81.5 26t-28.5 73v221h-67v81h67v319h225zM316 89q105 0 158 68.5t53 203.5q0 270 -214 270h-116v-230h100v-81h-100v-231h119z" />
    <glyph glyph-name="E" unicode="E" horiz-adv-x="595" 
d="M175 0q-39 0 -63 23t-24 61v636h461v-38q0 -51 -66 -51h-286v-218h277v-31q0 -26 -16 -41t-45 -15h-216v-237h303q28 0 42.5 -13t14.5 -38v-38h-382z" />
    <glyph glyph-name="Eacute" unicode="&#xc9;" horiz-adv-x="595" 
d="M175 0q-39 0 -63 23t-24 61v636h461v-38q0 -51 -66 -51h-286v-218h277v-31q0 -26 -16 -41t-45 -15h-216v-237h303q28 0 42.5 -13t14.5 -38v-38h-382zM318 786l-46 16l134 178l113 -23z" />
    <glyph glyph-name="Ecaron" unicode="&#x11a;" horiz-adv-x="595" 
d="M175 0q-39 0 -63 23t-24 61v636h461v-38q0 -51 -66 -51h-286v-218h277v-31q0 -26 -16 -41t-45 -15h-216v-237h303q28 0 42.5 -13t14.5 -38v-38h-382zM281 788l-149 182l50 16l135 -115l134 115l50 -16l-147 -182h-73z" />
    <glyph glyph-name="Ecircumflex" unicode="&#xca;" horiz-adv-x="595" 
d="M175 0q-39 0 -63 23t-24 61v636h461v-38q0 -51 -66 -51h-286v-218h277v-31q0 -26 -16 -41t-45 -15h-216v-237h303q28 0 42.5 -13t14.5 -38v-38h-382zM354 977l147 -182l-49 -17l-134 118l-135 -118l-51 17l149 182h73z" />
    <glyph glyph-name="Edieresis" unicode="&#xcb;" horiz-adv-x="595" 
d="M175 0q-39 0 -63 23t-24 61v636h461v-38q0 -51 -66 -51h-286v-218h277v-31q0 -26 -16 -41t-45 -15h-216v-237h303q28 0 42.5 -13t14.5 -38v-38h-382zM150 877l55 63l59 -52q8 -8 8 -21q0 -12 -8 -22l-55 -63l-59 53q-8 9 -8 19q0 11 8 23zM368 877l53 63l60 -52
q8 -6 8 -21q0 -12 -8 -22l-56 -63l-57 53q-10 9 -10 19q0 13 10 23z" />
    <glyph glyph-name="Edotaccent" unicode="&#x116;" horiz-adv-x="595" 
d="M175 0q-39 0 -63 23t-24 61v636h461v-38q0 -51 -66 -51h-286v-218h277v-31q0 -26 -16 -41t-45 -15h-216v-237h303q28 0 42.5 -13t14.5 -38v-38h-382zM257 873l57 66l62 -55q8 -9 8 -22q0 -8 -8 -22l-58 -66l-61 55q-10 8 -10 21q0 11 10 23z" />
    <glyph glyph-name="Egrave" unicode="&#xc8;" horiz-adv-x="595" 
d="M175 0q-39 0 -63 23t-24 61v636h461v-38q0 -51 -66 -51h-286v-218h277v-31q0 -26 -16 -41t-45 -15h-216v-237h303q28 0 42.5 -13t14.5 -38v-38h-382zM365 802l-47 -16l-200 171l113 23z" />
    <glyph glyph-name="Emacron" unicode="&#x112;" horiz-adv-x="595" 
d="M175 0q-39 0 -63 23t-24 61v636h461v-38q0 -51 -66 -51h-286v-218h277v-31q0 -26 -16 -41t-45 -15h-216v-237h303q28 0 42.5 -13t14.5 -38v-38h-382zM466 820h-297v67h297v-67z" />
    <glyph glyph-name="Eogonek" unicode="&#x118;" horiz-adv-x="595" 
d="M451 0q-57 -32 -57 -79q0 -26 19 -40t51 -14t57 14l15 -33q-47 -39 -118 -39q-54 0 -89.5 23t-35.5 64q0 34 25 61.5t69 42.5h-212q-39 0 -63 23t-24 61v636h461v-38q0 -51 -66 -51h-286v-218h277v-31q0 -26 -16 -41t-45 -15h-216v-237h303q28 0 42.5 -13t14.5 -38v-38
h-106z" />
    <glyph glyph-name="F" unicode="F" horiz-adv-x="562" 
d="M104.5 12q-16.5 19 -16.5 52v656h447v-37q0 -52 -66 -52h-272v-228h290v-31q0 -27 -16 -41.5t-45 -14.5h-229v-314q-19 -9 -44 -9q-32 0 -48.5 19z" />
    <glyph glyph-name="G" unicode="G" horiz-adv-x="651" 
d="M174.5 34.5q-61.5 44.5 -93.5 125.5t-32 190q0 120 38 205.5t107.5 130t162.5 44.5q61 0 110.5 -18.5t78.5 -49t29 -65.5q0 -21 -12 -35t-39 -25q-26 51 -66.5 75.5t-96.5 24.5q-100 0 -152 -72t-52 -209q0 -131 46.5 -202t131.5 -71q82 0 127 56.5t40 152.5h-102
q-40 0 -62.5 19t-22.5 51q0 15 3 19h288v-379q-16 -9 -41 -9q-53 0 -53 71v54q-13 -60 -64 -94t-127 -34q-85 0 -146.5 44.5z" />
    <glyph glyph-name="Gbreve" unicode="&#x11e;" horiz-adv-x="651" 
d="M174.5 34.5q-61.5 44.5 -93.5 125.5t-32 190q0 120 38 205.5t107.5 130t162.5 44.5q61 0 110.5 -18.5t78.5 -49t29 -65.5q0 -21 -12 -35t-39 -25q-26 51 -66.5 75.5t-96.5 24.5q-100 0 -152 -72t-52 -209q0 -131 46.5 -202t131.5 -71q82 0 127 56.5t40 152.5h-102
q-40 0 -62.5 19t-22.5 51q0 15 3 19h288v-379q-16 -9 -41 -9q-53 0 -53 71v54q-13 -60 -64 -94t-127 -34q-85 0 -146.5 44.5zM253 947q9 -40 40 -61.5t68 -21.5t67.5 21.5t38.5 61.5h53q-3 -49 -27.5 -83.5t-60 -52t-71.5 -17.5q-37 0 -72.5 17.5t-60 52t-28.5 83.5h53z" />
    <glyph glyph-name="uni0122" unicode="&#x122;" horiz-adv-x="651" 
d="M174.5 34.5q-61.5 44.5 -93.5 125.5t-32 190q0 120 38 205.5t107.5 130t162.5 44.5q61 0 110.5 -18.5t78.5 -49t29 -65.5q0 -21 -12 -35t-39 -25q-26 51 -66.5 75.5t-96.5 24.5q-100 0 -152 -72t-52 -209q0 -131 46.5 -202t131.5 -71q82 0 127 56.5t40 152.5h-102
q-40 0 -62.5 19t-22.5 51q0 15 3 19h288v-379q-16 -9 -41 -9q-53 0 -53 71v54q-13 -60 -64 -94t-127 -34q-85 0 -146.5 44.5zM385 -82.5q22 -28.5 22 -83.5q0 -50 -29 -82t-75 -32q-21 0 -34.5 8t-13.5 21q0 18 12 30q10 -12 34 -12t40.5 14.5t15.5 44.5q-12 -15 -39 -15
q-29 0 -46.5 18t-17.5 47q0 26 18.5 48t53.5 22q37 0 59 -28.5z" />
    <glyph glyph-name="Gdotaccent" unicode="&#x120;" horiz-adv-x="651" 
d="M174.5 34.5q-61.5 44.5 -93.5 125.5t-32 190q0 120 38 205.5t107.5 130t162.5 44.5q61 0 110.5 -18.5t78.5 -49t29 -65.5q0 -21 -12 -35t-39 -25q-26 51 -66.5 75.5t-96.5 24.5q-100 0 -152 -72t-52 -209q0 -131 46.5 -202t131.5 -71q82 0 127 56.5t40 152.5h-102
q-40 0 -62.5 19t-22.5 51q0 15 3 19h288v-379q-16 -9 -41 -9q-53 0 -53 71v54q-13 -60 -64 -94t-127 -34q-85 0 -146.5 44.5zM299 873l57 66l62 -55q8 -9 8 -22q0 -8 -8 -22l-58 -66l-61 55q-10 8 -10 21q0 11 10 23z" />
    <glyph glyph-name="H" unicode="H" horiz-adv-x="694" 
d="M104.5 10.5q-16.5 17.5 -16.5 51.5v656q18 9 44 9q31 0 48 -18t17 -51v-250h300v310q21 9 45 9q31 0 47.5 -17.5t16.5 -51.5v-656q-18 -9 -44 -9q-31 0 -48 18t-17 51v246h-300v-306q-21 -9 -45 -9q-31 0 -47.5 17.5z" />
    <glyph glyph-name="Hbar" unicode="&#x126;" horiz-adv-x="694" 
d="M656 592v-76h-50v-514q-18 -9 -44 -9q-31 0 -48 18t-17 51v246h-300v-306q-21 -9 -45 -9q-31 0 -47.5 17.5t-16.5 51.5v454h-48v76h48v126q18 9 44 9q31 0 48 -18t17 -51v-66h300v126q21 9 45 9q31 0 47.5 -17.5t16.5 -51.5v-66h50zM197 408h300v108h-300v-108z" />
    <glyph glyph-name="I" unicode="I" horiz-adv-x="285" 
d="M88 718q20 9 44 9q32 0 48.5 -19t16.5 -52v-654q-19 -9 -44 -9q-32 0 -48.5 19t-16.5 52v654z" />
    <glyph glyph-name="Iacute" unicode="&#xcd;" horiz-adv-x="285" 
d="M88 718q20 9 44 9q32 0 48.5 -19t16.5 -52v-654q-19 -9 -44 -9q-32 0 -48.5 19t-16.5 52v654zM142 786l-46 16l134 178l113 -23z" />
    <glyph glyph-name="Icircumflex" unicode="&#xce;" horiz-adv-x="285" 
d="M88 718q20 9 44 9q32 0 48.5 -19t16.5 -52v-654q-19 -9 -44 -9q-32 0 -48.5 19t-16.5 52v654zM178 977l147 -182l-49 -17l-134 118l-135 -118l-51 17l149 182h73z" />
    <glyph glyph-name="Idieresis" unicode="&#xcf;" horiz-adv-x="285" 
d="M88 718q20 9 44 9q32 0 48.5 -19t16.5 -52v-654q-19 -9 -44 -9q-32 0 -48.5 19t-16.5 52v654zM-26 877l55 63l59 -52q8 -8 8 -21q0 -12 -8 -22l-55 -63l-59 53q-8 9 -8 19q0 11 8 23zM192 877l53 63l60 -52q8 -6 8 -21q0 -12 -8 -22l-56 -63l-57 53q-10 9 -10 19
q0 13 10 23z" />
    <glyph glyph-name="Idotaccent" unicode="&#x130;" horiz-adv-x="285" 
d="M88 718q20 9 44 9q32 0 48.5 -19t16.5 -52v-654q-19 -9 -44 -9q-32 0 -48.5 19t-16.5 52v654zM81 873l57 66l62 -55q8 -9 8 -22q0 -8 -8 -22l-58 -66l-61 55q-10 8 -10 21q0 11 10 23z" />
    <glyph glyph-name="Igrave" unicode="&#xcc;" horiz-adv-x="285" 
d="M88 718q20 9 44 9q32 0 48.5 -19t16.5 -52v-654q-19 -9 -44 -9q-32 0 -48.5 19t-16.5 52v654zM189 802l-47 -16l-200 171l113 23z" />
    <glyph glyph-name="Imacron" unicode="&#x12a;" horiz-adv-x="285" 
d="M88 718q20 9 44 9q32 0 48.5 -19t16.5 -52v-654q-19 -9 -44 -9q-32 0 -48.5 19t-16.5 52v654zM290 820h-297v67h297v-67z" />
    <glyph glyph-name="Iogonek" unicode="&#x12e;" horiz-adv-x="285" 
d="M270 -162q-46 -39 -118 -39q-54 0 -89.5 23t-35.5 64q0 37 29 66t80 43q-24 4 -36 22.5t-12 46.5v654q20 9 44 9q32 0 48.5 -19t16.5 -52v-654l-5 -2h12q-76 -35 -76 -89q0 -26 19 -40t51 -14t57 14z" />
    <glyph glyph-name="J" unicode="J" horiz-adv-x="407" 
d="M43 125q20 -40 78 -40q89 0 89 88v545q18 9 44 9q32 0 48.5 -18.5t16.5 -52.5v-494q0 -80 -48 -124.5t-133 -44.5q-58 0 -90.5 20.5t-32.5 54.5q0 31 28 57z" />
    <glyph glyph-name="K" unicode="K" horiz-adv-x="651" 
d="M104.5 12q-16.5 19 -16.5 52v654q20 9 44 9q32 0 48.5 -19t16.5 -52v-339l292 365q19 24 37 34t39 10q34 0 64 -37l-244 -288l248 -363q-9 -19 -27.5 -32t-41.5 -13q-22 0 -37.5 8.5t-29.5 30.5l-180 289l-120 -137v-182q-19 -9 -44 -9q-32 0 -48.5 19z" />
    <glyph glyph-name="uni0136" unicode="&#x136;" horiz-adv-x="651" 
d="M104.5 12q-16.5 19 -16.5 52v654q20 9 44 9q32 0 48.5 -19t16.5 -52v-339l292 365q19 24 37 34t39 10q34 0 64 -37l-244 -288l248 -363q-9 -19 -27.5 -32t-41.5 -13q-22 0 -37.5 8.5t-29.5 30.5l-180 289l-120 -137v-182q-19 -9 -44 -9q-32 0 -48.5 19zM389 -82.5
q22 -28.5 22 -83.5q0 -50 -29 -82t-75 -32q-21 0 -34.5 8t-13.5 21q0 18 12 30q10 -12 34 -12t40.5 14.5t15.5 44.5q-12 -15 -39 -15q-29 0 -46.5 18t-17.5 47q0 26 18.5 48t53.5 22q37 0 59 -28.5z" />
    <glyph glyph-name="L" unicode="L" horiz-adv-x="537" 
d="M88 718q21 9 45 9q31 0 47.5 -18.5t16.5 -52.5v-563h248q64 0 64 -58v-35h-320q-49 0 -75 23.5t-26 67.5v627z" />
    <glyph glyph-name="Lacute" unicode="&#x139;" horiz-adv-x="537" 
d="M88 718q21 9 45 9q31 0 47.5 -18.5t16.5 -52.5v-563h248q64 0 64 -58v-35h-320q-49 0 -75 23.5t-26 67.5v627zM157 786l-46 16l134 178l113 -23z" />
    <glyph glyph-name="Lcaron" unicode="&#x13d;" horiz-adv-x="537" 
d="M330.5 610.5q-17.5 18.5 -17.5 48.5q0 27 19 49t54 22q39 0 61 -28.5t22 -83.5q0 -52 -29 -84t-76 -32q-23 0 -36.5 8t-13.5 21q0 18 12 30q9 -10 31 -10q24 0 40.5 13t17.5 40q-13 -12 -38 -12q-29 0 -46.5 18.5zM445 93q64 0 64 -58v-35h-320q-49 0 -75 23.5t-26 67.5
v627q21 9 45 9q31 0 47.5 -18.5t16.5 -52.5v-563h248z" />
    <glyph glyph-name="uni013B" unicode="&#x13b;" horiz-adv-x="537" 
d="M88 718q21 9 45 9q31 0 47.5 -18.5t16.5 -52.5v-563h248q64 0 64 -58v-35h-320q-49 0 -75 23.5t-26 67.5v627zM363 -82.5q22 -28.5 22 -83.5q0 -50 -29 -82t-75 -32q-21 0 -34.5 8t-13.5 21q0 18 12 30q10 -12 34 -12t40.5 14.5t15.5 44.5q-12 -15 -39 -15
q-29 0 -46.5 18t-17.5 47q0 26 18.5 48t53.5 22q37 0 59 -28.5z" />
    <glyph glyph-name="Lslash" unicode="&#x141;" horiz-adv-x="527" 
d="M417 104q40 0 61 -15t21 -44q0 -27 -3 -45h-307q-49 0 -75 23.5t-26 67.5v154l-27 -22l-48 61l75 62v374h52q34 0 50 -21t16 -64v-192l100 83l48 -61l-148 -122v-239h211z" />
    <glyph glyph-name="M" unicode="M" horiz-adv-x="777" 
d="M88 720h85q37 0 60 -18t40 -60l116 -296l144 374h63q43 0 68 -26t25 -70v-622q-22 -9 -46 -9q-61 0 -61 67v308l9 256q-7 -19 -43 -108t-65 -155l-63 -142q-8 -4 -27 -4q-22 0 -35 9.5t-23 32.5l-46 104q-16 35 -49 119.5t-54 143.5l2 -52l7 -204v-366q-24 -9 -40 -9
q-31 0 -49 18t-18 49v660z" />
    <glyph glyph-name="N" unicode="N" horiz-adv-x="726" 
d="M88 720h88q39 0 60 -13.5t40 -51.5l210 -416q4 -9 20.5 -39.5t26.5 -55.5q-3 27 -3 111v463q20 9 43 9q31 0 47.5 -18t16.5 -52v-657h-146l-251 500l-17 34q-23 43 -31 66q3 -40 3 -105v-493q-19 -9 -43 -9q-31 0 -47.5 18t-16.5 52v657z" />
    <glyph glyph-name="Nacute" unicode="&#x143;" horiz-adv-x="726" 
d="M88 720h88q39 0 60 -13.5t40 -51.5l210 -416q4 -9 20.5 -39.5t26.5 -55.5q-3 27 -3 111v463q20 9 43 9q31 0 47.5 -18t16.5 -52v-657h-146l-251 500l-17 34q-23 43 -31 66q3 -40 3 -105v-493q-19 -9 -43 -9q-31 0 -47.5 18t-16.5 52v657zM363 786l-46 16l134 178l113 -23
z" />
    <glyph glyph-name="Ncaron" unicode="&#x147;" horiz-adv-x="726" 
d="M88 720h88q39 0 60 -13.5t40 -51.5l210 -416q4 -9 20.5 -39.5t26.5 -55.5q-3 27 -3 111v463q20 9 43 9q31 0 47.5 -18t16.5 -52v-657h-146l-251 500l-17 34q-23 43 -31 66q3 -40 3 -105v-493q-19 -9 -43 -9q-31 0 -47.5 18t-16.5 52v657zM326 788l-149 182l50 16
l135 -115l134 115l50 -16l-147 -182h-73z" />
    <glyph glyph-name="uni0145" unicode="&#x145;" horiz-adv-x="726" 
d="M88 720h88q39 0 60 -13.5t40 -51.5l210 -416q4 -9 20.5 -39.5t26.5 -55.5q-3 27 -3 111v463q20 9 43 9q31 0 47.5 -18t16.5 -52v-657h-146l-251 500l-17 34q-23 43 -31 66q3 -40 3 -105v-493q-19 -9 -43 -9q-31 0 -47.5 18t-16.5 52v657zM422 -82.5q22 -28.5 22 -83.5
q0 -50 -29 -82t-75 -32q-21 0 -34.5 8t-13.5 21q0 18 12 30q10 -12 34 -12t40.5 14.5t15.5 44.5q-12 -15 -39 -15q-29 0 -46.5 18t-17.5 47q0 26 18.5 48t53.5 22q37 0 59 -28.5z" />
    <glyph glyph-name="Eng" unicode="&#x14a;" horiz-adv-x="726" 
d="M422 -169.5q-24 16.5 -24 43.5q0 22 14 39q14 -12 37 -12q36 0 54.5 20t18.5 74v5h-31l-251 510l-17 34q-23 43 -31 66q3 -40 3 -105v-503q-19 -9 -43 -9q-31 0 -47.5 18t-16.5 52v657h88q39 0 60 -13.5t40 -51.5l210 -426l16 -32q23 -41 31 -63q-3 27 -3 111v473
q20 9 43 9q31 0 47.5 -18t16.5 -52v-665q0 -88 -37.5 -133t-116.5 -45q-37 0 -61 16.5z" />
    <glyph glyph-name="Ntilde" unicode="&#xd1;" horiz-adv-x="726" 
d="M88 720h88q39 0 60 -13.5t40 -51.5l210 -416q4 -9 20.5 -39.5t26.5 -55.5q-3 27 -3 111v463q20 9 43 9q31 0 47.5 -18t16.5 -52v-657h-146l-251 500l-17 34q-23 43 -31 66q3 -40 3 -105v-493q-19 -9 -43 -9q-31 0 -47.5 18t-16.5 52v657zM335 926.5q21 -10.5 49 -29.5
q23 -15 36.5 -22t24.5 -7q40 0 60 55l39 -13q-6 -48 -36.5 -79t-74.5 -31q-19 0 -39 10t-46 28q-24 16 -38.5 23.5t-27.5 7.5q-44 0 -59 -54l-39 13q4 48 34.5 78.5t75.5 30.5q20 0 41 -10.5z" />
    <glyph glyph-name="O" unicode="O" horiz-adv-x="699" 
d="M85 558q36 83 104 127.5t161 44.5q92 0 160 -44.5t104.5 -128t36.5 -197.5t-36 -197.5t-104 -128t-160 -44.5q-93 0 -161 44.5t-104.5 128t-36.5 197.5q0 115 36 198zM208 150q50 -67 140 -67q100 0 147 73t47 204q0 144 -51 210.5t-143 66.5q-99 0 -144.5 -73
t-45.5 -204q0 -143 50 -210z" />
    <glyph glyph-name="Oacute" unicode="&#xd3;" horiz-adv-x="699" 
d="M85 558q36 83 104 127.5t161 44.5q92 0 160 -44.5t104.5 -128t36.5 -197.5t-36 -197.5t-104 -128t-160 -44.5q-93 0 -161 44.5t-104.5 128t-36.5 197.5q0 115 36 198zM208 150q50 -67 140 -67q100 0 147 73t47 204q0 144 -51 210.5t-143 66.5q-99 0 -144.5 -73
t-45.5 -204q0 -143 50 -210zM350 786l-46 16l134 178l113 -23z" />
    <glyph glyph-name="Ocircumflex" unicode="&#xd4;" horiz-adv-x="699" 
d="M85 558q36 83 104 127.5t161 44.5q92 0 160 -44.5t104.5 -128t36.5 -197.5t-36 -197.5t-104 -128t-160 -44.5q-93 0 -161 44.5t-104.5 128t-36.5 197.5q0 115 36 198zM208 150q50 -67 140 -67q100 0 147 73t47 204q0 144 -51 210.5t-143 66.5q-99 0 -144.5 -73
t-45.5 -204q0 -143 50 -210zM386 977l147 -182l-49 -17l-134 118l-135 -118l-51 17l149 182h73z" />
    <glyph glyph-name="Odieresis" unicode="&#xd6;" horiz-adv-x="699" 
d="M85 558q36 83 104 127.5t161 44.5q92 0 160 -44.5t104.5 -128t36.5 -197.5t-36 -197.5t-104 -128t-160 -44.5q-93 0 -161 44.5t-104.5 128t-36.5 197.5q0 115 36 198zM208 150q50 -67 140 -67q100 0 147 73t47 204q0 144 -51 210.5t-143 66.5q-99 0 -144.5 -73
t-45.5 -204q0 -143 50 -210zM182 877l55 63l59 -52q8 -8 8 -21q0 -12 -8 -22l-55 -63l-59 53q-8 9 -8 19q0 11 8 23zM400 877l53 63l60 -52q8 -6 8 -21q0 -12 -8 -22l-56 -63l-57 53q-10 9 -10 19q0 13 10 23z" />
    <glyph glyph-name="Ograve" unicode="&#xd2;" horiz-adv-x="699" 
d="M85 558q36 83 104 127.5t161 44.5q92 0 160 -44.5t104.5 -128t36.5 -197.5t-36 -197.5t-104 -128t-160 -44.5q-93 0 -161 44.5t-104.5 128t-36.5 197.5q0 115 36 198zM208 150q50 -67 140 -67q100 0 147 73t47 204q0 144 -51 210.5t-143 66.5q-99 0 -144.5 -73
t-45.5 -204q0 -143 50 -210zM397 802l-47 -16l-200 171l113 23z" />
    <glyph glyph-name="Ohungarumlaut" unicode="&#x150;" horiz-adv-x="699" 
d="M85 558q36 83 104 127.5t161 44.5q92 0 160 -44.5t104.5 -128t36.5 -197.5t-36 -197.5t-104 -128t-160 -44.5q-93 0 -161 44.5t-104.5 128t-36.5 197.5q0 115 36 198zM208 150q50 -67 140 -67q100 0 147 73t47 204q0 144 -51 210.5t-143 66.5q-99 0 -144.5 -73
t-45.5 -204q0 -143 50 -210zM243 802l141 165l97 -25l-194 -156zM417 802l140 165l99 -25l-195 -156z" />
    <glyph glyph-name="Omacron" unicode="&#x14c;" horiz-adv-x="699" 
d="M85 558q36 83 104 127.5t161 44.5q92 0 160 -44.5t104.5 -128t36.5 -197.5t-36 -197.5t-104 -128t-160 -44.5q-93 0 -161 44.5t-104.5 128t-36.5 197.5q0 115 36 198zM208 150q50 -67 140 -67q100 0 147 73t47 204q0 144 -51 210.5t-143 66.5q-99 0 -144.5 -73
t-45.5 -204q0 -143 50 -210zM498 820h-297v67h297v-67z" />
    <glyph glyph-name="Oslash" unicode="&#xd8;" horiz-adv-x="699" 
d="M577 623q74 -99 74 -263q0 -114 -36 -197.5t-104 -128t-160 -44.5q-103 0 -178 56l-66 -95l-57 43l73 104q-74 97 -74 262q0 115 36 198t104 127.5t161 44.5q105 0 176 -56l67 96l57 -43zM193 199l272 388q-45 50 -117 50q-86 0 -132.5 -71.5t-46.5 -205.5q0 -96 24 -161
zM482.5 155.5q47.5 72.5 47.5 204.5q0 93 -25 160l-272 -389q45 -48 115 -48q87 0 134.5 72.5z" />
    <glyph glyph-name="Otilde" unicode="&#xd5;" horiz-adv-x="699" 
d="M85 558q36 83 104 127.5t161 44.5q92 0 160 -44.5t104.5 -128t36.5 -197.5t-36 -197.5t-104 -128t-160 -44.5q-93 0 -161 44.5t-104.5 128t-36.5 197.5q0 115 36 198zM208 150q50 -67 140 -67q100 0 147 73t47 204q0 144 -51 210.5t-143 66.5q-99 0 -144.5 -73
t-45.5 -204q0 -143 50 -210zM322 926.5q21 -10.5 49 -29.5q23 -15 36.5 -22t24.5 -7q40 0 60 55l39 -13q-6 -48 -36.5 -79t-74.5 -31q-19 0 -39 10t-46 28q-24 16 -38.5 23.5t-27.5 7.5q-44 0 -59 -54l-39 13q4 48 34.5 78.5t75.5 30.5q20 0 41 -10.5z" />
    <glyph glyph-name="OE" unicode="&#x152;" horiz-adv-x="985" 
d="M947 0h-515q-36 -10 -81 -10q-93 0 -161 44.5t-104.5 128t-36.5 197.5q0 115 36 198t104 127.5t161 44.5q45 0 82 -10h507v-38q0 -51 -66 -51h-303q67 -82 79 -218h215v-31q0 -26 -16 -41t-45 -15h-153q-7 -148 -79 -237h319q28 0 42.5 -13t14.5 -38v-38zM495 156
q47 73 47 204q0 144 -51 210.5t-143 66.5q-99 0 -144.5 -73t-45.5 -204q0 -143 50 -210t140 -67q100 0 147 73z" />
    <glyph glyph-name="P" unicode="P" horiz-adv-x="607" 
d="M106 12q-18 19 -18 52v656h232q119 0 184 -60t65 -170t-65 -170t-184 -60h-123v-258q-16 -9 -38 -9q-35 0 -53 19zM315 349q144 0 144 142q0 140 -144 140h-118v-282h118z" />
    <glyph glyph-name="Thorn" unicode="&#xde;" horiz-adv-x="607" 
d="M320 590q119 0 184 -60t65 -170t-65 -170t-184 -60h-122v-130q-23 -7 -41 -7q-33 0 -51 24t-18 69v633q23 7 39 7q34 0 52.5 -24t18.5 -69v-43h122zM314 219q145 0 145 142q0 140 -145 140h-116v-282h116z" />
    <glyph glyph-name="Q" unicode="Q" horiz-adv-x="699" 
d="M597.5 127.5q-53.5 -92.5 -151.5 -121.5q134 -49 183 -58q-8 -35 -33 -55.5t-60 -20.5q-41 0 -80 29t-79 90q-1 -1 -20 -1q-96 0 -165.5 44t-106 127t-36.5 199q0 115 36 198t103.5 127.5t160.5 44.5t161 -44.5t104.5 -128t36.5 -197.5q0 -140 -53.5 -232.5zM206 153
q48 -70 142 -70q95 0 144 70t49 207t-49 207t-144 70q-94 0 -142 -70t-48 -207t48 -207z" />
    <glyph glyph-name="R" unicode="R" horiz-adv-x="624" 
d="M113 4q-17 11 -21 25.5t-4 34.5v656h240q126 0 193 -56t67 -158q0 -75 -36.5 -125t-106.5 -73l146 -285q-11 -14 -29 -21.5t-40 -7.5q-28 0 -40.5 11.5t-22.5 34.5l-108 243h-154v-284q-16 -6 -32 -6q-35 0 -52 11zM328 371q73 0 112 33t39 94q0 63 -39.5 98t-111.5 35
h-131v-260h131z" />
    <glyph glyph-name="Racute" unicode="&#x154;" horiz-adv-x="624" 
d="M113 4q-17 11 -21 25.5t-4 34.5v656h240q126 0 193 -56t67 -158q0 -75 -36.5 -125t-106.5 -73l146 -285q-11 -14 -29 -21.5t-40 -7.5q-28 0 -40.5 11.5t-22.5 34.5l-108 243h-154v-284q-16 -6 -32 -6q-35 0 -52 11zM328 371q73 0 112 33t39 94q0 63 -39.5 98t-111.5 35
h-131v-260h131zM309 786l-46 16l134 178l113 -23z" />
    <glyph glyph-name="Rcaron" unicode="&#x158;" horiz-adv-x="624" 
d="M113 4q-17 11 -21 25.5t-4 34.5v656h240q126 0 193 -56t67 -158q0 -75 -36.5 -125t-106.5 -73l146 -285q-11 -14 -29 -21.5t-40 -7.5q-28 0 -40.5 11.5t-22.5 34.5l-108 243h-154v-284q-16 -6 -32 -6q-35 0 -52 11zM328 371q73 0 112 33t39 94q0 63 -39.5 98t-111.5 35
h-131v-260h131zM272 788l-149 182l50 16l135 -115l134 115l50 -16l-147 -182h-73z" />
    <glyph glyph-name="uni0156" unicode="&#x156;" horiz-adv-x="624" 
d="M113 4q-17 11 -21 25.5t-4 34.5v656h240q126 0 193 -56t67 -158q0 -75 -36.5 -125t-106.5 -73l146 -285q-11 -14 -29 -21.5t-40 -7.5q-28 0 -40.5 11.5t-22.5 34.5l-108 243h-154v-284q-16 -6 -32 -6q-35 0 -52 11zM328 371q73 0 112 33t39 94q0 63 -39.5 98t-111.5 35
h-131v-260h131zM368 -82.5q22 -28.5 22 -83.5q0 -50 -29 -82t-75 -32q-21 0 -34.5 8t-13.5 21q0 18 12 30q10 -12 34 -12t40.5 14.5t15.5 44.5q-12 -15 -39 -15q-29 0 -46.5 18t-17.5 47q0 26 18.5 48t53.5 22q37 0 59 -28.5z" />
    <glyph glyph-name="S" unicode="S" horiz-adv-x="596" 
d="M109 192q20 -53 64.5 -81.5t107.5 -28.5q78 0 120.5 30t42.5 86q0 37 -13.5 57.5t-51 36.5t-118.5 37q-103 26 -152 74t-49 124q0 60 31 106t88 71.5t131 25.5q61 0 110.5 -17.5t77.5 -48.5t28 -69q0 -39 -50 -66q-19 53 -63.5 82.5t-105.5 29.5q-67 0 -103 -28t-36 -79
q0 -45 40.5 -71.5t142.5 -49.5q104 -23 153 -72t49 -132q0 -66 -33 -115.5t-94.5 -76t-144.5 -26.5q-64 0 -114.5 17.5t-79 48t-28.5 69.5t50 66z" />
    <glyph glyph-name="Sacute" unicode="&#x15a;" horiz-adv-x="596" 
d="M109 192q20 -53 64.5 -81.5t107.5 -28.5q78 0 120.5 30t42.5 86q0 37 -13.5 57.5t-51 36.5t-118.5 37q-103 26 -152 74t-49 124q0 60 31 106t88 71.5t131 25.5q61 0 110.5 -17.5t77.5 -48.5t28 -69q0 -39 -50 -66q-19 53 -63.5 82.5t-105.5 29.5q-67 0 -103 -28t-36 -79
q0 -45 40.5 -71.5t142.5 -49.5q104 -23 153 -72t49 -132q0 -66 -33 -115.5t-94.5 -76t-144.5 -26.5q-64 0 -114.5 17.5t-79 48t-28.5 69.5t50 66zM298 786l-46 16l134 178l113 -23z" />
    <glyph glyph-name="Scaron" unicode="&#x160;" horiz-adv-x="596" 
d="M109 192q20 -53 64.5 -81.5t107.5 -28.5q78 0 120.5 30t42.5 86q0 37 -13.5 57.5t-51 36.5t-118.5 37q-103 26 -152 74t-49 124q0 60 31 106t88 71.5t131 25.5q61 0 110.5 -17.5t77.5 -48.5t28 -69q0 -39 -50 -66q-19 53 -63.5 82.5t-105.5 29.5q-67 0 -103 -28t-36 -79
q0 -45 40.5 -71.5t142.5 -49.5q104 -23 153 -72t49 -132q0 -66 -33 -115.5t-94.5 -76t-144.5 -26.5q-64 0 -114.5 17.5t-79 48t-28.5 69.5t50 66zM261 788l-149 182l50 16l135 -115l134 115l50 -16l-147 -182h-73z" />
    <glyph glyph-name="Scedilla" unicode="&#x15e;" horiz-adv-x="596" 
d="M492.5 61q-60.5 -57 -165.5 -68q49 -14 77 -42t28 -63q0 -43 -36 -66t-92 -23q-72 0 -117 39l15 32q24 -14 57 -14q30 0 50 14.5t20 39.5q0 46 -60 81q-61 2 -108.5 20t-74.5 48t-27 67q0 39 50 66q20 -53 64.5 -81.5t107.5 -28.5q78 0 120.5 30t42.5 86q0 37 -13.5 57.5
t-51 36.5t-118.5 37q-103 26 -152 74t-49 124q0 60 31 106t88 71.5t131 25.5q61 0 110.5 -17.5t77.5 -48.5t28 -69q0 -39 -50 -66q-19 53 -63.5 82.5t-105.5 29.5q-67 0 -103 -28t-36 -79q0 -45 40.5 -71.5t142.5 -49.5q104 -23 153 -72t49 -132q0 -91 -60.5 -148z" />
    <glyph glyph-name="uni0218" unicode="&#x218;" horiz-adv-x="596" 
d="M109 192q20 -53 64.5 -81.5t107.5 -28.5q78 0 120.5 30t42.5 86q0 37 -13.5 57.5t-51 36.5t-118.5 37q-103 26 -152 74t-49 124q0 60 31 106t88 71.5t131 25.5q61 0 110.5 -17.5t77.5 -48.5t28 -69q0 -39 -50 -66q-19 53 -63.5 82.5t-105.5 29.5q-67 0 -103 -28t-36 -79
q0 -45 40.5 -71.5t142.5 -49.5q104 -23 153 -72t49 -132q0 -66 -33 -115.5t-94.5 -76t-144.5 -26.5q-64 0 -114.5 17.5t-79 48t-28.5 69.5t50 66zM357 -82.5q22 -28.5 22 -83.5q0 -50 -29 -82t-75 -32q-21 0 -34.5 8t-13.5 21q0 18 12 30q10 -12 34 -12t40.5 14.5t15.5 44.5
q-12 -15 -39 -15q-29 0 -46.5 18t-17.5 47q0 26 18.5 48t53.5 22q37 0 59 -28.5z" />
    <glyph glyph-name="uni1E9E" unicode="&#x1e9e;" horiz-adv-x="727" 
d="M320.5 19q-49.5 29 -49.5 74q0 48 50 73q10 -39 45 -63t80 -24q62 0 95.5 27t33.5 74q0 25 -10 42t-25.5 28.5t-51.5 34.5l-45 29q-95 63 -95 140q0 42 21.5 78.5t59.5 58.5t83 22q-62 17 -119 17q-196 0 -196 -190v-440h-109v455q0 85 36 146.5t103 94.5t158 33
q59 0 120 -10.5t102 -30.5v-122q-8 1 -23 1q-56 0 -93 -26.5t-37 -66.5q0 -31 21 -51.5t66 -47.5l23 -14q56 -34 88 -73t32 -98q0 -95 -65 -147.5t-174 -52.5q-75 0 -124.5 29z" />
    <glyph glyph-name="T" unicode="T" horiz-adv-x="561" 
d="M17 720h454q35 0 53.5 -17.5t18.5 -49.5v-24h-208v-630q-13 -6 -38 -6q-38 0 -54.5 16.5t-16.5 54.5v565h-136q-35 0 -54 18t-19 51v22z" />
    <glyph glyph-name="Tbar" unicode="&#x166;" horiz-adv-x="561" 
d="M335 629v-209h112v-94h-112v-327q-13 -6 -38 -6q-38 0 -54.5 16.5t-16.5 54.5v262h-112v94h112v209h-136q-35 0 -54 18t-19 51v22h454q35 0 53.5 -17.5t18.5 -49.5v-24h-208z" />
    <glyph glyph-name="Tcaron" unicode="&#x164;" horiz-adv-x="561" 
d="M17 720h454q35 0 53.5 -17.5t18.5 -49.5v-24h-208v-630q-13 -6 -38 -6q-38 0 -54.5 16.5t-16.5 54.5v565h-136q-35 0 -54 18t-19 51v22zM244 788l-149 182l50 16l135 -115l134 115l50 -16l-147 -182h-73z" />
    <glyph glyph-name="uni0162" unicode="&#x162;" horiz-adv-x="561" 
d="M335 629v-630q-4 -2 -7 -2q49 -14 77.5 -42t28.5 -64q0 -43 -36 -66t-92 -23q-72 0 -117 39l15 32q24 -14 57 -14q30 0 50 14.5t20 39.5q0 48 -64 83q-22 6 -31.5 22.5t-9.5 45.5v565h-136q-35 0 -54 18t-19 51v22h454q35 0 53.5 -17.5t18.5 -49.5v-24h-208z" />
    <glyph glyph-name="uni021A" unicode="&#x21a;" horiz-adv-x="561" 
d="M17 720h454q35 0 53.5 -17.5t18.5 -49.5v-24h-208v-630q-13 -6 -38 -6q-38 0 -54.5 16.5t-16.5 54.5v565h-136q-35 0 -54 18t-19 51v22zM359 -79.5q22 -28.5 22 -83.5q0 -50 -29 -82t-75 -32q-21 0 -34.5 8t-13.5 21q0 18 12 30q10 -12 34 -12t40.5 14.5t15.5 44.5
q-12 -15 -39 -15q-29 0 -46.5 18t-17.5 47q0 26 18.5 48t53.5 22q37 0 59 -28.5z" />
    <glyph glyph-name="U" unicode="U" horiz-adv-x="690" 
d="M504 720h109v-461q0 -133 -67.5 -201t-199.5 -68q-133 0 -200.5 68t-67.5 201v458q24 9 51 9q28 0 43 -18.5t15 -53.5v-398q0 -90 39 -133.5t121 -43.5q80 0 118.5 43.5t38.5 133.5v464z" />
    <glyph glyph-name="Uacute" unicode="&#xda;" horiz-adv-x="690" 
d="M504 720h109v-461q0 -133 -67.5 -201t-199.5 -68q-133 0 -200.5 68t-67.5 201v458q24 9 51 9q28 0 43 -18.5t15 -53.5v-398q0 -90 39 -133.5t121 -43.5q80 0 118.5 43.5t38.5 133.5v464zM345 786l-46 16l134 178l113 -23z" />
    <glyph glyph-name="Ucircumflex" unicode="&#xdb;" horiz-adv-x="690" 
d="M504 720h109v-461q0 -133 -67.5 -201t-199.5 -68q-133 0 -200.5 68t-67.5 201v458q24 9 51 9q28 0 43 -18.5t15 -53.5v-398q0 -90 39 -133.5t121 -43.5q80 0 118.5 43.5t38.5 133.5v464zM381 977l147 -182l-49 -17l-134 118l-135 -118l-51 17l149 182h73z" />
    <glyph glyph-name="Udieresis" unicode="&#xdc;" horiz-adv-x="690" 
d="M504 720h109v-461q0 -133 -67.5 -201t-199.5 -68q-133 0 -200.5 68t-67.5 201v458q24 9 51 9q28 0 43 -18.5t15 -53.5v-398q0 -90 39 -133.5t121 -43.5q80 0 118.5 43.5t38.5 133.5v464zM177 877l55 63l59 -52q8 -8 8 -21q0 -12 -8 -22l-55 -63l-59 53q-8 9 -8 19
q0 11 8 23zM395 877l53 63l60 -52q8 -6 8 -21q0 -12 -8 -22l-56 -63l-57 53q-10 9 -10 19q0 13 10 23z" />
    <glyph glyph-name="Ugrave" unicode="&#xd9;" horiz-adv-x="690" 
d="M504 720h109v-461q0 -133 -67.5 -201t-199.5 -68q-133 0 -200.5 68t-67.5 201v458q24 9 51 9q28 0 43 -18.5t15 -53.5v-398q0 -90 39 -133.5t121 -43.5q80 0 118.5 43.5t38.5 133.5v464zM392 802l-47 -16l-200 171l113 23z" />
    <glyph glyph-name="Uhungarumlaut" unicode="&#x170;" horiz-adv-x="690" 
d="M504 720h109v-461q0 -133 -67.5 -201t-199.5 -68q-133 0 -200.5 68t-67.5 201v458q24 9 51 9q28 0 43 -18.5t15 -53.5v-398q0 -90 39 -133.5t121 -43.5q80 0 118.5 43.5t38.5 133.5v464zM238 802l141 165l97 -25l-194 -156zM412 802l140 165l99 -25l-195 -156z" />
    <glyph glyph-name="Umacron" unicode="&#x16a;" horiz-adv-x="690" 
d="M504 720h109v-461q0 -133 -67.5 -201t-199.5 -68q-133 0 -200.5 68t-67.5 201v458q24 9 51 9q28 0 43 -18.5t15 -53.5v-398q0 -90 39 -133.5t121 -43.5q80 0 118.5 43.5t38.5 133.5v464zM493 820h-297v67h297v-67z" />
    <glyph glyph-name="Uogonek" unicode="&#x172;" horiz-adv-x="690" 
d="M504 720h109v-461q0 -122 -56.5 -189t-167.5 -78q-44 -30 -44 -71q0 -26 19 -40t51 -14t57 14l15 -33q-46 -39 -118 -39q-54 0 -89.5 23t-35.5 64q0 30 18.5 54t53.5 41q-118 8 -178 75.5t-60 192.5v458q24 9 51 9q28 0 43 -18.5t15 -53.5v-398q0 -90 39 -133.5
t121 -43.5q80 0 118.5 43.5t38.5 133.5v464z" />
    <glyph glyph-name="Uring" unicode="&#x16e;" horiz-adv-x="690" 
d="M504 720h109v-461q0 -133 -67.5 -201t-199.5 -68q-133 0 -200.5 68t-67.5 201v458q24 9 51 9q28 0 43 -18.5t15 -53.5v-398q0 -90 39 -133.5t121 -43.5q80 0 118.5 43.5t38.5 133.5v464zM271.5 797q-30.5 16 -46 41.5t-15.5 53.5q0 46 36.5 80t102.5 34q64 0 100 -30
t36 -82t-38.5 -82.5t-101.5 -30.5q-43 0 -73.5 16zM396.5 847.5q17.5 17.5 17.5 43.5q0 24 -17.5 41.5t-48.5 17.5q-29 0 -48.5 -17t-19.5 -42q0 -28 18.5 -44.5t49.5 -16.5t48.5 17.5z" />
    <glyph glyph-name="V" unicode="V" horiz-adv-x="681" 
d="M650 707l-241 -707h-62q-39 0 -65 18.5t-44 71.5l-208 613q12 11 29 17t34 6q26 0 42 -14.5t27 -46.5l178 -564l177 565q10 30 28 45t48 15q34 0 57 -19z" />
    <glyph glyph-name="W" unicode="W" horiz-adv-x="957" 
d="M928 710q-95 -425 -171 -710h-73q-43 0 -67.5 21t-35.5 68l-102 438l-124 -527h-74q-48 0 -71.5 21t-32.5 68q-64 262 -148 620q24 17 60 17q28 0 44.5 -16.5t24.5 -54.5l124 -556l141 607q33 13 61 13q26 0 42.5 -16t22.5 -43l127 -561l123 553q8 37 26.5 55.5
t50.5 18.5q33 0 52 -16z" />
    <glyph glyph-name="Wacute" unicode="&#x1e82;" horiz-adv-x="957" 
d="M928 710q-95 -425 -171 -710h-73q-43 0 -67.5 21t-35.5 68l-102 438l-124 -527h-74q-48 0 -71.5 21t-32.5 68q-64 262 -148 620q24 17 60 17q28 0 44.5 -16.5t24.5 -54.5l124 -556l141 607q33 13 61 13q26 0 42.5 -16t22.5 -43l127 -561l123 553q8 37 26.5 55.5
t50.5 18.5q33 0 52 -16zM479 786l-46 16l134 178l113 -23z" />
    <glyph glyph-name="Wcircumflex" unicode="&#x174;" horiz-adv-x="957" 
d="M928 710q-95 -425 -171 -710h-73q-43 0 -67.5 21t-35.5 68l-102 438l-124 -527h-74q-48 0 -71.5 21t-32.5 68q-64 262 -148 620q24 17 60 17q28 0 44.5 -16.5t24.5 -54.5l124 -556l141 607q33 13 61 13q26 0 42.5 -16t22.5 -43l127 -561l123 553q8 37 26.5 55.5
t50.5 18.5q33 0 52 -16zM515 977l147 -182l-49 -17l-134 118l-135 -118l-51 17l149 182h73z" />
    <glyph glyph-name="Wdieresis" unicode="&#x1e84;" horiz-adv-x="957" 
d="M928 710q-95 -425 -171 -710h-73q-43 0 -67.5 21t-35.5 68l-102 438l-124 -527h-74q-48 0 -71.5 21t-32.5 68q-64 262 -148 620q24 17 60 17q28 0 44.5 -16.5t24.5 -54.5l124 -556l141 607q33 13 61 13q26 0 42.5 -16t22.5 -43l127 -561l123 553q8 37 26.5 55.5
t50.5 18.5q33 0 52 -16zM311 877l55 63l59 -52q8 -8 8 -21q0 -12 -8 -22l-55 -63l-59 53q-8 9 -8 19q0 11 8 23zM529 877l53 63l60 -52q8 -6 8 -21q0 -12 -8 -22l-56 -63l-57 53q-10 9 -10 19q0 13 10 23z" />
    <glyph glyph-name="Wgrave" unicode="&#x1e80;" horiz-adv-x="957" 
d="M928 710q-95 -425 -171 -710h-73q-43 0 -67.5 21t-35.5 68l-102 438l-124 -527h-74q-48 0 -71.5 21t-32.5 68q-64 262 -148 620q24 17 60 17q28 0 44.5 -16.5t24.5 -54.5l124 -556l141 607q33 13 61 13q26 0 42.5 -16t22.5 -43l127 -561l123 553q8 37 26.5 55.5
t50.5 18.5q33 0 52 -16zM526 802l-47 -16l-200 171l113 23z" />
    <glyph glyph-name="X" unicode="X" horiz-adv-x="635" 
d="M605 720l-226 -349l240 -339q-11 -17 -29.5 -27.5t-40.5 -10.5q-41 0 -70 43l-165 248l-175 -284h-120l231 354l-234 334q11 17 31 27.5t44 10.5q18 0 34 -11t38 -43l156 -225l165 272h121z" />
    <glyph glyph-name="Y" unicode="Y" horiz-adv-x="652" 
d="M289.5 8.5q-16.5 15.5 -16.5 55.5v217l-258 409q10 16 27 25t34 9q2 0 16 0.5t29.5 -10.5t29.5 -33l176 -294l187 333h123l-255 -426v-295q-22 -6 -34 -6q-42 0 -58.5 15.5z" />
    <glyph glyph-name="Yacute" unicode="&#xdd;" horiz-adv-x="652" 
d="M289.5 8.5q-16.5 15.5 -16.5 55.5v217l-258 409q10 16 27 25t34 9q2 0 16 0.5t29.5 -10.5t29.5 -33l176 -294l187 333h123l-255 -426v-295q-22 -6 -34 -6q-42 0 -58.5 15.5zM327 786l-46 16l134 178l113 -23z" />
    <glyph glyph-name="Ycircumflex" unicode="&#x176;" horiz-adv-x="652" 
d="M289.5 8.5q-16.5 15.5 -16.5 55.5v217l-258 409q10 16 27 25t34 9q2 0 16 0.5t29.5 -10.5t29.5 -33l176 -294l187 333h123l-255 -426v-295q-22 -6 -34 -6q-42 0 -58.5 15.5zM363 977l147 -182l-49 -17l-134 118l-135 -118l-51 17l149 182h73z" />
    <glyph glyph-name="Ydieresis" unicode="&#x178;" horiz-adv-x="652" 
d="M289.5 8.5q-16.5 15.5 -16.5 55.5v217l-258 409q10 16 27 25t34 9q2 0 16 0.5t29.5 -10.5t29.5 -33l176 -294l187 333h123l-255 -426v-295q-22 -6 -34 -6q-42 0 -58.5 15.5zM159 877l55 63l59 -52q8 -8 8 -21q0 -12 -8 -22l-55 -63l-59 53q-8 9 -8 19q0 11 8 23zM377 877
l53 63l60 -52q8 -6 8 -21q0 -12 -8 -22l-56 -63l-57 53q-10 9 -10 19q0 13 10 23z" />
    <glyph glyph-name="Ygrave" unicode="&#x1ef2;" horiz-adv-x="652" 
d="M289.5 8.5q-16.5 15.5 -16.5 55.5v217l-258 409q10 16 27 25t34 9q2 0 16 0.5t29.5 -10.5t29.5 -33l176 -294l187 333h123l-255 -426v-295q-22 -6 -34 -6q-42 0 -58.5 15.5zM374 802l-47 -16l-200 171l113 23z" />
    <glyph glyph-name="Z" unicode="Z" horiz-adv-x="593" 
d="M27 51q0 38 14 66t45 71l329 443h-282q-37 0 -58.5 15.5t-21.5 44.5q0 21 4 29h414q36 0 53.5 -16.5t20.5 -49.5l2 -21l-407 -544h355q35 0 53 -15t18 -41q0 -20 -4 -33h-535v51z" />
    <glyph glyph-name="Zacute" unicode="&#x179;" horiz-adv-x="593" 
d="M27 51q0 38 14 66t45 71l329 443h-282q-37 0 -58.5 15.5t-21.5 44.5q0 21 4 29h414q36 0 53.5 -16.5t20.5 -49.5l2 -21l-407 -544h355q35 0 53 -15t18 -41q0 -20 -4 -33h-535v51zM297 786l-46 16l134 178l113 -23z" />
    <glyph glyph-name="Zcaron" unicode="&#x17d;" horiz-adv-x="593" 
d="M27 51q0 38 14 66t45 71l329 443h-282q-37 0 -58.5 15.5t-21.5 44.5q0 21 4 29h414q36 0 53.5 -16.5t20.5 -49.5l2 -21l-407 -544h355q35 0 53 -15t18 -41q0 -20 -4 -33h-535v51zM260 788l-149 182l50 16l135 -115l134 115l50 -16l-147 -182h-73z" />
    <glyph glyph-name="Zdotaccent" unicode="&#x17b;" horiz-adv-x="593" 
d="M27 51q0 38 14 66t45 71l329 443h-282q-37 0 -58.5 15.5t-21.5 44.5q0 21 4 29h414q36 0 53.5 -16.5t20.5 -49.5l2 -21l-407 -544h355q35 0 53 -15t18 -41q0 -20 -4 -33h-535v51zM236 873l57 66l62 -55q8 -9 8 -22q0 -8 -8 -22l-58 -66l-61 55q-10 8 -10 21q0 11 10 23z
" />
    <glyph glyph-name="A.ss01" horiz-adv-x="705" 
d="M41 -1q-16 6 -24 16l265 705h70q30 0 50.5 -12.5t35.5 -51.5l250 -640q-18 -23 -58 -23q-32 0 -46 14.5t-24 40.5l-49 130h-318l-47 -131q-8 -22 -23.5 -38t-47.5 -16q-18 0 -34 6zM348 626l-124 -357h254z" />
    <glyph glyph-name="B.ss01" horiz-adv-x="633" 
d="M88 0v720h260q106 0 165 -47.5t59 -133.5q0 -60 -33 -104t-81 -62q57 -8 96 -55t39 -118q0 -97 -71 -148.5t-190 -51.5h-244zM324 410q144 0 144 108q0 113 -144 113h-128v-221h128zM345 89q53 0 98.5 21t45.5 100q0 116 -138 116h-155v-237h149z" />
    <glyph glyph-name="D.ss01" horiz-adv-x="685" 
d="M198 0q-53 0 -81.5 26t-28.5 73v621h225q153 0 238.5 -94.5t85.5 -264.5q0 -171 -84.5 -266t-236.5 -95h-118zM316 89q105 0 158 68.5t53 203.5q0 270 -214 270h-116v-542h119z" />
    <glyph glyph-name="E.ss01" horiz-adv-x="595" 
d="M175 0q-39 0 -63 23t-24 61v636h461v-38q0 -51 -66 -51h-286v-218h277v-31q0 -26 -16 -41t-45 -15h-216v-237h303q28 0 42.5 -13t14.5 -38v-38h-382z" />
    <glyph glyph-name="F.ss01" horiz-adv-x="562" 
d="M104.5 12q-16.5 19 -16.5 52v656h447v-37q0 -52 -66 -52h-272v-228h290v-31q0 -27 -16 -41.5t-45 -14.5h-229v-314q-19 -9 -44 -9q-32 0 -48.5 19z" />
    <glyph glyph-name="G.ss01" horiz-adv-x="651" 
d="M174.5 34.5q-61.5 44.5 -93.5 125.5t-32 190q0 120 38 205.5t107.5 130t162.5 44.5q61 0 110.5 -18.5t78.5 -49t29 -65.5q0 -21 -12 -35t-39 -25q-26 51 -66.5 75.5t-96.5 24.5q-100 0 -152 -72t-52 -209q0 -131 46.5 -202t131.5 -71q82 0 127 56.5t40 152.5h-102
q-40 0 -62.5 19t-22.5 51q0 15 3 19h288v-379q-16 -9 -41 -9q-53 0 -53 71v54q-13 -60 -64 -94t-127 -34q-85 0 -146.5 44.5z" />
    <glyph glyph-name="H.ss01" horiz-adv-x="694" 
d="M104.5 10.5q-16.5 17.5 -16.5 51.5v656q18 9 44 9q31 0 48 -18t17 -51v-250h300v310q21 9 45 9q31 0 47.5 -17.5t16.5 -51.5v-656q-18 -9 -44 -9q-31 0 -48 18t-17 51v246h-300v-306q-21 -9 -45 -9q-31 0 -47.5 17.5z" />
    <glyph glyph-name="K.ss01" horiz-adv-x="651" 
d="M104.5 12q-16.5 19 -16.5 52v654q20 9 44 9q32 0 48.5 -19t16.5 -52v-339l292 365q19 24 37 34t39 10q34 0 64 -37l-244 -288l248 -363q-9 -19 -27.5 -32t-41.5 -13q-22 0 -37.5 8.5t-29.5 30.5l-180 289l-120 -137v-182q-19 -9 -44 -9q-32 0 -48.5 19z" />
    <glyph glyph-name="L.ss01" horiz-adv-x="537" 
d="M88 718q21 9 45 9q31 0 47.5 -18.5t16.5 -52.5v-563h248q64 0 64 -58v-35h-320q-49 0 -75 23.5t-26 67.5v627z" />
    <glyph glyph-name="M.ss01" horiz-adv-x="777" 
d="M88 720h85q37 0 60 -18t40 -60l116 -296l144 374h63q43 0 68 -26t25 -70v-622q-22 -9 -46 -9q-61 0 -61 67v308l9 256q-7 -19 -43 -108t-65 -155l-63 -142q-8 -4 -27 -4q-22 0 -35 9.5t-23 32.5l-46 104q-16 35 -49 119.5t-54 143.5l2 -52l7 -204v-366q-24 -9 -40 -9
q-31 0 -49 18t-18 49v660z" />
    <glyph glyph-name="N.ss01" horiz-adv-x="726" 
d="M88 720h88q39 0 60 -13.5t40 -51.5l210 -426l16 -32q23 -41 31 -63q-3 27 -3 111v473q20 9 43 9q31 0 47.5 -18t16.5 -52v-657h-146l-251 510l-17 34q-23 43 -31 66q3 -40 3 -105v-503q-19 -9 -43 -9q-31 0 -47.5 18t-16.5 52v657z" />
    <glyph glyph-name="P.ss01" horiz-adv-x="607" 
d="M106 12q-18 19 -18 52v656h232q119 0 184 -60t65 -170t-65 -170t-184 -60h-123v-258q-16 -9 -38 -9q-35 0 -53 19zM315 349q144 0 144 142q0 140 -144 140h-118v-282h118z" />
    <glyph glyph-name="R.ss01" horiz-adv-x="624" 
d="M113 4q-17 11 -21 25.5t-4 34.5v656h240q126 0 193 -56t67 -158q0 -75 -36.5 -125t-106.5 -73l146 -285q-11 -14 -29 -21.5t-40 -7.5q-28 0 -40.5 11.5t-22.5 34.5l-108 243h-154v-284q-16 -6 -32 -6q-35 0 -52 11zM328 371q73 0 112 33t39 94q0 63 -39.5 98t-111.5 35
h-131v-260h131z" />
    <glyph glyph-name="T.ss01" horiz-adv-x="561" 
d="M17 720h454q35 0 53.5 -17.5t18.5 -49.5v-24h-208v-630q-13 -6 -38 -6q-38 0 -54.5 16.5t-16.5 54.5v565h-136q-35 0 -54 18t-19 51v22z" />
    <glyph glyph-name="V.ss01" horiz-adv-x="681" 
d="M650 707l-241 -707h-62q-39 0 -65 18.5t-44 71.5l-208 613q12 11 29 17t34 6q26 0 42 -14.5t27 -46.5l178 -564l177 565q10 30 28 45t48 15q34 0 57 -19z" />
    <glyph glyph-name="W.ss01" horiz-adv-x="957" 
d="M928 710q-95 -425 -171 -710h-73q-43 0 -67.5 21t-35.5 68l-102 438l-124 -527h-74q-48 0 -71.5 21t-32.5 68q-64 262 -148 620q24 17 60 17q28 0 44.5 -16.5t24.5 -54.5l124 -556l141 607q33 13 61 13q26 0 42.5 -16t22.5 -43l127 -561l123 553q8 37 26.5 55.5
t50.5 18.5q33 0 52 -16z" />
    <glyph glyph-name="X.ss01" horiz-adv-x="635" 
d="M605 720l-226 -349l240 -339q-11 -17 -29.5 -27.5t-40.5 -10.5q-41 0 -70 43l-165 248l-175 -284h-120l231 354l-234 334q11 17 31 27.5t44 10.5q18 0 34 -11t38 -43l156 -225l165 272h121z" />
    <glyph glyph-name="Y.ss01" horiz-adv-x="652" 
d="M289.5 8.5q-16.5 15.5 -16.5 55.5v217l-258 409q10 16 27 25t34 9q2 0 16 0.5t29.5 -10.5t29.5 -33l176 -294l187 333h123l-255 -426v-295q-22 -6 -34 -6q-42 0 -58.5 15.5z" />
    <glyph glyph-name="Z.ss01" horiz-adv-x="593" 
d="M27 51q0 38 14 66t45 71l329 443h-282q-37 0 -58.5 15.5t-21.5 44.5q0 21 4 29h414q36 0 53.5 -16.5t20.5 -49.5l2 -21l-407 -544h355q35 0 53 -15t18 -41q0 -20 -4 -33h-535v51z" />
    <glyph glyph-name="B.ss02" horiz-adv-x="633" 
d="M88 0v720h260q106 0 165 -47.5t59 -133.5q0 -60 -33 -104t-81 -62q57 -8 96 -55t39 -118q0 -97 -71 -148.5t-190 -51.5h-244zM324 410q144 0 144 108q0 113 -144 113h-128v-221h128zM345 89q53 0 98.5 21t45.5 100q0 116 -138 116h-155v-237h149z" />
    <glyph glyph-name="D.ss02" horiz-adv-x="685" 
d="M198 0q-53 0 -81.5 26t-28.5 73v621h225q153 0 238.5 -94.5t85.5 -264.5q0 -171 -84.5 -266t-236.5 -95h-118zM316 89q105 0 158 68.5t53 203.5q0 270 -214 270h-116v-542h119z" />
    <glyph glyph-name="E.ss02" horiz-adv-x="595" 
d="M175 0q-39 0 -63 23t-24 61v636h461v-38q0 -51 -66 -51h-286v-218h277v-31q0 -26 -16 -41t-45 -15h-216v-237h303q28 0 42.5 -13t14.5 -38v-38h-382z" />
    <glyph glyph-name="H.ss02" horiz-adv-x="694" 
d="M104.5 10.5q-16.5 17.5 -16.5 51.5v656q18 9 44 9q31 0 48 -18t17 -51v-250h300v310q21 9 45 9q31 0 47.5 -17.5t16.5 -51.5v-656q-18 -9 -44 -9q-31 0 -48 18t-17 51v246h-300v-306q-21 -9 -45 -9q-31 0 -47.5 17.5z" />
    <glyph glyph-name="K.ss02" horiz-adv-x="651" 
d="M633 38q-22 -45 -71 -45q-19 0 -30 7.5t-33 31.5l-17 18l-285 299v-347q-18 -9 -44 -9q-32 0 -48.5 18.5t-16.5 52.5v654q18 9 44 9q32 0 48.5 -18.5t16.5 -52.5v-288l274 294q5 5 22 24t34.5 29.5t35.5 10.5q36 0 66 -37l-130 -144l-14 -15q-89 -99 -123.5 -131.5
t-68.5 -40.5q33 -7 57 -20.5t52 -41.5t82 -89z" />
    <glyph glyph-name="M.ss02" horiz-adv-x="777" 
d="M88 720h85q37 0 60 -18t40 -60l116 -296l144 374h63q43 0 68 -26t25 -70v-622q-22 -9 -46 -9q-61 0 -61 67v308l9 256q-7 -19 -43 -108t-65 -155l-63 -142q-8 -4 -27 -4q-22 0 -35 9.5t-23 32.5l-46 104q-16 35 -49 119.5t-54 143.5l2 -52l7 -204v-366q-24 -9 -40 -9
q-31 0 -49 18t-18 49v660z" />
    <glyph glyph-name="P.ss02" horiz-adv-x="607" 
d="M106 12q-18 19 -18 52v656h232q119 0 184 -60t65 -170t-65 -170t-184 -60h-123v-258q-16 -9 -38 -9q-35 0 -53 19zM315 349q144 0 144 142q0 140 -144 140h-118v-282h118z" />
    <glyph glyph-name="R.ss02" horiz-adv-x="624" 
d="M113 4q-17 11 -21 25.5t-4 34.5v656h240q126 0 193 -56t67 -158q0 -75 -36.5 -125t-106.5 -73l146 -285q-11 -14 -29 -21.5t-40 -7.5q-28 0 -40.5 11.5t-22.5 34.5l-108 243h-154v-284q-16 -6 -32 -6q-35 0 -52 11zM328 371q73 0 112 33t39 94q0 63 -39.5 98t-111.5 35
h-131v-260h131z" />
    <glyph glyph-name="W.ss02" horiz-adv-x="957" 
d="M928 710q-95 -425 -171 -710h-73q-43 0 -67.5 21t-35.5 68l-102 438l-124 -527h-74q-48 0 -71.5 21t-32.5 68q-64 262 -148 620q24 17 60 17q28 0 44.5 -16.5t24.5 -54.5l124 -556l141 607q33 13 61 13q26 0 42.5 -16t22.5 -43l127 -561l123 553q8 37 26.5 55.5
t50.5 18.5q33 0 52 -16z" />
    <glyph glyph-name="a" unicode="a" horiz-adv-x="527" 
d="M100.5 259.5q64.5 42.5 184.5 42.5q52 0 78 -6v33q0 52 -30.5 80t-89.5 28q-48 0 -80.5 -19.5t-43.5 -55.5q-48 14 -48 51q0 47 53 76t138 29q204 0 204 -177v-222q0 -61 16 -100q-10 -9 -28 -15.5t-33 -6.5q-24 0 -37 20t-13 54v27q-14 -50 -59.5 -79t-109.5 -29
q-76 0 -121 40t-45 108q0 79 64.5 121.5zM163 93q25 -21 69 -21q58 0 94.5 34t36.5 87v44q-21 6 -70 6q-155 0 -155 -91q0 -38 25 -59z" />
    <glyph glyph-name="aacute" unicode="&#xe1;" horiz-adv-x="527" 
d="M100.5 259.5q64.5 42.5 184.5 42.5q52 0 78 -6v33q0 52 -30.5 80t-89.5 28q-48 0 -80.5 -19.5t-43.5 -55.5q-48 14 -48 51q0 47 53 76t138 29q204 0 204 -177v-222q0 -61 16 -100q-10 -9 -28 -15.5t-33 -6.5q-24 0 -37 20t-13 54v27q-14 -50 -59.5 -79t-109.5 -29
q-76 0 -121 40t-45 108q0 79 64.5 121.5zM163 93q25 -21 69 -21q58 0 94.5 34t36.5 87v44q-21 6 -70 6q-155 0 -155 -91q0 -38 25 -59zM259 574l-46 16l134 178l113 -23z" />
    <glyph glyph-name="abreve" unicode="&#x103;" horiz-adv-x="527" 
d="M100.5 259.5q64.5 42.5 184.5 42.5q52 0 78 -6v33q0 52 -30.5 80t-89.5 28q-48 0 -80.5 -19.5t-43.5 -55.5q-48 14 -48 51q0 47 53 76t138 29q204 0 204 -177v-222q0 -61 16 -100q-10 -9 -28 -15.5t-33 -6.5q-24 0 -37 20t-13 54v27q-14 -50 -59.5 -79t-109.5 -29
q-76 0 -121 40t-45 108q0 79 64.5 121.5zM163 93q25 -21 69 -21q58 0 94.5 34t36.5 87v44q-21 6 -70 6q-155 0 -155 -91q0 -38 25 -59zM152 735q9 -40 40 -61.5t68 -21.5t67.5 21.5t38.5 61.5h53q-3 -49 -27.5 -83.5t-60 -52t-71.5 -17.5q-37 0 -72.5 17.5t-60 52
t-28.5 83.5h53z" />
    <glyph glyph-name="acircumflex" unicode="&#xe2;" horiz-adv-x="527" 
d="M100.5 259.5q64.5 42.5 184.5 42.5q52 0 78 -6v33q0 52 -30.5 80t-89.5 28q-48 0 -80.5 -19.5t-43.5 -55.5q-48 14 -48 51q0 47 53 76t138 29q204 0 204 -177v-222q0 -61 16 -100q-10 -9 -28 -15.5t-33 -6.5q-24 0 -37 20t-13 54v27q-14 -50 -59.5 -79t-109.5 -29
q-76 0 -121 40t-45 108q0 79 64.5 121.5zM163 93q25 -21 69 -21q58 0 94.5 34t36.5 87v44q-21 6 -70 6q-155 0 -155 -91q0 -38 25 -59zM295 765l147 -182l-49 -17l-134 118l-135 -118l-51 17l149 182h73z" />
    <glyph glyph-name="adieresis" unicode="&#xe4;" horiz-adv-x="527" 
d="M100.5 259.5q64.5 42.5 184.5 42.5q52 0 78 -6v33q0 52 -30.5 80t-89.5 28q-48 0 -80.5 -19.5t-43.5 -55.5q-48 14 -48 51q0 47 53 76t138 29q204 0 204 -177v-222q0 -61 16 -100q-10 -9 -28 -15.5t-33 -6.5q-24 0 -37 20t-13 54v27q-14 -50 -59.5 -79t-109.5 -29
q-76 0 -121 40t-45 108q0 79 64.5 121.5zM163 93q25 -21 69 -21q58 0 94.5 34t36.5 87v44q-21 6 -70 6q-155 0 -155 -91q0 -38 25 -59zM91 665l55 63l59 -52q8 -8 8 -21q0 -12 -8 -22l-55 -63l-59 53q-8 9 -8 19q0 11 8 23zM309 665l53 63l60 -52q8 -6 8 -21q0 -12 -8 -22
l-56 -63l-57 53q-10 9 -10 19q0 13 10 23z" />
    <glyph glyph-name="agrave" unicode="&#xe0;" horiz-adv-x="527" 
d="M100.5 259.5q64.5 42.5 184.5 42.5q52 0 78 -6v33q0 52 -30.5 80t-89.5 28q-48 0 -80.5 -19.5t-43.5 -55.5q-48 14 -48 51q0 47 53 76t138 29q204 0 204 -177v-222q0 -61 16 -100q-10 -9 -28 -15.5t-33 -6.5q-24 0 -37 20t-13 54v27q-14 -50 -59.5 -79t-109.5 -29
q-76 0 -121 40t-45 108q0 79 64.5 121.5zM163 93q25 -21 69 -21q58 0 94.5 34t36.5 87v44q-21 6 -70 6q-155 0 -155 -91q0 -38 25 -59zM306 590l-47 -16l-200 171l113 23z" />
    <glyph glyph-name="amacron" unicode="&#x101;" horiz-adv-x="527" 
d="M100.5 259.5q64.5 42.5 184.5 42.5q52 0 78 -6v33q0 52 -30.5 80t-89.5 28q-48 0 -80.5 -19.5t-43.5 -55.5q-48 14 -48 51q0 47 53 76t138 29q204 0 204 -177v-222q0 -61 16 -100q-10 -9 -28 -15.5t-33 -6.5q-24 0 -37 20t-13 54v27q-14 -50 -59.5 -79t-109.5 -29
q-76 0 -121 40t-45 108q0 79 64.5 121.5zM163 93q25 -21 69 -21q58 0 94.5 34t36.5 87v44q-21 6 -70 6q-155 0 -155 -91q0 -38 25 -59zM407 608h-297v67h297v-67z" />
    <glyph glyph-name="aogonek" unicode="&#x105;" horiz-adv-x="527" 
d="M535 -152q-46 -39 -118 -39q-54 0 -89.5 23t-35.5 64q0 36 28 64.5t77 42.5q-13 8 -19.5 26t-6.5 42v27q-14 -50 -59.5 -79t-109.5 -29q-76 0 -121 40t-45 108q0 79 64.5 121.5t184.5 42.5q52 0 78 -6v33q0 52 -30.5 80t-89.5 28q-48 0 -80.5 -19.5t-43.5 -55.5
q-48 14 -48 51q0 47 53 76t138 29q204 0 204 -177v-222q0 -61 16 -100q-3 -3 -13 -9h-1l-6 -3q-69 -35 -69 -86q0 -26 19 -40t51 -14t57 14zM363 237q-21 6 -70 6q-155 0 -155 -91q0 -38 25 -59t69 -21q58 0 94.5 34t36.5 87v44z" />
    <glyph glyph-name="aring" unicode="&#xe5;" horiz-adv-x="527" 
d="M100.5 259.5q64.5 42.5 184.5 42.5q52 0 78 -6v33q0 52 -30.5 80t-89.5 28q-48 0 -80.5 -19.5t-43.5 -55.5q-48 14 -48 51q0 47 53 76t138 29q204 0 204 -177v-222q0 -61 16 -100q-10 -9 -28 -15.5t-33 -6.5q-24 0 -37 20t-13 54v27q-14 -50 -59.5 -79t-109.5 -29
q-76 0 -121 40t-45 108q0 79 64.5 121.5zM163 93q25 -21 69 -21q58 0 94.5 34t36.5 87v44q-21 6 -70 6q-155 0 -155 -91q0 -38 25 -59zM185.5 585q-30.5 16 -46 41.5t-15.5 53.5q0 46 36.5 80t102.5 34q64 0 100 -30t36 -82t-38.5 -82.5t-101.5 -30.5q-43 0 -73.5 16z
M310.5 635.5q17.5 17.5 17.5 43.5q0 24 -17.5 41.5t-48.5 17.5q-29 0 -48.5 -17t-19.5 -42q0 -28 18.5 -44.5t49.5 -16.5t48.5 17.5z" />
    <glyph glyph-name="atilde" unicode="&#xe3;" horiz-adv-x="527" 
d="M100.5 259.5q64.5 42.5 184.5 42.5q52 0 78 -6v33q0 52 -30.5 80t-89.5 28q-48 0 -80.5 -19.5t-43.5 -55.5q-48 14 -48 51q0 47 53 76t138 29q204 0 204 -177v-222q0 -61 16 -100q-10 -9 -28 -15.5t-33 -6.5q-24 0 -37 20t-13 54v27q-14 -50 -59.5 -79t-109.5 -29
q-76 0 -121 40t-45 108q0 79 64.5 121.5zM163 93q25 -21 69 -21q58 0 94.5 34t36.5 87v44q-21 6 -70 6q-155 0 -155 -91q0 -38 25 -59zM231 714.5q21 -10.5 49 -29.5q23 -15 36.5 -22t24.5 -7q40 0 60 55l39 -13q-6 -48 -36.5 -79t-74.5 -31q-19 0 -39 10t-46 28
q-24 16 -38.5 23.5t-27.5 7.5q-44 0 -59 -54l-39 13q4 48 34.5 78.5t75.5 30.5q20 0 41 -10.5z" />
    <glyph glyph-name="ae" unicode="&#xe6;" horiz-adv-x="840" 
d="M449 233q-4 -77 36.5 -119t117.5 -42q52 0 89.5 19t57.5 54q31 -15 31 -46t-23.5 -56t-65.5 -39t-96 -14q-72 0 -127 28.5t-83 81.5q-21 -50 -72 -80t-113 -30q-73 0 -119 39.5t-46 102.5q0 81 62 125.5t175 44.5q52 0 90 -6v33q0 54 -31 81t-83 27q-50 0 -84.5 -18
t-45.5 -57q-22 6 -35 19t-13 30q0 48 52.5 77.5t136.5 29.5q48 0 90 -15.5t66 -46.5q65 62 167 62q100 0 156.5 -61.5t56.5 -169.5q0 -34 -5 -54h-342zM487 401.5q-37 -34.5 -36 -91.5h254q0 58 -33 92t-88 34q-60 0 -97 -34.5zM363 237q-22 6 -81 6q-70 0 -107 -23.5
t-37 -68.5q0 -39 26 -59t72 -20q55 0 91 35t36 86v44z" />
    <glyph glyph-name="b" unicode="b" horiz-adv-x="596" 
d="M492.5 446.5q56.5 -71.5 56.5 -193.5t-57 -192.5t-159 -70.5q-59 0 -101.5 24t-61.5 66v-17q0 -30 -17 -48t-46 -18q-24 0 -39 10v737q24 8 42 8q61 0 61 -67v-272q20 51 63 78t103 27q99 0 155.5 -71.5zM408.5 121.5q37.5 49.5 37.5 133.5q0 85 -38 133t-102 48
q-39 0 -69.5 -18t-48 -48t-17.5 -65v-110q0 -33 18.5 -61.5t49.5 -45t68 -16.5q64 0 101.5 49.5z" />
    <glyph glyph-name="c" unicode="c" horiz-adv-x="504" 
d="M448 132q11 -11 11 -31q0 -31 -22.5 -56.5t-62 -40t-87.5 -14.5q-72 0 -126 33t-83.5 93t-29.5 140q0 79 29.5 138.5t83.5 92t126 32.5q49 0 88 -14.5t61.5 -39.5t22.5 -56q0 -20 -10.5 -31.5t-35.5 -16.5q-10 37 -40.5 56.5t-76.5 19.5q-74 0 -109 -44t-35 -135
q0 -186 144 -186q45 0 76 20.5t40 55.5q25 -5 36 -16z" />
    <glyph glyph-name="cacute" unicode="&#x107;" horiz-adv-x="504" 
d="M448 132q11 -11 11 -31q0 -31 -22.5 -56.5t-62 -40t-87.5 -14.5q-72 0 -126 33t-83.5 93t-29.5 140q0 79 29.5 138.5t83.5 92t126 32.5q49 0 88 -14.5t61.5 -39.5t22.5 -56q0 -20 -10.5 -31.5t-35.5 -16.5q-10 37 -40.5 56.5t-76.5 19.5q-74 0 -109 -44t-35 -135
q0 -186 144 -186q45 0 76 20.5t40 55.5q25 -5 36 -16zM287 574l-46 16l134 178l113 -23z" />
    <glyph glyph-name="ccaron" unicode="&#x10d;" horiz-adv-x="504" 
d="M448 132q11 -11 11 -31q0 -31 -22.5 -56.5t-62 -40t-87.5 -14.5q-72 0 -126 33t-83.5 93t-29.5 140q0 79 29.5 138.5t83.5 92t126 32.5q49 0 88 -14.5t61.5 -39.5t22.5 -56q0 -20 -10.5 -31.5t-35.5 -16.5q-10 37 -40.5 56.5t-76.5 19.5q-74 0 -109 -44t-35 -135
q0 -186 144 -186q45 0 76 20.5t40 55.5q25 -5 36 -16zM250 576l-149 182l50 16l135 -115l134 115l50 -16l-147 -182h-73z" />
    <glyph glyph-name="ccedilla" unicode="&#xe7;" horiz-adv-x="504" 
d="M448 132q11 -11 11 -31q0 -42 -39 -72t-100 -37q47 -14 74 -41.5t27 -62.5q0 -43 -36 -66t-92 -23q-72 0 -117 39l15 32q24 -14 57 -14q30 0 50 14.5t20 39.5q0 45 -61 82q-96 10 -152.5 81t-56.5 183q0 79 29.5 138.5t83.5 92t126 32.5q49 0 88 -14.5t61.5 -39.5
t22.5 -56q0 -20 -10.5 -31.5t-35.5 -16.5q-10 37 -40.5 56.5t-76.5 19.5q-74 0 -109 -44t-35 -135q0 -186 144 -186q45 0 76 20.5t40 55.5q25 -5 36 -16z" />
    <glyph glyph-name="cdotaccent" unicode="&#x10b;" horiz-adv-x="504" 
d="M448 132q11 -11 11 -31q0 -31 -22.5 -56.5t-62 -40t-87.5 -14.5q-72 0 -126 33t-83.5 93t-29.5 140q0 79 29.5 138.5t83.5 92t126 32.5q49 0 88 -14.5t61.5 -39.5t22.5 -56q0 -20 -10.5 -31.5t-35.5 -16.5q-10 37 -40.5 56.5t-76.5 19.5q-74 0 -109 -44t-35 -135
q0 -186 144 -186q45 0 76 20.5t40 55.5q25 -5 36 -16zM226 661l57 66l62 -55q8 -9 8 -22q0 -8 -8 -22l-58 -66l-61 55q-10 8 -10 21q0 11 10 23z" />
    <glyph glyph-name="d" unicode="d" horiz-adv-x="597" 
d="M529 744v-737q-15 -10 -39 -10q-29 0 -46 18t-17 48v17q-19 -42 -61.5 -66t-101.5 -24q-102 0 -159 70.5t-57 192.5t56.5 193.5t155.5 71.5q60 0 103 -27t63 -78v272q0 67 61 67q18 0 42 -8zM426 305q0 35 -17.5 65t-48 48t-69.5 18q-64 0 -102 -48t-38 -133
q0 -84 37.5 -133.5t101.5 -49.5q37 0 68 16.5t49.5 45t18.5 61.5v110z" />
    <glyph glyph-name="eth" unicode="&#xf0;" horiz-adv-x="593" 
d="M112 61.5q-64 71.5 -64 193.5q0 80 29 140t79 92t111 32q34 0 75.5 -14.5t64.5 -47.5q-22 55 -39.5 90t-42.5 70l-85 -53l-37 48l80 51q-44 40 -85 63l36 47q66 -33 112 -70l69 46l39 -49l-63 -38q69 -72 112 -179t43 -209q0 -88 -31 -152t-88 -98t-134 -34
q-117 0 -181 71.5zM406.5 124q35.5 48 35.5 131q0 89 -39.5 133.5t-108.5 44.5q-71 0 -107.5 -46t-36.5 -129q0 -89 40.5 -135.5t109.5 -46.5q71 0 106.5 48z" />
    <glyph glyph-name="dcaron" unicode="&#x10f;" horiz-adv-x="609" 
d="M614.5 535q-13.5 8 -13.5 22q0 18 12 30q9 -10 31 -10q24 0 41 13t18 40q-14 -12 -39 -12q-29 0 -46.5 18t-17.5 49q0 26 19 48.5t55 22.5q39 0 61.5 -29t22.5 -84q0 -52 -29.5 -84t-77.5 -32q-23 0 -36.5 8zM105 60.5q-57 70.5 -57 192.5t56.5 193.5t155.5 71.5
q60 0 103 -27t63 -78v272q0 67 61 67q18 0 42 -8v-737q-15 -10 -39 -10q-29 0 -46 18t-17 48v17q-19 -42 -61.5 -66t-101.5 -24q-102 0 -159 70.5zM358 88.5q31 16.5 49.5 45t18.5 61.5v110q0 35 -17.5 65t-48 48t-69.5 18q-64 0 -102 -48t-38 -133q0 -84 37.5 -133.5
t101.5 -49.5q37 0 68 16.5z" />
    <glyph glyph-name="dcroat" unicode="&#x111;" horiz-adv-x="609" 
d="M609 633v-76h-80v-550q-15 -10 -39 -10q-29 0 -46 18t-17 48v17q-19 -42 -61.5 -66t-101.5 -24q-102 0 -159 70.5t-57 192.5t56.5 193.5t155.5 71.5q60 0 103 -27t63 -78v144h-93v76h93v52q0 67 61 67q18 0 42 -8v-111h80zM426 305q0 35 -17.5 65t-48 48t-69.5 18
q-64 0 -102 -48t-38 -133q0 -84 37.5 -133.5t101.5 -49.5q37 0 68 16.5t49.5 45t18.5 61.5v110z" />
    <glyph glyph-name="e" unicode="e" horiz-adv-x="542" 
d="M115 61q-67 71 -67 194q0 80 29 139.5t82.5 91.5t125.5 32q99 0 156 -61.5t57 -169.5q0 -34 -5 -54h-342q-4 -77 36.5 -119t117.5 -42q51 0 88.5 19t58.5 54q31 -14 31 -46q0 -31 -24 -55.5t-66 -39t-96 -14.5q-115 0 -182 71zM407 310q0 58 -33 92t-88 34
q-60 0 -96.5 -34.5t-36.5 -91.5h254z" />
    <glyph glyph-name="eacute" unicode="&#xe9;" horiz-adv-x="542" 
d="M115 61q-67 71 -67 194q0 80 29 139.5t82.5 91.5t125.5 32q99 0 156 -61.5t57 -169.5q0 -34 -5 -54h-342q-4 -77 36.5 -119t117.5 -42q51 0 88.5 19t58.5 54q31 -14 31 -46q0 -31 -24 -55.5t-66 -39t-96 -14.5q-115 0 -182 71zM407 310q0 58 -33 92t-88 34
q-60 0 -96.5 -34.5t-36.5 -91.5h254zM271 574l-46 16l134 178l113 -23z" />
    <glyph glyph-name="ecaron" unicode="&#x11b;" horiz-adv-x="542" 
d="M115 61q-67 71 -67 194q0 80 29 139.5t82.5 91.5t125.5 32q99 0 156 -61.5t57 -169.5q0 -34 -5 -54h-342q-4 -77 36.5 -119t117.5 -42q51 0 88.5 19t58.5 54q31 -14 31 -46q0 -31 -24 -55.5t-66 -39t-96 -14.5q-115 0 -182 71zM407 310q0 58 -33 92t-88 34
q-60 0 -96.5 -34.5t-36.5 -91.5h254zM234 576l-149 182l50 16l135 -115l134 115l50 -16l-147 -182h-73z" />
    <glyph glyph-name="ecircumflex" unicode="&#xea;" horiz-adv-x="542" 
d="M115 61q-67 71 -67 194q0 80 29 139.5t82.5 91.5t125.5 32q99 0 156 -61.5t57 -169.5q0 -34 -5 -54h-342q-4 -77 36.5 -119t117.5 -42q51 0 88.5 19t58.5 54q31 -14 31 -46q0 -31 -24 -55.5t-66 -39t-96 -14.5q-115 0 -182 71zM407 310q0 58 -33 92t-88 34
q-60 0 -96.5 -34.5t-36.5 -91.5h254zM307 765l147 -182l-49 -17l-134 118l-135 -118l-51 17l149 182h73z" />
    <glyph glyph-name="edieresis" unicode="&#xeb;" horiz-adv-x="542" 
d="M115 61q-67 71 -67 194q0 80 29 139.5t82.5 91.5t125.5 32q99 0 156 -61.5t57 -169.5q0 -34 -5 -54h-342q-4 -77 36.5 -119t117.5 -42q51 0 88.5 19t58.5 54q31 -14 31 -46q0 -31 -24 -55.5t-66 -39t-96 -14.5q-115 0 -182 71zM407 310q0 58 -33 92t-88 34
q-60 0 -96.5 -34.5t-36.5 -91.5h254zM103 665l55 63l59 -52q8 -8 8 -21q0 -12 -8 -22l-55 -63l-59 53q-8 9 -8 19q0 11 8 23zM321 665l53 63l60 -52q8 -6 8 -21q0 -12 -8 -22l-56 -63l-57 53q-10 9 -10 19q0 13 10 23z" />
    <glyph glyph-name="edotaccent" unicode="&#x117;" horiz-adv-x="542" 
d="M115 61q-67 71 -67 194q0 80 29 139.5t82.5 91.5t125.5 32q99 0 156 -61.5t57 -169.5q0 -34 -5 -54h-342q-4 -77 36.5 -119t117.5 -42q51 0 88.5 19t58.5 54q31 -14 31 -46q0 -31 -24 -55.5t-66 -39t-96 -14.5q-115 0 -182 71zM407 310q0 58 -33 92t-88 34
q-60 0 -96.5 -34.5t-36.5 -91.5h254zM210 661l57 66l62 -55q8 -9 8 -22q0 -8 -8 -22l-58 -66l-61 55q-10 8 -10 21q0 11 10 23z" />
    <glyph glyph-name="egrave" unicode="&#xe8;" horiz-adv-x="542" 
d="M115 61q-67 71 -67 194q0 80 29 139.5t82.5 91.5t125.5 32q99 0 156 -61.5t57 -169.5q0 -34 -5 -54h-342q-4 -77 36.5 -119t117.5 -42q51 0 88.5 19t58.5 54q31 -14 31 -46q0 -31 -24 -55.5t-66 -39t-96 -14.5q-115 0 -182 71zM407 310q0 58 -33 92t-88 34
q-60 0 -96.5 -34.5t-36.5 -91.5h254zM318 590l-47 -16l-200 171l113 23z" />
    <glyph glyph-name="emacron" unicode="&#x113;" horiz-adv-x="542" 
d="M115 61q-67 71 -67 194q0 80 29 139.5t82.5 91.5t125.5 32q99 0 156 -61.5t57 -169.5q0 -34 -5 -54h-342q-4 -77 36.5 -119t117.5 -42q51 0 88.5 19t58.5 54q31 -14 31 -46q0 -31 -24 -55.5t-66 -39t-96 -14.5q-115 0 -182 71zM407 310q0 58 -33 92t-88 34
q-60 0 -96.5 -34.5t-36.5 -91.5h254zM419 608h-297v67h297v-67z" />
    <glyph glyph-name="eogonek" unicode="&#x119;" horiz-adv-x="542" 
d="M151 233q-4 -77 36.5 -119t117.5 -42q51 0 88.5 19t58.5 54q31 -14 31 -46q0 -30 -22.5 -54.5t-62.5 -38.5h1q-76 -35 -76 -89q0 -26 19 -40t51 -14t57 14l15 -33q-46 -39 -118 -39q-54 0 -89.5 23t-35.5 64q0 31 20.5 56.5t58.5 41.5h-4q-115 0 -182 71t-67 194
q0 80 29 139.5t82.5 91.5t125.5 32q99 0 156 -61.5t57 -169.5q0 -34 -5 -54h-342zM189.5 401.5q-36.5 -34.5 -36.5 -91.5h254q0 58 -33 92t-88 34q-60 0 -96.5 -34.5z" />
    <glyph glyph-name="f" unicode="f" horiz-adv-x="409" 
d="M145 508q-21 14 -34 40.5t-13 56.5q0 61 48.5 99.5t125.5 38.5q53 0 82 -17t29 -48q0 -13 -3.5 -21t-13.5 -17q-28 22 -73 22q-43 0 -68.5 -22t-25.5 -60q0 -24 11 -43t31 -29h142v-77h-147v-368q0 -67 -55 -67q-20 0 -48 8v427q-55 1 -77.5 18t-22.5 59h112z" />
    <glyph glyph-name="g" unicode="g" horiz-adv-x="528" 
d="M488 449q-16 -15 -45 -15t-68 15q28 -15 45 -45t17 -64q0 -68 -44 -111.5t-127 -56.5q-57 -10 -76 -19t-19 -27q0 -13 12 -20t32 -7h112q70 0 107 -30t37 -87q0 -79 -66.5 -125.5t-179.5 -46.5q-82 0 -127.5 25t-45.5 69q0 56 72 71q-3 -6 -3 -18q0 -73 117 -73
q66 0 100 19.5t34 56.5q0 22 -20 31.5t-66 9.5h-77q-128 0 -128 88q0 32 26.5 57.5t69.5 33.5q-65 17 -100.5 59t-35.5 104q0 80 55 127.5t148 47.5q20 0 50 -4q25 -5 57 -5q86 0 126 50q13 -12 20 -29.5t7 -37.5q0 -28 -16 -43zM310.5 268.5q24.5 26.5 24.5 75.5
q0 97 -95 97q-97 0 -97 -97q0 -49 25 -75.5t72 -26.5q46 0 70.5 26.5z" />
    <glyph glyph-name="gbreve" unicode="&#x11f;" horiz-adv-x="528" 
d="M488 449q-16 -15 -45 -15t-68 15q28 -15 45 -45t17 -64q0 -68 -44 -111.5t-127 -56.5q-57 -10 -76 -19t-19 -27q0 -13 12 -20t32 -7h112q70 0 107 -30t37 -87q0 -79 -66.5 -125.5t-179.5 -46.5q-82 0 -127.5 25t-45.5 69q0 56 72 71q-3 -6 -3 -18q0 -73 117 -73
q66 0 100 19.5t34 56.5q0 22 -20 31.5t-66 9.5h-77q-128 0 -128 88q0 32 26.5 57.5t69.5 33.5q-65 17 -100.5 59t-35.5 104q0 80 55 127.5t148 47.5q20 0 50 -4q25 -5 57 -5q86 0 126 50q13 -12 20 -29.5t7 -37.5q0 -28 -16 -43zM310.5 268.5q24.5 26.5 24.5 75.5
q0 97 -95 97q-97 0 -97 -97q0 -49 25 -75.5t72 -26.5q46 0 70.5 26.5zM157 735q9 -40 40 -61.5t68 -21.5t67.5 21.5t38.5 61.5h53q-3 -49 -27.5 -83.5t-60 -52t-71.5 -17.5q-37 0 -72.5 17.5t-60 52t-28.5 83.5h53z" />
    <glyph glyph-name="uni0123" unicode="&#x123;" horiz-adv-x="528" 
d="M488 449q-16 -15 -45 -15t-68 15q28 -15 45 -45t17 -64q0 -68 -44 -111.5t-127 -56.5q-57 -10 -76 -19t-19 -27q0 -13 12 -20t32 -7h112q70 0 107 -30t37 -87q0 -79 -66.5 -125.5t-179.5 -46.5q-82 0 -127.5 25t-45.5 69q0 56 72 71q-3 -6 -3 -18q0 -73 117 -73
q66 0 100 19.5t34 56.5q0 22 -20 31.5t-66 9.5h-77q-128 0 -128 88q0 32 26.5 57.5t69.5 33.5q-65 17 -100.5 59t-35.5 104q0 80 55 127.5t148 47.5q20 0 50 -4q25 -5 57 -5q86 0 126 50q13 -12 20 -29.5t7 -37.5q0 -28 -16 -43zM310.5 268.5q24.5 26.5 24.5 75.5
q0 97 -95 97q-97 0 -97 -97q0 -49 25 -75.5t72 -26.5q46 0 70.5 26.5zM318.5 686q17.5 -18 17.5 -47q0 -26 -18.5 -48t-53.5 -22q-37 0 -59 28.5t-22 83.5q0 50 29 82t75 32q21 0 34.5 -8t13.5 -21q0 -18 -12 -30q-10 12 -34 12t-40.5 -14.5t-15.5 -44.5q12 15 39 15
q29 0 46.5 -18z" />
    <glyph glyph-name="gdotaccent" unicode="&#x121;" horiz-adv-x="528" 
d="M488 449q-16 -15 -45 -15t-68 15q28 -15 45 -45t17 -64q0 -68 -44 -111.5t-127 -56.5q-57 -10 -76 -19t-19 -27q0 -13 12 -20t32 -7h112q70 0 107 -30t37 -87q0 -79 -66.5 -125.5t-179.5 -46.5q-82 0 -127.5 25t-45.5 69q0 56 72 71q-3 -6 -3 -18q0 -73 117 -73
q66 0 100 19.5t34 56.5q0 22 -20 31.5t-66 9.5h-77q-128 0 -128 88q0 32 26.5 57.5t69.5 33.5q-65 17 -100.5 59t-35.5 104q0 80 55 127.5t148 47.5q20 0 50 -4q25 -5 57 -5q86 0 126 50q13 -12 20 -29.5t7 -37.5q0 -28 -16 -43zM310.5 268.5q24.5 26.5 24.5 75.5
q0 97 -95 97q-97 0 -97 -97q0 -49 25 -75.5t72 -26.5q46 0 70.5 26.5zM203 661l57 66l62 -55q8 -9 8 -22q0 -8 -8 -22l-58 -66l-61 55q-10 8 -10 21q0 11 10 23z" />
    <glyph glyph-name="h" unicode="h" horiz-adv-x="574" 
d="M68 744q31 8 42 8q61 0 61 -67v-266q19 46 63.5 72.5t102.5 26.5q80 0 126 -50t46 -138v-330h-102v300q0 136 -109 136q-57 0 -92 -36t-35 -95v-305h-103v744z" />
    <glyph glyph-name="hbar" unicode="&#x127;" horiz-adv-x="574" 
d="M463 468q46 -50 46 -138v-330h-102v300q0 136 -109 136q-57 0 -92 -36t-35 -95v-305h-103v560h-68v70h68v114q31 8 42 8q61 0 61 -67v-55h105v-70h-105v-141q19 46 63.5 72.5t102.5 26.5q80 0 126 -50z" />
    <glyph glyph-name="i" unicode="i" horiz-adv-x="239" 
d="M67 663l50 60l55 -49q10 -9 10 -22q0 -10 -10 -22l-51 -60l-54 49q-10 9 -10 21q0 11 10 23zM70 508h103v-504q-21 -8 -42 -8q-31 0 -46 17.5t-15 49.5v445z" />
    <glyph glyph-name="dotlessi" unicode="&#x131;" horiz-adv-x="251" 
d="M68 508h115v-501q-24 -10 -51 -10q-64 0 -64 77v434z" />
    <glyph glyph-name="iacute" unicode="&#xed;" horiz-adv-x="251" 
d="M68 508h115v-501q-24 -10 -51 -10q-64 0 -64 77v434zM119 574l-46 16l134 178l113 -23z" />
    <glyph glyph-name="icircumflex" unicode="&#xee;" horiz-adv-x="251" 
d="M68 508h115v-501q-24 -10 -51 -10q-64 0 -64 77v434zM155 765l147 -182l-49 -17l-134 118l-135 -118l-51 17l149 182h73z" />
    <glyph glyph-name="idieresis" unicode="&#xef;" horiz-adv-x="251" 
d="M68 508h115v-501q-24 -10 -51 -10q-64 0 -64 77v434zM-49 665l55 63l59 -52q8 -8 8 -21q0 -12 -8 -22l-55 -63l-59 53q-8 9 -8 19q0 11 8 23zM169 665l53 63l60 -52q8 -6 8 -21q0 -12 -8 -22l-56 -63l-57 53q-10 9 -10 19q0 13 10 23z" />
    <glyph glyph-name="i.loclTRK" horiz-adv-x="251" 
d="M68 508h115v-501q-24 -10 -51 -10q-64 0 -64 77v434zM58 661l57 66l62 -55q8 -9 8 -22q0 -8 -8 -22l-58 -66l-61 55q-10 8 -10 21q0 11 10 23z" />
    <glyph glyph-name="igrave" unicode="&#xec;" horiz-adv-x="251" 
d="M68 508h115v-501q-24 -10 -51 -10q-64 0 -64 77v434zM166 590l-47 -16l-200 171l113 23z" />
    <glyph glyph-name="imacron" unicode="&#x12b;" horiz-adv-x="251" 
d="M68 508h115v-501q-24 -10 -51 -10q-64 0 -64 77v434zM267 608h-297v67h297v-67z" />
    <glyph glyph-name="iogonek" unicode="&#x12f;" horiz-adv-x="251" 
d="M58 617q-10 8 -10 21q0 11 10 23l57 66l62 -55q8 -9 8 -22q0 -8 -8 -22l-58 -66zM249 -155q-46 -39 -118 -39q-54 0 -89.5 23t-35.5 64q0 36 27.5 64.5t76.5 42.5q-42 12 -42 74v434h115v-501q-76 -35 -76 -89q0 -26 19 -40t51 -14t57 14z" />
    <glyph glyph-name="j" unicode="j" horiz-adv-x="241" 
d="M69 619q-10 9 -10 21q0 11 10 23l50 60l55 -49q10 -9 10 -22q0 -10 -10 -22l-51 -60zM-41.5 -169.5q-23.5 16.5 -23.5 43.5q0 23 13 37q17 -20 48 -20q36 0 56 22t20 80v515h103v-518q0 -176 -156 -176q-37 0 -60.5 16.5z" />
    <glyph glyph-name="k" unicode="k" horiz-adv-x="506" 
d="M68 744q24 8 42 8q61 0 61 -67v-422l175 206q24 29 42 39t39 10q18 0 33 -8t23 -25l-96 -108q-33 -37 -75 -73.5t-65 -44.5q29 -10 63 -36t65 -60l120 -133q-13 -22 -28.5 -31t-40.5 -9q-16 0 -32 8t-38 34l-185 219v-251h-103v744z" />
    <glyph glyph-name="uni0137" unicode="&#x137;" horiz-adv-x="506" 
d="M68 744q24 8 42 8q61 0 61 -67v-422l175 206q24 29 42 39t39 10q18 0 33 -8t23 -25l-96 -108q-33 -37 -75 -73.5t-65 -44.5q29 -10 63 -36t65 -60l120 -133q-13 -22 -28.5 -31t-40.5 -9q-16 0 -32 8t-38 34l-185 219v-251h-103v744zM317 -82.5q22 -28.5 22 -83.5
q0 -50 -29 -82t-75 -32q-21 0 -34.5 8t-13.5 21q0 18 12 30q10 -12 34 -12t40.5 14.5t15.5 44.5q-12 -15 -39 -15q-29 0 -46.5 18t-17.5 47q0 26 18.5 48t53.5 22q37 0 59 -28.5z" />
    <glyph glyph-name="l" unicode="l" horiz-adv-x="239" 
d="M68 744q21 8 42 8q31 0 46 -17.5t15 -49.5v-681q-21 -8 -42 -8q-31 0 -46 17.5t-15 49.5v681z" />
    <glyph glyph-name="lacute" unicode="&#x13a;" horiz-adv-x="239" 
d="M68 744q21 8 42 8q31 0 46 -17.5t15 -49.5v-681q-21 -8 -42 -8q-31 0 -46 17.5t-15 49.5v681zM120 811l-46 16l134 178l113 -23z" />
    <glyph glyph-name="lcaron" unicode="&#x13e;" horiz-adv-x="252" 
d="M183 111q0 -52 16 -89q-19 -25 -52 -25q-40 0 -59.5 21.5t-19.5 66.5v661q25 10 50 10q65 0 65 -78v-567zM397 727q22 -29 22 -84q0 -52 -29 -84t-76 -32q-23 0 -36.5 8t-13.5 22q0 18 12 30q9 -10 31 -10q23 0 40 12.5t18 39.5q-14 -11 -37 -11q-29 0 -47 18t-18 49
q0 26 19 48.5t55 22.5q38 0 60 -29z" />
    <glyph glyph-name="uni013C" unicode="&#x13c;" horiz-adv-x="239" 
d="M68 744q21 8 42 8q31 0 46 -17.5t15 -49.5v-681q-21 -8 -42 -8q-31 0 -46 17.5t-15 49.5v681zM179 -82.5q22 -28.5 22 -83.5q0 -50 -29 -82t-75 -32q-21 0 -34.5 8t-13.5 21q0 18 12 30q10 -12 34 -12t40.5 14.5t15.5 44.5q-12 -15 -39 -15q-29 0 -46.5 18t-17.5 47
q0 26 18.5 48t53.5 22q37 0 59 -28.5z" />
    <glyph glyph-name="lslash" unicode="&#x142;" horiz-adv-x="252" 
d="M183 388v-277q0 -52 16 -89q-19 -25 -52 -25q-40 0 -59.5 21.5t-19.5 66.5v224l-53 -36l-45 64l98 68v341q25 10 50 10q65 0 65 -78v-194l57 39l45 -65z" />
    <glyph glyph-name="m" unicode="m" horiz-adv-x="870" 
d="M760.5 471q44.5 -47 44.5 -130v-341h-103v301q0 65 -27 100t-77 35t-83 -32.5t-33 -82.5v-321h-90v301q0 67 -26.5 101t-78.5 34t-84 -31.5t-32 -83.5v-321h-103v502q22 9 47 9q27 0 41.5 -17t14.5 -49v-30q17 48 58.5 75.5t98.5 27.5q101 0 139 -107q19 50 64 78.5
t107 28.5q78 0 122.5 -47z" />
    <glyph glyph-name="n" unicode="n" horiz-adv-x="574" 
d="M463 468q46 -50 46 -138v-330h-102v304q0 132 -108 132q-58 0 -93 -34.5t-35 -92.5v-309h-103v502q27 9 42 9q30 0 45.5 -17t15.5 -49v-21q21 44 65 69t101 25q80 0 126 -50z" />
    <glyph glyph-name="nacute" unicode="&#x144;" horiz-adv-x="574" 
d="M463 468q46 -50 46 -138v-330h-102v304q0 132 -108 132q-58 0 -93 -34.5t-35 -92.5v-309h-103v502q27 9 42 9q30 0 45.5 -17t15.5 -49v-21q21 44 65 69t101 25q80 0 126 -50zM290 574l-46 16l134 178l113 -23z" />
    <glyph glyph-name="ncaron" unicode="&#x148;" horiz-adv-x="574" 
d="M463 468q46 -50 46 -138v-330h-102v304q0 132 -108 132q-58 0 -93 -34.5t-35 -92.5v-309h-103v502q27 9 42 9q30 0 45.5 -17t15.5 -49v-21q21 44 65 69t101 25q80 0 126 -50zM253 576l-149 182l50 16l135 -115l134 115l50 -16l-147 -182h-73z" />
    <glyph glyph-name="uni0146" unicode="&#x146;" horiz-adv-x="574" 
d="M463 468q46 -50 46 -138v-330h-102v304q0 132 -108 132q-58 0 -93 -34.5t-35 -92.5v-309h-103v502q27 9 42 9q30 0 45.5 -17t15.5 -49v-21q21 44 65 69t101 25q80 0 126 -50zM349 -82.5q22 -28.5 22 -83.5q0 -50 -29 -82t-75 -32q-21 0 -34.5 8t-13.5 21q0 18 12 30
q10 -12 34 -12t40.5 14.5t15.5 44.5q-12 -15 -39 -15q-29 0 -46.5 18t-17.5 47q0 26 18.5 48t53.5 22q37 0 59 -28.5z" />
    <glyph glyph-name="eng" unicode="&#x14b;" horiz-adv-x="580" 
d="M68 503q11 8 39 8q38 0 57 -21.5t18 -63.5q21 43 63.5 67.5t97.5 24.5q77 0 124.5 -49.5t47.5 -138.5v-340q0 -176 -155 -176q-37 0 -61 16.5t-24 43.5q0 24 14 39q12 -12 38 -12q35 0 53.5 20t18.5 72v307q0 126 -99 126q-54 0 -85.5 -31t-31.5 -80v-315h-115v503z" />
    <glyph glyph-name="ntilde" unicode="&#xf1;" horiz-adv-x="574" 
d="M463 468q46 -50 46 -138v-330h-102v304q0 132 -108 132q-58 0 -93 -34.5t-35 -92.5v-309h-103v502q27 9 42 9q30 0 45.5 -17t15.5 -49v-21q21 44 65 69t101 25q80 0 126 -50zM262 714.5q21 -10.5 49 -29.5q23 -15 36.5 -22t24.5 -7q40 0 60 55l39 -13q-6 -48 -36.5 -79
t-74.5 -31q-19 0 -39 10t-46 28q-24 16 -38.5 23.5t-27.5 7.5q-44 0 -59 -54l-39 13q4 48 34.5 78.5t75.5 30.5q20 0 41 -10.5z" />
    <glyph glyph-name="o" unicode="o" horiz-adv-x="599" 
d="M167 23q-57 33 -88 93t-31 139q0 78 31 137.5t88 92.5t132 33t132.5 -33t89 -92.5t31.5 -137.5q0 -79 -31.5 -139t-89 -93t-132.5 -33t-132 33zM409.5 120q38.5 47 38.5 135q0 87 -38.5 134t-110.5 47q-71 0 -109.5 -47.5t-38.5 -133.5q0 -88 38.5 -135t109.5 -47
q72 0 110.5 47z" />
    <glyph glyph-name="oacute" unicode="&#xf3;" horiz-adv-x="599" 
d="M167 23q-57 33 -88 93t-31 139q0 78 31 137.5t88 92.5t132 33t132.5 -33t89 -92.5t31.5 -137.5q0 -79 -31.5 -139t-89 -93t-132.5 -33t-132 33zM409.5 120q38.5 47 38.5 135q0 87 -38.5 134t-110.5 47q-71 0 -109.5 -47.5t-38.5 -133.5q0 -88 38.5 -135t109.5 -47
q72 0 110.5 47zM299 574l-46 16l134 178l113 -23z" />
    <glyph glyph-name="ocircumflex" unicode="&#xf4;" horiz-adv-x="599" 
d="M167 23q-57 33 -88 93t-31 139q0 78 31 137.5t88 92.5t132 33t132.5 -33t89 -92.5t31.5 -137.5q0 -79 -31.5 -139t-89 -93t-132.5 -33t-132 33zM409.5 120q38.5 47 38.5 135q0 87 -38.5 134t-110.5 47q-71 0 -109.5 -47.5t-38.5 -133.5q0 -88 38.5 -135t109.5 -47
q72 0 110.5 47zM335 765l147 -182l-49 -17l-134 118l-135 -118l-51 17l149 182h73z" />
    <glyph glyph-name="odieresis" unicode="&#xf6;" horiz-adv-x="599" 
d="M167 23q-57 33 -88 93t-31 139q0 78 31 137.5t88 92.5t132 33t132.5 -33t89 -92.5t31.5 -137.5q0 -79 -31.5 -139t-89 -93t-132.5 -33t-132 33zM409.5 120q38.5 47 38.5 135q0 87 -38.5 134t-110.5 47q-71 0 -109.5 -47.5t-38.5 -133.5q0 -88 38.5 -135t109.5 -47
q72 0 110.5 47zM131 665l55 63l59 -52q8 -8 8 -21q0 -12 -8 -22l-55 -63l-59 53q-8 9 -8 19q0 11 8 23zM349 665l53 63l60 -52q8 -6 8 -21q0 -12 -8 -22l-56 -63l-57 53q-10 9 -10 19q0 13 10 23z" />
    <glyph glyph-name="ograve" unicode="&#xf2;" horiz-adv-x="599" 
d="M167 23q-57 33 -88 93t-31 139q0 78 31 137.5t88 92.5t132 33t132.5 -33t89 -92.5t31.5 -137.5q0 -79 -31.5 -139t-89 -93t-132.5 -33t-132 33zM409.5 120q38.5 47 38.5 135q0 87 -38.5 134t-110.5 47q-71 0 -109.5 -47.5t-38.5 -133.5q0 -88 38.5 -135t109.5 -47
q72 0 110.5 47zM346 590l-47 -16l-200 171l113 23z" />
    <glyph glyph-name="ohungarumlaut" unicode="&#x151;" horiz-adv-x="599" 
d="M167 23q-57 33 -88 93t-31 139q0 78 31 137.5t88 92.5t132 33t132.5 -33t89 -92.5t31.5 -137.5q0 -79 -31.5 -139t-89 -93t-132.5 -33t-132 33zM409.5 120q38.5 47 38.5 135q0 87 -38.5 134t-110.5 47q-71 0 -109.5 -47.5t-38.5 -133.5q0 -88 38.5 -135t109.5 -47
q72 0 110.5 47zM192 590l141 165l97 -25l-194 -156zM366 590l140 165l99 -25l-195 -156z" />
    <glyph glyph-name="omacron" unicode="&#x14d;" horiz-adv-x="599" 
d="M167 23q-57 33 -88 93t-31 139q0 78 31 137.5t88 92.5t132 33t132.5 -33t89 -92.5t31.5 -137.5q0 -79 -31.5 -139t-89 -93t-132.5 -33t-132 33zM409.5 120q38.5 47 38.5 135q0 87 -38.5 134t-110.5 47q-71 0 -109.5 -47.5t-38.5 -133.5q0 -88 38.5 -135t109.5 -47
q72 0 110.5 47zM447 608h-297v67h297v-67z" />
    <glyph glyph-name="oslash" unicode="&#xf8;" horiz-adv-x="599" 
d="M477 452q36 -36 55.5 -86.5t19.5 -110.5q0 -79 -31.5 -139t-89 -93t-132.5 -33q-70 0 -125 29l-48 -69l-51 38l48 69q-36 35 -55.5 85.5t-19.5 112.5q0 78 31 137.5t88 92.5t132 33q71 0 126 -29l49 71l51 -39zM178 136l197 282q-32 18 -76 18q-71 0 -109.5 -47.5
t-38.5 -133.5q0 -74 27 -119zM409.5 120q38.5 47 38.5 135q0 72 -27 117l-197 -281q32 -18 75 -18q72 0 110.5 47z" />
    <glyph glyph-name="otilde" unicode="&#xf5;" horiz-adv-x="599" 
d="M167 23q-57 33 -88 93t-31 139q0 78 31 137.5t88 92.5t132 33t132.5 -33t89 -92.5t31.5 -137.5q0 -79 -31.5 -139t-89 -93t-132.5 -33t-132 33zM409.5 120q38.5 47 38.5 135q0 87 -38.5 134t-110.5 47q-71 0 -109.5 -47.5t-38.5 -133.5q0 -88 38.5 -135t109.5 -47
q72 0 110.5 47zM271 714.5q21 -10.5 49 -29.5q23 -15 36.5 -22t24.5 -7q40 0 60 55l39 -13q-6 -48 -36.5 -79t-74.5 -31q-19 0 -39 10t-46 28q-24 16 -38.5 23.5t-27.5 7.5q-44 0 -59 -54l-39 13q4 48 34.5 78.5t75.5 30.5q20 0 41 -10.5z" />
    <glyph glyph-name="oe" unicode="&#x153;" horiz-adv-x="944" 
d="M553 233q-4 -77 36.5 -119t117.5 -42q51 0 88.5 19t58.5 54q31 -14 31 -46q0 -31 -24 -55.5t-66 -39t-96 -14.5q-65 0 -116 23.5t-84 68.5q-33 -44 -84.5 -68t-115.5 -24q-75 0 -132 33t-88 93t-31 139q0 78 31 137.5t88 92.5t132 33q64 0 115 -23.5t84 -67.5
q31 44 79.5 67.5t109.5 23.5q99 0 156 -61.5t57 -169.5q0 -34 -5 -54h-342zM409.5 120q38.5 47 38.5 135q0 87 -38.5 134t-110.5 47q-71 0 -109.5 -47.5t-38.5 -133.5q0 -88 38.5 -135t109.5 -47q72 0 110.5 47zM591.5 401.5q-36.5 -34.5 -36.5 -91.5h254q0 58 -33 92
t-88 34q-60 0 -96.5 -34.5z" />
    <glyph glyph-name="p" unicode="p" horiz-adv-x="596" 
d="M492 447.5q57 -70.5 57 -192.5t-56.5 -193.5t-155.5 -71.5q-60 0 -103 27t-63 78v-212q0 -67 -61 -67q-18 0 -42 8v677q15 10 39 10q29 0 46 -18t17 -48v-17q19 42 61.5 66t101.5 24q102 0 159 -70.5zM408 120q38 48 38 133q0 84 -37.5 133.5t-101.5 49.5
q-37 0 -68 -16.5t-49.5 -45t-18.5 -61.5v-110q0 -35 17.5 -65t48 -48t69.5 -18q64 0 102 48z" />
    <glyph glyph-name="thorn" unicode="&#xfe;" horiz-adv-x="596" 
d="M68 -176v920q24 8 42 8q61 0 61 -67v-255q20 41 62 64.5t100 23.5q102 0 159 -70.5t57 -192.5t-56.5 -193.5t-155.5 -71.5q-60 0 -103 27t-63 78v-212q0 -67 -61 -67q-18 0 -42 8zM408 120q38 48 38 133q0 84 -37.5 133.5t-101.5 49.5q-37 0 -68 -16.5t-49.5 -45
t-18.5 -61.5v-110q0 -35 17.5 -65t48 -48t69.5 -18q64 0 102 48z" />
    <glyph glyph-name="q" unicode="q" horiz-adv-x="597" 
d="M529 501v-677q-24 -8 -42 -8q-61 0 -61 67v212q-20 -51 -63 -78t-103 -27q-99 0 -155.5 71.5t-56.5 193.5t57 192.5t159 70.5q59 0 101.5 -24t61.5 -66v17q0 30 17 48t46 18q24 0 39 -10zM360.5 90q30.5 18 48 48t17.5 65v110q0 33 -18.5 61.5t-49.5 45t-68 16.5
q-64 0 -101.5 -49.5t-37.5 -133.5q0 -85 38 -133t102 -48q39 0 69.5 18z" />
    <glyph glyph-name="r" unicode="r" horiz-adv-x="439" 
d="M68 502q16 9 43 9q29 0 44 -17.5t15 -48.5v-22q22 43 67.5 69.5t94.5 26.5q39 0 60 -17.5t21 -51.5q0 -28 -20 -52q-18 16 -36.5 22.5t-44.5 6.5q-68 0 -104.5 -41.5t-36.5 -116.5v-269h-103v502z" />
    <glyph glyph-name="racute" unicode="&#x155;" horiz-adv-x="439" 
d="M68 502q16 9 43 9q29 0 44 -17.5t15 -48.5v-22q22 43 67.5 69.5t94.5 26.5q39 0 60 -17.5t21 -51.5q0 -28 -20 -52q-18 16 -36.5 22.5t-44.5 6.5q-68 0 -104.5 -41.5t-36.5 -116.5v-269h-103v502zM220 574l-46 16l134 178l113 -23z" />
    <glyph glyph-name="rcaron" unicode="&#x159;" horiz-adv-x="439" 
d="M68 502q16 9 43 9q29 0 44 -17.5t15 -48.5v-22q22 43 67.5 69.5t94.5 26.5q39 0 60 -17.5t21 -51.5q0 -28 -20 -52q-18 16 -36.5 22.5t-44.5 6.5q-68 0 -104.5 -41.5t-36.5 -116.5v-269h-103v502zM183 576l-149 182l50 16l135 -115l134 115l50 -16l-147 -182h-73z" />
    <glyph glyph-name="uni0157" unicode="&#x157;" horiz-adv-x="439" 
d="M68 502q16 9 43 9q29 0 44 -17.5t15 -48.5v-22q22 43 67.5 69.5t94.5 26.5q39 0 60 -17.5t21 -51.5q0 -28 -20 -52q-18 16 -36.5 22.5t-44.5 6.5q-68 0 -104.5 -41.5t-36.5 -116.5v-269h-103v502zM185 -82.5q22 -28.5 22 -83.5q0 -50 -29 -82t-75 -32q-21 0 -34.5 8
t-13.5 21q0 18 12 30q10 -12 34 -12t40.5 14.5t15.5 44.5q-12 -15 -39 -15q-29 0 -46.5 18t-17.5 47q0 26 18.5 48t53.5 22q37 0 59 -28.5z" />
    <glyph glyph-name="s" unicode="s" horiz-adv-x="457" 
d="M46.5 108.5q8.5 13.5 27.5 26.5q30 -65 127 -65q59 0 85.5 17.5t26.5 57.5q0 28 -25.5 44.5t-87.5 27.5q-159 29 -159 146q0 71 55 112.5t149 41.5q67 0 110 -25.5t43 -66.5q0 -27 -38 -49q-11 30 -44 48t-77 18q-46 0 -71.5 -17.5t-25.5 -48.5q0 -22 10.5 -35
t35.5 -22.5t73 -18.5q83 -17 120.5 -52.5t37.5 -96.5q0 -77 -57.5 -119t-164.5 -42q-67 0 -113 25t-46 62q0 18 8.5 31.5z" />
    <glyph glyph-name="sacute" unicode="&#x15b;" horiz-adv-x="457" 
d="M46.5 108.5q8.5 13.5 27.5 26.5q30 -65 127 -65q59 0 85.5 17.5t26.5 57.5q0 28 -25.5 44.5t-87.5 27.5q-159 29 -159 146q0 71 55 112.5t149 41.5q67 0 110 -25.5t43 -66.5q0 -27 -38 -49q-11 30 -44 48t-77 18q-46 0 -71.5 -17.5t-25.5 -48.5q0 -22 10.5 -35
t35.5 -22.5t73 -18.5q83 -17 120.5 -52.5t37.5 -96.5q0 -77 -57.5 -119t-164.5 -42q-67 0 -113 25t-46 62q0 18 8.5 31.5zM229 574l-46 16l134 178l113 -23z" />
    <glyph glyph-name="scaron" unicode="&#x161;" horiz-adv-x="457" 
d="M46.5 108.5q8.5 13.5 27.5 26.5q30 -65 127 -65q59 0 85.5 17.5t26.5 57.5q0 28 -25.5 44.5t-87.5 27.5q-159 29 -159 146q0 71 55 112.5t149 41.5q67 0 110 -25.5t43 -66.5q0 -27 -38 -49q-11 30 -44 48t-77 18q-46 0 -71.5 -17.5t-25.5 -48.5q0 -22 10.5 -35
t35.5 -22.5t73 -18.5q83 -17 120.5 -52.5t37.5 -96.5q0 -77 -57.5 -119t-164.5 -42q-67 0 -113 25t-46 62q0 18 8.5 31.5zM192 576l-149 182l50 16l135 -115l134 115l50 -16l-147 -182h-73z" />
    <glyph glyph-name="scedilla" unicode="&#x15f;" horiz-adv-x="457" 
d="M377 45q-42 -40 -121 -51q50 -14 78.5 -42t28.5 -64q0 -43 -36 -66t-92 -23q-72 0 -117 39l15 32q24 -14 57 -14q30 0 50 14.5t20 39.5q0 45 -58 80h-5q-67 0 -113 25t-46 62q0 18 8.5 31.5t27.5 26.5q30 -65 127 -65q59 0 85.5 17.5t26.5 57.5q0 28 -25.5 44.5
t-87.5 27.5q-159 29 -159 146q0 71 55 112.5t149 41.5q67 0 110 -25.5t43 -66.5q0 -27 -38 -49q-11 30 -44 48t-77 18q-46 0 -71.5 -17.5t-25.5 -48.5q0 -22 10.5 -35t35.5 -22.5t73 -18.5q83 -17 120.5 -52.5t37.5 -96.5q0 -66 -42 -106z" />
    <glyph glyph-name="uni0219" unicode="&#x219;" horiz-adv-x="457" 
d="M46.5 108.5q8.5 13.5 27.5 26.5q30 -65 127 -65q59 0 85.5 17.5t26.5 57.5q0 28 -25.5 44.5t-87.5 27.5q-159 29 -159 146q0 71 55 112.5t149 41.5q67 0 110 -25.5t43 -66.5q0 -27 -38 -49q-11 30 -44 48t-77 18q-46 0 -71.5 -17.5t-25.5 -48.5q0 -22 10.5 -35
t35.5 -22.5t73 -18.5q83 -17 120.5 -52.5t37.5 -96.5q0 -77 -57.5 -119t-164.5 -42q-67 0 -113 25t-46 62q0 18 8.5 31.5zM288 -82.5q22 -28.5 22 -83.5q0 -50 -29 -82t-75 -32q-21 0 -34.5 8t-13.5 21q0 18 12 30q10 -12 34 -12t40.5 14.5t15.5 44.5q-12 -15 -39 -15
q-29 0 -46.5 18t-17.5 47q0 26 18.5 48t53.5 22q37 0 59 -28.5z" />
    <glyph glyph-name="germandbls" unicode="&#xdf;" horiz-adv-x="616" 
d="M271 6q-30 16 -31 45q0 26 18 48q19 -14 44.5 -21t52.5 -7q56 1 89 25.5t31 66.5q0 29 -22 50t-67 47q-36 22 -57.5 38t-36.5 39t-15 54q0 33 21 57.5t60 54.5q34 27 50 45t16 40q0 39 -23.5 62.5t-82.5 23.5q-72 0 -111 -40.5t-39 -108.5v-525h-100v527q0 71 31.5 122.5
t88 78.5t129.5 27q100 0 154.5 -40t54.5 -115q0 -40 -24.5 -68.5t-68.5 -59.5q-30 -22 -43 -34.5t-13 -27.5t15 -27t49 -31q44 -26 71.5 -46.5t48.5 -55.5t21 -83q0 -86 -63.5 -131.5t-165.5 -45.5q-52 0 -82 16z" />
    <glyph glyph-name="t" unicode="t" horiz-adv-x="396" 
d="M108 508v135q24 8 42 8q61 0 61 -67v-76h140v-77h-139v-271q0 -45 16 -64t58 -19q16 0 41 9t33 26q8 -11 12 -22t4 -26q0 -36 -34 -54.5t-87 -18.5q-71 0 -108.5 35t-37.5 114v292q-51 -1 -69 15t-18 61h86z" />
    <glyph glyph-name="tbar" unicode="&#x167;" horiz-adv-x="396" 
d="M108 508v135q24 8 42 8q61 0 61 -67v-76h140v-77h-139v-120h139v-70h-139v-81q0 -45 16 -64t58 -19q16 0 41 9t33 26q8 -11 12 -22t4 -26q0 -36 -34 -54.5t-87 -18.5q-71 0 -108.5 35t-37.5 114v101h-81v70h81v121q-51 -1 -69 15t-18 61h86z" />
    <glyph glyph-name="tcaron" unicode="&#x165;" horiz-adv-x="396" 
d="M275.5 650.5q-15.5 15.5 -15.5 40.5q0 22 16 40t44 18q32 0 51 -24t19 -69q0 -43 -24.5 -69t-63.5 -26q-19 0 -30 5.5t-11 17.5q0 13 10 25q10 -9 26 -9q21 0 35 11t14 35q-11 -11 -33 -11t-37.5 15.5zM327 86q25 9 33 26q8 -11 12 -22t4 -26q0 -36 -34 -54.5t-87 -18.5
q-71 0 -108.5 35t-37.5 114v292q-51 -1 -69 15t-18 61h86v135q24 8 42 8q61 0 61 -67v-76h140v-77h-139v-271q0 -45 16 -64t58 -19q16 0 41 9z" />
    <glyph glyph-name="uni0163" unicode="&#x163;" horiz-adv-x="396" 
d="M353 -49.5q27 -27.5 27 -62.5q0 -43 -36 -66t-92 -23q-72 0 -117 39l15 32q24 -14 57 -14q30 0 50 14.5t20 39.5q0 48 -67 85q-101 21 -101 145v292q-51 -1 -69 15t-18 61h86v135q24 8 42 8q61 0 61 -67v-76h140v-77h-139v-271q0 -45 16 -64t58 -19q16 0 41 9t33 26
q8 -11 12 -22t4 -26q0 -32 -26.5 -50t-70.5 -22q47 -14 74 -41.5z" />
    <glyph glyph-name="uni021B" unicode="&#x21b;" horiz-adv-x="396" 
d="M108 508v135q24 8 42 8q61 0 61 -67v-76h140v-77h-139v-271q0 -45 16 -64t58 -19q16 0 41 9t33 26q8 -11 12 -22t4 -26q0 -36 -34 -54.5t-87 -18.5q-71 0 -108.5 35t-37.5 114v292q-51 -1 -69 15t-18 61h86zM305 -82.5q22 -28.5 22 -83.5q0 -50 -29 -82t-75 -32
q-21 0 -34.5 8t-13.5 21q0 18 12 30q10 -12 34 -12t40.5 14.5t15.5 44.5q-12 -15 -39 -15q-29 0 -46.5 18t-17.5 47q0 26 18.5 48t53.5 22q37 0 59 -28.5z" />
    <glyph glyph-name="u" unicode="u" horiz-adv-x="578" 
d="M407 508h104v-502q-20 -9 -43 -9q-61 0 -61 67v23q-21 -46 -65.5 -71.5t-103.5 -25.5q-78 0 -124 50t-46 136v327q24 8 42 8q61 0 61 -67v-241q0 -65 27.5 -98t81.5 -33q57 0 92 32t35 83v321z" />
    <glyph glyph-name="uacute" unicode="&#xfa;" horiz-adv-x="578" 
d="M407 508h104v-502q-20 -9 -43 -9q-61 0 -61 67v23q-21 -46 -65.5 -71.5t-103.5 -25.5q-78 0 -124 50t-46 136v327q24 8 42 8q61 0 61 -67v-241q0 -65 27.5 -98t81.5 -33q57 0 92 32t35 83v321zM287 574l-46 16l134 178l113 -23z" />
    <glyph glyph-name="ucircumflex" unicode="&#xfb;" horiz-adv-x="578" 
d="M407 508h104v-502q-20 -9 -43 -9q-61 0 -61 67v23q-21 -46 -65.5 -71.5t-103.5 -25.5q-78 0 -124 50t-46 136v327q24 8 42 8q61 0 61 -67v-241q0 -65 27.5 -98t81.5 -33q57 0 92 32t35 83v321zM323 765l147 -182l-49 -17l-134 118l-135 -118l-51 17l149 182h73z" />
    <glyph glyph-name="udieresis" unicode="&#xfc;" horiz-adv-x="578" 
d="M407 508h104v-502q-20 -9 -43 -9q-61 0 -61 67v23q-21 -46 -65.5 -71.5t-103.5 -25.5q-78 0 -124 50t-46 136v327q24 8 42 8q61 0 61 -67v-241q0 -65 27.5 -98t81.5 -33q57 0 92 32t35 83v321zM119 665l55 63l59 -52q8 -8 8 -21q0 -12 -8 -22l-55 -63l-59 53q-8 9 -8 19
q0 11 8 23zM337 665l53 63l60 -52q8 -6 8 -21q0 -12 -8 -22l-56 -63l-57 53q-10 9 -10 19q0 13 10 23z" />
    <glyph glyph-name="ugrave" unicode="&#xf9;" horiz-adv-x="578" 
d="M407 508h104v-502q-20 -9 -43 -9q-61 0 -61 67v23q-21 -46 -65.5 -71.5t-103.5 -25.5q-78 0 -124 50t-46 136v327q24 8 42 8q61 0 61 -67v-241q0 -65 27.5 -98t81.5 -33q57 0 92 32t35 83v321zM334 590l-47 -16l-200 171l113 23z" />
    <glyph glyph-name="uhungarumlaut" unicode="&#x171;" horiz-adv-x="578" 
d="M407 508h104v-502q-20 -9 -43 -9q-61 0 -61 67v23q-21 -46 -65.5 -71.5t-103.5 -25.5q-78 0 -124 50t-46 136v327q24 8 42 8q61 0 61 -67v-241q0 -65 27.5 -98t81.5 -33q57 0 92 32t35 83v321zM180 590l141 165l97 -25l-194 -156zM354 590l140 165l99 -25l-195 -156z" />
    <glyph glyph-name="umacron" unicode="&#x16b;" horiz-adv-x="578" 
d="M407 508h104v-502q-20 -9 -43 -9q-61 0 -61 67v23q-21 -46 -65.5 -71.5t-103.5 -25.5q-78 0 -124 50t-46 136v327q24 8 42 8q61 0 61 -67v-241q0 -65 27.5 -98t81.5 -33q57 0 92 32t35 83v321zM435 608h-297v67h297v-67z" />
    <glyph glyph-name="uogonek" unicode="&#x173;" horiz-adv-x="578" 
d="M587 -152q-47 -39 -118 -39q-54 0 -89.5 23t-35.5 64q0 35 26 62.5t72 42.5q-35 13 -35 63v23q-21 -46 -65.5 -71.5t-103.5 -25.5q-78 0 -124 50t-46 136v327q24 8 42 8q61 0 61 -67v-241q0 -65 27.5 -98t81.5 -33q57 0 92 32t35 83v321h104v-498h10q-76 -35 -76 -89
q0 -26 19 -40t51 -14t57 14z" />
    <glyph glyph-name="uring" unicode="&#x16f;" horiz-adv-x="578" 
d="M407 508h104v-502q-20 -9 -43 -9q-61 0 -61 67v23q-21 -46 -65.5 -71.5t-103.5 -25.5q-78 0 -124 50t-46 136v327q24 8 42 8q61 0 61 -67v-241q0 -65 27.5 -98t81.5 -33q57 0 92 32t35 83v321zM213.5 585q-30.5 16 -46 41.5t-15.5 53.5q0 46 36.5 80t102.5 34
q64 0 100 -30t36 -82t-38.5 -82.5t-101.5 -30.5q-43 0 -73.5 16zM338.5 635.5q17.5 17.5 17.5 43.5q0 24 -17.5 41.5t-48.5 17.5q-29 0 -48.5 -17t-19.5 -42q0 -28 18.5 -44.5t49.5 -16.5t48.5 17.5z" />
    <glyph glyph-name="v" unicode="v" horiz-adv-x="531" 
d="M475.5 506q14.5 -5 22.5 -13l-163 -493h-83q-25 0 -44.5 15.5t-29.5 44.5l-145 433q10 8 25.5 13t29.5 5q27 0 43 -14.5t25 -47.5l48 -156l7 -21q10 -31 31.5 -98t26.5 -92l60 211l46 151q18 67 71 67q15 0 29.5 -5z" />
    <glyph glyph-name="w" unicode="w" horiz-adv-x="761" 
d="M706.5 506q12.5 -5 19.5 -13l-135 -493h-66q-40 0 -59.5 17.5t-27.5 59.5l-15 74q-8 41 -44 254l-24 -127l-24 -129l-28 -149h-75q-34 0 -52 17t-29 60l-112 416q23 18 54 18q49 0 64 -61l37 -154q23 -95 42 -188l6 -31l10 51q15 81 25 131l48 233q13 9 29 14t30 5
q32 0 50 -17.5t25 -54.5l33 -181l32 -189q27 137 49 223l38 151q9 36 26 52t46 16q15 0 27.5 -5z" />
    <glyph glyph-name="wacute" unicode="&#x1e83;" horiz-adv-x="761" 
d="M706.5 506q12.5 -5 19.5 -13l-135 -493h-66q-40 0 -59.5 17.5t-27.5 59.5l-15 74q-8 41 -44 254l-24 -127l-24 -129l-28 -149h-75q-34 0 -52 17t-29 60l-112 416q23 18 54 18q49 0 64 -61l37 -154q23 -95 42 -188l6 -31l10 51q15 81 25 131l48 233q13 9 29 14t30 5
q32 0 50 -17.5t25 -54.5l33 -181l32 -189q27 137 49 223l38 151q9 36 26 52t46 16q15 0 27.5 -5zM381 574l-46 16l134 178l113 -23z" />
    <glyph glyph-name="wcircumflex" unicode="&#x175;" horiz-adv-x="761" 
d="M706.5 506q12.5 -5 19.5 -13l-135 -493h-66q-40 0 -59.5 17.5t-27.5 59.5l-15 74q-8 41 -44 254l-24 -127l-24 -129l-28 -149h-75q-34 0 -52 17t-29 60l-112 416q23 18 54 18q49 0 64 -61l37 -154q23 -95 42 -188l6 -31l10 51q15 81 25 131l48 233q13 9 29 14t30 5
q32 0 50 -17.5t25 -54.5l33 -181l32 -189q27 137 49 223l38 151q9 36 26 52t46 16q15 0 27.5 -5zM417 765l147 -182l-49 -17l-134 118l-135 -118l-51 17l149 182h73z" />
    <glyph glyph-name="wdieresis" unicode="&#x1e85;" horiz-adv-x="761" 
d="M706.5 506q12.5 -5 19.5 -13l-135 -493h-66q-40 0 -59.5 17.5t-27.5 59.5l-15 74q-8 41 -44 254l-24 -127l-24 -129l-28 -149h-75q-34 0 -52 17t-29 60l-112 416q23 18 54 18q49 0 64 -61l37 -154q23 -95 42 -188l6 -31l10 51q15 81 25 131l48 233q13 9 29 14t30 5
q32 0 50 -17.5t25 -54.5l33 -181l32 -189q27 137 49 223l38 151q9 36 26 52t46 16q15 0 27.5 -5zM213 665l55 63l59 -52q8 -8 8 -21q0 -12 -8 -22l-55 -63l-59 53q-8 9 -8 19q0 11 8 23zM431 665l53 63l60 -52q8 -6 8 -21q0 -12 -8 -22l-56 -63l-57 53q-10 9 -10 19
q0 13 10 23z" />
    <glyph glyph-name="wgrave" unicode="&#x1e81;" horiz-adv-x="761" 
d="M706.5 506q12.5 -5 19.5 -13l-135 -493h-66q-40 0 -59.5 17.5t-27.5 59.5l-15 74q-8 41 -44 254l-24 -127l-24 -129l-28 -149h-75q-34 0 -52 17t-29 60l-112 416q23 18 54 18q49 0 64 -61l37 -154q23 -95 42 -188l6 -31l10 51q15 81 25 131l48 233q13 9 29 14t30 5
q32 0 50 -17.5t25 -54.5l33 -181l32 -189q27 137 49 223l38 151q9 36 26 52t46 16q15 0 27.5 -5zM428 590l-47 -16l-200 171l113 23z" />
    <glyph glyph-name="x" unicode="x" horiz-adv-x="538" 
d="M494 508l-169 -244l187 -231q-27 -39 -65 -39q-24 0 -39 13t-31 35l-109 149l-130 -191h-109l180 256l-176 223q11 15 28 25t37 10q22 0 35 -10.5t27 -29.5l107 -144l116 178h111z" />
    <glyph glyph-name="y" unicode="y" horiz-adv-x="557" 
d="M516 493l-172 -555q-18 -57 -58 -89.5t-97 -32.5q-40 0 -64.5 15.5t-24.5 42.5q0 17 12 43q11 -11 28.5 -17t37.5 -6q38 0 63.5 21t25.5 52q0 29 -16.5 43.5t-47.5 11.5l-162 471q25 18 52 18q32 0 46 -18.5t24 -46.5l64 -192l8 -25q34 -105 51 -163q31 117 53 190
l56 189q8 29 22.5 47.5t47.5 18.5q26 0 51 -18z" />
    <glyph glyph-name="yacute" unicode="&#xfd;" horiz-adv-x="557" 
d="M516 493l-172 -555q-18 -57 -58 -89.5t-97 -32.5q-40 0 -64.5 15.5t-24.5 42.5q0 17 12 43q11 -11 28.5 -17t37.5 -6q38 0 63.5 21t25.5 52q0 29 -16.5 43.5t-47.5 11.5l-162 471q25 18 52 18q32 0 46 -18.5t24 -46.5l64 -192l8 -25q34 -105 51 -163q31 117 53 190
l56 189q8 29 22.5 47.5t47.5 18.5q26 0 51 -18zM278 574l-46 16l134 178l113 -23z" />
    <glyph glyph-name="ycircumflex" unicode="&#x177;" horiz-adv-x="557" 
d="M516 493l-172 -555q-18 -57 -58 -89.5t-97 -32.5q-40 0 -64.5 15.5t-24.5 42.5q0 17 12 43q11 -11 28.5 -17t37.5 -6q38 0 63.5 21t25.5 52q0 29 -16.5 43.5t-47.5 11.5l-162 471q25 18 52 18q32 0 46 -18.5t24 -46.5l64 -192l8 -25q34 -105 51 -163q31 117 53 190
l56 189q8 29 22.5 47.5t47.5 18.5q26 0 51 -18zM314 765l147 -182l-49 -17l-134 118l-135 -118l-51 17l149 182h73z" />
    <glyph glyph-name="ydieresis" unicode="&#xff;" horiz-adv-x="557" 
d="M516 493l-172 -555q-18 -57 -58 -89.5t-97 -32.5q-40 0 -64.5 15.5t-24.5 42.5q0 17 12 43q11 -11 28.5 -17t37.5 -6q38 0 63.5 21t25.5 52q0 29 -16.5 43.5t-47.5 11.5l-162 471q25 18 52 18q32 0 46 -18.5t24 -46.5l64 -192l8 -25q34 -105 51 -163q31 117 53 190
l56 189q8 29 22.5 47.5t47.5 18.5q26 0 51 -18zM110 665l55 63l59 -52q8 -8 8 -21q0 -12 -8 -22l-55 -63l-59 53q-8 9 -8 19q0 11 8 23zM328 665l53 63l60 -52q8 -6 8 -21q0 -12 -8 -22l-56 -63l-57 53q-10 9 -10 19q0 13 10 23z" />
    <glyph glyph-name="ygrave" unicode="&#x1ef3;" horiz-adv-x="557" 
d="M516 493l-172 -555q-18 -57 -58 -89.5t-97 -32.5q-40 0 -64.5 15.5t-24.5 42.5q0 17 12 43q11 -11 28.5 -17t37.5 -6q38 0 63.5 21t25.5 52q0 29 -16.5 43.5t-47.5 11.5l-162 471q25 18 52 18q32 0 46 -18.5t24 -46.5l64 -192l8 -25q34 -105 51 -163q31 117 53 190
l56 189q8 29 22.5 47.5t47.5 18.5q26 0 51 -18zM325 590l-47 -16l-200 171l113 23z" />
    <glyph glyph-name="z" unicode="z" horiz-adv-x="473" 
d="M373 78q31 0 47 -13t16 -38q0 -18 -3 -27h-390l-4 28q-1 4 -1 13q0 20 11.5 43t40.5 59l225 287h-186q-33 0 -51.5 14t-18.5 39v25h302q70 0 74 -53v-21l-279 -356h217z" />
    <glyph glyph-name="zacute" unicode="&#x17a;" horiz-adv-x="473" 
d="M373 78q31 0 47 -13t16 -38q0 -18 -3 -27h-390l-4 28q-1 4 -1 13q0 20 11.5 43t40.5 59l225 287h-186q-33 0 -51.5 14t-18.5 39v25h302q70 0 74 -53v-21l-279 -356h217zM237 574l-46 16l134 178l113 -23z" />
    <glyph glyph-name="zcaron" unicode="&#x17e;" horiz-adv-x="473" 
d="M373 78q31 0 47 -13t16 -38q0 -18 -3 -27h-390l-4 28q-1 4 -1 13q0 20 11.5 43t40.5 59l225 287h-186q-33 0 -51.5 14t-18.5 39v25h302q70 0 74 -53v-21l-279 -356h217zM200 576l-149 182l50 16l135 -115l134 115l50 -16l-147 -182h-73z" />
    <glyph glyph-name="zdotaccent" unicode="&#x17c;" horiz-adv-x="473" 
d="M373 78q31 0 47 -13t16 -38q0 -18 -3 -27h-390l-4 28q-1 4 -1 13q0 20 11.5 43t40.5 59l225 287h-186q-33 0 -51.5 14t-18.5 39v25h302q70 0 74 -53v-21l-279 -356h217zM176 661l57 66l62 -55q8 -9 8 -22q0 -8 -8 -22l-58 -66l-61 55q-10 8 -10 21q0 11 10 23z" />
    <glyph glyph-name="f.ss01" horiz-adv-x="409" 
d="M145 508q-21 14 -34 40.5t-13 56.5q0 61 48.5 99.5t125.5 38.5q53 0 82 -17t29 -48q0 -13 -3.5 -21t-13.5 -17q-28 22 -73 22q-43 0 -68.5 -22t-25.5 -60q0 -24 11 -43t31 -29h142v-77h-147v-548q0 -67 -55 -67q-20 0 -48 8v607q-55 1 -77.5 18t-22.5 59h112z" />
    <glyph glyph-name="f.ss02" horiz-adv-x="427" 
d="M131 7v424q-54 1 -76 18t-22 59h98v84q0 73 50 118t131 45q106 0 106 -66q0 -20 -15 -40q-32 25 -72 25q-43 0 -69 -24t-26 -65v-77h147v-77h-147v-346q0 -42 -13.5 -65t-40.5 -23q-22 0 -51 10z" />
    <glyph glyph-name="i.ss02" horiz-adv-x="253" 
d="M79 604q-20 21 -20 50q0 28 20 48.5t48 20.5q27 0 46.5 -20.5t19.5 -48.5q0 -29 -19.5 -50t-46.5 -21q-28 0 -48 21zM75 508h103v-504q-21 -8 -42 -8q-31 0 -46 17.5t-15 49.5v445z" />
    <glyph glyph-name="j.ss02" horiz-adv-x="252" 
d="M86 604q-20 21 -20 50q0 28 20 48.5t48 20.5q27 0 46.5 -20.5t19.5 -48.5q0 -29 -19.5 -50t-46.5 -21q-28 0 -48 21zM-31.5 -169.5q-23.5 16.5 -23.5 43.5q0 23 13 37q17 -20 48 -20q36 0 56 22t20 80v515h103v-518q0 -176 -156 -176q-37 0 -60.5 16.5z" />
    <glyph glyph-name="k.ss04" horiz-adv-x="518" 
d="M68 744q24 8 42 8q61 0 61 -67v-434l178 216q23 28 44 38t42 10q16 0 31 -8t25 -22l-116 -135q-68 -78 -128 -95q33 -11 58.5 -34t73.5 -81q81 -95 109 -125t41 -33q-12 -23 -33.5 -36.5t-43.5 -13.5q-23 0 -43 10t-44 42l-194 261v-245h-103v744z" />
    <glyph glyph-name="fi.001" horiz-adv-x="658" 
d="M133 -176v607q-55 1 -77.5 18t-22.5 59h112q-21 13 -34 38t-13 53q0 43 31.5 77t87.5 53t128 19q91 0 140 -21t49 -59q0 -24 -29 -48q-47 47 -141 47q-76 0 -120.5 -23.5t-44.5 -63.5q0 -24 11 -43t31 -29h142v-77h-147v-548q0 -67 -55 -67q-20 0 -48 8zM475 74v434h115
v-501q-24 -10 -49 -10q-66 0 -66 77z" />
    <glyph glyph-name="c_t.dlig" horiz-adv-x="878" 
d="M854 90q4 -11 4 -26q0 -36 -34 -54.5t-87 -18.5q-71 0 -108.5 35t-37.5 114v292q-45 -1 -61 15t-16 61h76v70q0 157 -129 157q-57 0 -90.5 -29t-33.5 -90q0 -39 19.5 -70.5t56.5 -60.5q22 -14 34 -34t12 -42q0 -20 -10.5 -31.5t-35.5 -16.5q-10 37 -40.5 56.5t-76.5 19.5
q-74 0 -109 -44t-35 -135q0 -186 144 -186q45 0 76 20.5t40 55.5q25 -5 36 -16t11 -31q0 -31 -22.5 -56.5t-62 -40t-87.5 -14.5q-72 0 -126 33t-83.5 93t-29.5 140q0 79 29.5 138.5t83.5 92t126 32.5q23 0 42 -3q-26 49 -26 108q0 80 52.5 127t139.5 47q52 0 97 -23t73 -69
t28 -112v-86h140v-77h-139v-271q0 -45 16 -64t58 -19q16 0 41 9t33 26q8 -11 12 -22z" />
    <glyph glyph-name="c_t_t.dlig" horiz-adv-x="1223" 
d="M1199 90q4 -11 4 -26q0 -36 -34 -54.5t-87 -18.5q-71 0 -108.5 35t-37.5 114v292h-3v-1h-239v-271q0 -45 16 -64t58 -19q16 0 41 9t33 26q8 -11 12 -22t4 -26q0 -36 -34 -54.5t-87 -18.5q-71 0 -108.5 35t-37.5 114v292q-45 -1 -61 15t-16 61h76v70q0 157 -129 157
q-57 0 -90.5 -29t-33.5 -90q0 -39 19.5 -70t57.5 -61q45 -32 45 -76q0 -20 -10.5 -31.5t-35.5 -16.5q-10 37 -40.5 56.5t-76.5 19.5q-74 0 -109 -44t-35 -135q0 -186 144 -186q45 0 76 20.5t40 55.5q25 -5 36 -16t11 -31q0 -31 -22.5 -56.5t-62 -40t-87.5 -14.5
q-72 0 -126 33t-83.5 93t-29.5 140q0 79 29.5 138.5t83.5 92t126 32.5q23 0 42 -3q-26 49 -26 108q0 80 52.5 127t139.5 47q52 0 97 -23t73 -69t28 -112v-86h242v135q24 8 42 8q61 0 61 -67v-76h140v-77h-139v-271q0 -45 16 -64t58 -19q16 0 41 9t33 26q8 -11 12 -22z" />
    <glyph glyph-name="e_t.dlig" horiz-adv-x="878" 
d="M854 90q4 -11 4 -26q0 -36 -34 -54.5t-87 -18.5q-71 0 -108.5 35t-37.5 114v292q-45 -1 -61 15t-16 61h76v70q0 157 -129 157q-57 0 -90.5 -29t-33.5 -90q0 -41 20 -73.5t59 -63.5q39 -30 60.5 -79t21.5 -113q0 -34 -5 -54h-342q-4 -77 36.5 -119t117.5 -42q51 0 88.5 19
t58.5 54q31 -14 31 -46q0 -31 -24 -55.5t-66 -39t-96 -14.5q-115 0 -182 71t-67 194q0 80 29 139.5t82.5 91.5t125.5 32q23 0 44 -3q-26 49 -26 109q0 80 52.5 127t139.5 47q52 0 97 -23t73 -69t28 -112v-86h140v-77h-139v-271q0 -45 16 -64t58 -19q16 0 41 9t33 26
q8 -11 12 -22zM407 310q0 58 -33 92t-88 34q-60 0 -96.5 -34.5t-36.5 -91.5h254z" />
    <glyph glyph-name="e_t_t.dlig" horiz-adv-x="1223" 
d="M1199 90q4 -11 4 -26q0 -36 -34 -54.5t-87 -18.5q-71 0 -108.5 35t-37.5 114v292h-3v-1h-239v-271q0 -45 16 -64t58 -19q16 0 41 9t33 26q8 -11 12 -22t4 -26q0 -36 -34 -54.5t-87 -18.5q-71 0 -108.5 35t-37.5 114v292q-45 -1 -61 15t-16 61h76v70q0 157 -129 157
q-57 0 -90.5 -29t-33.5 -90q0 -41 20.5 -74t62.5 -66q38 -30 58 -78t20 -111q0 -34 -5 -54h-342q-4 -77 36.5 -119t117.5 -42q51 0 88.5 19t58.5 54q31 -14 31 -46q0 -31 -24 -55.5t-66 -39t-96 -14.5q-115 0 -182 71t-67 194q0 80 29 139.5t82.5 91.5t125.5 32q23 0 44 -3
q-26 49 -26 109q0 80 52.5 127t139.5 47q52 0 97 -23t73 -69t28 -112v-86h242v135q24 8 42 8q61 0 61 -67v-76h140v-77h-139v-271q0 -45 16 -64t58 -19q16 0 41 9t33 26q8 -11 12 -22zM407 310q0 58 -33 92t-88 34q-60 0 -96.5 -34.5t-36.5 -91.5h254z" />
    <glyph glyph-name="f_b.dlig" horiz-adv-x="1004" 
d="M639.5 14q-42.5 24 -61.5 66v-17q0 -30 -17 -48t-46 -18q-24 0 -39 10v653q-49 13 -112 13q-76 0 -120.5 -25t-44.5 -68q0 -24 11 -43t31 -29h142v-77h-147v-368q0 -67 -55 -67q-20 0 -48 8v427q-55 1 -77.5 18t-22.5 59h112q-21 13 -34 38t-13 53q0 45 32.5 80.5t93 55
t141.5 19.5q141 0 214 -40v-301q20 51 63 78t103 27q99 0 155.5 -71.5t56.5 -193.5t-57 -192.5t-159 -70.5q-59 0 -101.5 24zM816.5 121.5q37.5 49.5 37.5 133.5q0 85 -38 133t-102 48q-39 0 -69.5 -18t-48 -48t-17.5 -65v-110q0 -33 18.5 -61.5t49.5 -45t68 -16.5
q64 0 101.5 49.5z" />
    <glyph glyph-name="f_h.dlig" horiz-adv-x="982" 
d="M133 4v427q-55 1 -77.5 18t-22.5 59h112q-21 13 -34 38t-13 53q0 45 32.5 80.5t93 55t141.5 19.5q141 0 214 -40v-295q19 46 63.5 72.5t102.5 26.5q80 0 126 -50t46 -138v-330h-102v300q0 136 -109 136q-57 0 -92 -36t-35 -95v-305h-103v660q-49 13 -112 13
q-76 0 -120.5 -25t-44.5 -68q0 -24 11 -43t31 -29h142v-77h-147v-368q0 -67 -55 -67q-20 0 -48 8z" />
    <glyph glyph-name="f_k.dlig" horiz-adv-x="922" 
d="M812.5 2q-15.5 9 -37.5 32l-196 208v-242h-103v660q-49 13 -112 13q-76 0 -120.5 -25t-44.5 -68q0 -24 11 -43t31 -29h142v-77h-147v-368q0 -67 -55 -67q-20 0 -48 8v427q-55 1 -77.5 18t-22.5 59h112q-21 13 -34 38t-13 53q0 45 32.5 80.5t93 55t141.5 19.5
q141 0 214 -40v-466l187 222q21 25 38 35t39 10q16 0 31 -8t25 -22l-84 -99q-51 -61 -80 -90t-60 -43q29 -10 51.5 -28.5t73.5 -71.5l111 -115q-11 -21 -28 -33t-36 -12t-34.5 9z" />
    <glyph glyph-name="s_t.dlig" horiz-adv-x="828" 
d="M804 90q4 -11 4 -26q0 -36 -34 -54.5t-87 -18.5q-71 0 -108.5 35t-37.5 114v292q-45 -1 -61 15t-16 61h76v70q0 157 -129 157q-57 0 -90.5 -29t-33.5 -90q0 -39 19.5 -70.5t55.5 -58.5q36 -25 36 -62q0 -27 -38 -49q-11 30 -44 48t-77 18q-46 0 -71.5 -17.5t-25.5 -48.5
q0 -22 10.5 -35t35.5 -22.5t73 -18.5q83 -17 120.5 -52.5t37.5 -96.5q0 -77 -57.5 -119t-164.5 -42q-67 0 -113 25t-46 62q0 18 8.5 31.5t27.5 26.5q30 -65 127 -65q59 0 85.5 17.5t26.5 57.5q0 28 -25.5 44.5t-87.5 27.5q-159 29 -159 146q0 71 55 112.5t149 41.5
q13 0 35 -2q-27 48 -27 109q0 80 52.5 127t139.5 47q52 0 97 -23t73 -69t28 -112v-86h140v-77h-139v-271q0 -45 16 -64t58 -19q16 0 41 9t33 26q8 -11 12 -22z" />
    <glyph glyph-name="zero" unicode="0" horiz-adv-x="643" 
d="M84.5 557.5q31.5 83.5 92 128t144.5 44.5q83 0 143.5 -44.5t92.5 -128t32 -198.5q0 -114 -32 -197.5t-92.5 -127.5t-143.5 -44t-143.5 44.5t-92.5 128t-32 197.5t31.5 197.5zM202.5 150.5q40.5 -71.5 120.5 -71.5q74 0 115.5 73t41.5 208t-41.5 208t-114.5 73
q-81 0 -121.5 -72t-40.5 -210q0 -137 40.5 -208.5z" />
    <glyph glyph-name="one" unicode="1" horiz-adv-x="394" 
d="M221 720q42 0 60.5 -25.5t18.5 -81.5v-611q-13 -9 -42 -9q-63 0 -63 91v267q0 159 10 230q-18 -26 -51.5 -40t-71.5 -14q-24 0 -41.5 14t-17.5 33q0 22 10 38q6 -1 19 -1q102 0 146 109h23z" />
    <glyph glyph-name="two" unicode="2" horiz-adv-x="518" 
d="M253 88q60 3 119 3h32q49 0 69.5 -15.5t20.5 -51.5q0 -16 -3 -24h-450l-2 37q-1 24 9.5 46t41.5 61q21 27 49.5 56t33.5 35q29 29 57 60q70 74 100 126.5t30 98.5q0 54 -33 87.5t-87 33.5q-45 0 -84 -27t-59 -73q-23 6 -36 22t-13 38q0 34 27 64t73 47.5t99 17.5
q65 0 115 -25.5t78 -72t28 -106.5q0 -71 -38.5 -140t-129.5 -160q-14 -14 -88 -90l-54 -56q35 5 95 8z" />
    <glyph glyph-name="three" unicode="3" horiz-adv-x="508" 
d="M127.5 6q-41.5 16 -65.5 43.5t-24 62.5q0 26 12 42t41 29q16 -54 47.5 -79t83.5 -25q62 0 97.5 37.5t35.5 103.5q0 64 -36.5 100.5t-99.5 36.5q-36 0 -76 -18l-15 75l87 87q62 66 85.5 89t53.5 47q-51 -6 -252 -6h-74q-5 13 -5 27q0 30 19 46t55 16h344l3 -26
q2 -20 2 -28q0 -25 -8 -44t-26 -38l-156 -160l17 1q54 0 97 -26.5t66.5 -74t23.5 -109.5q0 -67 -30 -118t-84 -79t-125 -28q-52 0 -93.5 16z" />
    <glyph glyph-name="four" unicode="4" horiz-adv-x="587" 
d="M357 15q-14 23 -14 69v122h-218q-87 0 -87 61v31q64 107 131 206.5t156 215.5h40q43 0 62 -25t19 -82v-321q43 -2 63.5 -17t20.5 -44q0 -16 -3 -25h-81v-206q-28 -8 -46 -8q-29 0 -43 23zM343 293q1 100 4 173.5t10 170.5q-142 -222 -233 -344h219z" />
    <glyph glyph-name="five" unicode="5" horiz-adv-x="517" 
d="M140.5 6.5q-42.5 16.5 -67.5 45.5t-25 63q0 48 48 67q15 -50 49 -76.5t82 -26.5q66 0 102 45.5t36 125.5q0 73 -29.5 113.5t-82.5 40.5q-42 0 -72 -23.5t-35 -59.5h-22q-31 0 -50 20.5t-19 55.5v323h388q4 -5 4 -19q0 -70 -85 -70h-208v-193q17 25 49.5 39t73.5 14
q56 0 100 -29t68.5 -83.5t24.5 -126.5q0 -79 -29.5 -138.5t-83 -91.5t-123.5 -32q-51 0 -93.5 16.5z" />
    <glyph glyph-name="six" unicode="6" horiz-adv-x="571" 
d="M468 419.5q54 -64.5 54 -176.5q0 -118 -60 -185.5t-165 -67.5q-117 0 -178 88.5t-61 257.5q0 123 32 211.5t92 135.5t144 47q53 0 96 -17.5t68 -48.5t25 -68q0 -23 -11 -36.5t-36 -19.5q-16 47 -53.5 74t-88.5 27q-80 0 -124 -67t-46 -190q22 49 64 74.5t100 25.5
q94 0 148 -64.5zM384 120q33 41 33 116q0 76 -33.5 117.5t-93.5 41.5q-61 0 -94 -40.5t-33 -116.5t33 -117.5t94 -41.5t94 41z" />
    <glyph glyph-name="seven" unicode="7" horiz-adv-x="510" 
d="M380 720q42 0 65 -25.5t23 -71.5v-22l-250 -601h-106l268 631h-278q-30 0 -47 15.5t-17 41.5q0 20 4 32h338z" />
    <glyph glyph-name="eight" unicode="8" horiz-adv-x="572" 
d="M156.5 17q-56.5 27 -88 75t-31.5 110q0 66 35.5 115.5t97.5 69.5q-49 22 -75.5 62t-26.5 92q0 54 28 96.5t78 66.5t114 24q63 0 112.5 -24t77 -66.5t27.5 -97.5q0 -53 -26.5 -93t-75.5 -60q62 -21 97 -70t35 -115q0 -62 -31.5 -110.5t-88 -75t-129.5 -26.5t-129.5 27z
M374.5 453.5q32.5 28.5 32.5 76.5q0 49 -32.5 77.5t-88.5 28.5q-55 0 -87.5 -28.5t-32.5 -76.5q0 -49 32.5 -77.5t88.5 -28.5q55 0 87.5 28.5zM390 118q39 35 39 93q0 57 -39 90.5t-104 33.5t-103 -33.5t-38 -90.5q0 -58 38.5 -93t102.5 -35q65 0 104 35z" />
    <glyph glyph-name="nine" unicode="9" horiz-adv-x="572" 
d="M453.5 641q60.5 -89 60.5 -265q0 -186 -66.5 -286t-190.5 -100q-54 0 -98 17.5t-69 48.5t-25 68q0 23 11 36.5t36 19.5q16 -48 54 -74.5t90 -26.5q159 0 160 258q-21 -49 -63 -75t-101 -26q-94 0 -148 64.5t-54 176.5q0 118 60 185.5t165 67.5q118 0 178.5 -89z
M376 365.5q33 40.5 33 116.5t-33 117.5t-94 41.5t-94 -41t-33 -116q0 -76 33.5 -117.5t93.5 -41.5q61 0 94 40.5z" />
    <glyph glyph-name="zero.osf" horiz-adv-x="576" 
d="M115 66.5q-62 76.5 -62 213.5q0 129 63 203.5t172 74.5t171.5 -74t62.5 -204q0 -87 -29 -152.5t-82 -101.5t-123 -36q-111 0 -173 76.5zM382 129.5q34 54.5 34 150.5q0 193 -128 193q-62 0 -96 -50.5t-34 -142.5q0 -101 33 -153t97 -52q60 0 94 54.5z" />
    <glyph glyph-name="one.osf" horiz-adv-x="394" 
d="M221 551q42 0 60.5 -25.5t18.5 -81.5v-442q-13 -9 -42 -9q-63 0 -63 91v98q0 159 10 230q-18 -26 -51.5 -40t-71.5 -14q-24 0 -41.5 14t-17.5 33q0 22 10 38q6 -1 19 -1q102 0 146 109h23z" />
    <glyph glyph-name="two.osf" horiz-adv-x="472" 
d="M39 45q-1 16 9 30.5t31 32.5q102 66 154 107t74.5 75t22.5 72q0 47 -28 75t-78 28q-55 0 -92 -25t-53 -68q-18 10 -28 26t-10 33q0 39 30 68t74 44.5t86 15.5q97 0 151.5 -50.5t54.5 -134.5q0 -83 -63 -153.5t-183 -134.5q90 6 130 6h28q58 0 78.5 -14.5t20.5 -43.5
q0 -18 -4 -34h-402z" />
    <glyph glyph-name="three.osf" horiz-adv-x="508" 
d="M127.5 -166q-41.5 16 -65.5 43.5t-24 62.5q0 26 12 42t41 29q16 -54 47.5 -79t83.5 -25q62 0 97.5 37.5t35.5 103.5q0 64 -36.5 100.5t-99.5 36.5q-36 0 -76 -18l-15 75l87 87q62 66 85.5 89t53.5 47q-51 -6 -252 -6h-74q-5 13 -5 27q0 30 19 46t55 16h344l3 -26
q2 -20 2 -28q0 -25 -8 -44t-26 -38l-156 -160l17 1q54 0 97 -26.5t66.5 -74t23.5 -109.5q0 -67 -30 -118t-84 -79t-125 -28q-52 0 -93.5 16z" />
    <glyph glyph-name="four.osf" horiz-adv-x="587" 
d="M357 -157q-14 23 -14 69v122h-218q-87 0 -87 61v31q64 107 131 206.5t156 215.5h40q43 0 62 -25t19 -82v-321q43 -2 63.5 -17t20.5 -44q0 -16 -3 -25h-81v-206q-28 -8 -46 -8q-29 0 -43 23zM343 121q1 100 4 173.5t10 170.5q-142 -222 -233 -344h219z" />
    <glyph glyph-name="five.osf" horiz-adv-x="517" 
d="M140.5 -165.5q-42.5 16.5 -67.5 45.5t-25 63q0 48 48 67q15 -50 49 -76.5t82 -26.5q66 0 102 45.5t36 125.5q0 73 -29.5 113.5t-82.5 40.5q-42 0 -72 -23.5t-35 -59.5h-22q-31 0 -50 20.5t-19 55.5v323h388q4 -5 4 -19q0 -70 -85 -70h-208v-193q17 25 49.5 39t73.5 14
q56 0 100 -29t68.5 -83.5t24.5 -126.5q0 -79 -29.5 -138.5t-83 -91.5t-123.5 -32q-51 0 -93.5 16.5z" />
    <glyph glyph-name="six.osf" horiz-adv-x="571" 
d="M468 419.5q54 -64.5 54 -176.5q0 -118 -60 -185.5t-165 -67.5q-117 0 -178 88.5t-61 257.5q0 123 32 211.5t92 135.5t144 47q53 0 96 -17.5t68 -48.5t25 -68q0 -23 -11 -36.5t-36 -19.5q-16 47 -53.5 74t-88.5 27q-80 0 -124 -67t-46 -190q22 49 64 74.5t100 25.5
q94 0 148 -64.5zM384 120q33 41 33 116q0 76 -33.5 117.5t-93.5 41.5q-61 0 -94 -40.5t-33 -116.5t33 -117.5t94 -41.5t94 41z" />
    <glyph glyph-name="seven.osf" horiz-adv-x="510" 
d="M112 -172l268 631h-278q-30 0 -47 15.5t-17 41.5q0 20 4 32h338q42 0 65 -25.5t23 -71.5v-22l-250 -601h-106z" />
    <glyph glyph-name="eight.osf" horiz-adv-x="572" 
d="M156.5 17q-56.5 27 -88 75t-31.5 110q0 66 35.5 115.5t97.5 69.5q-49 22 -75.5 62t-26.5 92q0 54 28 96.5t78 66.5t114 24q63 0 112.5 -24t77 -66.5t27.5 -97.5q0 -53 -26.5 -93t-75.5 -60q62 -21 97 -70t35 -115q0 -62 -31.5 -110.5t-88 -75t-129.5 -26.5t-129.5 27z
M374.5 453.5q32.5 28.5 32.5 76.5q0 49 -32.5 77.5t-88.5 28.5q-55 0 -87.5 -28.5t-32.5 -76.5q0 -49 32.5 -77.5t88.5 -28.5q55 0 87.5 28.5zM390 118q39 35 39 93q0 57 -39 90.5t-104 33.5t-103 -33.5t-38 -90.5q0 -58 38.5 -93t102.5 -35q65 0 104 35z" />
    <glyph glyph-name="nine.osf" horiz-adv-x="572" 
d="M453.5 469q60.5 -89 60.5 -265q0 -186 -66.5 -286t-190.5 -100q-54 0 -98 17.5t-69 48.5t-25 68q0 23 11 36.5t36 19.5q16 -48 54 -74.5t90 -26.5q159 0 160 258q-21 -49 -63 -75t-101 -26q-94 0 -148 64.5t-54 176.5q0 118 60 185.5t165 67.5q118 0 178.5 -89z
M376 193.5q33 40.5 33 116.5t-33 117.5t-94 41.5t-94 -41t-33 -116q0 -76 33.5 -117.5t93.5 -41.5q61 0 94 40.5z" />
    <glyph glyph-name="one.ss01" horiz-adv-x="394" 
d="M221 720q42 0 60.5 -25.5t18.5 -81.5v-611q-13 -9 -42 -9q-63 0 -63 91v267q0 159 10 230q-18 -26 -51.5 -40t-71.5 -14q-24 0 -41.5 14t-17.5 33q0 22 10 38q6 -1 19 -1q102 0 146 109h23z" />
    <glyph glyph-name="two.ss01" horiz-adv-x="495" 
d="M231 85.5q58 2.5 108 2.5h40q42 0 67 -17.5t25 -46.5q0 -16 -3 -24h-427l-2 37q-1 25 9.5 47t41.5 60q21 27 49.5 56t33.5 35q29 29 57 60q70 74 100 126.5t30 98.5q0 54 -33 87.5t-87 33.5q-45 0 -84 -27t-59 -73q-23 6 -36 22t-13 38q0 34 27 64t73 47.5t99 17.5
q65 0 115 -25.5t78 -72t28 -106.5q0 -71 -38.5 -140t-129.5 -160q-14 -14 -88 -90l-54 -56q15 3 73 5.5z" />
    <glyph glyph-name="three.ss01" horiz-adv-x="508" 
d="M127.5 6q-41.5 16 -65.5 43.5t-24 62.5q0 26 12 42t41 29q16 -54 47.5 -79t83.5 -25q62 0 97.5 37.5t35.5 103.5q0 64 -36.5 100.5t-99.5 36.5q-36 0 -76 -18l-15 75l87 87q62 66 85.5 89t53.5 47q-51 -6 -252 -6h-74q-5 13 -5 27q0 30 19 46t55 16h344l3 -26
q2 -20 2 -28q0 -25 -8 -44t-26 -38l-156 -160l17 1q54 0 97 -26.5t66.5 -74t23.5 -109.5q0 -67 -30 -118t-84 -79t-125 -28q-52 0 -93.5 16z" />
    <glyph glyph-name="four.ss01" horiz-adv-x="587" 
d="M357 15q-14 23 -14 69v122h-218q-87 0 -87 61v31q64 107 131 206.5t156 215.5h40q43 0 62 -25t19 -82v-321q43 -2 63.5 -17t20.5 -44q0 -16 -3 -25h-81v-206q-28 -8 -46 -8q-29 0 -43 23zM343 293q1 100 4 173.5t10 170.5q-142 -222 -233 -344h219z" />
    <glyph glyph-name="five.ss01" horiz-adv-x="517" 
d="M140.5 6.5q-42.5 16.5 -67.5 45.5t-25 63q0 48 48 67q15 -50 49 -76.5t82 -26.5q66 0 102 45.5t36 125.5q0 73 -29.5 113.5t-82.5 40.5q-42 0 -72 -23.5t-35 -59.5h-22q-31 0 -50 20.5t-19 55.5v323h388q4 -5 4 -19q0 -70 -85 -70h-208v-193q17 25 49.5 39t73.5 14
q56 0 100 -29t68.5 -83.5t24.5 -126.5q0 -79 -29.5 -138.5t-83 -91.5t-123.5 -32q-51 0 -93.5 16.5z" />
    <glyph glyph-name="six.ss01" horiz-adv-x="571" 
d="M468 419.5q54 -64.5 54 -176.5q0 -118 -60 -185.5t-165 -67.5q-117 0 -178 88.5t-61 257.5q0 123 32 211.5t92 135.5t144 47q53 0 96 -17.5t68 -48.5t25 -68q0 -23 -11 -36.5t-36 -19.5q-16 47 -53.5 74t-88.5 27q-80 0 -124 -67t-46 -190q22 49 64 74.5t100 25.5
q94 0 148 -64.5zM384 120q33 41 33 116q0 76 -33.5 117.5t-93.5 41.5q-61 0 -94 -40.5t-33 -116.5t33 -117.5t94 -41.5t94 41z" />
    <glyph glyph-name="seven.ss01" horiz-adv-x="510" 
d="M380 720q42 0 65 -25.5t23 -71.5v-22l-250 -601h-106l268 631h-278q-30 0 -47 15.5t-17 41.5q0 20 4 32h338z" />
    <glyph glyph-name="eight.ss01" horiz-adv-x="572" 
d="M156.5 17q-56.5 27 -88 75t-31.5 110q0 66 35.5 115.5t97.5 69.5q-49 22 -75.5 62t-26.5 92q0 54 28 96.5t78 66.5t114 24q63 0 112.5 -24t77 -66.5t27.5 -97.5q0 -53 -26.5 -93t-75.5 -60q62 -21 97 -70t35 -115q0 -62 -31.5 -110.5t-88 -75t-129.5 -26.5t-129.5 27z
M374.5 453.5q32.5 28.5 32.5 76.5q0 49 -32.5 77.5t-88.5 28.5q-55 0 -87.5 -28.5t-32.5 -76.5q0 -49 32.5 -77.5t88.5 -28.5q55 0 87.5 28.5zM390 118q39 35 39 93q0 57 -39 90.5t-104 33.5t-103 -33.5t-38 -90.5q0 -58 38.5 -93t102.5 -35q65 0 104 35z" />
    <glyph glyph-name="nine.ss01" horiz-adv-x="572" 
d="M453.5 641q60.5 -89 60.5 -265q0 -186 -66.5 -286t-190.5 -100q-54 0 -98 17.5t-69 48.5t-25 68q0 23 11 36.5t36 19.5q16 -48 54 -74.5t90 -26.5q159 0 160 258q-21 -49 -63 -75t-101 -26q-94 0 -148 64.5t-54 176.5q0 118 60 185.5t165 67.5q118 0 178.5 -89z
M376 365.5q33 40.5 33 116.5t-33 117.5t-94 41.5t-94 -41t-33 -116q0 -76 33.5 -117.5t93.5 -41.5q61 0 94 40.5z" />
    <glyph glyph-name="four.ss02" horiz-adv-x="587" 
d="M357 15q-14 23 -14 69v122h-218q-87 0 -87 61v31q64 107 131 206.5t156 215.5h40q43 0 62 -25t19 -82v-321q43 -2 63.5 -17t20.5 -44q0 -16 -3 -25h-81v-206q-28 -8 -46 -8q-29 0 -43 23zM343 293q1 100 4 173.5t10 170.5q-142 -222 -233 -344h219z" />
    <glyph glyph-name="five.ss02" horiz-adv-x="517" 
d="M140.5 6.5q-42.5 16.5 -67.5 45.5t-25 63q0 48 48 67q15 -50 49 -76.5t82 -26.5q66 0 102 45.5t36 125.5q0 73 -29.5 113.5t-82.5 40.5q-42 0 -72 -23.5t-35 -59.5h-22q-31 0 -50 20.5t-19 55.5v323h388q4 -5 4 -19q0 -70 -85 -70h-208v-193q17 25 49.5 39t73.5 14
q56 0 100 -29t68.5 -83.5t24.5 -126.5q0 -79 -29.5 -138.5t-83 -91.5t-123.5 -32q-51 0 -93.5 16.5z" />
    <glyph glyph-name="zero.tf" horiz-adv-x="600" 
d="M464.5 685.5q60.5 -44.5 92.5 -128t32 -198.5q0 -114 -32 -197.5t-92.5 -127.5t-143.5 -44t-143.5 44.5t-92.5 128t-32 197.5t31.5 197.5t92 128t144.5 44.5q83 0 143.5 -44.5zM202.5 569q-40.5 -72 -40.5 -210q0 -20 2 -54l293 220q-19 57 -52.5 86.5t-80.5 29.5
q-81 0 -121.5 -72zM438.5 152q41.5 73 41.5 208q0 47 -4 80l-300 -219q34 -142 147 -142q74 0 115.5 73z" />
    <glyph glyph-name="one.tf" horiz-adv-x="600" 
d="M540 89q4 -5 4 -21q0 -34 -17 -51t-55 -17h-413q-4 5 -4 21q0 68 77 68h132v262q0 159 10 230q-18 -26 -51.5 -40t-71.5 -14q-24 0 -41.5 14t-17.5 33q0 22 10 38q6 -1 19 -1q102 0 146 109h23q42 0 60.5 -25.5t18.5 -81.5v-524h171z" />
    <glyph glyph-name="two.tf" horiz-adv-x="600" 
d="M276 85.5q58 2.5 108 2.5h40q42 0 67 -17.5t25 -46.5q0 -16 -3 -24h-427l-2 37q-1 25 9.5 47t41.5 60q21 27 49.5 56t33.5 35q29 29 57 60q70 74 100 126.5t30 98.5q0 54 -33 87.5t-87 33.5q-45 0 -84 -27t-59 -73q-23 6 -36 22t-13 38q0 34 27 64t73 47.5t99 17.5
q65 0 115 -25.5t78 -72t28 -106.5q0 -71 -38.5 -140t-129.5 -160q-14 -14 -88 -90l-54 -56q15 3 73 5.5z" />
    <glyph glyph-name="three.tf" horiz-adv-x="600" 
d="M186.5 6q-41.5 16 -65.5 44t-24 62q0 26 12 42t41 29q16 -54 47 -79t83 -25q62 0 97.5 37.5t35.5 103.5q0 64 -36.5 100.5t-99.5 36.5q-36 0 -76 -18l-15 75l87 87q62 66 85.5 89t53.5 47q-51 -6 -251 -6h-74q-5 13 -5 27q0 30 19 46t55 16h343l3 -26q2 -20 2 -28
q0 -25 -8 -44t-26 -38l-156 -160l17 1q54 0 97 -26.5t66.5 -74t23.5 -109.5q0 -67 -30 -118t-84 -79t-125 -28q-51 0 -92.5 16z" />
    <glyph glyph-name="four.tf" horiz-adv-x="600" 
d="M374 15q-14 23 -14 69v122h-218q-87 0 -87 61v31q64 107 131 206.5t156 215.5h40q43 0 62 -25t19 -82v-321q43 -2 63.5 -17t20.5 -44q0 -16 -3 -25h-81v-206q-28 -8 -46 -8q-29 0 -43 23zM360 293q1 100 4 173.5t10 170.5q-142 -222 -233 -344h219z" />
    <glyph glyph-name="five.tf" horiz-adv-x="600" 
d="M182.5 6.5q-42.5 16.5 -67.5 45.5t-25 63q0 48 48 67q15 -50 49 -76.5t82 -26.5q66 0 102 45.5t36 125.5q0 73 -29.5 113.5t-82.5 40.5q-42 0 -72 -23.5t-35 -59.5h-22q-31 0 -50 20.5t-19 55.5v323h388q4 -5 4 -19q0 -70 -85 -70h-208v-193q17 25 49.5 39t73.5 14
q56 0 100 -29t68.5 -83.5t24.5 -126.5q0 -79 -29.5 -138.5t-83 -91.5t-123.5 -32q-51 0 -93.5 16.5z" />
    <glyph glyph-name="six.tf" horiz-adv-x="600" 
d="M478 419.5q54 -64.5 54 -176.5q0 -118 -60 -185.5t-165 -67.5q-117 0 -178 88.5t-61 257.5q0 123 32 211.5t92 135.5t144 47q53 0 96 -17.5t68 -48.5t25 -68q0 -23 -11 -36.5t-36 -19.5q-16 47 -53.5 74t-88.5 27q-80 0 -124 -67t-46 -190q22 49 64 74.5t100 25.5
q94 0 148 -64.5zM394 120q33 41 33 116q0 76 -33.5 117.5t-93.5 41.5q-61 0 -94 -40.5t-33 -116.5t33 -117.5t94 -41.5t94 41z" />
    <glyph glyph-name="seven.tf" horiz-adv-x="600" 
d="M154 0l268 631h-278q-30 0 -47 15.5t-17 41.5q0 20 4 32h338q42 0 65 -25.5t23 -71.5v-22l-250 -601h-106z" />
    <glyph glyph-name="eight.tf" horiz-adv-x="600" 
d="M170.5 17q-56.5 27 -88 75t-31.5 110q0 66 35.5 115.5t97.5 69.5q-49 22 -75.5 62t-26.5 92q0 54 28 96.5t78 66.5t114 24q63 0 112.5 -24t77 -66.5t27.5 -97.5q0 -53 -26.5 -93t-75.5 -60q62 -21 97 -70t35 -115q0 -62 -31.5 -110.5t-88 -75t-129.5 -26.5t-129.5 27z
M388.5 453.5q32.5 28.5 32.5 76.5q0 49 -32.5 77.5t-88.5 28.5q-55 0 -87.5 -28.5t-32.5 -76.5q0 -49 32.5 -77.5t88.5 -28.5q55 0 87.5 28.5zM404 118q39 35 39 93q0 57 -39 90.5t-104 33.5t-103 -33.5t-38 -90.5q0 -58 38.5 -93t102.5 -35q65 0 104 35z" />
    <glyph glyph-name="nine.tf" horiz-adv-x="600" 
d="M471.5 641q60.5 -89 60.5 -265q0 -186 -66.5 -286t-190.5 -100q-54 0 -98 17.5t-69 48.5t-25 68q0 23 11 36.5t36 19.5q16 -48 54 -74.5t90 -26.5q159 0 160 258q-21 -49 -63 -75t-101 -26q-94 0 -148 64.5t-54 176.5q0 118 60 185.5t165 67.5q118 0 178.5 -89z
M394 365.5q33 40.5 33 116.5t-33 117.5t-94 41.5t-94 -41t-33 -116q0 -76 33.5 -117.5t93.5 -41.5q61 0 94 40.5z" />
    <glyph glyph-name="uni2080" unicode="&#x2080;" horiz-adv-x="487" 
d="M103 402q50 69 140 69q89 0 139.5 -69.5t50.5 -190.5t-50.5 -189.5t-139.5 -68.5t-139.5 69.5t-50.5 189.5q0 121 50 190zM167 73.5q26 -47.5 77 -47.5q48 0 74.5 49t26.5 137q0 89 -26.5 137.5t-73.5 48.5q-52 0 -78 -47.5t-26 -139.5q0 -90 26 -137.5z" />
    <glyph glyph-name="uni2081" unicode="&#x2081;" horiz-adv-x="322" 
d="M171 464q29 0 43 -18t14 -57v-427q-10 -7 -35 -7q-51 0 -51 64v187q0 95 7 143q-13 -13 -36 -20t-47 -7q-18 0 -30.5 11.5t-12.5 26.5q0 18 7 28q82 -2 117 76h24z" />
    <glyph glyph-name="uni2082" unicode="&#x2082;" horiz-adv-x="371" 
d="M186.5 30.5q38.5 1.5 65.5 1.5h28q31 0 49 -15t18 -40q0 -7 -2 -17h-304l-1 27l-1 12q0 28 30 65q16 19 52 55q30 28 51 52q44 46 64 82.5t20 69.5q0 34 -20.5 54.5t-53.5 20.5q-31 0 -57 -19t-37 -48q-21 4 -31.5 17.5t-10.5 30.5q0 25 19.5 46t52 33.5t69.5 12.5
q70 0 114 -41.5t44 -106.5q0 -49 -28 -97.5t-89 -110.5q10 1 -73 -71q-11 -9 -19 -17q12 2 50.5 3.5z" />
    <glyph glyph-name="uni2083" unicode="&#x2083;" horiz-adv-x="381" 
d="M66.5 -21.5q-37.5 25.5 -37.5 63.5q0 20 13 34.5t37 16.5q20 -67 83 -67q38 0 60.5 23t22.5 66t-23 66.5t-61 23.5q-29 0 -54 -14l-13 57l57 60l37 39q28 31 49 48q-43 -5 -159 -5h-51q-4 12 -4 22q0 52 56 52h239l2 -19q3 -12 3 -24q0 -34 -24 -64l-101 -100
q59 0 97 -40.5t38 -104.5q0 -73 -47.5 -116t-121.5 -43q-60 0 -97.5 25.5z" />
    <glyph glyph-name="uni2084" unicode="&#x2084;" horiz-adv-x="446" 
d="M387 98h-58v-136q-16 -7 -35 -7q-50 0 -50 64v79h-142q-64 0 -64 50v22q41 74 85 142t104 152h44q31 0 44.5 -18t13.5 -57v-220q60 -3 60 -54q0 -13 -2 -17zM184.5 279q-33.5 -52 -76.5 -109h136q1 113 8 224q-34 -63 -67.5 -115z" />
    <glyph glyph-name="uni2085" unicode="&#x2085;" horiz-adv-x="393" 
d="M86.5 -21q-38.5 26 -38.5 63q0 23 12.5 36.5t28.5 15.5q11 -31 35 -49.5t54 -18.5q38 0 60 30t22 80q0 46 -18 71t-52 25q-25 0 -42.5 -13t-21.5 -34h-24q-22 0 -35.5 14.5t-13.5 38.5v226h274q3 -4 3 -15q0 -58 -61 -58h-137v-122q11 17 33.5 26t47.5 9q59 0 96 -48
t37 -123q0 -81 -45.5 -130.5t-120.5 -49.5q-55 0 -93.5 26z" />
    <glyph glyph-name="uni2086" unicode="&#x2086;" horiz-adv-x="435" 
d="M347 255q39 -44 39 -123q0 -87 -44 -133t-118 -46q-79 0 -122.5 61t-43.5 173q0 145 51.5 214.5t136.5 69.5q60 0 97 -27t37 -67q0 -36 -37 -45q-12 35 -39 50.5t-57 15.5q-49 0 -78.5 -44t-28.5 -125q12 33 39.5 51.5t65.5 18.5q63 0 102 -44zM280 52q20 26 20 73
q0 48 -20.5 74.5t-57.5 26.5t-57 -26t-20 -73q0 -48 20.5 -74.5t58.5 -26.5q36 0 56 26z" />
    <glyph glyph-name="uni2087" unicode="&#x2087;" horiz-adv-x="386" 
d="M282 464q29 0 45.5 -18t16.5 -50v-15l-177 -421h-87l185 431h-179q-23 0 -35.5 13.5t-12.5 37.5q0 15 3 22h241z" />
    <glyph glyph-name="uni2088" unicode="&#x2088;" horiz-adv-x="426" 
d="M85.5 -5.5q-48.5 41.5 -48.5 108.5q0 46 24 80t69 48q-35 15 -53.5 44t-18.5 64q0 57 43 94t113 37q67 0 110 -37t43 -95q0 -36 -18 -64t-52 -43q44 -14 68 -48.5t24 -79.5q0 -67 -49.5 -108.5t-128.5 -41.5q-77 0 -125.5 41.5zM266.5 281.5q20.5 18.5 20.5 48.5
q0 29 -20.5 47t-53.5 18q-34 0 -54.5 -18t-20.5 -47q0 -30 20.5 -48.5t54.5 -18.5q33 0 53.5 18.5zM277 51q24 22 24 58t-24 58t-64 22t-65 -22t-25 -58t25 -58t65 -22t64 22z" />
    <glyph glyph-name="uni2089" unicode="&#x2089;" horiz-adv-x="436" 
d="M335 407q43 -64 43 -189q0 -137 -50.5 -201t-137.5 -64q-56 0 -92.5 27t-36.5 67q0 36 39 45q10 -35 37.5 -50.5t57.5 -15.5q51 0 79.5 45t24.5 132q-11 -37 -39 -57.5t-69 -20.5q-63 0 -102 44.5t-39 122.5q0 86 44 132.5t118 46.5q80 0 123 -64zM271 223.5
q20 25.5 20 73.5q0 49 -20 75t-58 26q-36 0 -56.5 -26.5t-20.5 -72.5q0 -48 20.5 -74.5t57.5 -26.5t57 25.5z" />
    <glyph glyph-name="zero.dnom" horiz-adv-x="388" 
d="M73 379q43 59 120 59q76 0 120 -59t44 -163t-43.5 -163t-120.5 -59q-76 0 -119.5 59t-43.5 163t43 163zM129 98.5q23 -40.5 66 -40.5q41 0 63 41.5t22 116.5q0 76 -22 117t-62 41q-44 0 -67 -40.5t-23 -117.5t23 -117.5z" />
    <glyph glyph-name="one.dnom" horiz-adv-x="243" 
d="M140 432q25 0 37 -15.5t12 -48.5v-366q-9 -6 -30 -6q-45 0 -45 54v161q0 80 6 122q-10 -10 -29 -16.5t-41 -6.5q-16 0 -27 9.5t-11 23.5t6 24q71 -2 101 65h21z" />
    <glyph glyph-name="two.dnom" horiz-adv-x="313" 
d="M204 63h25q26 0 41.5 -13t15.5 -35q0 -9 -2 -15h-260l-2 24q0 3 -0.5 13t6 23t19.5 30q17 20 46 47l43 44q39 42 55.5 72.5t16.5 57.5q0 28 -17.5 45.5t-46.5 17.5q-26 0 -48 -15.5t-32 -40.5q-15 2 -25.5 13t-10.5 28q0 32 36.5 55.5t85.5 23.5q60 0 97 -35.5t37 -91.5
q0 -43 -23 -83.5t-76 -94.5q-23 -26 -50.5 -49.5t-28.5 -24.5q26 4 98 4z" />
    <glyph glyph-name="three.dnom" horiz-adv-x="309" 
d="M54 16q-32 22 -32 55q0 19 11.5 31t31.5 14q13 -58 71 -58q32 0 51.5 20t19.5 55q0 36 -20 56.5t-52 20.5q-25 0 -46 -13l-11 50l48 51q34 34 43 44q16 19 30 30q-28 -4 -134 -4h-44q-4 8 -4 19q0 45 50 45h203l3 -17q2 -14 2 -19q0 -30 -22 -58l-85 -83q50 -1 82 -35
t32 -90q0 -62 -41 -99t-104 -37q-51 0 -83 22z" />
    <glyph glyph-name="four.dnom" horiz-adv-x="357" 
d="M322 118h-49v-116q-17 -7 -31 -7q-43 0 -43 55v68h-122q-56 0 -56 44v18q62 111 162 252h39q26 0 38.5 -15.5t12.5 -48.5v-188q50 -3 50 -47q0 -12 -1 -15zM83 180h116q0 92 6 191q-57 -104 -122 -191z" />
    <glyph glyph-name="five.dnom" horiz-adv-x="312" 
d="M60.5 17q-33.5 23 -33.5 55q0 18 10.5 29.5t25.5 13.5q9 -26 30 -41.5t46 -15.5q33 0 52 25t19 67q0 39 -16 61t-45 22q-20 0 -35 -11t-19 -29h-20q-20 0 -32 12t-12 33v194h236q4 -4 4 -13q0 -51 -53 -51h-117v-102q9 13 27.5 21t41.5 8q50 0 82 -41t32 -106
q0 -69 -39 -111.5t-103 -42.5q-48 0 -81.5 23z" />
    <glyph glyph-name="six.dnom" horiz-adv-x="344" 
d="M282 252q33 -38 33 -105q0 -73 -37.5 -113t-101.5 -40q-68 0 -105.5 52.5t-37.5 148.5q0 124 44.5 183.5t117.5 59.5q52 0 84 -23t32 -57q0 -30 -34 -39q-9 29 -32 42t-48 13q-45 0 -69 -38t-24 -105q12 29 35.5 44t55.5 15q54 0 87 -38zM223 80.5q17 22.5 17 61.5
q0 40 -17.5 62t-47.5 22q-32 0 -49.5 -21.5t-17.5 -61.5t18 -62.5t50 -22.5q30 0 47 22.5z" />
    <glyph glyph-name="seven.dnom" horiz-adv-x="308" 
d="M232 432q25 0 38.5 -15.5t13.5 -42.5v-14l-152 -360h-74l157 368h-152q-20 0 -31 12t-11 33q0 11 2 19h209z" />
    <glyph glyph-name="eight.dnom" horiz-adv-x="345" 
d="M63 30q-42 36 -42 93q0 39 21.5 68t58.5 41q-29 14 -45 37.5t-16 54.5q0 49 37 81t97 32q59 0 95.5 -32t36.5 -81q0 -30 -15.5 -54.5t-45.5 -37.5q39 -12 59 -41.5t20 -67.5q0 -58 -42 -93.5t-110 -35.5q-67 0 -109 36zM217.5 276q16.5 16 16.5 41t-16 39.5t-44 14.5
q-30 0 -46.5 -14.5t-16.5 -39.5q0 -26 16.5 -41.5t46.5 -15.5q27 0 43.5 16zM227.5 78.5q19.5 18.5 19.5 49.5q0 30 -20 49t-53 19q-34 0 -55 -19t-21 -49q0 -31 20.5 -49.5t55.5 -18.5q34 0 53.5 18.5z" />
    <glyph glyph-name="nine.dnom" horiz-adv-x="344" 
d="M273.5 383q36.5 -55 36.5 -162q0 -117 -43 -172t-118 -55q-48 0 -79.5 23t-31.5 57q0 32 34 39q10 -29 33 -42t47 -13q44 0 68.5 37t19.5 110q-10 -31 -34.5 -47t-56.5 -16q-54 0 -87.5 38t-33.5 105q0 73 38.5 113t101.5 40q69 0 105.5 -55zM218 227.5q17 21.5 17 61.5
q0 41 -17.5 63t-49.5 22q-30 0 -47 -22.5t-17 -61.5q0 -40 17 -62t48 -22q32 0 49 21.5z" />
    <glyph glyph-name="zero.numr" horiz-adv-x="388" 
d="M73 667q43 59 120 59q76 0 120 -59t44 -163t-43.5 -163t-120.5 -59q-76 0 -119.5 59t-43.5 163t43 163zM129 386.5q23 -40.5 66 -40.5q41 0 63 41.5t22 116.5q0 76 -22 117t-62 41q-44 0 -67 -40.5t-23 -117.5t23 -117.5z" />
    <glyph glyph-name="one.numr" horiz-adv-x="243" 
d="M140 720q25 0 37 -15.5t12 -48.5v-366q-9 -6 -30 -6q-45 0 -45 54v161q0 80 6 122q-10 -10 -29 -16.5t-41 -6.5q-16 0 -27 9.5t-11 23.5t6 24q71 -2 101 65h21z" />
    <glyph glyph-name="two.numr" horiz-adv-x="313" 
d="M204 351h25q26 0 41.5 -13t15.5 -35q0 -9 -2 -15h-260l-2 24q0 3 -0.5 13t6 23t19.5 30q17 20 46 47l43 44q39 42 55.5 72.5t16.5 57.5q0 28 -17.5 45.5t-46.5 17.5q-26 0 -48 -15.5t-32 -40.5q-15 2 -25.5 13t-10.5 28q0 32 36.5 55.5t85.5 23.5q60 0 97 -35.5t37 -91.5
q0 -43 -23 -83.5t-76 -94.5q-23 -26 -50.5 -49.5t-28.5 -24.5q26 4 98 4z" />
    <glyph glyph-name="three.numr" horiz-adv-x="309" 
d="M54 304q-32 22 -32 55q0 19 11.5 31t31.5 14q13 -58 71 -58q32 0 51.5 20t19.5 55q0 36 -20 56.5t-52 20.5q-25 0 -46 -13l-11 50l48 51q34 34 43 44q16 19 30 30q-28 -4 -134 -4h-44q-4 8 -4 19q0 45 50 45h203l3 -17q2 -14 2 -19q0 -30 -22 -58l-85 -83q50 -1 82 -35
t32 -90q0 -62 -41 -99t-104 -37q-51 0 -83 22z" />
    <glyph glyph-name="four.numr" horiz-adv-x="357" 
d="M322 406h-49v-116q-18 -7 -31 -7q-43 0 -43 55v68h-122q-56 0 -56 44v18q62 111 162 252h39q26 0 38.5 -15.5t12.5 -48.5v-188q50 -3 50 -47q0 -12 -1 -15zM83 468h116q0 92 6 191q-57 -104 -122 -191z" />
    <glyph glyph-name="five.numr" horiz-adv-x="312" 
d="M60.5 305q-33.5 23 -33.5 55q0 18 10.5 29.5t25.5 13.5q9 -26 30 -41.5t46 -15.5q33 0 52 25t19 67q0 39 -16 61t-45 22q-20 0 -35 -11t-19 -29h-20q-20 0 -32 12t-12 33v194h236q4 -4 4 -13q0 -51 -53 -51h-117v-102q9 13 27.5 21t41.5 8q50 0 82 -41t32 -106
q0 -69 -39 -111.5t-103 -42.5q-48 0 -81.5 23z" />
    <glyph glyph-name="six.numr" horiz-adv-x="344" 
d="M282 540q33 -38 33 -105q0 -73 -37.5 -113t-101.5 -40q-68 0 -105.5 52.5t-37.5 148.5q0 124 44.5 183.5t117.5 59.5q52 0 84 -23t32 -57q0 -30 -34 -39q-9 29 -32 42t-48 13q-45 0 -69 -38t-24 -105q12 29 35.5 44t55.5 15q54 0 87 -38zM223 368.5q17 22.5 17 61.5
q0 40 -17.5 62t-47.5 22q-32 0 -49.5 -21.5t-17.5 -61.5t18 -62.5t50 -22.5q30 0 47 22.5z" />
    <glyph glyph-name="seven.numr" horiz-adv-x="308" 
d="M232 720q25 0 38.5 -15.5t13.5 -42.5v-14l-152 -360h-74l157 368h-152q-20 0 -31 12t-11 33q0 11 2 19h209z" />
    <glyph glyph-name="eight.numr" horiz-adv-x="345" 
d="M63 318q-42 36 -42 93q0 39 21.5 68t58.5 41q-29 14 -45 37.5t-16 54.5q0 49 37 81t97 32q59 0 95.5 -32t36.5 -81q0 -30 -15.5 -54.5t-45.5 -37.5q39 -12 59 -41.5t20 -67.5q0 -58 -42 -93.5t-110 -35.5q-67 0 -109 36zM217.5 564q16.5 16 16.5 41t-16 39.5t-44 14.5
q-30 0 -46.5 -14.5t-16.5 -39.5q0 -26 16.5 -41.5t46.5 -15.5q27 0 43.5 16zM227.5 366.5q19.5 18.5 19.5 49.5q0 30 -20 49t-53 19q-34 0 -55 -19t-21 -49q0 -31 20.5 -49.5t55.5 -18.5q34 0 53.5 18.5z" />
    <glyph glyph-name="nine.numr" horiz-adv-x="344" 
d="M273.5 671q36.5 -55 36.5 -162q0 -117 -43 -172t-118 -55q-48 0 -79.5 23t-31.5 57q0 32 34 39q10 -29 33 -42t47 -13q44 0 68.5 37t19.5 110q-10 -31 -34.5 -47t-56.5 -16q-54 0 -87.5 38t-33.5 105q0 73 38.5 113t101.5 40q69 0 105.5 -55zM218 515.5q17 21.5 17 61.5
q0 41 -17.5 63t-49.5 22q-30 0 -47 -22.5t-17 -61.5q0 -40 17 -62t48 -22q32 0 49 21.5z" />
    <glyph glyph-name="uni2070" unicode="&#x2070;" horiz-adv-x="487" 
d="M103 730q50 69 140 69q89 0 139.5 -69.5t50.5 -190.5t-50.5 -189.5t-139.5 -68.5t-139.5 69.5t-50.5 189.5q0 121 50 190zM167 401.5q26 -47.5 77 -47.5q48 0 74.5 49t26.5 137q0 89 -26.5 137.5t-73.5 48.5q-52 0 -78 -47.5t-26 -139.5q0 -90 26 -137.5z" />
    <glyph glyph-name="uni00B9" unicode="&#xb9;" horiz-adv-x="322" 
d="M171 792q29 0 43 -18t14 -57v-427q-10 -7 -35 -7q-51 0 -51 64v187q0 95 7 143q-13 -13 -36 -20t-47 -7q-18 0 -30.5 11.5t-12.5 26.5q0 18 7 28q82 -2 117 76h24z" />
    <glyph glyph-name="uni00B2" unicode="&#xb2;" horiz-adv-x="371" 
d="M186.5 358.5q38.5 1.5 65.5 1.5h28q31 0 49 -15t18 -40q0 -7 -2 -17h-304l-1 27l-1 12q0 28 30 65q16 19 52 55q30 28 51 52q44 46 64 82.5t20 69.5q0 34 -20.5 54.5t-53.5 20.5q-31 0 -57 -19t-37 -48q-21 4 -31.5 17.5t-10.5 30.5q0 25 19.5 46t52 33.5t69.5 12.5
q70 0 114 -41.5t44 -106.5q0 -49 -28 -97.5t-89 -110.5q10 1 -73 -71q-11 -9 -19 -17q12 2 50.5 3.5z" />
    <glyph glyph-name="uni00B3" unicode="&#xb3;" horiz-adv-x="381" 
d="M66.5 306.5q-37.5 25.5 -37.5 63.5q0 20 13 34.5t37 16.5q20 -67 83 -67q38 0 60.5 23t22.5 66t-23 66.5t-61 23.5q-29 0 -54 -14l-13 57l57 60l37 39q28 31 49 48q-43 -5 -159 -5h-51q-4 12 -4 22q0 52 56 52h239l2 -19q3 -12 3 -24q0 -34 -24 -64l-101 -100
q59 0 97 -40.5t38 -104.5q0 -73 -47.5 -116t-121.5 -43q-60 0 -97.5 25.5z" />
    <glyph glyph-name="uni2074" unicode="&#x2074;" horiz-adv-x="446" 
d="M387 426h-58v-136q-16 -7 -35 -7q-50 0 -50 64v79h-142q-64 0 -64 50v22q41 74 85 142t104 152h44q31 0 44.5 -18t13.5 -57v-220q60 -3 60 -54q0 -13 -2 -17zM184.5 607q-33.5 -52 -76.5 -109h136q1 113 8 224q-34 -63 -67.5 -115z" />
    <glyph glyph-name="uni2075" unicode="&#x2075;" horiz-adv-x="393" 
d="M86.5 307q-38.5 26 -38.5 63q0 23 12.5 36.5t28.5 15.5q11 -31 35 -49.5t54 -18.5q38 0 60 30t22 80q0 46 -18 71t-52 25q-25 0 -42.5 -13t-21.5 -34h-24q-22 0 -35.5 14.5t-13.5 38.5v226h274q3 -4 3 -15q0 -58 -61 -58h-137v-122q11 17 33.5 26t47.5 9q59 0 96 -48
t37 -123q0 -81 -45.5 -130.5t-120.5 -49.5q-55 0 -93.5 26z" />
    <glyph glyph-name="uni2076" unicode="&#x2076;" horiz-adv-x="435" 
d="M347 583q39 -44 39 -123q0 -87 -44 -133t-118 -46q-79 0 -122.5 61t-43.5 173q0 145 51.5 214.5t136.5 69.5q60 0 97 -27t37 -67q0 -36 -37 -45q-12 35 -39 50.5t-57 15.5q-49 0 -78.5 -44t-28.5 -125q12 33 39.5 51.5t65.5 18.5q63 0 102 -44zM280 380q20 26 20 73
q0 48 -20.5 74.5t-57.5 26.5t-57 -26t-20 -73q0 -48 20.5 -74.5t58.5 -26.5q36 0 56 26z" />
    <glyph glyph-name="uni2077" unicode="&#x2077;" horiz-adv-x="386" 
d="M282 792q29 0 45.5 -18t16.5 -50v-15l-177 -421h-87l185 431h-179q-23 0 -35.5 13.5t-12.5 37.5q0 15 3 22h241z" />
    <glyph glyph-name="uni2078" unicode="&#x2078;" horiz-adv-x="426" 
d="M85.5 322.5q-48.5 41.5 -48.5 108.5q0 46 24 80t69 48q-35 15 -53.5 44t-18.5 64q0 57 43 94t113 37q67 0 110 -37t43 -95q0 -36 -18 -64t-52 -43q44 -14 68 -48.5t24 -79.5q0 -67 -49.5 -108.5t-128.5 -41.5q-77 0 -125.5 41.5zM266.5 609.5q20.5 18.5 20.5 48.5
q0 29 -20.5 47t-53.5 18q-34 0 -54.5 -18t-20.5 -47q0 -30 20.5 -48.5t54.5 -18.5q33 0 53.5 18.5zM277 379q24 22 24 58t-24 58t-64 22t-65 -22t-25 -58t25 -58t65 -22t64 22z" />
    <glyph glyph-name="uni2079" unicode="&#x2079;" horiz-adv-x="436" 
d="M335 735q43 -64 43 -189q0 -137 -50.5 -201t-137.5 -64q-56 0 -92.5 27t-36.5 67q0 36 39 45q10 -35 37.5 -50.5t57.5 -15.5q51 0 79.5 45t24.5 132q-11 -37 -39 -57.5t-69 -20.5q-63 0 -102 44.5t-39 122.5q0 86 44 132.5t118 46.5q80 0 123 -64zM271 551.5
q20 25.5 20 73.5q0 49 -20 75t-58 26q-36 0 -56.5 -26.5t-20.5 -72.5q0 -48 20.5 -74.5t57.5 -26.5t57 25.5z" />
    <glyph glyph-name="fraction" unicode="&#x2044;" horiz-adv-x="243" 
d="M292 687q12 19 24.5 31t35.5 12q32 0 41 -14l-443 -684q-12 -18 -25 -30t-36 -12q-32 0 -39 14z" />
    <glyph glyph-name="onehalf" unicode="&#xbd;" horiz-adv-x="799" 
d="M140 720q25 0 37 -15.5t12 -48.5v-366q-9 -6 -30 -6q-45 0 -45 54v161q0 80 6 122q-10 -10 -29 -16.5t-41 -6.5q-16 0 -27 9.5t-11 23.5t6 24q71 -2 101 65h21zM535 687q12 19 24.5 31t35.5 12q32 0 41 -14l-443 -684q-12 -18 -25 -30t-36 -12q-32 0 -39 14zM690 63h25
q26 0 41.5 -13t15.5 -35q0 -9 -2 -15h-260l-2 24q0 3 -0.5 13t6 23t19.5 30q17 20 46 47l43 44q39 42 55.5 72.5t16.5 57.5q0 28 -17.5 45.5t-46.5 17.5q-26 0 -48 -15.5t-32 -40.5q-15 2 -25.5 13t-10.5 28q0 32 36.5 55.5t85.5 23.5q60 0 97 -35.5t37 -91.5
q0 -43 -23 -83.5t-76 -94.5q-23 -26 -50.5 -49.5t-28.5 -24.5q26 4 98 4z" />
    <glyph glyph-name="onequarter" unicode="&#xbc;" horiz-adv-x="778" 
d="M140 720q25 0 37 -15.5t12 -48.5v-366q-9 -6 -30 -6q-45 0 -45 54v161q0 80 6 122q-10 -10 -29 -16.5t-41 -6.5q-16 0 -27 9.5t-11 23.5t6 24q71 -2 101 65h21zM535 687q12 19 24.5 31t35.5 12q32 0 41 -14l-443 -684q-12 -18 -25 -30t-36 -12q-32 0 -39 14zM743 118h-49
v-116q-17 -7 -31 -7q-43 0 -43 55v68h-122q-56 0 -56 44v18q62 111 162 252h39q26 0 38.5 -15.5t12.5 -48.5v-188q50 -3 50 -47q0 -12 -1 -15zM504 180h116q0 92 6 191q-57 -104 -122 -191z" />
    <glyph glyph-name="threequarters" unicode="&#xbe;" horiz-adv-x="844" 
d="M54 304q-32 22 -32 55q0 19 11.5 31t31.5 14q13 -58 71 -58q32 0 51.5 20t19.5 55q0 36 -20 56.5t-52 20.5q-25 0 -46 -13l-11 50l48 51q34 34 43 44q16 19 30 30q-28 -4 -134 -4h-44q-4 8 -4 19q0 45 50 45h203l3 -17q2 -14 2 -19q0 -30 -22 -58l-85 -83q50 -1 82 -35
t32 -90q0 -62 -41 -99t-104 -37q-51 0 -83 22zM601 687q12 19 24.5 31t35.5 12q32 0 41 -14l-443 -684q-12 -18 -25 -30t-36 -12q-32 0 -39 14zM809 118h-49v-116q-17 -7 -31 -7q-43 0 -43 55v68h-122q-56 0 -56 44v18q62 111 162 252h39q26 0 38.5 -15.5t12.5 -48.5v-188
q50 -3 50 -47q0 -12 -1 -15zM570 180h116q0 92 6 191q-57 -104 -122 -191z" />
    <glyph glyph-name="oneeighth" unicode="&#x215b;" horiz-adv-x="811" 
d="M140 720q25 0 37 -15.5t12 -48.5v-366q-9 -6 -30 -6q-45 0 -45 54v161q0 80 6 122q-10 -10 -29 -16.5t-41 -6.5q-16 0 -27 9.5t-11 23.5t6 24q71 -2 101 65h21zM535 687q12 19 24.5 31t35.5 12q32 0 41 -14l-443 -684q-12 -18 -25 -30t-36 -12q-32 0 -39 14zM529 30
q-42 36 -42 93q0 39 21.5 68t58.5 41q-29 14 -45 37.5t-16 54.5q0 49 37 81t97 32q59 0 95.5 -32t36.5 -81q0 -30 -15.5 -54.5t-45.5 -37.5q39 -12 59 -41.5t20 -67.5q0 -58 -42 -93.5t-110 -35.5q-67 0 -109 36zM683.5 276q16.5 16 16.5 41t-16 39.5t-44 14.5
q-30 0 -46.5 -14.5t-16.5 -39.5q0 -26 16.5 -41.5t46.5 -15.5q27 0 43.5 16zM693.5 78.5q19.5 18.5 19.5 49.5q0 30 -20 49t-53 19q-34 0 -55 -19t-21 -49q0 -31 20.5 -49.5t55.5 -18.5q34 0 53.5 18.5z" />
    <glyph glyph-name="threeeighths" unicode="&#x215c;" horiz-adv-x="877" 
d="M54 304q-32 22 -32 55q0 19 11.5 31t31.5 14q13 -58 71 -58q32 0 51.5 20t19.5 55q0 36 -20 56.5t-52 20.5q-25 0 -46 -13l-11 50l48 51q34 34 43 44q16 19 30 30q-28 -4 -134 -4h-44q-4 8 -4 19q0 45 50 45h203l3 -17q2 -14 2 -19q0 -30 -22 -58l-85 -83q50 -1 82 -35
t32 -90q0 -62 -41 -99t-104 -37q-51 0 -83 22zM601 687q12 19 24.5 31t35.5 12q32 0 41 -14l-443 -684q-12 -18 -25 -30t-36 -12q-32 0 -39 14zM595 30q-42 36 -42 93q0 39 21.5 68t58.5 41q-29 14 -45 37.5t-16 54.5q0 49 37 81t97 32q59 0 95.5 -32t36.5 -81
q0 -30 -15.5 -54.5t-45.5 -37.5q39 -12 59 -41.5t20 -67.5q0 -58 -42 -93.5t-110 -35.5q-67 0 -109 36zM749.5 276q16.5 16 16.5 41t-16 39.5t-44 14.5q-30 0 -46.5 -14.5t-16.5 -39.5q0 -26 16.5 -41.5t46.5 -15.5q27 0 43.5 16zM759.5 78.5q19.5 18.5 19.5 49.5
q0 30 -20 49t-53 19q-34 0 -55 -19t-21 -49q0 -31 20.5 -49.5t55.5 -18.5q34 0 53.5 18.5z" />
    <glyph glyph-name="fiveeighths" unicode="&#x215d;" horiz-adv-x="880" 
d="M60.5 305q-33.5 23 -33.5 55q0 18 10.5 29.5t25.5 13.5q9 -26 30 -41.5t46 -15.5q33 0 52 25t19 67q0 39 -16 61t-45 22q-20 0 -35 -11t-19 -29h-20q-20 0 -32 12t-12 33v194h236q4 -4 4 -13q0 -51 -53 -51h-117v-102q9 13 27.5 21t41.5 8q50 0 82 -41t32 -106
q0 -69 -39 -111.5t-103 -42.5q-48 0 -81.5 23zM604 687q12 19 24.5 31t35.5 12q32 0 41 -14l-443 -684q-12 -18 -25 -30t-36 -12q-32 0 -39 14zM598 30q-42 36 -42 93q0 39 21.5 68t58.5 41q-29 14 -45 37.5t-16 54.5q0 49 37 81t97 32q59 0 95.5 -32t36.5 -81
q0 -30 -15.5 -54.5t-45.5 -37.5q39 -12 59 -41.5t20 -67.5q0 -58 -42 -93.5t-110 -35.5q-67 0 -109 36zM752.5 276q16.5 16 16.5 41t-16 39.5t-44 14.5q-30 0 -46.5 -14.5t-16.5 -39.5q0 -26 16.5 -41.5t46.5 -15.5q27 0 43.5 16zM762.5 78.5q19.5 18.5 19.5 49.5
q0 30 -20 49t-53 19q-34 0 -55 -19t-21 -49q0 -31 20.5 -49.5t55.5 -18.5q34 0 53.5 18.5z" />
    <glyph glyph-name="seveneighths" unicode="&#x215e;" horiz-adv-x="819" 
d="M232 720q25 0 38.5 -15.5t13.5 -42.5v-14l-152 -360h-74l157 368h-152q-20 0 -31 12t-11 33q0 11 2 19h209zM543 687q12 19 24.5 31t35.5 12q32 0 41 -14l-443 -684q-12 -18 -25 -30t-36 -12q-32 0 -39 14zM537 30q-42 36 -42 93q0 39 21.5 68t58.5 41q-29 14 -45 37.5
t-16 54.5q0 49 37 81t97 32q59 0 95.5 -32t36.5 -81q0 -30 -15.5 -54.5t-45.5 -37.5q39 -12 59 -41.5t20 -67.5q0 -58 -42 -93.5t-110 -35.5q-67 0 -109 36zM691.5 276q16.5 16 16.5 41t-16 39.5t-44 14.5q-30 0 -46.5 -14.5t-16.5 -39.5q0 -26 16.5 -41.5t46.5 -15.5
q27 0 43.5 16zM701.5 78.5q19.5 18.5 19.5 49.5q0 30 -20 49t-53 19q-34 0 -55 -19t-21 -49q0 -31 20.5 -49.5t55.5 -18.5q34 0 53.5 18.5z" />
    <glyph glyph-name="period" unicode="." horiz-adv-x="243" 
d="M68.5 18q-20.5 21 -20.5 55t20.5 55t54.5 21q32 0 52 -21t20 -55t-20 -55t-52 -21q-34 0 -54.5 21z" />
    <glyph glyph-name="comma" unicode="," horiz-adv-x="248" 
d="M176.5 120.5q21.5 -28.5 21.5 -83.5q0 -56 -28 -90.5t-74 -34.5q-21 0 -34 8.5t-13 21.5q0 7 3 15.5t9 14.5q9 -11 30 -11q24 0 40 15.5t16 47.5q-13 -12 -37 -12q-28 0 -45 18t-17 49q0 26 18 48t52 22q37 0 58.5 -28.5z" />
    <glyph glyph-name="colon" unicode=":" horiz-adv-x="279" 
d="M76.5 18q-20.5 21 -20.5 55t20.5 55t54.5 21q32 0 52 -21t20 -55t-20 -55t-52 -21q-34 0 -54.5 21zM76.5 361q-20.5 21 -20.5 55t20.5 55t54.5 21q32 0 52 -21t20 -55t-20 -55t-52 -21q-34 0 -54.5 21z" />
    <glyph glyph-name="semicolon" unicode=";" horiz-adv-x="281" 
d="M184.5 120.5q21.5 -28.5 21.5 -83.5q0 -56 -28 -90.5t-74 -34.5q-21 0 -34 8.5t-13 21.5q0 7 3 15.5t9 14.5q9 -11 30 -11q24 0 40 15.5t16 47.5q-13 -12 -37 -12q-28 0 -45 18t-17 49q0 26 18 48t52 22q37 0 58.5 -28.5zM76.5 361q-20.5 21 -20.5 55t20.5 55t54.5 21
q32 0 52 -21t20 -55t-20 -55t-52 -21q-34 0 -54.5 21z" />
    <glyph glyph-name="ellipsis" unicode="&#x2026;" horiz-adv-x="729" 
d="M68.5 18q-20.5 21 -20.5 55t20.5 55t54.5 21q32 0 52 -21t20 -55t-20 -55t-52 -21q-34 0 -54.5 21zM311.5 18q-20.5 21 -20.5 55t20.5 55t54.5 21q32 0 52 -21t20 -55t-20 -55t-52 -21q-34 0 -54.5 21zM554.5 18q-20.5 21 -20.5 55t20.5 55t54.5 21q32 0 52 -21t20 -55
t-20 -55t-52 -21q-34 0 -54.5 21z" />
    <glyph glyph-name="exclam" unicode="!" horiz-adv-x="291" 
d="M101 314l-19 398q22 11 55 11q32 0 51 -20t17 -60l-18 -397q-4 -5 -12 -8.5t-13 -3.5q-58 0 -61 80zM92.5 18q-20.5 21 -20.5 55t20.5 55t54.5 21q32 0 52 -21t20 -55t-20 -55t-52 -21q-34 0 -54.5 21z" />
    <glyph glyph-name="exclamdown" unicode="&#xa1;" horiz-adv-x="274" 
d="M207 507q20 -21 20 -55t-20 -55t-52 -21q-34 0 -54.5 21t-20.5 55t20.5 55t54.5 21q32 0 52 -21zM183 287.5q8 -3.5 12 -8.5l18 -397q2 -40 -17 -60t-51 -20q-33 0 -55 11l19 398q3 80 61 80q5 0 13 -3.5z" />
    <glyph glyph-name="question" unicode="?" horiz-adv-x="493" 
d="M193 254q-13 14 -13 40t11.5 46t49.5 63l31 35q34 38 48 59.5t14 48.5q0 44 -30 71t-79 27q-63 0 -102 -32.5t-52 -91.5q-22 4 -34 21t-12 44q0 42 29 74.5t78 51t108 18.5q94 0 149 -44.5t55 -122.5q0 -47 -23.5 -85t-63.5 -75q-9 -8 -15.5 -15.5t-11.5 -12.5
l-21.5 -21.5t-34.5 -30.5q-5 -14 -5 -31t5 -35q-14 -16 -43 -16q-25 0 -38 14zM179.5 18q-20.5 21 -20.5 55t20.5 55t54.5 21q32 0 52 -21t20 -55t-20 -55t-52 -21q-34 0 -54.5 21z" />
    <glyph glyph-name="questiondown" unicode="&#xbf;" horiz-adv-x="493" 
d="M313.5 507q20.5 -21 20.5 -55t-20.5 -55t-54.5 -21q-32 0 -52 21t-20 55t20 55t52 21q34 0 54.5 -21zM300 271q13 -14 13 -40t-11.5 -46t-49.5 -63l-31 -35q-34 -38 -48 -59.5t-14 -48.5q0 -44 30 -71t79 -27q63 0 102 32.5t52 91.5q22 -4 34 -21t12 -44q0 -42 -29 -74.5
t-78 -51t-108 -18.5q-94 0 -149 44.5t-55 122.5q0 47 23.5 85t63.5 75q9 8 15.5 15.5t11.5 12.5l21.5 21.5t34.5 30.5q5 14 5 31t-5 35q14 16 43 16q25 0 38 -14z" />
    <glyph glyph-name="periodcentered" unicode="&#xb7;" horiz-adv-x="283" 
d="M89 208q-21 22 -21 55q0 32 21 54t54 22q31 0 51.5 -22t20.5 -54t-20.5 -54.5t-51.5 -22.5q-33 0 -54 22z" />
    <glyph glyph-name="bullet" unicode="&#x2022;" horiz-adv-x="337" 
d="M77 171q-37 37 -37 92q0 54 37 91t92 37q54 0 91 -37t37 -91q0 -55 -37 -92t-91 -37q-55 0 -92 37z" />
    <glyph glyph-name="asterisk" unicode="*" horiz-adv-x="350" 
d="M296 531q0 -12 -7 -24q-10 -19 -27 -19q-10 0 -22 6q-16 11 -36 36l-16 18q10 -24 13 -35t3 -21l-1 -19q0 -13 5 -21q-11 -14 -32 -14q-34 0 -34 39q0 20 11 49q10 24 9.5 24.5l-0.5 0.5q-17 -23 -25 -32t-16 -13q-5 -2 -12.5 -5.5t-12.5 -7.5t-8 -10q-7 2 -15 8t-11 14
q-6 11 -6 19q0 19 21 31q7 5 19 8.5t26 6.5l25 3q-27 4 -38 7t-18 8q-3 2 -10 7t-13 7t-12 1q-2 8 -2 13q0 14 6 23q10 19 29 19q9 0 21 -5q20 -14 36 -36l16 -23q-10 27 -13 38.5t-3 21.5l1 20q0 14 -5 21q4 6 12.5 9.5t17.5 3.5q36 0 36 -37q0 -18 -11 -49q-9 -24 -9 -26
q16 23 24 31.5t16 12.5q6 3 17.5 8.5t16.5 14.5q6 -1 13.5 -7t11.5 -14q7 -10 7 -20q0 -19 -21 -31q-13 -7 -46 -14q-5 0 -12.5 -1t-14.5 -2q45 -6 58 -14q12 -10 19.5 -14t16.5 -3q2 -8 2 -12zM187 552z" />
    <glyph glyph-name="numbersign" unicode="#" horiz-adv-x="767" 
d="M574 423l-42 -213h62q29 0 46 -10.5t17 -27.5q0 -10 -7 -24h-129l-16 -83q-4 -31 -22 -48t-45 -17q-15 0 -21 9l27 139h-175l-17 -83q-5 -30 -21.5 -47.5t-41.5 -17.5q-12 0 -26 7l27 141h-61q-21 0 -36 12t-15 29q0 13 8 21h115l42 213h-72q-22 0 -36.5 12.5t-14.5 31.5
q0 16 7 27h127l18 84q5 29 22.5 47t42.5 18q17 0 23 -8l-27 -141h174l18 84q4 30 21 47.5t41 17.5q14 0 28 -7l-27 -142h61q20 0 35 -14t15 -33q0 -14 -8 -24h-117zM495 423h-174l-41 -213h173z" />
    <glyph glyph-name="slash" unicode="/" horiz-adv-x="348" 
d="M248 679q10 28 24.5 38.5t37.5 10.5t38 -12l-248 -677q-10 -28 -24.5 -38.5t-37.5 -10.5t-38 12z" />
    <glyph glyph-name="backslash" unicode="\" horiz-adv-x="348" 
d="M272.5 0.5q-14.5 10.5 -24.5 38.5l-248 677q15 12 38 12t37.5 -10.5t24.5 -38.5l248 -677q-15 -12 -38 -12t-37.5 10.5z" />
    <glyph glyph-name="period.tf" horiz-adv-x="300" 
d="M97.5 18q-20.5 21 -20.5 55t20.5 55t54.5 21q32 0 52 -21t20 -55t-20 -55t-52 -21q-34 0 -54.5 21z" />
    <glyph glyph-name="comma.tf" horiz-adv-x="300" 
d="M203.5 120.5q21.5 -28.5 21.5 -83.5q0 -56 -28 -90.5t-74 -34.5q-21 0 -34 8.5t-13 21.5q0 7 3 15.5t9 14.5q9 -11 30 -11q24 0 40 15.5t16 47.5q-13 -12 -37 -12q-28 0 -45 18t-17 49q0 26 18 48t52 22q37 0 58.5 -28.5z" />
    <glyph glyph-name="parenleft" unicode="(" horiz-adv-x="339" 
d="M73.5 554.5q24.5 101.5 67.5 157.5t99 56q22 0 37 -14t18 -37q-156 -44 -156 -396q0 -171 42.5 -273t113.5 -123q-3 -23 -18 -37t-37 -14q-56 0 -99 56t-67.5 157.5t-24.5 233.5t24.5 233.5z" />
    <glyph glyph-name="parenright" unicode=")" horiz-adv-x="339" 
d="M266.5 87.5q-24.5 -101.5 -67.5 -157.5t-98 -56q-21 0 -36.5 14t-20.5 37q72 21 115 123t43 273q0 351 -158 395q5 23 20 37.5t37 14.5q55 0 98 -56t67.5 -157.5t24.5 -233.5t-24.5 -233.5z" />
    <glyph glyph-name="braceleft" unicode="{" horiz-adv-x="458" 
d="M58 271v100h33q38 0 60 24.5t22 69.5q0 19 -2 30l-11 82q-3 17 -3 33q0 72 48 115t121 43q44 0 69 -19t25 -48q0 -18 -5 -32q-11 9 -24.5 14t-36.5 5q-45 0 -72 -22t-27 -67q0 -8 2 -26l13 -85q3 -16 3 -32q0 -50 -27.5 -84.5t-75.5 -50.5q52 -17 77 -54t25 -83
q0 -20 -2 -30l-13 -85q-2 -18 -2 -26q0 -45 27 -67t72 -22q23 0 36.5 5t24.5 14q5 -13 5 -33q0 -29 -25 -47.5t-68 -18.5q-74 0 -122 41t-48 116q0 16 3 34l11 82q3 18 3 32q0 46 -22.5 69t-60.5 23h-33z" />
    <glyph glyph-name="braceright" unicode="}" horiz-adv-x="458" 
d="M63 -107.5q-25 18.5 -25 47.5q0 20 5 33q11 -9 24.5 -14t36.5 -5q45 0 72 22t27 67q0 8 -2 26l-13 85q-2 10 -2 30q0 46 25 83t77 54q-48 16 -75.5 50.5t-27.5 84.5q0 16 3 32l13 85q2 18 2 26q0 45 -27 67t-72 22q-23 0 -36.5 -5t-24.5 -14q-5 14 -5 32q0 29 25 48
t69 19q73 0 121 -43t48 -115q0 -16 -3 -33l-11 -82q-2 -11 -2 -30q0 -45 22 -69.5t60 -24.5h33v-100h-33q-38 0 -60.5 -23t-22.5 -69q0 -14 3 -32l11 -82q3 -18 3 -34q0 -75 -48 -116t-122 -41q-43 0 -68 18.5z" />
    <glyph glyph-name="bracketleft" unicode="[" horiz-adv-x="412" 
d="M88 675q0 41 23 62t68 21h192q3 -15 3 -40q0 -24 -18.5 -36t-53.5 -12h-116v-698h185q3 -14 3 -35q0 -53 -72 -53h-123q-45 0 -68 21t-23 62v708z" />
    <glyph glyph-name="bracketright" unicode="]" horiz-adv-x="412" 
d="M41 -116q-3 15 -3 40q0 48 73 48h115v698h-185q-3 14 -3 35q0 53 73 53h122q44 0 67.5 -21.5t23.5 -61.5v-708q0 -40 -23.5 -61.5t-67.5 -21.5h-192z" />
    <glyph glyph-name="parenleft.case" horiz-adv-x="339" 
d="M73.5 593.5q24.5 101.5 67.5 157.5t99 56q22 0 37 -14t18 -37q-156 -44 -156 -396q0 -171 42.5 -273t113.5 -123q-3 -23 -18 -37t-37 -14q-56 0 -99 56t-67.5 157.5t-24.5 233.5t24.5 233.5z" />
    <glyph glyph-name="parenright.case" horiz-adv-x="339" 
d="M266.5 126.5q-24.5 -101.5 -67.5 -157.5t-98 -56q-21 0 -36.5 14t-20.5 37q72 21 115 123t43 273q0 351 -158 395q5 23 20 37.5t37 14.5q55 0 98 -56t67.5 -157.5t24.5 -233.5t-24.5 -233.5z" />
    <glyph glyph-name="braceleft.case" horiz-adv-x="458" 
d="M58 310v100h33q38 0 60 24.5t22 69.5q0 19 -2 30l-11 82q-3 17 -3 33q0 72 48 115t121 43q44 0 69 -19t25 -48q0 -18 -5 -32q-11 9 -24.5 14t-36.5 5q-45 0 -72 -22t-27 -67q0 -8 2 -26l13 -85q3 -16 3 -32q0 -50 -27.5 -84.5t-75.5 -50.5q52 -17 77 -54t25 -83
q0 -20 -2 -30l-13 -85q-2 -18 -2 -26q0 -45 27 -67t72 -22q23 0 36.5 5t24.5 14q5 -13 5 -33q0 -29 -25 -47.5t-68 -18.5q-74 0 -122 41t-48 116q0 16 3 34l11 82q3 18 3 32q0 46 -22.5 69t-60.5 23h-33z" />
    <glyph glyph-name="braceright.case" horiz-adv-x="458" 
d="M63 -68.5q-25 18.5 -25 47.5q0 20 5 33q11 -9 24.5 -14t36.5 -5q45 0 72 22t27 67q0 8 -2 26l-13 85q-2 10 -2 30q0 46 25 83t77 54q-48 16 -75.5 50.5t-27.5 84.5q0 16 3 32l13 85q2 18 2 26q0 45 -27 67t-72 22q-23 0 -36.5 -5t-24.5 -14q-5 14 -5 32q0 29 25 48t69 19
q73 0 121 -43t48 -115q0 -16 -3 -33l-11 -82q-2 -11 -2 -30q0 -45 22 -69.5t60 -24.5h33v-100h-33q-38 0 -60.5 -23t-22.5 -69q0 -14 3 -32l11 -82q3 -18 3 -34q0 -75 -48 -116t-122 -41q-43 0 -68 18.5z" />
    <glyph glyph-name="bracketleft.case" horiz-adv-x="412" 
d="M88 714q0 41 23 62t68 21h192q3 -15 3 -40q0 -24 -18.5 -36t-53.5 -12h-116v-698h185q3 -14 3 -35q0 -53 -72 -53h-123q-45 0 -68 21t-23 62v708z" />
    <glyph glyph-name="bracketright.case" horiz-adv-x="412" 
d="M41 -77q-3 15 -3 40q0 48 73 48h115v698h-185q-3 14 -3 35q0 53 73 53h122q44 0 67.5 -21.5t23.5 -61.5v-708q0 -40 -23.5 -61.5t-67.5 -21.5h-192z" />
    <glyph glyph-name="hyphen" unicode="-" horiz-adv-x="479" 
d="M146 217q-43 0 -65.5 15t-22.5 44q0 15 3 28h273q41 0 64 -16t23 -45q0 -10 -2 -26h-273z" />
    <glyph glyph-name="endash" unicode="&#x2013;" horiz-adv-x="616" 
d="M146 217q-43 0 -65.5 15t-22.5 44q0 15 3 28h410q41 0 64.5 -16t23.5 -45q0 -2 -3 -26h-410z" />
    <glyph glyph-name="emdash" unicode="&#x2014;" horiz-adv-x="754" 
d="M146 217q-43 0 -65.5 15t-22.5 44q0 15 3 28h548q41 0 64 -16t23 -45q0 -2 -3 -26h-547z" />
    <glyph glyph-name="underscore" unicode="_" horiz-adv-x="502" 
d="M123 -81q-28 0 -45 13t-17 36q0 14 7 32h334q30 0 46 -13.5t16 -38.5q0 -18 -7 -29h-334z" />
    <glyph glyph-name="hyphen.case" horiz-adv-x="479" 
d="M146 267q-43 0 -65.5 15t-22.5 44q0 15 3 28h273q41 0 64 -16t23 -45q0 -10 -2 -26h-273z" />
    <glyph glyph-name="endash.case" horiz-adv-x="616" 
d="M146 267q-43 0 -65.5 15t-22.5 44q0 15 3 28h410q41 0 64.5 -16t23.5 -45q0 -2 -3 -26h-410z" />
    <glyph glyph-name="emdash.case" horiz-adv-x="754" 
d="M146 267q-43 0 -65.5 15t-22.5 44q0 15 3 28h548q41 0 64 -16t23 -45q0 -2 -3 -26h-547z" />
    <glyph glyph-name="quotesinglbase" unicode="&#x201a;" horiz-adv-x="248" 
d="M176.5 120.5q21.5 -28.5 21.5 -83.5q0 -56 -28 -90.5t-74 -34.5q-21 0 -34 8.5t-13 21.5q0 7 3 15.5t9 14.5q9 -11 30 -11q24 0 40 15.5t16 47.5q-13 -12 -37 -12q-28 0 -45 18t-17 49q0 26 18 48t52 22q37 0 58.5 -28.5z" />
    <glyph glyph-name="quotedblbase" unicode="&#x201e;" horiz-adv-x="525" 
d="M176.5 120.5q21.5 -28.5 21.5 -83.5q0 -56 -28 -90.5t-74 -34.5q-21 0 -34 8.5t-13 21.5q0 7 3 15.5t9 14.5q9 -11 30 -11q24 0 40 15.5t16 47.5q-13 -12 -37 -12q-28 0 -45 18t-17 49q0 26 18 48t52 22q37 0 58.5 -28.5zM431.5 120.5q21.5 -28.5 21.5 -83.5
q0 -56 -28 -90.5t-74 -34.5q-21 0 -34 8.5t-13 21.5q0 7 3 15.5t9 14.5q9 -11 30 -11q24 0 40 15.5t16 47.5q-13 -12 -37 -12q-28 0 -45 18t-17 49q0 26 18 48t52 22q37 0 58.5 -28.5z" />
    <glyph glyph-name="quotedblleft" unicode="&#x201c;" horiz-adv-x="504" 
d="M210 606q17 -18 17 -49q0 -26 -18 -48t-52 -22q-37 0 -58.5 28.5t-21.5 83.5q0 56 28 90.5t74 34.5q21 0 34 -8.5t13 -21.5q0 -7 -3 -15.5t-9 -14.5q-9 11 -30 11q-24 0 -40 -15.5t-16 -47.5q14 12 37 12q28 0 45 -18zM435 606q17 -18 17 -49q0 -26 -18 -48t-52 -22
q-37 0 -58.5 28.5t-21.5 83.5q0 56 28 90.5t74 34.5q21 0 34 -8.5t13 -21.5q0 -7 -3 -15.5t-9 -14.5q-9 11 -30 11q-24 0 -40 -15.5t-16 -47.5q14 12 37 12q28 0 45 -18z" />
    <glyph glyph-name="quotedblright" unicode="&#x201d;" horiz-adv-x="504" 
d="M405.5 695.5q21.5 -28.5 21.5 -83.5q0 -56 -28 -90.5t-74 -34.5q-21 0 -34 8.5t-13 21.5q0 7 3 15.5t9 14.5q9 -11 30 -11q24 0 40 15.5t16 47.5q-13 -12 -37 -12q-28 0 -45 18t-17 49q0 26 18 48t52 22q37 0 58.5 -28.5zM180.5 695.5q21.5 -28.5 21.5 -83.5
q0 -56 -28 -90.5t-74 -34.5q-21 0 -34 8.5t-13 21.5q0 7 3 15.5t9 14.5q9 -11 30 -11q24 0 40 15.5t16 47.5q-13 -12 -37 -12q-28 0 -45 18t-17 49q0 26 18 48t52 22q37 0 58.5 -28.5z" />
    <glyph glyph-name="quoteleft" unicode="&#x2018;" horiz-adv-x="279" 
d="M210 601q17 -18 17 -49q0 -26 -18 -48t-52 -22q-37 0 -58.5 28.5t-21.5 83.5q0 56 28 90.5t74 34.5q21 0 34 -8.5t13 -21.5q0 -7 -3 -15.5t-9 -14.5q-9 11 -30 11q-24 0 -40 -15.5t-16 -47.5q14 12 37 12q28 0 45 -18z" />
    <glyph glyph-name="quoteright" unicode="&#x2019;" horiz-adv-x="279" 
d="M180.5 681.5q21.5 -28.5 21.5 -83.5q0 -56 -28 -90.5t-74 -34.5q-21 0 -34 8.5t-13 21.5q0 7 3 15.5t9 14.5q9 -11 30 -11q24 0 40 15.5t16 47.5q-13 -12 -37 -12q-28 0 -45 18t-17 49q0 26 18 48t52 22q37 0 58.5 -28.5z" />
    <glyph glyph-name="guillemotleft" unicode="&#xab;" horiz-adv-x="658" 
d="M170 255q27 -17 58 -58l76 -99q-12 -13 -48 -13t-62.5 14t-50.5 46l-95 134l95 133q24 32 50.5 46t62.5 14q38 0 48 -13l-76 -99q-31 -41 -58 -58.5t-73 -22.5q46 -7 73 -24zM410 255q27 -17 58 -58l76 -99q-12 -13 -48 -13t-62.5 14t-50.5 46l-95 134l95 133
q24 32 50.5 46t62.5 14q38 0 48 -13l-76 -99q-31 -41 -58 -58.5t-73 -22.5q46 -7 73 -24z" />
    <glyph glyph-name="guillemotright" unicode="&#xbb;" horiz-adv-x="658" 
d="M248 301.5q-27 17.5 -58 58.5l-76 99q10 13 48 13q36 0 62.5 -14t50.5 -46l95 -133l-95 -134q-24 -32 -50.5 -46t-62.5 -14t-48 13l76 99q31 41 58 58t73 24q-46 5 -73 22.5zM488 301.5q-27 17.5 -58 58.5l-76 99q10 13 48 13q36 0 62.5 -14t50.5 -46l95 -133l-95 -134
q-24 -32 -50.5 -46t-62.5 -14t-48 13l76 99q31 41 58 58t73 24q-46 5 -73 22.5z" />
    <glyph glyph-name="guilsinglleft" unicode="&#x2039;" horiz-adv-x="387" 
d="M170 255q27 -17 58 -58l76 -99q-12 -13 -48 -13t-62.5 14t-50.5 46l-95 134l95 133q24 32 50.5 46t62.5 14q38 0 48 -13l-76 -99q-31 -41 -58 -58.5t-73 -22.5q46 -7 73 -24z" />
    <glyph glyph-name="guilsinglright" unicode="&#x203a;" horiz-adv-x="387" 
d="M217 301.5q-27 17.5 -58 58.5l-76 99q10 13 48 13q36 0 62.5 -14t50.5 -46l95 -133l-95 -134q-24 -33 -50 -46.5t-63 -13.5q-36 0 -48 13l76 99q31 40 58 57.5t73 24.5q-46 5 -73 22.5z" />
    <glyph glyph-name="quotedbl" unicode="&#x22;" horiz-adv-x="415" 
d="M162 473q-1 -4 -6.5 -7t-12.5 -3q-19 0 -30.5 18t-14.5 52l-18 188q20 9 50 9q27 0 40.5 -20.5t9.5 -56.5zM357 473q-1 -4 -6.5 -7t-12.5 -3q-19 0 -30.5 18t-14.5 52l-18 188q20 9 50 9q27 0 40.5 -20.5t9.5 -56.5z" />
    <glyph glyph-name="quotesingle" unicode="'" horiz-adv-x="219" 
d="M142 472q-1 -4 -6.5 -7t-12.5 -3q-19 0 -30.5 18t-14.5 52l-18 188q20 9 50 9q27 0 40.5 -20.5t9.5 -56.5z" />
    <glyph glyph-name="uni205F" unicode="&#x205f;" horiz-adv-x="300" 
 />
    <glyph glyph-name="uni2000" unicode="&#x2000;" horiz-adv-x="500" 
 />
    <glyph glyph-name="uni2007" unicode="&#x2007;" horiz-adv-x="600" 
 />
    <glyph glyph-name="cent" unicode="&#xa2;" horiz-adv-x="504" 
d="M449 228q11 -11 11 -31q0 -41 -37.5 -71t-97.5 -38v-83q-11 -14 -24 -14q-25 0 -38 16t-13 46v36q-92 12 -146.5 83t-54.5 180t54 178.5t147 82.5v99q7 6 16.5 9.5t17.5 3.5q41 0 41 -61v-51q60 -8 97.5 -37.5t37.5 -70.5q0 -20 -10.5 -31.5t-35.5 -16.5q-9 31 -32 50
t-57 24v-361q34 6 57.5 25.5t30.5 48.5q25 -5 36 -16zM250 174v354q-49 -13 -73 -56t-24 -118q0 -153 97 -180z" />
    <glyph glyph-name="currency" unicode="&#xa4;" horiz-adv-x="600" 
d="M62 163q0 29 31 55l23 18q-31 50 -31 110q0 65 34 118l-71 58q13 28 32 46q18 18 39 18q28 0 54 -32l17 -23q50 31 111 31q63 0 116 -33l57 71q27 -12 47 -33q18 -18 18 -38q0 -28 -32 -54l-23 -18q31 -50 31 -111q0 -65 -34 -117l72 -58q-12 -27 -33 -47
q-18 -18 -39 -18q-28 0 -54 32l-17 23q-50 -31 -110 -31q-65 0 -117 34l-57 -72q-27 12 -47 33q-17 17 -17 38zM189 284.5q18 -28.5 47.5 -45.5t63.5 -17t63.5 17t47.5 45.5t18 61.5t-18 62t-47.5 46t-63.5 17t-63.5 -17t-47.5 -46t-18 -62t18 -61.5z" />
    <glyph glyph-name="dollar" unicode="$" horiz-adv-x="578" 
d="M464 73q-49 -55 -141 -68v-75q-5 -7 -13 -11t-15 -4q-23 0 -35 16.5t-12 47.5v22q-83 4 -132.5 42t-49.5 92q0 25 11.5 39.5t35.5 27.5q12 -48 43.5 -78t91.5 -35v240l-28 6q-65 18 -113.5 61t-48.5 123q0 83 50 136t140 63v70q6 6 15.5 9.5t18.5 3.5q20 0 30.5 -16
t10.5 -46v-21q69 -7 111.5 -41.5t42.5 -81.5q0 -24 -10.5 -37.5t-34.5 -25.5q-32 80 -109 97v-214l20 -5q75 -22 122.5 -67t47.5 -130t-49 -140zM176.5 474q20.5 -20 71.5 -38v194q-46 -7 -69 -32.5t-23 -67.5q0 -36 20.5 -56zM323 93q89 21 89 110q0 44 -23.5 69t-65.5 38
v-217z" />
    <glyph glyph-name="Euro" unicode="&#x20ac;" horiz-adv-x="671" 
d="M618 141q13 -14 13 -35q0 -28 -22.5 -52.5t-63 -39t-92.5 -14.5q-107 0 -181.5 66t-99.5 185h-109q-7 16 -7 33q0 23 17 35t48 12h43q-2 13 -2 28q0 21 2 27h-101q-7 11 -7 29q0 25 16.5 38t48.5 13h50q26 120 100 187t182 67q50 0 90.5 -14t64 -38t23.5 -53
q0 -43 -53 -54q-19 38 -48 55t-74 17q-73 0 -122 -42t-65 -125h279q7 -11 7 -29q0 -25 -16.5 -38t-47.5 -13h-230v-25q0 -23 1 -30h218q7 -16 7 -30q0 -23 -16.5 -36.5t-48.5 -13.5h-152q17 -78 65 -119t121 -41q46 0 76 17t50 52q23 -5 36 -19z" />
    <glyph glyph-name="sterling" unicode="&#xa3;" horiz-adv-x="535" 
d="M418 99q39 0 62 -20t23 -53q0 -15 -3 -26h-444q-5 7 -5 84q31 30 49 53.5t30.5 61t16.5 93.5h-98q-7 11 -7 30q0 55 69 55h23l-9 33q-10 35 -14.5 57t-4.5 49q0 61 27 107t76 71.5t113 25.5q71 0 116.5 -29t45.5 -74t-53 -51q-11 30 -41 48.5t-65 18.5q-54 0 -85 -36
t-31 -97q0 -26 12 -71q2 -10 5 -23t6 -29h172q7 -20 7 -32q0 -25 -18.5 -39t-52.5 -14h-102q2 -66 -25 -118t-71 -81q76 6 225 6h51z" />
    <glyph glyph-name="yen" unicode="&#xa5;" horiz-adv-x="685" 
d="M381 263v-54h166q7 -11 7 -27q0 -25 -17 -39t-49 -14h-107v-130q-22 -6 -33 -6q-41 0 -57 15.5t-16 55.5v65h-169q-7 10 -7 33q0 47 66 47h110v54h-169q-7 7 -7 28q0 25 17 38.5t49 13.5h71l-210 343q10 16 26 25t33 9q2 0 15.5 0.5t28.5 -10.5t29 -33l170 -292l180 331
h119l-216 -373h136q7 -11 7 -32q0 -23 -17 -35.5t-49 -12.5h-107z" />
    <glyph glyph-name="plus" unicode="+" horiz-adv-x="591" 
d="M524 276h-185v-124q0 -35 -14 -53t-41 -18q-15 0 -31 6v189h-126q-32 0 -49.5 14.5t-17.5 41.5q0 17 8 31h185v124q0 34 14 52.5t40 18.5q13 0 32 -7v-188h125q32 0 49.5 -14.5t17.5 -41.5q0 -19 -7 -31z" />
    <glyph glyph-name="minus" unicode="&#x2212;" horiz-adv-x="571" 
d="M127 276q-32 0 -49.5 14.5t-17.5 41.5q0 17 8 31h376q32 0 49.5 -14.5t17.5 -41.5q0 -19 -7 -31h-377z" />
    <glyph glyph-name="multiply" unicode="&#xd7;" horiz-adv-x="506" 
d="M311 317l132 -132q-1 -5 -6 -13t-11 -13q-15 -17 -34 -17q-23 0 -49 26l-90 91l-133 -135q-14 6 -25 17q-16 16 -16 37q0 24 26 52l88 89l-130 132q7 20 16 29q15 16 33 16q22 0 50 -28l89 -90l135 136q15 -7 24 -18q16 -16 16 -36q0 -25 -26 -53z" />
    <glyph glyph-name="divide" unicode="&#xf7;" horiz-adv-x="540" 
d="M225.5 419q-19.5 20 -19.5 54q0 33 19.5 53t51.5 20q30 0 49.5 -20t19.5 -53t-19.5 -53.5t-49.5 -20.5q-32 0 -51.5 20zM127 276q-32 0 -49.5 14.5t-17.5 41.5q0 17 8 31h356q32 0 49.5 -14.5t17.5 -41.5q0 -19 -7 -31h-357zM225.5 113.5q-19.5 20.5 -19.5 53.5
q0 32 19.5 52.5t51.5 20.5q30 0 49.5 -20.5t19.5 -52.5q0 -33 -19.5 -53.5t-49.5 -20.5q-32 0 -51.5 20.5z" />
    <glyph glyph-name="equal" unicode="=" horiz-adv-x="551" 
d="M127 375q-32 0 -49.5 14t-17.5 41q0 16 8 32h356q32 0 49.5 -14.5t17.5 -41.5q0 -19 -7 -31h-357zM127 177q-32 0 -49.5 14.5t-17.5 41.5q0 17 8 31h356q32 0 49.5 -14t17.5 -41q0 -18 -7 -32h-357z" />
    <glyph glyph-name="notequal" unicode="&#x2260;" horiz-adv-x="546" 
d="M421 264q32 0 49.5 -14t17.5 -41q0 -18 -7 -32h-225l-20 -55q-11 -32 -28 -49t-34 -17t-28 11l40 110h-66q-29 0 -45.5 14.5t-16.5 41.5q0 15 7 31h153l41 111h-135q-32 0 -49 14t-17 41q0 15 7 32h226l20 56q12 32 28.5 49t31.5 17q18 0 30 -10l-41 -112h61
q32 0 49.5 -14t17.5 -42q0 -19 -7 -31h-153l-40 -111h133z" />
    <glyph glyph-name="greater" unicode="&#x3e;" horiz-adv-x="411" 
d="M63 116q0 23 12 35.5t39 26.5q132 68 173 81q-38 11 -173 81q-29 15 -40 27.5t-11 37.5t10 58q156 -77 245 -130q25 -15 35.5 -31t10.5 -44v-50q-149 -81 -291 -151q-10 26 -10 59z" />
    <glyph glyph-name="less" unicode="&#x3c;" horiz-adv-x="411" 
d="M93 187q-25 15 -35.5 31t-10.5 44v50q149 81 291 151q10 -26 10 -59q0 -23 -12 -35.5t-39 -26.5q-132 -68 -173 -81q38 -11 173 -81q29 -15 40 -27.5t11 -37.5t-10 -58q-156 77 -245 130z" />
    <glyph glyph-name="greaterequal" unicode="&#x2265;" horiz-adv-x="536" 
d="M469 260l-390 -110q-10 16 -10 42q0 31 17.5 47.5t53.5 23.5l233 52l-232 49q-35 6 -53.5 24t-18.5 46q0 25 10 44l351 -96q39 -14 39 -73v-49zM474 87q6 -10 6 -31q0 -27 -17 -41.5t-49 -14.5h-351q-8 16 -8 32q0 27 17.5 41t49.5 14h352z" />
    <glyph glyph-name="lessequal" unicode="&#x2264;" horiz-adv-x="540" 
d="M66 260v49q0 59 39 73l351 96q10 -19 10 -44q0 -28 -18.5 -46t-53.5 -24l-232 -49l233 -52q36 -7 53.5 -23.5t17.5 -47.5q0 -26 -10 -42zM121 0q-32 0 -49 14.5t-17 41.5q0 21 6 31h352q32 0 49.5 -14t17.5 -41q0 -16 -8 -32h-351z" />
    <glyph glyph-name="plusminus" unicode="&#xb1;" horiz-adv-x="534" 
d="M465.5 304.5q-17.5 -14.5 -49.5 -14.5h-107v-116q-14 -8 -30 -8q-27 0 -41 18.5t-14 53.5v52h-164q-8 18 -8 33q0 27 17.5 41t49.5 14h105v118q16 7 32 7q26 0 39.5 -18.5t13.5 -53.5v-53h167q7 -12 7 -31q0 -28 -17.5 -42.5zM474 87q5 -12 5 -31q0 -56 -67 -56h-349
q-8 16 -8 32q0 27 17.5 41t49.5 14h352z" />
    <glyph glyph-name="approxequal" unicode="&#x2248;" horiz-adv-x="494" 
d="M80 489q15 22 37 22q13 0 22 -7t12 -20q-10 -4 -16.5 -16t-6.5 -27q0 -17 9 -28t25 -11q17 0 29 10.5t28 32.5q23 32 46 49t61 17q45 0 71.5 -27t26.5 -76q0 -37 -15.5 -58.5t-38.5 -21.5q-14 0 -22.5 7.5t-10.5 18.5q10 5 16.5 17.5t6.5 26.5q0 17 -9 28t-25 11
q-17 0 -29.5 -10.5t-28.5 -32.5q-22 -32 -44.5 -49t-61.5 -17q-45 0 -71 27t-26 75q0 37 15 59zM80 268.5q15 21.5 37 21.5q13 0 22 -7t12 -20q-10 -5 -16.5 -17t-6.5 -26q0 -17 9 -28.5t25 -11.5q17 0 29 10.5t28 33.5q24 32 46.5 49t60.5 17q45 0 71.5 -26.5t26.5 -75.5
q0 -37 -15.5 -59t-38.5 -22q-13 0 -22 8t-11 18q10 5 16.5 17t6.5 27q0 17 -9 28t-25 11q-17 0 -29.5 -10.5t-28.5 -32.5q-22 -32 -44.5 -49t-61.5 -17q-45 0 -71 27t-26 76q0 37 15 58.5z" />
    <glyph glyph-name="asciitilde" unicode="~" horiz-adv-x="530" 
d="M100.5 391q15.5 26 36.5 26q13 0 23 -8.5t13 -23.5q-11 -5 -17 -19t-6 -32q0 -16 9 -26.5t25 -10.5q17 0 29 11.5t28 36.5q23 34 45.5 53t60.5 19q45 0 71.5 -29t26.5 -82q0 -44 -15.5 -69.5t-38.5 -25.5q-13 0 -22.5 9t-11.5 22q11 6 17 20t6 32q0 16 -8.5 26t-24.5 10
q-17 0 -29 -11.5t-28 -35.5q-23 -34 -45.5 -53t-60.5 -19q-46 0 -72.5 29t-26.5 82q0 43 15.5 69z" />
    <glyph glyph-name="logicalnot" unicode="&#xac;" horiz-adv-x="512" 
d="M68 363h374v-144q0 -34 -14 -52.5t-39 -18.5q-14 0 -30 8v120h-232q-32 0 -49.5 14.5t-17.5 41.5q0 17 8 31z" />
    <glyph glyph-name="asciicircum" unicode="^" horiz-adv-x="347" 
d="M174 703q20 0 32 -6.5t20 -21.5l73 -156q-15 -7 -38 -7q-25 0 -38 7t-22 26q-8 22 -18 52.5t-11 40.5q-2 -10 -12 -42t-18 -51q-7 -18 -20 -26t-35 -8q-10 0 -22.5 2.5t-16.5 5.5q56 125 85 184h41z" />
    <glyph glyph-name="emptyset" unicode="&#x2205;" horiz-adv-x="790" 
d="M674 594q39 -47 60 -107t21 -127q0 -102 -47 -184t-129 -129t-184 -47q-67 0 -127 21t-107 60l-53 -53l-44 45l52 52q-39 47 -60 107t-21 128q0 102 46.5 184.5t129 129t184.5 46.5q68 0 128 -21t107 -60l53 53l44 -45zM174 183l399 399q-36 28 -81.5 43t-96.5 15
q-80 0 -144 -36t-100 -100t-36 -144q0 -104 59 -177zM539 116q64 36 100 100t36 144q0 103 -58 177l-399 -399q74 -58 177 -58q80 0 144 36z" />
    <glyph glyph-name="infinity" unicode="&#x221e;" horiz-adv-x="874" 
d="M133.5 199q-50.5 53 -50.5 141t50 141.5t132 53.5q53 0 96.5 -24.5t74.5 -72.5q66 99 171 99q83 0 134 -54t51 -142t-51 -141t-137 -53q-52 0 -95.5 24t-72.5 68q-27 -45 -70 -69t-97 -24q-85 0 -135.5 53zM667.5 264q28.5 31 28.5 77t-28 75.5t-72 29.5q-42 0 -76 -28.5
t-48 -77.5q19 -49 53 -78t73 -29q41 0 69.5 31zM351 260.5q35 29.5 51 79.5q-19 48 -53 76.5t-74 28.5q-42 0 -70 -30t-28 -76t28 -77t70 -31q41 0 76 29.5z" />
    <glyph glyph-name="integral" unicode="&#x222b;" horiz-adv-x="655" 
d="M67 -20q14 -11 31.5 -17.5t33.5 -6.5q38 0 64 29.5t34 78.5l92 480q18 92 61.5 139t122.5 47q46 0 73.5 -17t27.5 -47q0 -25 -20 -43q-30 26 -66 26q-39 0 -63 -29t-34 -80l-92 -480q-17 -92 -61 -139t-123 -47q-46 0 -73 17t-27 47q0 23 19 42z" />
    <glyph glyph-name="product" unicode="&#x220f;" horiz-adv-x="760" 
d="M683 720q13 -15 13 -38q0 -24 -19 -36.5t-56 -12.5h-65v-747q-10 -12 -32 -12q-24 0 -37.5 19.5t-13.5 55.5v684h-198v-747q-12 -12 -33 -12q-24 0 -37 19t-13 56v684h-116q-13 11 -13 29q0 28 19.5 43t56.5 15h544z" />
    <glyph glyph-name="summation" unicode="&#x2211;" horiz-adv-x="635" 
d="M271 373l-213 291v56h535l-4 -87h-400l186 -260l-198 -286h414l-7 -87h-540v58z" />
    <glyph glyph-name="radical" unicode="&#x221a;" horiz-adv-x="701" 
d="M120 449h-89v80h163l153 -454l227 645h98l-254 -720h-145z" />
    <glyph glyph-name="partialdiff" unicode="&#x2202;" horiz-adv-x="600" 
d="M77 395q29 60 79 92t111 32q36 0 79 -15t66 -49q-21 51 -59.5 106t-82.5 98l50 59q103 -82 164.5 -202t61.5 -242q0 -88 -31 -152t-88 -98t-134 -34q-117 0 -181 71.5t-64 193.5q0 80 29 140zM191 122.5q40 -46.5 109 -46.5q71 0 106.5 48t35.5 131q0 89 -39.5 133.5
t-108.5 44.5q-71 0 -107 -46t-36 -129q0 -89 40 -135.5z" />
    <glyph glyph-name="percent" unicode="%" horiz-adv-x="830" 
d="M98 419q-43 49 -43 131q0 83 42.5 131.5t115.5 48.5t116 -48.5t43 -131.5t-43 -131.5t-116 -48.5q-72 0 -115 49zM548 670q17 30 31 40t45 10h34l-372 -670q-17 -30 -31.5 -40t-45.5 -10h-34zM269.5 468.5q19.5 28.5 19.5 81.5t-19.5 81.5t-55.5 28.5q-37 0 -57 -28
t-20 -82q0 -55 20 -82.5t57 -27.5q36 0 55.5 28.5zM500.5 38.5q-42.5 48.5 -42.5 131.5t42.5 131.5t115.5 48.5t116 -49t43 -131t-43 -131t-116 -49t-115.5 48.5zM671.5 88.5q19.5 28.5 19.5 81.5t-19.5 81.5t-54.5 28.5q-37 0 -57 -28t-20 -82t20 -82t57 -28
q35 0 54.5 28.5z" />
    <glyph glyph-name="perthousand" unicode="&#x2030;" horiz-adv-x="1194" 
d="M98 419q-43 49 -43 131q0 83 42.5 131.5t115.5 48.5t116 -48.5t43 -131.5t-43 -131.5t-116 -48.5q-72 0 -115 49zM548 670q17 30 31 40t45 10h34l-372 -670q-17 -30 -31.5 -40t-45.5 -10h-34zM269.5 468.5q19.5 28.5 19.5 81.5t-19.5 81.5t-55.5 28.5q-37 0 -57 -28
t-20 -82q0 -55 20 -82.5t57 -27.5q36 0 55.5 28.5zM500.5 38.5q-42.5 48.5 -42.5 131.5t42.5 131.5t115.5 48.5t116 -49t43 -131t-43 -131t-116 -49t-115.5 48.5zM864.5 38.5q-42.5 48.5 -42.5 131.5t42.5 131.5t115.5 48.5t116 -49t43 -131t-43 -131t-116 -49t-115.5 48.5z
M671.5 88.5q19.5 28.5 19.5 81.5t-19.5 81.5t-54.5 28.5q-37 0 -57 -28t-20 -82t20 -82t57 -28q35 0 54.5 28.5zM1035.5 88.5q19.5 28.5 19.5 81.5t-19.5 81.5t-54.5 28.5q-37 0 -57 -28t-20 -82t20 -82t57 -28q35 0 54.5 28.5z" />
    <glyph glyph-name="arrowup" unicode="&#x2191;" horiz-adv-x="615" 
d="M320 614q76 -57 146.5 -108.5t78.5 -52.5q0 -29 -14 -46t-37 -17q-28 0 -63.5 30.5t-85.5 89.5l9 -451h-94l9 450q-49 -58 -85 -88.5t-63 -30.5q-23 0 -37 17t-14 46q8 1 78.5 52.5t146.5 108.5h25z" />
    <glyph glyph-name="arrowright" unicode="&#x2192;" horiz-adv-x="683" 
d="M510.5 498.5q51.5 -70.5 108.5 -146.5v-25q-57 -76 -108.5 -146.5t-52.5 -78.5q-29 0 -46 14t-17 37q0 28 30.5 63.5t89.5 85.5l-451 -9v94l450 -9q-58 49 -88.5 85t-30.5 63q0 23 17 37t46 14q1 -8 52.5 -78.5z" />
    <glyph glyph-name="arrowdown" unicode="&#x2193;" horiz-adv-x="615" 
d="M531 273q14 -17 14 -46q-8 -1 -78.5 -52.5t-146.5 -108.5h-25q-76 57 -146.5 108.5t-78.5 52.5q0 29 14 46t37 17q28 0 63.5 -30.5t85.5 -89.5l-9 451h94l-9 -450q49 58 85 88.5t63 30.5q23 0 37 -17z" />
    <glyph glyph-name="arrowleft" unicode="&#x2190;" horiz-adv-x="683" 
d="M619 387v-94l-451 9q59 -50 89.5 -85.5t30.5 -63.5q0 -23 -17 -37t-46 -14q-1 8 -52.5 78.5t-108.5 146.5v25q57 76 108.5 146.5t52.5 78.5q29 0 46 -14t17 -37q0 -27 -30.5 -63t-88.5 -85z" />
    <glyph glyph-name="lozenge" unicode="&#x25ca;" horiz-adv-x="612" 
d="M217 463q14 24 31.5 34.5t49.5 10.5h58l141 -254l-141 -254h-58q-32 0 -49.5 10.5t-31.5 34.5l-119 209zM298 424l-90 -170l90 -171l93 171z" />
    <glyph glyph-name="at" unicode="@" horiz-adv-x="851" 
d="M629.5 618q82.5 -42 128 -118.5t45.5 -176.5q0 -70 -24 -124t-67 -84t-99 -30q-46 0 -79.5 21t-40.5 55q-30 -69 -108 -69q-65 0 -102.5 49t-37.5 133q0 85 38 135t102 50q39 0 66.5 -16t41.5 -46q0 29 15 45.5t41 16.5q25 0 47 -11v-240q0 -42 34 -42q41 0 66.5 43
t25.5 111q0 79 -34.5 137.5t-99 90.5t-150.5 32q-93 0 -163 -37.5t-108 -106.5t-38 -162q0 -89 36.5 -155.5t104 -102t159.5 -35.5q42 0 71 9.5t52 31.5q23 -14 23 -40q0 -37 -44.5 -59t-118.5 -22q-107 0 -189.5 47.5t-128.5 133t-46 195.5q0 113 49 200t137.5 135
t204.5 48q108 0 190.5 -42zM492 312q0 30 -20.5 49.5t-51.5 19.5q-35 0 -54.5 -27.5t-19.5 -76.5q0 -50 20 -78.5t55 -28.5q29 0 50 18t21 44v80z" />
    <glyph glyph-name="ampersand" unicode="&#x26;" horiz-adv-x="802" 
d="M165 19.5q-55 27.5 -85.5 78t-30.5 115.5q0 77 41.5 139.5t111.5 91.5q-13 35 -13 74q0 63 30.5 111t85.5 74.5t127 26.5q54 0 98.5 -16t70 -45t25.5 -67q0 -21 -15 -35.5t-51 -23.5q-7 45 -41 72t-86 27q-66 0 -103.5 -34t-37.5 -90q0 -37 16 -68.5t36.5 -53t67.5 -67.5
l105 -101q20 32 29 48q30 50 49.5 78.5t44 48t53.5 19.5q25 0 43 -16t18 -46q0 -14 -4 -23q-26 2 -48 -12t-39 -36.5t-45 -65.5l-37 -56l182 -167h-158l-87 88q-42 -46 -101 -71t-126 -25q-71 0 -126 27.5zM454 151l-118 110q-62 57 -101 113q-39 -17 -64 -58t-25 -92
q0 -67 43 -103.5t112 -36.5q89 0 153 67z" />
    <glyph glyph-name="paragraph" unicode="&#xb6;" horiz-adv-x="764" 
d="M700 720q13 -15 13 -38q0 -28 -19.5 -42.5t-56.5 -14.5h-63v-739q-10 -12 -32 -12q-25 0 -38 19t-13 56v676h-148v-739q-13 -12 -34 -12q-50 0 -50 75v468h-37q-75 0 -117 39.5t-42 108.5q0 72 43.5 113.5t115.5 41.5h478z" />
    <glyph glyph-name="section" unicode="&#xa7;" horiz-adv-x="497" 
d="M103 139q26 -71 123 -71q105 0 105 71q0 40 -24.5 56.5t-76.5 25.5q-67 13 -103.5 30.5t-50 41t-13.5 57.5q0 38 24 67.5t60 37.5q-31 20 -47 48t-16 69q0 76 53.5 117t141.5 41q68 0 111 -25t43 -66q0 -20 -10.5 -33t-34.5 -21q-7 31 -37 52t-73 21q-41 0 -68.5 -16.5
t-27.5 -50.5q0 -31 19 -47.5t44.5 -23.5t86.5 -19q52 -13 87 -36.5t35 -77.5q0 -83 -76 -119q26 -16 41 -44.5t15 -69.5q0 -79 -54 -121.5t-153 -42.5q-74 0 -121 24t-47 63q0 36 44 62zM185 323.5q28 -12.5 82 -20.5q90 4 90 59q0 30 -24 43.5t-70 19.5q-46 1 -76 -13
t-30 -44q0 -32 28 -44.5z" />
    <glyph glyph-name="copyright" unicode="&#xa9;" horiz-adv-x="790" 
d="M210.5 43.5q-82.5 46.5 -129 129t-46.5 184.5t46.5 184.5t129 129t184.5 46.5t184.5 -46.5t129 -129t46.5 -184.5t-47 -184t-129 -129t-184 -47t-184.5 46.5zM544.5 104.5q66.5 37.5 103.5 103.5t37 149t-37 149.5t-103.5 103.5t-149.5 37t-149 -37t-103.5 -103.5
t-37.5 -149.5t37.5 -149t103.5 -103.5t149 -37.5t149.5 37.5zM273 215q-51 54 -51 143q0 87 51.5 141t136.5 54q53 0 89.5 -23t36.5 -57q0 -35 -45 -43q-24 50 -81 50q-98 0 -98 -122q0 -123 97 -123q58 0 82 50q20 -4 32.5 -15.5t12.5 -27.5q0 -34 -37 -57.5t-90 -23.5
q-85 0 -136 54z" />
    <glyph glyph-name="registered" unicode="&#xae;" horiz-adv-x="790" 
d="M579.5 670.5q82.5 -46.5 129 -129t46.5 -184.5t-47 -184t-129 -129t-184 -47t-184.5 46.5t-129 129t-46.5 184.5t46.5 184.5t129 129t184.5 46.5t184.5 -46.5zM544.5 104.5q66.5 37.5 103.5 103.5t37 149t-37 149.5t-103.5 103.5t-149.5 37t-149 -37t-103.5 -103.5
t-37.5 -149.5t37.5 -149t103.5 -103.5t149 -37.5t149.5 37.5zM526 365.5q-22 -28.5 -59 -39.5l15 -25l66 -114q-6 -7 -20 -12.5t-27 -5.5q-23 0 -36.5 10.5t-23.5 35.5l-40 100h-53v-141q-16 -6 -31 -6q-49 0 -49 47v330h152q60 0 94 -30t34 -84q0 -37 -22 -65.5zM410 378
q26 0 42 13.5t16 36.5q0 25 -15.5 38.5t-42.5 13.5h-62v-102h62z" />
    <glyph glyph-name="trademark" unicode="&#x2122;" horiz-adv-x="582" 
d="M196 720q17 0 27 -11.5t10 -31.5l-1 -13h-69v-211q-15 -5 -31 -5q-34 0 -34 39v177h-34q-17 0 -26.5 8t-9.5 23q0 19 1 25h167zM493 720q21 0 30 -12t9 -41v-214q-13 -5 -33 -5q-31 0 -31 38v72q0 64 1 79q-1 -7 -11.5 -35.5t-18.5 -45.5l-25 -56q-6 -3 -15 -3
q-8 0 -12 3.5t-9 13.5l-20 42q-13 29 -31 80q2 -16 3 -46.5t1 -31.5v-105q-8 -5 -18 -5q-45 0 -45 38v234h51q28 0 40 -30l40 -102l51 132h43z" />
    <glyph glyph-name="degree" unicode="&#xb0;" horiz-adv-x="390" 
d="M120.5 427.5q-33.5 19.5 -52.5 53t-19 75.5q0 64 41.5 106t105.5 42q62 0 103.5 -42t41.5 -106q0 -41 -19 -75t-52 -53.5t-74 -19.5q-42 0 -75.5 19.5zM250 503q22 22 22 53q0 33 -22 54t-54 21q-33 0 -55.5 -21t-22.5 -54q0 -31 23 -53t55 -22t54 22z" />
    <glyph glyph-name="bar" unicode="|" horiz-adv-x="302" 
d="M192 -114q-10 -12 -32 -12q-25 0 -38 19t-13 56v767q13 13 33 13q24 0 37 -19.5t13 -55.5v-768z" />
    <glyph glyph-name="brokenbar" unicode="&#xa6;" horiz-adv-x="302" 
d="M192 376q-10 -12 -32 -12q-25 0 -38 19t-13 56v278q13 13 33 13q24 0 37 -19.5t13 -55.5v-279zM192 -114q-10 -12 -32 -12q-25 0 -38 19t-13 56v278q13 13 33 13q24 0 37 -19.5t13 -56.5v-278z" />
    <glyph glyph-name="dagger" unicode="&#x2020;" horiz-adv-x="491" 
d="M417 569q13 -15 13 -38q0 -28 -19.5 -42.5t-55.5 -14.5h-66v-389q-13 -13 -35 -13q-25 0 -38.5 19.5t-13.5 56.5v325l-129 -1q-13 15 -13 38q0 27 20 42t56 15h66v149q11 13 34 13q26 0 39.5 -19.5t13.5 -56.5v-85z" />
    <glyph glyph-name="daggerdbl" unicode="&#x2021;" horiz-adv-x="456" 
d="M80 312q20 15 56 15h66v145h-129q-13 15 -13 38q0 27 20 42t56 15h66v149q11 13 34 13q26 0 39.5 -19.5t13.5 -56.5v-84h128q13 -15 13 -38q0 -28 -19.5 -42.5t-55.5 -14.5h-66v-146h128q6 -6 9.5 -16t3.5 -21q0 -28 -20 -43t-55 -15h-66v-85q0 -37 -13.5 -56.5
t-39.5 -19.5q-23 0 -34 13v147h-129q-13 15 -13 38q0 27 20 42z" />
    <glyph glyph-name="registered.small" horiz-adv-x="361" 
d="M78 682.5q43 42.5 108 42.5t107.5 -42.5t42.5 -106.5t-42.5 -106t-107.5 -42t-108 42t-43 106t43 106.5zM100.5 491q32.5 -32 85.5 -32t85 32.5t32 84.5q0 53 -32 85.5t-85 32.5t-85.5 -32.5t-32.5 -85.5t32.5 -85zM128 661h61q29 0 44 -13.5t15 -37.5q0 -16 -8 -28
t-24 -18l33 -64q-2 -4 -7.5 -6.5t-10.5 -2.5q-9 0 -14 4.5t-9 14.5l-21 48h-26v-64q-6 -3 -12 -3q-10 0 -15.5 6t-5.5 16v148zM186 583q14 0 22.5 7t8.5 19q0 25 -31 25h-25v-51h25z" />
    <glyph glyph-name="ampersand.ss03" horiz-adv-x="670" 
d="M104.5 315.5q40.5 54.5 101.5 68.5q-61 14 -94 55.5t-33 99.5q0 55 28.5 98.5t82.5 68t129 24.5q82 0 131.5 -28.5t49.5 -73.5q0 -22 -12 -36.5t-34 -18.5q-18 28 -53 42.5t-80 14.5q-62 0 -94 -25t-32 -73q0 -92 124 -92h312q5 -15 5 -23q0 -32 -24.5 -52.5t-64.5 -21.5
v-337q-16 -13 -40 -13q-31 0 -52 25.5t-25 68.5q-25 -48 -62.5 -72.5t-96.5 -24.5q-61 0 -108 25.5t-73 71t-26 103.5q0 71 40.5 125.5zM204.5 121q33.5 -32 89.5 -32q63 0 99.5 35.5t36.5 100.5v118h-106q-69 0 -111 -37.5t-42 -100.5q0 -52 33.5 -84z" />
    <glyph glyph-name="uni0308" unicode="&#x308;" 
d="M-382 665l55 63l59 -52q8 -8 8 -21q0 -12 -8 -22l-55 -63l-59 53q-8 9 -8 19q0 11 8 23zM-164 665l53 63l60 -52q8 -6 8 -21q0 -12 -8 -22l-56 -63l-57 53q-10 9 -10 19q0 13 10 23z" />
    <glyph glyph-name="uni0307" unicode="&#x307;" 
d="M-143 661l57 66l62 -55q8 -9 8 -22q0 -8 -8 -22l-58 -66l-61 55q-10 8 -10 21q0 11 10 23z" />
    <glyph glyph-name="gravecomb" unicode="&#x300;" 
d="M-51 590l-47 -16l-200 171l113 23z" />
    <glyph glyph-name="acutecomb" unicode="&#x301;" 
d="M-250 574l-46 16l134 178l113 -23z" />
    <glyph glyph-name="uni030B" unicode="&#x30b;" 
d="M-461 590l141 165l97 -25l-194 -156zM-287 590l140 165l99 -25l-195 -156z" />
    <glyph glyph-name="uni0302" unicode="&#x302;" 
d="M-194 765l147 -182l-49 -17l-134 118l-135 -118l-51 17l149 182h73z" />
    <glyph glyph-name="uni030C" unicode="&#x30c;" 
d="M-267 576l-149 182l50 16l135 -115l134 115l50 -16l-147 -182h-73z" />
    <glyph glyph-name="uni0306" unicode="&#x306;" 
d="M-315 735q9 -40 40 -61.5t68 -21.5t67.5 21.5t38.5 61.5h53q-3 -49 -27.5 -83.5t-60 -52t-71.5 -17.5q-37 0 -72.5 17.5t-60 52t-28.5 83.5h53z" />
    <glyph glyph-name="uni030A" unicode="&#x30a;" 
d="M-260.5 585q-30.5 16 -46 41.5t-15.5 53.5q0 46 36.5 80t102.5 34q64 0 100 -30t36 -82t-38.5 -82.5t-101.5 -30.5q-43 0 -73.5 16zM-135.5 635.5q17.5 17.5 17.5 43.5q0 24 -17.5 41.5t-48.5 17.5q-29 0 -48.5 -17t-19.5 -42q0 -28 18.5 -44.5t49.5 -16.5t48.5 17.5z
" />
    <glyph glyph-name="tildecomb" unicode="&#x303;" 
d="M-256 714.5q21 -10.5 49 -29.5q23 -15 36.5 -22t24.5 -7q40 0 60 55l39 -13q-6 -48 -36.5 -79t-74.5 -31q-19 0 -39 10t-46 28q-24 16 -38.5 23.5t-27.5 7.5q-44 0 -59 -54l-39 13q4 48 34.5 78.5t75.5 30.5q20 0 41 -10.5z" />
    <glyph glyph-name="uni0304" unicode="&#x304;" 
d="M-49 608h-297v67h297v-67z" />
    <glyph glyph-name="uni0312" unicode="&#x312;" 
d="M-62.5 686q17.5 -18 17.5 -47q0 -26 -18.5 -48t-53.5 -22q-37 0 -59 28.5t-22 83.5q0 50 29 82t75 32q21 0 34.5 -8t13.5 -21q0 -18 -12 -30q-10 12 -34 12t-40.5 -14.5t-15.5 -44.5q12 15 39 15q29 0 46.5 -18z" />
    <glyph glyph-name="uni0326" unicode="&#x326;" 
d="M-67 -80.5q22 -28.5 22 -83.5q0 -50 -29 -82t-75 -32q-21 0 -34.5 8t-13.5 21q0 18 12 30q10 -12 34 -12t40.5 14.5t15.5 44.5q-12 -15 -39 -15q-29 0 -46.5 18t-17.5 47q0 26 18.5 48t53.5 22q37 0 59 -28.5z" />
    <glyph glyph-name="uni0327" unicode="&#x327;" 
d="M-181 1q61 -11 97.5 -41t36.5 -71q0 -43 -36 -66t-92 -23q-72 0 -117 39l15 32q24 -14 57 -14q30 0 50 14.5t20 39.5q0 52 -77 90h46z" />
    <glyph glyph-name="uni0328" unicode="&#x328;" 
d="M-114 1q-76 -35 -76 -89q0 -26 19 -40t51 -14t57 14l15 -33q-47 -39 -118 -39q-54 0 -89.5 23t-35.5 64t36 72t97 42h44z" />
    <glyph glyph-name="dieresis" unicode="&#xa8;" horiz-adv-x="433" 
d="M51 665l55 63l59 -52q8 -8 8 -21q0 -12 -8 -22l-55 -63l-59 53q-8 9 -8 19q0 11 8 23zM269 665l53 63l60 -52q8 -6 8 -21q0 -12 -8 -22l-56 -63l-57 53q-10 9 -10 19q0 13 10 23z" />
    <glyph glyph-name="dotaccent" unicode="&#x2d9;" horiz-adv-x="208" 
d="M65 661l57 66l62 -55q8 -9 8 -22q0 -8 -8 -22l-58 -66l-61 55q-10 8 -10 21q0 11 10 23z" />
    <glyph glyph-name="grave" unicode="`" horiz-adv-x="347" 
d="M296 590l-47 -16l-200 171l113 23z" />
    <glyph glyph-name="acute" unicode="&#xb4;" horiz-adv-x="347" 
d="M97 574l-46 16l134 178l113 -23z" />
    <glyph glyph-name="hungarumlaut" unicode="&#x2dd;" horiz-adv-x="512" 
d="M51 590l141 165l97 -25l-194 -156zM225 590l140 165l99 -25l-195 -156z" />
    <glyph glyph-name="circumflex" unicode="&#x2c6;" horiz-adv-x="463" 
d="M269 765l147 -182l-49 -17l-134 118l-135 -118l-51 17l149 182h73z" />
    <glyph glyph-name="caron" unicode="&#x2c7;" horiz-adv-x="463" 
d="M196 576l-149 182l50 16l135 -115l134 115l50 -16l-147 -182h-73z" />
    <glyph glyph-name="breve" unicode="&#x2d8;" horiz-adv-x="415" 
d="M100 735q9 -40 40 -61.5t68 -21.5t67.5 21.5t38.5 61.5h53q-3 -49 -27.5 -83.5t-60 -52t-71.5 -17.5q-37 0 -72.5 17.5t-60 52t-28.5 83.5h53z" />
    <glyph glyph-name="ring" unicode="&#x2da;" horiz-adv-x="369" 
d="M108.5 585q-30.5 16 -46 41.5t-15.5 53.5q0 46 36.5 80t102.5 34q64 0 100 -30t36 -82t-38.5 -82.5t-101.5 -30.5q-43 0 -73.5 16zM233.5 635.5q17.5 17.5 17.5 43.5q0 24 -17.5 41.5t-48.5 17.5q-29 0 -48.5 -17t-19.5 -42q0 -28 18.5 -44.5t49.5 -16.5t48.5 17.5z" />
    <glyph glyph-name="tilde" unicode="&#x2dc;" horiz-adv-x="456" 
d="M200 714.5q21 -10.5 49 -29.5q23 -15 36.5 -22t24.5 -7q40 0 60 55l39 -13q-6 -48 -36.5 -79t-74.5 -31q-19 0 -39 10t-46 28q-24 16 -38.5 23.5t-27.5 7.5q-44 0 -59 -54l-39 13q4 48 34.5 78.5t75.5 30.5q20 0 41 -10.5z" />
    <glyph glyph-name="macron" unicode="&#xaf;" horiz-adv-x="395" 
d="M346 608h-297v67h297v-67z" />
    <glyph glyph-name="cedilla" unicode="&#xb8;" horiz-adv-x="341" 
d="M160 1q61 -11 97.5 -41t36.5 -71q0 -43 -36 -66t-92 -23q-72 0 -117 39l15 32q24 -14 57 -14q30 0 50 14.5t20 39.5q0 52 -77 90h46z" />
    <glyph glyph-name="ogonek" unicode="&#x2db;" horiz-adv-x="340" 
d="M226 1q-76 -35 -76 -89q0 -26 19 -40t51 -14t57 14l15 -33q-47 -39 -118 -39q-54 0 -89.5 23t-35.5 64t36 72t97 42h44z" />
    </font>
</defs>
</svg>
