<?xml version="1.0" standalone="no"?>
<!DOCTYPE svg PUBLIC "-//W3C//DTD SVG 1.1//EN" "http://www.w3.org/Graphics/SVG/1.1/DTD/svg11.dtd" >
<svg xmlns="http://www.w3.org/2000/svg">
<metadata>
<json>
<![CDATA[
{
	"fontFamily": "Telkomsel-Icon-Family",
	"majorVersion": 1,
	"minorVersion": 0,
	"version": "Version 1.0",
	"fontId": "Telkomsel-Icon-Family",
	"psName": "Telkomsel-Icon-Family",
	"subFamily": "Regular",
	"fullName": "Telkomsel-Icon-Family",
	"description": "Font generated by IcoMoon."
}
]]>
</json>
</metadata>
<defs>
<font id="Telkomsel-Icon-Family" horiz-adv-x="1024">
<font-face units-per-em="1024" ascent="960" descent="-64" />
<missing-glyph horiz-adv-x="1024" />
<glyph unicode="&#x20;" horiz-adv-x="512" d="" />
<glyph unicode="&#xe900;" glyph-name="ico_radio_button_inactive" data-tags="ico_radio_button_inactive" d="M512 106.667c-188.513 0-341.333 152.819-341.333 341.333s152.82 341.333 341.333 341.333c188.514 0 341.333-152.82 341.333-341.333s-152.819-341.333-341.333-341.333zM512 21.333c235.639 0 426.667 191.027 426.667 426.667 0 235.642-191.027 426.667-426.667 426.667-235.642 0-426.667-191.025-426.667-426.667 0-235.639 191.025-426.667 426.667-426.667z" />
<glyph unicode="&#xe901;" glyph-name="ico_checkbox_inactive" data-tags="ico_checkbox_inactive" d="M341.333 789.333h341.333c94.255 0 170.667-76.41 170.667-170.667v-341.333c0-94.255-76.412-170.667-170.667-170.667h-341.333c-94.257 0-170.667 76.412-170.667 170.667v341.333c0 94.257 76.41 170.667 170.667 170.667zM341.333 874.667c-141.385 0-256-114.615-256-256v-341.333c0-141.385 114.615-256 256-256h341.333c141.385 0 256 114.615 256 256v341.333c0 141.385-114.615 256-256 256h-341.333z" />
<glyph unicode="&#xe902;" glyph-name="ico_store" data-tags="ico_store" d="M768 362.667c-50.974 0-96.73 22.349-128 57.779-31.27-35.43-77.026-57.779-128-57.779s-96.727 22.349-128 57.779c-31.272-35.43-77.027-57.779-128-57.779-14.733 0-29.030 1.869-42.667 5.376v-150.511c-31.6 6.72-53.056 20.698-67.39 35.895-7.661 8.119-13.553 16.862-17.943 25.553v141.466c-26.554 30.084-42.667 69.606-42.667 112.887v42.667l69.174 191.363c9.497 37.988 43.629 64.637 82.785 64.637h549.412c39.159 0 73.289-26.649 82.786-64.637l69.175-191.363v-42.667c0-43.281-16.111-82.803-42.667-112.887v-228.446c0-70.694-57.306-128-128-128h-512c-68.325 0-124.146 53.534-127.809 120.943 31.831-21.734 74.097-35.61 127.809-35.61h512c23.565 0 42.667 19.102 42.667 42.667v176.043c-13.636-3.507-27.934-5.376-42.667-5.376zM786.705 746.667h-549.412l-42.667-85.333h634.746l-42.667 85.333zM341.333 533.333v42.667h-170.667v-42.667c0-47.13 38.205-85.333 85.333-85.333s85.333 38.204 85.333 85.333zM597.333 533.333v42.667h-170.667v-42.667c0-47.13 38.204-85.333 85.333-85.333s85.333 38.204 85.333 85.333zM853.333 533.333v42.667h-170.667v-42.667c0-47.13 38.204-85.333 85.333-85.333s85.333 38.204 85.333 85.333z" />
<glyph unicode="&#xe903;" glyph-name="ico_checkbox" data-tags="ico_checkbox" d="M298.667 874.667c-117.821 0-213.333-95.513-213.333-213.333v-426.667c0-117.82 95.513-213.333 213.333-213.333h426.667c117.82 0 213.333 95.514 213.333 213.333v426.667c0 117.821-95.514 213.333-213.333 213.333h-426.667zM818.756 703.257c16.422-16.42 17.754-44.522 2.974-62.767l-360-444.445c-7.339-9.062-17.711-14.374-28.681-14.694-10.968-0.324-21.574 4.378-29.334 13.001l-200 222.221c-15.621 17.357-15.621 45.5 0 62.857s40.948 17.357 56.568 0l170.188-189.099 331.797 409.624c14.775 18.245 40.068 19.724 56.486 3.304z" />
<glyph unicode="&#xe904;" glyph-name="ico_add_card" data-tags="ico_add_card" d="M768 356.57c0 26.931-19.102 48.764-42.667 48.764s-42.667-21.833-42.667-48.764v-79.236h-79.236c-26.931 0-48.764-19.102-48.764-42.667s21.833-42.667 48.764-42.667h79.236v-79.236c0-26.931 19.102-48.764 42.667-48.764s42.667 21.833 42.667 48.764v79.236h79.236c26.931 0 48.764 19.102 48.764 42.667s-21.833 42.667-48.764 42.667h-79.236v79.236zM213.333 746.667h597.333v-85.333h-597.333v85.333zM213.333 576h597.333v-128c0-64 85.333-64 85.333 0v298.667c0 47.128-38.204 85.333-85.333 85.333h-597.333c-47.128 0-85.333-38.205-85.333-85.333v-373.798c6.28-5.773 15.738-11.362 29.405-16.55 17.359-6.588 37.376-10.662 55.929-12.873v232.555zM426.667 192c64 0 64 85.333 0 85.333h-213.333c-24.724 2.436-53.027 9.434-78.634 19.149-2.21 0.836-4.447 1.732-6.7 2.679v-21.828c0-47.13 38.205-85.333 85.333-85.333h213.333zM256 490.667c0 23.565 19.103 42.667 42.667 42.667h128c23.565 0 42.667-19.102 42.667-42.667s-19.102-42.667-42.667-42.667h-128c-23.564 0-42.667 19.102-42.667 42.667zM554.667 533.333c-23.565 0-42.667-19.102-42.667-42.667s19.102-42.667 42.667-42.667h42.667c23.565 0 42.667 19.102 42.667 42.667s-19.102 42.667-42.667 42.667h-42.667z" />
<glyph unicode="&#xe905;" glyph-name="ico_arrow_cardinal" data-tags="ico_arrow_cardinal" d="M512 832c3.947 0 7.753-0.595 11.337-1.701 5.79-1.782 11.243-4.963 15.821-9.544l115.217-115.2c14.997-14.995 15.002-39.309 0.004-54.306-14.993-14.997-39.309-14.999-54.306-0.004l-49.673 49.667v-137.712c0-21.208-17.19-38.4-38.4-38.4s-38.4 17.192-38.4 38.4v137.69l-49.648-49.644c-14.996-14.996-39.31-14.995-54.306 0.002s-14.995 39.31 0.002 54.306l114.721 114.714c6.985 7.233 16.781 11.732 27.631 11.732zM539.669 75.733l114.722 114.714c14.993 14.993 14.997 39.309 0 54.306s-39.309 14.997-54.306 0l-49.647-49.643v137.69c0 21.21-17.195 38.4-38.4 38.4-21.21 0-38.4-17.19-38.4-38.4v-137.711l-49.674 49.664c-14.997 14.997-39.311 14.993-54.306 0-14.995-14.997-14.993-39.313 0.004-54.306l115.215-115.2c4.595-4.595 10.065-7.782 15.872-9.562 3.567-1.097 7.36-1.685 11.29-1.685 10.846 0 20.646 4.497 27.631 11.733zM896 448.111c-0.030 10.803-4.523 20.561-11.733 27.52l-114.714 114.721c-14.993 14.997-39.309 14.998-54.306 0.002s-14.997-39.309 0-54.306l49.643-49.648h-137.69c-21.21 0-38.4-17.19-38.4-38.4s17.19-38.4 38.4-38.4h137.711l-49.664-49.673c-14.997-14.997-14.993-39.313 0-54.306 14.997-14.997 39.313-14.993 54.306 0.004l115.2 115.213c7.168 7.168 10.906 16.461 11.226 25.847 0.017 0.474 0.021 0.951 0.021 1.425zM139.732 420.348c-7.234 6.98-11.732 16.781-11.732 27.627 0 3.947 0.595 7.757 1.701 11.337 1.782 5.79 4.963 11.243 9.544 15.825l115.2 115.215c14.995 14.997 39.309 14.999 54.306 0.004s14.999-39.309 0.004-54.306l-49.667-49.675h137.712c21.208 0 38.4-17.19 38.4-38.4 0-21.205-17.192-38.4-38.4-38.4h-137.69l49.644-49.647c14.996-14.997 14.995-39.309-0.002-54.306-14.996-14.993-39.31-14.993-54.306 0.004l-114.714 114.722z" />
<glyph unicode="&#xe906;" glyph-name="ico_disable_image" data-tags="ico_disable_image" d="M597.333 832h-325.333c-79.547 0-144-64.453-144-144v-480c0-79.548 64.453-144 144-144h480c79.548 0 144 64.452 144 144v330.71c0 58.623-85.333 58.623-85.333 0v-98.633l-88.196 81.374c-30.046 30-63.177 36-108.843 0-32.243-25.417-44.702-39.095-58.035-53.739v0 0h-0.004c-5.551-6.097-11.255-12.365-18.603-19.712-1.161-1.156-3.371-3.166-6.157-5.696-10.906-9.903-30.652-27.836-30.827-34.385l-77.533 77.534c-30.047 29.999-78.75 29.999-108.844 0l-100.292-101.453-2.325 304c0 26.531 34.461 58.667 60.992 58.667h325.333c64 0 64 85.333 0 85.333zM561.984 348.002l184.683-198.669h5.333c12.749 0 28.335 12.335 37.333 21.333s21.333 24.585 21.333 37.333v90.667l-142.669 141.41-106.014-92.075zM213.333 256v-48c0-26.53 32.136-58.667 58.667-58.667h346.667l-250.667 254.746-154.667-148.079zM554.667 597.333c0-85.333-128-85.333-128 0s128 85.333 128 0zM768 768c-35.345 0-64-28.654-64-64 0-10.302 2.436-20.036 6.758-28.657l85.901 85.899c-8.623 4.325-18.355 6.759-28.659 6.759zM768 640c-9.455 0-18.432 2.051-26.513 5.732l84.783 84.779c3.678-8.078 5.73-17.055 5.73-26.511 0-35.346-28.655-64-64-64zM661.333 704c0 58.91 47.757 106.667 106.667 106.667s106.667-47.756 106.667-106.667c0-58.91-47.757-106.667-106.667-106.667s-106.667 47.756-106.667 106.667z" />
<glyph unicode="&#xe907;" glyph-name="ico_exchange" data-tags="ico_exchange" d="M377.941 817.941c18.745-18.745 18.745-49.137 0-67.883l-86.059-86.059h556.118c26.509 0 48-21.49 48-48s-21.491-48-48-48h-556.118l86.059-86.059c18.745-18.743 18.745-49.139 0-67.883s-49.137-18.743-67.883 0l-168 168c-9.001 9.002-14.059 21.211-14.059 33.941s5.057 24.94 14.059 33.941l168 168c18.745 18.745 49.137 18.745 67.883 0zM646.059 78.059c-18.743 18.743-18.743 49.139 0 67.883l86.059 86.059h-556.117c-26.51 0-48 21.491-48 48s21.49 48 48 48h556.117l-86.059 86.059c-18.743 18.743-18.743 49.139 0 67.883s49.139 18.743 67.883 0l168-168c9.003-9.003 14.059-21.21 14.059-33.941s-5.056-24.939-14.059-33.941l-168-168c-18.743-18.743-49.139-18.743-67.883 0z" />
<glyph unicode="&#xe908;" glyph-name="ico_image" data-tags="ico_image" d="M752 832h-480c-79.547 0-144-64.453-144-144v-480c0-79.548 64.453-144 144-144h480c79.548 0 144 64.452 144 144v405.646c-4.719 15.887-20.403 29.321-56.627 38.265-9.259 2.286-18.914 4.017-28.706 5.329v-217.162l-88.196 81.374c-30.046 30-63.177 36-108.843 0-32.243-25.417-44.702-39.095-58.035-53.739v0 0c-5.555-6.097-11.26-12.365-18.607-19.712-1.161-1.156-3.371-3.166-6.157-5.696-10.906-9.903-30.652-27.836-30.827-34.385l-77.533 77.534c-30.047 29.999-78.75 29.999-108.844 0l-100.292-101.453-2.325 304c0 26.531 34.461 58.667 60.992 58.667h480c0.823 0 1.647-0.066 2.462-0.191 30.455-0.568 69.316-2.819 105.365-11.72 10.129-2.501 20.787-5.733 31.424-9.924-16.269 61.695-72.435 107.168-139.251 107.168zM746.667 149.333l-184.683 198.669 106.014 92.075 142.669-141.41v-90.667c0-10.586-10.842-20.779-19.669-29.086v0c-1.809-1.702-3.533-3.324-5.060-4.851s-3.149-3.251-4.851-5.060v0c-8.307-8.832-18.5-19.669-29.086-19.669h-5.333zM213.333 208v48l154.667 148.079 250.667-254.746h-346.667c-26.531 0-58.667 32.137-58.667 58.667zM554.667 597.333c0-85.333-128-85.333-128 0s128 85.333 128 0z" />
<glyph unicode="&#xe909;" glyph-name="ico_mute" data-tags="ico_mute" d="M500.036 811.764c55.582 47.002 139.964 6.894 139.964-66.525v-594.476c0-73.421-84.382-113.527-139.964-66.526l-174.15 147.273h-69.886c-62.639 0-114.769 45.662-125.834 105.971 6.223-2.603 12.438-4.817 18.525-6.69 41.298-12.698 84.89-12.689 106.135-12.685h101.955l197.886-167.343v594.476l-197.886-167.345h-100.781c-23.564 0-42.667-19.385-42.667-43.298v-128.349c-13.219 1.233-26.975 3.447-39.895 7.42-25.866 7.953-40.344 20.045-45.438 39.223v81.706c0 71.738 57.308 129.894 128 129.894h69.886l174.15 147.274zM675.904 565.443c17.732 15.517 44.689 13.72 60.207-4.014l42.556-48.635 42.556 48.635c15.518 17.734 42.475 19.531 60.207 4.014 17.737-15.517 19.533-42.473 4.015-60.205l-50.082-57.237 50.082-57.237c15.518-17.732 13.722-44.689-4.015-60.207-17.732-15.518-44.689-13.722-60.207 4.015l-42.556 48.636-42.556-48.636c-15.518-17.737-42.475-19.533-60.207-4.015s-19.529 42.475-4.015 60.207l50.082 57.237-50.082 57.237c-15.514 17.732-13.717 44.688 4.015 60.205z" />
<glyph unicode="&#xe90a;" glyph-name="ico_unmute" data-tags="ico_unmute" d="M640 745.239c0 73.419-84.382 113.527-139.964 66.525l-174.15-147.274h-69.886c-70.692 0-128-58.156-128-129.894v-81.706c5.094-19.179 19.572-31.27 45.438-39.223 12.92-3.972 26.676-6.187 39.895-7.42v128.349c0 23.913 19.103 43.298 42.667 43.298h100.781l197.886 167.345v-594.476l-197.886 167.343h-101.955c-21.245-0.004-64.838-0.013-106.135 12.685-6.086 1.873-12.302 4.087-18.525 6.69 11.064-60.309 63.195-105.971 125.834-105.971h69.886l174.15-147.273c55.582-47.002 139.964-6.895 139.964 66.526v594.476zM787.004 611.502c19.605 13.071 46.097 7.773 59.17-11.834l6.443-9.664c57.327-85.991 57.327-198.017 0-284.007l-6.443-9.664c-13.073-19.605-39.565-24.905-59.17-11.831-19.605 13.069-24.905 39.561-11.831 59.166l6.443 9.664c38.217 57.327 38.217 132.011 0 189.338l-6.443 9.664c-13.073 19.606-7.774 46.097 11.831 59.168zM763.494 509.747c-10.539 21.077-36.169 29.621-57.242 19.085-21.077-10.539-29.619-36.169-19.085-57.246l2.253-4.506c6.007-12.011 6.007-26.15 0-38.161l-2.253-4.506c-10.534-21.073-1.993-46.703 19.085-57.242 21.073-10.539 46.703-1.997 57.242 19.081l2.253 4.506c18.018 36.036 18.018 78.451 0 114.487l-2.253 4.501z" />
<glyph unicode="&#xe90b;" glyph-name="ico_alarm" data-tags="ico_alarm" d="M512.004 874.667c-23.561 0-42.667-19.103-42.667-42.667v-45.692c-144.734-20.705-255.994-145.18-255.994-295.642 0-7.851 0.11-16.862 0.23-26.709 0.307-25.225 0.997-70.498-0.235-101.291 2.161-2.099 4.407-4.13 6.73-6.089 23.624-19.934 52.076-29.794 71.808-29.794h4.82c0.009 0.124 0.019 0.243 0.029 0.367 3.502 44.207 2.577 107.307 2.161 140.463-0.112 8.93-0.21 16.742-0.21 23.053 0 117.821 95.513 213.333 213.332 213.333 117.824 0 213.333-95.513 213.333-213.333 0-36.237 3.712-95.066 11.063-148.723 3.076-22.46 6.895-44.791 11.558-64.61l-460.862 0.081c-26.537 0.939-55.523 10.15-81.709 25.685 0 0-14.49-20.809-17.654-25.766-10.732-16.811-19.621-30.332-16.511-49.502 3.352-20.655 21.19-35.831 42.116-35.831h128.189c1.98-43.622 19.096-85.47 48.837-117.193 31.762-33.877 75.452-53.474 121.635-53.474 46.187 0 89.877 19.597 121.638 53.474 29.739 31.723 46.857 73.57 48.836 117.193h128.196c17.259 0 32.815 10.394 39.42 26.338 6.404 15.467 3.166 33.195-8.171 45.385-0.282 0.474-1.015 1.762-2.069 4.211-2.001 4.638-4.267 11.311-6.618 20.126-4.693 17.6-8.853 40.375-12.288 65.463-6.874 50.163-10.274 105.114-10.274 137.143 0 150.464-111.262 274.941-256.004 295.642v45.691c0 23.564-19.102 42.667-42.667 42.667zM596.988 192c-1.873-22.519-11.081-43.345-25.6-58.829-16.247-17.331-37.67-26.505-59.383-26.505-21.709 0-43.132 9.173-59.379 26.505-14.519 15.484-23.727 36.309-25.6 58.829h169.963zM381.812 845.491c7.452-22.355-4.63-46.518-26.985-53.969-85.162-28.387-131.942-108.463-143.682-143.682-7.452-22.355-31.615-34.436-53.969-26.985s-34.436 31.615-26.985 53.969c16.705 50.114 78.014 157.772 197.652 197.652 22.355 7.451 46.518-4.63 53.969-26.985zM642.189 845.491c-7.454-22.355 4.629-46.518 26.982-53.969 85.163-28.387 131.942-108.463 143.684-143.682 7.45-22.355 31.616-34.436 53.969-26.985s34.436 31.615 26.987 53.969c-16.708 50.114-78.016 157.772-197.653 197.652-22.353 7.451-46.519-4.63-53.969-26.985z" />
<glyph unicode="&#xe90c;" glyph-name="ico_booster" data-tags="ico_booster" d="M853.679 789.677c-49.225 49.224-124.437 50.513-194.441 29.208-71.791-21.85-149.222-70.042-217.114-137.934-24.218-24.217-45.842-49.557-64.636-75.334-18.789-0.383-37.306-3.63-54.934-9.534-11.951-14.098-16.377-30.252-16.858-46.63-0.456-15.532 2.758-31.25 7.389-44.831 22.272 18.121 50.96 26.697 79.703 23.612l23.008-2.47 12.934 19.186c18.65 27.664 41.327 55.318 67.699 81.692 60.783 60.782 127.663 101.265 185.169 118.766 59.294 18.046 98.368 9.362 117.769-10.040s28.087-58.473 10.039-117.768c-17.502-57.505-57.984-124.383-118.767-185.166-26.372-26.372-54.029-49.050-81.69-67.699l-19.191-12.937 2.475-23.006c3.482-32.422-7.876-64.772-31.027-87.923l-10.355-10.355c-19.319-19.315-50.637-19.315-69.952 0-9.796 9.796-14.618 22.601-14.485 35.494l0.363 34.765-34.556 3.806c-20.111 2.214-34.532 9.148-44.515 19.127-9.983 9.984-16.915 24.405-19.13 44.514l-3.806 34.556-34.764-0.358c-12.894-0.137-25.699 4.689-35.494 14.485-5.976 5.973-10.103 13.099-12.381 20.659l-8.119 14.063c-12.867 22.289-26.558 58.607-25.942 97.401l-7.867-7.867c-49.31-49.308-49.31-129.257 0-178.567 16.634-16.631 36.787-27.657 58.047-33.071 6.609-22.357 18.004-42.978 35.148-60.122s37.766-28.54 60.124-35.149c5.411-21.261 16.436-41.412 33.070-58.044 49.312-49.31 129.257-49.31 178.566 0l10.355 10.351c34.010 34.010 53.137 79.607 54.101 126.929 25.779 18.795 51.119 40.422 75.337 64.636 67.891 67.891 116.083 145.323 137.933 217.114 21.308 70.002 20.015 145.216-29.205 194.439zM231.959 268.971c14.997 14.997 14.997 39.313 0 54.31s-39.312 14.997-54.309 0l-38.403-38.4c-14.997-14.997-14.997-39.313 0-54.31s39.311-14.997 54.309 0l38.402 38.4zM309.615 191.313c14.997 14.993 14.997 39.309 0 54.306s-39.312 14.997-54.309 0l-116.058-116.058c-14.997-14.997-14.997-39.313 0-54.31s39.312-14.997 54.309 0l116.059 116.062zM387.284 113.651c14.997 14.997 14.997 39.309 0 54.306s-39.311 14.997-54.309 0l-38.402-38.4c-14.997-14.997-14.997-39.313 0-54.31s39.312-14.997 54.309 0l38.403 38.404zM704.030 544.026c0 53.022-42.982 96.005-96.004 96.005s-96.004-42.983-96.004-96.005c0-53.022 42.982-96.005 96.004-96.005s96.004 42.982 96.004 96.005zM646.43 544.026c0-21.21-17.195-38.4-38.404-38.4s-38.4 17.19-38.4 38.4c0 21.209 17.19 38.402 38.4 38.402s38.404-17.193 38.404-38.402z" />
<glyph unicode="&#xe90d;" glyph-name="ico_cloudmax" data-tags="ico_cloudmax" d="M490.667 704c-76.77 0-140.010-57.93-148.391-132.461 83.232-17.289 148.694-83.074 165.513-166.479 4.655-23.1-14.891-42.394-38.455-42.394s-41.971 19.627-49.68 41.894c-17.352 50.116-64.967 86.106-120.987 86.106-70.692 0-128-57.306-128-128v-42.667c0-94.255 76.41-170.667 170.667-170.667h341.333c23.565 0 42.667-19.102 42.667-42.667s-19.102-42.667-42.667-42.667h-341.333c-141.385 0-256 114.615-256 256v42.667c0 103.428 73.603 189.665 171.287 209.191 8.803 121.577 110.225 217.476 234.047 217.476 91.191 0 170.236-52.017 209.079-128h46.921c106.039 0 192-85.961 192-192v-362.667c0-23.565-19.102-42.667-42.667-42.667s-42.667 19.102-42.667 42.667v362.667c0 58.91-47.757 106.667-106.667 106.667h-22.289c0.631-7.026 0.956-14.142 0.956-21.333v-106.667c0-23.565-19.102-42.667-42.667-42.667s-42.667 19.102-42.667 42.667v106.667c0 82.475-66.859 149.333-149.333 149.333z" />
<glyph unicode="&#xe90e;" glyph-name="ico_internet_satuan" data-tags="ico_internet_satuan" d="M652.045 759.308c43.87-19.777 82.812-48.546 114.47-83.956 15.539-17.387 29.329-36.375 41.084-56.685h-102.865c-12.437 50.284-30.255 97.57-52.689 140.641zM851.524 482.901c1.169-11.477 1.766-23.121 1.766-34.901 0-13.815-0.823-27.443-2.419-40.828-35.226 25.677-78.613 40.828-125.538 40.828h-0.111c0 28.966-1.702 57.468-4.996 85.333h122.304c4.215-16.367 7.245-33.212 8.994-50.432zM639.846 448c0-6.007-0.081-11.981-0.247-17.929-33.809-14.852-63.031-38.229-84.949-67.405h-165.267c-3.717 27.614-5.669 56.128-5.669 85.333s1.952 57.719 5.669 85.333h244.793c3.716-27.614 5.67-56.128 5.67-85.333zM407.162 277.333h109.105c-2.799-13.786-4.267-28.053-4.267-42.667 0-40.828 11.469-78.976 31.36-111.398-10.227-10.415-20.855-16.602-31.582-16.602-42.688 0-83.814 97.993-104.616 170.667zM511.778 21.333c43.789 0 86.033 6.588 125.798 18.829 26.769-12.096 56.474-18.829 87.757-18.829 117.82 0 213.333 95.514 213.333 213.333 0 31.262-6.724 60.954-18.803 87.706 12.194 39.62 18.769 81.698 18.803 125.308v0.32c0 20.164-1.399 40.004-4.109 59.426-11.422 81.942-46.131 156.433-97.229 216.58-78.306 92.172-195.093 150.66-325.551 150.66-229.207 0-416.224-180.553-426.445-407.121 0.524-0.303 1.062-0.61 1.615-0.917 13.629-7.565 37.818-16.111 83.322-18.167 0.013 10.155 0.47 20.203 1.352 30.127 1.664 18.722 4.841 37.013 9.408 54.746h122.304c-3.296-27.866-4.998-56.367-4.998-85.333s1.703-57.468 4.998-85.333l-122.328 0.094c-36.123 0.644-65.452 4.617-89.698 11.132 35.099-200.316 209.996-352.559 420.468-352.559zM254.927 672.958c32.034 36.509 71.734 66.129 116.589 86.349-22.434-43.071-40.254-90.357-52.692-140.641h-102.863c11.217 19.383 24.287 37.56 38.966 54.292zM244.864 235.055c-10.647 13.312-20.317 27.443-28.902 42.278h102.863c12.437-50.283 30.258-97.57 52.691-140.642-42.978 19.375-81.224 47.381-112.527 81.805-4.88 5.367-9.591 10.889-14.125 16.559zM407.162 618.666c17.924 62.621 61.928 149.333 104.616 149.333 42.692 0 86.694-86.712 104.619-149.333h-209.235zM725.333 64c-94.255 0-170.667 76.412-170.667 170.667s76.412 170.667 170.667 170.667c94.255 0 170.667-76.412 170.667-170.667s-76.412-170.667-170.667-170.667zM638.797 184.913h-13.235c-4.595 0-6.895 2.411-6.895 7.228v120.819c0 4.693 2.3 7.040 6.895 7.040h41.003c8.823 0 16.525-1.839 23.113-5.517 6.583-3.554 11.678-8.627 15.279-15.223 3.605-6.468 5.406-14.080 5.406-22.831 0-9.259-2.112-17.25-6.336-23.974-4.1-6.72-9.818-11.729-17.148-15.027l25.161-43.951c1.37-2.411 1.553-4.442 0.559-6.089-0.87-1.651-2.671-2.475-5.402-2.475h-14.541c-3.849 0-6.647 1.647-8.384 4.945l-24.414 43.383h-13.982v-41.101c0-4.817-2.359-7.228-7.078-7.228zM645.875 295.266v-37.291h19.012c5.466 0 9.877 1.711 13.231 5.137 3.482 3.422 5.218 7.927 5.218 13.508s-1.677 10.082-5.030 13.508c-3.354 3.426-7.829 5.137-13.419 5.137h-19.012zM747.388 149.333h-12.301c-4.599 0-6.895 2.347-6.895 7.040v121.387c0 4.821 2.295 7.232 6.895 7.232h10.995c4.595 0 6.895-2.411 6.895-7.232v-3.042c3.23 4.058 7.394 7.168 12.489 9.323 5.218 2.283 11.059 3.426 17.519 3.426 9.442 0 17.83-2.287 25.161-6.852s13.107-10.782 17.331-18.645c4.348-7.863 6.524-16.87 6.524-27.017 0-10.022-2.112-19.025-6.336-27.017-4.224-7.868-10.065-14.080-17.519-18.645-7.33-4.57-15.782-6.852-25.348-6.852-5.841 0-11.243 0.887-16.213 2.667-4.847 1.899-8.883 4.437-12.113 7.607v-36.339c0-4.693-2.364-7.040-7.083-7.040zM761.737 215.356c4.847-5.073 10.935-7.612 18.266-7.612s13.419 2.539 18.266 7.612c4.843 5.073 7.266 11.605 7.266 19.597 0 7.863-2.423 14.332-7.266 19.405-4.847 5.201-10.935 7.804-18.266 7.804s-13.419-2.603-18.266-7.804c-4.847-5.073-7.266-11.541-7.266-19.405s2.419-14.396 7.266-19.597z" />
<glyph unicode="&#xe90f;" glyph-name="ico_time" data-tags="ico_time" d="M170.667 832c-21.208 0-42.667-21.459-42.667-42.667s21.459-42.667 42.667-42.667h85.333v-68.267c0-39.293 6.182-68.756 21.333-102.4 9.087-4.007 9.183-15.441 21.078-18.517 24.642-6.373 51.596-9.87 74.742-11.694-15.447 16.169-22.741 35.031-31.82 55.811h341.333c-29.628-67.811-91.934-115.2-170.667-115.2-4.454 0-8.875 0.154-13.257 0.452v-0.452h-82.743c-21.086 0-60.325 1.527-100.478 8.559 16.999-18.197 36.497-34.035 57.947-46.959-78.061-47.036-117.469-132.621-117.469-230.4v-68.267h-85.333c-21.208 0-42.667-21.457-42.667-42.667s17.192-42.667 38.4-42.667h691.2c21.21 0 38.4 21.457 38.4 42.667s-17.19 42.667-38.4 42.667h-89.6v68.267c0 97.779-39.407 183.364-117.47 230.4 78.063 47.036 117.47 115.555 117.47 213.333v85.333h85.333c21.21 0 42.667 21.459 42.667 42.667s-21.457 42.667-42.667 42.667h-682.667zM682.667 217.6v-68.267h-341.333v64c0 106.039 64.628 196.267 170.667 196.267s170.667-85.961 170.667-192zM682.667 746.667v-85.333h-341.333v85.333h341.333z" />
<glyph unicode="&#xe910;" glyph-name="ico_stopwatch" data-tags="ico_stopwatch" d="M158.17 673.83l128 128c16.662 16.663 16.662 43.677 0 60.34s-43.677 16.662-60.34 0l-128-128c-16.662-16.663-16.662-43.677 0-60.34s43.677-16.662 60.34 0zM554.667 618.667c0 23.564-19.102 42.667-42.667 42.667s-42.667-19.103-42.667-42.667v-188.339l140.497-140.497c16.661-16.661 43.678-16.661 60.339 0s16.661 43.678 0 60.339l-115.503 115.503v152.994zM737.83 862.17c16.661 16.662 43.678 16.662 60.339 0l128-128c16.661-16.663 16.661-43.677 0-60.34s-43.678-16.662-60.339 0l-128 128c-16.661 16.663-16.661 43.677 0 60.34zM512.196 149.333c164.86 0.107 298.47 133.781 298.47 298.667 0 164.949-133.717 298.667-298.667 298.667s-298.667-133.718-298.667-298.667c0-97.045 46.283-183.279 117.98-237.833-17.339 2.761-34.999 5.824-52.65 9.186-30.509 5.82-60.756 12.493-89.067 19.968-38.967 60.079-61.596 131.738-61.596 208.678 0 212.077 171.923 384 384 384 212.079 0 384-171.923 384-384 0-212.079-171.921-384-384-384-110.48 0-210.063 46.656-280.12 121.34 12.858-2.79 25.832-5.427 38.792-7.898 95.897-18.283 193.315-28.109 241.328-28.109h0.196z" />
<glyph unicode="&#xe911;" glyph-name="ico_video_conference" data-tags="ico_video_conference" d="M256 746.667c0-23.564 19.103-42.667 42.667-42.667h170.667v-85.333h-298.667c-47.128 0-85.333-38.205-85.333-85.333v-247.369c5.73-5.461 14.029-10.581 25.509-15.305 18.571-7.642 40.62-11.844 59.825-13.623v276.297h298.667v-64c0-23.565 19.102-42.667 42.667-42.667s42.667 19.102 42.667 42.667v64h85.333v-341.333h-469.333c-25.37 1.877-56.422 8.055-84.175 19.473-0.386 0.158-0.771 0.32-1.158 0.482v-19.955c0-47.13 38.205-85.333 85.333-85.333h469.333c47.13 0 85.333 38.204 85.333 85.333v22.319l96.32-38.528c56.051-22.421 117.026 18.859 117.026 79.232v215.292c0 60.369-60.975 101.651-117.026 79.229l-96.32-38.53v22.319c0 47.128-38.204 85.333-85.333 85.333h-85.333v85.333c0 47.128-38.204 85.333-85.333 85.333h-170.667c-23.564 0-42.667-19.103-42.667-42.667zM725.333 306.227v112.883l128.013 51.204v-215.292l-128.013 51.204zM277.333 362.667c35.346 0 64 28.655 64 64s-28.654 64-64 64c-35.346 0-64-28.655-64-64s28.654-64 64-64z" />
<glyph unicode="&#xe912;" glyph-name="ico_linkedin" data-tags="ico_linkedin" d="M554.667 64h-170.667v512h170.667v-85.333c36.378 46.283 91.546 73.874 150.4 75.221 105.839-0.588 191.241-86.716 190.933-192.555v-309.333h-170.667v288c-6.827 47.676-47.71 83.046-95.872 82.944-21.065-0.666-40.951-9.89-55.066-25.54-14.114-15.654-21.239-36.382-19.729-57.404v-288zM298.667 64h-170.667v512h170.667v-512zM213.333 661.333c-47.128 0-85.333 38.205-85.333 85.333s38.205 85.333 85.333 85.333c47.128 0 85.333-38.205 85.333-85.333 0-22.632-8.99-44.337-24.994-60.34s-37.708-24.994-60.34-24.994z" />
<glyph unicode="&#xe913;" glyph-name="ico_automotive" data-tags="ico_automotive" d="M260.16 777.92c-11.462-7.449-20.517-18.062-26.069-30.553-0.377-0.849-0.727-1.71-1.048-2.581l-62.171-168.786h-42.872c-23.564 0-42.667-19.102-42.667-42.667s19.103-42.667 42.667-42.667h11.44l-8.811-23.919c-1.739-4.723-2.63-9.715-2.63-14.75v-68.954c6.263-3.102 13.707-5.952 22.13-8.478 20.677-6.204 44.155-9.562 63.203-11.012v80.836l17.045 46.276h563.243l17.045-46.276v-124.39h-597.333v0.781c-22.11 1.498-50.127 5.316-75.463 12.919-3.287 0.986-6.586 2.052-9.87 3.209v-59.575c0-23.565 19.103-42.667 42.667-42.667v-51.733c0-17.421 5.4-35.584 17.016-50.249 11.813-14.916 30.254-26.018 52.265-26.018h74.772c22.010 0 40.452 11.102 52.265 26.018 11.616 14.665 17.016 32.828 17.016 50.249v51.733h256v-51.733c0-17.421 5.402-35.584 17.015-50.249 11.814-14.916 30.255-26.018 52.267-26.018h74.769c22.012 0 40.452 11.102 52.267 26.018 11.614 14.665 17.015 32.828 17.015 50.249v51.733c23.565 0 42.667 19.102 42.667 42.667v174.665c0 5.035-0.892 10.027-2.628 14.75l-8.811 23.919h11.439c23.565 0 42.667 19.102 42.667 42.667s-19.102 42.667-42.667 42.667h-42.871l-62.17 168.786c-0.324 0.872-0.674 1.732-1.050 2.581-5.551 12.491-14.609 23.104-26.069 30.553s-24.836 11.413-38.507 11.413h-426.667c-13.67 0-27.046-3.965-38.507-11.413zM715.042 704l47.147-128h-500.378l47.148 128h406.084zM725.333 234.667h42.667v-42.667h-42.667v42.667zM256 234.667h42.667v-42.667h-42.667v42.667zM298.667 448c-23.564 0-42.667-19.102-42.667-42.667s19.103-42.667 42.667-42.667h56c23.564 0 42.667 19.102 42.667 42.667s-19.103 42.667-42.667 42.667h-56zM640 405.333c0 23.565 19.102 42.667 42.667 42.667h56c23.565 0 42.667-19.102 42.667-42.667s-19.102-42.667-42.667-42.667h-56c-23.565 0-42.667 19.102-42.667 42.667z" />
<glyph unicode="&#xe914;" glyph-name="ico_camera" data-tags="ico_camera" d="M426.667 789.333h170.667c70.694 0 128-57.308 128-128h128c47.13 0 85.333-38.205 85.333-85.333v-384c0-47.13-38.204-85.333-85.333-85.333h-682.667c-47.128 0-85.333 38.204-85.333 85.333v21.611c27.208-13.594 57.27-21.611 85.333-21.611h682.667v384h-682.667v-320c-24.132 0-54.896 10.483-79.541 28.855-2.009 1.498-3.939 3.017-5.792 4.557v286.588c0 47.128 38.205 85.333 85.333 85.333h128c0 70.692 57.308 128 128 128zM426.667 704c-23.564 0-42.667-19.103-42.667-42.667h256c0 23.564-19.102 42.667-42.667 42.667h-170.667zM810.667 490.667c0-23.565-19.102-42.667-42.667-42.667s-42.667 19.102-42.667 42.667c0 23.565 19.102 42.667 42.667 42.667s42.667-19.102 42.667-42.667zM490.667 320c-35.345 0-64 28.655-64 64s28.655 64 64 64c35.345 0 64-28.655 64-64s-28.655-64-64-64zM490.667 277.333c58.91 0 106.667 47.757 106.667 106.667s-47.757 106.667-106.667 106.667c-58.91 0-106.667-47.757-106.667-106.667s47.757-106.667 106.667-106.667z" />
<glyph unicode="&#xe915;" glyph-name="ico_contact" data-tags="ico_contact" d="M341.333 832c-70.692 0-128-57.308-128-128v-42.667h-42.667c-23.564 0-42.667-19.103-42.667-42.667s19.103-42.667 42.667-42.667h42.667v-85.333h-42.667c-23.564 0-42.667-19.102-42.667-42.667s19.103-42.667 42.667-42.667h42.667v-85.333h-42.667c-23.564 0-42.667-19.102-42.667-42.667s19.103-42.667 42.667-42.667h42.667v-42.667c0-70.694 57.308-128 128-128h426.667c60.382 0 110.997 41.809 124.48 98.061-2.146-0.768-4.297-1.493-6.451-2.18-37.837-12.062-76.301-11.294-103.748-10.748-5.175 0.102-9.967 0.201-14.281 0.201h-426.667c-23.564 0-42.667 19.102-42.667 42.667v512c0 23.564 19.103 42.667 42.667 42.667h426.667c23.565 0 42.667-19.103 42.667-42.667v-469.645c17.348 0.226 33.075 1.609 49.438 6.827 11.204 3.571 23.292 9.284 35.895 19.174v443.644c0 70.692-57.306 128-128 128h-426.667zM554.667 618.667c-47.13 0-85.333-38.205-85.333-85.333 0-47.13 38.204-85.333 85.333-85.333s85.333 38.204 85.333 85.333c0 47.128-38.204 85.333-85.333 85.333zM512 405.333c-70.694 0-128-57.306-128-128h341.333c0 70.694-57.306 128-128 128h-85.333z" />
<glyph unicode="&#xe916;" glyph-name="ico_customer_service" data-tags="ico_customer_service" d="M274.011 544h7.589v-172.8c0-1.924 0.013-4.015 0.027-6.242 0.116-18.509 0.294-46.677-6.499-70.933-2.071-7.398-4.912-14.946-8.882-22.050 5.342-1.946 10.79-3.725 16.334-5.338 40.734-11.823 75.82 23.748 75.82 66.163v230.4c0 36-25.275 67.069-57.826 68.414 33.287 72.914 106.839 123.586 192.226 123.586h38.4c85.389 0 158.938-50.672 192.226-123.586-32.55-1.345-57.826-32.414-57.826-68.414v-230.4c0-28.42 15.753-53.769 38.4-63.842v-12.958c0-21.21-17.19-38.4-38.4-38.4h-19.191c-17.515 23.317-45.402 38.4-76.809 38.4h-115.2c-53.019 0-96-42.982-96-96s42.981-96 96-96h115.2c46.443 0 85.184 32.981 94.080 76.8h1.92c63.625 0 115.2 51.575 115.2 115.2v25.685c68.868 33.199 115.2 95.249 115.2 166.315 0 58.603-31.509 111.076-81.178 146.293-23.787 135.080-141.722 237.707-283.622 237.707h-38.4c-141.902 0-259.834-102.627-283.624-237.707-49.669-35.217-81.176-87.691-81.176-146.293 0-66.803 40.94-125.636 103.054-160.030 2.819 4.22 5.208 9.66 7.098 16.405 5.226 18.667 5.14 41.101 5.066 60.309-0.009 2.219-0.017 4.395-0.017 6.515v1.097c-25.625 22.106-38.4 50.082-38.4 75.703 0 34.389 23.011 73.011 69.211 96zM569.6 179.2c10.603 0 19.2-8.597 19.2-19.2s-8.597-19.2-19.2-19.2h-115.2c-10.603 0-19.2 8.597-19.2 19.2s8.597 19.2 19.2 19.2h115.2zM742.4 348.459v195.541h7.59c46.199-22.989 69.21-61.611 69.21-96 0-36.224-25.532-77.141-76.8-99.541zM281.6 332.834c-0.038-0.188 0-0.175 0 0v0z" />
<glyph unicode="&#xe917;" glyph-name="ico_domestic" data-tags="ico_domestic" d="M460.634 808.697l-292.586-342.879c-16.4-19.217-27.443-40.107-33.709-61.495 14.995-27.584 36.328-41.655 78.995-41.655 2.077 14.443 12.232 37.013 23.201 49.865l253.381 296.934v-226.761c-2.961 2.24-6.016 4.335-9.143 6.276-29.175 18.112-67.695 24.602-100.552 9.472-49.117-22.618-69.841-79.514-66.669-123.657 0.29-4.032 0.784-8.094 1.504-12.13l4.946-18.193c4.477-11.878 11.38-22.852 21.309-31.505 19.308-16.823 45.955-21.367 75.852-12.617l2.471 0.725 2.229 1.25c33.855 18.961 44.867 49.067 40.737 74.411-1.963 12.066-7.526 23.808-16.585 32.154-9.361 8.627-24.224 14.652-40.404 8.823-11.413-4.109-17.176-16.273-12.872-27.17 3.719-9.417 13.736-14.805 23.753-13.449 0.897-1.395 1.944-3.661 2.462-6.839 1.3-7.983-1.090-20.318-17.265-30.272-16.439-4.224-25.316-0.469-30.605 4.139-6.778 5.905-12.298 17.331-13.465 33.562-2.411 33.545 14.389 70.161 41.786 82.778 15.773 7.262 37.804 5.252 57.289-6.844 18.995-11.793 32.755-31.595 33.22-55.821v-249.442h-110.431v126.537h-74.463c-56.795 0-116.019 10.961-168.286 32.815 20.899-61.483 77.795-111.287 154.405-116.689v-63.753c0-34.94 29.665-63.266 66.258-63.266h309.204c36.591 0 66.257 28.326 66.257 63.266v63.753c140.015 9.869 214.178 168.060 123.093 274.799l-292.587 342.879c-26.513 31.071-76.22 31.071-102.733 0zM644.514 148.356h-110.426v249.442c0.465 24.226 14.225 44.028 33.22 55.821 19.486 12.096 41.515 14.106 57.289 6.844 27.396-12.617 44.198-49.233 41.783-82.778-1.165-16.23-6.686-27.657-13.461-33.562-5.291-4.608-14.17-8.363-30.609-4.139-16.171 9.954-18.564 22.289-17.263 30.272 0.516 3.179 1.566 5.444 2.462 6.839 10.018-1.357 20.036 4.032 23.753 13.449 4.305 10.897-1.459 23.061-12.873 27.17-16.179 5.828-31.044-0.196-40.405-8.823-9.058-8.346-14.618-20.087-16.585-32.154-4.126-25.344 6.882-55.45 40.738-74.411l2.231-1.25 2.47-0.725c29.897-8.751 56.542-4.207 75.853 12.617 18.086 15.757 26.133 39.219 27.759 61.828 3.174 44.143-17.553 101.039-66.671 123.657-32.853 15.13-71.373 8.64-100.553-9.472-3.127-1.941-6.178-4.036-9.139-6.276v226.758l253.376-296.932c47.027-55.108 5.961-137.638-68.484-137.638h-74.466v-126.537z" />
<glyph unicode="&#xe918;" glyph-name="ico_envelope" data-tags="ico_envelope" d="M853.333 651.662l-256.303-227.824c-48.499-43.11-121.579-43.11-170.078 0l-256.286 227.81v-374.314c-15.279 0-38.822 4.011-59.755 17.331-8.835 5.619-17.72 13.201-25.578 23.684v385.651c0 47.128 38.205 85.333 85.333 85.333h682.667c47.13 0 85.333-38.205 85.333-85.333v-512c0-47.13-38.204-85.333-85.333-85.333h-682.667c-47.128 0-85.333 38.204-85.333 85.333v19.477c31.427-14.967 62.801-19.477 85.333-19.477h682.667v459.662zM240.214 704l243.43-216.384c16.166-14.37 40.529-14.37 56.695 0l243.43 216.384h-543.556z" />
<glyph unicode="&#xe919;" glyph-name="ico_envelope_open" data-tags="ico_envelope_open" d="M853.333 155.908h-682.67c-32.916 0-61.232 5.009-85.33 14.848v-14.848c0-47.13 38.205-85.333 85.333-85.333h682.667c47.13 0 85.333 38.204 85.333 85.333v454.225c0 34.893-21.244 66.271-53.641 79.23l-341.333 136.533c-20.343 8.138-43.042 8.138-63.386 0l-341.332-136.533c-32.398-12.959-53.641-44.337-53.641-79.23v-333.367c2.552-3.947 5.295-7.505 8.279-10.705 11.822-12.689 32.315-24.819 77.054-24.819v307.921l296.836-181.397c27.315-16.695 61.675-16.695 88.994 0l296.836 181.399v-393.256zM512 746.667l302.724-121.090-302.724-185.001-302.727 185 302.727 121.091z" />
<glyph unicode="&#xe91a;" glyph-name="ico_facebook" data-tags="ico_facebook" d="M85.417 445.286c0.050-211.187 152.679-391.002 359.981-424.098v300.032h-108.247v124.066h108.375v94.445c-4.847 44.752 10.347 89.353 41.455 121.708s74.91 49.108 119.526 45.716c32.021-0.52 63.962-3.39 95.573-8.586v-105.563h-53.931c-18.569 2.447-37.235-3.723-50.743-16.771s-20.395-31.562-18.718-50.326v-80.623h118.229l-18.901-124.109h-99.328v-299.989c224.188 35.648 381.397 241.66 357.739 468.783-23.663 227.128-219.917 395.859-446.579 383.957-226.666-11.902-404.395-200.271-404.431-428.642z" />
<glyph unicode="&#xe91b;" glyph-name="ico_instagram" data-tags="ico_instagram" d="M511.872 63.791c-104.904 0-117.27 0.555-158.207 2.342-31.924 1.050-63.434 7.531-93.175 19.162-51.457 19.998-92.145 60.642-112.151 112.034-11.202 29.803-17.244 61.295-17.868 93.124-2.388 40.794-2.388 54.165-2.388 158.106 0 105.048 0.555 117.311 2.388 157.977 0.637 31.786 6.679 63.233 17.868 92.998 19.984 51.459 60.739 92.139 112.279 112.074 29.792 11.233 61.293 17.282 93.132 17.884 40.724 2.3 54.114 2.3 158.122 2.3 105.754 0 117.905-0.554 158.204-2.3 31.923-0.607 63.505-6.656 93.389-17.884 51.524-19.958 92.271-60.631 112.277-112.074 11.392-30.199 17.463-62.137 17.954-94.403 2.389-40.793 2.389-54.121 2.389-158.022 0-103.898-0.597-117.521-2.389-157.85-0.636-31.859-6.69-63.377-17.911-93.21-20.058-51.426-60.804-92.083-112.32-112.073-29.841-11.166-61.359-17.199-93.218-17.843-40.725-2.342-54.071-2.342-158.374-2.342zM510.421 764.385c-104.306 0-115.137-0.511-155.861-2.342-24.307-0.322-48.379-4.801-71.171-13.243-33.656-12.86-60.288-39.345-73.303-72.9-8.52-23.006-13.006-47.307-13.262-71.835-2.26-41.261-2.26-52.077-2.26-155.507 0-102.195 0.384-114.586 2.26-155.593 0.381-24.282 4.865-48.324 13.262-71.113 13.035-33.532 39.662-59.998 73.303-72.858 22.776-8.499 46.858-12.979 71.171-13.244 41.279-2.381 52.153-2.381 155.861-2.381 104.602 0 115.435 0.508 155.814 2.381 24.324 0.299 48.418 4.779 71.215 13.244 33.455 12.971 59.913 39.377 72.922 72.772 8.503 23.027 12.988 47.339 13.261 71.876h0.469c1.835 40.708 1.835 51.567 1.835 155.593 0 104.029-0.469 114.972-2.304 155.637-0.384 24.253-4.868 48.266-13.261 71.026-12.979 33.445-39.441 59.9-72.922 72.9-22.793 8.485-46.886 12.965-71.215 13.243-41.233 2.342-52.023 2.342-155.814 2.342zM511.872 251.874c-79.744-0.051-151.665 47.872-182.221 121.425-30.556 73.549-13.729 158.238 42.633 214.566 56.363 56.33 141.158 73.206 214.839 42.758 73.685-30.449 121.741-102.222 121.758-181.85-0.119-108.629-88.226-196.685-197.009-196.898zM511.872 576.601c-70.656 0-127.931-57.194-127.931-127.743 0-70.554 57.275-127.744 127.931-127.744 70.652 0 127.927 57.19 127.927 127.744-0.166 70.481-57.344 127.579-127.927 127.743zM716.557 606.961c-25.357 0.094-45.845 20.67-45.798 45.988s20.612 45.818 45.969 45.818c25.353 0 45.922-20.5 45.969-45.818 0.013-12.215-4.851-23.932-13.508-32.561s-20.399-13.461-32.631-13.427z" />
<glyph unicode="&#xe91c;" glyph-name="ico_location" data-tags="ico_location" d="M615.735 706.944c56.141-50.383 67.964-133.818 28.032-197.815l-109.252-175.083c-10.010-20.655-22.976-44.117-39.398-65.404-10.974-14.221-24.277-28.471-40.111-40.533l19.913-31.91c17.114-27.426 57.050-27.426 74.163 0l167.078 267.755c61.875 99.158 43.558 228.436-43.426 306.499-91.443 82.063-230.020 82.063-321.465 0-86.985-78.064-105.303-207.341-43.43-306.499l101.655-162.91c6.13 5.461 12.131 12.041 18.055 19.721 13.833 17.929 24.806 38.771 33.847 58.295l-81.163 130.069c-39.933 63.997-28.111 147.433 28.029 197.815 59.017 52.964 148.455 52.964 207.471 0zM512 558.703c23.565 0 42.667 19.103 42.667 42.667s-19.102 42.667-42.667 42.667c-23.565 0-42.667-19.102-42.667-42.667s19.102-42.667 42.667-42.667zM512 516.036c47.13 0 85.333 38.205 85.333 85.333s-38.204 85.333-85.333 85.333c-47.13 0-85.333-38.205-85.333-85.333s38.204-85.333 85.333-85.333zM168.065 311.219c5.983 29.914 32.25 51.447 62.757 51.447h67.843c23.564 0 42.667-19.102 42.667-42.667s-19.102-42.667-42.667-42.667h-50.354l-25.6-128h578.577l-25.6 128h-50.355c-23.565 0-42.667 19.102-42.667 42.667s19.102 42.667 42.667 42.667h67.844c30.507 0 56.772-21.534 62.758-51.447l29.030-145.152c10.56-52.804-29.828-102.067-83.678-102.067h-578.577c-53.85 0-94.237 49.263-83.677 102.067l29.030 145.152z" />
<glyph unicode="&#xe91d;" glyph-name="ico_vespa" data-tags="ico_vespa" d="M170.667 746.667c0 47.128 38.205 85.333 85.333 85.333h64c23.564 0 42.667-19.103 42.667-42.667s-19.103-42.667-42.667-42.667h-64v-275.831l226.253-150.835h72.414v256h170.667c89.788 0 166.618-55.471 198.097-134.007-24.196-24.649-51.84-32.73-77.841-35.375-17.933 49.045-65.007 84.049-120.256 84.049h-85.333v-170.667h213.333c21.333 0 64.482 15.616 85.333 27.17v-91.17l-42.667-21.333c0-70.694-57.306-128-128-128s-128 57.306-128 128h-183.586l-285.747 190.498v321.502zM725.333 234.667c0-23.565 19.102-42.667 42.667-42.667s42.667 19.102 42.667 42.667h-85.333zM554.667 618.667c0 47.128 38.204 85.333 85.333 85.333h42.667c47.13 0 85.333-38.205 85.333-85.333h-213.333zM213.333 192c-23.564 0-42.667 19.102-42.667 42.667s19.103 42.667 42.667 42.667c23.564 0 42.667-19.102 42.667-42.667s-19.103-42.667-42.667-42.667zM213.333 106.667c70.692 0 128 57.306 128 128s-57.308 128-128 128c-70.692 0-128-57.306-128-128s57.308-128 128-128z" />
<glyph unicode="&#xe91e;" glyph-name="ico_news" data-tags="ico_news" d="M469.333 618.667c-23.565 0-42.667-19.103-42.667-42.667s19.102-42.667 42.667-42.667h256c23.565 0 42.667 19.103 42.667 42.667s-19.102 42.667-42.667 42.667h-256zM426.667 405.333c0 23.565 19.102 42.667 42.667 42.667h256c23.565 0 42.667-19.102 42.667-42.667s-19.102-42.667-42.667-42.667h-256c-23.565 0-42.667 19.102-42.667 42.667zM298.667 192c0-23.565-19.103-42.667-42.667-42.667-45.28 0-91.136 13.018-127.902 37.619 2.651-68.352 58.9-122.953 127.902-122.953h512c70.694 0 128 57.306 128 128v512c0 70.692-57.306 128-128 128h-341.333c-70.692 0-128-57.308-128-128v-512zM384 704c0 23.564 19.103 42.667 42.667 42.667h341.333c23.565 0 42.667-19.103 42.667-42.667v-512c0-23.565-19.102-42.667-42.667-42.667h-391.284c4.717 13.346 7.284 27.708 7.284 42.667v512zM128 277.824c6.952-12.727 17.103-23.983 29.867-33.557 15.596-11.695 34.749-20.514 55.467-25.681v442.748c0 23.564-19.103 42.667-42.667 42.667s-42.667-19.103-42.667-42.667v-383.509z" />
<glyph unicode="&#xe91f;" glyph-name="ico_ringtone" data-tags="ico_ringtone" d="M768 789.333h-512v-618.133c-23.548 1.276-45.294 5.107-62.010 14.225-9.855 5.376-17.674 12.454-23.323 22.157v581.751c0 47.128 38.205 85.333 85.333 85.333h512c47.13 0 85.333-38.205 85.333-85.333v-682.667c0-47.13-38.204-85.333-85.333-85.333h-512c-47.128 0-85.333 38.204-85.333 85.333v18.85c27.65-13.077 58.637-17.225 85.333-18.415v-0.435h512v682.667zM538.338 700.752c15.945 6.604 34.295 2.954 46.498-9.249l128-128c16.661-16.663 16.661-43.678 0-60.34s-43.678-16.661-60.339 0l-55.164 55.163v-216.994c0-2.658-0.243-5.261-0.708-7.787 0.469-4.45 0.708-8.969 0.708-13.547 0-70.694-57.306-128-128-128-70.692 0-128 57.306-128 128s57.308 128 128 128c14.959 0 29.321-2.569 42.667-7.283v220.617c0 17.257 10.394 32.815 26.338 39.419zM469.333 277.333c23.565 0 42.667 19.102 42.667 42.667s-19.102 42.667-42.667 42.667c-23.565 0-42.667-19.102-42.667-42.667s19.102-42.667 42.667-42.667z" />
<glyph unicode="&#xe920;" glyph-name="ico_share" data-tags="ico_share" d="M819.2 678.4c0 42.415-34.385 76.8-76.8 76.8s-76.8-34.385-76.8-76.8c0-42.415 34.385-76.8 76.8-76.8s76.8 34.385 76.8 76.8zM896 678.4c0-84.831-68.77-153.6-153.6-153.6-42.615 0-81.178 17.356-109.005 45.384l-198.925-107.114c0.482-4.958 0.73-9.984 0.73-15.070 0-5.82-0.324-11.563-0.956-17.212l184.034-122.688c27.938 38.251 73.126 63.1 124.122 63.1 84.83 0 153.6-68.77 153.6-153.6s-68.77-153.6-153.6-153.6c-84.83 0-153.6 68.77-153.6 153.6 0 5.82 0.324 11.563 0.956 17.212l-176.24 117.491c-13.228 19.49-26.48 36.284-40.78 49.583-6.557 6.101-13.341 11.477-20.423 16.098 3.919 9.22 6.087 19.366 6.087 30.016 0 42.415-34.385 76.8-76.8 76.8s-76.8-34.385-76.8-76.8c0-42.415 34.385-76.8 76.8-76.8 9.517 0 18.63 1.732 27.040 4.894 8.718-3.426 16.718-8.802 24.864-16.38 10.405-9.681 20.834-22.754 32.536-40.043-24.228-15.974-53.248-25.271-84.44-25.271-84.831 0-153.6 68.77-153.6 153.6s68.769 153.6 153.6 153.6c52.167 0 98.259-26.006 126.021-65.76l186.96 100.671c-3.767 13.316-5.781 27.367-5.781 41.889 0 84.831 68.77 153.6 153.6 153.6s153.6-68.769 153.6-153.6zM742.4 140.8c42.415 0 76.8 34.385 76.8 76.8s-34.385 76.8-76.8 76.8c-42.415 0-76.8-34.385-76.8-76.8s34.385-76.8 76.8-76.8z" />
<glyph unicode="&#xe921;" glyph-name="ico_money" data-tags="ico_money" d="M213.333 789.333h597.333c70.694 0 128-57.308 128-128v-426.667c0-70.694-57.306-128-128-128h-597.333c-61.367 0-112.648 43.187-125.109 100.826 3.903-1.446 7.843-2.752 11.802-3.934 52.969-15.812 110.204-11.558 164.901-11.558-17.318 42.782-51.479 76.945-94.261 94.259v-50.812c-19.825 1.037-39.808 3.435-58.436 8.994-9.522 2.842-18.55 6.468-26.897 11.132v405.76c0 70.693 57.308 128 128 128zM213.333 704c-23.564 0-42.667-19.102-42.667-42.667v-51.594c42.782 17.318 76.943 51.479 94.261 94.261h-51.594zM310.234 704c-20.839-66.348-73.219-118.728-139.567-139.567v-232.866c66.348-20.838 118.728-73.22 139.567-139.567h403.533c20.838 66.347 73.22 118.729 139.567 139.567v232.866c-66.347 20.839-118.729 73.219-139.567 139.567h-403.533zM853.333 661.333c0 23.564-19.102 42.667-42.667 42.667h-51.593c17.314-42.782 51.477-76.943 94.259-94.261v51.594zM810.667 192c23.565 0 42.667 19.102 42.667 42.667v51.593c-2.675-1.079-5.312-2.227-7.919-3.443-39.066-18.176-70.106-50.709-86.34-90.816h51.593zM353.746 339.597h23.818c8.499 0 12.748 4.22 12.748 12.655v71.919h25.161l43.945-75.917c3.132-5.773 8.166-8.657 15.1-8.657h26.163c4.924 0 8.166 1.442 9.732 4.331 1.788 2.884 1.451 6.434-1.007 10.654l-45.291 76.915c13.197 5.769 23.484 14.537 30.865 26.304 7.603 11.763 11.405 25.745 11.405 41.95 0 15.317-3.243 28.638-9.728 39.957-6.485 11.543-15.654 20.422-27.507 26.637-11.857 6.437-25.719 9.656-41.6 9.656h-73.804c-8.275 0-12.413-4.107-12.413-12.32v-211.429c0-8.435 4.137-12.655 12.413-12.655zM390.312 467.456v65.259h34.218c10.064 0 18.115-2.995 24.152-8.99 6.042-5.995 9.058-13.875 9.058-23.642s-3.132-17.647-9.391-23.637c-6.042-5.995-13.978-8.99-23.82-8.99h-34.218zM550.886 277.333h22.144c8.499 0 12.745 4.105 12.745 12.318v63.599c5.815-5.551 13.086-9.993 21.807-13.321 8.947-3.106 18.675-4.659 29.188-4.659 17.22 0 32.427 3.994 45.623 11.985 13.419 7.991 23.932 18.867 31.535 32.631 7.603 13.982 11.405 29.743 11.405 47.279 0 17.758-3.913 33.519-11.742 47.279-7.603 13.764-18.005 24.64-31.198 32.631-13.197 7.991-28.292 11.989-45.291 11.989-11.627 0-22.14-2.001-31.535-5.995-9.169-3.776-16.661-9.212-22.477-16.316v5.329c0 8.435-4.134 12.651-12.412 12.651h-19.793c-8.273 0-12.412-4.215-12.412-12.651v-212.433c0-8.213 4.139-12.318 12.412-12.318zM631.735 379.554c-13.193 0-24.154 4.437-32.875 13.316-8.721 9.101-13.086 20.531-13.086 34.295s4.365 25.084 13.086 33.963c8.721 9.101 19.682 13.649 32.875 13.649 13.197 0 24.154-4.548 32.879-13.649 8.721-8.879 13.082-20.198 13.082-33.963 0-13.986-4.361-25.417-13.082-34.295-8.725-8.879-19.682-13.316-32.879-13.316z" />
<glyph unicode="&#xe922;" glyph-name="ico_tag" data-tags="ico_tag" d="M248.105 496.282l245.498 245.496c3.132 3.13 7.377 4.889 11.802 4.889h305.263v-305.263c0-4.425-1.758-8.67-4.89-11.802l-245.495-245.495c-2.116-2.116-4.292-4.139-6.524-6.059l-42.564-42.159c-19.908-19.285-58.359-46.165-104.222-59.789 72.085-25.993 155.878-10.108 213.649 47.663l245.495 245.5c19.136 19.132 29.884 45.082 29.884 72.141v339.584c0 28.174-22.839 51.013-51.012 51.013h-339.584c-27.059 0-53.009-10.749-72.141-29.882l-245.498-245.497c-79.686-79.688-79.686-208.883 0-288.571l132.037-132.036c20.259-6.515 41.274-5.606 61.868-0.491 19.012 4.719 36.89 12.949 51.81 21.786-14.974 5.786-29.010 14.716-41.091 26.799l-144.285 144.282c-46.362 46.362-46.362 121.532 0 167.893zM725.333 533.333c0 70.692-57.306 128-128 128s-128-57.308-128-128c0-70.694 57.306-128 128-128s128 57.306 128 128zM640 533.333c0-23.565-19.102-42.667-42.667-42.667s-42.667 19.102-42.667 42.667c0 23.564 19.102 42.667 42.667 42.667s42.667-19.103 42.667-42.667z" />
<glyph unicode="&#xe923;" glyph-name="ico_telegram" data-tags="ico_telegram" d="M143.996 483.2c229.064 100.355 381.811 166.514 458.236 198.479 218.214 91.266 263.556 107.12 293.111 107.649 6.498 0.11 21.035-1.51 30.447-9.192 7.949-6.486 10.138-15.248 11.183-21.397s2.351-20.158 1.314-31.104c-11.823-124.936-62.993-428.123-89.024-568.053-11.012-59.213-32.7-79.066-53.696-81.007-45.632-4.224-80.282 30.323-124.476 59.456-69.158 45.581-108.228 73.958-175.356 118.443-77.58 51.405-27.29 79.659 16.922 125.837 11.571 12.083 212.621 195.967 216.512 212.649 0.486 2.086 0.939 9.863-3.657 13.969s-11.375 2.702-16.269 1.585c-6.933-1.583-117.414-75.011-331.436-220.284-31.359-21.653-59.763-32.201-85.212-31.65-28.055 0.61-82.023 15.953-122.143 29.065-49.208 16.085-88.318 24.589-84.912 51.904 1.774 14.229 21.259 28.779 58.455 43.652z" />
<glyph unicode="&#xe924;" glyph-name="ico_ticket" data-tags="ico_ticket" d="M170.667 704v-108.166c51.012-29.509 85.333-84.662 85.333-147.834s-34.321-118.327-85.333-147.836c-12.168-8.836-48.785-20.070-60.919-14.003-6.917 3.46-12.204 8.043-16.137 14.852-4.096 7.087-8.277 19.315-8.277 40.32v21.333c47.128 0 85.333 38.204 85.333 85.333s-38.205 85.333-85.333 85.333v170.667c0 47.128 38.205 85.333 85.333 85.333h682.667c47.13 0 85.333-38.205 85.333-85.333v-512c0-47.13-38.204-85.333-85.333-85.333h-682.667c-47.128 0-85.333 38.204-85.333 85.333v11.878c32.014-11.938 65.3-11.9 83.24-11.878h172.76v42.667c0 23.565 19.103 42.667 42.667 42.667s42.667-19.102 42.667-42.667v-42.667h426.667v512h-426.667v-42.667c0-23.564-19.102-42.667-42.667-42.667s-42.667 19.103-42.667 42.667v42.667h-170.667zM384 533.333c-23.564 0-42.667-19.102-42.667-42.667v-85.333c0-23.565 19.103-42.667 42.667-42.667s42.667 19.102 42.667 42.667v85.333c0 23.565-19.102 42.667-42.667 42.667z" />
<glyph unicode="&#xe925;" glyph-name="ico_twitter" data-tags="ico_twitter" d="M800.508 681.691c34.743 21.531 60.736 55.435 73.131 95.38-32.644-20.081-68.361-34.226-105.604-41.824-51.639 56.628-133.453 70.409-199.727 33.642s-100.604-114.98-83.802-190.935c-133.719 6.96-258.301 72.442-342.746 180.154-44.070-78.804-21.55-179.542 51.466-230.214-26.403 0.879-52.221 8.291-75.3 21.615 0-0.723 0-1.446 0-2.169 0.015-82.089 55.821-152.797 133.431-169.065-24.49-6.908-50.179-7.923-75.106-2.974 21.827-70.199 84.235-118.293 155.367-119.727-58.913-47.936-131.669-73.933-206.561-73.805-13.275-0.021-26.539 0.772-39.724 2.372 76.052-50.667 164.566-77.559 254.966-77.461 125.77-0.896 246.636 50.505 335.567 142.707s138.5 217.51 137.626 347.892c0 7.473-0.166 14.906-0.503 22.298 32.572 24.403 60.681 54.635 83.012 89.273-30.345-13.944-62.532-23.098-95.492-27.159z" />
<glyph unicode="&#xe926;" glyph-name="ico_youtube" data-tags="ico_youtube" d="M512.529 149.333h-0.853c-2.641 0-267.086 0.512-333.804 18.628-36.688 9.886-65.339 38.549-75.202 75.243-11.997 67.682-17.791 136.316-17.309 205.052-0.31 68.847 5.641 137.58 17.777 205.349 10.134 36.725 38.659 65.524 75.287 76.009 64.885 17.052 322.037 17.052 332.951 17.052h0.896c2.684 0 267.81-0.512 333.845-18.63 36.612-9.933 65.203-38.542 75.119-75.157 12.378-67.933 18.189-136.899 17.348-205.947 0.299-68.762-5.666-137.412-17.818-205.094-9.993-36.646-38.66-65.25-75.332-75.153-64.798-17.182-321.993-17.353-332.907-17.353zM427.264 575.933l-0.213-255.779 222.195 127.889-221.982 127.89z" />
<glyph unicode="&#xe927;" glyph-name="ico_reload" data-tags="ico_reload" d="M526.878 785.761c-75.537 11.070-152.394-3.761-218.915-42.064-66.488-38.284-118.899-97.837-149.664-169.397-30.757-71.541-38.327-151.439-21.656-227.744 16.673-76.318 56.768-145.22 114.585-196.181 57.847-50.982 130.287-81.203 206.454-85.769 76.177-4.565 151.552 16.798 214.75 60.612 63.164 43.793 110.647 107.554 135.637 181.444 7.552 22.319-4.425 46.537-26.743 54.089-22.323 7.548-46.541-4.425-54.089-26.748-19.277-56.981-55.693-105.566-103.424-138.658-47.701-33.067-104.201-48.964-161.024-45.559-56.826 3.405-111.291 25.963-155.138 64.61-43.876 38.669-74.755 91.392-87.641 150.37-12.888 58.995-7.002 120.734 16.685 175.83 23.679 55.078 63.751 100.304 113.85 129.151 50.065 28.828 107.586 39.844 163.961 31.582 56.393-8.264 108.966-35.43 149.687-77.773 0.299-0.311 0.602-0.617 0.909-0.919l83.631-81.846h-100.211c-23.565 0-42.667-19.102-42.667-42.667s19.102-42.667 42.667-42.667h204.813c23.565 0 42.667 19.102 42.667 42.667v213.333c0 23.564-19.102 42.667-42.667 42.667s-42.667-19.103-42.667-42.667v-111.879l-85.431 83.608c-53.495 55.417-123.051 91.537-198.357 102.574z" />
<glyph unicode="&#xe928;" glyph-name="ico_cashback" data-tags="ico_cashback" d="M463.083 560.915c8.333 8.331 8.333 21.839 0 30.17s-21.837 8.332-30.17 0l-79.085-79.085 79.085-79.087c8.333-8.329 21.837-8.329 30.17 0 8.333 8.333 8.333 21.841 0 30.174l-27.58 27.58h119.164c35.345 0 64-28.655 64-64s-28.655-64-64-64h-170.667c-11.782 0-21.333-9.553-21.333-21.333s9.551-21.333 21.333-21.333h170.667c58.91 0 106.667 47.757 106.667 106.667s-47.757 106.667-106.667 106.667h-119.164l27.58 27.582zM213.333 789.333h597.333c70.694 0 128-57.308 128-128v-426.667c0-70.694-57.306-128-128-128h-597.333c-61.367 0-112.648 43.187-125.109 100.826 3.903-1.446 7.843-2.752 11.802-3.934 38.734-11.563 80.791-11.563 112.143-11.558h52.758c-17.318 42.782-51.479 76.945-94.261 94.259v-50.812c-19.825 1.037-39.808 3.435-58.436 8.994-9.522 2.842-18.55 6.468-26.897 11.132v405.76c0 70.693 57.308 128 128 128zM213.333 704c-23.564 0-42.667-19.102-42.667-42.667v-51.594c42.782 17.318 76.943 51.479 94.261 94.261h-51.594zM310.234 704c-20.839-66.348-73.219-118.728-139.567-139.567v-232.866c66.348-20.838 118.728-73.22 139.567-139.567h403.533c20.838 66.347 73.22 118.729 139.567 139.567v232.866c-66.347 20.839-118.729 73.219-139.567 139.567h-403.533zM853.333 661.333c0 23.564-19.102 42.667-42.667 42.667h-51.593c17.314-42.782 51.477-76.943 94.259-94.261v51.594zM810.667 192c23.565 0 42.667 19.102 42.667 42.667v51.593c-42.782-17.314-76.945-51.477-94.259-94.259h51.593z" />
<glyph unicode="&#xe929;" glyph-name="ico_cart" data-tags="ico_cart" d="M129.155 802.905c5.144 20.574 25.992 33.083 46.566 27.94l95.426-23.857c45.818-11.454 79.417-49.455 86.058-95.122l472.84-67.549c37.837-5.405 65.937-37.808 65.937-76.027v-120.294c0-42.415-34.385-76.8-76.8-76.8h-431.444c21.094-23.565 51.749-38.4 85.865-38.4h383.996c21.21 0 38.4-17.19 38.4-38.4 0-21.205-17.19-38.396-38.4-38.396h-29.342c18.24-20.382 29.333-47.296 29.333-76.8 0-63.625-51.575-115.2-115.2-115.2-63.62 0-115.196 51.575-115.196 115.2 0 29.504 11.089 56.418 29.333 76.8h-173.867c18.24-20.382 29.333-47.296 29.333-76.8 0-63.625-51.575-115.2-115.199-115.2s-115.199 51.575-115.199 115.2c0 52.476 35.090 96.759 83.087 110.66-50.188 34.637-83.078 92.544-83.078 158.135v23.142c23.436-14.494 50.563-23.074 76.481-23.142h461.094v120.294l-460.777 65.825v-128.52c-18.030 0-40.456 8.111-58.34 23.057-7.56 6.319-13.799 13.403-18.459 21.021v145.555c0 17.62-11.992 32.979-29.086 37.253l-95.426 23.856c-20.574 5.143-33.083 25.992-27.94 46.566zM780.791 179.2c0 15.249-8.892 28.425-21.773 34.62-5.030 2.423-10.671 3.78-16.627 3.78-21.205 0-38.4-17.195-38.4-38.4 0-8.9 3.029-17.092 8.107-23.603 0.218-0.277 0.439-0.55 0.661-0.823 7.044-8.533 17.702-13.973 29.632-13.973 21.21 0 38.4 17.19 38.4 38.4zM396.797 140.8c21.207 0 38.399 17.19 38.399 38.4 0 21.205-17.191 38.4-38.399 38.4s-38.4-17.195-38.4-38.4c0-21.21 17.192-38.4 38.4-38.4z" />
<glyph unicode="&#xe92a;" glyph-name="ico_pay_automatically" data-tags="ico_pay_automatically" d="M213.333 789.333h597.333c70.694 0 128-57.308 128-128v-426.667c0-70.694-57.306-128-128-128h-597.333c-61.367 0-112.648 43.187-125.109 100.826 3.903-1.446 7.843-2.752 11.802-3.934 52.969-15.812 110.204-11.558 164.901-11.558-17.318 42.782-51.479 76.945-94.261 94.259v-50.812c-19.825 1.037-39.808 3.435-58.436 8.994-9.522 2.842-18.55 6.468-26.897 11.132v405.76c0 70.693 57.308 128 128 128zM213.333 704c-23.564 0-42.667-19.102-42.667-42.667v-51.594c42.782 17.318 76.943 51.479 94.261 94.261h-51.594zM310.234 704c-20.839-66.348-73.219-118.728-139.567-139.567v-232.866c66.348-20.838 118.728-73.22 139.567-139.567h403.533c20.838 66.347 73.22 118.729 139.567 139.567v232.866c-66.347 20.839-118.729 73.219-139.567 139.567h-403.533zM853.333 661.333c0 23.564-19.102 42.667-42.667 42.667h-51.593c17.314-42.782 51.477-76.943 94.259-94.261v51.594zM810.667 192c23.565 0 42.667 19.102 42.667 42.667v51.593c-2.675-1.079-5.312-2.227-7.919-3.443-39.066-18.176-70.106-50.709-86.34-90.816h51.593zM512 554.667c-58.91 0-106.667-47.757-106.667-106.667s47.757-106.667 106.667-106.667c25.865 0 49.527 9.178 67.998 24.478 9.071 7.518 22.519 6.255 30.037-2.82 7.518-9.071 6.255-22.519-2.82-30.037-25.835-21.406-59.051-34.287-95.215-34.287-82.475 0-149.333 66.859-149.333 149.333s66.859 149.333 149.333 149.333c66.906 0 123.533-43.998 142.528-104.64l13.056 13.056c8.333 8.333 21.837 8.333 30.17 0s8.333-21.837 0-30.17l-55.031-55.036-78.554 52.369c-9.805 6.537-12.45 19.78-5.918 29.585 6.537 9.805 19.78 12.45 29.585 5.918l19.857-13.239c-17.408 35.247-53.722 59.49-95.693 59.49z" />
<glyph unicode="&#xe92b;" glyph-name="ico_internet" data-tags="ico_internet" d="M704.853 618.666c-12.429 50.284-30.242 97.57-52.663 140.641 43.849-19.777 82.769-48.546 114.411-83.956 15.535-17.387 29.316-36.375 41.062-56.685h-102.81zM842.577 533.333c4.211-16.367 7.241-33.212 8.99-50.432 1.169-11.477 1.762-23.121 1.762-34.901 0-15.646-1.050-31.049-3.089-46.135-1.801-13.325-4.373-26.406-7.663-39.198h-122.24c3.294 27.866 4.992 56.367 4.992 85.333s-1.698 57.468-4.992 85.333h122.24zM807.663 277.333c-10.018-17.318-21.513-33.673-34.313-48.896-32.785-38.989-74.142-70.537-121.161-91.746 22.421 43.072 40.235 90.359 52.663 140.642h102.81zM616.563 277.333c-20.791-72.674-61.901-170.667-104.567-170.667s-83.772 97.993-104.562 170.667h209.129zM371.806 759.307c-44.832-20.221-84.512-49.841-116.529-86.349-14.671-16.731-27.734-34.909-38.946-54.292h102.81c12.431 50.284 30.242 97.57 52.664 140.641zM170.665 448.461c0.013 10.155 0.47 20.203 1.352 30.127 1.663 18.722 4.839 37.013 9.403 54.746h122.241c-3.294-27.866-4.996-56.367-4.996-85.333s1.702-57.468 4.996-85.333h-111.663c-0.212 0-0.423 0-0.634 0h-9.944l-0.024 0.094c-36.105 0.644-65.418 4.617-89.652 11.132 35.081-200.316 209.888-352.559 420.252-352.559 235.537 0 426.496 190.852 426.667 426.347v0.32c0 20.164-1.395 40.004-4.105 59.426-11.418 81.942-46.11 156.433-97.182 216.58-78.259 92.172-194.991 150.66-325.38 150.66-229.089 0-416.010-180.553-426.225-407.121 0.524-0.303 1.062-0.61 1.615-0.917 13.622-7.565 37.798-16.111 83.28-18.167zM259.337 218.496c-4.877 5.367-9.586 10.889-14.118 16.559-10.641 13.312-20.306 27.443-28.887 42.278h102.81c12.431-50.283 30.242-97.57 52.664-140.642-42.956 19.375-81.182 47.381-112.469 81.805zM511.996 768c-42.667 0-86.647-86.712-104.562-149.333h209.129c-17.916 62.621-61.901 149.333-104.567 149.333zM389.664 362.667c-3.715 27.614-5.666 56.128-5.666 85.333s1.951 57.719 5.666 85.333h244.67c3.712-27.614 5.662-56.128 5.662-85.333s-1.95-57.719-5.662-85.333h-244.67z" />
<glyph unicode="&#xe92c;" glyph-name="ico_radio_button" data-tags="ico-radio_button" d="M512 106.667c-188.513 0-341.333 152.819-341.333 341.333s152.82 341.333 341.333 341.333c188.514 0 341.333-152.82 341.333-341.333s-152.819-341.333-341.333-341.333zM512 21.333c235.639 0 426.667 191.027 426.667 426.667 0 235.642-191.027 426.667-426.667 426.667-235.642 0-426.667-191.025-426.667-426.667 0-235.639 191.025-426.667 426.667-426.667zM768 448c0-141.385-114.615-256-256-256s-256 114.615-256 256c0 141.385 114.615 256 256 256s256-114.615 256-256z" />
<glyph unicode="&#xe92d;" glyph-name="ico_device" data-tags="ico_device" d="M469.333 533.333c0 47.128 38.204 85.333 85.333 85.333h256c47.13 0 85.333-38.205 85.333-85.333v-384c0-47.13-38.204-85.333-85.333-85.333h-256c-47.13 0-85.333 38.204-85.333 85.333v384zM810.667 533.333h-256v-384h256v384zM725.333 234.667c0-23.564-19.103-42.667-42.667-42.667s-42.667 19.103-42.667 42.667c0 23.564 19.103 42.667 42.667 42.667s42.667-19.103 42.667-42.667zM341.333 682.667c0 11.782 9.551 21.333 21.333 21.333h170.667c11.78 0 21.333-9.551 21.333-21.333s-9.553-21.333-21.333-21.333h-170.667c-11.782 0-21.333 9.551-21.333 21.333zM213.333 832c-47.128 0-85.333-38.205-85.333-85.333v-530.923c1.542-1.395 3.229-2.718 5.097-3.994 12.538-8.563 35.156-15.838 80.236-18.581v553.498h469.333v-85.333c21.333 0 85.333 25.022 85.333 64v21.333c0 47.128-38.204 85.333-85.333 85.333h-469.333zM254.325 149.333c0.556 0 1.114 0 1.674 0h85.334c60.055 0 85.333-42.667 85.333-85.333h-213.333c-47.128 0-85.333 38.204-85.333 85.333v16.99c14.074-5.914 64-16.99 85.333-16.99h40.992z" />
<glyph unicode="&#xe92e;" glyph-name="ico_laptop" data-tags="ico_laptop" d="M85.333 149.333c0 23.565 19.103 42.667 42.667 42.667h768c23.565 0 42.667-19.102 42.667-42.667s-19.102-42.667-42.667-42.667h-768c-23.564 0-42.667 19.102-42.667 42.667zM256 789.333c-70.692 0-128-57.308-128-128v-267.887c10.477-9.766 23.644-16.435 38.423-21.099 15.183-4.796 31.36-7.215 46.911-8.435v297.421c0 23.564 19.103 42.667 42.667 42.667h512c23.565 0 42.667-19.103 42.667-42.667v-298.667c0-23.565-19.102-42.667-42.667-42.667h-512c-0.17 0-0.339 0-0.508 0.004h-0.396c-24.554-0.004-64.592-0.004-101.521 11.657-8.035 2.534-16.033 5.666-23.777 9.51 10.224-60.459 62.836-106.505 126.203-106.505h512c70.694 0 128 57.306 128 128v298.667c0 70.692-57.306 128-128 128h-512z" />
<glyph unicode="&#xe92f;" glyph-name="ico_tablet" data-tags="ico_tablet" d="M85.333 234.667c0-70.694 57.308-128 128-128h550.323c11.486 10.603 20.557 24.166 27.674 39.42 6.963 14.938 11.716 30.882 14.763 45.914h-592.759c-23.564 0-42.667 19.102-42.667 42.667v426.667c0 23.564 19.103 42.667 42.667 42.667h597.333c23.565 0 42.667-19.103 42.667-42.667v-426.667zM853.329 234.005c-0.094-27.26-5.871-68.51-23.33-105.954-3.337-7.151-7.151-14.259-11.486-21.15 67.038 4.058 120.154 59.708 120.154 127.765v426.667c0 70.692-57.306 128-128 128h-597.333c-70.692 0-128-57.308-128-128v-426.667zM234.667 533.333c11.782 0 21.333-9.553 21.333-21.333v-128c0-11.78-9.551-21.333-21.333-21.333s-21.333 9.553-21.333 21.333v128c0 11.78 9.551 21.333 21.333 21.333z" />
<glyph unicode="&#xe930;" glyph-name="ico_t-store" data-tags="ico_t-store" d="M341.333 618.667v-85.333c0-23.565 19.103-42.667 42.667-42.667s42.667 19.102 42.667 42.667v85.333h170.667v-85.333c0-23.565 19.102-42.667 42.667-42.667s42.667 19.102 42.667 42.667v85.333h52.378l32.26-512h-510.61l0.081 1.092c-28.076 2.944-57.667 11.844-84.264 26.897l-1.674-22.665c-3.095-49.126 36.236-90.658 85.857-90.658h510.61c49.621 0 88.951 41.532 85.858 90.658l-32.26 511.998c-2.833 44.974-40.431 80.010-85.858 80.010h-52.378c0 94.257-76.412 170.667-170.667 170.667-94.257 0-170.667-76.41-170.667-170.667h-46.828c-45.426 0-83.023-35.037-85.857-80.010l-27.592-407.021c5.669-9.583 13.64-17.86 23.411-24.969 17.347-12.617 39.142-20.369 59.303-22.912l30.735 449.579h46.828zM426.667 704c0 47.128 38.204 85.333 85.333 85.333s85.333-38.205 85.333-85.333h-170.667z" />
<glyph unicode="&#xe931;" glyph-name="ico_user_data" data-tags="ico_user_data" d="M298.667 874.667c-70.692 0-128-57.308-128-128v-561.843c24.696-16.111 54.113-26.906 85.333-32.038v593.882c0 23.564 19.103 42.667 42.667 42.667h426.667c23.565 0 42.667-19.103 42.667-42.667v-597.333c0-23.565-19.102-42.667-42.667-42.667h-426.665c-43.838 0-88.381 9.357-127.245 28.668 6.974-64.107 61.282-114.001 127.243-114.001h426.667c70.694 0 128 57.306 128 128v597.333c0 70.692-57.306 128-128 128h-426.667zM341.333 362.667c0 23.565 19.103 42.667 42.667 42.667h256c23.565 0 42.667-19.102 42.667-42.667s-19.102-42.667-42.667-42.667h-256c-23.564 0-42.667 19.102-42.667 42.667zM341.333 234.667c0 23.565 19.103 42.667 42.667 42.667h170.667c23.565 0 42.667-19.102 42.667-42.667s-19.102-42.667-42.667-42.667h-170.667c-23.564 0-42.667 19.102-42.667 42.667zM573.99 560.017c14.473 15.29 23.347 35.933 23.347 58.649 0 47.128-38.204 85.333-85.333 85.333s-85.333-38.205-85.333-85.333c0-22.716 8.875-43.358 23.347-58.649-33.457-18.554-57.728-51.661-64.26-90.778-1.941-11.622 7.797-21.239 19.579-21.239h213.334c11.78 0 21.521 9.617 19.58 21.239-6.532 39.117-30.805 72.224-64.26 90.778z" />
<glyph unicode="&#xe932;" glyph-name="ico_diamond" data-tags="ico_diamond" d="M269.965 662.018h74.128l64.996 84.991h-52.463l-86.661-84.991zM372.654 577.026l89.699-329.892-53.313-77.76-270.787 412.847c-16.455 25.216-12.8 58.265 8.785 79.435l154.655 151.675c12.189 11.954 28.721 18.67 45.959 18.67h328.696c17.237 0 33.771-6.716 45.961-18.67l154.654-151.675c21.585-21.169 25.242-54.219 8.785-79.435l-319.002-488.84c-24.9-38.153-80.905-39.147-107.426-2.982l51.75 75.477 0.93 1.284 0.96 1.468 30.665 44.727-1.037 0.678 17.237 26.415 91.52 336.578h-278.691zM327.809 577.026h-83.277l142.761-218.767-59.484 218.767zM625.741 662.018l-64.994 84.991h-97.493l-64.997-84.991h227.485zM696.188 577.026l-59.486-218.771 142.767 218.771h-83.281zM754.035 662.018l-86.66 84.991h-52.467l64.998-84.991h74.129z" />
<glyph unicode="&#xe933;" glyph-name="ico_PDAM" data-tags="ico_PDAM" d="M383.084 135.253c-49.935 19.977-106.753 11.554-148.749-22.042l-29.007-23.206c-9.2-7.36-22.625-5.867-29.986 3.332s-5.868 22.626 3.332 29.986l29.007 23.206c53.995 43.196 127.047 54.020 191.249 28.339l10.072-4.028c66.117-26.449 139.879-26.449 206 0l10.069 4.028c64.201 25.681 137.254 14.857 191.249-28.339l29.009-23.206c9.199-7.36 10.692-20.787 3.332-29.986-7.364-9.199-20.787-10.692-29.986-3.332l-29.009 23.206c-41.997 33.596-98.812 42.018-148.749 22.042l-10.074-4.028c-76.288-30.515-161.395-30.515-237.688 0l-10.072 4.028zM383.084 49.92c-49.935 19.977-106.753 11.554-148.749-22.042l-29.007-23.206c-9.2-7.36-22.625-5.867-29.986 3.332s-5.868 22.626 3.332 29.986l29.007 23.206c53.995 43.196 127.047 54.020 191.249 28.339l10.072-4.028c66.117-26.449 139.879-26.449 206 0l10.069 4.028c64.201 25.681 137.254 14.857 191.249-28.339l29.009-23.206c9.199-7.36 10.692-20.787 3.332-29.986-7.364-9.199-20.787-10.692-29.986-3.332l-29.009 23.206c-41.997 33.596-98.812 42.018-148.749 22.042l-10.074-4.028c-76.288-30.515-161.395-30.515-237.688 0l-10.072 4.028zM412.076 553.571c11.177-3.726 17.219-15.808 13.492-26.983-5.543-16.631-6.929-46.345 1.376-76.045 8.196-29.321 24.836-55.249 51.93-68.796 10.539-5.269 14.81-18.082 9.54-28.621s-18.082-14.81-28.621-9.54c-41.173 20.587-63.65 58.658-73.942 95.471-10.187 36.433-9.441 74.982-0.761 101.022 3.726 11.177 15.808 17.218 26.985 13.492zM482.261 749.642l-112.187-182.377c-56.163-91.297-22.885-211.080 72.324-260.326 41.19-21.303 90.155-21.303 131.345 0 95.206 49.246 128.486 169.028 72.324 260.326l-127.851 207.833c-18.769 39.045-41.788 67.217-69.875 84.849l3.332 5.414c25.852 42.027 86.938 42.027 112.794 0l155.43-252.676c82.573-134.229 33.647-310.34-106.33-382.741-66.167-34.223-144.828-34.223-210.996 0-139.979 72.401-188.904 248.512-106.332 382.741l129.39 210.338c20.472-12.988 39.676-35.735 56.632-73.381z" />
<glyph unicode="&#xe934;" glyph-name="ico_phone_data" data-tags="ico_phone_data" d="M640 789.333h-384v-636.809c-15.778 0-42.132 15.578-64 39.475-9.786 10.697-15.523 12.297-21.333 24.171v573.163c0 47.128 38.205 85.333 85.333 85.333h384c47.13 0 85.333-38.205 85.333-85.333s-38.204-85.333-85.333-85.333v85.333zM170.667 140.796v-34.129c0-47.13 38.205-85.333 85.333-85.333h384c47.13 0 85.333 38.204 85.333 85.333s-38.204 85.333-85.333 85.333v-85.333h-384c-30.589 0-60.52 14.263-85.333 34.129zM448 149.333c23.565 0 42.667 19.102 42.667 42.667s-19.102 42.667-42.667 42.667c-23.564 0-42.667-19.102-42.667-42.667s19.103-42.667 42.667-42.667zM384 746.667c-23.564 0-42.667-19.103-42.667-42.667s19.103-42.667 42.667-42.667h128c23.565 0 42.667 19.103 42.667 42.667s-19.102 42.667-42.667 42.667h-128zM623.902 407.159l-1.967 9.254c-3.443-4.113-7.253-7.006-11.435-8.683-4.181-1.6-8.405-2.398-12.668-2.398-6.724 0-12.791 1.067-18.202 3.2-5.329 2.206-9.839 5.214-13.525 9.024-3.691 3.806-6.519 8.26-8.486 13.363-1.967 5.18-2.953 10.739-2.953 16.678 0 6.093 0.986 11.729 2.953 16.909 1.967 5.252 4.796 9.822 8.486 13.709 3.686 3.883 8.196 6.929 13.525 9.139 5.41 2.206 11.477 3.311 18.202 3.311 4.51 0 8.853-0.649 13.035-1.941 4.262-1.22 8.077-3.046 11.439-5.483 3.443-2.436 6.272-5.449 8.482-9.024 2.214-3.58 3.567-7.693 4.058-12.339h-18.445c-1.148 4.57-3.362 7.996-6.639 10.283-3.281 2.283-7.258 3.426-11.93 3.426-4.348 0-8.034-0.802-11.068-2.398-3.034-1.523-5.495-3.618-7.381-6.285-1.886-2.59-3.277-5.559-4.181-8.909-0.819-3.354-1.229-6.818-1.229-10.398 0-3.426 0.41-6.775 1.229-10.052 0.905-3.196 2.295-6.093 4.181-8.683 1.886-2.586 4.348-4.681 7.381-6.281 3.034-1.523 6.72-2.287 11.068-2.287 6.396 0 11.315 1.485 14.758 4.459 3.524 3.046 5.572 7.424 6.148 13.137h-19.43v13.363h36.894v-44.096h-12.301zM651.793 407.159v81.566h41.318c4.181 0 7.996-0.341 11.439-1.028s6.396-1.826 8.853-3.426c2.462-1.523 4.348-3.58 5.658-6.17 1.395-2.59 2.091-5.79 2.091-9.596 0-4.113-1.024-7.539-3.076-10.283-1.967-2.739-4.915-4.988-8.853-6.737 5.41-1.451 9.429-3.998 12.053-7.654 2.705-3.58 4.058-7.923 4.058-13.022 0-4.113-0.862-7.693-2.581-10.739-1.724-2.97-4.058-5.406-7.010-7.313-2.871-1.903-6.191-3.311-9.963-4.224-3.691-0.917-7.501-1.374-11.435-1.374h-42.551zM671.1 474.786v-19.076h19.554c3.443 0 6.272 0.764 8.486 2.287s3.319 3.998 3.319 7.424c0 1.903-0.371 3.465-1.105 4.685-0.738 1.216-1.724 2.167-2.953 2.854s-2.667 1.143-4.305 1.37c-1.557 0.307-3.196 0.457-4.919 0.457h-18.078zM671.1 443.486v-22.387h20.659c1.886 0 3.691 0.149 5.414 0.457 1.719 0.38 3.238 0.951 4.548 1.711 1.31 0.841 2.338 1.946 3.076 3.315 0.819 1.37 1.229 3.123 1.229 5.257 0 4.186-1.271 7.155-3.814 8.909-2.539 1.826-5.901 2.739-10.082 2.739h-21.030zM512 618.667h256c47.13 0 85.333-38.205 85.333-85.333v-170.667c0-47.13-38.204-85.333-85.333-85.333h-256c-47.13 0-85.333 38.204-85.333 85.333v170.667c0 47.128 38.204 85.333 85.333 85.333zM768 533.333h-256v-170.667h256v170.667z" />
<glyph unicode="&#xe935;" glyph-name="ico_printer" data-tags="ico_printer" d="M243.2 793.6c0 21.208 17.192 38.4 38.4 38.4h460.8c21.21 0 38.4-17.192 38.4-38.4v-115.2h16.896c48.414 0 98.304-34.681 98.304-89.6v-332.8c0-21.21-17.19-38.4-38.4-38.4h-76.8v-115.2c0-21.21-17.19-38.4-38.4-38.4h-460.8c-21.208 0-38.4 17.19-38.4 38.4v115.2h-76.8c-10.184 0-19.951 4.045-27.153 11.247s-11.247 16.969-11.247 27.153v56.358l1.042-0.431c24.978-10.278 52.925-15.1 75.758-16.789v-0.738h38.4v38.4c0 21.21 17.192 38.4 38.4 38.4h460.8c21.21 0 38.4-17.19 38.4-38.4v-38.4h38.4v294.4c0 1.393-0.567 3.997-4.096 7.013-3.61 3.086-9.643 5.787-17.408 5.787h-571.392c-7.764 0-13.799-2.701-17.409-5.787-3.529-3.016-4.095-5.62-4.095-7.013v-256c-17.284 1.6-37.129 5.385-53.842 12.258-10.332 4.254-17.801 8.862-22.958 13.777v229.965c0 54.919 49.888 89.6 98.304 89.6h16.896v115.2zM704 678.4v76.8h-384v-76.8h384zM320 140.8h384v153.6h-384v-153.6zM704 448c21.21 0 38.4 17.19 38.4 38.4s-17.19 38.4-38.4 38.4c-21.21 0-38.4-17.19-38.4-38.4s17.19-38.4 38.4-38.4z" />
<glyph unicode="&#xe936;" glyph-name="ico_quiz" data-tags="ico_quiz" d="M227.935 770.552l334.002 59.534c66.214 11.803 129.609-29.595 146.291-93.588l88.491-17.717c69.321-13.878 114.261-81.321 100.382-150.638l-66.257-330.937c-11.379-56.841-58.778-97.289-113.69-102.353-9.289-4.134-19.221-7.219-29.679-9.079l-333.999-59.537c-64.978-11.58-127.236 28.066-145.307 90.018 15.171-5.235 29.528-7.974 43.618-8.998 26.632-1.937 60.373-1.707 86.715 2.991l334.001 59.533c23.198 4.134 38.652 26.295 34.517 49.493l-80.619 452.287c-4.134 23.198-26.295 38.653-49.493 34.517l-333.999-59.534c-23.198-4.135-38.653-26.293-34.517-49.492l79.561-446.352c-11.559-1.143-22.228-1.677-33.071-0.887-16.344 1.186-34.366 5.483-56.515 17.199l-73.984 415.066c-12.405 69.595 33.957 136.070 103.552 148.475zM724.736 646.166l47.548-266.765 41.143 205.495c4.629 23.105-10.355 45.586-33.459 50.212l-55.232 11.058zM458.927 370.594l13.346 2.415c8.555 1.549 12.992 7.3 13.312 17.254 0.137 14.865 3.524 28.378 10.159 40.533s13.875 23.893 21.726 35.209c6.724 9.698 13.077 19.503 19.059 29.423 6.323 9.98 10.889 20.877 13.696 32.691 2.812 11.819 2.884 25.085 0.222 39.799-3.345 18.479-10.735 33.928-22.17 46.348-11.093 12.482-24.883 21.296-41.361 26.442-16.482 5.146-34.475 5.955-53.982 2.425-28.4-5.14-51.039-17.718-67.914-37.734-16.533-19.955-24.547-44.022-24.041-72.202 0.208-10.918 5.71-15.932 16.503-15.040l10.965 0.926c9.767 0.708 14.779 6.208 15.037 16.503 0.606 18.133 5.829 33.214 15.668 45.243 9.777 12.371 23.22 20.105 40.332 23.201 17.109 3.096 31.723 0.44 43.849-7.968 12.403-8.004 20.092-20.218 23.061-36.644 2.85-15.741 0.785-29.719-6.191-41.939-6.635-12.156-14.498-24.358-23.595-36.604-6.507-8.951-12.924-18.419-19.243-28.399-6.042-9.574-10.701-19.959-13.978-31.151-3.277-11.196-4.156-23.902-2.645-38.118 1.173-10.389 7.236-14.592 18.185-12.612zM485.248 266.159c8.555 1.549 15.185 5.926 19.887 13.137 5.043 7.275 6.822 15.019 5.338 23.232-1.549 8.555-5.926 15.185-13.141 19.887-6.929 5.107-14.673 6.886-23.228 5.338-8.213-1.485-14.844-5.867-19.887-13.141-5.107-6.929-6.886-14.673-5.338-23.228 1.485-8.213 5.862-14.844 13.137-19.887 7.275-5.047 15.019-6.827 23.232-5.338z" />
<glyph unicode="&#xe937;" glyph-name="ico_add_services" data-tags="ico_add_services" d="M298.667 362.667v-221.867h-93.536v0.55c-22.22 1.246-49.388 4.77-73.622 12.25-1.165 0.358-2.335 0.734-3.508 1.118v-90.718h154.261c32.12 0 59.654 19.55 71.256 47.351l61.617-40.9c6.335-4.207 13.777-6.451 21.393-6.451h227.849c37.188 0 72.853 14.711 99.153 40.896l105.203 104.751c36.356 36.203 36.356 94.903 0 131.106-36.361 36.203-95.313 36.203-131.669 0l-35.887-35.733c-33.382 41.327-84.186 66.18-138.778 66.18h-12.425c-53.184 52.535-133.107 64.188-198.084 33.079-12.413 25.86-38.926 43.721-69.628 43.721h-154.261v-230.758c5.009-2.965 11.827-5.926 20.492-8.602 17.658-5.449 46.781-7.689 64.841-8.887v162.914h85.333zM621.747 275.2h-127.373c-21.299 0-38.566-17.19-38.566-38.4s17.267-38.4 38.566-38.4h192.823c10.231 0 20.041 4.045 27.273 11.247l77.129 76.8c6.238 6.212 16.354 6.212 22.592 0s6.238-16.282 0-22.494l-105.203-104.751c-8.725-8.691-19.742-7.607-31.637-6.443-4.237 0.414-8.585 0.841-12.975 0.841h-216.922l-88.063 46.153v117.133c40.458 39.514 106.281 36.305 142.646-7.151 8.137-9.715 20.181-15.334 32.887-15.334h27.473c21.734 0 42.411-6.95 59.349-19.2zM512 832c-23.565 0-42.667-19.103-42.667-42.667v-85.333h-85.333c-23.564 0-42.667-19.102-42.667-42.667s19.103-42.667 42.667-42.667h85.333v-85.333c0-23.565 19.102-42.667 42.667-42.667s42.667 19.102 42.667 42.667v85.333h85.333c23.565 0 42.667 19.103 42.667 42.667s-19.102 42.667-42.667 42.667h-85.333v85.333c0 23.564-19.102 42.667-42.667 42.667z" />
<glyph unicode="&#xe938;" glyph-name="ico_alquran" data-tags="ico_alquran" d="M128 752v-305.412c0.936-0.93 1.937-1.852 3.007-2.756 11.127-9.399 41.356-27.802 82.326-29.538v332.373h170.667c35.27 0 67.204-13.892 85.333-44.919v-372.339l-48.561 28.194c-9.209 5.18-19.52 6.575-29.133 4.681-2.534 0.252-5.080 0.384-7.639 0.384h-170.667c-30.253 1.041-64.257 13.15-85.333 21.333v-32c0-44.181 34.385-80 76.8-80h182.935c3.967 0 7.898-0.243 11.779-0.721l28.877-16.764-193.311-110.665c-20.538-11.554-27.822-37.568-16.269-58.108 11.552-20.535 37.567-27.823 58.105-16.269l236.745 135.531 233.425-135.526c20.54-11.554 46.554-4.271 58.103 16.269 11.554 20.535 4.271 46.549-16.269 58.103l-189.696 110.14 31.147 17.83c1.954 0.119 3.921 0.179 5.897 0.179h182.933c42.415 0 76.8 35.819 76.8 80v400c0 44.183-34.385 80-76.8 80h-182.933c-47.245 0-91.635-19.555-124.267-52.932-32.631 33.377-77.022 52.932-124.265 52.932h-182.935c-42.415 0-76.8-35.817-76.8-80zM640 362.667c-27.584 0-53.76-15.317-77.538-29.227-2.628-1.536-5.227-3.059-7.795-4.54l-4.267 372.847c18.129 31.027 54.332 44.919 89.6 44.919h170.667v-384h-170.667zM256 469.333c0 11.78 9.551 21.333 21.333 21.333h128c11.782 0 21.333-9.553 21.333-21.333s-9.551-21.333-21.333-21.333h-128c-11.782 0-21.333 9.553-21.333 21.333zM256 554.667c0 11.782 9.551 21.333 21.333 21.333h128c11.782 0 21.333-9.551 21.333-21.333s-9.551-21.333-21.333-21.333h-128c-11.782 0-21.333 9.551-21.333 21.333zM256 640c0 11.782 9.551 21.333 21.333 21.333h128c11.782 0 21.333-9.551 21.333-21.333s-9.551-21.333-21.333-21.333h-128c-11.782 0-21.333 9.551-21.333 21.333zM597.333 469.333c0 11.78 9.553 21.333 21.333 21.333h128c11.78 0 21.333-9.553 21.333-21.333s-9.553-21.333-21.333-21.333h-128c-11.78 0-21.333 9.553-21.333 21.333zM597.333 554.667c0 11.782 9.553 21.333 21.333 21.333h128c11.78 0 21.333-9.551 21.333-21.333s-9.553-21.333-21.333-21.333h-128c-11.78 0-21.333 9.551-21.333 21.333zM597.333 640c0 11.782 9.553 21.333 21.333 21.333h128c11.78 0 21.333-9.551 21.333-21.333s-9.553-21.333-21.333-21.333h-128c-11.78 0-21.333 9.551-21.333 21.333z" />
<glyph unicode="&#xe939;" glyph-name="ico_attractions" data-tags="ico_attractions" d="M533.333 832h64c11.78 0 21.333-9.551 21.333-21.333s-9.553-21.333-21.333-21.333h-64v-5.631l339.081-169.54c15.219-7.609 23.902-23.085 23.586-39.034v-84.462c0-51.691-30.639-96.222-74.743-116.429l57.562-201.463c15.573-54.511-25.357-108.774-82.052-108.774h-242.103v128c0 23.565-19.102 42.667-42.667 42.667-23.561 0-42.667-19.102-42.667-42.667v-128h-242.1c-56.694 0-97.625 54.263-82.050 108.774l0.482 1.685c9.798-7.155 20.54-12.348 31.589-16.034 16.713-5.568 34.272-7.727 50.13-8.563l-0.151-0.529h156.769v42.667c0 70.69 57.308 128 127.998 128 70.694 0 128-57.31 128-128v-42.667h156.77l-62.212 217.749c-19.546 5.274-37.235 15.061-51.887 28.177-22.647-20.267-52.548-32.593-85.333-32.593s-62.686 12.326-85.333 32.593c-22.647-20.267-52.548-32.593-85.333-32.593-32.783 0-62.688 12.326-85.333 32.593-14.653-13.116-32.346-22.903-51.891-28.181l-49.985-174.946c-16.725 0.363-33.562 1.719-48.716 6.771-12.431 4.143-23.465 10.671-31.877 21.773l43.875 153.562c-44.104 20.211-74.74 64.742-74.74 116.429v84.36c-0.354 15.985 8.334 31.511 23.584 39.136l339.082 169.541v48.297c0 11.782 9.553 21.333 21.333 21.333s21.333-9.551 21.333-21.333zM768.678 448.004c23.253 0.363 41.988 19.324 41.988 42.662v58.964l-298.667 149.334-298.667-149.332v-58.965c0-23.339 18.736-42.3 41.986-42.662 0.445 0.009 0.891 0.009 1.338 0 23.261 0.35 42.010 19.319 42.010 42.662v21.333c0 23.564 19.103 42.667 42.667 42.667s42.667-19.103 42.667-42.667v-21.333c0-23.565 19.103-42.667 42.667-42.667s42.667 19.102 42.667 42.667v21.333c0 23.564 19.102 42.667 42.667 42.667s42.667-19.103 42.667-42.667v-21.333c0-23.565 19.102-42.667 42.667-42.667s42.667 19.102 42.667 42.667v21.333c0 23.564 19.102 42.667 42.667 42.667s42.667-19.103 42.667-42.667v-21.333c0-23.343 18.748-42.308 42.005-42.662 0.448 0.009 0.896 0.009 1.34 0z" />
<glyph unicode="&#xe93a;" glyph-name="ico_bank" data-tags="ico_bank" d="M837.948 155.55h-655.563c-20.487 0-40.973-18.219-40.973-40.687 0-22.473 20.486-40.691 40.973-40.691h655.563c20.489 0 40.973 18.219 40.973 40.691 0 22.468-20.484 40.687-40.973 40.687zM223.358 555.536h-61.459c-20.489 0-40.972 47.592 0.001 67.937 20.488 10.173 0 0 143.416 84.654 143.418 84.654 143.397 88.269 163.881 98.442 40.973 20.346 40.973 20.346 81.946 0.001l163.887-98.444c0 0 81.95-43.965 143.407-84.654 61.461-40.689 0-67.936 0-67.936h-61.457l-0.004-264.478c0 0 33.677 0 40.977-33.788 7.3-33.783-20.489-47.59-40.973-47.59h-580.231c-27.753 0-38.378 25.071-34.362 47.59 6.025 33.788 40.972 33.788 40.972 33.788v264.477zM305.303 291.059h102.433v244.133h-102.433v-244.133zM458.283 291.059h104.41v244.133h-104.41v-244.133zM612.599 291.059h102.43v244.133h-102.43v-244.133zM510.17 745.539l-204.865-142.411h409.725l-204.86 142.411zM555.328 815.864l0.764-0.379 167.497-100.402c2.377-1.29 5.833-3.176 10.172-5.565 8.683-4.778 20.894-11.571 35.034-19.641 28.241-16.119 64.32-37.412 95.326-57.94 16.235-10.748 26.001-21.647 29.926-32.921 4.126-11.846 1.199-22.302-3.938-30.26-4.928-7.635-12.002-13.239-17.331-16.78-2.739-1.821-5.205-3.218-7.006-4.169-0.905-0.477-1.651-0.847-2.189-1.107l-0.653-0.308c0 0 0.653 0.308-2.308-1.027s-53.402 0-53.402 0v-245.405c3.426-0.747 7.497-1.941 11.755-3.87 11.682-5.286 24.538-16.055 28.992-36.681 4.382-20.284-1.779-35.938-13.235-46.165-10.854-9.698-25.549-13.734-37.751-13.734h-580.231c-17.478 0-30.356 8.137-37.82 20.194-7.182 11.601-8.984 26.133-6.627 39.343 3.73 20.919 16.778 31.791 28.643 37.073 4.406 1.958 8.637 3.157 12.172 3.895v245.348h-51.216c-9.147 0-16.859 5.192-22.154 11.273-5.431 6.238-9.397 14.535-10.982 23.474-1.597 9.010-0.837 19.057 3.727 28.547 4.605 9.576 12.767 17.924 24.829 23.913l0.427 0.212c3.66 1.817 5.908 2.933 8.116 4.12 3.514 1.889 6.929 3.96 15.777 9.324 14.976 9.080 45.516 27.596 118.444 70.643 71.647 42.291 107.426 64.316 127.831 77.024 3.209 1.999 6.050 3.776 8.606 5.373 13.542 8.469 19.004 11.883 28.096 16.398l0.393 0.195c9.911 4.921 17.911 8.895 24.713 11.596 7.027 2.793 13.517 4.543 20.45 4.543s13.419-1.75 20.45-4.542c6.797-2.701 14.801-6.674 24.708-11.594zM510.17 733.121l-194.623-126.979 389.242 2.516-194.62 124.463zM315.547 525.018v-223.787h81.946v223.787h-81.946zM468.527 301.231h83.925v223.787h-83.925v-223.787zM622.844 525.018v-223.787h81.946v223.787h-81.946zM182.386 145.378c-15.177 0-30.73-13.999-30.73-30.515 0-16.521 15.554-30.519 30.729-30.519h655.567c15.172 0 30.729 13.999 30.729 30.519 0 16.516-15.556 30.515-30.733 30.515h-655.562zM131.169 114.863c0 28.425 25.417 50.859 51.215 50.859h655.567c25.796 0 51.213-22.434 51.213-50.859 0-28.429-25.417-50.863-51.217-50.863h-655.562c-25.8 0-51.217 22.434-51.217 50.863z" />
<glyph unicode="&#xe93b;" glyph-name="ico_convert_halo" data-tags="ico_convert_halo" d="M777.502 444.416c9.801 6.532 23.044 3.887 29.581-5.918l107.447-161.169h-359.863c-11.78 0-21.333 9.553-21.333 21.333 0 11.785 9.553 21.333 21.333 21.333h280.137l-63.219 94.835c-6.537 9.805-3.887 23.049 5.918 29.585zM673.165 46.251c-9.801-6.532-23.044-3.887-29.581 5.918l-107.447 161.169h359.863c11.78 0 21.333-9.553 21.333-21.333 0-11.785-9.553-21.333-21.333-21.333h-280.137l63.219-94.835c6.537-9.805 3.887-23.049-5.918-29.585zM318.507 506.795c-6.405 0-11.347 1.57-14.828 4.71-3.341 3.273-5.012 7.915-5.012 13.918v128.746c1.671 0.819 3.759 1.433 6.265 1.842 2.506 0.546 4.943 0.819 7.31 0.819 6.404 0 11.277-1.638 14.619-4.913 3.481-3.139 5.221-7.71 5.221-13.714v-41.961h53.046v57.926c1.67 0.819 3.759 1.433 6.265 1.842 2.506 0.546 4.943 0.819 7.309 0.819 6.405 0 11.278-1.638 14.619-4.913 3.481-3.139 5.221-7.71 5.221-13.714v-128.747c-3.62-1.775-8.145-2.662-13.574-2.662-6.405 0-11.347 1.57-14.828 4.71-3.342 3.273-5.012 7.915-5.012 13.918v42.164h-53.046v-58.13c-3.62-1.775-8.145-2.662-13.575-2.662zM440.393 536.68c0 11.599 4.454 20.4 13.367 26.404 9.050 6.141 21.649 9.211 37.798 9.211 6.127 0 10.79-0.41 13.995-1.228v5.117c0 6.277-1.673 10.78-5.013 13.509s-8.145 4.094-14.409 4.094c-6.268 0-11.977-1.228-17.126-3.685s-8.909-5.731-11.277-9.825c-3.204 1.501-5.918 3.412-8.145 5.731-2.227 2.456-3.341 5.185-3.341 8.187 0 4.23 1.668 8.119 5.009 11.667 3.482 3.684 8.563 6.55 15.249 8.597 6.682 2.183 14.686 3.275 24.017 3.275 16.009 0 27.981-3.343 35.917-10.030s11.904-16.306 11.904-28.861v-45.44c0-9.689 0.836-16.375 2.509-20.061-3.204-3.819-8.841-5.73-16.917-5.73-10.999 0-16.499 6.003-16.499 18.014v3.273c-2.227-7.505-6.473-13.167-12.74-16.986-6.123-3.823-13.086-5.734-20.881-5.734-9.745 0-17.754 2.799-24.017 8.393-6.268 5.734-9.399 13.103-9.399 22.107zM473.182 540.774c0-3.548 1.182-6.345 3.55-8.392 2.368-1.911 5.568-2.867 9.609-2.867 5.427 0 9.954 1.57 13.572 4.709 3.759 3.275 5.641 7.232 5.641 11.872v7.164c-3.482 0.819-7.172 1.228-11.068 1.228-6.963 0-12.254-1.228-15.872-3.684-3.622-2.32-5.431-5.663-5.431-10.030zM560.64 658.672c1.673 0.819 3.759 1.433 6.268 1.842 2.505 0.546 4.941 0.819 7.309 0.819 6.263 0 10.999-1.638 14.199-4.913 3.341-3.138 5.013-7.709 5.013-13.714v-132.431c-1.673-0.819-3.759-1.502-6.268-2.048-2.505-0.41-4.941-0.614-7.309-0.614-6.263 0-11.068 1.57-14.409 4.71-3.204 3.273-4.804 7.915-4.804 13.918v132.43zM668.736 506.18c-11.277 0-21.231 2.321-29.862 6.959-8.495 4.642-15.108 11.191-19.84 19.652-4.595 8.46-6.891 18.217-6.891 29.269s2.295 20.742 6.891 29.065c4.732 8.46 11.345 15.010 19.84 19.65 8.631 4.64 18.586 6.959 29.862 6.959s21.163-2.32 29.658-6.959c8.631-4.64 15.245-11.189 19.84-19.65 4.732-8.324 7.1-18.012 7.1-29.065s-2.368-20.809-7.1-29.269c-4.595-8.461-11.209-15.010-19.84-19.652-8.495-4.638-18.381-6.959-29.658-6.959zM668.736 530.743c7.518 0 13.299 2.662 17.335 7.983 4.036 5.458 6.054 13.236 6.054 23.334 0 9.961-2.018 17.603-6.054 22.925-4.036 5.458-9.818 8.187-17.335 8.187s-13.295-2.729-17.331-8.187c-4.041-5.322-6.059-12.963-6.059-22.925 0-10.097 2.018-17.876 6.059-23.334 4.036-5.322 9.813-7.983 17.331-7.983zM512 64c0 23.565-19.102 42.667-42.667 42.667h-213.333c-25.733 0-56.045 4.309-85.333 17.284v-17.284c0-47.13 38.205-85.333 85.333-85.333h213.333c23.565 0 42.667 19.102 42.667 42.667zM810.667 490.667c-23.565 0-42.667 19.102-42.667 42.667v54.438l-210.637 201.562h-301.363v-640c-22.699 0-46.56 5.197-65.52 18.159-6.87 4.693-13.668 10.786-19.814 18.863v602.978c0 47.128 38.205 85.333 85.333 85.333h301.363c25.327 0 49.344-11.249 65.557-30.704l210.633-201.562c12.783-15.336 19.78-34.667 19.78-54.629v-54.438c0-23.565-19.102-42.667-42.667-42.667z" />
<glyph unicode="&#xe93c;" glyph-name="ico_convert_prepaid" data-tags="ico_convert_prepaid" d="M777.502 444.416c9.801 6.532 23.044 3.887 29.581-5.918l107.447-161.169h-359.863c-11.78 0-21.333 9.553-21.333 21.333 0 11.785 9.553 21.333 21.333 21.333h280.137l-63.219 94.835c-6.537 9.805-3.887 23.049 5.918 29.585zM673.165 46.251c-9.801-6.532-23.044-3.887-29.581 5.918l-107.447 161.169h359.863c11.78 0 21.333-9.553 21.333-21.333 0-11.785-9.553-21.333-21.333-21.333h-280.137l63.219-94.835c6.537-9.805 3.887-23.049-5.918-29.585zM342.185 488.87c-7.851 0-13.909 1.963-18.176 5.888-4.096 4.096-6.144 9.899-6.144 17.408v162.818h74.496c19.115 0 34.133-5.291 45.058-15.872 11.093-10.411 16.64-24.747 16.64-43.008s-5.461-32.597-16.384-43.008c-10.923-10.411-26.029-15.616-45.314-15.616h-33.536v-65.282c-4.437-2.219-9.984-3.328-16.64-3.328zM388.521 589.993c7.509 0 13.483 2.304 17.92 6.912s6.656 11.093 6.656 19.456c0 8.363-2.389 14.763-7.168 19.2-4.779 4.608-11.435 6.912-19.968 6.912h-27.136v-52.48h29.696zM474.496 622.761c4.437 2.219 9.984 3.328 16.64 3.328 7.168 0 12.8-2.048 16.896-6.144 4.267-3.925 6.4-9.301 6.4-16.128v-3.328c3.243 7.509 8.107 13.568 14.592 18.176 6.656 4.608 13.739 6.912 21.248 6.912 6.656 0 11.861-1.707 15.616-5.12 3.925-3.413 5.888-8.107 5.888-14.080 0-7.168-2.731-13.909-8.192-20.224-4.779 4.096-11.264 6.144-19.456 6.144-9.387 0-16.64-2.731-21.76-8.192-5.12-5.291-7.68-12.715-7.68-22.272v-71.17h-40.192v132.098zM578.594 526.246c0 14.509 5.461 25.517 16.384 33.026 11.093 7.68 26.539 11.52 46.336 11.52 7.509 0 13.227-0.512 17.152-1.536v6.4c0 7.851-2.048 13.483-6.144 16.896s-9.984 5.12-17.664 5.12c-7.68 0-14.677-1.536-20.992-4.608s-10.923-7.168-13.824-12.288c-3.925 1.877-7.253 4.267-9.984 7.168-2.731 3.072-4.096 6.485-4.096 10.24 0 5.291 2.048 10.155 6.144 14.592 4.267 4.608 10.496 8.192 18.688 10.752 8.192 2.731 18.005 4.096 29.44 4.096 19.627 0 34.304-4.181 44.032-12.544s14.592-20.395 14.592-36.096v-56.834c0-12.117 1.024-20.48 3.072-25.088-3.925-4.779-10.837-7.168-20.736-7.168-13.483 0-20.224 7.509-20.224 22.528v4.096c-2.731-9.387-7.936-16.469-15.616-21.248-7.509-4.779-16.043-7.168-25.6-7.168-11.947 0-21.76 3.499-29.44 10.496-7.68 7.168-11.52 16.384-11.52 27.648zM618.786 531.366c0-4.437 1.451-7.936 4.352-10.496 2.901-2.389 6.827-3.584 11.776-3.584 6.656 0 12.203 1.963 16.64 5.888 4.608 4.096 6.912 9.045 6.912 14.85v8.96c-4.267 1.024-8.789 1.536-13.568 1.536-8.533 0-15.019-1.536-19.456-4.608-4.437-2.901-6.656-7.083-6.656-12.546zM512 64c0 23.565-19.102 42.667-42.667 42.667h-213.333c-25.733 0-56.045 4.309-85.333 17.284v-17.284c0-47.13 38.205-85.333 85.333-85.333h213.333c23.565 0 42.667 19.102 42.667 42.667zM810.667 490.667c-23.565 0-42.667 19.102-42.667 42.667v54.438l-210.637 201.562h-301.363v-640c-22.699 0-46.56 5.197-65.52 18.159-6.87 4.693-13.668 10.786-19.814 18.863v602.978c0 47.128 38.205 85.333 85.333 85.333h301.363c25.327 0 49.344-11.249 65.557-30.704l210.633-201.562c12.783-15.336 19.78-34.667 19.78-54.629v-54.438c0-23.565-19.102-42.667-42.667-42.667z" />
<glyph unicode="&#xe93d;" glyph-name="ico_drag" data-tags="ico_drag" d="M426.667 746.667c0-47.128-38.205-85.333-85.333-85.333s-85.333 38.205-85.333 85.333c0 47.128 38.205 85.333 85.333 85.333s85.333-38.205 85.333-85.333zM426.667 448c0-47.128-38.205-85.333-85.333-85.333s-85.333 38.205-85.333 85.333c0 47.128 38.205 85.333 85.333 85.333s85.333-38.205 85.333-85.333zM426.667 149.333c0-47.128-38.205-85.333-85.333-85.333s-85.333 38.205-85.333 85.333c0 47.128 38.205 85.333 85.333 85.333s85.333-38.205 85.333-85.333zM768 448c0-47.128-38.205-85.333-85.333-85.333s-85.333 38.205-85.333 85.333c0 47.128 38.205 85.333 85.333 85.333s85.333-38.205 85.333-85.333zM768 746.667c0-47.128-38.205-85.333-85.333-85.333s-85.333 38.205-85.333 85.333c0 47.128 38.205 85.333 85.333 85.333s85.333-38.205 85.333-85.333zM768 149.333c0-47.128-38.205-85.333-85.333-85.333s-85.333 38.205-85.333 85.333c0 47.128 38.205 85.333 85.333 85.333s85.333-38.205 85.333-85.333z" />
<glyph unicode="&#xe93e;" glyph-name="ico_emergency" data-tags="ico_emergency" d="M512 832c11.78 0 21.333-9.551 21.333-21.333v-42.667c0-11.782-9.553-21.333-21.333-21.333s-21.333 9.551-21.333 21.333v42.667c0 11.782 9.553 21.333 21.333 21.333zM512 704c141.385 0 256-114.615 256-256v-128h42.667v-170.667h42.667c23.565 0 42.667-19.102 42.667-42.667s-19.102-42.667-42.667-42.667h-682.667c-23.564 0-42.667 19.102-42.667 42.667s19.103 42.667 42.667 42.667h42.667v170.667h42.667v128c0 141.385 114.615 256 256 256zM298.667 234.667v-85.333h426.667v85.333h-426.667zM682.667 320v128c0 94.257-76.412 170.667-170.667 170.667-94.257 0-170.667-76.41-170.667-170.667v-128h341.333zM512 554.667c11.78 0 21.333 9.551 21.333 21.333s-9.553 21.333-21.333 21.333c-82.475 0-149.333-66.859-149.333-149.333 0-11.78 9.551-21.333 21.333-21.333s21.333 9.553 21.333 21.333c0 58.91 47.757 106.667 106.667 106.667zM228.418 701.41l30.17-30.17c8.331-8.332 21.839-8.332 30.17 0s8.331 21.839 0 30.17l-30.17 30.17c-8.331 8.331-21.839 8.331-30.17 0s-8.331-21.839 0-30.17zM128 469.333c0 11.78 9.551 21.333 21.333 21.333h42.667c11.782 0 21.333-9.553 21.333-21.333s-9.551-21.333-21.333-21.333h-42.667c-11.782 0-21.333 9.553-21.333 21.333zM800.759 701.41l-30.17-30.17c-8.333-8.332-21.841-8.332-30.17 0-8.333 8.331-8.333 21.839 0 30.17l30.17 30.17c8.329 8.331 21.837 8.331 30.17 0 8.329-8.331 8.329-21.839 0-30.17zM896 469.333c0 11.78-9.553 21.333-21.333 21.333h-42.667c-11.78 0-21.333-9.553-21.333-21.333s9.553-21.333 21.333-21.333h42.667c11.78 0 21.333 9.553 21.333 21.333z" />
<glyph unicode="&#xe93f;" glyph-name="ico_event" data-tags="ico_event" d="M170.667 704v-108.166c51.012-29.509 85.333-84.662 85.333-147.834s-34.321-118.327-85.333-147.836c-12.168-8.836-48.785-20.070-60.919-14.003-6.917 3.46-12.204 8.043-16.137 14.852-4.096 7.087-8.277 19.315-8.277 40.32v21.333c47.128 0 85.333 38.204 85.333 85.333s-38.205 85.333-85.333 85.333v170.667c0 47.128 38.205 85.333 85.333 85.333h682.667c47.13 0 85.333-38.205 85.333-85.333v-512c0-47.13-38.204-85.333-85.333-85.333h-682.667c-47.128 0-85.333 38.204-85.333 85.333v11.878c32.014-11.938 65.3-11.9 83.24-11.878 230.807 0 441.163 0 684.76 0v512c-242.825 0-452.741 0-682.667 0zM585.472 603.645c-12.365 25.911-49.246 25.911-61.611 0l-32.614-68.352-75.087-9.9c-28.464-3.75-39.862-38.827-19.039-58.594l54.928-52.143-13.79-74.466c-5.227-28.233 24.61-49.911 49.843-36.215l66.564 36.126 66.564-36.126c25.233-13.696 55.070 7.983 49.843 36.215l-13.79 74.466 54.929 52.143c20.821 19.767 9.425 54.844-19.038 58.594l-75.085 9.9-32.619 68.352z" />
<glyph unicode="&#xe940;" glyph-name="ico_like" data-tags="ico_like" d="M128 533.333c0 23.564 19.103 42.667 42.667 42.667h42.667c23.564 0 42.667-19.103 42.667-42.667v-426.667c0-23.565-19.103-42.667-42.667-42.667h-42.667c-23.564 0-42.667 19.102-42.667 42.667v426.667zM448.107 832h0.154l1.89-0.021c1.19-0.020 2.842-0.058 4.898-0.13 4.096-0.145 9.835-0.429 16.734-0.988 13.666-1.108 32.512-3.345 52.48-7.953 19.648-4.535 42.402-11.815 62.69-23.988 20.399-12.239 41.259-31.291 50.859-60.094 10.675-32.024 9.118-70.528 5.227-101.972-2.675-21.609-6.857-42.742-11.076-60.854h169.327c53.85 0 94.238-49.263 83.678-102.067l-53.001-264.998c-11.52-5.577-24.35-9.382-38.447-11.947-16.286-2.961-33.617-4.164-51.895-4.655l59.665 298.334h-195.691c-43.917 0-73.229 42.193-62.426 82.142 5.333 19.715 11.797 47.204 15.181 74.529 3.554 28.737 2.889 51.351-1.498 64.503-1.067 3.197-4.207 8.145-13.807 13.906-9.711 5.828-22.959 10.548-37.978 14.013-7.441 1.717-14.827 3.017-21.734 3.997-3.558-17.233-8.678-38.939-15.804-62.684-15.155-50.528-40.815-115.312-83.533-164.486v-367.253h321.020c2.133 0 4.279 0 6.43 0h21.572l0.030 0.141c22.78 0.346 46.033 1.523 68.096 5.534 7.057 1.284 14.076 2.867 21.001 4.834l-5.449-27.243c-7.979-39.889-42.999-68.599-83.678-68.599h-349.022c-47.128 0-85.333 38.204-85.333 85.333v401.673l12.497 12.497c35.034 35.034 59.219 90.699 74.636 142.090 7.493 24.976 12.506 47.526 15.635 63.797 1.56 8.113 2.641 14.604 3.32 18.985 0.34 2.188 0.578 3.845 0.727 4.908l0.155 1.14 0.029 0.217 4.67 37.359h37.772z" />
<glyph unicode="&#xe941;" glyph-name="ico_like_filled" data-tags="ico_like_filled" d="M298.667 544c99.555 96 124.445 288 124.445 288s149.335 0 174.222-72c17.993-52.045-3.034-141.711-16.068-187.415-4.019-14.099 6.464-28.585 21.124-28.585h241.186c27.051 0 47.27-24.845 41.779-51.332l-81.856-394.667c-4.109-19.802-21.555-34.001-41.779-34.001h-420.386c-23.564 0-42.667 19.102-42.667 42.667v437.333zM128 533.333c0 23.564 19.103 42.667 42.667 42.667h42.667c23.564 0 42.667-19.103 42.667-42.667v-426.667c0-23.565-19.103-42.667-42.667-42.667h-42.667c-23.564 0-42.667 19.102-42.667 42.667v426.667z" />
<glyph unicode="&#xe942;" glyph-name="ico_login" data-tags="ico_login" d="M554.667 746.667c0-23.564-19.102-42.667-42.667-42.667h-170.667c-23.564 0-42.667-19.103-42.667-42.667v-399.053c-23.183 6.426-46.7 17.472-66.982 31.667-6.845 4.791-12.954 9.668-18.351 14.549v352.836c0 70.692 57.308 128 128 128h170.667c23.565 0 42.667-19.103 42.667-42.667zM213.429 229.67c2.624-68.378 58.885-123.004 127.904-123.004h170.667c23.565 0 42.667 19.102 42.667 42.667s-19.102 42.667-42.667 42.667h-170.805c-43.289 0.034-89.337 15.053-127.766 37.67zM478.592 432.175c-9.259 17.655-9.259 15.936-9.259 25.818 0 0.141 0 0.286 0.004 0.427 0.098 9.655 3.529 18.475 9.152 25.263l100.143 123.48c13.555 16.494 40.755 14.138 56.567 0.001s13.555-42.508 0-59.002l-44.19-59.002c0 0 125.171 0 142.298 0 17.122 0 98.692 5.393 98.692-41.161s-79.053-37.504-98.692-37.504h-142.298l25.335-39.334c0 0 37.709-58.999 18.854-78.669-34.095-35.563-60.395 0-75.422 19.669l-48.107 69.841-33.079 50.172z" />
<glyph unicode="&#xe943;" glyph-name="ico_microphone" data-tags="ico_microphone" d="M597.333 490.667v213.333c0 47.128-38.204 85.333-85.333 85.333s-85.333-38.205-85.333-85.333v-213.333c0-5.555 0.533-10.991 1.545-16.252-17.257 3.874-35.376 10.074-51.395 18.816-15.709 8.572-27.675 18.483-35.482 29.786v180.983c0 94.257 76.41 170.667 170.667 170.667 94.255 0 170.667-76.41 170.667-170.667v-213.333c0-94.255-76.412-170.667-170.667-170.667-74.62 0-138.058 47.893-161.249 114.615 39.381-20.305 85.132-29.184 118.582-29.184h38.532c1.37-0.064 2.748-0.098 4.134-0.098 47.13 0 85.333 38.204 85.333 85.333zM213.333 576c47.128 0 85.333-38.205 85.333-85.333 0-117.82 95.513-213.333 213.333-213.333s213.333 95.514 213.333 213.333c0 47.128 38.204 85.333 85.333 85.333v-85.333c0-119.142-69.764-221.99-170.667-269.926v-114.074h128v-85.333h-512v85.333h128c0 23.565 19.103 42.667 42.667 42.667s42.667-19.102 42.667-42.667h85.333v88.358c-13.935-1.993-28.181-3.025-42.667-3.025-164.949 0-298.667 133.717-298.667 298.667v85.333z" />
<glyph unicode="&#xe944;" glyph-name="ico_mosque" data-tags="ico_mosque" d="M448 704c0-35.346 28.655-64 64-64 19.11 0 36.245 8.351 48.004 21.673 7.799 8.834 21.278 9.674 30.114 1.878 8.832-7.797 9.673-21.278 1.877-30.112-15.040-17.040-35.49-29.261-58.662-33.969v-67.19c107.806-10.701 192-101.658 192-212.279h21.333c35.345 0 64-28.655 64-64v-106.667h42.667c23.565 0 42.667-19.102 42.667-42.667s-19.102-42.667-42.667-42.667h-682.667c-23.564 0-42.667 19.102-42.667 42.667s19.103 42.667 42.667 42.667h42.667v25.527c9.928-4.57 64-25.527 85.333-25.527h426.667v85.333h-426.667v-39.654c-22.596 3.136-46.934 9.011-68.312 18.987-6.012 2.803-11.708 5.884-17.021 9.267v32.734c0 35.345 28.654 64 64 64h21.333c0 110.622 84.196 201.579 192 212.279v67.188c-48.687 9.883-85.333 52.928-85.333 104.533 0 58.91 47.757 106.667 106.667 106.667 11.78 0 21.333-9.551 21.333-21.333s-9.553-21.333-21.333-21.333c-35.345 0-64-28.654-64-64zM512 448c-70.694 0-128-57.306-128-128h256c0 70.694-57.306 128-128 128z" />
<glyph unicode="&#xe945;" glyph-name="ico_movies" data-tags="ico_movies" d="M469.5 575.712c-28.446 16.593-64.166-3.924-64.166-36.854v-224.383c0-32.93 35.721-53.444 64.166-36.855l192.329 112.192c28.224 16.465 28.224 57.246 0 73.711l-192.329 112.19zM231.838 704h-18.505c-23.564 0-42.667-19.103-42.667-42.667v-423.364c-17.414 2.714-34.78 7.185-50.466 13.722-13.633 5.683-25.402 12.642-34.867 20.941v388.702c0 70.692 57.308 128 128 128h41.956c0.445 0.007 0.889 0.007 1.333 0h211.999c0.448 0.007 0.892 0.007 1.335 0h211.998c0.448 0.007 0.892 0.007 1.335 0h127.377c70.694 0 128-57.308 128-128v-426.667c0-70.694-57.306-128-128-128h-597.333c-65.981 0-120.303 49.924-127.249 114.057 5.777-3.119 11.708-5.918 17.706-8.418 35.251-14.686 75.526-20.305 109.539-20.305h597.338c23.565 0 42.667 19.102 42.667 42.667v426.667c0 23.564-19.102 42.667-42.667 42.667h-52.646l25.229-42.049c12.122-20.206 5.572-46.415-14.635-58.538s-46.413-5.572-58.539 14.635l-51.571 85.953h-113.818l25.229-42.049c12.122-20.206 5.572-46.415-14.635-58.538s-46.413-5.572-58.539 14.635l-51.571 85.953h-113.818l25.23-42.049c12.124-20.206 5.571-46.415-14.635-58.538s-46.415-5.572-58.538 14.635l-51.572 85.953z" />
<glyph unicode="&#xe946;" glyph-name="ico_new_page" data-tags="ico_new_page" d="M597.333 832c-23.565 0-42.667-19.103-42.667-42.667s19.102-42.667 42.667-42.667h152.994l-311.164-311.164c-16.663-16.661-16.663-43.678 0-60.339 16.661-16.661 43.678-16.661 60.339 0l311.164 311.163v-152.994c0-23.565 19.102-42.667 42.667-42.667s42.667 19.102 42.667 42.667v213.333c0 47.128-38.204 85.333-85.333 85.333h-213.333zM213.333 704c0 23.564 19.103 42.667 42.667 42.667h170.667c23.565 0 42.667 19.103 42.667 42.667s-19.102 42.667-42.667 42.667h-170.667c-70.692 0-128-57.308-128-128v-484.983c23.677-18.679 52.261-24.457 85.333-26.231v511.215zM256.317 149.333c-0.105 0-0.21-0.004-0.315-0.004h-2.826c-39.083-0.009-83.284-0.021-122.898 18.509 11.299-59.14 63.291-103.838 125.722-103.838h512c70.694 0 128 57.306 128 128v170.667c0 23.565-19.102 42.667-42.667 42.667s-42.667-19.102-42.667-42.667v-170.667c0-23.565-19.102-42.667-42.667-42.667h-511.683z" />
<glyph unicode="&#xe947;" glyph-name="ico_repair" data-tags="ico_repair" d="M725.333 277.333c0-23.564-19.103-42.667-42.667-42.667s-42.667 19.103-42.667 42.667c0 23.564 19.103 42.667 42.667 42.667s42.667-19.103 42.667-42.667zM574.511 550.794c38.144 137.329-94.788 251.334-218.493 210.143l134.086-137.203c32.405-33.159 32.405-86.126 0-119.286l-21.798-22.302c-33.476-34.257-88.582-34.257-122.058 0l-131.686 134.748c-41.482-126.159 75.292-261.771 215.566-221.899l30.639 8.708 239.885-245.461c-8.794-6.366-17.971-11.486-28.843-15.667-15.471-5.948-35.136-10.274-62.844-12.604l-174.238 178.291c-224.484-47.689-400.428 203.895-269.48 400.184 16.544 24.799 51.724 28.073 72.56 6.752l169.47-173.411 21.797 22.304-169.276 173.212c-21.493 21.992-17.534 58.141 8.208 74.961 196.716 128.535 447.225-51.985 390.521-277.525l209.707-214.582c48.606-49.737 48.606-129.186 0-178.927l-43.593-44.604c-48.585-49.715-127.539-51.328-178.095-4.847 15.262 2.726 28.582 6.357 40.58 10.974 29.517 11.354 49.434 28.070 69.461 47.706 2.492 1.647 4.847 3.584 7.023 5.807l43.593 44.608c16.201 16.58 16.201 43.063 0 59.644l-243.972 249.647 11.281 40.628z" />
<glyph unicode="&#xe948;" glyph-name="ico_shopping_bag" data-tags="ico_shopping_bag" d="M341.333 618.667v-85.333c0-23.565 19.103-42.667 42.667-42.667s42.667 19.102 42.667 42.667v85.333h170.667v-85.333c0-23.565 19.102-42.667 42.667-42.667s42.667 19.102 42.667 42.667v85.333h52.378l32.26-512h-510.61l0.081 1.092c-28.076 2.944-57.667 11.844-84.264 26.897l-1.674-22.665c-3.095-49.126 36.236-90.658 85.857-90.658h510.61c49.621 0 88.951 41.532 85.858 90.658l-32.26 511.998c-2.833 44.974-40.431 80.010-85.858 80.010h-52.378c0 94.257-76.412 170.667-170.667 170.667-94.257 0-170.667-76.41-170.667-170.667h-46.828c-45.426 0-83.023-35.037-85.857-80.010l-27.592-407.021c5.669-9.583 13.64-17.86 23.411-24.969 17.347-12.617 39.142-20.369 59.303-22.912l30.735 449.579h46.828zM426.667 704c0 47.128 38.204 85.333 85.333 85.333s85.333-38.205 85.333-85.333h-170.667z" />
<glyph unicode="&#xe949;" glyph-name="ico_verified" data-tags="ico_verified" d="M607.369 832.105c-50.88 56.832-139.857 56.832-190.735 0l-29.899-33.398c-8.643-9.655-21.206-14.858-34.144-14.143l-44.758 2.474c-76.163 4.211-139.081-58.708-134.87-134.87l2.474-44.758c0.715-12.939-4.488-25.501-14.143-34.144l-33.398-29.899c-56.832-50.878-56.832-139.86 0-190.735l33.398-29.901c9.655-8.64 14.858-21.205 14.143-34.142l-2.474-44.757c-4.211-76.164 58.708-139.081 134.87-134.869l44.758 2.47c12.939 0.717 25.501-4.484 34.144-14.14l29.899-33.399c50.878-56.832 139.86-56.832 190.735 0l29.901 33.399c8.64 9.655 21.205 14.857 34.142 14.14l44.757-2.47c76.164-4.211 139.081 58.705 134.869 134.869l-2.47 44.757c-0.717 12.937 4.484 25.502 14.14 34.142l33.399 29.901c56.832 50.876 56.832 139.857 0 190.735l-33.399 29.899c-9.655 8.643-14.857 21.206-14.14 34.144l2.47 44.758c4.211 76.163-58.705 139.081-134.869 134.87l-44.757-2.474c-12.937-0.715-25.502 4.488-34.142 14.143l-29.901 33.398zM480.213 775.188c16.956 18.944 46.618 18.944 63.578 0l29.897-33.398c25.933-28.965 63.62-44.575 102.434-42.429l44.757 2.474c25.387 1.404 46.362-19.569 44.958-44.957l-2.475-44.758c-2.146-38.816 13.466-76.503 42.428-102.433l33.399-29.901c18.944-16.956 18.944-46.618 0-63.578l-33.399-29.897c-28.962-25.933-44.574-63.62-42.428-102.434l2.475-44.757c1.404-25.387-19.571-46.362-44.958-44.958l-44.757 2.475c-38.814 2.146-76.501-13.466-102.434-42.428l-29.897-33.399c-16.96-18.944-46.622-18.944-63.578 0l-29.901 33.399c-25.929 28.962-63.617 44.574-102.433 42.428l-44.758-2.475c-25.388-1.404-46.36 19.571-44.957 44.958l2.474 44.757c2.146 38.814-13.465 76.501-42.429 102.434l-33.398 29.897c-18.944 16.96-18.944 46.622 0 63.578l33.398 29.901c28.965 25.929 44.575 63.617 42.429 102.433l-2.474 44.758c-1.404 25.388 19.569 46.36 44.957 44.957l44.758-2.474c38.816-2.146 76.503 13.465 102.433 42.429l29.901 33.398zM713.971 511.147c15.151 14.839 15.151 38.891 0 53.727-15.147 14.836-39.706 14.836-54.852 0l-187.934-184.065-108.487 91.072c-16.265 13.653-40.751 11.81-54.693-4.117-13.941-15.932-12.058-39.915 4.207-53.568l153.080-131.793c3.341-2.871 8.316-2.735 11.49 0.32l237.188 228.425z" />
</font>
</defs>
</svg>
