<svg width="24" height="24" viewBox="0 0 24 24" fill="none" xmlns="http://www.w3.org/2000/svg">
<g clip-path="url(#clip0_9493_6437)">
<path d="M0.543976 23.456L2.39188 16.9884C1.48398 15.3197 0.999998 13.4443 0.999998 11.5C0.999998 5.14873 6.14872 0 12.5 0C18.8513 0 24 5.14873 24 11.5C24 17.8513 18.8513 23 12.5 23C10.5557 23 8.68025 22.516 7.01162 21.6081L0.543976 23.456Z" fill="#F7F9FA"></path>
<path d="M3.45602 20.544L7.28098 19.4511L7.6519 19.6717C9.10671 20.5369 10.7682 21 12.5 21C17.7467 21 22 16.7467 22 11.5C22 6.25329 17.7467 2 12.5 2C7.25329 2 3 6.25329 3 11.5C3 13.2318 3.46312 14.8933 4.32829 16.3481L4.54887 16.719L3.45602 20.544Z" fill="#25D366"></path>
<path d="M18.4573 14.1377C18.3829 14.0169 18.1863 13.9439 17.8914 13.7988C17.5959 13.6537 16.1439 12.9507 15.874 12.8543C15.6033 12.7575 15.406 12.7089 15.2094 12.9994C15.0129 13.2902 14.4469 13.9439 14.2744 14.1377C14.1021 14.332 13.93 14.3563 13.6345 14.2109C13.3396 14.0658 12.3884 13.7588 11.2606 12.7697C10.3831 12 9.79043 11.0498 9.61814 10.7587C9.44612 10.4682 9.60015 10.3111 9.74763 10.1666C9.88066 10.0363 10.0431 9.82738 10.1906 9.65793C10.3387 9.48821 10.3877 9.3674 10.4856 9.17336C10.5846 8.97958 10.5352 8.81013 10.4611 8.66446C10.3875 8.51934 9.79643 7.09022 9.55053 6.50862C9.30464 5.92757 9.05901 6.02432 8.88645 6.02432C8.71443 6.02432 8.51733 6 8.32051 6C8.12368 6 7.80363 6.0727 7.53293 6.36323C7.2625 6.65402 6.5 7.35669 6.5 8.78554C6.5 10.2147 7.55746 11.5954 7.70549 11.7889C7.85297 11.9824 9.74736 15.0104 12.7488 16.1733C15.7506 17.3357 15.7506 16.9478 16.292 16.8992C16.8328 16.8508 18.0383 16.1968 18.2853 15.519C18.5307 14.8401 18.5307 14.2588 18.4573 14.1377Z" fill="white"></path>
</g>
<defs>
<clippath id="clip0_9493_6437">
<rect width="24" height="24" fill="white"></rect>
</clippath>
</defs>
</svg>