<?xml version="1.0" encoding="utf-8"?>
<!-- Generator: Adobe Illustrator 25.3.1, SVG Export Plug-In . SVG Version: 6.00 Build 0)  -->
<svg version="1.1" id="Layer_1" xmlns="http://www.w3.org/2000/svg" xmlns:xlink="http://www.w3.org/1999/xlink" x="0px" y="0px"
	 viewBox="0 0 512 512" style="enable-background:new 0 0 512 512;" xml:space="preserve">
<style type="text/css">
	.st0{fill:#0CA2BF;}
</style>
<path class="st0" d="M353.8,191.2c4-12.6,23.6-30.9,35.7-16.7c-9.1-40.1-73.7-24.7-72.1,11.6c-4.5-8.3-3.9-27.9,5.8-32.8
	c-28.5,5.7-34.3,37-26.8,60.7c2.4,7.7,7,17,2.2,24.9c-9.7,16.1-42,0.1-53.1-6.1c-27.7-15.6-32.5-44.1-52.5-66.2
	c-5.7-6.3-14.3-11.9-23.4-15c21.6-14.8-10.6-33.1-4.4-50.2c-14.6-0.3-7.8,17.5-6.3,25.8c1,5.5,1.1,11.2-5.3,13.3
	c-8.8,2.9-5.3-13.3-5.6-17.6c-0.6-7.1-7.6-13.2-9.9-3.6c-1.6,6.8,2.6,11.1,3.8,17.6c1.1,5.9-6.1,9.8-8.8,3.7
	c-1.7-3.9-2.3-11.2-7.4-12.1c1.1,2.5,2.6,7.6,0.1,11.5c0,0-5.6,7.6-1.7,14.1c3,4.3,8.2,3,12.6,2.4c-1.9,1.8-3.6,3.8-5,6.3
	c-0.5,0.9-0.9,1.7-1.3,2.6c-7.5,0.9-16,8-16.9,15.3c6-0.9,11.2-1.7,17-1.9c2.7,7.6,8.7,14.9,11.4,22.2c4.6,14.6,6.8,30.3,5.8,45.6
	c-1.9,29.6-3.7,54.2,20.2,75.7c14.2,12.8,32.2,20,50.9,23.3c3.3,6.2,5.9,12.6,6.2,19.9c0.4,11.2-6.7,10.2-15.4,8.6
	c-11.8-2.1-23.9,3.7-32.5,11.4c9.4-1.4,18.8-2,28.3-2.2c-4.6,0.6-10.4,3.2-12.3,7.4c3.4-0.3,6.6-1.1,10-1.7
	c4.6-0.9,9.4-0.6,14.3-0.6c0.5,0,1-0.1,1.5-0.1l-0.1,0c0,0,13.2,0.1,18.8-9.4c4,0.1,13.3,0.7,17.8,3.3c-3.1-4.1-7.6-7.3-12.1-9.8
	c0.5,0.3,0.6,0.3-1.1-0.6c-8.2-2.7-8-14.5-6.8-24.3c3.6,0.2,7.2,0.4,10.7,0.4c-1.8,0.1-2.3,0.1,1.4,0c6.1,11,14,21.3,14.5,34.2
	c0.4,11.2-6.6,10.2-15.4,8.6c-11.8-2.1-23.9,3.7-32.5,11.4c13.4-2,27-2.5,40.6-2.3c-3.8,1.4-8.1,1-12,1.8
	c-4.5,0.8-10.4,3.7-12.2,8.1c3.4-0.5,6.5-1.5,9.9-2.3c4.5-1.1,9.4-1.1,14.2-1.4c0.5,0,1-0.1,1.5-0.2l0,0c0,0,13.1-0.6,18.2-10.4
	c3.9,0.1,13.6,0.7,18.1,3.4c-3.1-4.2-7.7-7.4-12.3-10c0.5,0.2,0.7,0.3-1-0.6c-11.8-3.8-6.2-26.5-5.3-35c0.3-2.4,0.6-5.6,0.7-8.9
	c0,0,0,0,0.1,0c0.4-8.2,0.5-30.4-8.1-45.5c0,0,12.7,22.4,13,44.1c11.8-3.3,23-8.6,32.1-16.4c12.9-11.1,19.6-26.9,20.2-43.8
	c14.9-5.8,34.6-30,44.5-2.7c10.4-14.9,9.1-44.2-9.5-52.4c9.5,0,18.1,5,26.2,9.5C401.3,219.7,367.1,170.5,353.8,191.2z M153.9,175.3
	c-2.8,0-5-2.2-5-5c0-2.8,2.2-5,5-5c2.8,0,5,2.2,5,5C158.9,173.1,156.7,175.3,153.9,175.3z"/>
</svg>
