<?xml version="1.0" encoding="UTF-8" standalone="no"?>
<svg
   xmlns:dc="http://purl.org/dc/elements/1.1/"
   xmlns:cc="http://creativecommons.org/ns#"
   xmlns:rdf="http://www.w3.org/1999/02/22-rdf-syntax-ns#"
   xmlns:svg="http://www.w3.org/2000/svg"
   xmlns="http://www.w3.org/2000/svg"
   xmlns:sodipodi="http://sodipodi.sourceforge.net/DTD/sodipodi-0.dtd"
   xmlns:inkscape="http://www.inkscape.org/namespaces/inkscape"
   viewBox="0 0 269.256 169.09"
   version="1.1"
   id="svg32"
   sodipodi:docname="ticket-red.svg"
   width="269.25601"
   height="169.09"
   inkscape:version="0.92.3 (2405546, 2018-03-11)">
  <metadata
     id="metadata38">
    <rdf:RDF>
      <cc:Work
         rdf:about="">
        <dc:format>image/svg+xml</dc:format>
        <dc:type
           rdf:resource="http://purl.org/dc/dcmitype/StillImage" />
        <dc:title>xvideosred</dc:title>
      </cc:Work>
    </rdf:RDF>
  </metadata>
  <defs
     id="defs36" />
  <sodipodi:namedview
     pagecolor="#ffffff"
     bordercolor="#666666"
     borderopacity="1"
     objecttolerance="10"
     gridtolerance="10"
     guidetolerance="10"
     inkscape:pageopacity="0"
     inkscape:pageshadow="2"
     inkscape:window-width="1920"
     inkscape:window-height="1016"
     id="namedview34"
     showgrid="false"
     fit-margin-top="0"
     fit-margin-left="0"
     fit-margin-right="0"
     fit-margin-bottom="0"
     inkscape:zoom="1.3141636"
     inkscape:cx="-178.35777"
     inkscape:cy="66.152089"
     inkscape:window-x="0"
     inkscape:window-y="27"
     inkscape:window-maximized="1"
     inkscape:current-layer="svg32" />
  <title
     id="title2">xvideosred</title>
  <path
     d="m 263.371,158.012 a 5.882,5.882 0 0 1 5.885,-5.88 v -5.373 a 5.8825,5.8825 0 0 1 0,-11.765 v -5.373 a 5.8825,5.8825 0 0 1 0,-11.765 v -10.061 a 23.395,23.395 0 0 1 0,-46.79 V 50.952 a 5.844,5.844 0 0 1 0,-11.206 v -5.932 a 5.844,5.844 0 0 1 0,-11.206 v -5.932 a 5.844,5.844 0 0 1 0,-11.206 V 0 H 0 v 5.326 a 5.882,5.882 0 1 1 0,11.5 v 5.642 a 5.882,5.882 0 1 1 0,11.5 v 5.642 a 5.882,5.882 0 1 1 0,11.5 v 9.922 a 23.376,23.376 0 0 1 0,46.743 v 10.13 a 5.852,5.852 0 0 1 0,11.671 v 5.467 a 5.852,5.852 0 0 1 0,11.671 v 5.467 a 5.852,5.852 0 0 1 0,11.671 v 5.238 h 269.256 v -5.191 a 5.882,5.882 0 0 1 -5.885,-5.887 z"
     style="fill:#de2600"
     id="path22"
     inkscape:connector-curvature="0" />
  <g
     id="g30"
     transform="translate(-786.929,-11.945)">
    <path
       d="m 805.7,346.1 h -14.733 a 6.125,6.125 0 0 1 -5.873,-3.4 l -11.65,-22.463 a 6,6 0 0 0 -1.829,-2.1 5.264,5.264 0 0 0 -2.889,-0.664 h -4.141 V 346.1 h -16.271 v -77.375 h 22.819 a 42.728,42.728 0 0 1 12.974,1.726 23.572,23.572 0 0 1 8.762,4.806 18.168,18.168 0 0 1 4.935,7.275 26.3,26.3 0 0 1 1.541,9.134 26.891,26.891 0 0 1 -0.915,7.116 22.994,22.994 0 0 1 -2.7,6.187 21.92,21.92 0 0 1 -4.405,5.071 22.985,22.985 0 0 1 -6.042,3.664 14.8,14.8 0 0 1 2.985,2.257 15.524,15.524 0 0 1 2.5,3.213 z m -34.565,-41 a 15.312,15.312 0 0 0 5.656,-0.929 9.783,9.783 0 0 0 5.994,-6.426 16.175,16.175 0 0 0 0.674,-4.752 10.483,10.483 0 0 0 -3.009,-7.966 q -3.01,-2.867 -9.315,-2.868 h -6.548 V 305.1 Z"
       transform="translate(86,-210.923)"
       style="fill:#ffffff"
       id="path24"
       inkscape:connector-curvature="0" />
    <path
       d="m 827.987,282.532 v 18.055 h 22.049 v 13.275 h -22.049 v 18.428 h 28.789 v 13.81 h -45.157 v -77.375 h 45.157 v 13.807 z"
       transform="translate(86,-210.923)"
       style="fill:#ffffff"
       id="path26"
       inkscape:connector-curvature="0" />
    <path
       d="m 930.433,307.384 a 44.27,44.27 0 0 1 -2.624,15.479 36.687,36.687 0 0 1 -7.39,12.267 33.324,33.324 0 0 1 -11.481,8.072 37.267,37.267 0 0 1 -14.9,2.894 H 866.79 v -77.371 h 27.248 a 36.983,36.983 0 0 1 14.9,2.921 33.814,33.814 0 0 1 11.481,8.072 36.4,36.4 0 0 1 7.39,12.24 44.116,44.116 0 0 1 2.624,15.426 z m -16.657,0 a 36.981,36.981 0 0 0 -1.348,-10.355 22.888,22.888 0 0 0 -3.876,-7.833 17.013,17.013 0 0 0 -6.186,-4.939 19.31,19.31 0 0 0 -8.329,-1.726 h -10.88 v 49.759 h 10.88 a 19.3,19.3 0 0 0 8.329,-1.726 17,17 0 0 0 6.186,-4.938 22.886,22.886 0 0 0 3.876,-7.833 37.185,37.185 0 0 0 1.348,-10.409 z"
       transform="translate(86,-210.923)"
       style="fill:#ffffff"
       id="path28"
       inkscape:connector-curvature="0" />
  </g>
</svg>
