<?xml version="1.0" encoding="utf-8"?>
<!-- Generator: Adobe Illustrator 16.0.0, SVG Export Plug-In . SVG Version: 6.00 Build 0)  -->
<!DOCTYPE svg PUBLIC "-//W3C//DTD SVG 1.1//EN" "http://www.w3.org/Graphics/SVG/1.1/DTD/svg11.dtd">
<svg version="1.1" id="Capa_1" xmlns="http://www.w3.org/2000/svg" xmlns:xlink="http://www.w3.org/1999/xlink" x="0px" y="0px"
	 width="612px" height="792px" viewBox="0 0 612 792" enable-background="new 0 0 612 792" xml:space="preserve">
<g>
	<g>
		<circle fill="#f39e04" cx="435.094" cy="257.463" r="38.25"/>
	</g>
</g>
<g>
	<g>
		<path fill="#f39e04" d="M605.426,288.302c-12.79-32.512-36.218-79.369-75.186-118.216
			c-38.967-38.728-85.345-61.439-117.379-73.751C377.6,82.828,337.676,91.315,310.9,117.97l-93.832,93.474
			c-27.851,27.731-35.859,70.284-19.962,106.024c4.901,11.117,10.28,21.875,16.017,32.393L7.052,555.933
			C2.51,560.475,0,566.451,0,572.787v105.188c0,13.148,10.758,23.906,23.906,23.906h105.188c13.148,0,23.906-10.758,23.906-23.906
			v-43.031h43.031c13.148,0,23.906-10.758,23.906-23.906v-43.031h43.031c13.148,0,23.906-10.758,23.906-23.906
			s-10.758-23.906-23.906-23.906h-66.938c-13.148,0-23.906,10.758-23.906,23.906v43.031h-43.031
			c-13.148,0-23.906,10.758-23.906,23.906v43.031H47.813v-71.36l212.048-212.049c7.77-7.77,9.204-19.842,3.586-29.285
			c-8.248-13.626-15.897-28.209-22.591-43.39c-7.889-17.69-3.825-38.967,10.041-52.713l93.833-93.473
			c13.387-13.388,33.469-17.571,51.159-10.877c27.731,10.638,67.774,30.122,100.765,62.993
			c33.11,32.991,53.311,73.631,64.428,101.841c6.933,17.571,2.749,37.652-10.758,51.04l-95.027,94.549
			c-13.866,13.746-34.545,17.811-52.594,10.28c-14.941-6.216-29.405-13.627-43.031-21.994c-11.236-6.933-25.938-3.347-32.871,7.889
			c-6.934,11.236-3.348,25.938,7.889,32.871c15.778,9.683,32.393,18.169,49.725,25.341c35.979,14.941,77.098,6.933,104.71-20.56
			l95.027-94.549C610.805,363.966,619.291,323.684,605.426,288.302z"/>
	</g>
</g>
</svg>
