<?xml version="1.0" encoding="utf-8"?>
<!-- Generator: Adobe Illustrator 16.0.0, SVG Export Plug-In . SVG Version: 6.00 Build 0)  -->
<!DOCTYPE svg PUBLIC "-//W3C//DTD SVG 1.1//EN" "http://www.w3.org/Graphics/SVG/1.1/DTD/svg11.dtd">
<svg version="1.1" id="Layer_1" xmlns="http://www.w3.org/2000/svg" xmlns:xlink="http://www.w3.org/1999/xlink" x="0px" y="0px"
	 width="612px" height="792px" viewBox="0 0 612 792" enable-background="new 0 0 612 792" xml:space="preserve">
<path fill="#f39e04" d="M563.471,478.477c-20.32-17.811-44.824-33.229-73.153-45.78c-12.073-5.379-26.178,0.119-31.557,12.192
	c-5.379,12.072,0.12,26.177,12.192,31.556c23.787,10.639,44.346,23.309,60.961,38.011c20.56,18.05,32.273,44.107,32.273,71.6v44.227
	c0,13.148-10.758,23.906-23.906,23.906H71.719c-13.148,0-23.906-10.758-23.906-23.906v-44.227c0-27.492,11.714-53.67,32.273-71.6
	c24.146-21.276,94.549-70.643,225.914-70.643c97.537,0,176.906-79.369,176.906-176.906S403.537,90,306,90
	c-97.538,0-176.906,79.369-176.906,176.906c0,57.017,27.134,107.817,69.208,140.21c-76.978,16.854-124.791,49.366-149.772,71.36
	C17.69,505.61,0,544.816,0,586.055v44.227C0,669.846,32.154,702,71.719,702h468.563C579.846,702,612,669.846,612,630.281v-44.227
	C612,544.816,594.31,505.61,563.471,478.477z M176.906,266.906c0-71.241,57.853-129.094,129.094-129.094
	c71.24,0,129.094,57.853,129.094,129.094S377.24,396,306,396C234.759,396,176.906,338.147,176.906,266.906z"/>
</svg>
