<svg width="28" height="28" viewBox="0 0 28 28" fill="none" xmlns="http://www.w3.org/2000/svg">
<g clip-path="url(#clip0_191_1009)">
<path d="M23.8563 23.8572H19.7076V17.36C19.7076 15.8107 19.68 13.8163 17.5499 13.8163C15.3891 13.8163 15.0584 15.5044 15.0584 17.2473V23.8568H10.9098V10.496H14.8925V12.3219H14.9483C15.3469 11.6404 15.9228 11.0797 16.6148 10.6996C17.3068 10.3196 18.089 10.1343 18.8779 10.1636C23.0828 10.1636 23.8581 12.9295 23.8581 16.5277L23.8563 23.8572ZM6.22859 8.66974C4.89891 8.66996 3.82081 7.59218 3.82059 6.2625C3.82037 4.93283 4.89804 3.85472 6.22771 3.8545C7.55738 3.85418 8.63549 4.93196 8.63571 6.26163C8.63583 6.90016 8.38229 7.51259 7.93087 7.9642C7.47945 8.4158 6.86712 8.66959 6.22859 8.66974ZM8.30299 23.8573H4.14991V10.496H8.30288V23.8572L8.30299 23.8573ZM25.9246 0.00154958H2.06523C0.93757 -0.0111379 0.0128047 0.89219 -0.000976562 2.01985V25.9788C0.0123672 27.107 0.937023 28.0112 2.06512 27.9994H25.9246C27.0551 28.0134 27.9834 27.1092 27.999 25.9788V2.01799C27.9829 0.888143 27.0546 -0.0150754 25.9246 -0.000309793" fill="#0A66C2"/>
</g>
<defs>
<clipPath id="clip0_191_1009">
<rect width="28" height="28" fill="white"/>
</clipPath>
</defs>
</svg>
