<svg width="1440" height="499" viewBox="0 0 1440 499" fill="none" xmlns="http://www.w3.org/2000/svg">
<g clip-path="url(#clip0_3108_493)">
<rect width="1440" height="499" fill="url(#paint0_linear_3108_493)"/>
<path d="M345.496 810L345.496 -278.939" stroke="#9E5FBC" stroke-opacity="0.3" stroke-width="0.613183"/>
<path d="M413.67 810L413.67 -278.939" stroke="#9E5FBC" stroke-opacity="0.3" stroke-width="0.613183"/>
<path d="M481.846 810L481.846 -278.939" stroke="#9E5FBC" stroke-opacity="0.3" stroke-width="0.613183"/>
<path d="M550.02 810L550.02 -278.939" stroke="#9E5FBC" stroke-opacity="0.3" stroke-width="0.613183"/>
<path d="M618.196 810L618.196 -278.939" stroke="#9E5FBC" stroke-opacity="0.3" stroke-width="0.613183"/>
<path d="M686.37 810L686.37 -278.939" stroke="#9E5FBC" stroke-opacity="0.3" stroke-width="0.613183"/>
<path d="M754.545 810L754.545 -278.939" stroke="#9E5FBC" stroke-opacity="0.3" stroke-width="0.613183"/>
<path d="M822.721 810L822.721 -278.939" stroke="#9E5FBC" stroke-opacity="0.3" stroke-width="0.613183"/>
<path d="M890.895 810L890.895 -278.939" stroke="#9E5FBC" stroke-opacity="0.3" stroke-width="0.613183"/>
<path d="M959.071 810L959.071 -278.939" stroke="#9E5FBC" stroke-opacity="0.3" stroke-width="0.613183"/>
<path d="M1027.25 810L1027.25 -278.939" stroke="#9E5FBC" stroke-opacity="0.3" stroke-width="0.613183"/>
<path d="M1095.42 810L1095.42 -278.939" stroke="#9E5FBC" stroke-opacity="0.3" stroke-width="0.613183"/>
<path d="M1163.6 810L1163.6 -278.939" stroke="#9E5FBC" stroke-opacity="0.3" stroke-width="0.613183"/>
<path d="M1231.77 810L1231.77 -278.939" stroke="#9E5FBC" stroke-opacity="0.3" stroke-width="0.613183"/>
<path d="M1299.95 810L1299.95 -278.939" stroke="#9E5FBC" stroke-opacity="0.3" stroke-width="0.613183"/>
<path d="M1368.12 810L1368.12 -278.939" stroke="#9E5FBC" stroke-opacity="0.3" stroke-width="0.613183"/>
<path d="M1436.3 810L1436.3 -278.939" stroke="#9E5FBC" stroke-opacity="0.3" stroke-width="0.613183"/>
<path d="M1500.27 468.574L278.808 468.574" stroke="#9E5FBC" stroke-opacity="0.3" stroke-width="0.613183"/>
<path d="M1500.27 400.933L278.808 400.933" stroke="#9E5FBC" stroke-opacity="0.3" stroke-width="0.613183"/>
<path d="M1500.27 333.293L278.808 333.293" stroke="#9E5FBC" stroke-opacity="0.3" stroke-width="0.613183"/>
<path d="M1500.27 265.653L278.808 265.653" stroke="#9E5FBC" stroke-opacity="0.3" stroke-width="0.613183"/>
<path d="M1500.27 198.012L278.808 198.012" stroke="#9E5FBC" stroke-opacity="0.3" stroke-width="0.613183"/>
<path d="M1500.27 130.372L278.808 130.372" stroke="#9E5FBC" stroke-opacity="0.3" stroke-width="0.613183"/>
<path d="M1500.27 62.7321L278.808 62.7321" stroke="#9E5FBC" stroke-opacity="0.3" stroke-width="0.613183"/>
<g filter="url(#filter0_f_3108_493)">
<ellipse cx="340.755" cy="342.399" rx="793.331" ry="436.36" transform="rotate(38.0193 340.755 342.399)" fill="#28103B"/>
</g>
</g>
<defs>
<filter id="filter0_f_3108_493" x="-561.78" y="-477.126" width="1805.07" height="1639.05" filterUnits="userSpaceOnUse" color-interpolation-filters="sRGB">
<feFlood flood-opacity="0" result="BackgroundImageFix"/>
<feBlend mode="normal" in="SourceGraphic" in2="BackgroundImageFix" result="shape"/>
<feGaussianBlur stdDeviation="111.016" result="effect1_foregroundBlur_3108_493"/>
</filter>
<linearGradient id="paint0_linear_3108_493" x1="1468" y1="-22.5274" x2="-47.8155" y2="728.646" gradientUnits="userSpaceOnUse">
<stop stop-color="#221D5E"/>
<stop offset="1" stop-color="#290B30"/>
</linearGradient>
<clipPath id="clip0_3108_493">
<rect width="1440" height="499" fill="white"/>
</clipPath>
</defs>
</svg>
