<svg width="1440" height="487" viewBox="0 0 1440 487" fill="none" xmlns="http://www.w3.org/2000/svg">
<g clip-path="url(#clip0_298_947)">
<rect width="1440" height="487" fill="white"/>
<rect width="1440" height="487" fill="url(#paint0_linear_298_947)"/>
<path d="M-307 -496.998L-307 1014L1747.96 1014V-496.999M-246.56 1014L-246.56 -496.999M-186.12 1014L-186.12 -496.999M-125.68 1014L-125.68 -496.999M-65.2397 1014L-65.2397 -496.999M-4.79988 1014L-4.79988 -496.999M55.6401 1014L55.6401 -496.999M116.08 1014L116.08 -496.999M176.52 1014L176.52 -496.999M236.96 1014L236.96 -496.999M297.4 1014L297.4 -496.999M357.84 1014L357.84 -496.999M780.92 1014V-496.999M418.28 1014L418.28 -496.999M841.36 1014V-496.999M478.72 1014L478.72 -496.999M901.8 1014V-496.999M539.16 1014L539.16 -496.999M962.24 1014V-496.999M1204 1014V-496.999M1566.64 1014V-496.999M599.6 1014L599.6 -496.999M1022.68 1014V-496.999M1264.44 1014V-496.999M1627.08 1014V-496.999M660.04 1014L660.04 -496.999M1083.12 1014V-496.999M1445.76 1014V-496.999M1324.88 1014V-496.999M1687.52 1014V-496.999M720.48 1014V-496.999M1143.56 1014V-496.999M1506.2 1014V-496.999M1385.32 1014V-496.999M-307 -497L1747.96 -497M-307 -436.56L1747.96 -436.56M-307 -376.12L1747.96 -376.12M-307 -315.68L1747.96 -315.68M-307 -255.24L1747.96 -255.24M-307 -194.8L1747.96 -194.8M-307 -134.36L1747.96 -134.36M-307 -73.9199L1747.96 -73.9199M-307 -13.4798L1747.96 -13.4797M-307 46.96L1747.96 46.9602M-307 107.4L1747.96 107.4M-307 590.921L1747.96 590.921M-307 167.84L1747.96 167.84M-307 651.361L1747.96 651.361M-307 228.28L1747.96 228.28M-307 711.801L1747.96 711.801M-307 288.72L1747.96 288.72M-307 772.241L1747.96 772.241M-307 349.16L1747.96 349.16M-307 832.681L1747.96 832.681M-307 409.6L1747.96 409.6M-307 893.121L1747.96 893.121M-307 470.04L1747.96 470.041M-307 953.561L1747.96 953.562M-307 530.481L1747.96 530.481" stroke="white" stroke-opacity="0.2" stroke-width="1.5"/>
</g>
<defs>
<linearGradient id="paint0_linear_298_947" x1="720" y1="0" x2="720" y2="487" gradientUnits="userSpaceOnUse">
<stop stop-color="#6E4BDC"/>
<stop offset="1" stop-color="#058FD5"/>
</linearGradient>
<clipPath id="clip0_298_947">
<rect width="1440" height="487" fill="white"/>
</clipPath>
</defs>
</svg>
