<?xml version="1.0" encoding="utf-8"?>
<!-- Generator: Adobe Illustrator 25.3.1, SVG Export Plug-In . SVG Version: 6.00 Build 0)  -->
<svg version="1.1" id="Layer_1" xmlns="http://www.w3.org/2000/svg" xmlns:xlink="http://www.w3.org/1999/xlink" x="0px" y="0px"
	 viewBox="0 0 512 512" style="enable-background:new 0 0 512 512;" xml:space="preserve">
<style type="text/css">
	.st0{fill:#0CA2BF;}
</style>
<path class="st0" d="M421.9,198.9c-1.1-2.4-3.1-4.1-5.5-5c1.1-1.5,1.8-3.3,2.1-5.3c0.3-2.6-0.4-5.4-1.9-7.7
	c-1.4-2.3-4.2-4.3-7.5-4.2c-0.4,0-0.8,0.1-1.2,0.1l-0.4,0.1c-0.3,0.1-0.4,0.1-0.6,0.1c-0.7,0.2-1.3,0.4-2,0.7
	c-1.3,0.6-2.5,1.4-3.5,2.4c-2,2-3.2,4.6-3.9,7.1c-0.2,0.8-0.3,1.5-0.5,2.3c-0.9-0.9-1.8-1.9-2.8-2.8c0.5,0.4,0.4,0.3-1.2-1.1
	c-4.9-3.9-4.1-3.2-2.3-1.8c-17.1-12.5-38.9-16.9-59.4-20.1c-21.9-3.4-44.2-4.5-66.4-3.6c-27,1.1-54.4,5.1-79.9,14.4
	c-1.9,0.7-3.7,1.5-5.5,2.2c3.2,6.1,0.3,12.7,0.3,12.7c-1.3-13.2-12.8-19.6-16.9-21.5c-9.8-4.1-21.6-4.1-32.1-4.1
	c7.1,6.2,10.4,17.2,14.4,27.5c-14.9-7.1-36-3.6-51.1-3.6c13.3,8.6,14.3,25.8,33.4,27.6c0.9,0.2,1.8,0.4,2.8,0.4
	c-0.4,0.8-0.8,1.7-1.1,2.5c-1.3,3.7-2.1,7.6-2.4,11.6c-0.2,2.1,0.2,4.5-0.6,6.5c-2.7,7-8.7,12.4-14.6,16.7c-2.8,2.1-5.8,3.9-8.9,5.7
	c-2,1.1-2.6,1-1.6,3.3c0.8,1.7,1.7,3.3,3,4.6c8.8,9.2,25,1.3,35-1.2c-6.9,2.6-13.7,5.6-20.3,8.9c12.6-0.6,25.1,1.7,37.6,3
	c12.7,1.3,25.4,1.2,38.2,2c5.1,0.3,10.2,0.9,15.2,1.5c1.3,3.5,2.5,6.7,3,8.8c4.1,19.3,9,35.3,9,55.6c14.7,2.1,16.3-15,17.9-30
	c1.3-13.2,3.2-25.7,3.8-38.7c0.6-7.4,1-16.3,0.2-23.6c0,0,6.2,14.3,5.1,33c7.1,0.8,14.1,1.4,21.3,1.5c24.8,0.4,49.4-3.9,72.9-11.7
	c1.5-0.5,3-1,4.4-1.6c-12.7-10.5-20-22.8-22.6-27.7c1.8,3.1,4.6,6,7.9,8.8h0c0,0,0.1,0.1,0.3,0.2c1.4,1.2,2.8,2.3,4.2,3.4
	c7,5.8,20.1,17,23.4,23.2c5.3,8.8,9.8,17.7,7.2,27.3c-3.2,11.8-10.7,22.5-16,33.2c12.8,8.6,19.3-2.1,24.6-12.8
	c5.4-11.8,12.8-22.5,19.3-34.2s-2.1-20.3,3.2-31c2.7-6,5.2-11.4,7-17.1l0,0c11.8-31-2.5-49.5-2.5-49.5c-0.3-0.6-0.7-1.1-1.1-1.7
	c-0.1-2.7-0.1-5.3,0.4-7.8c0.4-1.9,1.1-3.7,2.2-5c0.6-0.6,1.2-1.2,2-1.6c0.4-0.2,0.8-0.4,1.2-0.6l0.3-0.1l0.4-0.1
	c0.1,0,0.3-0.1,0.5-0.1c2.8-0.5,6,3.5,5.7,7.3c0,1.7-0.8,3.3-1.9,4.7c-1.1,0-2.2,0.1-3.2,0.7c-1.6,0.9-2.6,2.7-2.9,4.3
	c0,0.2,0,0.4,0.1,0.6c0.3,0.6,1,0.9,1.6,0.7l0,0c2.2-0.9,4.4-2.1,6.2-3.9c0.1-0.1,0.2-0.2,0.2-0.3c2.3,0.5,4.5,2,5.6,4.1
	c1.3,2.4,0.5,5.4-1.3,7.5c-1.8,2.2-4.2,3.9-7,4.8c2.8-0.8,5.4-2.2,7.4-4.4c1-1.1,1.9-2.4,2.3-3.9C422.7,202,422.6,200.3,421.9,198.9
	z M148,242.2c-2.4,0-4.4-2-4.4-4.4c0-2.4,2-4.4,4.4-4.4s4.4,2,4.4,4.4S150.4,242.2,148,242.2z M323.9,244.4c0,0,0.1,0.1,0.1,0.1
	c0.1,0.2,0.2,0.5,0.3,0.7C324.1,244.8,323.9,244.4,323.9,244.4z"/>
</svg>
