<?xml version="1.0" encoding="utf-8"?>
<!-- Generator: Adobe Illustrator 25.3.1, SVG Export Plug-In . SVG Version: 6.00 Build 0)  -->
<svg version="1.1" id="Layer_1" xmlns="http://www.w3.org/2000/svg" xmlns:xlink="http://www.w3.org/1999/xlink" x="0px" y="0px"
	 viewBox="0 0 512 512" style="enable-background:new 0 0 512 512;" xml:space="preserve">
<style type="text/css">
	.st0{fill:#0CA2BF;}
</style>
<path class="st0" d="M439.8,286.1c-7-11.7-14.1-0.1-19.6,6.1c-9.8,7.3-22.2,3.2-22.3,3.2c-3.5-1.3-6.9-3.2-9.7-5.1
	c-12.3-8.5-14.8-24.2-21.5-36.6c-2.8-5.6-6-11.1-10-15.9c-0.1-0.2-0.3-0.4-0.4-0.6c-0.2-0.3-0.5-0.6-0.8-0.9c-0.6-0.7-1-1.1-1-1.1
	l0,0c-29.8-32.4-87.9-28.3-126.9-23.2c-17.8,2.1-25.1-7.3-32.4-22c-8.3-22.1-18.2-33.4-24.8-39c3.7-1.7,7-4.4,8.3-6.7
	c3.9-5.5,0-16.5-7.8-14.9c-6.2,0.7-8.8,9.9-13.6,13.7c-4.9-2-9.9-3.2-14.5-3.7c3.9-5.2,2.3-15.9-3.3-14.7
	c-4.7,1.3-3.6,10.3-5.8,14.2c-5.3,0.1-9.7,0.8-12.6,1.5c-18.8,4.5-37.6,15.8-48.1,29.8c-3.6,4.7,2.4,18.1,5.2,22.9
	c8.2,14.6,20.6-4.3,29.7,4.8c-4.3,1.9-20.7,1.6-19.9,7.8c2.1,10.4,12.5,8,17.6,3.1c10.4-10,33.4,11.4,48.5-1
	c6-4.9,10.8-10.5,14.2-16.4h0c-7.6,27.4-30.5,28.1-42.7,26.4c-2,4.7-4.5,9.4-6.8,14c-7.1,14.9-9.8,31.1-4.4,45.6l0,0
	c0,0,4,13.5,17.5,23.2c-1.6,6.4-4.6,20.9-4.3,34.3c0,0-2.1,18.2-4.8,29.3l0,0c0,0-1.4,6.1-8.3,8.8l0,0c0,0-9,1.8-6.5,10.6
	c0.5,1.5,2.1,4.4,7.2,5c5.9,0.5,12.7-0.4,17.2-2c17.2-5.5,14.1-26.7,19.6-41.6c4.4-11.1,8-21.4,9.8-32.6c3,0.7,6.1,1.2,9.1,1.7
	l10.8,1.2c0,0,1.9,9.1,7,20.1l0,0c0,0,4.2,10.4,5.6,16c0.1,0.5,0.2,0.9,0.3,1.3c0,0,0,0.1,0,0.2v0c0.3,1.6,0.4,2.3,0.5,2.5
	c0.2,1.2,0.5,2.4,0.6,3.6c0.8,8.9-1.8,11.8-3.8,12.8l0,0c0,0-0.1,0-0.1,0c-0.2,0.1-0.4,0.2-0.5,0.2c0,0-0.1,0-0.1,0
	c-3.6,1.3-5.3,3.4-5.4,3.5c-1.2,1.7-2.1,4-1.3,7.2c0,0,0.8,5.8,9.6,6.5c0,0,2.8,0.1,6.7-0.3c0.1,0,0.1,0,0.2,0
	c0.2,0,0.5-0.1,0.7-0.1c1.4-0.2,3.7-0.7,6.3-1.7c2.4-1.1,5.8-2.9,8.2-5.4c3-3.5,6-8.9,6.4-16.7c-0.2-3-0.5-5.8-0.8-8.3
	c-1.1-10.3,0.5-22.9-1.6-33.8c0,0,0,0,0,0c-1-8.6-10.1-23.9-10.1-23.9l0,0c-2.6-4.4-5.5-8.5-8.8-12.2c0,0,12.8,7,20.4,23.3
	c2.7-0.7,5.3-1.4,8-1.9c11.5-2.1,20.9-3.1,32.4-3.1c4.9,0,9.2,1.1,13.6,2.3c-1.9,4-4.6,13.6,4.5,24.9c0,0,8.9,8.2,10.6,15.8
	c-0.3,2.2-1.2,4.5-3.1,7.1c-4.7,6.3-8.9,4.2-15.7,5.2c-6.3,1-10.5,6.3-9.4,12.5c1.6,11,21.4,10.5,28.8,5.8
	c8.4-5.2,12-15.2,17.2-22.5c2.1-3.1,6.8-6.8,6.8-11c0-1.7-0.8-3.1-1.8-4.5c-10.9-9.9-14.7-21.5-15.9-31.6c0.2-0.1,0.4-0.1,0.5-0.2
	c3.5,8.8,9.1,15,11.3,17.2c0,0,0,0,0,0c5.4,5.4,12.4,9.7,21.2,12.5c6.3,2.4,18,1.6,22.7,7.1c4.7,4.7,5.5,19.6-0.8,23.5
	c-6.3,4.7-18.8-1.6-22.7,9.4c-3.9,11,14.1,12.5,21.2,12.5c7.1,0,18,0.8,23.5-4.7c5.5-5.5,5.5-18,6.3-25.1c0.8-8.6,2.4-18.8,0-27.4
	c-2.4-9.4-12.5-14.9-16.5-23.5c-2.7-5.7-3.8-11.2-4.1-16.8c0.4-1.3,0.7-2.6,1-3.9c3.8,11.2,9.9,20.8,21.8,26.2
	c11.7,5.3,25.9,5.3,37.6,0.1C430.2,312,446.5,298,439.8,286.1z M123.2,159.4l3.7-4.5l9.8,4.4l0.2,0.2
	C137,159.4,127.6,165.1,123.2,159.4z"/>
</svg>
