<?xml version="1.0" encoding="utf-8"?>
<!-- Generator: Adobe Illustrator 25.3.1, SVG Export Plug-In . SVG Version: 6.00 Build 0)  -->
<svg version="1.1" id="Layer_1" xmlns="http://www.w3.org/2000/svg" xmlns:xlink="http://www.w3.org/1999/xlink" x="0px" y="0px"
	 viewBox="0 0 512 512" style="enable-background:new 0 0 512 512;" xml:space="preserve">
<style type="text/css">
	.st0{fill:#0CA2BF;}
</style>
<g>
	<path class="st0" d="M267.3,312.5c-4.2,2.4-6.6,4.4-9.2,8.7c-4.3,9.7-1.6,29-10,35c-5.4,3.4-11.7-0.5-16-3.2
		c-5.9-3.4-7.9-5.8-5.5-12.9c2.9-6.5,5.3-8.5,2-15c-1.8-4.7-5.7-10.6-11.6-7.8c4.4,6.6,8.1,9.7,4.5,17.8
		c-5.6-5.6-12.9-11.9-20.7-6.4c6.7,0.6,14.6,6.4,13.3,13.6c-4.8-3.2-11-2.2-16.8-0.5c14.2-1.5,18.2,15.7,28.9,21.2
		c5.4,2.8,16.5,3.8,20.5,8.7c3,3.6,2.7,13.1,1.2,17.5c6.1-5,10.3-8.6,8.9-16.6c-2-8.6-1.8-10.8,3.4-18.2c4.1-7.5,2.6-15.5,6.6-23
		c4.7-8,11.1-5.1,18.1-7.9l0,0c-5.9-3.4-12-9.5-16.3-12.2L267.3,312.5z"/>
	<path class="st0" d="M129.9,369.8c-5.4-4.3-11.7-4.7-8.7-13.7c2.4-7.3,10.5-15.7,18.1-17.6c-5.8-4.3-13.6-12.2-18.5-3
		c-5.4,10.1-5.7,23.7-13.8,32.2c-10.2,10.6-21.3-4.3-29.9-9c-8.2-4.5-24.5,1.6-27.1,11.1c10.4-5.4,22.1-8.3,31,0.6
		c4.3,5.7-14.3,14-16.7,18c-1.9,3.1,0.3,8.3,4.3,6c4.4-2.5,7-7.9,10.3-11.6c2.3-2.6,5.6-4.8,7.7-0.6c0.4,0.7-8.6,19.1-3.6,17.8
		c3.6-1,6.5-11,8.4-13.9c4.1-6.1,10.1-9.4,17.4-10.2c15.5-1.6,21.4,4.8,28.9,17C139.3,384.7,136.5,375.5,129.9,369.8
		C128.4,368.6,131.5,371.1,129.9,369.8z"/>
	<path class="st0" d="M335,345.3c-6.7,1.8-10.7,6.6-16.2-1.1c-4.5-6.3-6.4-17.7-3.4-25c-6.9,2.1-17.9,3.7-13.4,13.1
		c4.9,10.3,15.7,18.6,17.8,30.2c2.5,14.5-16.1,14.6-25,18.7c-8.5,4-13.2,20.7-7.1,28.4c1.9-11.6,6.4-22.7,18.9-24.6
		c7.1-0.1,2.8,19.8,4.6,24.2c1.4,3.3,6.9,4.6,7.4,0.1c0.6-5-2.2-10.3-3.2-15.2c-0.7-3.4-0.5-7.3,4-6.5c0.8,0,10.3,18.3,12.2,13.5
		c1.4-3.5-5.1-11.8-6.2-15c-2.4-6.9-1.6-13.7,2.1-20c7.9-13.4,16.6-14.3,30.8-13.1C352.5,346.6,343.4,343.4,335,345.3
		C333,345.8,336.9,344.8,335,345.3z"/>
	<path class="st0" d="M436,301.1c0,0,1.6-0.2,3.2-0.3C438.3,300.9,437.3,301,436,301.1c-16.6,2.3-30.4-6.4-36.9-21.5
		c-1.2-2.9-2-5.9-2.8-8.9c-1.9-6.9-3.4-13.7-4.3-20.8c-0.7-5.7-0.4-12.8-4.7-17.2C374,219,343.9,249.9,336,257.9
		c-8.9,9.1-16.7,19.3-22.9,30.4c-4.5,7.9-7.6,17.9-14.3,24.2c-8.7,8.2-10.5-8.9-10.4-14.1c0.3-14.5,4.8-28.3,5.6-42.8
		c1.4-23.8-14.9-37.9-38.3-34.4c-25.2,3.8-45.9,24-62.2,42.1c-8.6,9.5-16.3,20.4-27,27.6c-1.3,0.9-2.9,1.8-4.6,2.6
		c-14.6-6.8,18-42.1,18-42.1c40-37,41.2-57.5,41.2-57.5c0.8-11.3-2.4-19.4-6-24.8c3.9,1.8,7.4,4.5,10.7,7.4
		c-0.6-9.7-8.4-17.1-17.1-20.5c6.7-5.8,20.9-4.1,27.3,1.4c-4.9-4.2-10.4-7.8-16.4-10.2c-7.6-3-16-3.5-23.2-7.5
		c5-11.7,19.7-12.5,28.6-19.8c-12.8,8.8-35.7-6.7-43.8,10.6c3.4-10.4,3.3-26.5,16-30.4c-14.7-1-22.6,15.1-32.2,23.3
		c-5.9,5-13.7,8-21.4,7.7c-9-0.3-17.2-5.5-26.4-4.5c-8.2,0.8-10.9,6.6-14.8,12.7c-4.5,6.9-15.4,4.9-22.2,3.5
		c-5.9-1.2-11.5-4.6-17.6-4.6c-11.6-0.1-1.5,11-4.1,15.2c-0.6,0.9-3.4,2.2-2.2,3.6c2.4,2.7,7.9,4,11.2,5.1
		c10.5,3.2,20.5,2.3,31.2,1.7c6.2-0.3,24.4,1.1,17.8,12c-4.2,6.9-13.9,6.5-20.3,9.8c-3.4,1.8-6.6,4-10.1,5.6
		c-3.5,1.7-7.4,1.5-10.9,2.9c-6.9,2.9,7.3,9.5,9.6,9.9c9,1.7,17.2,2,23.8,9.1c5.8,6.3,10.1,14.3,17.9,18.6
		c-8.8-8.1-7.2-22.2-16.4-30c14.7-2.9,22.8,14.6,36.2,17c-7.7-6.4-13.1-15.1-19.8-22.5c7.2-2,13.7,3.2,19.4,6.7
		c7.8,4.9,16.7,5.5,25.6,4.2c-13-1.2-24.4-9.1-30.7-20.5c11.4,3.4,24.2,2.1,34.8,8.2c-4.3-6.8-11.2-11.1-17.1-16.4
		c9.3,0.9,20.2,6.1,24.5,14.9c5.4,11.1-3.8,20.6-12.4,26.3c-19.4,12.9-41.6,20.9-59.7,36.1C97.2,267.2,88,283,87.1,300.1
		c-5.5,5.2-11.2,10.1-16.8,9.6c-6.3-0.8-8.7-7.9-10.3-12.6c-2.4-6.3-2.4-9.5,4-13.4c6.3-3.2,9.5-3.2,11.1-10.3
		c1.6-4.8,2.4-11.9-3.9-13.4c-0.8,7.9,0,12.6-7.9,16.6c-0.8-7.9-2.4-17.4-11.9-18.2c4.7,4.7,7.1,14.2,1.6,19
		c-1.6-5.5-7.1-8.7-12.6-11.1c11.9,7.9,4,23.7,8.7,34.8c2.4,5.5,10.3,13.4,10.3,19.8c0,4.7-6.3,11.9-10.3,14.2
		c7.9,0,13.4,0,17.4-7.1c3.9-7.9,5.5-9.5,14.2-11.9c2.8-1.1,5.1-2.7,7.3-4.5c0.3,2,0.8,4,1.3,6c7.1,24.6,33.6,38,58.1,34.3
		c24.3-3.6,37.6-23.5,48.9-43.2c0.3-0.4,46.8-58.8,66.5-51.3c3.1,1.5,9,8.3,0.5,38.1c-5.2,18-5.2,19.1-3.8,15.2
		c-3.1,15.2-4.2,32.1,3.4,45.1c6.2,10.8,20.2,15,31.4,9.2c12.4-6.4,19.4-21,25-33.1c8.6-18.7,17.5-38,32.2-52.9
		c5-5.1,13.8-12.3,20.9-6.4c5.9,4.9,7.3,13.7,9,20.7c2.4,10,6.6,18,14.8,24.4c34.4,26.6,63.8-8,77.6-37.6
		C463.5,290.5,450.6,299.7,436,301.1z M108.5,146.7c0,0,7.7,0.8,12.5-6.5C121,140.3,120.2,154.8,108.5,146.7z"/>
	<path class="st0" d="M264.7,290.9c0,0-10.5,26.9-7.7,42.7c2.8,15.8,1.1,0,1.1,0l16.3-2.3l0.9-29.8L264.7,290.9z"/>
</g>
</svg>
