<svg id="visual" viewBox="0 0 900 600" width="900" height="600" xmlns="http://www.w3.org/2000/svg" xmlns:xlink="http://www.w3.org/1999/xlink" version="1.1"><rect x="0" y="0" width="900" height="600" fill="#ffffff"></rect><path d="M0 415L13.7 417.3C27.3 419.7 54.7 424.3 82 425C109.3 425.7 136.7 422.3 163.8 426.8C191 431.3 218 443.7 245.2 450.8C272.3 458 299.7 460 327 458.8C354.3 457.7 381.7 453.3 409 444.3C436.3 435.3 463.7 421.7 491 419C518.3 416.3 545.7 424.7 573 427C600.3 429.3 627.7 425.7 654.8 424.3C682 423 709 424 736.2 424.5C763.3 425 790.7 425 818 423.2C845.3 421.3 872.7 417.7 886.3 415.8L900 414L900 601L886.3 601C872.7 601 845.3 601 818 601C790.7 601 763.3 601 736.2 601C709 601 682 601 654.8 601C627.7 601 600.3 601 573 601C545.7 601 518.3 601 491 601C463.7 601 436.3 601 409 601C381.7 601 354.3 601 327 601C299.7 601 272.3 601 245.2 601C218 601 191 601 163.8 601C136.7 601 109.3 601 82 601C54.7 601 27.3 601 13.7 601L0 601Z" fill="#ffde3d"></path><path d="M0 485L13.7 483.8C27.3 482.7 54.7 480.3 82 474C109.3 467.7 136.7 457.3 163.8 458.3C191 459.3 218 471.7 245.2 477.8C272.3 484 299.7 484 327 478.8C354.3 473.7 381.7 463.3 409 459.8C436.3 456.3 463.7 459.7 491 459.8C518.3 460 545.7 457 573 461C600.3 465 627.7 476 654.8 481C682 486 709 485 736.2 485.2C763.3 485.3 790.7 486.7 818 482C845.3 477.3 872.7 466.7 886.3 461.3L900 456L900 601L886.3 601C872.7 601 845.3 601 818 601C790.7 601 763.3 601 736.2 601C709 601 682 601 654.8 601C627.7 601 600.3 601 573 601C545.7 601 518.3 601 491 601C463.7 601 436.3 601 409 601C381.7 601 354.3 601 327 601C299.7 601 272.3 601 245.2 601C218 601 191 601 163.8 601C136.7 601 109.3 601 82 601C54.7 601 27.3 601 13.7 601L0 601Z" fill="#e5c850"></path><path d="M0 506L13.7 503.3C27.3 500.7 54.7 495.3 82 492.2C109.3 489 136.7 488 163.8 484C191 480 218 473 245.2 469.5C272.3 466 299.7 466 327 467.8C354.3 469.7 381.7 473.3 409 480.3C436.3 487.3 463.7 497.7 491 496.2C518.3 494.7 545.7 481.3 573 479.3C600.3 477.3 627.7 486.7 654.8 488.8C682 491 709 486 736.2 485.5C763.3 485 790.7 489 818 491.8C845.3 494.7 872.7 496.3 886.3 497.2L900 498L900 601L886.3 601C872.7 601 845.3 601 818 601C790.7 601 763.3 601 736.2 601C709 601 682 601 654.8 601C627.7 601 600.3 601 573 601C545.7 601 518.3 601 491 601C463.7 601 436.3 601 409 601C381.7 601 354.3 601 327 601C299.7 601 272.3 601 245.2 601C218 601 191 601 163.8 601C136.7 601 109.3 601 82 601C54.7 601 27.3 601 13.7 601L0 601Z" fill="#cab35d"></path><path d="M0 534L13.7 527.2C27.3 520.3 54.7 506.7 82 501.3C109.3 496 136.7 499 163.8 502C191 505 218 508 245.2 510.2C272.3 512.3 299.7 513.7 327 512.5C354.3 511.3 381.7 507.7 409 509.2C436.3 510.7 463.7 517.3 491 517.8C518.3 518.3 545.7 512.7 573 508C600.3 503.3 627.7 499.7 654.8 498.5C682 497.3 709 498.7 736.2 504.5C763.3 510.3 790.7 520.7 818 520.2C845.3 519.7 872.7 508.3 886.3 502.7L900 497L900 601L886.3 601C872.7 601 845.3 601 818 601C790.7 601 763.3 601 736.2 601C709 601 682 601 654.8 601C627.7 601 600.3 601 573 601C545.7 601 518.3 601 491 601C463.7 601 436.3 601 409 601C381.7 601 354.3 601 327 601C299.7 601 272.3 601 245.2 601C218 601 191 601 163.8 601C136.7 601 109.3 601 82 601C54.7 601 27.3 601 13.7 601L0 601Z" fill="#b09f68"></path><path d="M0 551L13.7 549.2C27.3 547.3 54.7 543.7 82 542.3C109.3 541 136.7 542 163.8 539.2C191 536.3 218 529.7 245.2 530.8C272.3 532 299.7 541 327 543.8C354.3 546.7 381.7 543.3 409 538.8C436.3 534.3 463.7 528.7 491 526.3C518.3 524 545.7 525 573 527C600.3 529 627.7 532 654.8 536.7C682 541.3 709 547.7 736.2 549C763.3 550.3 790.7 546.7 818 544C845.3 541.3 872.7 539.7 886.3 538.8L900 538L900 601L886.3 601C872.7 601 845.3 601 818 601C790.7 601 763.3 601 736.2 601C709 601 682 601 654.8 601C627.7 601 600.3 601 573 601C545.7 601 518.3 601 491 601C463.7 601 436.3 601 409 601C381.7 601 354.3 601 327 601C299.7 601 272.3 601 245.2 601C218 601 191 601 163.8 601C136.7 601 109.3 601 82 601C54.7 601 27.3 601 13.7 601L0 601Z" fill="#958b71"></path><path d="M0 568L13.7 568.3C27.3 568.7 54.7 569.3 82 566.5C109.3 563.7 136.7 557.3 163.8 554.3C191 551.3 218 551.7 245.2 553C272.3 554.3 299.7 556.7 327 558.3C354.3 560 381.7 561 409 560.2C436.3 559.3 463.7 556.7 491 555.8C518.3 555 545.7 556 573 556.7C600.3 557.3 627.7 557.7 654.8 558.2C682 558.7 709 559.3 736.2 561.3C763.3 563.3 790.7 566.7 818 569.7C845.3 572.7 872.7 575.3 886.3 576.7L900 578L900 601L886.3 601C872.7 601 845.3 601 818 601C790.7 601 763.3 601 736.2 601C709 601 682 601 654.8 601C627.7 601 600.3 601 573 601C545.7 601 518.3 601 491 601C463.7 601 436.3 601 409 601C381.7 601 354.3 601 327 601C299.7 601 272.3 601 245.2 601C218 601 191 601 163.8 601C136.7 601 109.3 601 82 601C54.7 601 27.3 601 13.7 601L0 601Z" fill="#787878"></path></svg>