<svg width="50" height="50" viewBox="0 0 50 50" fill="none" xmlns="http://www.w3.org/2000/svg">
<circle cx="25" cy="25" r="25" fill="#FFDE3D"/>
<path d="M21.682 18.5127C19.3905 21.0837 17.8179 24.7773 17.6719 25.1254L15.1333 24.0364C14.4032 23.722 14.2235 22.7677 14.7851 22.2064L18.1662 18.8271C18.6941 18.2994 19.4579 18.0636 20.1993 18.2096L21.682 18.5127ZM23.3557 29.9193C23.6927 30.2561 24.1869 30.3459 24.6137 30.1438C25.9167 29.5376 28.7137 28.1117 30.5222 26.3042C35.678 21.151 35.7229 16.9522 35.4196 15.1559C35.3799 14.9352 35.2736 14.732 35.115 14.5735C34.9563 14.4149 34.753 14.3087 34.5323 14.2689C32.735 13.9658 28.534 14.0107 23.3781 19.1639C21.5697 20.9714 20.1543 23.7669 19.5365 25.0692C19.3344 25.4959 19.4355 26.0011 19.7612 26.3267L23.3557 29.9193ZM31.1849 28.0107C28.6126 30.301 24.917 31.8728 24.5688 32.0187L25.6584 34.556C25.9729 35.2857 26.9277 35.4654 27.4893 34.904L30.8704 31.5247C31.3983 30.9971 31.6342 30.2336 31.4882 29.4926L31.1849 28.0107ZM21.4012 30.9297C21.5101 31.4734 21.483 32.0356 21.3223 32.5664C21.1617 33.0971 20.8723 33.58 20.4801 33.9722C19.6152 34.8367 16.9305 35.4766 15.1895 35.8134C14.4144 35.9594 13.7292 35.2745 13.8752 34.4999C14.2122 32.7597 14.8413 30.0764 15.7174 29.212C16.1098 28.8199 16.5929 28.5308 17.124 28.3702C17.655 28.2096 18.2175 28.1825 18.7615 28.2914C20.0757 28.5384 21.1541 29.6161 21.4012 30.9297ZM25.9617 21.4879C25.9617 20.2529 26.9726 19.2425 28.2082 19.2425C29.4438 19.2425 30.4548 20.2529 30.4548 21.4879C30.4548 22.7228 29.4438 23.7332 28.2082 23.7332C26.9726 23.7332 25.9617 22.7228 25.9617 21.4879Z" fill="black"/>
</svg>
