<svg width="40" height="40" viewBox="0 0 40 40" fill="none" xmlns="http://www.w3.org/2000/svg">
<path d="M14.9999 34.3749C14.6291 34.3749 14.2666 34.265 13.9583 34.0589C13.6499 33.8529 13.4096 33.5601 13.2677 33.2175C13.1258 32.8749 13.0887 32.4979 13.161 32.1342C13.2334 31.7705 13.4119 31.4364 13.6741 31.1742L24.8482 19.9999L13.6741 8.82573C13.3272 8.47313 13.1337 7.99774 13.1357 7.50311C13.1377 7.00848 13.3351 6.53468 13.6849 6.18492C14.0346 5.83516 14.5084 5.63777 15.0031 5.63576C15.4977 5.63374 15.9731 5.82726 16.3257 6.17416L28.8257 18.6742C29.1773 19.0258 29.3748 19.5027 29.3748 19.9999C29.3748 20.4972 29.1773 20.9741 28.8257 21.3257L16.3257 33.8257C16.1518 34.0001 15.9451 34.1384 15.7176 34.2326C15.4901 34.3269 15.2462 34.3753 14.9999 34.3749Z" fill="black" fill-opacity="0.5"/>
</svg>
