<svg width="40" height="40" viewBox="0 0 40 40" fill="none" xmlns="http://www.w3.org/2000/svg">
<path d="M25.0001 5.62506C25.3709 5.62507 25.7334 5.73505 26.0417 5.94108C26.3501 6.14711 26.5904 6.43993 26.7323 6.78254C26.8742 7.12514 26.9113 7.50212 26.839 7.86583C26.7666 8.22953 26.5881 8.56361 26.3259 8.82584L15.1518 20.0001L26.3259 31.1743C26.6728 31.5269 26.8663 32.0023 26.8643 32.4969C26.8623 32.9915 26.6649 33.4653 26.3151 33.8151C25.9654 34.1648 25.4916 34.3622 24.9969 34.3642C24.5023 34.3663 24.0269 34.1727 23.6743 33.8258L11.1743 21.3258C10.8227 20.9742 10.6252 20.4973 10.6252 20.0001C10.6252 19.5028 10.8227 19.0259 11.1743 18.6743L23.6743 6.17427C23.8482 5.99991 24.0549 5.86162 24.2824 5.76737C24.5099 5.67311 24.7538 5.62475 25.0001 5.62506Z" fill="black" fill-opacity="0.5"/>
</svg>
