<svg width="32" height="32" viewBox="0 0 32 32" fill="none" xmlns="http://www.w3.org/2000/svg">
<circle cx="16" cy="16" r="10" fill="black"/>
<path d="M16 0C12.8355 0 9.74207 0.938383 7.11088 2.69649C4.4797 4.45459 2.42894 6.95344 1.21793 9.87706C0.00693255 12.8007 -0.309921 16.0177 0.307443 19.1214C0.924806 22.2251 2.44866 25.0761 4.6863 27.3137C6.92394 29.5513 9.77486 31.0752 12.8786 31.6926C15.9823 32.3099 19.1993 31.9931 22.1229 30.7821C25.0466 29.5711 27.5454 27.5203 29.3035 24.8891C31.0616 22.2579 32 19.1645 32 16C31.9951 11.758 30.3078 7.69121 27.3083 4.69169C24.3088 1.69216 20.242 0.00488612 16 0ZM22.4531 14.9772L16.9146 21.1311C16.7992 21.2593 16.6582 21.3618 16.5006 21.432C16.3431 21.5022 16.1725 21.5385 16 21.5385C15.8275 21.5385 15.6569 21.5022 15.4994 21.432C15.3418 21.3618 15.2008 21.2593 15.0854 21.1311L9.54693 14.9772C9.43608 14.8576 9.35011 14.7171 9.29404 14.5639C9.23796 14.4108 9.21288 14.248 9.22027 14.085C9.22765 13.9221 9.26735 13.7623 9.33706 13.6148C9.40676 13.4673 9.50508 13.3352 9.62631 13.2261C9.74753 13.1169 9.88923 13.033 10.0432 12.9791C10.1971 12.9252 10.3603 12.9025 10.5231 12.9122C10.6859 12.9219 10.8452 12.9639 10.9916 13.0357C11.1381 13.1075 11.2688 13.2077 11.3762 13.3305L16 18.4677L20.6238 13.3308C20.7311 13.2075 20.8618 13.1068 21.0083 13.0346C21.1549 12.9624 21.3144 12.92 21.4774 12.9101C21.6405 12.9001 21.8039 12.9227 21.9582 12.9766C22.1124 13.0305 22.2544 13.1145 22.3759 13.2238C22.4973 13.3331 22.5957 13.4655 22.6655 13.6133C22.7352 13.761 22.7748 13.9212 22.782 14.0844C22.7892 14.2476 22.7638 14.4107 22.7073 14.564C22.6509 14.7173 22.5644 14.8578 22.4531 14.9774V14.9772Z" fill="#FFDE3D"/>
</svg>
