<svg width="250" height="63" viewBox="0 0 250 63" fill="none" xmlns="http://www.w3.org/2000/svg">
<path d="M238.076 22.454C237.621 19.099 235.774 16.188 232.421 13.555L230.491 12.255L229.199 14.209C227.552 16.725 226.724 20.223 226.997 23.569C227.121 24.744 227.502 26.857 228.694 28.703C227.502 29.357 225.15 30.254 222.02 30.187H192.07H162.12L162.004 30.883C161.441 34.247 161.449 44.748 168.181 52.817C173.298 58.948 180.966 62.06 190.969 62.06C212.663 62.06 228.719 51.945 236.238 33.551C239.194 33.609 245.562 33.567 248.832 27.243C248.915 27.101 249.114 26.715 249.685 25.515L250 24.861L248.162 23.62C246.174 22.269 241.604 21.774 238.084 22.454H238.076ZM210.014 0H200.905V8.38799H210.014V0ZM210.014 10.065H200.905V18.453H210.014V10.065ZM199.249 10.065H190.141V18.453H199.249V10.065ZM188.485 10.065H179.376V18.453H188.485V10.065ZM177.72 20.131H168.612V28.518H177.72V20.131ZM188.485 20.131H179.376V28.518H188.485V20.131ZM199.249 20.131H190.141V28.518H199.249V20.131ZM210.014 20.131H200.905V28.518H210.014V20.131ZM220.778 20.131H211.67V28.518H220.778V20.131Z" fill="#1D63ED"/>
<path d="M22.5725 18.636C21.9018 18.636 21.3552 18.8619 20.9164 19.3069C20.4775 19.7509 20.2622 20.3219 20.2622 21.0009V32.349C18.01 30.487 15.4099 29.548 12.4538 29.548C9.0174 29.548 6.0778 30.789 3.6434 33.28C1.209 35.763 0 38.766 0 42.289C0 45.811 1.2172 48.806 3.6434 51.297C6.0778 53.78 9.0091 55.0289 12.4538 55.0289C15.8984 55.0289 18.7966 53.788 21.2642 51.297C23.6986 48.839 24.9075 45.837 24.9075 42.289V21.0009C24.9075 20.3219 24.684 19.7509 24.2286 19.3069C23.7731 18.8619 23.2266 18.636 22.5725 18.636ZM19.6495 45.375C19.2437 46.34 18.6889 47.1869 17.9851 47.9079C17.2813 48.6379 16.4532 49.208 15.5093 49.636C14.557 50.064 13.5468 50.274 12.4621 50.274C11.3773 50.274 10.3423 50.064 9.39 49.636C8.4378 49.208 7.618 48.6379 6.9224 47.9169C6.2269 47.1949 5.6721 46.348 5.2664 45.384C4.8606 44.411 4.6536 43.379 4.6536 42.289C4.6536 41.198 4.8606 40.167 5.2664 39.194C5.6721 38.221 6.2269 37.3819 6.9224 36.6609C7.618 35.9389 8.4461 35.3689 9.39 34.9409C10.3423 34.5129 11.3608 34.304 12.4621 34.304C13.5634 34.304 14.557 34.5129 15.5093 34.9409C16.4615 35.3689 17.2813 35.9389 17.9851 36.6689C18.6889 37.3989 19.2437 38.246 19.6495 39.202C20.0552 40.167 20.2622 41.19 20.2622 42.28C20.2622 43.371 20.0552 44.4019 19.6495 45.3589V45.375ZM124.372 33.289C121.913 30.806 118.973 29.556 115.562 29.556C112.15 29.556 109.186 30.798 106.751 33.289C104.317 35.772 103.108 38.774 103.108 42.297C103.108 45.82 104.325 48.8139 106.751 51.3049C109.186 53.7879 112.117 55.0379 115.562 55.0379C118.692 55.0379 121.399 54.0059 123.701 51.9429C124.149 51.4729 124.372 50.9029 124.372 50.2399C124.372 49.5769 124.157 48.9899 123.718 48.5459C123.279 48.1009 122.724 47.875 122.062 47.875C121.482 47.892 120.969 48.084 120.53 48.47C119.834 49.074 119.081 49.5359 118.261 49.8369C117.441 50.1389 116.547 50.2899 115.57 50.2899C114.709 50.2899 113.881 50.156 113.094 49.879C112.308 49.603 111.571 49.2249 110.916 48.7299C110.254 48.2349 109.683 47.648 109.194 46.952C108.706 46.264 108.333 45.501 108.084 44.662H125.697C126.351 44.662 126.898 44.436 127.353 43.991C127.808 43.547 128.032 42.976 128.032 42.297C128.032 40.536 127.726 38.9 127.121 37.399C126.517 35.889 125.598 34.522 124.389 33.297L124.372 33.289ZM108.068 39.9319C108.308 39.1009 108.672 38.338 109.161 37.642C109.649 36.954 110.229 36.359 110.892 35.864C111.562 35.369 112.291 34.991 113.094 34.715C113.897 34.438 114.717 34.304 115.562 34.304C116.406 34.304 117.226 34.438 118.021 34.715C118.816 34.991 119.545 35.369 120.199 35.864C120.861 36.359 121.441 36.946 121.929 37.642C122.426 38.33 122.799 39.0929 123.056 39.9319H108.068ZM148.766 31.1499C148.352 30.7389 147.831 30.42 147.201 30.185C146.572 29.951 145.885 29.7909 145.131 29.6989C144.386 29.6069 143.682 29.565 143.028 29.565C141.546 29.565 140.155 29.8079 138.846 30.2939C137.538 30.7809 136.329 31.4769 135.219 32.3829V31.9299C135.219 31.2759 134.996 30.722 134.54 30.261C134.085 29.8 133.547 29.565 132.909 29.565C132.272 29.565 131.709 29.8 131.253 30.261C130.798 30.722 130.574 31.2839 130.574 31.9299V52.672C130.574 53.327 130.798 53.8799 131.253 54.3419C131.709 54.8029 132.255 55.0379 132.909 55.0379C133.563 55.0379 134.093 54.8029 134.54 54.3419C134.996 53.8799 135.219 53.318 135.219 52.672V42.297C135.219 41.19 135.426 40.15 135.832 39.177C136.238 38.204 136.793 37.365 137.497 36.644C138.2 35.922 139.028 35.3519 139.972 34.9409C140.925 34.5219 141.935 34.312 143.02 34.312C144.104 34.312 145.131 34.505 146.067 34.882C146.439 35.05 146.762 35.134 147.044 35.134C147.367 35.134 147.673 35.075 147.955 34.95C148.236 34.824 148.485 34.656 148.692 34.438C148.899 34.22 149.064 33.968 149.189 33.675C149.313 33.389 149.379 33.079 149.379 32.744C149.379 32.089 149.172 31.5609 148.758 31.1499H148.766ZM48.8131 33.289C46.3539 30.806 43.4143 29.556 40.0028 29.556C36.5912 29.556 33.6268 30.798 31.1924 33.289C28.7579 35.772 27.549 38.774 27.549 42.297C27.549 45.82 28.7662 48.8139 31.1924 51.3049C33.6268 53.7879 36.5581 55.0379 40.0028 55.0379C43.4474 55.0379 46.3456 53.7959 48.8131 51.3049C51.2476 48.8479 52.4565 45.845 52.4565 42.297C52.44 40.536 52.1336 38.908 51.5374 37.407C50.933 35.906 50.0304 34.53 48.8131 33.289ZM47.1985 45.375C46.7927 46.34 46.238 47.1869 45.5341 47.9079C44.8303 48.6379 44.0022 49.208 43.0583 49.636C42.1143 50.064 41.0958 50.274 40.0111 50.274C38.9263 50.274 37.8913 50.064 36.939 49.636C35.9868 49.208 35.167 48.6379 34.4715 47.9169C33.7759 47.1949 33.2211 46.348 32.8154 45.384C32.4096 44.411 32.2026 43.379 32.2026 42.289C32.2026 41.198 32.4096 40.167 32.8154 39.194C33.2211 38.221 33.7759 37.3819 34.4715 36.6609C35.167 35.9389 35.9951 35.3689 36.939 34.9409C37.8913 34.5129 38.9098 34.304 40.0111 34.304C41.1124 34.304 42.106 34.5129 43.0583 34.9409C44.0105 35.3689 44.8303 35.9389 45.5341 36.6689C46.238 37.3989 46.7927 38.246 47.1985 39.202C47.6042 40.167 47.8112 41.19 47.8112 42.28C47.8112 43.371 47.6042 44.4019 47.1985 45.3589V45.375ZM100.591 31.922C100.591 31.603 100.524 31.3009 100.4 31.0159C100.276 30.7309 100.11 30.471 99.903 30.252C99.696 30.034 99.448 29.858 99.166 29.741C98.885 29.623 98.579 29.556 98.256 29.556C97.792 29.556 97.378 29.6739 97.014 29.9169L83.715 38.7659V21.0179C83.715 20.3469 83.492 19.785 83.036 19.323C82.581 18.862 82.043 18.627 81.405 18.627C80.767 18.627 80.204 18.862 79.749 19.323C79.293 19.785 79.07 20.3469 79.07 21.0179V52.6389C79.07 53.2929 79.293 53.855 79.749 54.325C80.204 54.795 80.751 55.0289 81.405 55.0289C82.059 55.0289 82.589 54.795 83.036 54.325C83.492 53.855 83.715 53.2929 83.715 52.6389V44.427L86.431 42.6069L96.707 54.409C97.121 54.82 97.643 55.021 98.264 55.021C98.587 55.021 98.893 54.962 99.175 54.836C99.456 54.719 99.705 54.543 99.912 54.325C100.119 54.107 100.284 53.855 100.409 53.562C100.533 53.276 100.599 52.9659 100.599 52.6559C100.599 52.0349 100.384 51.4809 99.953 50.9949L90.389 39.9819L99.705 33.7919C100.301 33.3809 100.591 32.752 100.591 31.905V31.922ZM61.979 36.644C62.6912 35.922 63.5192 35.3519 64.4715 34.9409C65.4237 34.5219 66.4339 34.312 67.5187 34.312C68.4958 34.312 69.3983 34.48 70.2347 34.815C71.0627 35.151 71.8576 35.6459 72.6111 36.2919C73.0583 36.6519 73.5634 36.8369 74.1264 36.8369C74.7971 36.8369 75.344 36.61 75.783 36.157C76.221 35.704 76.437 35.134 76.437 34.455C76.437 33.775 76.172 33.146 75.633 32.66C73.3481 30.596 70.6404 29.565 67.5187 29.565C64.0823 29.565 61.1427 30.806 58.7083 33.297C56.2738 35.78 55.0649 38.7829 55.0649 42.3049C55.0649 45.8279 56.2821 48.8229 58.7083 51.3139C61.1427 53.7959 64.074 55.0459 67.5187 55.0459C70.6321 55.0459 73.3398 54.015 75.633 51.951C76.122 51.448 76.37 50.869 76.37 50.198C76.37 49.527 76.155 48.948 75.716 48.504C75.277 48.059 74.7226 47.8329 74.0602 47.8329C73.4971 47.8499 73.0086 48.017 72.5946 48.336C71.8493 48.99 71.071 49.477 70.2347 49.804C69.4066 50.131 68.504 50.2899 67.5187 50.2899C66.4339 50.2899 65.4237 50.0809 64.4715 49.6609C63.5192 49.2419 62.6912 48.672 61.979 47.959C61.2669 47.246 60.7039 46.3899 60.2981 45.4259C59.8924 44.4529 59.6854 43.4129 59.6854 42.3049C59.6854 41.1979 59.8924 40.158 60.2981 39.185C60.7039 38.212 61.2669 37.3739 61.979 36.6519V36.644Z" fill="#1D63ED"/>
</svg>
