<svg width="1440" height="512" viewBox="0 0 1440 512" fill="none" xmlns="http://www.w3.org/2000/svg">
<g clip-path="url(#clip0_33_135)">
<rect width="1440" height="512" fill="#FFE14D"/>
<g opacity="0.2" clip-path="url(#clip1_33_135)">
<path d="M873.875 -85.4372L985.03 -85.4372L1096.19 -85.4372L1096.19 25.8148L1096.19 137.067L985.03 137.067L873.875 137.067L873.875 25.8148L873.875 -85.4372Z" fill="white" fill-opacity="0.6"/>
<path d="M873.875 359.581L985.03 359.581L1096.19 359.581L1096.19 470.834L1096.19 582.091L985.03 582.091L873.875 582.091L873.875 470.834L873.875 359.581Z" fill="#FFEDA2" fill-opacity="0.6"/>
<path d="M873.875 137.072L985.03 137.072L1096.19 137.072L1096.19 248.324L1096.19 359.582L985.03 359.582L873.875 359.582L873.875 248.324L873.875 137.072Z" fill="#FDF8E1" fill-opacity="0.7"/>
<path d="M1318.52 -85.4424L1429.68 -85.4424L1540.83 -85.4424L1540.83 25.8148L1540.83 137.067L1429.68 137.067L1318.52 137.067L1318.52 25.8148L1318.52 -85.4424Z" fill="white" fill-opacity="0.6"/>
<path d="M1096.21 -85.4424L1207.36 -85.4424L1318.52 -85.4424L1318.52 25.8148L1318.52 137.067L1207.36 137.067L1096.21 137.067L1096.21 25.8148L1096.21 -85.4424Z" fill="#FFF4BA" fill-opacity="0.6"/>
<path d="M1318.52 359.577L1429.68 359.577L1540.83 359.577L1540.83 470.834L1540.83 582.086L1429.68 582.086L1318.52 582.086L1318.52 470.834L1318.52 359.577Z" fill="white" fill-opacity="0.6"/>
<path d="M1096.21 359.577L1207.36 359.577L1318.52 359.577L1318.52 470.834L1318.52 582.086L1207.36 582.086L1096.21 582.086L1096.21 470.834L1096.21 359.577Z" fill="white" fill-opacity="0.6"/>
<path d="M1096.21 137.067L1207.36 137.067L1318.52 137.067L1318.52 248.325L1318.52 359.577L1207.36 359.577L1096.21 359.577L1096.21 248.325L1096.21 137.067Z" fill="#FFEDA2" fill-opacity="0.6"/>
<path d="M1318.52 137.067L1429.68 137.067L1540.83 137.067L1540.83 248.325L1540.83 359.577L1429.68 359.577L1318.52 359.577L1318.52 248.325L1318.52 137.067Z" fill="#F6E59F" fill-opacity="0.6"/>
<path d="M1096.2 137.067L1096.2 -85.4425L873.886 -85.4425C873.849 -56.2204 879.582 -27.2791 890.757 -0.281788C901.931 26.7155 918.325 51.2365 938.998 71.8722C959.616 92.5631 984.115 108.972 1011.09 120.157C1038.06 131.342 1066.98 137.081 1096.18 137.046L1096.2 137.067Z" fill="#EDECE9" fill-opacity="0.6"/>
<path d="M1096.2 582.091L1096.2 359.581L873.886 359.582C873.849 388.804 879.582 417.745 890.757 444.742C901.931 471.739 918.325 496.261 938.998 516.896C959.616 537.587 984.115 553.996 1011.09 565.181C1038.06 576.366 1066.98 582.105 1096.18 582.07L1096.2 582.091Z" fill="#EDECE9" fill-opacity="0.6"/>
<path d="M1318.52 -85.4424C1318.48 -56.22 1324.22 -27.2785 1335.39 -0.281255C1346.57 26.716 1362.96 51.2369 1383.64 71.8723C1404.25 92.5636 1428.75 108.973 1455.73 120.158C1482.7 131.343 1511.62 137.082 1540.81 137.046L1540.81 -85.4631L1318.5 -85.4631L1318.52 -85.4424Z" fill="#FFF4BA" fill-opacity="0.6"/>
<path d="M1540.83 137.067C1511.64 137.032 1482.72 142.771 1455.75 153.954C1428.77 165.138 1404.27 181.546 1383.65 202.236C1362.98 222.875 1346.58 247.4 1335.41 274.402C1324.23 301.404 1318.5 330.35 1318.54 359.577L1540.83 359.577L1540.83 137.067Z" fill="white" fill-opacity="0.6"/>
<path d="M1318.52 359.577C1318.48 388.799 1324.22 417.74 1335.39 444.738C1346.57 471.735 1362.96 496.256 1383.64 516.891C1404.25 537.583 1428.75 553.992 1455.73 565.177C1482.7 576.362 1511.62 582.101 1540.81 582.065L1540.81 359.556L1318.5 359.556L1318.52 359.577Z" fill="#F6E59F" fill-opacity="0.6"/>
<path d="M1318.52 582.086C1318.55 552.864 1312.82 523.923 1301.64 496.927C1290.47 469.93 1274.08 445.408 1253.4 424.771C1232.79 404.082 1208.29 387.675 1181.31 376.491C1154.34 365.308 1125.42 359.568 1096.23 359.602L1096.23 582.112L1318.52 582.112L1318.52 582.086Z" fill="#FFF4BA" fill-opacity="0.6"/>
<path d="M1096.21 359.576C1125.4 359.611 1154.32 353.871 1181.29 342.687C1208.27 331.502 1232.77 315.093 1253.39 294.402C1274.06 273.766 1290.45 249.245 1301.62 222.248C1312.8 195.251 1318.53 166.31 1318.5 137.088L1096.19 137.088L1096.19 359.597L1096.21 359.576Z" fill="white" fill-opacity="0.4"/>
<path d="M1318.52 137.067C1318.55 107.845 1312.82 78.904 1301.64 51.9069C1290.47 24.9098 1274.08 0.388577 1253.4 -20.2477C1232.79 -40.9384 1208.29 -57.3475 1181.31 -68.5321C1154.34 -79.7168 1125.42 -85.4566 1096.23 -85.4217L1096.23 137.067L1318.52 137.067Z" fill="#F6E59F" fill-opacity="0.6"/>
<path d="M651.559 359.577L762.72 359.577L873.875 359.577L873.875 470.834L873.875 582.086L762.72 582.086L651.559 582.086L651.559 470.834L651.559 359.577Z" fill="#FFEDA2" fill-opacity="0.6"/>
<path d="M429.25 359.577L540.405 359.577L651.56 359.577L651.56 470.834L651.56 582.086L540.405 582.086L429.25 582.086L429.25 470.834L429.25 359.577Z" fill="white" fill-opacity="0.6"/>
<path d="M429.25 137.067L540.405 137.067L651.56 137.067L651.56 248.319L651.56 359.577L540.405 359.577L429.25 359.577L429.25 248.319L429.25 137.067Z" fill="#F6E59F" fill-opacity="0.6"/>
<path d="M206.932 137.067L318.088 137.067L429.243 137.067L429.243 248.319L429.243 359.577L318.088 359.577L206.932 359.577L206.932 248.319L206.932 137.067Z" fill="#F6E59F" fill-opacity="0.6"/>
<path d="M-15.3824 137.067L95.7781 137.067L206.933 137.067L206.933 248.319L206.933 359.577L95.7782 359.577L-15.3823 359.577L-15.3824 248.319L-15.3824 137.067Z" fill="#FFF4BA" fill-opacity="0.6"/>
<path d="M-15.3824 -85.4424L95.7781 -85.4424L206.933 -85.4424L206.933 25.8148L206.933 137.067L95.7782 137.067L-15.3823 137.067L-15.3824 25.8148L-15.3824 -85.4424Z" fill="#EDECE9" fill-opacity="0.6"/>
<path d="M206.933 359.577L206.933 470.834L206.933 582.086L95.7782 582.086L-15.3823 582.086L-15.3824 470.834L-15.3824 359.577L95.7781 359.577L206.933 359.577Z" fill="#FFFFFD"/>
<path d="M206.932 359.577L318.088 359.577L429.243 359.577L429.243 470.834L429.243 582.086L318.088 582.086L206.932 582.086L206.932 470.834L206.932 359.577Z" fill="white" fill-opacity="0.6"/>
<path d="M206.932 -85.4424L318.088 -85.4424L429.243 -85.4424L429.243 25.8148L429.243 137.067L318.088 137.067L206.932 137.067L206.932 25.8148L206.932 -85.4424Z" fill="white" fill-opacity="0.6"/>
<path d="M429.25 -85.4424L540.405 -85.4424L651.56 -85.4424L651.56 25.8148L651.56 137.067L540.405 137.067L429.25 137.067L429.25 25.8148L429.25 -85.4424Z" fill="#EDECE9" fill-opacity="0.6"/>
<path d="M651.56 -85.4424L762.72 -85.4424L873.875 -85.4424L873.875 25.8148L873.875 137.067L762.72 137.067L651.56 137.067L651.56 25.8148L651.56 -85.4424Z" fill="#FFF4BA" fill-opacity="0.6"/>
<path opacity="0.5" d="M762.72 137.067L651.56 137.067L651.56 248.319L651.56 359.577L762.72 359.577L873.875 359.577L873.875 248.319L873.875 137.067L762.72 137.067Z" fill="#FEF8DE"/>
<path d="M430.346 582.071C459.543 582.105 488.459 576.365 515.433 565.181C542.406 553.996 566.906 537.587 587.524 516.897C608.196 496.26 624.59 471.739 635.764 444.742C646.938 417.745 652.672 388.804 652.636 359.582L430.32 359.582L430.32 582.091L430.346 582.071Z" fill="#EDECE9" fill-opacity="0.6"/>
<path d="M651.538 359.577C651.576 330.351 645.843 301.405 634.669 274.403C623.495 247.402 607.1 222.876 586.426 202.236C565.807 181.547 541.307 165.14 514.334 153.956C487.36 142.772 458.445 137.033 429.249 137.067L429.249 359.577L651.538 359.577Z" fill="white" fill-opacity="0.6"/>
<path d="M429.243 137.067C400.047 137.033 371.131 142.772 344.158 153.956C317.184 165.14 292.684 181.547 272.065 202.236C251.391 222.876 234.996 247.402 223.822 274.403C212.648 301.405 206.915 330.351 206.953 359.577L429.243 359.577L429.243 137.067Z" fill="#FFEFAF" fill-opacity="0.2"/>
<path d="M206.933 582.086C236.13 582.121 265.046 576.381 292.02 565.196C318.993 554.011 343.493 537.602 364.111 516.912C384.784 496.276 401.178 471.755 412.352 444.758C423.526 417.76 429.26 388.819 429.223 359.597L206.912 359.597L206.912 582.106L206.933 582.086Z" fill="white" fill-opacity="0.6"/>
<path d="M206.933 359.577C177.733 359.539 148.812 365.277 121.834 376.46C94.8559 387.644 70.3516 404.054 49.7295 424.745C29.0587 445.382 12.6656 469.904 1.49159 496.901C-9.68237 523.898 -15.417 552.838 -15.3826 582.06L206.933 582.06L206.933 359.551L206.933 359.577Z" fill="#FFEDA2" fill-opacity="0.6"/>
<path d="M206.933 359.577C206.971 330.35 201.238 301.404 190.063 274.402C178.888 247.4 162.491 222.875 141.816 202.236C121.197 181.546 96.6977 165.138 69.724 153.954C42.7504 142.771 13.8345 137.032 -15.362 137.067L-15.362 359.577L206.933 359.577Z" fill="white" fill-opacity="0.6"/>
<path d="M206.934 -85.4424C206.898 -56.2204 212.632 -27.2795 223.806 -0.282364C234.98 26.7148 251.374 51.236 272.046 71.8723C292.664 92.5629 317.163 108.972 344.137 120.157C371.111 131.341 400.027 137.081 429.223 137.046L429.223 -85.4631L206.913 -85.4631L206.934 -85.4424Z" fill="white" fill-opacity="0.6"/>
<path d="M429.244 137.067C458.441 137.102 487.357 131.362 514.331 120.177C541.304 108.993 565.804 92.5837 586.422 71.8933C607.094 51.257 623.488 26.7358 634.662 -0.261353C645.836 -27.2585 651.57 -56.1995 651.534 -85.4214L429.218 -85.4214L429.218 137.067L429.244 137.067Z" fill="#FFEDA2" fill-opacity="0.6"/>
<path d="M873.875 -85.4422C844.678 -85.478 815.762 -79.7385 788.788 -68.5538C761.815 -57.3691 737.315 -40.9596 716.698 -20.2683C696.024 0.367134 679.629 24.888 668.454 51.8853C657.279 78.8826 651.545 107.824 651.58 137.046L873.875 137.046L873.875 -85.463L873.875 -85.4422Z" fill="white" fill-opacity="0.6"/>
</g>
</g>
<defs>
<clipPath id="clip0_33_135">
<rect width="1440" height="512" fill="white"/>
</clipPath>
<clipPath id="clip1_33_135">
<rect width="4189.09" height="672" fill="white" transform="translate(2430.09 585) rotate(180)"/>
</clipPath>
</defs>
</svg>
