<svg width="1658" height="91" viewBox="0 0 1658 91" fill="none" xmlns="http://www.w3.org/2000/svg">
<g opacity="0.3" clip-path="url(#clip0_98_60)">
<path d="M88 89.2299H43.999H0V45.1906V1.15332H43.999H88V45.1906V89.2299Z" fill="#FFEDA2" fill-opacity="0.6"/>
<path d="M175.998 89.2299H131.999H88V45.1906V1.15332H131.999H175.998V45.1906V89.2299Z" fill="white" fill-opacity="0.6"/>
<path d="M175.998 177.307H131.999H88V133.269V89.23H131.999H175.998V133.269V177.307Z" fill="white" fill-opacity="0.6"/>
<path d="M263.998 177.307H219.999H175.998V133.269V89.23H219.999H263.998V133.269V177.307Z" fill="#F6E59F" fill-opacity="0.6"/>
<path d="M351.998 177.307H307.997H263.998V133.269V89.23H307.997H351.998V133.269V177.307Z" fill="#FFF4BA" fill-opacity="0.6"/>
<path d="M1320 89.8472H1364H1408V133.884V177.924H1364H1320V133.884V89.8472Z" fill="#EDECE9" fill-opacity="0.6"/>
<path d="M616.002 89.228H572.003H528.002V45.1907V1.15137H572.003H616.002V45.1907V89.228Z" fill="#FFEDA2" fill-opacity="0.6"/>
<path d="M616.002 177.305H572.003H528.002V133.267V89.228H572.003H616.002V133.267V177.305Z" fill="#FDF8E1" fill-opacity="0.7"/>
<path d="M1320 177.924H1276H1232V133.887V89.8472H1276H1320V133.887V177.924Z" fill="#FFF4BA" fill-opacity="0.6"/>
<path d="M439.998 89.2299H395.997H351.998V45.1906V1.15332H395.997H439.998V45.1906V89.2299Z" fill="white" fill-opacity="0.6"/>
<path d="M527.996 89.2299H483.997H439.998V45.1906V1.15332H483.997H527.996V45.1906V89.2299Z" fill="white" fill-opacity="0.6"/>
<path d="M527.996 177.307H483.997H439.998V133.267V89.23H483.997H527.996V133.267V177.307Z" fill="#FFEDA2" fill-opacity="0.6"/>
<path d="M439.998 177.307H395.997H351.998V133.267V89.23H395.997H439.998V133.267V177.307Z" fill="#F6E59F" fill-opacity="0.6"/>
<path d="M1657.03 89.8179H1620.18H1583.33V46.0593V2.30273H1620.18H1657.03V46.0593V89.8179Z" fill="white" fill-opacity="0.6"/>
<path d="M1496 89.8466H1452H1408V45.8073V1.77002H1452H1496V45.8073V89.8466Z" fill="white" fill-opacity="0.6"/>
<path d="M1584 89.8466H1540H1496V45.8073V1.77002H1540H1584V45.8073V89.8466Z" fill="#F6E59F" fill-opacity="0.6"/>
<path d="M1320 89.8466H1276H1232V45.8073V1.77002H1276H1320V45.8073V89.8466Z" fill="#F6E59F" fill-opacity="0.6"/>
<path d="M1408 89.8466H1364H1320V45.8073V1.77002H1364H1408V45.8073V89.8466Z" fill="white" fill-opacity="0.6"/>
<path d="M1496 177.924H1452H1408V133.884V89.8472H1452H1496V133.884V177.924Z" fill="white" fill-opacity="0.6"/>
<path d="M1584 177.924H1540H1496V133.884V89.8472H1540H1584V133.884V177.924Z" fill="#F4F2EB"/>
<path d="M1658.18 178.485H1621.33H1584.48V134.15V89.8179H1621.33H1658.18V134.15V178.485Z" fill="#FFEDA2" fill-opacity="0.6"/>
<path d="M1408 1.77002V89.8466H1496C1496.01 78.2794 1493.74 66.8235 1489.32 56.137C1484.9 45.4506 1478.41 35.7444 1470.22 27.5763C1462.06 19.3859 1452.37 12.8905 1441.69 8.46321C1431.01 4.03593 1419.57 1.76408 1408.01 1.77822L1408 1.77002Z" fill="#EDECE9" fill-opacity="0.6"/>
<path d="M1584 1.77002H1496V89.8466C1507.56 89.8603 1519 87.5884 1529.68 83.1615C1540.36 78.7346 1550.05 72.24 1558.22 64.0507C1566.4 55.8818 1572.89 46.1755 1577.31 35.4892C1581.73 24.8029 1584 13.3472 1583.99 1.78028L1584 1.77002Z" fill="#FFF4BA" fill-opacity="0.6"/>
<path d="M1496 89.8472H1408V177.924C1419.56 177.938 1431 175.666 1441.68 171.239C1452.36 166.812 1462.05 160.317 1470.22 152.128C1478.4 143.958 1484.89 134.25 1489.31 123.562C1493.74 112.874 1496.01 101.416 1495.99 89.8472H1496Z" fill="#FFEFAF" fill-opacity="0.2"/>
<path d="M528 1.15137V89.228H615.998C616.012 77.6609 613.743 66.205 609.32 55.5186C604.897 44.8321 598.407 35.1259 590.224 26.9576C582.063 18.7675 572.365 12.2722 561.688 7.84488C551.011 3.41761 539.565 1.14565 528.008 1.15957L528 1.15137Z" fill="#EDECE9" fill-opacity="0.6"/>
<path d="M1232 177.923H1320V89.8467C1308.44 89.8328 1297 92.1048 1286.32 96.5321C1275.64 100.959 1265.94 107.455 1257.78 115.645C1249.6 123.813 1243.11 133.519 1238.69 144.206C1234.27 154.892 1232 166.348 1232.01 177.915L1232 177.923Z" fill="white" fill-opacity="0.6"/>
<path d="M1665.09 88.6665H1583.33V177.333C1594.07 177.348 1604.71 175.062 1614.63 170.605C1624.55 166.149 1633.56 159.61 1641.15 151.364C1648.75 143.14 1654.78 133.367 1658.89 122.607C1663 111.847 1665.1 100.313 1665.09 88.6665Z" fill="#F6E59F" fill-opacity="0.6"/>
<path d="M1584 177.924V89.8472H1496C1495.98 101.416 1498.25 112.873 1502.68 123.562C1507.1 134.25 1513.59 143.958 1521.77 152.128C1529.94 160.317 1539.63 166.812 1550.31 171.239C1560.99 175.666 1572.43 177.937 1583.99 177.924H1584Z" fill="#FDF8E1"/>
<path d="M1320 89.8466V1.77002H1232C1231.99 13.337 1234.26 24.7928 1238.68 35.4792C1243.1 46.1656 1249.59 55.8719 1257.78 64.0404C1265.94 72.2299 1275.63 78.7246 1286.31 83.1515C1296.99 87.5784 1308.43 89.8502 1319.99 89.8363L1320 89.8466Z" fill="#FFEDA2" fill-opacity="0.6"/>
<path d="M1408 89.8466V1.77002H1320C1319.99 13.3372 1322.26 24.793 1326.68 35.4794C1331.1 46.1657 1337.59 55.872 1345.78 64.0404C1353.94 72.2301 1363.63 78.725 1374.31 83.1519C1384.99 87.5788 1396.43 89.8504 1407.99 89.8363L1408 89.8466Z" fill="#FFF4BA" fill-opacity="0.6"/>
<path d="M263.998 89.2299V45.1906V1.15332H307.997H351.998V45.1906V89.2299H307.997H263.998Z" fill="#FFFFFD"/>
<path d="M263.998 89.2299H219.999H175.998V45.1906V1.15332H219.999H263.998V45.1906V89.2299Z" fill="white" fill-opacity="0.6"/>
<path d="M88 177.307H43.999H0V133.269V89.23H43.999H88V133.269V177.307Z" fill="white" fill-opacity="0.6"/>
<path d="M176 1.15325C164.443 1.13955 152.997 3.41161 142.32 7.83886C131.643 12.2661 121.945 18.7613 113.784 26.9513C105.601 35.1198 99.1119 44.8261 94.6889 55.5125C90.2658 66.1988 87.9961 77.6546 88.0102 89.2216H176.01V1.14502L176 1.15325Z" fill="#EDECE9" fill-opacity="0.6"/>
<path d="M88.0081 89.23C87.9921 100.798 90.2601 112.255 94.6817 122.943C99.1033 133.632 105.592 143.34 113.773 151.511C121.935 159.7 131.633 166.195 142.31 170.621C152.987 175.048 164.433 177.32 175.99 177.307V89.23H88.0081Z" fill="#FAFAFA" fill-opacity="0.6"/>
<path d="M176 177.307C187.557 177.32 199.002 175.048 209.68 170.621C220.357 166.195 230.054 159.7 238.216 151.511C246.4 143.341 252.889 133.633 257.312 122.944C261.735 112.256 264.005 100.799 263.99 89.23H176V177.307Z" fill="#FFF8D6" fill-opacity="0.6"/>
<path d="M263.998 1.15325C252.441 1.13944 240.995 3.41142 230.318 7.83869C219.641 12.2659 209.943 18.7612 201.782 26.9513C193.599 35.1195 187.109 44.8258 182.686 55.5122C178.263 66.1986 175.994 77.6546 176.008 89.2216H264.006V1.14502L263.998 1.15325Z" fill="white" fill-opacity="0.6"/>
<path d="M263.998 89.2299C275.557 89.2449 287.004 86.9737 297.683 82.5468C308.362 78.1199 318.062 71.6245 326.224 63.434C334.407 55.2651 340.896 45.5588 345.319 34.8725C349.742 24.1862 352.012 12.7305 351.998 1.16357H263.998V89.2402V89.2299Z" fill="#FFF3CA"/>
<path d="M1675.45 2.31295C1663.65 2.29897 1651.97 4.55617 1641.07 8.95485C1630.17 13.3535 1620.27 19.807 1611.94 27.9445C1603.59 36.0608 1596.97 45.7052 1592.45 56.3235C1587.94 66.9417 1585.62 78.3245 1585.64 89.8179H1675.45V2.30273L1675.45 2.31295Z" fill="#FFF5C7" fill-opacity="0.9"/>
<path d="M351.998 177.307C363.555 177.321 375.001 175.049 385.678 170.622C396.355 166.195 406.053 159.7 414.214 151.511C422.398 143.341 428.888 133.633 433.312 122.945C437.735 112.257 440.005 100.799 439.99 89.23H351.998V177.307Z" fill="white" fill-opacity="0.6"/>
<path d="M439.998 89.2301C440.012 77.6629 437.742 66.2069 433.319 55.5205C428.895 44.8341 422.406 35.1279 414.222 26.9597C406.061 18.7694 396.364 12.274 385.686 7.84667C375.009 3.41939 363.563 1.14754 352.006 1.16169V89.2383H440.006L439.998 89.2301Z" fill="#F6E59F" fill-opacity="0.6"/>
<path d="M439.998 1.15335C439.984 12.7203 442.254 24.1759 446.677 34.8622C451.1 45.5486 457.589 55.2549 465.771 63.4237C473.933 71.613 483.631 78.1077 494.308 82.5345C504.985 86.9614 516.431 89.2333 527.988 89.2197V1.14307H439.998V1.15335Z" fill="#FFF4BA" fill-opacity="0.6"/>
<path d="M527.996 89.2299C516.439 89.2161 504.993 91.4881 494.316 95.9154C483.639 100.343 473.941 106.838 465.78 115.028C457.597 123.196 451.108 132.903 446.685 143.589C442.262 154.276 439.992 165.731 440.006 177.298H528.004V89.2217L527.996 89.2299Z" fill="white" fill-opacity="0.4"/>
<path d="M263.998 89.23C263.983 100.799 266.252 112.257 270.676 122.945C275.099 133.633 281.589 143.341 289.773 151.511C297.935 159.7 307.633 166.195 318.31 170.622C328.987 175.049 340.433 177.321 351.99 177.307V89.23H263.998Z" fill="#F8F8F8" fill-opacity="0.4"/>
<path d="M88.0082 177.307C88.0223 165.74 85.7525 154.284 81.329 143.597C76.9056 132.911 70.4158 123.205 62.2326 115.036C54.0715 106.846 44.3738 100.351 33.6967 95.9233C23.0196 91.4961 11.5736 89.2242 0.0164185 89.2383V177.315H88.0082V177.307Z" fill="white" fill-opacity="0.6"/>
<path d="M704.002 89.2299H660.001H616.002V45.1906V1.15332H660.001H704.002V45.1906V89.2299Z" fill="#FFEDA2" fill-opacity="0.6"/>
<path d="M792 89.2299H748.001H704.002V45.1906V1.15332H748.001H792V45.1906V89.2299Z" fill="white" fill-opacity="0.6"/>
<path d="M792 177.307H748.001H704.002V133.269V89.23H748.001H792V133.269V177.307Z" fill="#F6E59F" fill-opacity="0.6"/>
<path d="M880 177.307H836.001H792.002V133.269V89.23H836.001H880V133.269V177.307Z" fill="#F6E59F" fill-opacity="0.6"/>
<path d="M968 177.307H923.999H880V133.269V89.23H923.999H968V133.269V177.307Z" fill="#FFF4BA" fill-opacity="0.6"/>
<path d="M1232 89.228H1188.01H1144V45.1907V1.15137H1188.01H1232V45.1907V89.228Z" fill="#FFEDA2" fill-opacity="0.6"/>
<path d="M1232 177.305H1188.01H1144V133.267V89.228H1188.01H1232V133.267V177.305Z" fill="white" fill-opacity="0.6"/>
<path d="M1056 89.2299H1012H968V45.1906V1.15332H1012H1056V45.1906V89.2299Z" fill="white" fill-opacity="0.6"/>
<path d="M1144 89.2299H1100H1056V45.1906V1.15332H1100H1144V45.1906V89.2299Z" fill="white" fill-opacity="0.6"/>
<path d="M1144 177.307H1100H1056V133.267V89.23H1100H1144V133.267V177.307Z" fill="#FFEDA2" fill-opacity="0.6"/>
<path d="M1056 177.307H1012H968V133.267V89.23H1012H1056V133.267V177.307Z" fill="#FFEDA2" fill-opacity="0.6"/>
<path d="M1144 1.15137V89.228H1232C1232.01 77.6609 1229.74 66.205 1225.32 55.5186C1220.9 44.8321 1214.41 35.1259 1206.23 26.9576C1198.07 18.7675 1188.37 12.2722 1177.69 7.84488C1167.01 3.41761 1155.57 1.14565 1144.01 1.15957L1144 1.15137Z" fill="#EDECE9" fill-opacity="0.6"/>
<path d="M880 89.2299V45.1906V1.15332H923.999H968V45.1906V89.2299H923.999H880Z" fill="#FFFFFD"/>
<path d="M880 89.2299H836.001H792.002V45.1906V1.15332H836.001H880V45.1906V89.2299Z" fill="white" fill-opacity="0.6"/>
<path opacity="0.5" d="M660.001 177.307H704.002V133.269V89.23H660.001H616.002V133.269V177.307H660.001Z" fill="#FEF8DE"/>
<path d="M791.565 1.1596C780.008 1.1459 768.562 3.41795 757.885 7.84521C747.208 12.2725 737.511 18.7676 729.349 26.9576C721.167 35.1261 714.677 44.8324 710.254 55.5188C705.831 66.2052 703.562 77.661 703.576 89.228H791.576V1.15137L791.565 1.1596Z" fill="#EDECE9" fill-opacity="0.6"/>
<path d="M704.01 89.23C703.995 100.799 706.265 112.256 710.688 122.944C715.111 133.633 721.6 143.341 729.784 151.511C737.946 159.7 747.643 166.195 758.32 170.621C768.997 175.048 780.443 177.32 792 177.307V89.23H704.01Z" fill="white" fill-opacity="0.6"/>
<path d="M792.002 177.307C803.559 177.32 815.005 175.048 825.682 170.621C836.359 166.195 846.057 159.7 854.218 151.511C862.402 143.341 868.891 133.633 873.315 122.944C877.738 112.256 880.007 100.799 879.992 89.23H792.002V177.307Z" fill="#FFEFAF" fill-opacity="0.2"/>
<path d="M880 1.15325C868.443 1.13944 856.997 3.41142 846.32 7.83869C835.643 12.2659 825.945 18.7612 817.784 26.9513C809.601 35.1195 803.111 44.8258 798.688 55.5122C794.265 66.1986 791.996 77.6546 792.01 89.2216H880.008V1.14502L880 1.15325Z" fill="white" fill-opacity="0.6"/>
<path d="M880 89.2299C891.558 89.2449 903.006 86.9737 913.685 82.5468C924.364 78.1199 934.063 71.6245 942.226 63.434C950.409 55.2651 956.898 45.5588 961.321 34.8725C965.744 24.1862 968.014 12.7305 968 1.16357H880V89.2402V89.2299Z" fill="#FFEDA2" fill-opacity="0.6"/>
<path d="M968 177.307C979.557 177.321 991.003 175.049 1001.68 170.622C1012.36 166.195 1022.05 159.7 1030.22 151.511C1038.4 143.341 1044.89 133.633 1049.31 122.945C1053.74 112.257 1056.01 100.799 1055.99 89.23H968V177.307Z" fill="#F6E59F" fill-opacity="0.6"/>
<path d="M1056 89.2301C1056.01 77.6629 1053.74 66.2069 1049.32 55.5205C1044.9 44.8341 1038.41 35.1279 1030.22 26.9597C1022.06 18.7694 1012.37 12.274 1001.69 7.84667C991.011 3.41939 979.565 1.14754 968.008 1.16169V89.2383H1056.01L1056 89.2301Z" fill="#F6E59F" fill-opacity="0.6"/>
<path d="M1056 1.15335C1055.99 12.7203 1058.26 24.1759 1062.68 34.8622C1067.1 45.5486 1073.59 55.2549 1081.77 63.4237C1089.94 71.613 1099.63 78.1077 1110.31 82.5345C1120.99 86.9614 1132.43 89.2333 1143.99 89.2197V1.14307H1056V1.15335Z" fill="#FFF4BA" fill-opacity="0.6"/>
<path d="M1144 89.2299C1132.44 89.2161 1120.99 91.4881 1110.32 95.9154C1099.64 100.343 1089.94 106.838 1081.78 115.028C1073.6 123.196 1067.11 132.903 1062.69 143.589C1058.26 154.276 1055.99 165.731 1056.01 177.298H1144.01V89.2217L1144 89.2299Z" fill="#FFF4BA" fill-opacity="0.6"/>
<path d="M880 89.23C879.985 100.799 882.254 112.257 886.678 122.945C891.101 133.633 897.591 143.341 905.776 151.511C913.937 159.7 923.635 166.195 934.312 170.622C944.989 175.049 956.435 177.321 967.992 177.307V89.23H880Z" fill="white" fill-opacity="0.6"/>
</g>
<defs>
<clipPath id="clip0_98_60">
<rect width="1658" height="91" fill="white"/>
</clipPath>
</defs>
</svg>
