<!-- Generated by IcoMoon.io -->
<svg version="1.1" xmlns="http://www.w3.org/2000/svg" width="36" height="32" viewBox="0 0 36 32">
<title>arcade</title>
<path fill="#fff" d="M17.912 9.251c2.314 0 4.189-1.85 4.189-4.131s-1.876-4.131-4.189-4.131c-2.314 0-4.189 1.85-4.189 4.131s1.876 4.131 4.189 4.131z"></path>
<path fill="#3e41dd" d="M17.912 9.926c-0.965-0.001-1.907-0.284-2.709-0.812-0.803-0.526-1.431-1.275-1.804-2.152s-0.474-1.844-0.291-2.777c0.188-0.933 0.655-1.789 1.341-2.458 0.677-0.677 1.546-1.136 2.493-1.315 0.938-0.182 1.909-0.088 2.793 0.268 0.891 0.364 1.653 0.98 2.19 1.77s0.824 1.719 0.827 2.671v0c-0.004 1.268-0.513 2.483-1.419 3.382s-2.134 1.411-3.42 1.424v0zM17.912 1.663c-0.235 0.001-0.468 0.024-0.698 0.069-0.676 0.127-1.297 0.453-1.781 0.936-0.412 0.398-0.717 0.891-0.889 1.434s-0.204 1.119-0.095 1.678c0.109 0.558 0.357 1.081 0.722 1.522s0.834 0.786 1.367 1.004c0.533 0.218 1.112 0.303 1.686 0.246s1.125-0.252 1.603-0.57c0.478-0.318 0.87-0.747 1.139-1.25s0.407-1.064 0.403-1.633v0c0.002-0.677-0.202-1.339-0.587-1.9-0.318-0.469-0.748-0.853-1.252-1.12s-1.067-0.407-1.639-0.409l0.021-0.007z"></path>
<path fill="#3e41dd" d="M17.968 32h-0.105c-1.942-0.001-3.857-0.456-5.586-1.329l-0.538-0.241-2.29-1.040c-3.854-1.708-6.096-2.713-6.668-2.981-0.784-0.288-1.484-0.761-2.039-1.377-0.186-0.242-0.289-0.536-0.293-0.84v-2.169l6.054 2.692c2.709 1.212 5.628 2.506 6.445 2.864 1.552 0.71 3.246 1.068 4.958 1.047 1.705 0.005 3.391-0.352 4.944-1.047l12.506-5.563v2.169c-0.008 0.297-0.105 0.584-0.279 0.826-0.193 0.246-0.43 0.456-0.698 0.62-0.441 0.298-0.909 0.556-1.396 0.771-0.642 0.296-3.959 1.776-6.396 2.857l-3.77 1.687c-1.519 0.693-3.172 1.053-4.846 1.053v0zM1.818 24.151v0.048c0.429 0.435 0.955 0.765 1.536 0.964 0.559 0.262 2.793 1.26 6.64 2.968l2.891 1.288c1.539 0.785 3.246 1.198 4.978 1.205h0.105c1.471 0.001 2.924-0.313 4.259-0.923l1.355-0.606 2.43-1.081c2.43-1.081 5.74-2.554 6.375-2.851 0.417-0.183 0.816-0.402 1.194-0.654 0.123-0.072 0.232-0.165 0.321-0.275 0.008-0.025 0.008-0.051 0-0.076v0l-10.537 4.682c-1.777 0.788-3.707 1.188-5.656 1.171-1.864-0.001-3.705-0.4-5.397-1.171l-6.438-2.864-4.057-1.825z"></path>
<path fill="#3e41dd" d="M17.968 26.444c-1.365-0.011-2.719-0.244-4.008-0.689-0.612-0.212-1.211-0.458-1.795-0.737-0.321-0.145-0.635-0.289-0.964-0.42-0.698-0.275-1.334-0.572-1.99-0.868l-0.984-0.434c-1.236-0.544-2.479-1.088-3.708-1.659l-0.698-0.31c-0.984-0.373-1.907-0.888-2.737-1.529-0.276-0.206-0.482-0.489-0.594-0.812-0.065-0.248-0.063-0.508 0.004-0.755s0.198-0.473 0.38-0.656c0.256-0.249 0.553-0.452 0.88-0.599 3.889-1.914 7.387-3.505 10.697-4.861 0.633-0.262 1.276-0.516 1.927-0.764l0.112-0.041c0.186-0.104 0.397-0.158 0.611-0.158s0.425 0.054 0.611 0.158c0.145 0.113 0.258 0.262 0.329 0.43s0.097 0.352 0.076 0.534c0 0.227 0 0.447 0 0.688 0 0.448 0 0.895 0 1.343v4.889c0.023 0.149 0.084 0.29 0.177 0.41s0.214 0.216 0.354 0.278c0.392 0.193 0.826 0.29 1.264 0.282 0.698 0 1.662-0.317 1.662-0.998 0-2.272 0-4.537 0-6.81-0.021-0.199 0.012-0.401 0.093-0.584s0.211-0.343 0.374-0.462c0.163-0.105 0.351-0.166 0.546-0.178s0.389 0.026 0.564 0.109c1.732 0.654 3.435 1.425 5.083 2.162 0.992 0.448 1.976 0.895 2.982 1.322 1.396 0.592 2.653 1.157 3.847 1.714 0.518 0.225 1.012 0.502 1.473 0.826 0.243 0.146 0.448 0.347 0.597 0.587s0.239 0.51 0.261 0.79c0 1.053-1.152 1.618-1.843 1.949l-0.188 0.096c-0.566 0.289-1.145 0.537-1.704 0.778l-0.74 0.324-8.030 3.594c-1.544 0.699-3.223 1.061-4.923 1.060zM1.846 18.649l0.154 0.131c0.732 0.548 1.538 0.993 2.395 1.322l0.698 0.317c1.222 0.565 2.451 1.109 3.68 1.646l0.992 0.441c0.649 0.289 1.299 0.578 1.955 0.847l1.012 0.448c0.566 0.255 1.096 0.489 1.655 0.689 2.568 0.881 5.38 0.763 7.862-0.331l8.791-3.925c0.566-0.248 1.096-0.475 1.62-0.744l0.216-0.103c0.824-0.399 1.033-0.606 1.061-0.689-0.089-0.105-0.19-0.199-0.3-0.282v0c-0.386-0.269-0.797-0.5-1.229-0.689-1.18-0.551-2.423-1.102-3.799-1.687-1.012-0.434-2.011-0.881-3.009-1.336-1.522-0.688-3.1-1.377-4.678-2.011 0 2.176 0 4.345 0 6.52 0 1.542-1.578 2.375-3.058 2.375-0.676 0.011-1.344-0.148-1.941-0.461-0.366-0.176-0.676-0.447-0.896-0.785s-0.343-0.728-0.354-1.129v-4.889c0-0.448 0-0.902 0-1.377 0-0.069 0-0.145 0-0.213-0.58 0.22-1.159 0.448-1.732 0.689-3.275 1.343-6.738 2.919-10.599 4.82-0.176 0.075-0.339 0.177-0.482 0.303-0.031 0.030-0.053 0.068-0.063 0.11l0.049-0.007z"></path>
<path fill="#3e41dd" d="M7.194 21.486c-0.843 0-1.673-0.198-2.423-0.578l-0.063-0.041c-0.408-0.215-0.751-0.532-0.996-0.918s-0.383-0.83-0.4-1.285c0.010-0.459 0.145-0.907 0.39-1.297s0.593-0.708 1.006-0.92h0.063c0.752-0.369 1.58-0.561 2.419-0.561s1.668 0.192 2.419 0.561c0.435 0.204 0.805 0.52 1.070 0.916s0.417 0.855 0.438 1.329v0c-0.022 0.46-0.167 0.905-0.421 1.291s-0.607 0.698-1.024 0.905l-0.063 0.041c-0.749 0.372-1.577 0.563-2.416 0.558v0zM5.442 19.696c0.542 0.266 1.14 0.405 1.746 0.405s1.203-0.139 1.746-0.405h0.049c0.215-0.071 0.402-0.207 0.535-0.389s0.204-0.4 0.204-0.624-0.071-0.442-0.204-0.624c-0.133-0.182-0.32-0.317-0.535-0.388-0.555-0.27-1.165-0.411-1.784-0.411s-1.229 0.141-1.784 0.411c-0.195 0.095-0.362 0.238-0.484 0.416s-0.196 0.383-0.214 0.596c0.023 0.213 0.098 0.418 0.22 0.595s0.286 0.323 0.478 0.424l0.028-0.007z"></path>
</svg>
