<!-- Generated by IcoMoon.io -->
<svg version="1.1" xmlns="http://www.w3.org/2000/svg" width="33" height="32" viewBox="0 0 33 32">
<title>casino</title>
<path fill="#3e41dd" d="M29.343 25.307l0.057-0.079c0.049-0.070 0.098-0.14 0.146-0.21l0.109-0.162 0.085-0.129c0.049-0.075 0.096-0.15 0.144-0.226l0.039-0.061c1.249-2.012 2.033-4.278 2.295-6.631 0-0.013 0-0.025 0.004-0.038 0.010-0.090 0.019-0.179 0.028-0.269l0.014-0.157 0.014-0.183c0.006-0.091 0.012-0.183 0.017-0.275l0.005-0.085c0.013-0.271 0.021-0.541 0.021-0.813 0.002-2.004-0.373-3.991-1.107-5.856-0.012-0.030-0.024-0.059-0.036-0.088-0.035-0.090-0.072-0.179-0.109-0.268-0.022-0.053-0.046-0.105-0.069-0.157-0.028-0.065-0.056-0.13-0.084-0.193s-0.064-0.139-0.097-0.208c-0.022-0.047-0.043-0.094-0.066-0.142-0.039-0.079-0.079-0.157-0.119-0.236-0.017-0.035-0.034-0.071-0.052-0.105-0.044-0.086-0.090-0.171-0.135-0.257l-0.046-0.091c-0.047-0.089-0.097-0.176-0.146-0.264-0.014-0.024-0.027-0.049-0.041-0.073-0.050-0.087-0.101-0.173-0.153-0.259-0.014-0.024-0.028-0.050-0.043-0.074-0.050-0.079-0.101-0.163-0.151-0.243l-0.053-0.085c-0.047-0.079-0.096-0.148-0.145-0.222-0.022-0.034-0.044-0.068-0.067-0.101-0.043-0.065-0.089-0.13-0.134-0.194l-0.087-0.125c-0.039-0.054-0.079-0.107-0.116-0.157s-0.075-0.103-0.112-0.153c-0.038-0.050-0.063-0.083-0.094-0.123-0.047-0.062-0.094-0.124-0.142-0.186l-0.067-0.083c-0.059-0.074-0.117-0.148-0.178-0.221l-0.034-0.040c-2.497-3.017-6.017-5.010-9.888-5.599v0c-0.128-0.019-0.257-0.038-0.387-0.054-0.681-0.086-1.367-0.129-2.054-0.129-2.554-0.003-5.071 0.607-7.34 1.779s-4.223 2.872-5.699 4.956c-0.037 0.052-0.072 0.105-0.109 0.157s-0.074 0.105-0.11 0.157c-1.841 2.736-2.793 5.974-2.727 9.271s1.148 6.494 3.098 9.154l0.035 0.049c0.053 0.072 0.108 0.143 0.163 0.215 0.022 0.028 0.043 0.057 0.066 0.086 0.048 0.062 0.097 0.123 0.146 0.185l0.092 0.114c0.042 0.052 0.086 0.103 0.129 0.157 0.024 0.029 0.047 0.058 0.072 0.087 0.003 0.005 0.007 0.009 0.011 0.013 0.516 0.604 1.075 1.17 1.675 1.692 0.011 0.012 0.023 0.023 0.036 0.034 0.775 0.671 1.612 1.265 2.502 1.774l0.008 0.006c0.099 0.056 0.198 0.112 0.297 0.165l0.058 0.032c0.079 0.043 0.157 0.085 0.236 0.126l0.115 0.060c0.053 0.028 0.108 0.053 0.162 0.079l0.201 0.099c1.487 0.709 3.075 1.182 4.707 1.404l0.062 0.009c0.079 0.011 0.162 0.020 0.244 0.030l0.161 0.019 0.18 0.018 0.243 0.021 0.116 0.009c0.112 0.008 0.225 0.015 0.338 0.021h0.033c0.273 0.014 0.551 0.022 0.821 0.022 2.205 0.003 4.386-0.452 6.405-1.337l0.044-0.019 0.253-0.115 0.092-0.043c0.074-0.035 0.147-0.070 0.22-0.106l0.121-0.060 0.196-0.099 0.145-0.079 0.174-0.094 0.164-0.090c0.051-0.029 0.104-0.058 0.157-0.088s0.121-0.071 0.181-0.106c0.046-0.027 0.091-0.053 0.136-0.079 0.068-0.041 0.135-0.083 0.203-0.126l0.112-0.070c0.088-0.057 0.176-0.115 0.264-0.173l0.046-0.031c0.102-0.069 0.203-0.138 0.304-0.209 0.040-0.028 0.079-0.057 0.119-0.087 0.061-0.043 0.121-0.087 0.182-0.131 0.047-0.035 0.094-0.071 0.14-0.106s0.104-0.079 0.157-0.119l0.146-0.115 0.146-0.118 0.141-0.116 0.107-0.089 0.010-0.009c0.613-0.522 1.186-1.090 1.715-1.698l0.013-0.014c0.323-0.375 0.632-0.765 0.919-1.166zM25.922 27.297c-0.124 0.105-0.25 0.208-0.377 0.309l-0.090 0.070c-0.1 0.079-0.2 0.157-0.301 0.23l-0.103 0.079c-0.108 0.079-0.215 0.157-0.325 0.23l-0.072 0.050c-0.137 0.093-0.275 0.183-0.414 0.271l-4.117-7.18c0.053-0.038 0.105-0.079 0.157-0.117 0.017-0.013 0.035-0.025 0.051-0.039 0.061-0.046 0.119-0.094 0.178-0.143 0.013-0.011 0.027-0.021 0.040-0.033 0.068-0.057 0.135-0.116 0.201-0.176l0.009-0.008c0.138-0.127 0.271-0.259 0.397-0.397l0.025-0.028c0.054-0.060 0.107-0.12 0.157-0.18 0.018-0.021 0.035-0.044 0.053-0.066 0.041-0.050 0.083-0.099 0.122-0.15l0.063-0.085c0.031-0.042 0.064-0.083 0.094-0.127l7.181 4.117c-0.8 1.266-1.788 2.404-2.929 3.374v0zM12.135 30.217l-0.046-0.013c-0.108-0.032-0.216-0.066-0.322-0.101l-0.070-0.022c-0.107-0.035-0.213-0.072-0.319-0.109l-0.070-0.024c-0.122-0.043-0.243-0.089-0.363-0.135l-0.020-0.008c-0.513-0.199-1.013-0.427-1.5-0.683l4.132-7.164c0.684 0.318 1.418 0.515 2.169 0.582v8.266c-1.217-0.049-2.423-0.247-3.591-0.59zM4.926 25.482c-0.064-0.079-0.127-0.152-0.188-0.229-0.046-0.057-0.090-0.115-0.135-0.173s-0.106-0.138-0.157-0.207c-0.051-0.069-0.087-0.117-0.129-0.176-0.054-0.075-0.107-0.149-0.157-0.225-0.038-0.054-0.079-0.109-0.113-0.164-0.075-0.111-0.148-0.222-0.219-0.335-0.012-0.019-0.024-0.036-0.035-0.055l7.181-4.116c0.432 0.606 0.964 1.135 1.573 1.564l-4.137 7.166c-1.314-0.828-2.489-1.858-3.482-3.051v0zM1.904 12.562c0.021-0.089 0.044-0.178 0.067-0.266 0.012-0.046 0.023-0.093 0.035-0.138 0.016-0.060 0.033-0.12 0.050-0.179 0.020-0.075 0.041-0.149 0.063-0.223 0.009-0.029 0.018-0.058 0.027-0.088 0.269-0.885 0.621-1.743 1.051-2.563l7.164 4.136c-0.318 0.684-0.515 1.418-0.582 2.169h-8.266c0.038-0.941 0.165-1.876 0.379-2.792l0.012-0.056zM4.776 6.699c0.066-0.079 0.133-0.164 0.201-0.245 0.044-0.052 0.089-0.103 0.134-0.157s0.087-0.102 0.131-0.152c0.061-0.069 0.124-0.138 0.187-0.205l0.087-0.095c0.079-0.079 0.152-0.157 0.23-0.236 0.018-0.019 0.036-0.039 0.054-0.057 0.087-0.088 0.175-0.174 0.265-0.26l0.028-0.028c0.095-0.091 0.193-0.181 0.292-0.271l0.010-0.010c0.625-0.562 1.296-1.071 2.006-1.52l4.117 7.187c-0.030 0.021-0.058 0.044-0.088 0.065-0.043 0.031-0.086 0.063-0.127 0.095s-0.064 0.052-0.096 0.079-0.079 0.065-0.122 0.099l-0.090 0.079c-0.039 0.034-0.079 0.067-0.116 0.102s-0.061 0.059-0.093 0.089c-0.031 0.030-0.073 0.069-0.109 0.105s-0.063 0.066-0.094 0.099c-0.031 0.033-0.067 0.068-0.099 0.103s-0.067 0.079-0.1 0.114c-0.033 0.035-0.057 0.064-0.084 0.096-0.040 0.047-0.079 0.096-0.116 0.144-0.020 0.025-0.040 0.049-0.060 0.074-0.057 0.074-0.113 0.149-0.167 0.226l-7.166-4.137c0.287-0.455 0.599-0.895 0.935-1.316 0.013-0.023 0.033-0.048 0.050-0.068zM16.32 21.387c-1.225 0.001-2.415-0.415-3.372-1.181s-1.625-1.834-1.893-3.029c-0.269-1.196-0.122-2.447 0.416-3.548s1.434-1.986 2.543-2.509c1.108-0.523 2.361-0.653 3.553-0.369s2.251 0.966 3.004 1.933c0.753 0.967 1.153 2.162 1.136 3.387s-0.451 2.408-1.231 3.354c-0.505 0.613-1.14 1.107-1.859 1.446s-1.503 0.516-2.297 0.516v0zM22.28 18.759c0.024-0.053 0.047-0.106 0.070-0.157 0.012-0.027 0.024-0.052 0.035-0.079 0.027-0.064 0.052-0.13 0.079-0.195l0.026-0.065c0.026-0.072 0.051-0.145 0.079-0.218l0.017-0.048c0.026-0.083 0.051-0.166 0.074-0.25 0-0.007 0.004-0.013 0.006-0.020 0.101-0.371 0.169-0.751 0.204-1.134h8.259c-0.087 2.2-0.662 4.354-1.684 6.305l-7.163-4.139zM22.862 15.41c-0.068-0.751-0.265-1.485-0.582-2.168v0l7.164-4.136c1.022 1.951 1.598 4.104 1.685 6.305l-8.266-0.001zM28.853 8.081l-7.184 4.116c-0.426-0.597-0.948-1.12-1.546-1.546l4.116-7.181c1.862 1.174 3.438 2.75 4.614 4.611v0zM23.215 2.877l-4.136 7.164c-0.684-0.318-1.418-0.515-2.169-0.583v-8.266c1.467 0.059 2.917 0.335 4.303 0.818 0.688 0.239 1.357 0.529 2.002 0.867v0zM15.73 9.458c-0.478 0.043-0.95 0.139-1.407 0.285h-0.009c-0.087 0.028-0.172 0.057-0.256 0.088l-0.031 0.013c-0.079 0.029-0.157 0.058-0.229 0.090-0.017 0.006-0.031 0.013-0.047 0.020-0.064 0.027-0.127 0.053-0.189 0.079l-4.136-7.156c1.95-1.023 4.104-1.598 6.305-1.685v8.266zM10.361 18.76l-7.164 4.136c-1.022-1.951-1.598-4.104-1.685-6.305h8.266c0.067 0.751 0.264 1.485 0.582 2.169v0zM16.91 22.541c0.468-0.042 0.929-0.134 1.377-0.275l0.015-0.005c0.079-0.024 0.149-0.050 0.223-0.079l0.043-0.014c0.068-0.025 0.134-0.051 0.2-0.079l0.062-0.024c0.061-0.026 0.123-0.053 0.183-0.079 0.022-0.009 0.044-0.018 0.065-0.028l4.136 7.163c-1.951 1.023-4.105 1.598-6.306 1.685v-8.265z"></path>
<path fill="#fff" d="M19.388 14.891c-0.188 0-0.372 0.048-0.536 0.139s-0.303 0.222-0.403 0.381h-1.538v-1.538c0.204-0.128 0.36-0.319 0.446-0.544s0.096-0.471 0.030-0.703c-0.067-0.231-0.207-0.434-0.399-0.579s-0.426-0.223-0.667-0.223c-0.241 0-0.475 0.078-0.667 0.223s-0.332 0.348-0.399 0.579c-0.067 0.231-0.056 0.478 0.030 0.703s0.242 0.416 0.446 0.544v1.538h-1.538c-0.128-0.204-0.319-0.36-0.543-0.446s-0.471-0.096-0.703-0.030c-0.231 0.067-0.434 0.207-0.579 0.399s-0.223 0.426-0.223 0.667 0.078 0.475 0.223 0.667c0.145 0.192 0.348 0.332 0.579 0.399s0.478 0.056 0.703-0.030 0.416-0.242 0.543-0.446h1.538v1.538c-0.204 0.128-0.36 0.319-0.446 0.544s-0.096 0.471-0.030 0.703c0.067 0.231 0.207 0.434 0.399 0.579s0.426 0.223 0.667 0.223 0.475-0.078 0.667-0.223c0.192-0.145 0.332-0.348 0.399-0.579s0.056-0.478-0.030-0.703-0.242-0.416-0.446-0.544v-1.538h1.538c0.103 0.163 0.246 0.297 0.416 0.388s0.361 0.136 0.554 0.131c0.193-0.005 0.381-0.061 0.546-0.161s0.301-0.242 0.394-0.411c0.093-0.169 0.141-0.359 0.138-0.552s-0.056-0.382-0.154-0.548c-0.098-0.166-0.238-0.304-0.405-0.4s-0.357-0.146-0.55-0.146v0z"></path>
<path fill="#3e41dd" d="M7.826 5.735c-0.35 0-0.692 0.104-0.983 0.298s-0.518 0.471-0.652 0.794c-0.134 0.323-0.169 0.679-0.101 1.022s0.237 0.659 0.484 0.906c0.248 0.248 0.563 0.416 0.906 0.484s0.699 0.033 1.023-0.101c0.323-0.134 0.6-0.361 0.794-0.652s0.298-0.633 0.298-0.983c0-0.469-0.187-0.919-0.519-1.251s-0.782-0.518-1.251-0.519v0zM7.826 8.095c-0.117 0-0.231-0.035-0.328-0.099s-0.173-0.157-0.217-0.265c-0.045-0.108-0.056-0.226-0.034-0.341s0.079-0.22 0.161-0.302c0.082-0.082 0.188-0.139 0.302-0.161s0.233-0.011 0.341 0.034c0.108 0.045 0.2 0.12 0.265 0.217s0.099 0.211 0.099 0.328c0 0.156-0.062 0.306-0.173 0.417s-0.261 0.173-0.417 0.173z"></path>
<path fill="#fff" d="M7.826 8.699c0.659 0 1.194-0.535 1.194-1.194s-0.535-1.194-1.194-1.194c-0.659 0-1.194 0.535-1.194 1.194s0.535 1.194 1.194 1.194z"></path>
</svg>
