<!-- Generated by IcoMoon.io -->
<svg version="1.1" xmlns="http://www.w3.org/2000/svg" width="25" height="32" viewBox="0 0 25 32">
<title>cockfight</title>
<path fill="#fff" d="M17.208 30.271c0.339-0.247 0.664-0.513 0.973-0.797 0.314-0.282 0.627-0.577 0.904-0.878 1.195-1.228 2.058-2.739 2.51-4.392 0.44-1.969 0.22-4.029-0.627-5.86-0.634-1.268-1.483-2.417-2.51-3.395-0.195-0.201-0.389-0.408-0.577-0.627-0.891-0.844-1.506-1.937-1.763-3.137v-0.169c-0.031-0.29-0.044-0.581-0.038-0.872-0.007-0.13-0.007-0.259 0-0.389 0.024-0.159 0.058-0.316 0.1-0.471 0.148 1.021 0.53 1.994 1.117 2.842v0c0.487 0.665 1.075 1.25 1.744 1.732v0c0.339 0.27 0.69 0.533 1.035 0.791 0.792 0.563 1.535 1.193 2.221 1.882 1.093 1.087 1.829 2.481 2.109 3.997s0.092 3.081-0.54 4.487v0c-0.822 1.684-2.084 3.115-3.652 4.141-0.793 0.541-1.633 1.009-2.51 1.399v0l-0.088 0.038c-0.623 0.291-1.267 0.534-1.926 0.728l0.464-0.295c0.521-0.408 0.791-0.558 1.054-0.753zM17.208 30.271v0z"></path>
<path fill="#3e41dd" d="M15.677 31.438c-0.031 0-0.061-0.009-0.086-0.025s-0.046-0.041-0.058-0.069c-0.016-0.034-0.018-0.073-0.007-0.11s0.036-0.066 0.069-0.085l0.464-0.295c0.151-0.1 0.408-0.245 0.897-0.596l0.282-0.207c0.295-0.22 0.565-0.452 0.835-0.696s0.627-0.565 0.897-0.866c1.173-1.21 2.021-2.697 2.466-4.323 0.44-1.931 0.232-3.952-0.59-5.754-0.633-1.254-1.483-2.386-2.51-3.344l-0.577-0.627c-0.914-0.875-1.541-2.006-1.801-3.244v-0.138c-0.035-0.306-0.050-0.614-0.044-0.922-0.010-0.136-0.010-0.272 0-0.408 0.019-0.169 0.050-0.337 0.094-0.502 0.009-0.035 0.029-0.066 0.057-0.087s0.064-0.033 0.099-0.032c0.037 0.004 0.071 0.019 0.098 0.044s0.046 0.058 0.052 0.094c0.147 0.995 0.518 1.943 1.085 2.773 0.48 0.65 1.058 1.222 1.713 1.694 0.343 0.272 0.688 0.535 1.035 0.791 0.798 0.564 1.547 1.194 2.24 1.882 1.12 1.105 1.873 2.528 2.159 4.075s0.091 3.145-0.559 4.578c-0.832 1.713-2.114 3.168-3.708 4.21-0.806 0.548-1.661 1.021-2.554 1.412l-0.088 0.038c-0.63 0.296-1.283 0.541-1.951 0.734l-0.013 0.006zM17.302 30.403l-0.439 0.301 0.765-0.333c0.878-0.382 1.719-0.846 2.51-1.387 1.547-1.008 2.79-2.418 3.595-4.078 0.626-1.375 0.814-2.91 0.539-4.396s-1-2.851-2.077-3.912c-0.683-0.672-1.42-1.286-2.202-1.838-0.345-0.257-0.697-0.521-1.042-0.797-0.678-0.49-1.275-1.083-1.769-1.757-0.424-0.61-0.744-1.287-0.947-2.002-0.006 0.264 0.007 0.528 0.038 0.791v0.169c0.252 1.172 0.851 2.241 1.719 3.068 0.182 0.194 0.364 0.395 0.552 0.59 1.054 0.996 1.927 2.168 2.579 3.464 0.857 1.864 1.077 3.959 0.627 5.961-0.456 1.676-1.33 3.209-2.541 4.455-0.289 0.307-0.596 0.627-0.91 0.885-0.313 0.288-0.642 0.558-0.985 0.809l-0.013 0.006z"></path>
<path fill="#3e41dd" d="M7.118 18.758c-1.784-1.714-4.109-2.754-6.576-2.943 1.789-0.568 3.728-0.433 5.421 0.376 0.033 0.017 0.071 0.021 0.107 0.012s0.067-0.031 0.088-0.062c0.025-0.028 0.038-0.063 0.038-0.1s-0.014-0.073-0.038-0.1c-0.946-0.909-2-1.699-3.137-2.353v0c-0.532-0.307-1.081-0.584-1.644-0.828 2.322-0.002 4.58 0.761 6.425 2.171 0.027 0.021 0.059 0.033 0.093 0.033s0.067-0.010 0.095-0.029c0.028-0.020 0.048-0.048 0.058-0.080s0.010-0.067-0.002-0.099c-0.066-0.19-0.141-0.376-0.226-0.558v0c-0.050-0.113-0.1-0.22-0.157-0.333 1.731 1.325 3.178 2.985 4.254 4.882 1.157 2.155 1.841 4.531 2.008 6.971v0c0.159 1.459 0.171 2.93 0.038 4.392-0.431-1.551-1.138-3.012-2.089-4.311-0.891-1.224-1.976-2.295-3.213-3.169l1.305 0.433c0.031 0.012 0.066 0.013 0.098 0.004s0.061-0.029 0.081-0.056c0.020-0.027 0.032-0.059 0.032-0.093s-0.010-0.066-0.029-0.094c-1.158-1.745-2.851-3.066-4.825-3.765h1.682c0.031 0 0.061-0.009 0.086-0.025s0.046-0.041 0.058-0.069c0.020-0.033 0.028-0.071 0.022-0.109s-0.025-0.072-0.053-0.098v0z"></path>
<path fill="#3e41dd" d="M13.964 30.209c-0.034 0-0.067-0.011-0.094-0.031s-0.047-0.049-0.056-0.082c-0.429-1.534-1.128-2.979-2.064-4.267-0.881-1.211-1.953-2.271-3.175-3.137-0.032-0.020-0.055-0.051-0.065-0.087s-0.004-0.075 0.014-0.107c0.015-0.035 0.043-0.063 0.078-0.078s0.074-0.017 0.11-0.004l1.305 0.433c-1.141-1.711-2.805-3.008-4.744-3.696-0.037-0.011-0.069-0.034-0.089-0.067s-0.028-0.071-0.022-0.109c0.006-0.038 0.026-0.072 0.056-0.096s0.067-0.037 0.106-0.035h1.682c-1.757-1.688-4.046-2.713-6.475-2.899-0.036-0.003-0.071-0.018-0.097-0.043s-0.043-0.059-0.047-0.095c-0.004-0.036 0.005-0.072 0.024-0.103s0.048-0.054 0.082-0.066c0.781-0.248 1.597-0.366 2.416-0.351 1.086 0.022 2.156 0.274 3.137 0.74-1.369-1.321-2.965-2.384-4.712-3.137-0.033-0.015-0.060-0.040-0.077-0.072s-0.023-0.068-0.017-0.104c0.011-0.037 0.034-0.070 0.066-0.093s0.070-0.034 0.109-0.033c2.343 0 4.622 0.762 6.494 2.171-0.063-0.176-0.132-0.358-0.213-0.546s-0.1-0.213-0.157-0.32c-0.016-0.032-0.021-0.068-0.014-0.104s0.025-0.067 0.052-0.091c0.029-0.021 0.064-0.033 0.1-0.033s0.071 0.012 0.1 0.033c1.746 1.338 3.204 3.016 4.285 4.932 1.171 2.172 1.862 4.571 2.027 7.034 0.162 1.459 0.177 2.93 0.044 4.392-0.003 0.036-0.018 0.071-0.043 0.097s-0.059 0.043-0.095 0.047l-0.031 0.006zM9.509 23.018c0.948 0.763 1.792 1.647 2.51 2.629 0.803 1.089 1.438 2.292 1.882 3.57 0.061-1.172 0.027-2.347-0.1-3.514-0.169-2.415-0.847-4.767-1.989-6.902-0.956-1.677-2.211-3.166-3.702-4.392 0.043 0.1 0.081 0.203 0.113 0.307 0.022 0.063 0.022 0.131 0.002 0.194s-0.061 0.118-0.115 0.157c-0.053 0.040-0.118 0.062-0.185 0.062s-0.132-0.022-0.185-0.062c-1.613-1.216-3.544-1.94-5.559-2.083 0.326 0.163 0.627 0.333 0.96 0.514 1.139 0.659 2.192 1.456 3.137 2.372 0.052 0.052 0.085 0.12 0.092 0.194s-0.012 0.147-0.054 0.208c-0.041 0.063-0.104 0.109-0.177 0.129s-0.151 0.012-0.218-0.022c-0.935-0.448-1.956-0.69-2.993-0.709-0.503-0.007-1.005 0.038-1.5 0.132 2.191 0.342 4.224 1.35 5.823 2.886 0.045 0.043 0.076 0.1 0.089 0.161s0.007 0.125-0.016 0.183c-0.024 0.058-0.064 0.108-0.116 0.143s-0.114 0.053-0.176 0.053h-0.891c1.677 0.758 3.107 1.971 4.129 3.501 0.037 0.053 0.057 0.117 0.057 0.182s-0.020 0.128-0.057 0.182c-0.040 0.052-0.095 0.091-0.158 0.11s-0.131 0.018-0.193-0.003l-0.408-0.182z"></path>
<path fill="#3e41dd" d="M14.811 30.861c-0.039 0-0.076-0.013-0.107-0.038-0.022-0.029-0.035-0.064-0.035-0.1s0.012-0.072 0.035-0.1c0.392-0.617 0.744-1.258 1.054-1.92 0.528-1.003 0.903-2.079 1.111-3.194 0.323-2.354-0.171-4.748-1.399-6.783-0.314-0.558-0.659-1.104-0.991-1.638l-0.289-0.464c-0.443-0.69-0.848-1.404-1.211-2.14-0.885-1.838-1.556-4.455 0.264-6.482 0.755-0.802 1.746-1.34 2.83-1.537 0.033-0.006 0.067-0.001 0.098 0.014s0.055 0.038 0.072 0.068c0.018 0.027 0.028 0.059 0.028 0.091s-0.010 0.064-0.028 0.091c-0.569 0.572-0.983 1.279-1.203 2.055s-0.238 1.596-0.052 2.381c0.368 1.176 0.967 2.266 1.763 3.206l0.527 0.671c1.355 1.719 2.761 3.495 3.137 5.691 0.558 3.087-1.173 5.446-3.137 7.793-0.705 0.828-1.475 1.598-2.303 2.303-0.022 0.020-0.048 0.034-0.077 0.039s-0.059 0.003-0.086-0.008zM15.652 6.886c-0.846 0.224-1.61 0.686-2.202 1.33-1.713 1.882-1.067 4.392-0.22 6.136 0.359 0.724 0.757 1.428 1.192 2.108l0.289 0.464c0.339 0.527 0.684 1.079 1.004 1.644 1.271 2.095 1.778 4.564 1.437 6.99-0.211 1.134-0.592 2.23-1.129 3.25-0.176 0.383-0.364 0.747-0.565 1.104 0.536-0.502 1.043-1.034 1.518-1.594 1.933-2.284 3.62-4.574 3.087-7.529-0.376-2.121-1.757-3.865-3.087-5.553l-0.527-0.671c-0.824-0.973-1.445-2.102-1.826-3.319-0.185-0.756-0.189-1.546-0.010-2.304s0.535-1.463 1.039-2.057v0z"></path>
<path fill="#3e41dd" d="M19.58 1.421c0.070 0.299 0.112 0.603 0.125 0.91v0c0.016 0.242 0.016 0.485 0 0.728-0.005 0.102-0.033 0.202-0.082 0.293s-0.117 0.168-0.2 0.228c-0.095 0.051-0.2 0.083-0.308 0.092s-0.216-0.002-0.32-0.036c-0.257-0.074-0.496-0.2-0.703-0.37v0l-1.355-1.079-0.998-0.809c0.050 0.207 0.094 0.408 0.126 0.627 0.106 0.372 0.091 0.767-0.044 1.129-0.095 0.214-0.258 0.39-0.464 0.502v0c-0.197 0.087-0.418 0.107-0.627 0.056-0.2-0.045-0.394-0.115-0.577-0.207v0c-0.811-0.415-1.573-0.921-2.271-1.506 0.284 0.941 0.686 1.841 1.198 2.679 0.2 0.395 0.537 0.705 0.947 0.872 0.34 0.103 0.702 0.103 1.042 0v0c0.372-0.075 0.73-0.208 1.060-0.395l0.094-0.056c0.285-0.168 0.588-0.303 0.904-0.402 0.788-0.239 1.628-0.239 2.416 0v0c0.509 0.163 0.976 0.435 1.368 0.797 0.032 0.032 0.050 0.074 0.050 0.119-0.003 0.046-0.023 0.088-0.056 0.119-0.339 0.278-0.658 0.58-0.954 0.904-0.677 0.611-1.198 1.374-1.518 2.227-0.271 0.859-0.249 1.784 0.063 2.629 0.152 0.412 0.392 0.787 0.703 1.098 0.338 0.389 0.816 0.63 1.33 0.671v0c0.28 0.028 0.56-0.046 0.791-0.207 0.162-0.144 0.271-0.338 0.307-0.552 0.038-0.236 0.050-0.476 0.038-0.715v0c-0.065-0.722-0.237-1.43-0.508-2.102l-0.063-0.194c-0.237-0.587-0.365-1.212-0.377-1.845v-0.075c-0.026-0.322 0.035-0.644 0.176-0.935 0.108-0.21 0.265-0.391 0.458-0.527v0c0.208-0.134 0.444-0.218 0.69-0.245l0.627-0.082c-0.257-0.075-0.627-0.169-1.136-0.301-0.030-0.008-0.058-0.025-0.078-0.048s-0.034-0.053-0.038-0.084c-0.004-0.031 0.001-0.063 0.015-0.091s0.036-0.051 0.063-0.066c0.125-0.066 0.238-0.153 0.333-0.257 0.202-0.213 0.33-0.486 0.364-0.778-0.026-0.385-0.205-0.744-0.496-0.998-0.616-0.675-1.328-1.254-2.114-1.719v0z"></path>
<path fill="#3e41dd" d="M20.615 13.518h-0.138c-0.592-0.042-1.144-0.315-1.537-0.759-0.345-0.344-0.611-0.76-0.778-1.217-0.335-0.91-0.359-1.905-0.069-2.83 0.336-0.897 0.88-1.701 1.587-2.347 0.265-0.289 0.548-0.562 0.847-0.816-0.329-0.278-0.708-0.491-1.117-0.627-0.726-0.223-1.502-0.223-2.227 0-0.297 0.089-0.582 0.215-0.847 0.376l-0.082 0.044c-0.357 0.212-0.747 0.36-1.155 0.439-0.396 0.112-0.815 0.112-1.211 0-0.479-0.193-0.874-0.548-1.117-1.004-0.531-0.862-0.953-1.788-1.255-2.755l-0.301-0.985 0.803 0.627c0.678 0.568 1.417 1.061 2.202 1.468 0.162 0.079 0.333 0.14 0.508 0.182 0.146 0.039 0.3 0.028 0.439-0.031 0.141-0.077 0.254-0.198 0.32-0.345 0.044-0.094 0.132-0.27 0-0.954-0.031-0.195-0.075-0.395-0.119-0.584l-0.232-0.91 3.081 2.472c0.172 0.141 0.37 0.245 0.584 0.307 0.063 0.026 0.13 0.039 0.198 0.039s0.135-0.013 0.198-0.039c0.050-0.031 0.113-0.094 0.138-0.295 0.016-0.224 0.016-0.448 0-0.671-0.010-0.292-0.050-0.582-0.119-0.866l-0.163-0.715 0.627 0.37c0.79 0.472 1.509 1.056 2.133 1.732 0.175 0.153 0.317 0.339 0.417 0.548s0.157 0.437 0.166 0.669c-0.037 0.369-0.196 0.716-0.452 0.985-0.031 0.044-0.069 0.082-0.113 0.113 0.351 0.088 0.627 0.163 0.816 0.22l1.575 0.458-1.631 0.157c-0.163 0-0.358 0.038-0.577 0.075-0.207 0.022-0.407 0.090-0.584 0.201-0.147 0.105-0.266 0.245-0.345 0.408-0.117 0.244-0.167 0.515-0.144 0.784v0.094c0.014 0.595 0.138 1.182 0.364 1.732l0.044 0.144c0.288 0.719 0.469 1.475 0.54 2.246 0.014 0.262 0 0.525-0.044 0.784-0.049 0.285-0.196 0.544-0.414 0.734-0.233 0.191-0.516 0.309-0.816 0.339zM20.722 6.209c-0.201 0.182-0.395 0.376-0.577 0.577-0.646 0.577-1.145 1.3-1.456 2.108-0.248 0.794-0.226 1.648 0.063 2.428 0.135 0.37 0.35 0.706 0.627 0.985 0.286 0.327 0.685 0.533 1.117 0.577h0.082c0.193 0.005 0.382-0.053 0.54-0.163 0.096-0.097 0.158-0.223 0.176-0.358 0.031-0.208 0.041-0.418 0.031-0.627-0.072-0.691-0.238-1.369-0.496-2.014l-0.063-0.194c-0.248-0.619-0.38-1.278-0.389-1.945-0.031-0.393 0.043-0.787 0.213-1.142 0.037-0.081 0.081-0.159 0.132-0.232v0zM21.224 5.631c-0.005 0.049-0.020 0.096-0.044 0.138l0.138-0.082c-0.043-0.012-0.083-0.031-0.119-0.056h0.025zM12.508 2.871c0.229 0.562 0.502 1.106 0.816 1.625 0.162 0.332 0.438 0.595 0.778 0.74 0.29 0.070 0.595 0.057 0.878-0.038 0.344-0.066 0.675-0.189 0.979-0.364l0.088-0.050c0.306-0.182 0.633-0.327 0.973-0.433 0.845-0.257 1.747-0.257 2.591 0 0.544 0.174 1.045 0.463 1.468 0.847 0.014-0.068 0.042-0.133 0.083-0.189s0.094-0.103 0.155-0.137c0.095-0.052 0.181-0.117 0.257-0.194 0.159-0.173 0.258-0.393 0.282-0.627 0-0.188-0.113-0.408-0.427-0.753-0.425-0.467-0.898-0.888-1.412-1.255v0.251c0.020 0.265 0.020 0.532 0 0.797-0.008 0.147-0.051 0.291-0.124 0.419s-0.174 0.238-0.297 0.321c-0.133 0.079-0.281 0.128-0.435 0.144s-0.309-0.001-0.456-0.050c-0.298-0.085-0.576-0.23-0.816-0.427l-1.694-1.355c0.078 0.37 0.043 0.755-0.1 1.104-0.137 0.27-0.357 0.49-0.627 0.627-0.268 0.127-0.571 0.158-0.86 0.088-0.218-0.051-0.429-0.129-0.627-0.232-0.521-0.244-1.021-0.531-1.493-0.86h0.019z"></path>
</svg>
