<!-- Generated by IcoMoon.io -->
<svg version="1.1" xmlns="http://www.w3.org/2000/svg" width="37" height="32" viewBox="0 0 37 32">
<title>fishing</title>
<path fill="#3e41dd" d="M12.899 16.882c-0.094 0-0.187-0.018-0.275-0.053-0.086-0.042-0.166-0.097-0.235-0.164-0.071-0.069-0.126-0.153-0.161-0.246-0.039-0.085-0.060-0.176-0.063-0.27-0.003-0.015-0.003-0.031 0-0.047 0-0.162 0.057-0.318 0.161-0.44l5.484-5.14c0.019-0.017 0.041-0.028 0.065-0.035s0.049-0.006 0.073-0.001c0.024 0.008 0.045 0.022 0.062 0.040s0.029 0.041 0.036 0.065l0.734 2.714c0.011 0.020 0.017 0.042 0.017 0.064s-0.006 0.045-0.017 0.065c-1.916 2.386-3.717 3.446-5.857 3.446h-0.023zM12.457 16.155c0 0.051 0.012 0.101 0.034 0.146 0.018 0.058 0.050 0.11 0.092 0.152 0.044 0.041 0.095 0.075 0.149 0.1 0.055 0.023 0.113 0.035 0.172 0.035 2.025 0 3.752-1.014 5.587-3.276l-0.654-2.415-5.278 4.964c-0.055 0.074-0.083 0.165-0.080 0.258l-0.023 0.035z"></path>
<path fill="#fff" d="M13.754 5.013h-0.109c-0.283 0.015-0.561 0.083-0.82 0.199-0.406-0.31-0.905-0.465-1.411-0.44 0.399-0.29 0.891-0.416 1.377-0.352 0.377 0.077 0.717 0.284 0.964 0.586v0.006z"></path>
<path fill="#3e41dd" d="M27.872 31.418h-0.459c-0.403-0.002-0.788-0.166-1.073-0.457s-0.445-0.685-0.447-1.097v-0.152c-0.815 0.177-1.645 0.269-2.478 0.276l-2.616 1.143c-0.399 0.175-0.828 0.267-1.262 0.27h-0.545c-0.846-0.003-1.657-0.349-2.254-0.961-0.3-0.302-0.537-0.661-0.699-1.058s-0.244-0.822-0.242-1.252v-4.537c-0.003-0.132 0.006-0.263 0.029-0.393 0.067-0.61 0.302-1.187 0.677-1.666s0.877-0.838 1.445-1.036c0.569-0.2 1.18-0.234 1.767-0.1 0.585 0.138 1.121 0.443 1.543 0.879l2.295 2.315c1.118-0.050 2.185-0.493 3.021-1.253s1.39-1.792 1.568-2.921c-0.273-0.216-0.56-0.412-0.86-0.586l-1.612 2.878c-0.050 0.087-0.119 0.161-0.201 0.217-0.087 0.053-0.186 0.083-0.287 0.088v0c-0.103 0.006-0.206-0.016-0.298-0.064-0.085-0.040-0.158-0.103-0.212-0.182-0.401-0.597-0.675-1.274-0.803-1.987-0.12-0.653-0.12-1.323 0-1.975h-0.884v2.667c0.001 0.103-0.025 0.204-0.075 0.293-0.045 0.090-0.112 0.167-0.195 0.223-0.081 0.054-0.174 0.088-0.27 0.1-0.097 0.010-0.196-0.004-0.287-0.041-0.092-0.035-2.295-0.938-2.633-3.241h-6.62c-0.431-0.008-0.843-0.187-1.147-0.498-0.152-0.153-0.273-0.336-0.355-0.537s-0.126-0.417-0.127-0.635c-0.006-0.407 0.14-0.801 0.407-1.102l0.040-0.041 0.82-0.774-1.147-4.718c-0.048-0.215-0.016-0.441 0.092-0.633l-0.063-0.029c-0.114-0.067-0.204-0.17-0.258-0.293-0.095-0.45-0.095-0.916 0-1.366 0.094-0.439 0.276-0.855 0.533-1.219 0.225-0.313 0.515-0.571 0.849-0.756 0.336-0.186 0.708-0.294 1.090-0.317h5.163c0.291-0.251 0.648-0.41 1.027-0.457 0.384-0.044 0.772 0.032 1.113 0.217 0.756-0.15 1.524-0.226 2.295-0.229h7.853c0.803-0.002 1.598 0.158 2.339 0.472s1.415 0.775 1.98 1.357c1.139 1.175 1.78 2.76 1.784 4.414v4.378c-0.002 1.638-0.564 3.224-1.589 4.484-0.408 2.327-1.448 4.49-3 6.242v0.838c-0.002 1.282-0.501 2.511-1.388 3.418s-2.090 1.416-3.345 1.418v-0.023zM26.036 29.402c0.030-0.009 0.062-0.009 0.092 0 0.017 0.014 0.030 0.032 0.039 0.052s0.013 0.042 0.013 0.065v0.317c-0.001 0.166 0.031 0.33 0.093 0.483s0.153 0.292 0.268 0.408c0.232 0.235 0.545 0.367 0.872 0.369h0.459c1.179 0 2.31-0.479 3.144-1.33s1.302-2.007 1.302-3.212v-0.891c0.002-0.037 0.016-0.072 0.040-0.1 1.542-1.733 2.572-3.877 2.972-6.184-0.008-0.021-0.008-0.044 0-0.064 0.995-1.213 1.543-2.743 1.549-4.326v-4.378c-0.012-1.579-0.63-3.090-1.721-4.208-0.539-0.556-1.181-0.998-1.887-1.3s-1.465-0.458-2.231-0.459h-7.762c-0.77 0.004-1.538 0.081-2.295 0.229-0.015 0.007-0.032 0.011-0.049 0.011s-0.033-0.004-0.049-0.011c-0.3-0.172-0.645-0.244-0.987-0.205-0.338 0.041-0.656 0.186-0.912 0.416-0.013 0.013-0.028 0.024-0.045 0.031s-0.035 0.011-0.053 0.010h-5.226c-0.336 0.018-0.664 0.114-0.958 0.281-0.297 0.166-0.556 0.396-0.757 0.674-0.233 0.332-0.397 0.709-0.482 1.108-0.097 0.399-0.109 0.815-0.034 1.219 0.032 0.051 0.075 0.093 0.126 0.123 0.060 0.033 0.127 0.049 0.195 0.047h0.092c0.039-0.014 0.076-0.033 0.109-0.059 0.049-0.040 0.087-0.093 0.109-0.152-0.060-0.315-0.060-0.64 0-0.955 0.064-0.332 0.195-0.648 0.384-0.926 0.156-0.22 0.362-0.399 0.599-0.523s0.5-0.187 0.766-0.186h0.029c0.85 0.004 1.675 0.293 2.348 0.823s1.159 1.27 1.381 2.108l0.224 0.844c0.008 0.025 0.009 0.052 0.001 0.077s-0.022 0.047-0.042 0.064l-4.193 3.927c-0.017 0.019-0.039 0.033-0.064 0.039s-0.050 0.005-0.074-0.004c-0.024-0.008-0.045-0.022-0.062-0.040s-0.029-0.041-0.036-0.065l-1.027-4.214c-0.012-0.083-0.041-0.163-0.085-0.234s-0.104-0.131-0.173-0.176c-0.048-0.032-0.103-0.051-0.161-0.053h-0.069c-0.073 0.059-0.127 0.14-0.153 0.231s-0.025 0.189 0.004 0.279l1.182 4.806c0.006 0.025 0.005 0.052-0.003 0.077s-0.023 0.047-0.043 0.064l-0.906 0.856c-0.218 0.245-0.337 0.566-0.333 0.897 0 0.37 0.144 0.726 0.4 0.988s0.603 0.411 0.966 0.412h6.729c0.035 0 0.069 0.013 0.096 0.037s0.043 0.057 0.048 0.092c0.264 2.227 2.444 3.124 2.467 3.136 0.051 0.012 0.104 0.012 0.155 0 0.049-0.007 0.096-0.025 0.138-0.053s0.078-0.066 0.103-0.111c0.025-0.049 0.039-0.103 0.040-0.158v-2.813c0-0.039 0.015-0.076 0.042-0.104s0.063-0.043 0.101-0.043h0.62c0.195 0 0.39 0 0.574 0 0.020 0.002 0.040 0.008 0.058 0.018s0.033 0.024 0.045 0.041c0.008 0.020 0.012 0.040 0.012 0.062s-0.004 0.042-0.012 0.062c-0.159 0.662-0.178 1.352-0.058 2.022s0.379 1.308 0.757 1.869c0.027 0.039 0.063 0.071 0.103 0.094 0.047 0.012 0.096 0.012 0.143 0 0.060 0 0.12-0.016 0.172-0.047 0.043-0.030 0.078-0.071 0.103-0.117l1.715-2.89c0.008-0.017 0.020-0.032 0.034-0.044s0.031-0.021 0.049-0.026c0.018-0.005 0.037-0.006 0.055-0.003s0.036 0.010 0.051 0.020c0.384 0.215 0.751 0.462 1.096 0.739 0.020 0.016 0.035 0.036 0.044 0.060s0.012 0.050 0.008 0.075c-0.176 1.224-0.766 2.346-1.669 3.169s-2.060 1.297-3.27 1.338c-0.038-0.001-0.074-0.016-0.103-0.041l-2.295-2.345c-0.387-0.396-0.875-0.673-1.409-0.798s-1.091-0.095-1.608 0.089c-0.516 0.184-0.97 0.512-1.312 0.948s-0.557 0.96-0.621 1.514c-0.010 0.115-0.010 0.231 0 0.346v4.548c0.002 0.788 0.308 1.544 0.853 2.102s1.284 0.873 2.055 0.876h0.545c0.395-0.004 0.784-0.088 1.147-0.246l2.639-1.172c0.019-0.006 0.039-0.006 0.057 0 0.884-0.011 1.765-0.117 2.627-0.317l-0.011-0.006zM12.182 8.706c0.098 0.067 0.182 0.153 0.247 0.254s0.11 0.214 0.131 0.332l0.964 3.962 3.953-3.698-0.201-0.756c-0.203-0.776-0.649-1.462-1.272-1.952s-1.385-0.758-2.17-0.762c-0.226-0.004-0.45 0.046-0.654 0.146-0.198 0.104-0.37 0.254-0.499 0.44-0.168 0.242-0.283 0.518-0.338 0.809-0.057 0.292-0.057 0.593 0 0.885 0.006 0.023 0.006 0.047 0 0.070-0.028 0.103-0.084 0.196-0.161 0.27z"></path>
<path fill="#3e41dd" d="M35.249 13.922h0.883v-0.938h-1.147c0.104 0.308 0.192 0.621 0.264 0.938z"></path>
<path fill="#3e41dd" d="M36.132 14.069h-0.883c-0.032-0.001-0.062-0.013-0.087-0.033s-0.043-0.048-0.051-0.079c-0.077-0.312-0.171-0.619-0.281-0.92-0.012-0.020-0.018-0.044-0.018-0.067s0.006-0.047 0.018-0.067c0.012-0.020 0.029-0.036 0.049-0.048s0.043-0.017 0.066-0.017h1.147c0.038 0 0.075 0.015 0.101 0.043s0.042 0.065 0.042 0.104v0.938c0.001 0.033-0.008 0.065-0.027 0.091s-0.046 0.046-0.076 0.055zM35.364 13.776h0.625v-0.645h-0.82c0.069 0.199 0.132 0.41 0.195 0.645z"></path>
<path fill="#3e41dd" d="M34.589 12.047h1.543v-0.938h-2.002c0.166 0.305 0.321 0.615 0.459 0.938z"></path>
<path fill="#3e41dd" d="M36.132 12.193h-1.543c-0.028 0-0.055-0.008-0.079-0.024s-0.042-0.038-0.053-0.064c-0.134-0.317-0.285-0.626-0.453-0.926-0.013-0.022-0.019-0.048-0.019-0.073s0.007-0.051 0.019-0.073c0.012-0.022 0.030-0.039 0.051-0.052s0.045-0.019 0.070-0.019h2.002c0.038 0 0.074 0.015 0.101 0.043s0.042 0.065 0.042 0.104v0.938c0 0.038-0.014 0.074-0.040 0.102s-0.061 0.043-0.098 0.045zM34.681 11.9h1.308v-0.645h-1.629c0.126 0.217 0.229 0.434 0.321 0.645v0z"></path>
<path fill="#3e41dd" d="M33.574 10.171h2.536c-0.028-0.317-0.086-0.631-0.172-0.938h-3.029c0.235 0.299 0.459 0.615 0.665 0.938z"></path>
<path fill="#3e41dd" d="M36.109 10.317h-2.536c-0.024 0-0.047-0.006-0.068-0.017s-0.039-0.027-0.053-0.047c-0.199-0.316-0.417-0.627-0.654-0.932-0.014-0.023-0.022-0.049-0.022-0.076s0.008-0.053 0.022-0.076c0.011-0.025 0.029-0.046 0.051-0.060s0.048-0.022 0.075-0.022h3.029c0.031 0 0.061 0.010 0.086 0.029s0.043 0.046 0.052 0.076c0.089 0.316 0.148 0.64 0.178 0.967 0.003 0.020 0.001 0.040-0.005 0.060s-0.016 0.037-0.030 0.052c-0.016 0.017-0.036 0.030-0.058 0.038s-0.045 0.011-0.068 0.009zM33.654 10.024h2.295c-0.023-0.218-0.063-0.434-0.12-0.645h-2.616c0.149 0.211 0.298 0.404 0.442 0.645z"></path>
<path fill="#3e41dd" d="M32.065 8.295h3.488c-0.168-0.335-0.372-0.65-0.608-0.938h-3.901c0.358 0.292 0.699 0.605 1.021 0.938v0z"></path>
<path fill="#3e41dd" d="M35.576 8.442h-3.511c-0.039-0.002-0.076-0.018-0.103-0.047-0.319-0.326-0.654-0.635-1.004-0.926-0.025-0.018-0.043-0.044-0.052-0.074s-0.006-0.062 0.006-0.090c0.010-0.027 0.028-0.051 0.052-0.068s0.051-0.026 0.080-0.026h3.901c0.021-0.001 0.042 0.003 0.061 0.012s0.036 0.023 0.048 0.041c0.246 0.296 0.455 0.62 0.625 0.967 0.013 0.021 0.019 0.046 0.019 0.070s-0.007 0.049-0.019 0.070c-0.011 0.019-0.025 0.036-0.043 0.048s-0.038 0.020-0.060 0.023v0zM32.134 8.149h3.184c-0.127-0.227-0.273-0.443-0.436-0.645h-3.442c0.27 0.211 0.499 0.428 0.711 0.645h-0.017z"></path>
<path fill="#3e41dd" d="M0.141 7.492v-0.047 0.088c0.164-0.17 0.359-0.305 0.574-0.399l-0.109-0.053c0.253 0.847 0.59 1.666 1.004 2.444 0.23 0.425 0.533 0.805 0.895 1.12 0.163 0.151 0.36 0.26 0.574 0.316 0.178 0.032 0.362 0.004 0.523-0.079s0.292-0.218 0.372-0.384c0.174-0.317 0.263-0.674 0.258-1.037 0.011-0.484-0.085-0.965-0.281-1.407-0.138-0.334-0.293-0.668-0.43-1.002-0.316-0.746-0.588-1.512-0.815-2.292-0.235-0.726-0.372-1.481-0.407-2.245 0-0.656 0.149-1.418 0.82-1.688 0.234-0.097 0.495-0.097 0.729 0 0.752 0.278 1.418 0.753 1.933 1.377 0.104 0.098 0.196 0.208 0.275 0.328 0.138 0.182 0.27 0.363 0.39 0.557v-0.117l-0.574 0.352h0.115c-0.237-0.365-0.5-0.711-0.786-1.037-0.215-0.257-0.458-0.489-0.723-0.692-0.379-0.281-0.981-0.586-1.377-0.147-0.136 0.168-0.223 0.371-0.252 0.586-0.020 0.212-0.020 0.426 0 0.639 0.047 0.597 0.159 1.187 0.333 1.758 0.222 0.777 0.486 1.54 0.792 2.286 0.086 0.205 0.178 0.41 0.264 0.586s0.189 0.422 0.275 0.639c0.148 0.384 0.237 0.79 0.264 1.202 0.042 0.355 0.007 0.715-0.103 1.055s-0.292 0.65-0.534 0.909c-0.147 0.139-0.324 0.239-0.516 0.293-0.186 0.056-0.382 0.068-0.574 0.035-0.204-0.035-0.399-0.11-0.574-0.223-0.44-0.291-0.812-0.677-1.090-1.131-0.4-0.635-0.726-1.315-0.97-2.028-0.075-0.199-0.143-0.399-0.207-0.586-0.004-0.011-0.010-0.021-0.018-0.029s-0.018-0.014-0.028-0.018c-0.022-0.009-0.047-0.009-0.069 0-0.020 0.007-0.036 0.022-0.046 0.041-0.008 0.023-0.008 0.048 0 0.070 0.24 0.77 0.553 1.514 0.935 2.221 0.271 0.523 0.633 0.992 1.067 1.383 0.193 0.186 0.424 0.326 0.675 0.412s0.518 0.115 0.782 0.086c0.344-0.082 0.657-0.265 0.901-0.526s0.407-0.59 0.471-0.945c0.171-0.785 0.097-1.605-0.212-2.345-0.178-0.422-0.367-0.832-0.534-1.254s-0.316-0.791-0.453-1.172c-0.23-0.647-0.413-1.312-0.545-1.987-0.102-0.458-0.122-0.93-0.057-1.395 0.005-0.126 0.045-0.248 0.115-0.351s0.167-0.185 0.281-0.235c0.194-0.045 0.397-0.018 0.574 0.076 0.246 0.127 0.472 0.291 0.671 0.486 0.281 0.268 0.537 0.562 0.763 0.879 0.138 0.17 0.258 0.352 0.379 0.533 0.016 0.021 0.038 0.035 0.063 0.041 0.021 0.005 0.042 0.005 0.063 0l0.574-0.358c0.011-0.006 0.020-0.014 0.027-0.025s0.012-0.022 0.013-0.034c0.005-0.021 0.005-0.043 0-0.064-0.447-0.722-1.033-1.344-1.721-1.829-0.278-0.204-0.583-0.365-0.906-0.481-0.206-0.079-0.427-0.102-0.644-0.068s-0.422 0.124-0.595 0.262c-0.271 0.231-0.458 0.549-0.528 0.903-0.118 0.672-0.090 1.362 0.080 2.022 0.173 0.798 0.405 1.582 0.694 2.345 0.138 0.369 0.275 0.733 0.43 1.090s0.321 0.703 0.453 1.061c0.163 0.435 0.227 0.902 0.189 1.366-0.016 0.344-0.14 0.673-0.356 0.938-0.079 0.093-0.182 0.161-0.298 0.193-0.116 0.035-0.24 0.035-0.356 0h-0.029l-0.063-0.029c-0.053-0.024-0.105-0.051-0.155-0.082l-0.040-0.029-0.092-0.070c-0.069-0.059-0.138-0.117-0.195-0.176-0.163-0.164-0.31-0.342-0.442-0.533-0.417-0.644-0.749-1.342-0.987-2.075-0.086-0.234-0.161-0.481-0.247-0.721-0.002-0.011-0.007-0.022-0.014-0.031s-0.016-0.017-0.026-0.022c-0.010-0.004-0.021-0.007-0.032-0.007s-0.022 0.002-0.032 0.007c-0.241 0.1-0.459 0.252-0.637 0.445-0.003 0.013-0.003 0.028 0 0.041-0.003 0.014-0.003 0.028 0 0.041-0.003 0.017-0.003 0.035 0 0.053 0 0 0 0.041 0.046 0.047 0.010 0.004 0.021 0.007 0.032 0.007s0.022-0.002 0.032-0.007c0.011-0.003 0.021-0.009 0.029-0.017s0.014-0.019 0.017-0.030c0-0.020-0.007-0.039-0.019-0.054s-0.030-0.025-0.049-0.028v0z"></path>
<path fill="#3e41dd" d="M33.981 6.42c-0.848-0.609-1.86-0.937-2.897-0.938h-3.121c0.627 0.261 1.231 0.574 1.807 0.938h4.211z"></path>
<path fill="#3e41dd" d="M33.981 6.566h-4.211c-0.024 0.008-0.050 0.008-0.075 0-0.571-0.355-1.167-0.665-1.784-0.926-0.031-0.012-0.058-0.035-0.073-0.065s-0.020-0.065-0.013-0.099c0.005-0.033 0.022-0.063 0.048-0.085s0.057-0.033 0.090-0.033h3.121c1.068-0.002 2.11 0.333 2.983 0.961 0.024 0.019 0.041 0.045 0.051 0.074s0.010 0.061 0.001 0.090c-0.012 0.026-0.032 0.048-0.057 0.062s-0.053 0.021-0.081 0.020zM29.811 6.273h3.677c-0.733-0.423-1.561-0.645-2.404-0.645h-2.461c0.419 0.193 0.809 0.41 1.188 0.639v0.006z"></path>
<path fill="#fff" d="M13.897 8.219c-0.181 0.272-0.406 0.51-0.665 0.703-0.247 0.181-0.523 0.318-0.815 0.404-0.298 0.088-0.608 0.129-0.918 0.123-0.413-0.007-0.818-0.111-1.185-0.305s-0.684-0.473-0.926-0.814l-3.884-5.275 0.74-0.586 3.884 5.275c0.269 0.361 0.656 0.613 1.090 0.709h0.046c0.309 0.056 0.626 0.032 0.924-0.070 0.382-0.125 0.713-0.375 0.941-0.713s0.341-0.742 0.321-1.151c-0.007-0.179-0.038-0.357-0.092-0.527 0.15-0.048 0.307-0.070 0.465-0.064 0.15-0.002 0.299 0.008 0.447 0.029 0.057 0.191 0.094 0.387 0.109 0.586 0.028 0.598-0.142 1.188-0.482 1.676v0z"></path>
<path fill="#3e41dd" d="M21.905 19.684v-2.010h-1.314c0.080 0.41 0.241 0.799 0.471 1.145s0.527 0.64 0.871 0.866h-0.029z"></path>
<path fill="#3e41dd" d="M21.905 19.83c-0.024 0.008-0.050 0.008-0.075 0-0.36-0.237-0.67-0.545-0.911-0.907s-0.409-0.769-0.494-1.197c-0.010-0.019-0.015-0.040-0.015-0.061s0.005-0.043 0.015-0.062c0.013-0.016 0.030-0.030 0.049-0.039s0.039-0.014 0.060-0.014h1.342c0.038 0 0.075 0.015 0.101 0.043s0.042 0.065 0.042 0.104v2.010c0 0.026-0.007 0.052-0.020 0.075s-0.032 0.041-0.055 0.054l-0.040-0.006zM20.758 17.82c0.081 0.327 0.219 0.637 0.407 0.914 0.169 0.253 0.374 0.478 0.608 0.668v-1.583h-1.015z"></path>
<path fill="#3e41dd" d="M26.088 18.142c-0.189-0.064-0.379-0.135-0.574-0.188l-0.195-0.047-0.39-0.088c-0.23 0.877-0.166 1.808 0.184 2.643l1.233-2.21-0.201-0.088-0.057-0.023z"></path>
<path fill="#3e41dd" d="M25.124 20.61c-0.027-0.002-0.052-0.012-0.074-0.027s-0.040-0.036-0.052-0.061c-0.36-0.865-0.426-1.829-0.189-2.737 0.004-0.018 0.012-0.035 0.022-0.050s0.024-0.028 0.039-0.038c0.015-0.010 0.033-0.016 0.051-0.019s0.036-0.002 0.054 0.002c0.138 0 0.27 0.059 0.396 0.088l0.189 0.047c0.195 0.053 0.39 0.123 0.574 0.193h0.075l0.201 0.088c0.019 0.007 0.036 0.019 0.050 0.034s0.024 0.034 0.030 0.054c0.008 0.018 0.012 0.038 0.012 0.059s-0.004 0.040-0.012 0.059l-1.233 2.21c-0.009 0.028-0.027 0.053-0.051 0.071s-0.052 0.028-0.081 0.029zM25.049 17.996c-0.161 0.705-0.125 1.442 0.103 2.128l1.004-1.799-0.109-0.041c-0.189-0.064-0.373-0.135-0.574-0.188l-0.195-0.047-0.229-0.053z"></path>
<path fill="#3e41dd" d="M23.323 29.068c-0.294 0.002-0.577-0.111-0.792-0.317-0.1-0.1-0.178-0.22-0.231-0.352s-0.080-0.273-0.078-0.416v-2.345c-0.001-0.142 0.025-0.282 0.078-0.413s0.132-0.25 0.231-0.349c0.206-0.208 0.485-0.324 0.774-0.322 1.286 0.001 2.535-0.436 3.551-1.242s1.74-1.934 2.059-3.207c0.006-0.026 0.018-0.049 0.037-0.068s0.041-0.032 0.066-0.038c0.024-0.006 0.049-0.006 0.073 0s0.046 0.018 0.065 0.035c0.302 0.312 0.582 0.645 0.838 0.996 0.121 0.175 0.232 0.357 0.333 0.545l0.040 0.064c0.103 0.188 0.195 0.375 0.281 0.586l0.040 0.082c0.086 0.191 0.161 0.386 0.224 0.586l0.052 0.135c0.057 0.188 0.109 0.383 0.155 0.586l0.046 0.158c0.003 0.014 0.003 0.027 0 0.041 0.058 0.236 0.104 0.475 0.138 0.715l0.075 0.533 0.069 0.504c0.004 0.022 0.002 0.045-0.005 0.067s-0.019 0.041-0.036 0.056c-2.151 2.173-5.058 3.387-8.083 3.376zM23.282 24.848c-0.106-0.003-0.212 0.017-0.31 0.057s-0.188 0.101-0.263 0.177c-0.071 0.073-0.128 0.16-0.166 0.256s-0.058 0.198-0.058 0.301v2.345c-0.004 0.108 0.013 0.216 0.052 0.317s0.097 0.192 0.172 0.269c0.157 0.146 0.361 0.227 0.574 0.229 2.937 0.007 5.758-1.168 7.853-3.271l-0.132-0.967c-0.034-0.205-0.075-0.434-0.132-0.692-0.001-0.010-0.001-0.020 0-0.029l-0.046-0.158c-0.046-0.188-0.098-0.363-0.155-0.545l-0.046-0.123c-0.060-0.184-0.131-0.364-0.212-0.539l-0.040-0.082c-0.086-0.193-0.172-0.369-0.264-0.545v-0.041c0.001-0.012 0.001-0.023 0-0.035-0.101-0.186-0.212-0.366-0.333-0.539-0.198-0.271-0.411-0.532-0.637-0.78-0.375 1.279-1.144 2.401-2.193 3.197s-2.322 1.225-3.629 1.222l-0.034-0.023z"></path>
<path fill="#3e41dd" d="M28.818 28.54c-0.021 0.597-0.119 1.188-0.293 1.758 0.349-0.065 0.688-0.181 1.004-0.346 0.15-0.613 0.201-1.246 0.149-1.876-0.281 0.146-0.568 0.305-0.86 0.463z"></path>
<path fill="#3e41dd" d="M28.526 30.416c-0.041 0-0.080-0.017-0.109-0.047-0.009-0.022-0.014-0.046-0.014-0.070s0.005-0.048 0.014-0.070c0.17-0.551 0.266-1.123 0.287-1.7 0.002-0.027 0.010-0.052 0.024-0.075s0.033-0.041 0.056-0.054c0.304-0.152 0.574-0.311 0.849-0.475 0.022-0.013 0.047-0.020 0.072-0.020s0.050 0.007 0.072 0.020c0.021 0.012 0.038 0.029 0.051 0.049s0.021 0.044 0.023 0.068c0.052 0.645-0.001 1.295-0.155 1.922-0.003 0.020-0.011 0.039-0.023 0.055s-0.028 0.029-0.045 0.038c-0.329 0.172-0.681 0.295-1.044 0.363l-0.057-0.006zM28.962 28.622c-0.027 0.491-0.104 0.978-0.229 1.454 0.233-0.060 0.46-0.145 0.677-0.252 0.113-0.501 0.162-1.016 0.143-1.53-0.189 0.111-0.356 0.246-0.591 0.328z"></path>
<path fill="#3e41dd" d="M21.447 27.052h-4.589v1.096c0 0.252 0.045 0.502 0.132 0.739l4.457-0.973v-0.862z"></path>
<path fill="#3e41dd" d="M16.989 29.033c-0.029 0-0.056-0.009-0.080-0.026s-0.042-0.040-0.052-0.068c-0.093-0.253-0.141-0.521-0.143-0.791v-1.096c0-0.039 0.015-0.076 0.042-0.104s0.063-0.043 0.101-0.043h4.589c0.038 0 0.074 0.015 0.101 0.043s0.042 0.065 0.042 0.104v0.862c0 0.034-0.011 0.066-0.032 0.092s-0.050 0.043-0.083 0.049l-4.486 0.979zM16.989 27.198v0.95c-0.002 0.199 0.027 0.397 0.086 0.586l4.216-0.92v-0.586l-4.303-0.029z"></path>
<path fill="#3e41dd" d="M21.447 25.645c0.001-0.159 0.022-0.316 0.063-0.469l-4.652-1.266v2.204h4.589v-0.469z"></path>
<path fill="#3e41dd" d="M21.447 26.26h-4.589c-0.038 0-0.074-0.015-0.101-0.043s-0.042-0.065-0.042-0.104v-2.204c0-0.023 0.006-0.045 0.016-0.065s0.024-0.038 0.042-0.052c0.020-0.010 0.041-0.016 0.063-0.016s0.044 0.005 0.063 0.016l4.652 1.266c0.018 0.004 0.035 0.012 0.049 0.023s0.027 0.025 0.037 0.041c0.014 0.036 0.014 0.076 0 0.111-0.036 0.142-0.055 0.287-0.057 0.434v0.469c-0.005 0.033-0.021 0.063-0.045 0.085s-0.055 0.036-0.087 0.038zM17.001 25.967h4.302v-0.322c0-0.122 0.012-0.244 0.034-0.363l-4.337-1.172v1.858z"></path>
<path fill="#3e41dd" d="M22.405 24.004l-1.899-1.911c-0.403-0.408-0.947-0.637-1.514-0.639-0.457-0.001-0.901 0.149-1.268 0.428s-0.638 0.668-0.774 1.114l5.025 1.366c0.125-0.141 0.27-0.261 0.43-0.358v0z"></path>
<path fill="#3e41dd" d="M21.974 24.478h-0.034l-5.025-1.366c-0.019-0.005-0.037-0.013-0.053-0.026s-0.029-0.028-0.039-0.045c-0.010-0.018-0.016-0.037-0.018-0.057s0-0.040 0.006-0.060c0.119-0.382 0.332-0.726 0.619-1s0.637-0.468 1.018-0.564 0.78-0.090 1.158 0.016c0.378 0.106 0.723 0.31 1.003 0.592l1.899 1.94c0.015 0.016 0.027 0.036 0.034 0.057s0.009 0.044 0.007 0.066c-0.003 0.023-0.011 0.044-0.024 0.063s-0.030 0.033-0.051 0.043c-0.145 0.082-0.278 0.185-0.396 0.305-0.014 0.013-0.030 0.022-0.048 0.028s-0.036 0.008-0.055 0.007zM17.15 22.866l4.796 1.307c0.074-0.074 0.154-0.141 0.241-0.199l-1.767-1.805c-0.38-0.375-0.888-0.586-1.417-0.586-0.425 0.001-0.839 0.14-1.182 0.399-0.302 0.224-0.535 0.531-0.671 0.885v0z"></path>
<path fill="#3e41dd" d="M21.647 28.827l-4.125 0.885c0.398 0.38 0.924 0.59 1.469 0.586h0.539c0.292 0 0.581-0.059 0.849-0.176l1.721-0.75c-0.184-0.151-0.337-0.336-0.453-0.545z"></path>
<path fill="#3e41dd" d="M19.531 30.48h-0.539c-0.584 0-1.146-0.231-1.566-0.645-0.019-0.019-0.032-0.042-0.039-0.068s-0.007-0.053-0.001-0.079c0.008-0.026 0.022-0.049 0.041-0.067s0.042-0.032 0.068-0.038l4.125-0.903c0.032-0.006 0.065-0.001 0.094 0.014s0.052 0.039 0.067 0.068c0.097 0.205 0.236 0.387 0.407 0.533 0.017 0.017 0.031 0.038 0.039 0.062s0.010 0.048 0.007 0.073c-0.003 0.025-0.013 0.048-0.028 0.068s-0.035 0.035-0.058 0.044l-1.721 0.75c-0.283 0.122-0.587 0.186-0.895 0.188zM17.844 29.806c0.334 0.247 0.735 0.381 1.147 0.381h0.539c0.274-0.002 0.544-0.058 0.797-0.164l1.509-0.662c-0.102-0.112-0.191-0.236-0.264-0.369l-3.729 0.815z"></path>
<path fill="#3e41dd" d="M26.954 29.865c0 0.061 0.011 0.121 0.034 0.177s0.056 0.108 0.098 0.151c0.043 0.044 0.094 0.080 0.15 0.104s0.116 0.037 0.177 0.037h0.126c0.149-0.444 0.258-0.901 0.327-1.366-0.302 0.121-0.606 0.232-0.912 0.334v0.563z"></path>
<path fill="#3e41dd" d="M27.539 30.48h-0.126c-0.154-0.009-0.299-0.078-0.406-0.192s-0.167-0.266-0.168-0.424v-0.586c0-0.032 0.010-0.063 0.029-0.088s0.045-0.044 0.075-0.053c0.281-0.094 0.574-0.199 0.901-0.328 0.022-0.013 0.047-0.020 0.072-0.020s0.050 0.007 0.072 0.020c0.020 0.016 0.035 0.036 0.044 0.060s0.012 0.050 0.008 0.075c-0.070 0.472-0.181 0.937-0.333 1.389-0.001 0.021-0.006 0.042-0.015 0.061s-0.022 0.036-0.037 0.050c-0.016 0.014-0.034 0.024-0.054 0.030s-0.041 0.008-0.061 0.006v0zM27.097 29.408v0.457c0 0.085 0.033 0.167 0.092 0.228s0.139 0.094 0.223 0.094v0c0.105-0.324 0.187-0.655 0.247-0.991l-0.562 0.211z"></path>
<path fill="#3e41dd" d="M30.591 29.085c0.598-0.671 0.935-1.543 0.947-2.45-0.327 0.304-0.672 0.588-1.033 0.85 0.123 0.524 0.152 1.066 0.086 1.6v0z"></path>
<path fill="#3e41dd" d="M30.591 29.232c-0.019 0.006-0.039 0.006-0.057 0-0.028-0.013-0.051-0.035-0.067-0.062s-0.022-0.059-0.019-0.090c0.067-0.516 0.040-1.041-0.080-1.547-0.007-0.028-0.005-0.058 0.005-0.086s0.029-0.051 0.053-0.067c0.354-0.262 0.692-0.544 1.015-0.844 0.023-0.014 0.050-0.021 0.077-0.021s0.054 0.007 0.077 0.021c0.026 0.011 0.048 0.029 0.064 0.054s0.023 0.052 0.022 0.081c-0.013 0.943-0.361 1.85-0.981 2.55-0.034 0.017-0.073 0.022-0.109 0.012v0zM30.665 27.55c0.074 0.352 0.108 0.712 0.103 1.073 0.334-0.488 0.544-1.055 0.608-1.647-0.229 0.199-0.459 0.393-0.711 0.574z"></path>
<path fill="#3e41dd" d="M32.128 24.807h-0.063c-0.026-0.009-0.049-0.025-0.066-0.047s-0.028-0.048-0.031-0.076l-0.046-0.276c0-0.199-0.069-0.404-0.109-0.586l-0.040-0.199c-0.003-0.016-0.003-0.031 0-0.047l-0.034-0.123c-0.052-0.205-0.109-0.399-0.184-0.633l-0.046-0.111c-0.066-0.2-0.144-0.396-0.235-0.586-0.013-0.034-0.028-0.068-0.046-0.1-0.098-0.211-0.195-0.422-0.298-0.586l-0.040-0.070c-0.109-0.199-0.224-0.381-0.338-0.557l-0.040-0.070c-0.223-0.348-0.47-0.679-0.74-0.991l-0.78-0.768 0.063-0.135-0.092 0.111c-0.557-0.484-1.174-0.89-1.836-1.207l-0.057-0.029c-0.207-0.1-0.413-0.188-0.625-0.27l-0.115-0.047c-0.212-0.076-0.419-0.147-0.648-0.217l-0.706-0.158-0.235-0.035-0.528-0.070h-0.384c-0.030-0.001-0.059-0.012-0.083-0.031s-0.041-0.045-0.049-0.074c-0.009-0.029-0.007-0.060 0.003-0.089s0.029-0.053 0.054-0.069c0.719-0.51 1.293-1.206 1.664-2.016 0.368-0.808 0.515-1.704 0.425-2.591-0.081-0.889-0.394-1.739-0.906-2.462-0.49-0.679-1.136-1.225-1.882-1.588l-0.252 0.586c0.877 0.425 1.586 1.143 2.010 2.034s0.539 1.904 0.326 2.872c-0.214 0.967-0.743 1.831-1.501 2.45s-1.7 0.956-2.67 0.955h-1.52c-0.031 0-0.061-0.010-0.086-0.029s-0.043-0.046-0.052-0.076c-0.009-0.031-0.008-0.064 0.003-0.093s0.033-0.055 0.060-0.071c0.404-0.269 0.771-0.592 1.090-0.961l0.447-0.527c0.403-0.47 0.693-1.029 0.848-1.633s0.171-1.237 0.047-1.848l-0.614 0.158c0.101 0.483 0.101 0.982 0 1.465-0.124 0.53-0.372 1.021-0.723 1.43l-0.459 0.533c-0.443 0.521-0.991 0.937-1.606 1.219s-1.282 0.43-1.956 0.434h-0.092c-0.031-0.001-0.060-0.011-0.085-0.031s-0.042-0.046-0.050-0.076c-0.008-0.030-0.007-0.062 0.004-0.092s0.031-0.054 0.056-0.071c1.221-0.77 2.292-1.764 3.161-2.931 0.033-0.043 0.056-0.093 0.069-0.146 0.011-0.046 0.011-0.095 0-0.141l-1.285-4.806c-0.263-1-0.85-1.88-1.664-2.497-0.023-0.019-0.041-0.045-0.049-0.075s-0.007-0.061 0.003-0.090c0.009-0.028 0.027-0.053 0.051-0.071s0.052-0.028 0.081-0.029h1.721c0.022-0.001 0.045 0.004 0.065 0.014s0.037 0.026 0.050 0.045c0.010 0.019 0.015 0.040 0.015 0.062s-0.005 0.042-0.015 0.062c-0.036 0.142-0.055 0.287-0.057 0.434 0 0.226 0.043 0.451 0.128 0.66s0.209 0.399 0.366 0.559c0.242 0.222 0.54 0.369 0.861 0.425s0.65 0.018 0.95-0.11c0.3-0.128 0.559-0.339 0.746-0.611s0.295-0.592 0.312-0.923c-0.002-0.263-0.063-0.521-0.178-0.756-0.011-0.021-0.017-0.044-0.017-0.067s0.006-0.047 0.017-0.067c0.011-0.020 0.027-0.038 0.046-0.051s0.041-0.022 0.063-0.025c0.526-0.078 1.057-0.117 1.589-0.117 2.29-0.001 4.529 0.693 6.434 1.993s3.389 3.148 4.265 5.31v0c0.584 1.438 0.883 2.98 0.878 4.537 0.002 0.662-0.052 1.323-0.161 1.975-0.332 2.053-1.194 3.979-2.495 5.58-0.013 0.013-0.028 0.022-0.045 0.028s-0.035 0.008-0.052 0.007v0zM24.263 16.601l0.281 0.041 0.252 0.029 0.252 0.035 0.539 0.129 0.178 0.041c0.252 0.070 0.465 0.147 0.665 0.217l0.109 0.035c0.224 0.088 0.436 0.182 0.648 0.281 0.029 0.009 0.056 0.023 0.080 0.041 0.677 0.324 1.308 0.74 1.876 1.237h0.029l0.046 0.041 0.757 0.744c0.281 0.305 0.538 0.633 0.769 0.979v0.070c0.126 0.193 0.247 0.381 0.361 0.586v0.041c0.12 0.217 0.224 0.428 0.316 0.639 0.023 0.035 0.042 0.073 0.057 0.111 0.086 0.193 0.166 0.404 0.241 0.627l0.046 0.111c0.080 0.246 0.138 0.451 0.189 0.656l0.029 0.105c0.008 0.037 0.008 0.075 0 0.111l0.034 0.135c0.046 0.223 0.086 0.422 0.115 0.586 1.548-2.032 2.386-4.535 2.381-7.11 0.008-1.508-0.279-3.002-0.843-4.396-0.004-0.019-0.004-0.039 0-0.059-0.858-2.106-2.307-3.905-4.164-5.171s-4.039-1.943-6.271-1.944v0c-0.455 0-0.909 0.029-1.36 0.088 0.080 0.224 0.123 0.459 0.126 0.697 0.001 0.401-0.114 0.792-0.331 1.126s-0.526 0.594-0.888 0.748-0.76 0.194-1.145 0.116c-0.385-0.078-0.738-0.271-1.015-0.554-0.183-0.188-0.328-0.411-0.427-0.657s-0.148-0.508-0.147-0.774c0.001-0.108 0.011-0.216 0.029-0.322h-1.147c0.7 0.636 1.203 1.467 1.446 2.391l1.285 4.8c0.022 0.092 0.022 0.189 0 0.281-0.023 0.097-0.064 0.189-0.12 0.27-0.781 1.059-1.727 1.979-2.799 2.726 0.488-0.046 0.965-0.175 1.411-0.381 0.579-0.277 1.093-0.677 1.509-1.172l0.465-0.533c0.319-0.373 0.543-0.819 0.654-1.301 0.115-0.483 0.115-0.988 0-1.471-0.009-0.037-0.003-0.077 0.017-0.109s0.050-0.057 0.087-0.066l0.889-0.229c0.018-0.005 0.037-0.007 0.056-0.004s0.037 0.009 0.053 0.019 0.030 0.023 0.041 0.039c0.011 0.016 0.019 0.033 0.023 0.052 0.167 0.675 0.171 1.382 0.011 2.059s-0.479 1.304-0.929 1.827l-0.453 0.528c-0.235 0.272-0.495 0.521-0.774 0.744h1.107c0.684 0 1.356-0.181 1.952-0.523s1.096-0.836 1.451-1.433c0.355-0.597 0.555-1.277 0.579-1.975s-0.128-1.391-0.442-2.012c-0.42-0.833-1.109-1.491-1.95-1.864-0.035-0.016-0.061-0.046-0.075-0.082-0.011-0.036-0.011-0.075 0-0.111l0.367-0.862c0.007-0.018 0.018-0.034 0.032-0.047s0.030-0.024 0.047-0.031c0.018-0.007 0.036-0.011 0.055-0.010s0.038 0.005 0.055 0.012c0.85 0.381 1.585 0.988 2.128 1.758 0.545 0.763 0.878 1.662 0.964 2.602 0.085 0.87-0.043 1.749-0.372 2.556s-0.85 1.518-1.515 2.069l0.080 0.064zM30.573 16.601c-0.695 0.001-1.382-0.159-2.008-0.469-0.635-0.314-1.189-0.776-1.618-1.348l-0.029-0.035c-0.015-0.013-0.026-0.029-0.035-0.048s-0.012-0.038-0.012-0.058 0.004-0.040 0.012-0.058c0.008-0.018 0.020-0.034 0.035-0.048l0.74-0.557c0.015-0.012 0.032-0.020 0.050-0.025s0.037-0.006 0.056-0.003c0.019 0.003 0.037 0.009 0.053 0.019s0.030 0.023 0.042 0.038c0.442 0.587 1.055 1.017 1.75 1.227s1.438 0.191 2.122-0.055l-3.35-2.655c-0.031-0.025-0.051-0.060-0.057-0.1-0.002-0.037 0.008-0.075 0.029-0.105l0.574-0.744c0.028-0.027 0.065-0.042 0.103-0.042s0.075 0.015 0.103 0.042l4.13 3.282c0.078 0.067 0.141 0.151 0.184 0.246 0.037 0.095 0.051 0.198 0.041 0.3s-0.044 0.2-0.098 0.286c-0.061 0.086-0.142 0.157-0.235 0.205l-0.413 0.211c-0.671 0.337-1.409 0.509-2.157 0.504l-0.011-0.012zM27.235 14.684c0.396 0.495 0.894 0.895 1.457 1.172 0.587 0.288 1.23 0.438 1.882 0.44h0.029c0.705 0 1.401-0.169 2.031-0.492l0.413-0.211c0.050-0.024 0.094-0.060 0.126-0.106 0.028-0.044 0.044-0.094 0.046-0.146 0.016-0.053 0.016-0.111 0-0.164-0.020-0.051-0.054-0.096-0.097-0.129l-4.016-3.189-0.396 0.51 3.442 2.726c0.020 0.016 0.035 0.036 0.044 0.060s0.012 0.050 0.008 0.075c-0.004 0.025-0.013 0.049-0.028 0.070s-0.035 0.037-0.058 0.047c-0.763 0.331-1.612 0.396-2.415 0.188-0.758-0.197-1.436-0.631-1.939-1.243l-0.528 0.393z"></path>
<path fill="#3e41dd" d="M30.573 16.613c-0.692-0.001-1.374-0.161-1.996-0.469-0.634-0.315-1.189-0.774-1.623-1.342l-0.029-0.053c-0.021-0.031-0.030-0.068-0.024-0.105s0.024-0.071 0.053-0.094l0.74-0.551c0.027-0.026 0.063-0.040 0.1-0.040s0.073 0.014 0.1 0.040c0.445 0.583 1.056 1.009 1.749 1.219s1.433 0.194 2.117-0.047l-3.344-2.661c-0.026-0.027-0.041-0.064-0.041-0.103s0.015-0.075 0.041-0.103l0.574-0.744c0.027-0.027 0.063-0.042 0.1-0.042s0.074 0.015 0.1 0.042l4.13 3.282c0.072 0.063 0.131 0.141 0.172 0.229 0.038 0.097 0.054 0.201 0.046 0.305-0.007 0.104-0.040 0.205-0.098 0.292s-0.137 0.156-0.229 0.201l-0.419 0.211c-0.672 0.342-1.412 0.52-2.163 0.522l-0.057 0.012zM27.241 14.696c0.398 0.495 0.898 0.895 1.463 1.172 0.582 0.29 1.222 0.441 1.87 0.44 0.718 0 1.427-0.169 2.071-0.492l0.413-0.211c0.048-0.025 0.089-0.061 0.12-0.105 0.031-0.047 0.051-0.102 0.057-0.158 0.011-0.050 0.011-0.102 0-0.152-0.023-0.048-0.056-0.090-0.097-0.123v0l-4.016-3.183-0.39 0.51 3.442 2.726c0.019 0.016 0.034 0.037 0.043 0.060s0.012 0.049 0.008 0.074c-0.004 0.025-0.013 0.049-0.028 0.070s-0.035 0.037-0.058 0.047c-0.74 0.322-1.561 0.393-2.344 0.203s-1.485-0.631-2.004-1.258l-0.551 0.381z"></path>
<path fill="#3e41dd" d="M35.673 17.204c0 0.041 0 0.082 0 0.123 0.302-0.731 0.46-1.516 0.465-2.309v-0.158h-0.677c0.141 0.773 0.214 1.558 0.218 2.345h-0.006z"></path>
<path fill="#3e41dd" d="M35.668 17.474c-0.032-0.009-0.060-0.028-0.081-0.054s-0.032-0.059-0.034-0.093c0 0 0-0.047 0-0.070v-0.053c-0.001-0.786-0.072-1.571-0.212-2.345-0.005-0.020-0.006-0.042-0.001-0.063s0.015-0.039 0.029-0.055c0.013-0.016 0.030-0.030 0.049-0.039s0.039-0.014 0.060-0.014h0.677c0.038 0 0.074 0.015 0.101 0.043s0.042 0.065 0.042 0.104v0.158c-0.006 0.806-0.168 1.603-0.476 2.345-0.001 0.019-0.007 0.038-0.015 0.055s-0.020 0.033-0.035 0.045c-0.014 0.013-0.031 0.022-0.049 0.028s-0.037 0.008-0.056 0.007v0zM35.628 15.007c0.085 0.494 0.141 0.993 0.166 1.495 0.129-0.483 0.195-0.982 0.195-1.483v0l-0.361-0.012z"></path>
<path fill="#fff" d="M20.081 7.029c0.329 0 0.597-0.273 0.597-0.61s-0.267-0.61-0.597-0.61c-0.329 0-0.597 0.273-0.597 0.61s0.267 0.61 0.597 0.61z"></path>
</svg>
