<!-- Generated by IcoMoon.io -->
<svg version="1.1" xmlns="http://www.w3.org/2000/svg" width="44" height="32" viewBox="0 0 44 32">
<title>lottery</title>
<path fill="#3e41dd" d="M9.667 21.757l-0.519-0.089c-2.544-0.443-4.85-1.75-6.521-3.693-1.694-1.972-2.624-4.474-2.625-7.060 0-6.020 4.962-10.915 11.062-10.915 2.116 0.004 4.186 0.604 5.967 1.731s3.199 2.731 4.087 4.626l0.22 0.474-0.527 0.039c-2.153 0.161-4.225 0.876-6.010 2.073-1.267 0.849-2.363 1.921-3.234 3.164-0.528 0.752-0.968 1.56-1.313 2.409-0.286 0.707-0.505 1.438-0.653 2.184-0.152 0.776-0.228 1.564-0.227 2.353 0 0.735 0.066 1.468 0.198 2.191l0.094 0.511zM11.063 0.725c-5.694 0-10.327 4.569-10.327 10.19-0.005 2.31 0.788 4.552 2.247 6.358s3.499 3.068 5.782 3.577c-0.084-0.595-0.126-1.195-0.126-1.796 0-0.836 0.081-1.671 0.243-2.492 0.157-0.792 0.389-1.567 0.692-2.316 0.365-0.899 0.832-1.755 1.391-2.552 0.921-1.316 2.081-2.452 3.422-3.35 1.741-1.168 3.741-1.905 5.832-2.147-0.877-1.648-2.193-3.029-3.807-3.993s-3.463-1.476-5.35-1.48l0.001-0.001z"></path>
<path fill="#fff" d="M14.178 6.35c-0.301-0.475-0.735-0.854-1.25-1.091-0.539-0.257-1.162-0.386-1.869-0.387s-1.33 0.128-1.87 0.387c-0.515 0.237-0.949 0.616-1.25 1.091-0.301 0.492-0.454 1.059-0.441 1.633v0.309c0.002 0.483 0.151 0.955 0.429 1.353 0.283 0.421 0.677 0.759 1.139 0.977-0.546 0.261-1.005 0.671-1.323 1.181-0.32 0.499-0.489 1.077-0.487 1.667v0.196c-0.013 0.609 0.15 1.209 0.47 1.73 0.322 0.504 0.785 0.904 1.333 1.152 0.060 0.028 0.121 0.055 0.182 0.081 0.152-0.768 0.378-1.521 0.673-2.248-0.079-0.077-0.147-0.164-0.204-0.258-0.132-0.232-0.199-0.495-0.193-0.761v-0.123c-0.005-0.248 0.062-0.493 0.193-0.704 0.131-0.205 0.319-0.369 0.541-0.472 0.253-0.116 0.53-0.174 0.809-0.168 0.073 0 0.138 0 0.204 0.009 0.897-1.278 2.024-2.382 3.327-3.256 0.018-0.117 0.027-0.235 0.027-0.352v-0.309c0.013-0.576-0.14-1.143-0.441-1.636zM12.358 8.38c0.005 0.244-0.050 0.486-0.161 0.704-0.102 0.198-0.26 0.362-0.454 0.473-0.208 0.114-0.443 0.172-0.681 0.167-0.238 0.005-0.473-0.053-0.681-0.167-0.194-0.11-0.352-0.273-0.454-0.469-0.111-0.214-0.166-0.452-0.161-0.693v-0.122c-0.005-0.23 0.051-0.457 0.161-0.66 0.104-0.187 0.262-0.34 0.454-0.439 0.211-0.107 0.445-0.16 0.681-0.155 0.236-0.005 0.47 0.049 0.681 0.155 0.191 0.098 0.349 0.25 0.454 0.435 0.11 0.2 0.166 0.425 0.161 0.653v0.117z"></path>
<path fill="#3e41dd" d="M33.845 21.794l0.095-0.512c0.136-0.735 0.205-1.48 0.205-2.227 0-0.714-0.063-1.427-0.187-2.131-0.331-1.835-1.082-3.572-2.196-5.077-1.052-1.424-2.405-2.607-3.965-3.466s-3.29-1.375-5.071-1.511l-0.528-0.041 0.22-0.474c0.877-1.862 2.267-3.443 4.013-4.562 1.793-1.152 3.888-1.763 6.027-1.761 6.101 0 11.062 4.896 11.062 10.915 0 2.587-0.931 5.090-2.627 7.062-1.673 1.944-3.982 3.25-6.528 3.692l-0.52 0.092zM23.319 6.201c1.789 0.21 3.514 0.782 5.069 1.68s2.905 2.102 3.967 3.538c1.181 1.595 1.977 3.436 2.326 5.381 0.133 0.745 0.199 1.499 0.199 2.256-0.001 0.614-0.045 1.227-0.132 1.835 2.285-0.508 4.325-1.77 5.786-3.576s2.254-4.049 2.25-6.36c0-5.618-4.631-10.19-10.327-10.19-1.879 0.004-3.722 0.512-5.331 1.47s-2.925 2.328-3.806 3.966v0.001z"></path>
<path fill="#fff" d="M32.388 5.029l-1.791 0.798v2.371l1.461-0.546v3.979c1.151 1.549 1.924 3.338 2.262 5.23v-11.832h-1.932z"></path>
<path fill="#3e41dd" d="M21.76 32c-3.073 0.003-6.049-1.059-8.409-3.001s-3.953-4.641-4.501-7.624c-0.14-0.766-0.211-1.543-0.21-2.321 0-0.836 0.081-1.671 0.243-2.492 0.157-0.791 0.389-1.567 0.692-2.316 0.365-0.899 0.832-1.755 1.391-2.552 0.921-1.316 2.081-2.452 3.422-3.35 1.891-1.27 4.087-2.028 6.368-2.2 0.674-0.051 1.352-0.051 2.026 0 1.887 0.144 3.72 0.69 5.372 1.599s3.086 2.162 4.201 3.67c1.181 1.595 1.977 3.436 2.326 5.381 0.133 0.746 0.2 1.502 0.199 2.259 0 0.791-0.073 1.58-0.217 2.358-0.557 2.975-2.153 5.663-4.51 7.598s-5.327 2.992-8.394 2.99v0zM21.76 6.834c-0.318 0-0.637 0.012-0.948 0.036-2.153 0.161-4.226 0.877-6.011 2.074-1.267 0.849-2.363 1.921-3.234 3.164-0.528 0.752-0.968 1.56-1.313 2.409-0.286 0.706-0.505 1.438-0.653 2.184-0.152 0.776-0.227 1.564-0.226 2.353 0 0.735 0.066 1.468 0.198 2.191 0.517 2.816 2.021 5.364 4.249 7.197s5.037 2.836 7.938 2.832c2.894 0.002 5.697-0.997 7.922-2.822s3.732-4.363 4.257-7.171c0.137-0.735 0.205-1.48 0.206-2.227 0-0.714-0.063-1.427-0.187-2.131-0.331-1.835-1.082-3.572-2.196-5.077-1.052-1.424-2.405-2.607-3.965-3.466s-3.29-1.375-5.071-1.511c-0.326-0.024-0.648-0.036-0.966-0.036z"></path>
<path fill="#fff" d="M18.010 23.336l4.441-5.76c0.192-0.242 0.349-0.51 0.467-0.795 0.104-0.241 0.16-0.499 0.165-0.761v-0.018c0-0.346-0.113-0.611-0.338-0.799s-0.546-0.281-0.964-0.281c-0.404 0-0.73 0.13-0.979 0.391s-0.4 0.631-0.454 1.111v0.009h-2.495v-0.009c0.053-0.796 0.247-1.48 0.583-2.054 0.316-0.556 0.787-1.012 1.357-1.313s1.228-0.452 1.976-0.452c0.807 0 1.496 0.13 2.069 0.391 0.545 0.237 1.002 0.634 1.308 1.137 0.3 0.498 0.45 1.098 0.45 1.8v0.009c-0.001 0.588-0.105 1.172-0.307 1.726-0.199 0.559-0.489 1.083-0.859 1.549l-3.186 3.969h4.423v2.318h-7.657v-2.167z"></path>
</svg>
