<!-- Generated by IcoMoon.io -->
<svg version="1.1" xmlns="http://www.w3.org/2000/svg" width="31" height="32" viewBox="0 0 31 32">
<title>poker</title>
<path fill="#3e41dd" d="M24.458 31.386c-0.114 0-0.227-0.015-0.336-0.046l-9.005-2.469 5.619-1.54c0.155-0.042 0.297-0.122 0.413-0.232s0.204-0.248 0.254-0.4l0.035-0.104h2.151c0.295 0 0.577-0.118 0.786-0.326s0.326-0.491 0.326-0.786v-18.787l5.741 1.575c0.162 0.044 0.313 0.12 0.446 0.222s0.243 0.231 0.326 0.376c0.083 0.146 0.136 0.306 0.157 0.473s0.009 0.335-0.036 0.497l-5.645 20.606c-0.074 0.27-0.235 0.508-0.457 0.678s-0.495 0.262-0.775 0.262zM16.263 28.873l7.937 2.175c0.123 0.034 0.252 0.043 0.379 0.027s0.249-0.057 0.36-0.12c0.111-0.063 0.209-0.148 0.287-0.249s0.136-0.216 0.169-0.34l5.645-20.606c0.034-0.123 0.043-0.252 0.027-0.379s-0.057-0.249-0.12-0.36c-0.063-0.111-0.148-0.209-0.249-0.287s-0.216-0.136-0.34-0.17l-5.361-1.469v18.388c0 0.375-0.15 0.735-0.415 1s-0.625 0.415-1 0.415h-1.934c-0.076 0.175-0.19 0.331-0.335 0.456s-0.315 0.216-0.499 0.267l-4.552 1.251z"></path>
<path fill="#3e41dd" d="M23.969 29.732c-0.103 0-0.205-0.014-0.304-0.041l-5.769-1.583 2.839-0.778c0.155-0.042 0.297-0.122 0.413-0.232s0.204-0.248 0.254-0.4l0.035-0.104h2.151c0.295 0 0.577-0.118 0.786-0.326s0.326-0.491 0.326-0.786v-17.262l4.513 1.237c0.29 0.080 0.537 0.272 0.686 0.534s0.188 0.572 0.109 0.863l-4.946 18.044c-0.066 0.24-0.208 0.451-0.405 0.602s-0.439 0.233-0.687 0.234l-0.001-0.002zM19.044 28.108l4.703 1.289c0.213 0.058 0.44 0.029 0.632-0.080s0.332-0.29 0.391-0.503l4.943-18.040c0.058-0.213 0.029-0.44-0.080-0.632s-0.29-0.333-0.503-0.391l-4.128-1.132v16.866c0 0.375-0.15 0.735-0.415 1s-0.625 0.415-1 0.415h-1.938c-0.076 0.175-0.19 0.331-0.335 0.456s-0.315 0.216-0.499 0.267l-1.771 0.486z"></path>
<path fill="#3e41dd" d="M7.412 29.732c-0.249-0.001-0.49-0.083-0.687-0.234s-0.34-0.363-0.405-0.602l-4.946-18.042c-0.079-0.291-0.040-0.601 0.109-0.863s0.396-0.454 0.686-0.534l4.513-1.237v17.264c0 0.295 0.118 0.577 0.326 0.786s0.491 0.326 0.786 0.326h11.213l-11.291 3.096c-0.099 0.027-0.201 0.041-0.304 0.040zM6.379 8.62l-4.128 1.132c-0.212 0.059-0.393 0.199-0.502 0.39s-0.138 0.418-0.081 0.631l4.944 18.042c0.058 0.213 0.199 0.394 0.391 0.503s0.419 0.138 0.632 0.080l9.118-2.499h-8.959c-0.375 0-0.735-0.15-1-0.415s-0.414-0.625-0.415-1v-16.863z"></path>
<path fill="#3e41dd" d="M6.923 31.386c-0.28 0-0.552-0.092-0.774-0.262s-0.383-0.408-0.457-0.677l-5.645-20.606c-0.045-0.162-0.057-0.331-0.036-0.497s0.074-0.327 0.157-0.473 0.194-0.274 0.327-0.377c0.133-0.103 0.284-0.178 0.446-0.223l5.745-1.575v1.838l-4.431 1.214c-0.213 0.058-0.395 0.199-0.505 0.391s-0.139 0.42-0.081 0.633l4.944 18.042c0.058 0.213 0.199 0.394 0.391 0.503s0.419 0.138 0.632 0.080l10.225-2.803h3.896l-0.067 0.2c-0.066 0.199-0.181 0.379-0.334 0.523s-0.338 0.249-0.541 0.304l-13.556 3.715c-0.109 0.031-0.223 0.048-0.336 0.049zM6.377 7.096l-5.361 1.469c-0.248 0.068-0.459 0.233-0.587 0.457s-0.16 0.489-0.092 0.738l5.645 20.606c0.034 0.123 0.091 0.239 0.169 0.34s0.176 0.186 0.287 0.249c0.111 0.063 0.233 0.104 0.36 0.12s0.255 0.007 0.379-0.027l13.556-3.715c0.239-0.066 0.444-0.22 0.573-0.432h-3.405l-10.187 2.793c-0.144 0.040-0.294 0.050-0.442 0.032s-0.291-0.066-0.421-0.14-0.244-0.173-0.335-0.291c-0.091-0.118-0.159-0.253-0.198-0.397l-4.944-18.042c-0.079-0.291-0.040-0.601 0.109-0.863s0.396-0.454 0.686-0.534l4.21-1.153-0.002-1.207z"></path>
<path fill="#3e41dd" d="M23.587 26.899h-15.793c-0.375 0-0.735-0.15-1-0.415s-0.414-0.625-0.415-1v-24.007c0-0.375 0.149-0.735 0.415-1.001s0.625-0.415 1-0.415h15.793c0.375 0 0.735 0.15 1 0.415s0.414 0.625 0.415 1v24.008c0 0.375-0.15 0.735-0.415 1s-0.625 0.415-1 0.415zM7.794 0.364c-0.295 0-0.577 0.118-0.786 0.326s-0.326 0.491-0.326 0.786v24.008c0 0.295 0.118 0.577 0.326 0.786s0.491 0.326 0.786 0.326h15.793c0.295 0 0.577-0.118 0.786-0.326s0.326-0.491 0.326-0.786v-24.007c0-0.295-0.117-0.578-0.325-0.786s-0.491-0.326-0.786-0.326h-15.793z"></path>
<path fill="#3e41dd" d="M23.587 26.96h-15.793c-0.391 0-0.766-0.156-1.043-0.433s-0.432-0.652-0.433-1.043v-24.007c0-0.391 0.156-0.767 0.432-1.044s0.652-0.433 1.043-0.433h15.793c0.391 0 0.766 0.156 1.043 0.433s0.432 0.652 0.433 1.043v24.008c0 0.391-0.156 0.766-0.433 1.043s-0.652 0.432-1.043 0.433zM7.794 0.121c-0.359 0-0.703 0.143-0.957 0.397s-0.397 0.598-0.397 0.957v24.008c0 0.359 0.143 0.703 0.397 0.957s0.598 0.397 0.957 0.397h15.793c0.359 0 0.703-0.143 0.957-0.397s0.397-0.598 0.397-0.957v-24.007c0-0.359-0.143-0.704-0.397-0.958s-0.598-0.397-0.957-0.398h-15.793zM23.587 26.656h-15.793c-0.311 0-0.609-0.124-0.829-0.344s-0.343-0.518-0.344-0.829v-24.007c0-0.311 0.123-0.609 0.343-0.829s0.518-0.344 0.829-0.344h15.793c0.311 0 0.609 0.124 0.828 0.344s0.343 0.518 0.344 0.829v24.008c0 0.311-0.124 0.609-0.344 0.829s-0.518 0.343-0.828 0.344zM7.794 0.425c-0.279 0-0.546 0.111-0.742 0.308s-0.308 0.464-0.308 0.743v24.008c0 0.279 0.111 0.546 0.308 0.743s0.464 0.308 0.743 0.308h15.793c0.279 0 0.546-0.111 0.743-0.308s0.308-0.464 0.308-0.743v-24.007c0-0.279-0.111-0.546-0.308-0.743s-0.464-0.308-0.743-0.309h-15.793z"></path>
<path fill="#3e41dd" d="M10.591 2.125c-0.001-0.004-0.003-0.009-0.005-0.013-0.042-0.102-0.113-0.189-0.204-0.251s-0.199-0.094-0.31-0.094c-0.11 0-0.218 0.033-0.309 0.094s-0.162 0.148-0.204 0.25c0 0.003 0 0.007-0.004 0.010l-1.441 3.787c-0.024 0.058-0.037 0.12-0.036 0.183s0.013 0.125 0.038 0.183 0.061 0.11 0.106 0.154c0.045 0.043 0.099 0.077 0.158 0.1s0.121 0.033 0.184 0.030c0.063-0.002 0.125-0.017 0.182-0.044s0.108-0.064 0.15-0.111c0.042-0.047 0.074-0.102 0.095-0.161l0.243-0.641h1.669l0.243 0.64c0.021 0.059 0.053 0.113 0.095 0.159s0.093 0.084 0.149 0.11c0.057 0.026 0.118 0.041 0.18 0.043s0.125-0.008 0.183-0.030c0.058-0.022 0.112-0.056 0.157-0.099s0.082-0.095 0.107-0.152c0.025-0.057 0.039-0.119 0.040-0.181s-0.011-0.124-0.034-0.182l-1.432-3.786zM9.592 4.664l0.481-1.265 0.477 1.264-0.959 0.001z"></path>
<path fill="#3e41dd" d="M22.996 20.446c-0.058-0.022-0.119-0.033-0.181-0.031s-0.123 0.016-0.179 0.041c-0.056 0.025-0.107 0.061-0.15 0.106s-0.075 0.098-0.097 0.156l-0.243 0.64h-1.669l-0.243-0.639c-0.046-0.113-0.135-0.203-0.247-0.252s-0.238-0.052-0.352-0.009-0.207 0.129-0.259 0.239c-0.052 0.11-0.059 0.237-0.019 0.352l1.439 3.8c0.042 0.102 0.113 0.19 0.204 0.251s0.2 0.094 0.31 0.094c0.11 0 0.218-0.033 0.31-0.094s0.163-0.149 0.204-0.251c0.001-0.004 0.003-0.007 0.004-0.011l1.442-3.787c0.022-0.058 0.032-0.119 0.030-0.181s-0.016-0.122-0.041-0.179c-0.025-0.056-0.062-0.107-0.107-0.149s-0.098-0.075-0.156-0.097zM21.308 23.561l-0.477-1.264h0.959l-0.481 1.264z"></path>
<path fill="#fff" d="M19.986 14.049c0 0.094-0.006 0.189-0.017 0.282-0.004 0.031-0.009 0.061-0.013 0.092s-0.014 0.076-0.022 0.113c-0.005 0.024-0.011 0.047-0.016 0.070-0.012 0.046-0.025 0.092-0.039 0.137-0.007 0.022-0.015 0.045-0.022 0.067s-0.013 0.035-0.019 0.053c-0.075 0.195-0.178 0.379-0.303 0.546-0.022 0.029-0.044 0.061-0.067 0.086-0.194 0.236-0.434 0.43-0.704 0.571s-0.567 0.226-0.872 0.25c-0.304 0.024-0.61-0.013-0.9-0.11s-0.557-0.251-0.785-0.453l-0.046-0.043v2.039h1.238c0.121 0.004 0.236 0.056 0.321 0.143s0.131 0.204 0.131 0.326-0.047 0.238-0.131 0.326c-0.084 0.087-0.199 0.139-0.321 0.143h-3.412c-0.121-0.004-0.236-0.056-0.321-0.143s-0.132-0.204-0.132-0.326c0-0.122 0.047-0.238 0.132-0.326s0.199-0.139 0.321-0.143h1.237v-2.039l-0.046 0.043c-0.328 0.29-0.733 0.48-1.166 0.545s-0.876 0.005-1.275-0.175c-0.399-0.18-0.738-0.472-0.976-0.839s-0.364-0.797-0.363-1.235c0-0.018 0-0.036 0-0.054 0.014-0.573 0.243-1.119 0.642-1.531s0.939-0.657 1.511-0.687c-0.111-0.312-0.152-0.645-0.121-0.975s0.134-0.649 0.301-0.935 0.395-0.532 0.667-0.721c0.272-0.189 0.583-0.316 0.909-0.372s0.661-0.040 0.981 0.046c0.32 0.087 0.617 0.242 0.87 0.456s0.457 0.48 0.597 0.78c0.14 0.3 0.212 0.628 0.212 0.959 0 0.121-0.010 0.241-0.029 0.361-0.005 0.035-0.012 0.069-0.019 0.103s-0.015 0.067-0.023 0.101c-0.006 0.024-0.013 0.048-0.020 0.072-0.012 0.043-0.026 0.084-0.040 0.125 0.431 0.023 0.846 0.169 1.197 0.419s0.625 0.595 0.788 0.995c0.013 0.033 0.026 0.067 0.038 0.101 0.024 0.067 0.045 0.137 0.061 0.207 0.009 0.035 0.016 0.071 0.024 0.107s0.013 0.072 0.019 0.109l0.007 0.055c0.012 0.093 0.018 0.187 0.019 0.28z"></path>
</svg>
