<!-- Generated by IcoMoon.io -->
<svg version="1.1" xmlns="http://www.w3.org/2000/svg" width="29" height="32" viewBox="0 0 29 32">
<title>promotion</title>
<path fill="#3e41dd" d="M25.36 32h-21.28c-0.975-0.002-1.911-0.39-2.6-1.080s-1.078-1.625-1.080-2.6v-15.2c0.002-0.976 0.39-1.911 1.080-2.6s1.625-1.078 2.6-1.080h21.28c0.976 0.002 1.91 0.39 2.6 1.080s1.078 1.625 1.080 2.6v15.2c-0.002 0.976-0.39 1.911-1.080 2.6s-1.625 1.078-2.6 1.080v0zM4.080 10.72c-0.636 0.002-1.245 0.255-1.695 0.705s-0.703 1.059-0.705 1.695v15.2c0.002 0.636 0.255 1.245 0.705 1.695s1.059 0.703 1.695 0.705h21.28c0.637 0 1.247-0.253 1.697-0.703s0.703-1.060 0.703-1.697v-15.2c0-0.637-0.253-1.247-0.703-1.697s-1.060-0.703-1.697-0.703h-21.28z"></path>
<path fill="#fff" d="M14.723 32c-0.17 0-0.333-0.067-0.453-0.187s-0.187-0.283-0.187-0.453v-10.022h-13.043c-0.17 0-0.333-0.067-0.453-0.187s-0.187-0.283-0.187-0.453c0-0.17 0.067-0.332 0.187-0.453s0.283-0.187 0.453-0.187h13.043v-12.992l-3.469 3.469c-0.060 0.059-0.131 0.106-0.209 0.138s-0.161 0.048-0.246 0.047c-1.289-0.004-2.531-0.486-3.485-1.354s-1.552-2.058-1.678-3.341c-0.126-1.283 0.229-2.567 0.996-3.604s1.891-1.751 3.155-2.005c1.010-0.199 2.056-0.094 3.007 0.3s1.764 1.060 2.337 1.915c0.083 0.128 0.16 0.256 0.23 0.39 0.077-0.134 0.154-0.262 0.237-0.39 0.568-0.861 1.382-1.53 2.336-1.92 0.949-0.397 1.995-0.502 3.004-0.301s1.935 0.698 2.66 1.427c0.73 0.725 1.225 1.652 1.421 2.662 0.151 0.756 0.132 1.536-0.056 2.283s-0.539 1.444-1.029 2.039c-0.49 0.595-1.106 1.073-1.804 1.401s-1.46 0.495-2.23 0.492c-0.168-0.001-0.329-0.067-0.448-0.186l-3.469-3.469v12.998h13.037c0.17 0 0.333 0.067 0.453 0.187s0.187 0.283 0.187 0.453c0 0.17-0.067 0.333-0.187 0.453s-0.283 0.187-0.453 0.187h-13.018v10.003c0.003 0.086-0.012 0.171-0.043 0.251s-0.078 0.153-0.137 0.214c-0.060 0.061-0.131 0.11-0.21 0.144s-0.164 0.050-0.249 0.050v0zM15.363 5.261l4.16 4.173c0.685-0.041 1.347-0.262 1.92-0.64 0.646-0.43 1.149-1.042 1.446-1.759s0.372-1.506 0.218-2.266c-0.113-0.568-0.351-1.103-0.696-1.568s-0.788-0.848-1.298-1.121-1.075-0.431-1.653-0.46c-0.578-0.030-1.156 0.069-1.691 0.289-0.678 0.278-1.264 0.741-1.691 1.336s-0.677 1.299-0.722 2.030l0.006-0.013zM10.154 1.6c-0.258 0-0.515 0.026-0.768 0.077-0.76 0.146-1.458 0.519-2.003 1.069-0.533 0.533-0.901 1.207-1.060 1.944s-0.103 1.503 0.161 2.208c0.265 0.705 0.727 1.319 1.331 1.769s1.325 0.716 2.077 0.767l4.173-4.173c-0.064-0.993-0.503-1.925-1.23-2.605s-1.685-1.058-2.68-1.056v0z"></path>
</svg>
