<!-- Generated by IcoMoon.io -->
<svg version="1.1" xmlns="http://www.w3.org/2000/svg" width="32" height="32" viewBox="0 0 32 32">
<title>slots</title>
<path fill="#3e41dd" d="M30.774 32h-29.548c-0.325 0-0.637-0.129-0.867-0.359s-0.359-0.542-0.359-0.867v-25.808c0-0.325 0.129-0.637 0.359-0.867s0.542-0.359 0.867-0.359h2.976l1.502-3.055c0.1-0.206 0.257-0.38 0.452-0.501s0.42-0.185 0.649-0.184h18.391c0.23-0.002 0.455 0.062 0.651 0.183s0.352 0.295 0.453 0.502l1.499 3.055h2.976c0.325 0 0.637 0.129 0.867 0.359s0.359 0.542 0.359 0.867v25.808c0 0.325-0.129 0.637-0.359 0.867s-0.542 0.359-0.867 0.359zM1.226 4.353c-0.163 0-0.319 0.065-0.433 0.18s-0.18 0.271-0.18 0.433v25.808c0 0.163 0.065 0.319 0.18 0.433s0.271 0.18 0.433 0.18h29.548c0.163 0 0.319-0.065 0.434-0.18s0.18-0.271 0.18-0.433v-25.808c0-0.163-0.065-0.319-0.18-0.433s-0.271-0.18-0.434-0.18h-3.167c-0.057 0-0.113-0.016-0.162-0.046s-0.088-0.074-0.113-0.125l-1.585-3.226c-0.050-0.103-0.129-0.191-0.226-0.251s-0.21-0.092-0.325-0.092h-18.391c-0.115-0.001-0.228 0.031-0.325 0.092s-0.176 0.148-0.226 0.251l-1.585 3.226c-0.025 0.051-0.065 0.095-0.113 0.125s-0.105 0.046-0.162 0.046h-3.167z"></path>
<path fill="#3e41dd" d="M29.854 17.226h-8.337c-0.081 0-0.159-0.032-0.217-0.090s-0.090-0.135-0.090-0.217v-11.034c0-0.040 0.008-0.080 0.023-0.117s0.038-0.071 0.067-0.1c0.057-0.057 0.135-0.090 0.216-0.090h8.337c0.081 0 0.159 0.032 0.217 0.090s0.090 0.135 0.090 0.217v11.034c0 0.081-0.032 0.159-0.090 0.217s-0.135 0.090-0.217 0.090zM21.824 16.613h7.724v-10.421h-7.724v10.421z"></path>
<path fill="#3e41dd" d="M19.678 17.226h-7.356c-0.081 0-0.159-0.032-0.217-0.090s-0.090-0.135-0.090-0.217v-11.034c0-0.081 0.032-0.159 0.090-0.217s0.135-0.090 0.217-0.090h7.356c0.081 0 0.159 0.032 0.217 0.090s0.090 0.135 0.090 0.217v11.034c0 0.081-0.032 0.159-0.090 0.217s-0.135 0.090-0.217 0.090zM12.628 16.613h6.743v-10.421h-6.743v10.421z"></path>
<path fill="#3e41dd" d="M25.558 4.353h-19.115c-0.052 0-0.103-0.013-0.149-0.039s-0.084-0.062-0.111-0.106c-0.027-0.044-0.043-0.095-0.046-0.147s0.008-0.104 0.031-0.151l0.934-1.9c0.025-0.051 0.064-0.095 0.113-0.125s0.105-0.046 0.162-0.046h17.246c0.057 0 0.113 0.016 0.162 0.046s0.088 0.073 0.113 0.125l0.934 1.9c0.023 0.047 0.034 0.098 0.031 0.151s-0.018 0.103-0.046 0.147c-0.027 0.044-0.066 0.081-0.111 0.106s-0.097 0.039-0.149 0.039zM6.935 3.739h18.13l-0.633-1.287h-16.864l-0.633 1.287z"></path>
<path fill="#3e41dd" d="M10.483 17.226h-8.337c-0.081 0-0.159-0.032-0.217-0.090s-0.090-0.135-0.090-0.217v-11.034c0-0.081 0.032-0.159 0.090-0.217s0.135-0.090 0.217-0.090h8.337c0.081 0 0.159 0.032 0.217 0.090s0.090 0.135 0.090 0.217v11.034c0 0.081-0.032 0.159-0.090 0.217s-0.135 0.090-0.217 0.090zM2.452 16.613h7.724v-10.421h-7.724v10.421z"></path>
<path fill="#3e41dd" d="M6.804 24.644c-0.242 0-0.48-0.072-0.681-0.207s-0.359-0.326-0.452-0.55c-0.093-0.224-0.117-0.471-0.070-0.708s0.164-0.456 0.336-0.628c0.171-0.171 0.39-0.288 0.628-0.336s0.484-0.023 0.708 0.070c0.224 0.093 0.416 0.25 0.55 0.452s0.207 0.439 0.207 0.681c0 0.325-0.129 0.637-0.359 0.867s-0.542 0.359-0.867 0.359zM6.804 22.805c-0.121 0-0.24 0.036-0.341 0.103s-0.179 0.163-0.226 0.275c-0.046 0.112-0.059 0.235-0.035 0.354s0.082 0.228 0.168 0.314c0.086 0.086 0.195 0.144 0.314 0.168s0.242 0.012 0.354-0.035c0.112-0.046 0.208-0.125 0.275-0.226s0.103-0.219 0.103-0.341c0-0.163-0.065-0.318-0.18-0.433s-0.271-0.18-0.433-0.18z"></path>
<path fill="#3e41dd" d="M29.854 30.161h-22.13c-0.081 0-0.159-0.032-0.217-0.090s-0.090-0.135-0.090-0.217v-3.836c0-0.063 0.020-0.125 0.056-0.177s0.088-0.091 0.148-0.112c0.545-0.193 1.005-0.572 1.298-1.071s0.4-1.085 0.302-1.655c-0.098-0.57-0.394-1.087-0.836-1.46s-1.002-0.577-1.581-0.577c-0.578 0-1.138 0.204-1.581 0.577s-0.738 0.89-0.836 1.46c-0.098 0.57 0.009 1.156 0.302 1.655s0.752 0.878 1.298 1.071c0.060 0.021 0.111 0.060 0.148 0.112s0.056 0.113 0.056 0.177v3.836c0 0.040-0.008 0.080-0.023 0.117s-0.038 0.071-0.066 0.099c-0.028 0.028-0.062 0.051-0.099 0.067s-0.077 0.023-0.117 0.023h-3.739c-0.081 0-0.159-0.032-0.217-0.090s-0.090-0.135-0.090-0.217v-11.096c0-0.081 0.032-0.159 0.090-0.217s0.135-0.090 0.217-0.090h27.709c0.081 0 0.159 0.032 0.217 0.090s0.090 0.135 0.090 0.217v11.096c0 0.081-0.032 0.159-0.090 0.217s-0.135 0.090-0.217 0.090zM8.031 29.548h21.517v-10.483h-27.096v10.483h3.126v-3.321c-0.645-0.282-1.174-0.777-1.497-1.403s-0.421-1.343-0.277-2.033c0.144-0.689 0.521-1.308 1.067-1.752s1.229-0.687 1.933-0.687c0.704 0 1.387 0.242 1.933 0.687s0.923 1.063 1.067 1.752c0.144 0.689 0.046 1.407-0.277 2.033s-0.852 1.121-1.497 1.403v3.321z"></path>
<path fill="#3e41dd" d="M27.034 28.322h-14.713c-0.325 0-0.637-0.129-0.867-0.359s-0.359-0.542-0.359-0.867v-5.517c0-0.325 0.129-0.637 0.359-0.867s0.542-0.359 0.867-0.359h14.713c0.325 0 0.637 0.129 0.867 0.359s0.359 0.542 0.359 0.867v5.517c0 0.325-0.129 0.637-0.359 0.867s-0.542 0.359-0.867 0.359zM12.322 20.965c-0.163 0-0.319 0.065-0.433 0.18s-0.18 0.271-0.18 0.433v5.517c0 0.163 0.065 0.318 0.18 0.433s0.271 0.18 0.433 0.18h14.713c0.163 0 0.319-0.065 0.433-0.18s0.18-0.271 0.18-0.433v-5.517c0-0.163-0.065-0.319-0.18-0.433s-0.271-0.18-0.433-0.18h-14.713z"></path>
<path fill="#3e41dd" d="M26.115 26.483h-12.874c-0.081 0-0.159-0.032-0.217-0.090s-0.090-0.135-0.090-0.217v-3.678c0-0.081 0.032-0.159 0.090-0.217s0.135-0.090 0.217-0.090h12.874c0.081 0 0.159 0.032 0.217 0.090s0.090 0.135 0.090 0.217v3.678c0 0.081-0.032 0.159-0.090 0.217s-0.135 0.090-0.217 0.090zM13.548 25.87h12.261v-3.065h-12.261v3.065z"></path>
<path fill="#fff" d="M6.805 24.988c0.867 0 1.571-0.703 1.571-1.571s-0.703-1.571-1.571-1.571c-0.867 0-1.571 0.703-1.571 1.571s0.703 1.571 1.571 1.571z"></path>
<path fill="#fff" d="M9.002 8.433l-0.276-0.276c-0.013-0.014-0.029-0.025-0.047-0.031s-0.038-0.008-0.057-0.005c-0.019 0.002-0.038 0.007-0.055 0.017s-0.032 0.023-0.043 0.038c-0.006 0.006-0.392 0.496-0.987 0.496-0.294 0-0.509-0.123-0.729-0.251-0.245-0.141-0.515-0.294-0.913-0.294-0.497 0-0.962 0.3-1.232 0.515v-0.38c0-0.036-0.015-0.070-0.040-0.095s-0.059-0.040-0.095-0.040h-0.546c-0.036 0-0.070 0.015-0.095 0.040s-0.040 0.059-0.040 0.095v2.734c0 0.036 0.015 0.070 0.040 0.095s0.059 0.040 0.095 0.040h0.546c0.036 0 0.070-0.015 0.095-0.040s0.040-0.059 0.040-0.095v-0.546c0-0.282 0.129-0.411 0.411-0.411 0.113 0.013 0.224 0.040 0.331 0.080 0.334 0.122 0.686 0.186 1.042 0.19 0.228 0.001 0.455-0.015 0.68-0.049-0.018 0.006-0.074 0.129-0.092 0.147-0.031 0.049-0.067 0.092-0.098 0.141-0.121 0.205-0.269 0.393-0.441 0.558-0.178 0.159-0.38 0.288-0.57 0.435-0.227 0.175-0.427 0.381-0.595 0.613-0.172 0.251-0.288 0.546-0.398 0.828-0.149 0.397-0.238 0.815-0.264 1.238-0.006 0.11-0.012 0.221-0.012 0.331 0 0.036 0.015 0.070 0.040 0.095s0.059 0.040 0.095 0.040h2.74c0.251 0 0.074-0.331 0.037-0.441-0.066-0.201-0.111-0.409-0.135-0.619-0.051-0.421-0.017-0.848 0.098-1.257 0.049-0.172 0.11-0.331 0.159-0.497 0.104-0.349 0.221-0.693 0.343-1.036 0.206-0.623 0.45-1.233 0.729-1.827 0.056-0.137 0.133-0.265 0.227-0.38 0.014-0.012 0.026-0.026 0.035-0.043s0.014-0.034 0.015-0.053c0.001-0.018-0.002-0.037-0.008-0.054s-0.016-0.033-0.029-0.046z"></path>
<path fill="#fff" d="M18.548 8.43l-0.276-0.276c-0.013-0.014-0.029-0.025-0.047-0.031s-0.038-0.008-0.057-0.005c-0.019 0.002-0.038 0.007-0.055 0.017s-0.032 0.023-0.043 0.038c-0.006 0.006-0.392 0.496-0.987 0.496-0.294 0-0.509-0.123-0.73-0.251-0.245-0.141-0.515-0.294-0.913-0.294-0.496 0-0.962 0.3-1.232 0.515v-0.38c0-0.036-0.015-0.070-0.040-0.095s-0.059-0.040-0.095-0.040h-0.546c-0.036 0-0.070 0.015-0.095 0.040s-0.040 0.059-0.040 0.095v2.734c0 0.036 0.015 0.070 0.040 0.095s0.059 0.040 0.095 0.040h0.546c0.036 0 0.070-0.015 0.095-0.040s0.040-0.059 0.040-0.095v-0.546c0-0.282 0.129-0.411 0.411-0.411 0.113 0.013 0.224 0.040 0.331 0.080 0.334 0.122 0.687 0.186 1.042 0.19 0.228 0.001 0.455-0.015 0.68-0.049-0.018 0.006-0.074 0.129-0.092 0.147-0.031 0.049-0.067 0.092-0.098 0.141-0.121 0.205-0.269 0.393-0.441 0.558-0.178 0.159-0.38 0.288-0.57 0.435-0.227 0.175-0.427 0.381-0.595 0.613-0.172 0.251-0.288 0.546-0.398 0.828-0.149 0.397-0.238 0.815-0.264 1.238-0.006 0.11-0.012 0.221-0.012 0.331 0 0.036 0.015 0.070 0.040 0.095s0.059 0.040 0.095 0.040h2.74c0.251 0 0.074-0.331 0.037-0.441-0.066-0.201-0.111-0.409-0.135-0.619-0.051-0.421-0.017-0.848 0.098-1.257 0.049-0.172 0.11-0.331 0.159-0.497 0.104-0.349 0.221-0.693 0.343-1.036 0.206-0.623 0.45-1.233 0.73-1.827 0.056-0.137 0.133-0.265 0.227-0.38 0.014-0.012 0.026-0.026 0.035-0.043s0.014-0.034 0.015-0.053c0.001-0.018-0.002-0.037-0.008-0.054s-0.016-0.033-0.029-0.046z"></path>
<path fill="#fff" d="M28.244 8.43l-0.276-0.276c-0.013-0.014-0.029-0.025-0.047-0.031s-0.038-0.008-0.057-0.005c-0.019 0.002-0.038 0.007-0.055 0.017s-0.032 0.023-0.043 0.038c-0.006 0.006-0.392 0.496-0.987 0.496-0.294 0-0.509-0.123-0.73-0.251-0.245-0.141-0.515-0.294-0.913-0.294-0.497 0-0.962 0.3-1.232 0.515v-0.38c0-0.036-0.015-0.070-0.040-0.095s-0.059-0.040-0.095-0.040h-0.546c-0.036 0-0.070 0.015-0.095 0.040s-0.040 0.059-0.040 0.095v2.734c0 0.036 0.015 0.070 0.040 0.095s0.059 0.040 0.095 0.040h0.546c0.036 0 0.070-0.015 0.095-0.040s0.040-0.059 0.040-0.095v-0.546c0-0.282 0.129-0.411 0.411-0.411 0.112 0.013 0.223 0.039 0.329 0.079 0.334 0.122 0.687 0.186 1.042 0.19 0.228 0.001 0.455-0.015 0.68-0.049-0.018 0.006-0.074 0.129-0.092 0.147-0.031 0.049-0.067 0.092-0.098 0.141-0.121 0.205-0.269 0.393-0.441 0.558-0.178 0.159-0.38 0.288-0.57 0.435-0.227 0.175-0.427 0.381-0.595 0.613-0.172 0.251-0.288 0.546-0.398 0.828-0.149 0.397-0.238 0.815-0.264 1.238-0.006 0.11-0.012 0.221-0.012 0.331 0 0.036 0.015 0.070 0.040 0.095s0.059 0.040 0.095 0.040h2.74c0.251 0 0.074-0.331 0.037-0.441-0.066-0.201-0.111-0.409-0.135-0.619-0.051-0.421-0.017-0.848 0.098-1.257 0.049-0.172 0.11-0.331 0.159-0.496 0.104-0.349 0.221-0.693 0.343-1.036 0.206-0.623 0.45-1.233 0.73-1.827 0.056-0.137 0.133-0.265 0.227-0.38 0.014-0.011 0.026-0.026 0.035-0.042s0.014-0.034 0.015-0.053c0.001-0.018-0.001-0.037-0.007-0.054s-0.016-0.033-0.028-0.047z"></path>
</svg>
