<!-- Generated by IcoMoon.io -->
<svg version="1.1" xmlns="http://www.w3.org/2000/svg" width="43" height="32" viewBox="0 0 43 32">
<title>sportbook</title>
<path fill="#3e41dd" d="M38.598 12.883c-0.555-2.818-1.86-5.434-3.777-7.573s-4.375-3.721-7.116-4.579c-2.741-0.859-5.662-0.963-8.457-0.3s-5.359 2.066-7.423 4.063h-0.149v0.142c-2.255 2.226-3.798 5.072-4.434 8.176-0.021 0.103-0.042 0.207-0.060 0.309h0.978c0.3-1.556 0.845-3.054 1.617-4.438l0.913 3.874v0.077l-0.4 0.49h3.562l-2.221-0.739-1.059-4.739c0.155-0.249 0.343-0.498 0.549-0.775v-0.019l0.103-0.129c0.149-0.193 0.304-0.381 0.458-0.555l0.213-0.226c0.155-0.174 0.31-0.342 0.478-0.504l0.097-0.097 0.096-0.090c0.194-0.193 0.401-0.374 0.646-0.588l0.078-0.058c0.482-0.412 0.991-0.792 1.524-1.136l0.123-0.077c0.583-0.367 1.189-0.695 1.814-0.982l5.579 2.215v5.378l-5.243 4.197-2.197-0.73c0 0.142-0.008 0.493-0.035 0.996 0.47-0.149 0.959-0.23 1.452-0.239 0.586 0 1.066 0.143 1.432 0.415 0.061 0.046 0.12 0.096 0.174 0.149l5.013-4.023 5.228 4.182 0.026 0.012-1.57 6.295h-7.373l-0.767-3.081c-0.024 0.148-0.052 0.294-0.083 0.438-0.105 0.485-0.261 0.958-0.466 1.411l0.386 1.545-2.583 3.435-4.315-0.682c-0.109 0.077-0.222 0.148-0.339 0.212-0.135 0.076-0.252 0.18-0.344 0.305s-0.155 0.268-0.186 0.42c0.185 0.058 0.346 0.174 0.461 0.33s0.177 0.345 0.178 0.538c0 0.197-0.064 0.389-0.183 0.545 2.339 2.613 5.472 4.385 8.917 5.042s7.010 0.165 10.147-1.403c3.137-1.567 5.672-4.123 7.215-7.272s2.007-6.719 1.322-10.158zM22.927 3.77l-4.988-1.938c1.599-0.568 3.282-0.86 4.979-0.865v-0.019c1.687-0.003 3.362 0.283 4.952 0.846l-4.944 1.976zM23.488 9.987v-5.378l5.553-2.227c0.616 0.281 1.213 0.6 1.788 0.955l0.058 0.039c0.574 0.367 1.124 0.77 1.646 1.207l0.162 0.155 0.542 0.504 0.090 0.083c0.135 0.129 0.265 0.258 0.394 0.4l0.988 1.157c0.188 0.249 0.374 0.498 0.549 0.755l-1.104 4.707-5.436 1.821-5.232-4.178zM11.114 25.241l-0.020-0.019 4.617 0.729 2.789 4.365c-2.92-0.903-5.497-2.673-7.387-5.075zM26.55 30.246l-0.083 0.142c-2.179 0.53-4.448 0.572-6.645 0.123l-0.043-0.063c-0.42-0.612-0.7-1.091-0.794-1.237l-1.245-1.945-0.951-1.483-0.129-0.209 2.544-3.383h7.419l2.583 3.409-0.581 1.019c-0.391 0.683-0.782 1.366-1.171 2.050l-0.904 1.578zM27.73 30.206v-0.019l2.422-4.247 4.571-0.716c-1.798 2.302-4.226 4.032-6.988 4.98l-0.004 0.003zM37.497 19.117l0.090 0.058h-0.096l-1.203 3.41c-0.083 0.166-0.166 0.336-0.259 0.504l-0.174 0.304c-0.142 0.249-0.29 0.49-0.451 0.729l-5.25 0.83-2.583-3.428 1.568-6.283 5.406-1.806 3.228 3.875c-0.053 0.608-0.145 1.212-0.276 1.808zM37.93 16.037l-2.822-3.364 0.865-3.693 0.065-0.271c1.238 2.223 1.89 4.726 1.892 7.271v0.058z"></path>
<path fill="#fff" d="M36.37 11.247c1.008 0.001 1.993-0.298 2.831-0.857s1.492-1.355 1.878-2.286c0.386-0.931 0.487-1.955 0.291-2.944s-0.681-1.897-1.394-2.609-1.62-1.198-2.609-1.395c-0.988-0.197-2.013-0.096-2.944 0.29s-1.727 1.039-2.287 1.877c-0.56 0.838-0.858 1.823-0.858 2.831 0.001 1.35 0.537 2.645 1.492 3.6s2.249 1.492 3.599 1.493z"></path>
<path fill="#3e41dd" d="M30.22 6.154c-0.001 1.425 0.491 2.807 1.395 3.91s2.161 1.858 3.559 2.137c1.398 0.279 2.849 0.065 4.107-0.606s2.243-1.758 2.79-3.074c0.546-1.317 0.619-2.782 0.206-4.146s-1.287-2.543-2.472-3.335-2.608-1.149-4.027-1.009c-1.419 0.14-2.745 0.767-3.753 1.775-1.154 1.153-1.803 2.718-1.804 4.349zM39.86 9.639c-0.864 0.864-2.018 1.377-3.238 1.437s-2.419-0.335-3.364-1.109c-0.945-0.774-1.568-1.873-1.748-3.081s0.096-2.441 0.773-3.457c0.678-1.016 1.71-1.744 2.895-2.042s2.438-0.144 3.516 0.43c1.078 0.575 1.904 1.53 2.316 2.68s0.383 2.412-0.083 3.541c-0.247 0.598-0.61 1.142-1.067 1.6z"></path>
<path fill="#3e41dd" d="M36.4 10.091c-0.171 0-0.336-0.068-0.457-0.189s-0.189-0.285-0.189-0.457v-0.362c-1.111-0.207-1.886-0.949-1.886-1.834 0-0.171 0.068-0.335 0.189-0.457s0.285-0.189 0.456-0.189c0.171 0 0.336 0.068 0.457 0.189s0.189 0.285 0.189 0.457c0 0.174 0.232 0.394 0.646 0.517v-1.197c-1.11-0.207-1.886-0.943-1.886-1.834s0.775-1.627 1.886-1.834v-0.051c0-0.171 0.068-0.335 0.189-0.457s0.285-0.189 0.457-0.189c0.171 0 0.335 0.068 0.456 0.189s0.189 0.285 0.189 0.457v0.051c1.11 0.207 1.885 0.949 1.885 1.834 0 0.171-0.068 0.335-0.189 0.457s-0.285 0.189-0.456 0.189c-0.171 0-0.335-0.068-0.456-0.189s-0.189-0.285-0.189-0.457c0-0.181-0.239-0.394-0.613-0.523v1.195c1.11 0.213 1.885 0.949 1.885 1.84s-0.775 1.627-1.885 1.834v0.362c0 0.088-0.018 0.174-0.052 0.255s-0.085 0.153-0.149 0.213c-0.063 0.060-0.138 0.107-0.22 0.138s-0.169 0.044-0.257 0.040v0.002zM37.045 6.735v1.040c0.374-0.123 0.613-0.343 0.613-0.517s-0.271-0.402-0.613-0.523zM35.754 4.216c-0.381 0.129-0.646 0.343-0.646 0.524s0.232 0.4 0.646 0.523v-1.046z"></path>
<path fill="#fff" d="M17.913 14.784c-0.055-0.054-0.113-0.104-0.174-0.149-0.366-0.274-0.846-0.415-1.432-0.415-0.493 0.009-0.982 0.090-1.452 0.239 0.027-0.498 0.033-0.851 0.035-0.996 0-0.041 0-0.065 0-0.069v-0.27h-11.199v0.276c0 0.009 0 0.415 0.037 1.062-0.471-0.149-0.96-0.23-1.454-0.239-1.446-0.003-2.251 0.865-2.272 2.442-0.018 1.551 0.332 2.932 1.051 4.104 0.555 0.91 1.32 1.672 2.232 2.224 0.812 0.483 1.74 0.737 2.685 0.734 0.158 0.001 0.315-0.007 0.472-0.023h0.028c0.302 0.331 0.654 0.613 1.044 0.834 0.135 0.076 0.252 0.18 0.343 0.305s0.155 0.268 0.187 0.42c-0.185 0.061-0.346 0.179-0.459 0.337s-0.173 0.349-0.17 0.543c0.003 0.195 0.068 0.383 0.185 0.538s0.282 0.269 0.468 0.324v1.158h-1.49v1.208h-1.476v2.329h8.375v-2.331h-1.474v-1.208h-1.494v-1.158c0.193-0.055 0.362-0.171 0.481-0.332 0.119-0.157 0.184-0.348 0.183-0.545-0.001-0.194-0.063-0.382-0.178-0.538s-0.276-0.272-0.461-0.33c0.031-0.152 0.095-0.295 0.186-0.42s0.209-0.229 0.344-0.305c0.116-0.065 0.229-0.136 0.339-0.212 0.256-0.182 0.492-0.391 0.705-0.622 0.165 0.018 0.332 0.027 0.498 0.026h0.166c0.472-0.015 0.94-0.092 1.392-0.229 0.396-0.121 0.775-0.29 1.13-0.504 0.66-0.399 1.246-0.911 1.729-1.512 0.183-0.226 0.351-0.464 0.502-0.712 0.146-0.241 0.278-0.49 0.393-0.747 0.204-0.453 0.36-0.925 0.466-1.411 0.032-0.144 0.059-0.291 0.083-0.438 0.080-0.5 0.117-1.006 0.109-1.513-0.009-0.827-0.237-1.462-0.665-1.877zM14.334 13.671c0 0.101-0.007 0.228-0.012 0.377h-10.062c-0.006-0.149-0.010-0.276-0.012-0.377h10.087zM14.711 16.207c0.373-0.124 0.858-0.249 1.292-0.249 0.364 0 0.627 0.089 0.779 0.264 0.176 0.202 0.232 0.54 0.166 1.007-0.112 0.911-0.395 1.793-0.835 2.598-0.284 0.511-0.658 0.967-1.102 1.348-0.138 0.116-0.283 0.223-0.434 0.32-0.396 0.247-0.845 0.398-1.31 0.44 0.149-0.311 0.283-0.637 0.405-0.972 0.108-0.293 0.206-0.594 0.295-0.898 0.357-1.263 0.606-2.553 0.744-3.858zM4.155 18.129c0.271 1.456 0.646 2.706 1.114 3.715 0.015 0.032 0.029 0.062 0.044 0.093-0.464-0.043-0.912-0.193-1.307-0.44-1.263-0.811-2.105-2.324-2.372-4.27-0.064-0.466-0.007-0.805 0.166-1.007 0.153-0.175 0.415-0.264 0.778-0.264 0.435 0 0.919 0.126 1.294 0.249 0.066 0.598 0.158 1.252 0.283 1.923zM5.969 23.177c-0.845 0.003-1.675-0.224-2.401-0.656-0.921-0.554-3.058-2.233-3.016-5.849 0.015-1.278 0.581-1.9 1.72-1.9 0.51 0.014 1.014 0.109 1.494 0.281 0.013 0.185 0.029 0.371 0.046 0.555-0.399-0.124-0.814-0.193-1.232-0.204-0.53 0-0.932 0.153-1.194 0.453-0.285 0.327-0.386 0.813-0.3 1.445 0.149 1.079 0.459 2.037 0.923 2.841 0.411 0.733 0.993 1.357 1.697 1.817 0.574 0.355 1.234 0.544 1.909 0.547l0.005 0.009c0.028 0.050 0.056 0.098 0.083 0.146l0.027 0.045c0.027 0.046 0.055 0.090 0.083 0.134 0.010 0.017 0.021 0.032 0.032 0.049l0.057 0.087c0.019 0.027 0.037 0.056 0.056 0.083l0.056 0.083c0.009 0.012 0.017 0.025 0.027 0.036l-0.072-0.003zM12.926 29.923v1.225h-7.271v-1.225h7.271zM11.452 28.715v0.656h-4.324v-0.656h4.324zM8.621 28.163v-1.124h1.339v1.124h-1.339zM10.624 26.129c0 0.034-0.005 0.068-0.014 0.101-0.022 0.074-0.067 0.139-0.129 0.185s-0.137 0.071-0.214 0.071h-1.954c-0.092-0.004-0.178-0.044-0.242-0.111s-0.099-0.155-0.099-0.247c0-0.092 0.035-0.18 0.099-0.247s0.15-0.106 0.242-0.111h1.954c0.095 0 0.185 0.038 0.252 0.105s0.104 0.158 0.104 0.253zM12.004 22.976l-0.009 0.012-0.023 0.031c-0.019 0.024-0.039 0.049-0.059 0.072l-0.020 0.025c-0.030 0.037-0.061 0.073-0.091 0.108l-0.004 0.005c-0.282 0.332-0.619 0.612-0.996 0.83-0.074 0.041-0.145 0.088-0.211 0.141-0.323 0.254-0.539 0.619-0.606 1.025h-1.387c-0.039-0.244-0.133-0.476-0.275-0.678s-0.327-0.371-0.542-0.492c-0.349-0.197-0.663-0.449-0.931-0.747l-0.067-0.077c-0.297-0.346-0.555-0.724-0.768-1.126l-0.072-0.134c-1.19-2.295-1.546-5.609-1.654-7.368h10.007c-0.004 0.076-0.009 0.155-0.015 0.237 0 0.004 0 0.008 0 0.012-0.006 0.089-0.012 0.178-0.020 0.267v0.008c-0.022 0.283-0.048 0.567-0.078 0.848l-0.018 0.166c-0.13 1.168-0.355 2.544-0.741 3.837-0.091 0.305-0.191 0.605-0.3 0.897-0.137 0.369-0.296 0.729-0.476 1.079l-0.079 0.146-0.025 0.046c-0.158 0.29-0.339 0.568-0.54 0.83v0.001zM18.013 17.301c-0.034 0.607-0.143 1.208-0.326 1.788-0.112 0.356-0.256 0.7-0.429 1.031-0.321 0.612-0.742 1.166-1.245 1.64-0.306 0.288-0.641 0.544-1.001 0.763-0.436 0.262-0.913 0.448-1.411 0.552-0.327 0.069-0.661 0.104-0.996 0.104h-0.068c0.036-0.050 0.071-0.1 0.106-0.151l0.012-0.018 0.087-0.132c0.008-0.011 0.014-0.022 0.022-0.034 0.032-0.050 0.063-0.1 0.094-0.15 0.005-0.008 0.009-0.017 0.014-0.024 0.026-0.042 0.051-0.083 0.075-0.128l0.004-0.007 0.013-0.022c0.673-0.004 1.332-0.194 1.905-0.548 0.3-0.194 0.579-0.42 0.83-0.675 0.336-0.342 0.627-0.726 0.865-1.143 0.342-0.603 0.595-1.252 0.752-1.927 0.024-0.101 0.047-0.204 0.068-0.309 0.041-0.197 0.075-0.399 0.104-0.605 0.083-0.631-0.014-1.118-0.3-1.445-0.108-0.124-0.241-0.223-0.389-0.293-0.253-0.113-0.529-0.168-0.806-0.16-0.418 0.011-0.832 0.080-1.232 0.204 0.017-0.188 0.032-0.369 0.046-0.541 0-0.005 0-0.009 0-0.014 0.217-0.076 0.439-0.138 0.664-0.186 0.273-0.061 0.551-0.093 0.83-0.095 0.771 0 1.278 0.283 1.53 0.86 0.091 0.218 0.149 0.449 0.17 0.684 0.012 0.112 0.019 0.231 0.021 0.356 0.006 0.215 0.003 0.424-0.009 0.626v0.001z"></path>
<path fill="#fff" d="M18.007 16.316l-0.17-0.684c0.091 0.218 0.149 0.449 0.17 0.684z"></path>
<path fill="#fff" d="M6.981 22.056l-0.461 0.304c0.15 0.228 0.318 0.444 0.503 0.645l0.404-0.376c-0.164-0.178-0.313-0.37-0.446-0.573z"></path>
<path fill="#fff" d="M5.796 18.997l-0.539 0.123c0.265 1.162 0.618 2.134 1.050 2.894l0.481-0.272c-0.406-0.714-0.739-1.637-0.992-2.744z"></path>
</svg>
